<svg xmlns="http://www.w3.org/2000/svg" viewBox="0 0 1280.7 720.6" enable-background="new 0 0 1280.7 720.6">
    <path d="m.7 721c-.1-5.7-.2-11.3-.3-17 0-.8.1-1.9.6-2.3 8.5-8.2 11.9-20 20-28.4 1.4-1.5 2.3-3.7 2.9-5.8 1.6-6 6.2-10 9.4-14.9 1.8-2.7 3-5.6 4.3-8.4 4-8.4 10.7-15 14.9-23.4 5.2-10 11.2-19.8 17.9-28.9 3.6-4.8 7.3-9.7 12.8-13 3-1.8 5.1-5.1 7.6-7.8 3.8-4 8.2-5.4 13.8-5.9 5-.4 9.6-3.9 14.6-5.8 12.2-4.6 24.9-6.8 38-5.7 2.2.2 4.2 1.9 6.3 2.8 6.4 2.6 12.8-.3 19-.4 5.9-.1 11.8-1.4 17.6-2.7 4.5-1 8.2-4.2 12-6.5 1.5-.8 3-3 4.7-1 1.5 1.9-.9 2.8-2 3.8-9.8 10-20.8 18.6-33.7 24.4-2.9 1.3-3.5 5.1-6.9 6.4-1.1.4-2.3 2.4-4 3.2-4 2.1-5.4 6.5-3.5 10.6.5 1.2 1.5 2.2 2.2 3.3 4 5.9 3.8 5.8 8.8.7 8.1-8.3 16-16.7 25.3-23.7.4-.3 1.2-.3 2.8-.6-2.7 5.3-5.7 9.4-9.1 13-5.4 5.9-11 11.6-16.4 17.5-5 5.4-4.8 6.8-1.2 13.5 2.8 5.2 6.4 10 8.1 16 10-7.5 14.7-18.6 22.3-27.5 9.3-11 18.8-22 27-33.9 5.2-7.5 11.8-14.2 16.3-22.3 1.3-2.4 2.6-2.6 4.3-.5.8 1 1.8 1.9 2.2 3.3 2.6 9 7.2 17.2 11.4 25.4 3.7 7.3 1.6 14.2.6 21-.4 2.7-2.3 6.8.1 7.6 2.7.9 3.2-3.8 3.6-6 1.1-5.9 2.4-11.9 2-18-.6-8-.2-16-.2-24 0-1.2 0-2.7 1.4-2.8 1.3-.1 1.6 1.3 2.1 2.4 3.7 8 7.5 16 11.8 23.8 0-5.2-2.8-9.5-4.7-14-5.2-12.6-10.2-25-12.6-38.7-.7-3.9-2.2-7.6-3.2-11.5-.8-3-3-2.6-4.6-1.3-7 6.1-16 9.4-20 19.4-3.1 7.6-8 15-14.5 20.7-1.1 1-1.3 3.8-3.5 2.7-2.1-1.1-.4-3 .2-4.3 1.3-2.9 1.5-5.9.9-9.6-2.5 1.9-4.8 3.3-5.7 6.1-.7 2.1-1.8 3.4-4 2.4-1.9-1-.5-2.5-.1-3.9 1.2-4.3.6-8.9 3.1-13 1.2-1.9-2.9-3.7-6-1.7-3.3 2.1-7 2.8-10.5 4.2-2.5 1-3.2-.1-3-2.1 1.2-10.4-2.8-20.3-3.1-30.6-.1-3.7-2.2-5.4-4.9-4-9.9 5.1-9.9 4.2-16.6-4.9-7.7-10.5-4.6-20.9-3.1-31.8.7-4.8 3.3-9.1 2-14.6-1.1-4.8-3.7-8.3-7.2-10.9-7.3-5.5-10.5-13-12.2-21.4-.6-3.1-1.5-6.1-2.2-9.2-1.3-5.7-1.6-11.4 3.5-15.8 1.5-1.3 2.5-2.8 2.5-5.1-.2-8.9 4.6-12.3 12.7-9 2 .8 3.3.2 4.2-1.4 1.5-2.7 2.9-5.6 4.3-8.4.8-1.5 1.9-2.3 3.6-2 2.1.3 1.9 2 2 3.5.7 13 1 26 2.2 39 .8 8.9 2.3 17.8 1.9 26.8 0 .6.1 1.4.4 1.9 6.4 9.7 5.1 21 6.3 31.8.6 5.1-.2 10.6-6 13.4-.5.2-1 1.1-.9 1.6.6 5.5-3.6 8.6-6.9 12.6 4.3.3 6.5-1 7.4-4.7.8-3.1 2-6.3 6.4-3.4.9.6 2 .1 2.5-1 .4-.8.4-1.5-.6-2-2.9-1.6-2.9-2.1-.7-4.4 1.3-1.4 2.9-1.9 4.5-1.5 5.8 1.5 5.3-3.9 6.9-6.5 1.8-3 1.8-6.9.2-10-1-1.9-4.2-2.3-5.8-2.8-7-2-6.4-8-6-12 1.1-9.4.3-18.6-.5-27.8-1.5-15.9-1.5-32-3.6-47.9-1-7.8-.5-15.9.3-23.9.7-7.3 1-14.7 3.3-22 2.8 2.7 2.1 6.4 2.6 9.4 3 19 6.2 38 12.4 57 1.5 4.6 2.7 9.5 2.9 14.6.2 6.4 3.6 12.3 3.1 19-.2 3.2.2 5.5-4 5.1-1.7-.1-2.3 1.1-2.1 2.7.1.6.8.9 1 .3.9-2.6 1.2-.3 2.1-.1 3.7.7 5.3 4.7 8.9 5.2 2.4.4 5 .2 6.4-1.8 2.5-3.4 5.3-3 8.3-1.4 3.7 1.9 6.8 1.8 10-1.1 2.2-2 5.4-2 8-2.2 4.4-.3 6.3-2.1 6.5-6.4.1-1.3.8-2.5 1.2-3.5 4.7 2 9.3 3.4 13.7 5.4 4.7 2 5.6-3.2 5.7-5.9.2-8.5 1.1-16.9 2.1-25.3 1.6-12.6 2.8-25.3 7.1-37 1-2.8 1.3-5.8 2.1-9.9-4.4 4.9-6.2 10-8.1 14.9-2.4 5.9-3.1 12.4-8.8 16.6-2 1.5.1 4.8-1.8 8.1-1-6.8-.7-12.5 1.6-17.8 1.3-2.9 1.7-5.4 1.3-8.5-.7-5.8-.4-11.6-.4-17.5 0-9.5.4-19-.1-28.5-.8-16.7-2.8-33.4-1.9-50 .1-2-1-4.7 2.9-4.9.7 0 2-2.3 1.8-3.3-1.4-7.1 2.3-13.5 2.6-20.3.1-2.7.4-5.4-1.3-7.6-3.9-5-3.4-11-4.5-16.8-.4-2.3-.9-4.5-2.3-6-1.5-1.6-2.3-3.1-2.2-5.2 0-1.5-.7-2.5-2.3-2.6-1.5-.1-2.8.4-2.8 2.1 0 3.6-2.2 4.1-5 3.8-4.5-.4-7.4 1.5-10.3 5.2-2.2 2.9-6 4.6-8.3 7.8-.5.7-1.7 1.1-2.7.3-1.4-1-.5-2.1.2-3 3.3-4.6 6.6-9 11.3-12.8 5.5-4.4 10.6-9.7 15.2-15.2 5.3-6.4 12.6-10.2 18.9-15.3 8.3-6.8 17-13 24.8-20.6 4.8-4.7 10.4-8.6 14.2-14.6-6.8 5.2-13.4 10.5-20.3 15.5-7.7 5.5-15.3 10.9-24.4 13.9-4.5 1.5-8.8 3.5-12.9 6.2-7.4 4.9-14.3 10.5-22 14.7-4.1 2.2-6.6 6.7-10.4 9.7-1.5 1.2-2.8 2.5-4.7 2-2.5-.6-1.9-2.9-1.8-4.6.2-3.4-.6-5.6-4.6-5.2-2.6.2-3.5-1.4-3.4-3.7 0-1.5-.1-3 0-4.5.1-1.8-.6-4 .7-5.3 2.2-2.2 2.7 1.5 4.3 1.7 1.6.2 3.4.5 5 .2 2.7-.4 1.5-2.8 1.4-4.2-.1-1.3-1.1-2.4-2.8-1.1-1.9 1.4-4.3 1.7-5.8-.1-1.3-1.6.6-3.3 1.3-4.9 2.7-6.1 5.2-12.2 11-16 1-.7 1.4-1.9 1.3-3.1-.6-5.2 3.6-4.1 6.3-4.7 1.7-.4 2.2 1.4 2 2.8-.5 3.2.2 6.7-1.9 9.7 6.6-7.8 13.2-15.6 20-23.6-2.9-2-6.4.1-9.2-1.6 1.1-1.3 2.6-.9 3.8-.9 3 .1 4.8-.6 6.9-3.4 4.1-5.5 10.3-4 16-3 2.4.4 9.6-4.2 9.6-6.6 0-.7-1-1.4-1.2-.9-1.3 5.2-5.2 1.2-7.6 2.8-.4-3 4.2-4.2 2.3-6.3-2.2-2.3-5.8-1.3-8.8-.3-1.4-3.8 1.6-6.6 1.8-10.2-2.9.8-5 3.6-9.5 2.8 15-18.4 31.6-33.7 53-45.6-7.7 1.2-13.9 3.3-19.4 6.1-6.7 3.4-13.8 6-20 10.3-10.8 7.4-22 13.8-31 23.4-.2.2-.5.6-.7.7-1.6.5-3 3.3-4.6 1.6-1.3-1.5.7-3.2 1.8-4.6 7.8-10 16.4-19.6 23.3-30 9.2-14.3 19.9-27.6 28.5-43-6.6 1.1-11.5 5-15.6 8.7-14 12.3-27.7 25-40.9 38.5-10.7 10.8-21.7 21.5-30.5 34-.8 1.1-1.8 3.1-3.4 2-1.6-1.1.3-2.3.8-3.4 6.4-13.8 15.9-25.6 24.7-37.8 9.5-13.4 22-23.9 34-35 6.5-6.1 12.7-12.7 19-18.7 4.6-4.3 8.9-8.9 12.9-13.8 1.1-1.3 2.7-1.2 4.2-1.2 20.3 0 40.7 0 61 0 1.2 0 2.9-.5 3.6.9.6 1.4-.4 2.6-1.4 3.5-3.4 3-3.2 7.8-6.3 10.9 4-3.8 7-8.4 9.9-12.9 1.6-2.5 3.9-3.1 6-2 2.3 1.3.6 3.5-.3 5.1-4.6 8.9-5.7 18.8-9.1 28-1.9 5.3-3 11-5.5 15.8-3.3 6.1-7.4 12.3-12.9 16.9-5.7 4.8-12 8.8-17.4 13.8-5.1 4.8-11.7 7.4-17.4 13 25.5-10.5 46.9-24.8 64.9-45 1.5 4.1-.6 7.3-1.7 10-3.2 8.2-8.1 15.5-13.6 22.4-8.1 10.2-18 18.5-27.9 26.9-1.9 1.6-3.8 3.1-6.5 3.3-3 .3-3.5 3.7-6.1 5.1-3.3 1.8-7.3 3.1-10.5 6.9 5.2.4 8.2-2.9 11.8-4.4 7.9-3.2 15-8.3 22.7-12 6.5-3.2 12.2-8.4 17.9-13.2 5.1-4.3 10.7-8.1 15-13.3.6-.7 1.5-1.9 2.4-1 1.1 1 .7 2.4.3 3.7-2.4 7.7-4.8 15.5-7.1 23.3-3.1 10.7-4.1 21.8-5.3 32.8-1.5 13.2-3 26.3-4.4 39.5-1.5 14.5-4.5 28.8-5.7 43-1.2 14-2.6 28-1.8 42 1.3 22.4 5.2 44 11.8 66 10.2 33 27.3 63 40 95 5.6 14 12.8 26.9 22.4 38.5 14.5 17.6 31 32 52 42 11.7 5.6 23.5 10.8 35.5 15.3 16.6 6.2 33.6 11 51 14.8 10.2 2.2 20 5.1 30.6 6.2 15.9 1.6 31.7 2.6 47-1.6 8.1-2.2 16.5-3.5 24.5-6.3 13.2-4.8 25.4-11.5 36.6-19.8 7.4-5.5 15.4-10.3 21.6-17.4 16.6-19.3 29.7-40.6 38.6-64 6.5-17.5 9.8-35.7 12.9-54 2-11.8 4.1-23.5 6-35 .6-3.5 1.9-5 5.7-3.6 6.1 2.2 12 1.5 17.8-1.5 1.4-.7 3.2-2.2 4.4-.3.8 1.3.1 3.7-1.3 4.5-7 4-5.3 11.7-7.8 17.5-1.8 4.2-2.1 9-3.1 13.5-.3 1.1.5 3.2-1.6 2.9-1.6-.3-2.2-2-2-3.6.3-3.5.4-7 1.2-10.4.8-3.3.3-6.7.8-9.9.9-5.2-2.2-5.1-5.8-5.2-1.5 0-1.5.5-1.7 1.6-.9 7.2-3.5 14.2-3 21.6.2 3.7-2.7 6.2-3.3 9.8-2.1 14-7.1 27.6-9 41.6-1.1 8-5.7 14.7-6.3 22.7-.1 1.3-.6 2.9-1.5 3.6-5.8 4.7-6.5 12-10 17.9-4.8 7.9-10.8 15-15.7 22.8-3.2 5.1-7.8 8.9-11.8 13.3-6.2 7-9.1 15.2-11.2 23.9-1.9 8.1-3.9 16-8.3 23.3-1.8 3-1.4 6.8-2 10-1.5 8.1-6.4 15.4-5.8 24 .2 3.3-3.2 4-4.1 6.5-6 16.8-15 32-22 48-3 6.8-5.7 13.8-8.6 20.7-.4.9-1 1.6-2 3.1-.7-3.8.6-6.5 1.5-9.1 7.2-21.6 16.4-42 24.6-64 8.3-21.5 14.7-43.5 19-66 .3-1.4.8-3.2-.7-4.2-1.7-1.1-3.3.1-4.5 1.1-8.5 6.8-18.2 11.6-27.9 16.2-12.9 6.1-26.7 8.6-40.8 10-6.6.7-13.2 1.8-19.8 1.9-19.9.5-39-2.6-58-8.6-13.3-4.2-27-5.8-40.5-10-8.4-2.7-16.4-6.3-24.4-9.8-11.9-5.2-22.5-12.5-33-19.8-7.6-5.1-15.2-10-21.9-16.2-9.6-8.9-18.5-18.4-26-29-1.8-2.6-3.5-5.2-5.9-8.9-.4 5.9 1.5 10.6 2.2 15.2 2.9 18 6.1 36 9.9 54 3 14 7.5 27.8 10.5 41.8 3.3 15 10.8 28 17 41.7 6.1 13.5 13.5 26 20.3 39 5.1 9.7 11 18.8 16.6 28 .8 1.3 1.5 2.6 2 4 .3.9.3 2.2-.7 2.6-1.2.5-1.8-.7-2.2-1.5-2.4-4.7-6.9-8-9.2-12.8-.4-.8-1.3-1.4-3-1.2 12.3 20.8 24.5 41 33 63.9-3 0-6 0-9 0-4.6-9.6-10.3-18.6-16.8-27 .1 3.8 1.4 6.9 2.6 10 2.2 5.5 4.3 11 5.1 16.9-45.7 0-91 0-137 0-2.1-19.3-.5-38.8-4.2-58-2-10.7-4.1-21.4-6.9-31.9-2.1-7.8-4.7-15.7-8.4-23-2.8-5.5-4.2-11.5-6.7-17-5.6-12-10.9-24.3-16-36.7-1.3-3.1-2.8-6-4.3-8.9-4.4-8.7-5-18.9-10.9-26.9-2.3-3.2-3.3-6.9-2.8-10.9.2-2.3-.7-4.2-1.8-6.1-.5-1-1.1-1.5-2.3-1.4-4 .4-10.4 7.5-10.3 11.6.1 4.9 1.9 9.2 3.8 13.7 3.8 9.1 5.7 18.9 10.4 27.8 5.1 9.7 8.4 20 13.3 30 3.7 7.4 7.7 14.6 10.2 22.6 2.2 7.1 4.7 14.2 8 20.8 2.1 4.3 2.2 9.4 5 13.3 3.3 4.5 5.4 9.7 6.9 14.8 4.3 14.7 9.5 29 11 44.5.7 7.2 3 14.3 2 21.7-59 0-118 0-177 0-3.2-12-6.5-24-5.3-36.6.3-2.8 1-5.5 1-8.4-.2-9.6 2.8-18.4 7-27 1.1-2.3 3.6-4.4 2.6-7.3-1.8-5.3-3.2-11-6-15.7-1.8-3.1-1.9-9.4-6.8-8.5-3.6.7-6.9 4.7-8.9 8.3-6.1 11.3-14 21.6-17 34.4-2.3-.4-2.3-2.3-2.5-3.6-2-10.4 1.3-19.5 8.3-26.9 5.6-5.9 9.9-12.8 15.7-18.4 1.6-1.5 2-3.9 1-6.1-1.1-2.6-2.2-5.1-3-7.9-.8-2.7-2.7-3.3-4.8-1-2.8 3-6 5.6-8.7 8.6-2.2 2.4-4.9 4.3-7.1 6.7-4.4 4.7-7.5 10-10.6 15.5-5.5 9.6-11.2 19-9.7 31 .5 4.2-.7 8.2-2.1 12.2-1.3 3.6-1.8 7.4-1.9 11.2-.1 4.3 0 4.3 3.6 2.3.3-.2 1-.3 1.2-.1 4.8 3.4 9.9 1.4 14.9.8 4-.5 7.6-.8 8.9 4.8.8 3.4 3.3 6.4 5.1 9.6 1.3 2.4 2.7 4.8 6.1 4.6-.8 2.6-2.6 3.1-4.4 3.5-6.9 1.5-13.8 2.3-20.4-.8-2.2-1-4.5-1.2-6.8-1.1-1 0-2.2-.1-2.6 1.1-.4 1.1.5 1.8 1.2 2.6 1.4 1.7 3.3 3.1 4.1 6.6-5.4-2-10-3.6-13.6-7.1-2.2-2.1-4.4-3.8-7.6-4.2-15.7-2.2-31.5-4.3-46.7-9-10.4-3.2-20.9-6.4-30.7-11.5-6.7-3.5-7.5-3.1-11 3.3-6.3 11.4-13 22.7-19.5 34-.2.1-.6.1-.9.1m355-460c0-5.8 0-10.2 0-14.5 0-1.4-.7-2.5-2-3.3-1.1-.6-1.7.1-2.5.7-6.8 4.9-11.3 24.4-5.6 32 3.7 5.1 6.8 10.9 7.1 17.8.2 3.8-.4 6.5-3.5 8.5-3.1 2-5.9.8-8.8-.9-5.9-3.4-11-8.4-18.7-8.4-1.7 0-2.6-1.7-3.6-3.1-3.8-5.9-4.4-13.2-7.9-19-.5-.8-.7-2.5.2-2.7 3.5-.9 2.2-3.7 2.4-5.8 1.2-9.9 6.3-17.3 13.8-23.4 1.3-1.1 5.1.9 4-3.2-1-3.5-3.7-3.3-6.4-3.1-2.4.2-5.9 1.6-6.9.5-2.8-2.8-3.6-.2-5 1-2.6 2.3-4.9 4.6-3.2 8.5.4.8-.2 1.7-.8 2.2-5.8 4.5-4.3 11.8-6.3 17.6-3.7 10.4-1 21.7-.2 32.6.6 8.7 1.5 17.7 7 25 5.9 7.9 13.4 14 20.4 20.9 11.8 11.4 25.5 12.6 39 5.4 4.4-2.3 5.2-4.7 3.7-9.1-3.8-11.2-7.7-22.5-9.7-34-2.6-14.4-7.6-28.5-6.6-42m-244 333c-3-1.2-5.6-.2-8.2.8-3.7 1.5-7.3 3.3-11 4.5-15.2 4.8-27 13.5-35 27.6-8.8 15.4-18.4 30.4-27.7 45.6-1.8 2.9-.7 4.5 1.9 6 3.9 2.3 8.5 2.6 12.8 3.7 19 4.8 38.7 5.8 58 5.3 2.5-.1 3.9-1.1 3.4-3.6-1.8-9.1 1.4-17.3 4.3-25.5 2.1-6 3.5-11.9 1.8-18.4-2-7.6-2.5-15.3.4-23 .4-1.1-.1-2.4-.9-3.2-.9-.9-1.9-.1-2.7.3-8.9 4-17.7 8.2-25 14.7-8.8 7.6-15.4 16-13.8 28.7.6 4.7 2.1 9.2 3.8 13.9-3.6-.8-4.4-3.6-6-5.6-8.3-10.6-9.7-22.5-5-34.7 5.3-13.7 16.5-21.9 29-28.4 6.2-3.3 12.9-6 19.8-8.7m3.3-17c0-6.3-6.1-10.4-11-7.1-4.1 2.7-7.7 6.3-11 10-4.1 4.5-7.8 9.4-11.6 14.2-1 1.2-3.3 2.3-2.3 4 1.2 1.8 3.2.5 4.9-.2 7-2.9 13.8-6.4 21.3-8.2 8.7-2.2 9.9-3.8 9.9-12.7m918 144c-.1-4.7 3-8.8 2.5-13.6-.1-1.1.6-2.5 1.8-2.8 2.9-.7 2.4-2 1.5-4.3-2.5-7 2.1-13 9.5-13 2 0 4-.1 6-.3 3.9-.4 4.6-2.2 2-5.1-2.8-3.2-4.3-6.4-.1-9.7 1.1-.9 1.1-2.1.6-3.2-.6-1.4-1.9-1-3-.7-1 .2-2 .3-2.9.7-3.8 1.6-4.9-.1-4.5-3.6.2-1.8.7-3.6 1-5.4 3-18.6 4.7-37-3-55-4.3-10-6.4-21.6-19-25.3-.2 0-.3-.2-.4-.3-2.1-1.1-2.7-2-.6-4 2.5-2.3 4.5-5.2 6.7-7.8-1.6-1.1-2.9-.6-4.2-.5-11.2.3-22-.6-33-2.9-1.5-.3-3.8-.5-3.5-2 .8-4.6-2.5-3.1-4.2-3-9.6.3-19 0-28.7 1.5-11.3 1.8-23 .7-34-4.4-1.2-.6-2.8-1.6-4.2-.3-1.8 1.7-3.2.5-4.9-.3-7.3-3.2-13.9-7.7-21.7-9.7-1.2-.3-2.7-1.3-3.6.3-.9 1.4-.2 3.1.8 4.1 4.2 4.3 5.4 10.4 9.1 15 3.8 4.7 5.1 11 8.8 15.4 4.9 5.8 9 11.9 11.2 19 3.3 10.6 11.8 16.3 19.7 22.9 7 5.8 16.9 7.6 21.9 15.9 2 3.2 6 2.5 8.2 4.9 5.4 5.9 11 11.7 16.9 17 2.3 2.1 5.3 3.8 6.5 7.1-7.5-5-16-7.5-23.8-12-7-4.2-13.2-9.4-19.8-14-1.1-.8-2.3-1.8-3.6-.7-1.5 1.3-.5 3 .4 4 2.2 2.5 4.2 5.2 5.4 8.3 2.1 5.7 5.6 9.5 11.6 11.2 1.9.5 3.3 2.6 5 4 1.4 1.2.7 2.4-.7 2.4-4.6.1-3.3 2.7-2.8 5.4 1.2 6.2 4.5 11.3 8.4 16 .6.8 1.3 1.9.3 2.6-1.3.9-1.4-.6-2.1-1.2-5.1-4.7-8.4-11-14-15.3-2.5-1.9-4.4-4.5-6.6-6.7-3.7-3.7-4.8-9.1-8.7-12.6-.9-.8-2.1-1.6-3.1-1-1.2.8-.2 2 .3 3.1 4.6 9.9 7.2 20.5 12.3 30 .7 1.3 1.3 2.7.1 4.6-3.3-2.4-4.1-6.4-6.6-9.1-9.3-9.6-18.5-19.4-24.4-31.7-.4-.9-1.1-1.8-2.3-1.4-1 .3-1 1.3-1 2.1 0 1.1-.1 2.6.5 3.4 3.1 3.8 3.4 8.5 4.3 13.2-3.2-1.9-5.7-4.2-7.6-7.5-4.8-8.7-10.3-17-14.8-25.9-.8-1.5-1.8-2.7-3.3-3.5-9.1-5.1-16.9-11.8-24.3-19-4-3.9-6.7-8.8-11-12.4-1.2-.9-2.6-1.6-2.7.7-.1 4.3-1.2 9.2.4 12.9 3.5 8.3 7.4 16.6 12.4 24.3 1.7 2.6 5.6 3.7 5.5 7.2-.1 3.4 1.8 5.7 3.6 7.8 13.6 15.9 30.4 27.3 50 33.9 2.1.7 4.4 1.2 5.6 3.5-.5.4-.7.7-1 .8-14.6.4-29-.1-43.7-2.4-1.6-.3-3.7-1.1-4.6.5-1.1 2.1 1.6 2.4 2.6 3.6 2.9 3 7.4 3 11 5.5-4.3 2.2-7.5-.6-11-1-16.8-1.8-32.9-6.8-48-13.5-7.6-3.3-15.9-5.9-21.6-12.7-1.3-1.5-3.8-1.9-5.7-2.9-6.2-3.1-11-8-14.7-13.6-1.6-2.5-2.8-4.9-5.3-6.8-3.5-2.8-7.8-5.4-9.7-9.2-5.9-12-11-24.7-15.9-37-1.4-3.6-1.1-8.6-5.9-11.2-.6 4.9-.6 9.1 0 13.4 2.2 14.9 8.4 28.7 10.5 43.6.1 1 .5 1.9.9 2.8 4.8 9.3 8.6 19 14 28 3.2 5.2 4.9 11.4 9.1 15.8 5.6 5.6 8.7 12.6 12.7 19-3.5-2.8-7.3-5.2-10-8.9-.7-.9-1.1-2.8-3-1.8-1.5.8-2.9 1.7-2.8 3.7.1 3.8.2 7.6.3 11.5 80-.4 160-.4 240-.4m-250 0c-.2-6.9 2.2-13.3 3.9-19.9.6-2.4.5-4.4-1.2-6.5-3-3.5-6.4-6.7-9.9-9.7-1.4-1.2-3.1-2.8-4.8-1.6-1.5 1 .5 2.6.6 4 .1.9 1 1.8 0 3-1.9-2.1-3.9-4-5.5-6.3-5-7.3-11.3-13.7-15.4-21.7-.8-1.5-.1-4.3-2.7-4-2 .2-2.3 2.6-3 4.2-4.7 11-7.9 22.7-10.4 34.5-1.7 7.9-3.7 15.7-3.5 23.9 17.2.1 34.6.1 51.9.1m409 0c.9-4.9-1.3-9.1-3.4-13.2-4.8-9.8-9.4-19.6-15.9-28.6-5.1-7.2-10.2-14.6-16.5-20.5-11.3-10.6-22-21.8-33-32.6-1.2-1.1-2.3-2.5-3.1-3.9-8.6-15.6-16.9-31-23.3-47.8-.8-2.1-.8-5.1-3.9-7 .1 1.3.1 2 .2 2.6 2.1 10.3 5.4 20 9.6 29.7.6 1.3 2.5 2.9 1.1 4.3-1.5 1.5-3.4.1-5.1-.6-13.8-5.6-27.8-10.5-42-14.4-4.6-1.2-9.7-.5-13.9-3.5-1-.7-1.9-2.1-3.4-1.3-.8.4-1.3 1.1-1.1 2 .4 1.5 1.8 1.8 3.1 2.2.8.2 1.6.6 2.4.7 20.9 4.5 40 12.8 60 22 2.8 1.4 5.2 3.3 6.3 6.1 4.9 12.7 14.5 22 23 32 9.4 11 20 21 27.5 33.8 7.2 12 15 23.9 18.9 37.7 4.5.1 8.9.1 13.2.1m89-358c-6.6-3.8-11-10-16.5-14.9-6.2-5.5-7.8-16-18.4-16.6-.6 0-1.1-.7-1.6-1.1-6.2-5.4-13.5-9-20.6-12.8-2.4-1.3-5-3-8.2-2.5.7 2 2 2.9 3.4 3.8 6.4 4.1 13.3 7.7 18.8 12.7 10 9.3 21 17.6 30.6 27.7 3.3 3.5 7.6 5.8 12.5 6.6 0-.9 0-1.9 0-2.9m-376-155c.8-2.8-.3-3.8-1.3-4.9-13.5-14.9-23-32.4-30-50.9-5.3-13.7-11.2-26.7-23.3-35.5-8.9-6.4-16.6-14.2-24.8-21.3-5.5-4.8-11-9.5-17.4-13-1.3-.7-2.6-2.1-4-1.5-1.9.8-1.1 2.9-1.2 4.5-.2 5.2.5 10 2 15.2 1.5 5.1 4.4 9.7 5.1 15 .2 1.7 1.8 3.7-.3 5-2.8 1.7-2.3-2.6-4.6-2.8-.1 1.7-.3 3.3-.2 4.9 1.2 13.5 1.6 27 3.3 40.6 1.4 11 4.4 22 3.7 33.6-.3 4.1 1 7 5.9 7 2.3 0 4.6.8 6.9.9 8.5.1 17.4 2.6 24.9-3.8 1-.9 2.1-1 3.2-.2 1.4 1.1.9 2.4.2 3.6-2.1 3.4-3.6 7.2-6.9 9.6-4.8 3.5-4.8 7.9-2.7 12.8 2 4.6 4.1 9.1 5.4 13.9 3 11.5 2.6 23.4 2 35-.6 12-2.2 24.5-7.2 35-7 15.3-4.4 30-2.6 45 .1 1.3.8 2.4 2 2.6 1.9.4 1.3-1.4 1.7-2.3 3.9-9.5 7.2-19.3 12.4-28 2.7-4.6 3.4-9.8 3.6-15.3.4-11.4 1.5-22.8 2.9-34 1.1-8.7 2.5-17.4 2.8-26 .4-16.2.4-32.5-3.2-48.6-1-4.4-3.5-8.3-3.5-12.7-.1-8.8-3.5-16.8-5.7-25-.3-1.3-1.2-2.7-.1-3.8 1.5-1.4 2.5.3 3.8.9 2.3.9 4 2.4 5.5 4.2 1.1 1.3 2.2 3 4 1.8 1.4-1 0-2.3-.4-3.5-.3-1.1-.5-2.1-.7-3.2 11.9 15.8 25 30.5 39 45m-746-33.9c-1.7 7.9-2.4 16-3.9 24-2.2 11-.6 22-1.8 33-.4 3.8.4 7.8-1.7 11.4-1.6 2.7-3.1 5.5-4.8 8.2-2.2 3.6-2.1 7.6-1.8 11.6.1 1.4.7 2.6 2.3 2.8.9.1 1.9-.3 1.8-1.2-.4-5.9 2.5-10.4 6.1-14.7.5-.6.3-1.9.3-2.9-.4-13.5 6.1-25.6 8.4-38.5.1-.8.8-1.5 1.1-2.2 2.9-7.2 6.1-14.2 8.4-21.6 4-12.5 7.2-25 12-37 3.9-9.5 6.7-19.3 9.6-29 3.9-13.3 8.7-26.3 13.2-39 .3-.8.7-1.6-.2-2.2-.9-.6-1.6.1-2.2.7-.8.8-1.8 1.5-2.4 2.5-5 8.5-11.8 15.8-14 26-1 4.3-4.2 9.3-8.6 10.2-5 1-9.7 3.1-14 5-8.7 4-15.4 11.3-20.5 19.6-2.9 4.6-4.6 10.3-8.3 14-4.8 4.9-8.8 10-12.8 15.8-11.6 16.6-20.4 34-25 54-.5 2.2-1.7 4.5-.6 7.2 2.5-1.1 4-2.8 4.9-5 2.8-6.7 6-13.2 8.8-19.8 4.2-9.7 9.6-19 15.8-28 7.5-10.7 15.8-20.8 22-32 4.3-7.7 11-13.3 18.8-17.3 3.6-1.9 8-2.4 10.5-7.8 0 6.8 0 12 0 18-1.4-3.9-2.6-6.9-4.2-11.3-8.8 15-13.8 30-17.3 46m391 28c2.1-.1 5-.6 5.5-3.5.5-2.7-1.4-4.4-3.4-6-6-4.7-12.5-9-17.7-14.5-11.3-12-26-15.8-41-19.4-4.3-1.1-8.5-.5-12.7.6-1.8.5-3.8 1-6.6-1.3 7.6-.5 13.8-2.2 20.3-3 17.3-2.3 33-.2 46 12.5 2.2 2.2 4.9 3.4 7.9 4.5.2-1.5-.2-2.4-1.1-3-5.6-3.9-10.2-8.9-15-13.6-5.1-4.9-10.9-8-18.2-7.6-6.1.3-12.2.3-18.3 1.7-6.3 1.4-12.4 3.7-18.9 4.1-5.8.4-11 2.3-16.3 4.4-5.1 2.1-10.8 3.9-13.8 9.2-1.4 2.4-2.8 4-5.7 3.8-1.4-.1-3.6.4-1.8 2.6 1.7 2 3.7 3.7 5.8 5.1 1 .6 3.3-.7 3.3 1.7-.1 1.9-2.2 1.8-3.5 2.3-1.2.4-2.6.2-4 .3-.8.1-1.7.2-2.1 1.1-.5 1.3.7 1.8 1.5 2.1 6.1 2.8 12.9 4.1 18.6 7.8 1.2.8 2.3 0 3.2-.8 1.1-1.1.3-2.3-.4-3.1-1.4-1.6-2.2-3.1-1.5-5.4 1.1-3.6 3-5.7 7-5.6 4.3.1 6.7 1.5 6.6 6.5-.2 7 6.1 14.2 12.9 15.7 2 .4 4.2.1 4.8-1.6.8-2-1.9-1.7-2.9-2.6-.8-.7-2.3-.6-2.2-2.4 2.9-.4 5.6.1 8.3.6 3.3.6 5.8-.9 8.2-2.8.9-.8 1.4-1.8.2-2.4-2.8-1.3-2.7-3.9-3.1-6.3-.3-1.4-2.5-3 .1-4.1 1.9-.8 3.6-.8 5 1.6 1.2 2.2 3.3 2.3 4.2-.7.6-2.1 1.9-3.5 3.9-2.7 2 .8 2.8 2.9 2.3 5-.5 2.4-1.5 4.7-2.2 7.1-.3 1.1-.7 2.3 1.2 2.8 3.2-4.7 5-9.7 3.6-15.4-.7-3 .8-3.7 2.8-2.4 9.4 6 22 8.8 22 23.8 1.8-.4 1.7-2.1 2.2-3.1.6-1.3 1.2-2.5 2.9-2 1.8.6 3.3 1.9 3.9 3.6.6 2-1.7 1.6-2.6 2.2-2.8 1.8-6.5.5-10.3 2.9 4.3 2 7.7-.1 11-.3m391 299c-11.2-6.1-22.6-12.3-31.6-21.3-15.7-15.6-28.7-33-36.7-54-6.5-17.2-9-35-8.8-53 .1-8.4 1.2-16.9 2-25.3.4-4.5 1.1-9.1 2.1-13.6 1.1-5.2 2.6-10.6 2.6-16 0-1.1.3-2.6-1.3-2.8-1.4-.2-2 1-2.3 2.2-1.1 3.8-2 7.7-3.2 11.5-4.7 14.6-7.4 29.6-8.6 44.8-1.6 19.8.4 39 7.5 58 7.5 20 19.6 36.7 35 51 5.6 5.1 12.6 8.5 19 12.5 14.6 9.2 30 15.8 46.8 20 1.8.5 3.5.9 6-.1-9.5-5.7-19.6-8.6-28.8-13.6m-183-309c3.7-1.9 3.7-4.7 3.7-7.5 0-2.6.9-3.7 3.7-2.8 3.4 1 7 .7 10.4.4 3.8-.4 7.3-1.6 8.7-6-4.2-1.4-8.6 1.1-13-1.4 1.6-.4 2.6-.5 3.6-.8 1.9-.6 3.6-2 3.5-3.8-.1-2.6-2.6-1.1-4-1.5-2.3-.6-4.8-.9-4.7-4.1.1-1.4-.7-1.8-1.7-1.8-3-.1-4.5-2.6-6.6-4.1-4.9-3.5-9.6-7.2-16-8.2.4 4.3 5 3.9 6.8 7.2-3.7-.3-6.3 2.6-9.7 1.2-14.4-6.2-28.7-5.2-42.8 1.2-5.2 2.4-13 9.6-14 13.8 5.4-2 9.5-6.1 15.2-7.9-7.4 9.1-8.2 18.9-2.3 26.5 3.6 4.7 7.8 5.9 12.9 3.8-2.2-3-6.4-2.6-8.8-5.3-2.5-2.7-3.9-5.8-4.2-9.3-.3-3.5.6-6.8 3.8-9.7 1 7.3 4.1 12.6 10.3 15.8 2.3 1.2 6.8 1.1 6.7 0-.2-3 2.6-5.9.2-8.7-.8-.9-1.9-1.8-.9-2.9 1-1.1 2.5-2 4-1 1.7 1 3.1 1.4 5.1.8 4-1.1 5.7.8 6.1 4.9.3 3.5-1.8 6.6-1.3 10.2 6.9-5.2 7.3-11.8 1.2-23 13 3.7 26.4 6.2 24 24m-200-55c1.8 0 3.7 0 5.5 0 .8 0 1.7-.1 2-1.1.3-.9-.3-1.6-1-2.1-5-3.8-10-7.6-15.2-11.2-10-7-21.6-7.9-33-8.1-12.4-.2-24.8.2-37-.1-7.3-.2-13.6 2.4-19.9 5.2-6.6 2.9-13.4 5.7-20 8.3-5.9 2.3-11.9 4.2-16.8 8.4-1 .8-2 1.7-1.5 2.8.7 1.5 2.2.9 3.5.4 1.9-.7 3.7-1.8 5.6-2.1 13.3-1.5 25.9-5.2 38-10.7 1.6-.7 3.2-.7 4.9-.3 11.7 3 23.8 3.3 35.8 4.7 8.4 1 16.8.6 25 2.5 8 1.9 16.3 2.5 24.5 3.7-.2 0-.2-.1-.1-.3m222-18.4c-7.4-5.6-15.8-8-25-9.7-8.3-1.5-16.2-1.4-24-.2-10.8 1.6-21.5 3.9-31.9 7.1-5 1.6-11.6 1.5-14.3 8.1-1.3 3.1-3.3 6.1-1.5 9.3 1.8 3.2 5.4 1.4 8.3 1.7.8.1 1.6-.2 2.4-.5 18-5.3 36.4-9.8 55-13.3 3.8-.7 7.6-3 11.6-2 9 2.4 18.4 3.9 26.8 9.5.1-5.3-4-7.5-7.2-10m70 269c-4.8 13.9-3.7 27.7-1.1 41.5 4.5 24.6 18.3 43.9 35 61.7 8.2 8.8 45 26.9 52.8 24-57-23.6-83-67.9-87-127m-156 22c-8.7.1-17.2 2.5-26 1.2-6.3-.9-12.9-.4-19.4.6-7 1.1-14 2.5-21 1.8-14-1.4-27.9-.9-41.9-.3-7.3.3-14.5.8-21.8 0-5.4-.6-11-1.5-16.2 1.1-1.6.8-3.9 1.5-3.5 3.7.5 2.3 2.8 2.5 4.9 2.5 9 0 18 0 27 0 1.1 0 2.3-.2 3.4-.5 8.9-2.1 17.9-2.8 27-1.9 6.1.6 11.8 3.5 18 2 10.5-2.5 21.3-3.6 31.9-4.1 13.8-.7 27.7-3.5 41.6-1.5 1.5.2 3-.2 3.8-1.8-1.9-2.5-4.6-2.9-7.5-2.8m387 115c-3.9-7.9-5.9-16.5-8.7-24.8-5.2-15.7-12-30-24.6-41-5.6-5-10.7-10.4-15.3-16.3-2.9-3.7-3.2-10.5-.7-14.6.5-.8 1.5-1.6.6-2.6-1-1.1-2.1-.4-3.1.3-3.4 2.3-4.6 7.2-3.1 12.6 2.5 8.9 8.9 15.3 14.3 22.3 4 5.1 9.9 8.5 12.5 14.6 4.1 9.6 9.8 18.4 12.4 28.6.7 2.7.6 6 2.2 8 5.3 6.5 7.6 15 15 21 1-3.2-.3-5.6-1.5-7.9m-173-4.2c-11.4-6.2-22.5-12.5-31.9-21.7-4.7-4.6-7.6-10.4-11.9-15-7.9-8.4-12.5-18.6-15.4-29.6-2-7.6-2.7-15.6-4.1-23.4-.3-1.8-.6-3.6-3.9-4.5-1.4 26 3.5 49.6 22 69 13 13.3 28 23.5 47 28.7-.4-2.5-1.2-2.7-1.9-3.1m-865-150c-1.9 1-2.9 2.8-3.7 4.6-3.6 8.6-9.1 16-13.8 24-4.2 7.2-9.9 13.7-15.5 20-5.8 6.6-10.3 13.2-7 22.4 19.5-19.6 42.5-60 40-71m184-.8c-1.8-13.2-1.2-26.6-.6-39.8 1-19.8 1.8-39.6 2.6-59 0-1.1.1-2.4-1.4-2.8-1.2-.3-1.8.5-2.3 1.5-2 3.9-3.7 7.8-2.4 12.3.4 1.2 1 3.1.4 3.8-3 4-2.5 8.7-2.7 13-1.2 23 1 46 3 69 .2 2.6.8 5.2 2.9 7.4.8-1.8.7-3.4.5-5m-42.5 142c1.1-.6 3.5-1.3 2.7-2.1-2-1.9-1.2-6.4-3.8-6.1-4.5.6-6.3-2.4-8.2-4.8-2.6-3.1-4.7-3.8-8.3-1.6-6.4 3.9-12.9 7.5-20 1.7-.9-.7-2.2-1.2-3.2-.3-1.3 1.1-.6 2.4.1 3.6.6 1.1 1.3 2.3 2.2 3.3 6.2 6.6 13.7 10.2 21.8 9.1 6.5.1 11.9-.4 16.9-2.8m771-354c3-9.7-26.5-64.8-38.6-72.8 7.5 27.9 23.9 49 38.6 72.8m-153 378c-1 17-1.2 34 .8 51 .4 3.8 1.1 7.5 1.8 11.3.2 1.2.8 2.8 2.5 2.5 1.2-.2 1.7-1.5 1.7-2.7 0-.8.2-1.7 0-2.5-2.3-11.5-1.1-23-.9-34.6.2-11.6-.8-23 .8-34.8.6-4.2 1.3-8.9-2.9-13.9-.4 8.7-3.3 15.8-3.8 23.5m457-217c-7.6-11.3-14.7-22.9-19.6-35.7-3.7-9.7-7.2-19.3-5.5-30 .2-1.2.6-2.5-.9-2.9-1.5-.4-2 1-2.3 2-1.4 4.8-2.3 9.6-1.3 14.7 2.3 11.7 6.4 22.5 12 33 8.1 15 18.5 28.6 29.7 41 2.2 2.5 3.4 6.2 8.5 7.6-7.2-10.9-14-20.4-20.6-30m-413-275c-4.8-13.6-11-26.5-18.7-38.8-2-3.2-3.8-5.2-7.7-4.6-2 .3-4 0-6 .1-1 0-2.2-.2-2.7.8-.6 1.2.2 2.2 1 3.1 2.6 2.7 5.3 5.4 7.9 8.2 8 8.4 14 18.2 20.3 27.8 2.7 4.1 3.9 9 7.8 13.2.2-4-.9-6.9-1.9-9.8m-763 220c-3.4 6.2-7 12.4-10.3 18.6-1.1 2.1-2.7 3.8-4.8 4-9.7.8-19.4 3.4-28.9-.6-1-.4-2.3-1.3-3 .2-.8 1.6-.2 2.9 1.5 3.7 4.2 2 8.1 4.4 12.6 5.8 4.9 1.6 10.4.7 14.9 3 3.1 1.6 3.9.6 5.4-1.6 4.9-7.7 8.5-16 11.9-24.6 1.7-4.2 5.3-7.7 5-13.6-2.5 1.7-3.4 3.4-4.3 5.1m153 59c-.2-2.3 1.3-2.7 2.5-2.1 3.8 1.8 3.5-.8 3.5-3 0-10.3-.1-20.6 0-30.9 0-3.2-1.1-4.3-4.3-4.5-4.2-.3-5.6.9-5.5 5.3.3 11.8.2 23.6-.4 35.4-.2 3.6.4 5.9 3.4 8.5 1.3-3.4.9-6.1.8-8.7m632-262c-5.6-19-15.4-36.6-24-54-2.2-4.6-5-6.2-9.6-5.5-1.2.2-2.9-.4-3.6 1.1-.7 1.5.9 2.3 1.6 3.4 6.1 9.2 13 17.9 18.5 27.5 6 10.4 11.7 21 17 32.4 1.8-2.1.6-3.2.2-4.4m-623-59c-6 7.2-9.2 15.9-12 24.7-.3.8-.4 2.2.8 2.5.6.1 1.5-.5 2.1-1 2.6-2.4 4.6-5.3 7.9-7.3 7.5-4.7 14.2-10.6 20.6-16.9.6-.6 1.9-1.1 1.3-2.3-.5-1.1-1.7-.9-2.6-.9-2.5-.1-5 0-8.4 0-2.6.7-7-1.9-9.6 1.2m-79 233c-1.9-.3-2.2 2.1-2.8 3.6-.3.9-.4 1.9-.7 2.9-3.2 10-5.7 20.4-7.3 30.9-.5 3.3 0 6.6-3.1 9-1.4 1-1.4 3.6-.6 4 3.7 1.8 2.3 5.9 4.2 8.4.6.8.5 2.6 2.2 2.3 1.6-.3 1.8-1.7 1.9-3.1.3-3.5.6-6.9 1.1-10.4 1.3-9.5 2.1-19 4.3-28.4 1.1-4.8 1.4-9.8 2.7-14.4-.4-1.9.5-4.4-1.9-4.8m752 132c2.5-10.4 4.8-20.8 7.3-31 .3-1.3 1.2-2.8.1-3.6-1.2-.9-2.3.3-3.2 1.4-.5.6-1.3 1-1.8 1.7-4 4.8-9.7 8.9-9.3 15.8.5 10 .1 19.9.4 29.9.1 1.7-.8 3.8 2.1 4.8.6-6.6 2.9-12.6 4.4-18.8m-772-81c.3 7.5-1 14.5-5.8 20.6-1.5 1.9-1.5 4.5-1.5 6.7-.1 4.1.2 8.3.3 12.4.1 2.2.2 5.3 2.7 5.1 2.8-.2 6.6-1 6.8-5 1-14 1.5-28 0-42-.1-.9-.5-1.6-1.6-1.7-1.4 1.1-.9 2.7-.9 4.1m670-241c3.9 4.5 4.5 10.8 8.4 15 8.4 9.4 17.8 17.9 27.5 25.9.9.7 1.8 2 3 1.2 1.4-.9.6-2.4 0-3.6-.5-1-.9-2.3-1.8-3-13-10.7-21.8-25.3-33.7-37-.7-.7-1.5-1.3-2.2-1.9-1.7.8-2.3 2.1-1.2 3.3m-592 175c2.3-2.8 4.9-5.4 7.3-8.1 1.8-2.1 2-3.9-1.5-4.4-1.9-.3-3.8-.8-3.9-3-.2-2.1-.5-4.6-2.7-4.7-1.7-.1-1.8 2.8-2.7 4.3-1.4 2.4-1.5 5.4-4.2 7.1-1 .7-1.3 2-.8 3.2 1 2.2-.4 3.8-.9 5.6-1.7 6.8-4.8 13.3-3.7 20.7 3.9-7.3 7.9-14.4 13-20.7m692 109c4.8-8.2 4.8-18 8.7-26.6.4-.9 1.4-2.8-.6-3.4-1.5-.4-2.3 1.1-2.9 2.2-1.8 3.3-3.2 6.9-5.9 9.7-7.8 8.2-4.7 18-4.4 27.6 3.4-2.4 3.2-6.4 5.1-9.5m-406 277c2.5 7.7 4.7 15.5 7.4 23 5.3 14.9 13.6 28 21.7 41.9.4.7.8 1.7 1.8 1.3 1.3-.4 1.1-1.6.7-2.5-1.5-3.3-2.9-6.7-4.6-9.9-9.3-17-18.7-34-24-53-.5-1.8-1.1-3.8-2.8-5.1-1 1.6-.6 3-.1 4.4m197-453c8.5-3.2 17.7-1.6 27-4.3-16-7.8-36.9-.2-50 18 8.3-3.4 14.3-10.6 22.8-13.8m-93 178c-3.2-4.2-6.1-8.7-9.7-12.5-3.1-3.3-7.1-4.7-11.8-2.9-2.2.8-2.8 2.2-2.4 4.2.5 3 7.8 8.4 10.6 7.3 2.5-.9 3.6 0 5.1 1.5 2 2 3.8 4.2 6.6 5 1.2.3 2.3.5 2.4-1.3-.2-.5-.5-.9-.8-1.3m-341 238c2-8.2-4.9-37.6-9.2-41-3 15.4 3.8 28 9.2 41m-40.5-225c-.1 6.9.9 13.7.1 20.7-1.7 14.9 2.1 29.6 2.1 44 0 .2.4.4.6.5 1.7-.6-.5-4.1 2.7-3.5.5-7.5.1-15-2.5-22-.7-1.7-1.6-4.3-1-4.8 3.1-2.5 1.8-5.6 1.4-8.2-1-7.1-1-14 0-21.3.6-4 .7-8.2-.5-13-2.7 2.4-2.9 4.8-2.9 7.3m585-73.9c3.1-9.8 3.3-11 .1-15-1 8-3.4 15.3-7.7 21.9-.6.9-.9 2.1-1.2 3.2-.8 2.9-.5 5.9 2.3 7.5 2.5 1.4 4.9-.5 6.6-2.2 2.8-2.8 5.1-6.1 7.6-9.1.7-.9.8-1.8-.1-2.9-5.1 2.9-8.2 8.2-13.4 13 .3-7.1 4.2-11.3 5.8-16.4m-252 43.8c1 6.6 3.9 12.6 12 14.8-15.2-15-8-30-.6-45-9 8.4-13.3 18.6-11.4 30.6m205 194c3-9.4 5.4-19 9.6-28 .9-1.9.8-4.2.9-6.3 0-.6-.7-1.6-1.4-1.9-.9-.4-1.4.5-1.7 1.3-4.2 10.3-7.6 20.8-10 31.6-.4 1.8-.6 3.9.5 5.5 1.7-.1 1.8-1.2 2.1-2.1m-181-321c3.6-11.7-9-33-19-33.8 11.7 9.1 14.9 21.8 19 33.8m315 239c-2 7.3-2.6 14.8-5.5 21.9-.9 2.1-.7 4.7-.1 6.9.4 1.5.3 4.1 2.3 3.9 2.2-.2 2-2.7 2-4.4.1-6.5 1-12.8 2.6-19 .9-3.7.8-7.8 1.2-12-2.4.3-2.2 1.7-2.5 2.8m7.2-199c-.4-2.5-3.5-6.3-6-5.5-2.6.8-.1 4.2.5 6.4.2.8.3 1.6.6 2.4 1.9 5.7 2.1 11.8 4.4 17.6 1.2-7 1.7-14 .5-20.9" />
</svg>
