<svg xmlns="http://www.w3.org/2000/svg" viewBox="0 0 1276.7 720.5" enable-background="new 0 0 1276.7 720.5">
    <path d="m717 721c-.5-14.8-1-29.6.9-44 .5-3.5 1.7-7 2.2-10.6.2-1.7.2-2.9-1.8-2.1-3.1 1.2-3.1-.3-1.9-2.2 8.8-12.7 10.7-28 17-42 8.5-18.5 16.3-37 24-56 7.8-18.5 13-37.6 16.4-57 6.1-35.4 11.9-70.9 20.9-106 3.2-12.5 6.7-24.9 10-37 1.4-4.9 4.9-8.9 6.2-14 .6-2.4 4-1.7 6.1-.5 2 1.2 3.9 2.6 5.7 4 12.9 10.6 31.8 9.1 44-1.2 8.3-6.9 17.6-12.5 25-20.5 7.8-8.5 11.9-18.4 12.4-29.6.7-14-.2-27.8-2.6-41.7-1-5.8-.5-12-.1-18 .3-5.1 2-5.9 7.4-5.1 4.1.6 8.1-.7 12.3-.2 5.1.6 10.2 1.3 15 2.7 4 1.2 7.9.1 12 1.1 11.6 2.8 23 6.4 33.6 11.7 10 4.9 18.3 12.5 25.7 21 3.8 4.4 4.6 9.5 6 15.5 2.6-3.6 2.1-7.2 1.4-9.9-1.3-4.9-2.6-10.4-7.8-13-3.1-1.6-3.6-4.6-4.8-7.2-2.9-6-5.2-12.7-11.3-16.3-7.1-4.1-14.2-8.3-21.9-11.5-12-4.9-24.4-5.2-37-6.1-8.4-.6-16.8.1-25-1.1-2.2-.3-2.7-1.6-2.7-3.5.1-2.6.3-5.2-.1-8.1-2.2 4.6-10.5 4.7-8.7 12.4.2 1-.8 1.8-1.7 2.3-1.1.5-1.2-.6-1.7-1.2-1.9-2.1-3.7-3.3-4.6.8-.3 1.5-1.8 1.2-2.9 1.5-9.7 2.9-19.4 5.2-29.7 3.9-3.8-.5-7.7-.4-11.5 0-2.9.3-7.1-.9-7.1 4.5 0 1.4-1.4.9-2.4.6-1.7-.6-3.4-1.1-5.2-1.7 2.3-4.1 7.1-7.8 11.6-8 5.5-.2 10.9-2 16.4-1.1 4.6.7 8.2-2.6 12.6-2.2-2.2-6.8.1-8.9 8.2-10 6.7-.9 14.5-.9 19.5-5.9 6.2-6.3 13.4-7 21-7 15 0 30-.5 44.9 1.1 9.3 1 18.7 2 27.8 4.4 2 .5 4.3.7 6.4.4 5.6-.8 9.8 2.5 14.5 4.3 1.1.4 2.7 1.4 1.9 3-.8 1.7-2.4.5-3.6.2-7.4-1.7-14.8-3.5-22-5.4-2-.5-3.9-.6-6.6 0 4.9 3.8 10.5 4.1 15.5 5.7 23 7.3 45 16.6 66 29.4 5.4 3.3 10.5 6.8 15.6 10.6 2.3 1.7 3.5 4.4 7.8 3.9 4-.5-.2 3.4 1.1 5.4 1.4-1.8 2.8-2.4 5.1-1.1 11 6.3 20.4 14.9 29 23.9 2.5 2.5 3 6.2 7.7 7.3 3.6.8 6.6 18.9 4.9 22.9-1.5 3.4-9.5 4.1-11.8 1-1.4-2-3-4-3.9-6.3-6.4-16.5-19.8-27-32-38.8-9.6-9.1-20-17.2-30.8-24.8-10.2-7.3-21.5-13-32.9-18.4-6.5-3-13.3-4.7-20.4-6.2 0 2.4 1.8 2.6 3 3.1 13.5 5.8 25.8 13.6 37.9 21.7 2.3 1.5 4.2 3.7 6.1 5.8 2.4 2.5 4.9 4.5 8.6 4 1.7-.2 3.4.6 3.4 2.2.1 8.2 7.7 10 12.2 14.4 4.8 4.6 10.6 8.1 17.7 8.5 1.5.1 2.4 1.8 2 2.4-3.3 6 3.5 7.4 5.3 10.8 1.2 2.3 2.6 4.1 2 6.7-.5 2-.5 3.5.9 5 6.5 7 13.6 13.5 19 21 5.2 7.1 9.7 14.4 8.1 24.9-2.4 15.4-8.5 29-14.8 43-2.1 4.8-1.6 7.9 3.4 11.7 11.2 8.3 22.8 16 35 22.5 3.3 1.7 5.9 4.3 9 6.2 11.2 7 21.5 15.4 32.4 22.9 6.4 4.4 11.9 10.2 18 15.2 10.5 8.6 20.8 17.4 31 26 1.7 1.5 4.4 3 2 5.5-2.3 2.5-4.4 5.9-9.2 3.4-5.3-2.8-8.9-7.5-13.6-10.8-5.9-4.2-11-9.9-17.4-13.2-7.3-3.8-12-10.3-18.3-14.9-6.7-4.9-13.5-9.5-20.3-14.2-9.4-6.5-19-12.7-28-19.5-8.1-6-16-12.2-23.6-18.9-2.5-2.3-5-1.5-7.3 0-3.1 2.1-6.5 3.9-9.1 6.8-1.5 1.7-3.7 3.6-6 2.7-2-.8-2.2-3.6-2.5-5.7-.3-3-.2-6-.2-9 .2-13.5-2.5-26.5-6.1-39.6-3.1-11.2-9.3-20.7-14-31-1.1-2.5-3.4-4.4-5.4-6.9-1.2 1.8-1.1 3.6-.4 4.9 6.1 13.7 6 28.5 7.9 43 1.6 11.9-.8 23.5-.3 35 0 1 0 2-.3 3-.4 1.2-.9 2.7-2.5 2.6-1.9-.1-1.7-1.8-1.7-3.1-.2-6.8 0-13.6-1-20.4-1.5-10-3.5-20-5.3-30-2.4-12.8-7.5-24-12-36-1.2.2-1 1.4-1 2.2.2 17-1.1 33.9-3.4 50.6-2.4 18-4.2 36.5-12.7 53-1.1 2.1-.8 4.6-2.7 6.4-1.3 1.3-1.1 5.3-4.1 3.4-2.5-1.6-4.5-4.5-2.8-8.1.9-1.9 2.5-3.3 3.2-5.5 1.7-5.2 4-10 6.6-15 3.2-6 5.4-13 5.8-19.8.6-11.6 1.9-23.4-.8-34.8-2.5-10.6-1.8-22-9.1-31.7 1.9 17.3 3.7 34.5 1.8 51.7-1.8 17-9.4 33-11.5 51-6.7-7.9-14.4-14.2-17-24.4-2.9-10.9-7.7-21-14.9-31-.5 6.7 2.5 11.8 2.9 17.2.1 1.6.6 3.3.6 4.9 0 1.7.9 4.4-1 5-2.3.7-3.5-2-4.6-3.7-1.1-1.8-2-3.8-2.8-5.8-4-10.2-9.5-19.7-14.4-29.5-.6-1.2-1.6-3.1-2.5-2.8-5.3 2-5.3-2.6-6.6-5.1-6.2-11.4-13.3-22-23.8-30.6-.6 1.8-.2 3.2.8 4.6 8 10.4 13.6 22.3 17.4 34.5 5 16 9 32.5 10.5 49 .3 3.1 1.1 6.2 1.1 9.4 0 4.5-1.9 4.3-4.8 2.5-2-1.2-3.7-2.8-5.7-4.1-1.3-.9-2.8-2.4-4.5-1.1-1.7 1.3-.5 3.4 0 4.6 2.9 6.6 4 13.6 5.5 20.6 1.3 5.8 2.9 11.7 3 17.5.1 7.6 1.4 15 1.7 22.7.3 7 .2 13.9.5 20.9.2 4.6-.6 8.4-6.2 9.7-2.6.6-4.9 2.8-7.3 4.2-3.9 2.2-7.6.3-7-4 1.6-10.2 2.7-20.4 3.2-30.6.5-9.9 2.6-19.7.9-29.8-1-6 .8-12-.1-18.3-1.4-9.5-3.7-18.8-5.3-28-2.4-14.4-10-26.4-16-39-1.2-2.6-3.2-4.8-5.2-7.1.2 6.1 3.3 11 5.5 16.4 2.3 5.7 3.8 11.5 4.7 17.6 1.1 7.1 3.3 14 4.1 21.3.2 1.8.6 3.6.6 5.4.1 12 .6 24-.1 36-.7 12.7-2.2 25.4-4.2 38-3.1 19.6-5.9 39-9 58.7-2.4 14.9-3 29.8-2.5 44.7.5 16 4 31.9 11.3 46 2.5 4.9 4.7 11 8.7 14.2 6.3 5 9.3 12.8 16 17 4.6 2.9 7.5 8.1 12.8 10.3 1.4.6 2.6 1.3 4.2 1.6.6-1.7-.8-2.4-1.6-3.2-10-10.6-18.7-22.3-25-35.4-2.1-4.4-4-9.2-3.9-14.3.1-4.2-3-7.1-3.4-11.3-.5-6.9-2.1-13.8-1.7-20.8.3-4.2-2.4-7.8-2.2-12 .9-15.4 2.1-30.8 4.4-46 .4-3 1.5-5.9 1.7-9 .5-7.7.6-7.7 7.9-9.1 2.1-.4 4.2-1 6.3-1.5 5.2-1.4 7.2.7 7 6.1-.4 18.8-.6 37.6 3.7 55.9 3.1 13 7.8 25.9 16.6 36 5.1 6.1 10.8 12 18.3 15.8 3.9 1.9 7.6 4.1 11.4 6.1 4.5 2.5 7.3 1.4 9.2-3.2 1.9-4.8 3.9-9.5 6-14.2 2-4.5 3.6-8.8 1.3-13.8-1.3-2.8.1-4.5 3.3-4.3 2.3.2 4-.8 4.8-2.8 6.1-14.3 13.7-28 18.4-42.9 1.1-3.3 2.5-4.2 6.5-3.7 6 .8 12 1.5 18.2 2.1 9.1.9 17.8 3.4 26.5 5.8 10.2 2.7 20.3 5.8 29.9 10.6 2.5 1.3 4 3.4 6.2 4.8 6.5 4.3 13.5 7.8 20.6 10.9 11.3 4.9 22.8 10 32.5 17 17.3 12.6 33 27 46 44.9 12.7 17.6 24.5 35.9 39 52 .3.3.4.9.6 1.4-29.7 0-59 0-89 0-2.3-7.1-6-13.8-9.8-20-3.7-6.2-7.6-12.4-11-18.8-.4-.7-.7-1.6-1.3-1.9-5.9-2.8-9.2-9.1-8-15.9-2 1.6-3.8 1.8-5.4.1-1.6-1.7-.7-3.1 0-4.9.5-1.2 1.9-5.1-2.7-3-1.4.7-2.9.1-4-1.6-2.6-4.4-6.7-7.5-9.4-12-2.9-4.8-8.7-7.9-13.2-11.7-.8-.7-2.6-.9-1.9-2.4.5-1.2 1.9-1.8 3.4-1.5 1.3.3 3.2 1.7 3.6-.4.4-1.9-1.5-3-3.3-3.7-3.5-1.5-7.1-1.6-10.7-1.8-8.2-.5-7.6-1-10-8.1-1.7-5 1.1-4.1 3.5-4.9 2.2-.7 4.2-.3 6.4.2 1.7.4 3.6.8 5.1-.8 5.9-6.2 6.9-6.3 14.6-2 1.1.6 2.3 2.8 3.6.6 1.1-1.8-.8-2.9-2-3.4-8-3.6-15.5-8.2-23.7-11.5-9.7-4-19.6-7.1-29.5-10.3-6.7-2.2-13.4-3.9-20.5-4.7-5.7-.7-8.6 2-10.4 6.8-4.9 13.2-10 26.3-16 39-1.2 2.4-.8 4.1 1.4 5.5 4 2.6 7.9 5.5 12.4 7.3 1.4.6 3.3 1 4.1 3.6-3.3-1.1-6.1-1.1-8.9-1-1.1 0-2.6-.5-3.2.8-.6 1.4.5 2.5 1.4 3.5 1.7 1.8 3.5 3.5 5.2 5.4.6.7 1.6 1.5.7 2.6-.7.8-1.7.4-2.2-.1-3.8-3.7-9.1-5.4-12.3-9.7-.8-1.1-1.4-2.3-3-2.2-1.5.1-1.7 1.5-2 2.5-1.5 4.2-3 8.4-4.3 12.7-1 3.7 1.9 9 5.2 8.7 8.5-.9 16.3 2.6 24.6 3.3 3.8.3 7 1.7 7.9 6.2 1.3 7.1 1.5 14.3.8 21.4-.5 5.5-2.2 10.9-8.6 14.5.9-7.3-1.3-12.9-4.1-18.5-5.4-10.8-16.7-14.8-24.9-22.3-1.6-1.5-3.6-.9-4.4 1.9-1.5 5.5-2 11-2.8 16.6-.2 1.5.1 3 1.5 4 4.5 3.1 9.1 6.1 13.3 9.4 7.7 6.1 14.5 13 16.8 23-2.3 0-4.7 0-7 0-1.7-2.6-3.7-4.8-6.2-6.9-5.2-4.3-11.3-6.6-17.3-9.4-3.8-1.8-3.9-.3-4.2 2.5-.4 4.6-.9 9.2-1.3 13.8-65 0-129 0-194 0-.1-3.5-.5-7-.2-10.4.5-6 1.5-11.9-1.2-17.8 1.4 9.8-3.5 18.6-3.6 28-20.3 0-40.7 0-61 0-.7-4.8 2.4-8.5 3.5-12.7 2.4-8.7 7.5-16.7 6.1-26.3-.6-4.3-1.3-8.5-1-12.9.1-1.4.6-3.6-1.2-3.8-1.8-.3-1.9 1.9-2.3 3.3-3.7 12.8-6.3 25.7-5.8 39 .1 2.4 0 4.7 0 8.5-13.6-20.4-9.6-42.6-12.7-63-10 21.8-16.6 44.6-19.6 68-.4-.7-1.7-.7-3-.7m202-275c0 2.1 0 4.2 0 6.4 0 14 .2 28-1.9 42-1.4 9.5-2.4 19-4.6 28.4-2.5 10.4-6.5 20.5-8.3 31-1.9 10.8-6 20.9-7.8 31.7-2.6 15.7-7.5 31-6.7 47 .3 6.6-.1 13.2 1.1 19.9 1.1 6 4.2 11.2 5.8 16.8 1.9 6.8 6.1 12 9 18.2 1.2 2.6 3.9 4.4 7.2 6.4-7.2-12.9-11.9-25.7-12.3-39.7-.4-17.7.6-35 3.9-52.6 2.9-15.3 5.9-30.5 8.9-45.8 2.1-10.5 4.1-21 5.7-31.7 1.7-11.2 3-22.3 3.4-33.5.3-8.4.8-16.8 0-25.3-.7-6.7-.9-13.3-3.4-19.7m-688 275c0-8.8-.8-17.5-.6-26.3.2-6.2-1.2-12.5-1.8-18.8-.2-1.5-1.3-2-2.5-2.8-15.5-9.8-24-23-24.8-42-.3-8.1-1.5-16.4-1.7-24.6-.2-6.9 2.9-12.4 7.8-16.5 3.7-3.1 5.2-6.2 3.2-10.2-1.5-3.1.3-8.5-5.6-8.9-1-.1-.9-1.2-.6-2 2.7-6-1.5-10.8-3.3-15.9-.7-2-3.4-1.8-5.4-1.7-16.7.9-33 2.7-49.8 6-2.8.6-3.3 2.8-4.3 5.1-2.3-3-4.7-3.4-8.1-2.4-21.3 6.3-42 13.5-62.7 22.3-11 4.8-22.3 9.1-32.8 15-10.5 6-20.4 12.8-29.6 20.7-.9.8-1.8 1.5-2.8 2.1-1.3.9-3 2.6-4.3 1.1-1.4-1.7-1.4-4.4.6-5.9 7.6-5.6 14.3-12.5 22-17.5 7.7-5 16.6-8.8 25-12.9 13-6.3 27-10.3 40-16.6 11.6-5.6 24.3-7.9 36.4-12 3.4-1.2 7.3 0 10.6-2.3 1.7-1.2 3.1-2.3 3.2-4.6.9-18.5 11-31.5 24.9-42.6 15-12 32.5-16.2 51-18.2 15.5-1.7 30.9-.1 46 .3 5.8.2 11.5 1.3 17.3 2.1 15.5 2 29.9-.4 43-9 3.2-2 5.9-4.2 7.9-7.3 2.1-3.2 3-6 .1-9.9-2.6-3.5-3.4-8.2-5.2-12.3-3.6-8.2-7.9-16-11-24.5-2.2-6-3.9-12.5-4.4-18.8-1.3-14.5.1-28.9 3.9-43 .3-1 .6-1.9 3-2.4-6.7 36.7 5.4 69 24.4 99-3.6-8.4-7-16.8-10.8-25-5.4-11.8-7.9-24-8.8-37-1-12.7-.8-25 1.3-37.7 2-12.4 6.6-23.9 12.5-35 6.3-11.9 14.8-22.3 23.7-32.4.9-1 3-2 1.4-3.6-1.5-1.4-2.6.6-3.7 1.4-1.4 1-2.2 3-4.7 3 .7-3.7 4.3-4.8 5.8-7.6.5-.9 1.3-1.7.4-2.6-.7-.7-1.6 0-2.2.5-8.7 8.2-17.8 16-25 25.6-1.7 2.4-3 5.1-6.9 7.3 2-5.6 4.4-9.7 7.5-12.9 8.2-8.5 14.5-18.6 23.5-26.4 1.2-1 2.5-2.7.7-4.3-1.8-1.6-2.7.6-3.6 1.4-3.7 3.1-6.3 7.6-12 9.8 4.1-11.7 13.6-20 12.9-32.9-.6-11.8-3.5-23-5-34.9-5.9 7.1-14.2 11.4-18.5 19.5-.7 1.3-1.6 2.2-3.1 2.2-7.6.2-13.6 4.9-20.5 7-12.2 3.7-24.5 6.7-37.5 6-.1-2.3 1.4-2.2 2.6-2.5 17.7-5.9 33.8-14 46.8-28 15.2-16.4 27.5-34 33.5-56 .9-3.2 1.5-6.6 1.4-9.8-.3-11.4 2.6-22.4 4.2-33.5.7-4.9 5.3-6.9 8.7-9.7 4.4-3.6 9.8-5.5 14-9.5 8-7.5 16.3-14.4 18.5-26 .6-3.1 2.5-8.1 6.1-7 2.6.7 1.6 6 .6 9.1-2 6.1-1.9 12.4-2.4 18.6-1.1 13.9-2.3 27.7-4.5 41.5-4 25-9.4 49.7-14.2 75-3.6 18.4-3.4 37-.1 56 3.2 18 5.3 36 9.2 54 4.6 20.7 6.2 41.9 10.6 63 4.6 21.6 10 43 21 63 6.8 12 14.9 23.3 23.6 34 13.6 17 29 31.8 44 47 8.3 8.5 19.4 13.4 31 17 20.8 6.6 42 5.2 63 4.5 21.4-.8 41-7.5 60-19.9 9.7-6.6 20.4-11.7 30-18 16.5-10.4 32.8-21 48-33.5 10.3-8.3 21-16 30-25.7 5.9-6.2 10.9-13 15.5-20.4 6.7-10.7 10.9-22.6 16.4-33.8 3.4-7.1 5-15 7-22.7 2.3-8.6 6.7-16.2 10.4-24 .5-1.1 1.2-2.4 2.5-1.8 1.5.7 1.1 2.3.6 3.5-1.4 3.4-3.2 6.6-4.4 10-5.9 16-10 32.7-16.4 48.7-3.7 9.5-8.2 18.4-13.9 26.7-9.2 13.5-20.6 25-33 35.4-10 8.3-20.7 16-31.4 23.6-14 9.6-28 19-43 27-11.4 6-21.6 14.4-33.5 19.6-15.3 6.7-31 11.6-48 11.3-14.8-.2-29.6 0-44-1.2-16.7-1.3-32-6.6-44.8-18.5-10.2-9.4-21.4-17.6-31.7-27.3 2.1 6.2 3.8 12.5 6.2 18.6 6.9 17.6 13.7 35 21 53 7.1 16.3 15.3 32 22.4 48 6.1 13.9 14 26.8 21.7 39.7 8.2 13.8 15.6 28 25 41 1.8 2.5 3 5.4 3.6 8.5-1.7 0-3.3 0-5 0-3.9-6.8-8.6-13-14.2-18.7 1.9 6.3 5.4 11.9 5.2 18.7-44 0-88 0-132 0-.4-2.2 0-4.2.2-6.4.4-4.5 2.7-8.5 3.6-12.9 1.9-9.8 2.7-19.8 6.5-29.4 9.3-24 9.1-48.7 3.8-73-2.7-12.6-6.6-24.9-10.8-37-4.2-12-9.5-23.6-13.4-35.7-3.9-12.2-10-23.6-13.8-35.9-3.2-10.8-7-21.4-9.5-32.4-3.3-14-7.6-28-6.7-42.9.6-9.2-2.4-18.2-.7-27.3-.8 9.1-.7 18-1.5 27-.9 10.5 1.3 20.8 2.8 31 1.9 13 5 25.6 8.5 38 2.4 8.6 5.4 17 8.1 25.5 2.1 6.4 4.1 12.9 6.7 19 6.7 16.6 11.9 33.6 17.8 51 2.5 7.2 3.7 14.7 5.7 22 2.3 8.2 4.1 16.4 4.2 24.9.1 5.6.1 11.2.7 16.9.6 5.6-.2 11.4-2.6 16.8-.5-9.3-2.4-18.3-2.6-27.5-.3-9.7-2.9-18.9-4.6-28-1.9-10.2-5.5-20-8.1-30-4-15.7-10.6-30-16.2-45-4.4-11.6-10.7-22.5-13.6-34.7-.8-3.3-2.1-6.7-4.8-9.4 1.4 6.1 3.1 12 5.2 18 4.8 13 10.2 25.9 14.5 39 4.8 14.7 10 29 13.8 44 2.6 10.4 4.8 20.8 6.7 31.4 1.5 8.7 2 17.4 2.9 26 1.8 17.7.9 35.4-.6 53-.7 8.2-2.6 16.3-3.9 24.5-61 .3-122 .3-183 .3m-12.2-158c-.5-2.2 0-3.4 1.3-4.7 7-6.7 16.2-9.4 24.5-13.5 7-3.5 14.6-5.8 22-8.5 5.5-2 11-4.3 16.8-5.5 3-.6 5.3-1.1 6.9-3.8.4-.8 2-1.2 1.3-2.3-.4-.7-1.8-1.4-2.5-1.3-6.4 1.7-12.9.2-19.3 1.3-5.5.9-11.8 2.3-16.3-1.7-9.8-8.5-20.9-11.3-33.5-9.5-15.3 2.1-29.8 6.2-44 12.4-11.4 4.9-21.3 11-28.4 21.4-.8 1.1-2 2.1-1.2 3.5.7 1.4 2.3 1.1 3.6.9 8.9-1.1 17.8-1.8 26.7-2.5 7.4-.6 15 .6 22.3-1.4 1.5-.4 3.5-.1 3.8 1.5.6 4 3.6 6.7 5.5 9.9 3.3 5.8 4.9 12.3 7.9 18.2.9 1.7 1.5 3.2 4 1.8 14-8.2 28.9-14.6 43.6-21.3 9.1-4.2 19-6.1 27.8-11.5 2.3-1.4 7.1-1.3 6.1-4.4-.7-2.4-5.3-.6-8.1-.5-.3 0-.6.2-.9.3-8 3.5-16.9 3-25 5.3-6.7 1.9-13.7 2.8-20 5.5-8.1 3.6-17 5.3-24.7 10.4m170-236c-1.3-10.3-3.3-19-5.6-27.9-4.2-15.9-6.3-32-8.7-48-.8-5.2-1-10.7-.5-15.8.8-9.1-2.5-17.5-2.3-26.4 0-2.3-1.6-4.7-2.8-6.8-1.7-2.9-3.9-3.6-7-1.4-7.8 5.7-10.7 14-8 23.7 3.1 11 3.8 22.5 5 33.8 1 9 3.4 17.5 5.7 26 3.1 11.7 10.7 21.6 15.4 32.8 1.3 3.8 4.1 6.9 8.8 10.2m-146 264c.1.5.1 1 .2 1.5 4.2-1.2 8.6 1.2 12.8-2 2.9-2.2 6.5-3.1 10-4.1 10.3-3 20.3-6.8 29.9-11.7 7.2-3.7 12.8-9.3 18.8-14.3 6-5.1 9.3-12.3 13.3-18.9 1.3-2.1 1.2-4.9 1.7-7.3-1.3-.6-1.9-.2-2.3.3-12.6 13.7-29.4 21.3-44.5 31.4-4.4 2.9-9.3 5.4-13 8.9-3.6 3.4-7.3 5.9-11.7 8-5.2 2.3-10 5.4-15.2 8.2m138-64c-1.8 2.9-.7 4.6 0 6.4 1.6 4.7 3.8 9.3 4.7 14 2.8 14.9 7.8 29 11 44 3.9 17.9 6.8 35.9 9.8 53.9 1.9 11 1.9 22.5 1.3 33.8-.1 1.5-.6 2.9-.8 4.4-.1 1.3-.5 2.8.9 5.1 8.4-57-7.1-109-27-162m-27.9-329c-2.1-7.2 4.7-12.8 3.3-19.9-.3-1.5.4-3 2.1-3.5 1.8-.5 3.2.1 4.3 1.7 2.2 3.2 5.4 5.4 7.9 8.2 4.4 4.8 12.7 7.5 9.7 14.3-.3-5.9 3.9-13.3 4.1-21.7.1-5.9-3.1-9-6.7-11.7-3.5-2.6-8.1-2.4-12.2 0-11.6 6.5-16.4 18.5-12.5 32.6m703 2.3c.6 2.6 3.4 2.6 5.8 2.6 2.3-.1 3.1-1.8 4.1-3.2 1.3-1.7 2.9-2.4 3.9-.4 2.3 4.5 7.4 5.9 10.9 8.4 6.1 4.3 14.2 6.7 22 7.2 15.3.9 30.5-.7 45.6-2.9 3.3-.5 5-1.2 3.1-4.9-.8-1.5-1.7-3.4-.5-5.2 1.5-2.4-.4-3.2-1.9-3.3-3.6-.4-6.4-2.4-9.5-4-3.3-1.7-6.9-2.5-10.5-2.7-2.4-.2-3 2.8-4.5 4.3-1.9 1.8-3.6 1-4.5-.8-4.7-9.5-13.4-14-22-19-9.3-5.6-20.6-8.6-26-19.4-1.1-2.2-3.8-3.7-5.7-5.4-1.6-1.4-4.5-1.6-4.9-.4-2 4.7-5.9 3.4-9.1 3.4-19.3 0-38-1.5-57-3.8-3.6-.4-7.3-.6-10.9-1.1-4.1-.5-6.8 4.8-11.3 2.5-.5-.3-.7.9-.6 1.5.2 2.4 1.5 3.4 3.9 3.7 3.5.4 7.2-1.1 10.2-.2 6.7 2.1 13.3 4.4 20 6.5 14.7 4.6 28.9 10.5 43 16.7 9.1 4 18 8.1 25.6 15-1.1-.2-2.1-.7-3.1-1.1-5-2.1-10-4.3-15-6.4-1.5-.6-3.4-1.2-4.6.5-1.2 1.8 1.1 2.4 1.8 3.5 1.5 2.6 4.6 2.5 7.3 4.6-3.4 0-5.6 1.4-5 4m-905 132c-11.3 11.8-19 25.5-23.4 41-3 10.8-1.8 20.8 3 30 9.2 18.4 26 25 45 26.9 10.5 1 20.8-1.3 30.7-4.9 3.5-1.2 7.8.2 10.4-2.7 2.3-2.6 5.1-4.1 8.1-5.6 13.9-7.1 25.6-17.3 37.6-27 7.9-6.5 15.6-13.3 23-20 3.5-3.2 6.2-6.5 8.1-10.7 3.8-8.3 6.7-16.9 11.3-24.8 2.1-3.6 5-7.1 6.1-12.8-7.4 6.7-13.8 12.8-20 18.9-11.5 11.3-23.6 22-36 32-10.9 9.1-22.6 17.2-34 25.7-4.3 3.2-8.5 7-13.3 9.3-8.3 3.9-16.8 7.4-26 9.3-19 3.9-39.7-5.3-45-27.5-3.6-15.3-.1-29.6 7.4-43 3.2-5.7 6.8-11.2 12-16.5-3-.4-4 .7-5.1 1.8m53.6-180c11.2-1.2 22.3-2.8 33.4-4.5 7.7-1.2 15.5-2.1 22.9-4.3 12.5-3.6 24.8-7.8 37-12.2 5-1.8 10.2-3.5 14.7-6.9 7.1-5.5 14.7-10.4 22-15.7.7-.5 1.7-1.3 2-.3 2.1 6.6 5.3 1.5 7.2.4 15-9 27.5-21 39.7-33.6.6-.6 1.7-1.3.8-2.5-2.9-.8-4.3 3-7.3 2.3.5-1 .8-2 1.5-2.7 10-10.5 17-23 25-34.8 7.4-10.5 12.2-22.6 17.4-34.4.3-.8.2-1.6-.4-2.3-1.3-1.2-9.5-.8-10.4.7-2.9 5.1-5.5 10.4-8.5 15.6-5.5 9.8-10.4 20-17.6 28.7-8.4 10.2-17 20.3-26 29.9-15 16-31.6 30-51 40.7-24 13-50 19-76 25.8-13 3.4-26.6 5.3-39.8 8.6-3.8.9-8.2.5-12.4 4 9.5.3 17.8-1.6 26-2.5m704 15.8c4.9-3 2.6-4.3-1.1-5.9-4.9-2.1-9.7-4.5-14.3-7.1-5.2-2.9-10.5-5.8-14.6-10.3-4.4-4.9-9.3-9.3-13.8-14-4.3-4.6-8-9.8-11.8-14.8-5.6-7.4-9.1-16.4-13.5-24.7-1.7-3.1-2.7-6.4-2.7-9.9 0-2.2-5.3-8.3-7.3-8.7-1.4-.2-2.1.5-2.5 1.8-.9 2.7-1.2 5.5-1.1 8.4 0 1.3.3 3.4-.4 3.8-3.9 2.3-2.1 5.3-1.7 8.3 1.3 8.9 5.7 16.6 9.2 24.6 6.2 14.5 14 28 25.3 39 2.3 2.3 5.4 3.2 7.6 5.5 6.6 6.7 14 11.9 24 10.7 1.6-.2 3.6-.5 4.9.2 6.7 3.4 13.7 1.1 20.6 1.7 2.3.2 3.8-.6 3.8-3.3 0-2.8-1.7-3.2-3.9-3.2-2.6 0-5.2 0-8.8 0 1.3-1.7 1.5-2.2 1.9-2.4m173 57.8c6.9 3.6 13.5 7.9 20.7 10.8 6.4 2.6 11 7.6 16.9 10.8 5.6 3 11.6 5.7 15.8 11.6 5.4 7.7 10.9 15.3 16.2 23 .9 1.4 1.7 2 3.5 2 9-.1 9.9 1.2 12 10.5 1.3 5.8 2.7 12 8.7 15.6 2.4 1.5 3.7 1.7 3.7-1.5 0-8.4 1.2-17-3.7-24.7-2-3.2-.9-5.7 2.3-7.4 1.5-.8 3-1.5 4.4-2.4 1.6-1.1 3.9-2.1 3.5-4.4-.3-2.1-2.8-1.9-4.4-2.6-9.7-3.9-19.6-7.2-25-17.3-2.7-4.8-7.9-7.4-13-9.5-2.9-1.2-5.6-2.9-8.5-4.1-10-4.3-19.8-9.3-30.4-11.7-3.3-.8-7-2.2-10.4-1.3-3.2.8-5.9-1.3-6.1-2.6-.6-3.5-2.7-2.3-4.2-2-2.2.4-4.4 1.4-6.6 2.2.5 2.7 2.7 3.8 4.9 5m-488 201c-9.9 1.2-19.6-2.8-29.5-1.5-6.4.8-12.9-.3-19 1.4-2 .5-4.4.4-6.4 0-4.3-.9-8.5-.6-12.8-.1-5.5.6-11.3 1.2-16.6-1.7-.6-.3-1.2-.6-1.8-.7-7.3-1.5-8.2-2-13-8.9-1.5-2.1-3.3-2.5-5.6-2.4-2.8.1-5.5-1.2-5.5-3.8 0-2.9 3.2-2.7 5.5-2.8 1.6-.1 3.5 0 4.9-.7 8-4 16.9-5.6 24.9-9.7 4.8-2.4 10.4-3.5 15.5-2.4 10.7 2.5 21.7 1.9 32.5 3.5 3 .4 5.1 2 7.6 3.3 7.5 3.8 14.8 8.7 22.9 10.8 7.9 2.1 15.6 5.1 24 5.2 1.8 0 4.1-.3 4.4 2.1.3 2.2-2 2.3-3.4 2.9-2.2.8-4.3 1.6-6.7 1.6-3.4 0-6.6-.1-9.7 2.6-3.4 2.6-7.9 1.2-11.9 1.3m.4-6.9c-6.9-2.8-12.8-6.5-17.5-12-.3-.4-.8-.6-1.3-.8-13.6-6.5-28-6.9-42.8-6-4.6.3-9.5.7-13.9 4 4-.1 8.2-.8 10.3 4.1-5.3 2.9-12.3 2.7-17.5 7.7 14.3.4 27.4 5.5 41.5 3.6 13.6-1.8 27.4 1.2 41-.6m-504-244c18.3-10.5 37.8-18.3 57.7-25 16.5-5.6 33.5-8.9 51-12.5 18.9-4 37.9-7.9 56-13.9 5.5-1.8 11.6-2.5 16.4-6.7-2.5-1.2-4.5-.4-6.6.2-6.2 1.7-12.4 3.4-18.6 5.2-10.7 3.1-21.8 4.1-32.6 6.3-6 1.2-12 1.4-18 2.7-1.3.3-1.6-.2-1-.8 2.1-2.2 0-2.1-1.2-2.1-3.6.2-7.3.6-10.9.9-7.6.7-15.2 1.7-22.5 3.8-10.5 2.9-21 5.8-31 9.9-13.3 5.4-26 11-35.9 22-2.7 3-5.1 6.3-5.5 11.4 1.4-.8 2.4-1 3.2-1.5m675-51.7c-.7-.6-1.4-1.4-2.3-1.8-13.5-6-26.9-12-40.5-17.7-2.6-1.1-5.8-1.2-8.8-1.2-16.9 0-33.7 2.5-50.6 3.7-10.3.7-20.6 1.9-27.7 11-1.2 1.6-3.1 3.1-2.4 5.2.8 2.3 3.2 1.2 4.8 1.2 11.6.2 23-.7 34.7-2.1 12.6-1.5 25.6-1.6 37.8-5.2 8.5-2.4 16-1.5 24.3.8 9.8 2.8 20 3.5 29.7 7.3.6-.5.8-.9 1-1.3m-588-36.9c11.8 0 23.3-3.5 35-3.5 15.4.1 29.6-4 43.5-9.9 6.9-2.9 13.4-6.8 20.5-8.9 12.9-3.8 25.5-8.3 37.6-14 3.5-1.7 6.6-4.3 10.8-4.7 1.1-.1 2.7-1.5 2.2-2.9-.7-2.1-2.3-.5-3.3-.1-6 2.3-12 4.1-18.4 5.5-11 2.4-22.3 4.7-33.4 7.3-13.3 3.1-26.7 6.1-40 9.6-14 3.7-28 8-41.7 12.9-5.3 1.9-10.9 2.7-15.9 5.5-1 .5-2.5.8-2.3 2.2.2 1.4 1.7 1.3 3.2 1.4.6-.1 1.4-.3 2.2-.3m674-60.8c5.2 4.5 10.2 8.7 13 15.2 1.7 4 7.1 6.1 11 4.9.9-.3 1.3-.4 2 .3 3.4 3.2 4.8.8 4.7-2.3-.1-5.4-4.7-9.9-3.8-15.7 0-.1-.2-.3-.3-.4-3.3-3.8-5-8.5-6.1-13.2-1.2-5.1-5.4-8.7-6.7-13.7-.5-1.8-2.3-1.7-3.8-1.7-13.6 0-27.3 0-40.9 0-1.1 0-2.5-.3-3.1.9-.7 1.4.7 2.2 1.4 2.9 5.7 6.2 10.9 12.9 15.7 19.9.4.6 1.2 1.9 2.2.4-.8-4.6-4.7-8.5-2.6-15.2 6.2 6.6 11.3 12.6 17.2 17.7m-740 592c5.4-14.5 18-22 29.8-30 7.9-5.5 16.5-10.5 25.9-13.4 1-.3 1.8-2.1 3-1 1.2 1 .5 2.5-.2 3.7-2.7 4.8-4.3 10-5.1 15.5-1.7 10.7 1.9 19.9 8.6 28 .7.8 1.5 2.1 2.8 1.6 1.3-.5.9-2 .9-3.1-.1-2.6.5-5 1.3-7.3 1.2-3.4 1.3-7 .3-10.3-3.8-13.4 0-25.4 6.5-37 .8-1.4 2.4-2.7 1-4.4-1.1-1.5-2.9-.5-4.2-.2-11 3.1-22 6.7-32 11.9-9.1 4.7-18.2 9.3-25.9 16.8-8.1 7.9-14.2 16.4-16.9 27-1.4 5.5-1.6 11.4 1.3 16.9.2-5.2 1.2-10 3-15m302-506c5.1-2.5 10-4.9 15.3-7.3 5.5-2.5 10.9-1.2 16.4.3 9.2 2.5 18.5 4.3 28 5.4 10.3 1.3 19.7 6.7 30 6.7 2.6 0 5.9 2.6 7.4.1 1.5-2.5-2.8-3.9-3.5-6.5-2.9-9.6-11.5-11.8-19.5-14-10.5-3.1-21.6-3.1-32.4-3.9-6.7-.5-13.7-1.3-20.3.6-8.4 2.5-15 8-21.8 13.3-1.8 1.4-2.6 3.6-3.3 5.7 1.5 1.1 2.3.2 3.4-.3m234 91c7.8 5 15.2 10.6 24.5 12.7 8.2 1.8 16.9.6 24.5 5.3 1 .6 3.5.5 3.7-.3 1-5.3 4.7-2.2 6.9-2.1 2.4.1 6.1.1 6.2-1.3.6-4.6 3.8-2.8 6-3.1 3.3-.3 7.1.8 8-4.3.2-1.3 2-1.5 3.2-2 2-.8 4.2-1 5.8-2.6-1.1-2.8-3.3-3.3-5.7-2.5-2.8.9-5.6.7-8.4.7-12.6 0-25.3-.1-37.9.1-10 .2-19.3-1.9-28.4-6-5.8-2.6-12-4.6-20-5.1 4.2 4.4 7.5 7.9 11.6 10.5m-147-18.6c-9.3-.5-18 2.1-26.6 5.1-8.7 3-17.4 3.5-26.4 2.5-6-.7-12-2.2-18.2-.4-2.9.9-5.4 6.8-3.1 8.2 2.9 1.7 6.6 1.9 7.9 5.9.2.5 2.5.4 3.8.4 1.5-.1 2.9-.6 4.4-.7.7-.1 2.3-.3 1.9.6-1.9 4.6 1.9 3.4 3.4 3 8.4-1.9 17-2.1 25.4-4.5 4.5-1.2 8.7-2.6 13-4.4 6.9-3 12.7-8.2 20.4-10 4.2-1 9.3-1.5 13-6.4-6.8 1.2-12.9 1-19 .7m731 34c-3.1-4.8-4.8-10.2-7.1-15.3-1.4-3.1-3.6-5.8-6.5-8-8.5-6.8-18.6-11.4-26.8-18.7-2.5-2.2-4.7-4.9-8.1-6.4-12.7-5.5-22-15.6-33-23.5-1.2-.9-2.7-1.8-3.2-3.1-1.5-4.1-5.3-5.3-8.5-7.3-1.3-.9-3-1.2-4 .3-.9 1.5.7 2.3 1.4 3.3 1.4 2.3 4.7 1.4 6.1 3.8 4.9 8.2 12.5 14 19 20.6 2 2 3.1 4.6 5.3 6.5 10.3 8.3 22.3 14 32.7 22 8.4 6.5 16.9 12.7 22.3 22 1.6 2.8 4 4.8 6.4 7 .9.9 2.1 1 3.2.3.9-.6 1.4-1.4 1.2-2.7.1-.3 0-.8-.3-1.2m-893-218c-.8-.1-1.6-.3-2.4-.3-13.3 0-26.6-.4-39.9.2-6.1.3-12.2 3.4-16.3 7.5-4.5 4.6-9.7 8.5-14 13.3-.7.8-2.4 1.1-1.8 2.6.5 1.3 2 .9 3.1 1 8.7.6 17.2-1 25.6-2.6 1.9-.4 3.9-1 5.4-2.4 6.3-6 14.3-8.7 22.4-10.8 6.4-1.6 11.6-6 18.2-7.1-.1-.5-.2-1-.3-1.4m-310 194c-6.6 3.4-13.4 6.5-20 9.5-1.9.9-4.1 1.1-6 2.2-4.3 2.4-2.9 6.5-2.4 9.8.6 3.5 3.9 1.3 5.4.9 7.6-1.9 15.3-2.8 22.9-4.5 5-1.1 11-.2 14.8-4.8 5.5-6.7 11.9-12.4 18.9-17.4.9-.7 2.2-1.2 1.7-2.7-.5-1.4-2-.9-3.1-1.1-.8-.1-1.7 0-2.5 0-10.3 1-20 3.3-29.5 8.1m1071 61c6 6.7 12 13.4 18.2 20 5 5.5 9.8 11 14.8 16.7.7.8 1.5 2 2.9 1.5 1.3-.4 1.4-1.7 1.4-2.9 0-2.2.6-3.6 3.1-4.3 6.5-1.9 6.5-2.2 2.1-7.5-.9-1.1-2.1-2.1-3.3-3-5.6-4.4-10.4-9.6-16-14-8.2-6.4-17.7-10.8-25.9-17.2-.7-.6-1.8-.7-2.2.2-1.9 5.1-4.1 1.6-6.4.4-1.1-.6-2.8-2.2-3.6.2-.7 1.8.2 3.3 2.1 3.8 1.2.4 3.1-.1 3.7 1.2 1.7 4.2 3.7 2.2 5.7.3 1.3 1.6 2.3 3.1 3.5 4.4m-755-234c5.2-1.9 9.4-5.5 13.8-8.7 3.5-2.6 5.9-3.1 8.7-1.4.3.2.6.2.9.2 4.7.5 4.9 1.4 3.1 6.2-3.7 9.7-8.8 18.4-16.3 25.7-1 1-2.3 2.1-.4 4 2.8-3.6 6.9-5.2 10-8.4 4.3-4.4 8.1-9.2 11.7-14.2 4.8-6.7 10.3-13 14.3-20.3 1.6-2.9 1.1-4.3-2.4-4.3-8.3.1-16.7 0-25 0-1.7 0-2.8.6-4 2.2-3.7 4.9-7.1 10-12.6 13.3-2.3 1.4-3.8 3.4-4.8 5.9 1.3.8 2.2.1 3-.2m-226 98c12.8-3.2 21.5-13 22.6-26 .2-2.8-.5-3.7-3.3-3-3.6.9-5.1 3.3-5.7 6.7-.6 2.9-.3 6.5-3.1 8.1-5.1 2.8-9.3 7.2-14.9 8.9-8.8 2.8-17.9 4.9-26.5 8.3-1.8.7-4.6.3-4.9 2.6-.3 2.5 2.8 2.9 4.4 4.2.5.4 1.2.6 1.8.7 8.3 1.5 15.9 4.3 22 10.5 1.3 1.3 3.5 3 5.2.9 1.6-1.9 1.5-4.1-.6-6.1-4.1-4.1-9.1-6.3-14.5-9.4 5.8-2.3 11.5-4.9 17.4-6.4m731 72c1.9 1.9 4.3 1.9 4.9-.2 1.7-6.3 6.3-6.6 11.4-6.6 1.1 0 2.2-.6 3.3-1.1 3.6-1.7 3.9-3.8 1.2-6.9-5.2-6.1-12.6-10-17-16.9-.8-1.2-2.2-1.5-3.6-1.1-1.7.5-1.4 2-1.6 3.3-.6 4.2 1.6 7.2 3.8 10.3 1.7 2.4 4 5.2 2 7.9-1.4 1.9-1.4 3.8-1.7 6-2.2-.3-4.1-1.5-6-.1.8 2 1.8 3.8 3.4 5.4m-297 478c-.6-13.3-5.2-25.3-10.4-37-6.5-14.7-13.6-29-20-43.9-3.3-7.3-6.8-14.6-9.5-23.3-1.3 6.5 35 100 40 104m-201-594c7.7-7.8 14.8-16 21-25 9.9-14.5 18.3-29.9 26.8-45 .6-1 2.2-2.2.6-3.4-1.4-1-2.9-.4-4 .8-1.7 1.7-2.6 3.9-3.4 6-1.1 3-2.8 5.6-4.1 8.5-4 8.5-10.3 15.4-15.4 23-4.9 7.2-7.8 15.7-14.2 22-3.6 3.7-6.2 8.4-10.3 11.7-.9.7-1.9 1.5-1.5 2.9.1.3.7.5 1.1.8 1.2-.8 2.5-1.3 3.4-2.2m-246 181c5.5-8.6 5.8-25.6-7.2-31-2.5-1-9.5-.6-10.3 1.4-1.4 3.5 2.7 3.9 3.9 6 .7 1.3 2.2 1.3 3.4 1.9 3.1 1.6 5.1 3.9 6.4 7.2 1.9 5.1 2.5 10 1.2 15.8 1.7.3 2.1-.5 2.6-1.2m-23.5-180c-1.9 2.7-.2 4.5 2.1 5.5 5.5 2.3 12.4-.2 15.4-5.4.3-.5.7-1.3.5-1.8-.4-1-1.3-.8-2.1-.4-4.2 2.3-4.6-.4-4.2-3.4.7-6.3-3.3-9.7-7.6-12.9-1.3-.9-2.8-1.2-4.1 0-1.4 1.3-.1 2.5.3 3.6.9 2.1 2.3 4 2.7 6.6-1 2.6-1.1 5.6-3 8.2m312-13.4c-2.3-.2-10.2 7.2-9.5 9.2 1.4 3.9-1 6.5-2.9 8.9-2.6 3.4-5.4 6.6-7.8 10.2-.8 1.2-2.4 2.3-1.2 3.9 1.2 1.6 2.3-.2 3.4-.7 11.6-4.7 13.4-17.2 20.5-25.5.2-.3 0-1 0-2.5 0-1 .4-3.3-2.5-3.5m431 188c-3.1 19.5-6.2 39-9.2 58 .5.1.9.1 1.4.2 7.7-18.8 11.2-38 9.1-58-.5 0-.9-.1-1.3-.1m-332 47.8c1.2 8.9 6.4 15.6 12.4 21.9.8.9 1.9 1.8 3 1 1.3-.9.2-2.1-.4-3-2.1-3.2-4.2-6.4-6.3-9.5-6.4-9.6-6.6-19.4-.9-29.5.9-1.6 2.5-3.1 2.4-6-9.3 7.1-11.5 15.4-10.2 25m384-95c1.3-.5 2.6-1.4 2.4-2.8-.1-.7-1.8-1.2-2.7-1.9-3.2-2.3-7.3-2.7-10.5-5.4-1.7-1.4-5.1-1.3-7.6-1.1-2.8.2-4.1 4.3-2.1 6 4.5 3.8 10.6 4.4 15.5 6.9 1.9-.5 3.5-1.1 5-1.7m-472-157c-3.2 3.8-1.2 8.9-3.9 12.5-1.2 1.7-1.6 2.8.1 4.1 1.9 1.3 2.7-.4 3.6-1.4 5.6-7.1 7.4-16 11.2-24 .3-.7.1-1.6-1.1-2.4-3.4 3.6-6.6 7.4-9.9 11.2m427 263c-1 2.9-.3 5.3 1.7 7.3 2.1 2.1 4.4 1.3 6.8.1 8.3-4 16-9.2 24.7-12.5 2.1-.8 4.9-2.5 5.2-5.8-1.8-.5-2.8.6-3.8 1.3-8.4 5.6-18.4 8.2-26.8 13.8-1.2.8-2.6 2-4.1.9-1.6-1.2-1.1-3.1-.7-4.6.4-1.6 1.1-3.1 1.8-4.6 1.2-2.5 2.2-5 2.4-8.9-4 4.2-5.6 8.5-7.2 13m-298-174c10.5 12.8 11.8 27.5 9 43 11.4-13.2 3.8-34.4-9-43m494-2.3c-5.1-1.7-1.3 3.5-3.5 4.6-1.7.9 0 2.4 1.6 3 6.3 2.5 12.6 5.2 19 7.6 3.4 1.2 7 2.5 11.2.8-4-4.1-10.3-1.9-13.4-6.4.6-1.4 3.4-.3 3.5-2.9-3.5-2-7-.1-10.5.3-2.2.3-4.6.4-6.1-1.2-1.9-2 1.1-3.3 1.3-5.4-1.2-.1-2.2-.1-3.1-.4m-551-6.1c7.8.5 14.8 3.9 21.8 7.3-7.3-11-34.9-15.2-46-6.3 9.1-1.1 16.9-1.5 24.7-1m401-69.8c3.3 8.4 5.1 17.4 9.4 25.5 2.2 4.2 4.3 8.6 6.4 12.9.5 1.1 1.3 2.3 2.6 1.7 1.3-.6.9-1.9.4-3-.3-.8-.7-1.5-1.1-2.2-4.9-10.4-11-20.3-14.2-31.6-.5-1.8-.6-3.9-3.1-5.6-.2 1-.6 1.8-.4 2.3m-301 253c3.2-1.5 6.6-3.1 10.3-1.4 1 .4 1.8 2.8 3 .5.7-1.3.6-2.9-.9-4-1.4-1.1-3.1-1.2-4.7-1.1-7.4.8-14 3.7-20.4 7.2-1.4.7-2 2.1-1.9 4.4 4.4-3.3 9.8-3.3 14.6-5.6m511 327c-12.9-6.7-26-13-39.7-18-1.3-.5-3-1.6-4.1.1-1.3 2 .6 3 1.9 3.9 8.4 5.8 16.8 11.5 26 15.7 8.3 3.7 17.3 4.3 26 6.5-2.6-4-6.6-6.2-10.4-8.2" />
</svg>
