<svg xmlns="http://www.w3.org/2000/svg" viewBox="0 0 1280.4 720.7" enable-background="new 0 0 1280.4 720.7">
    <path d="m195 721c-.1-10.2-4.1-19.8-4.3-30-.1-4.8.2-9.4 2.5-14 1.6-3.3 1.1-7.3.7-11.2-1.1-11.4-2.8-22.8-6.9-33-2.5-6.3-3.1-13-6-19-1.2-2.6-1.8-2.6-3.7-.9-7 6.5-15 12-19.3 21-.5 1-1.4 1.7-2.3 2.8-2.3-3.4-1.9-6.6-.8-10 2.6-8-.8-15.9-8.2-19.7-1.5-.8-1.9-.2-2.5 1.1-1.2 3-2.5 6-4.1 9.6-3-4.6-4-9.2-5.2-13.8-.4-1.4-.8-2.9-1.3-4.3-.5-1.4-1.7-2-3.2-2-1.4 0-1.7 1.1-2.3 2.2-6 9.7-9.4 20-7.9 31.6.1 1.2.5 2.6-1 4-2.5-4.1-4.3-8.1-4.6-12.8-.3-6.3.6-12.6-.6-18.9-.3-1.5.7-2.9 1.6-4.1 1.1-1.5.5-3.1-.4-4.1-1.3-1.5-2.3.1-3.3.8-9.3 5.9-9.9 7.9-13.5 20.8-3.6-3.4-3.8-7.8-3.6-11.5.5-8.6 2.6-16.9 10.2-22.5.9-.6 2.3-1.4 1.4-2.8-.7-1.1-2.3-1-3.2-.5-7 3.8-14 7.3-20.3 12.8-7.2 6.3-13.5 13.4-20 19.9-7.4 7.2-13.8 15.6-19.6 24.3-5.6 8.5-12.5 16.3-17.4 25-5 8.9-10.4 17.6-15.5 26.5-2.9 5.1-5.7 10.3-10.5 15.7 0-8.2.1-15.3-.1-22.4-.1-2.5 2.3-2.6 3.3-3.9 6.6-9 14-17.4 19.6-27 .2-.4.4-1 .8-1.3 4.2-2.6 6.1-6.7 8.1-11 4-8.8 12-14.6 18.5-21 5.5-5.5 9.8-11.6 14.8-17.3 3.4-4 7.1-7.8 10.7-11.7 2.8-2.9 7.7-2.2 11.2-4.9 2-1.6 3.9-2.3 4.3-5.3.3-2.6 1.4-4.7 5.1-4.8 3.5-.1 6.4-2.4 7.5-6.1.6-2 1.5-3.1 3.9-3.7 3.8-.8 5.7-4.7 8.9-6.8 9.4-6.1 18.7-12 30-13.9 5.7-.9 11.5-1.5 17.3-1.7 7.8-.3 15.7.2 23.5-.1 15.2-.6 30 2.8 45 4.5 11 1.2 22 .7 32.8-3.1 6.9-2.4 13.3-5.8 20.4-7.7 2.6-.7 4.9-2.1 6.6-4.3 1.2-1.5 4.5-1.6 3.5-4-.6-1.6-3.3-.6-5.1-.7-3.7-.1-6.9 1.3-10.4 2.6-7.5 3-15.2 5.9-23.4 6.2-4.5.1-8.9 1.1-13.4 1.1-8.8.1-10.9-1.7-10.5-10.3.3-7.4-1.8-14.5-2.3-21.8-.1-1.8-1-3.5-1.7-5.2-2.7-7-5.1-7.8-11.2-3.5-2.2 1.5-4.2 4.3-7.3 1.3-.3-.3-1-.3-1.4-.2-9.2 3.5-9.2 3.5-17.4.6 6.1-1.1 8.8-6.5 14.5-5.6 1 .2 1.6.1 1.4-1.2-.7-5.7 2.5-10.3 4.8-14.9 2.1-4.2 1.3-7.6-.2-11.4-2.9-7.3-7.9-13.3-11.8-19.9-.4-.7-1.2-1.4-1.3-2.1-.4-6.1-6-8.9-8.5-13.6-4.3-8.1-10-15.6-9.8-25.5.1-5.4 4.1-9.2 5.5-14.2 1.8-6.4 5.1-12.2 6.1-19 .7-4.9 2.6-10.6 7.7-14.4 2.7-2 3.4-5.2 7.7-2.3 2.2 1.5 2-1.8 2-3.2.1-7.7.1-15.3 0-23 0-6.4 4-11.7 4.4-18 .2-2.6 3.1-.9 4.7-1.6 1.9-.9 1.4 1.2 1.6 2.1 1.4 5.6 3 10.7 7 15.5 2.8 3.3 1.9 9.7.5 14-2.1 6-1.2 12-2.4 18-1.6 7.7-1.7 15.5-.2 23.3.3 1.5.6 3.2-.7 4.7-1.6-1.4-.4-3.3-1.4-5.2-2.9 6.4-2.4 12.9-2.6 19-.4 8.2-1.5 16.6 2.5 24.5 1.8 3.7-2.3 6.5-3.3 9.9-2.2 8-1.3 15.7-.7 23.6.6 8.4 7.5 13.8 9.6 21.4.4 1.5 2.3 3.5 4.6 3.1 2.3-.4 2.1-2.6 2.6-4.3 1.2-4.1 5.6-5.4 8-8.6 4.1-5.4 8.2-10.9 8.6-17.9.3-5 2-9.4 3.7-13.8.8-2.1 1.5-3.9 1.5-6.1 0-7 0-14 0-21 0-1.8-.2-3.7 1.1-5.2 1.2-1.5 2-3.1 4.1-.7 1.8 2.1 4.3 3.6 6.6 5.3 2.5 1.9 5 1.5 4.8-1.7-.4-7 3.6-13 3.8-19.9.2-5.3 2.8-10.8 5.1-15.8 1.4-3.1 5.5-3.4 8.5-3 3.1.4 3 3.7 2.7 6.2-.7 5.3 2.6 9.2 4.5 13.5 1.3 2.9 2 5.5 1.6 8.5-.5 3.5.2 7 1.3 10.3.5 1.5 1.6 2.7 3.4 2.4 1.8-.3 1.5-1.9 1.6-3.2.9-12.6 1.3-25 4.8-37 1.1-4-1.5-7.4-2-11-1.6-11.4-1.4-22.9-1.9-34-.4-8.8-2.3-17.6-3.3-26.4-1-8.8-1.1-17.7-.1-26.4 1.8-14.9 2.1-29.7-.8-44.5-1.3-6.5-.9-13.4-1.3-20.7-6.1 4.2-12 8.6-16.9 14.3-11.4 12.9-19.4 27.8-24 44-3.6 12-4.9 24.8-5.2 37-.2 7.7.5 15.6.8 23.4.2 6.7-1.9 12.4-5.5 18-4 6.4-7.5 13.3-9.6 20.7-.6 2.2-2 3.8-2.8 5.8-.7 1.7-.5 4.9-2.9 4.3-1.9-.4-1.9-3.5-2.1-5.7-1-13.7 1.3-27 4.9-40 2.6-9.6 3.7-19.5 6.2-29 1.9-7.1 2.4-13.9 2.3-21.4-.1-9.1.5-18.8 5.8-27.3 2.2-3.6 1.5-8.3 2.3-12.5 1.9-9.6 7.2-17 12.5-24.6 4.1-5.9 8.6-11.5 13.9-16.5 6.2-5.9 13.2-10.3 20.6-14.3 7.3-3.9 14.5-8.2 20.5-13.7 8.4-7.8 17.9-14.4 25.6-23.5-8.4 3.3-14.4 9.7-21.8 13.9-7.6 4.2-15.3 6.2-23.9 6.2-5.4 0-10.8 1.6-16.2 2.4-1.9.3-3.8.2-4.4-2.2-.7-2.8 2-1.9 3.1-2.8 6.8-5.5 16.6-5.2 22.7-11.8.9-1 2.1-1.8 3.5-1.4 5.4 1.7 10.9-.1 16.3.7 2.7.4 4.5-1.9 8-2.5-23.6-3.5-44.7 1.6-65 10.7 19.8-16.4 41.5-29.6 63-44.7-3.7.7-5.7 2.3-8 3.5-2.3 1.3-4.8 2.3-6.9 3.9-3.5 2.5-7.9 3.5-10.9 6.7-.5.6-1.4 1.2-2.2.4-.9-1-.1-2 .6-2.5 5-3.8 9.7-7.9 15-11.3 11.9-7.5 23-16 31.6-27.4-10.5 4.3-21 8.6-31.6 12.9-19 7.8-37.7 16-54.6 28-1.1.8-2.7 2.4-3.9.8-1.3-1.8.7-2.7 1.8-3.9 8.8-9 19.3-15.7 29.5-22.7 3.3-2.2 6.3-4.8 9.5-7.3.4-.3 1-.8 1-1.1-1.6-6.8 4.7-9 8-12 9.6-9.1 15-20.5 20-32 1.7-4.2 1-8.9 3-13 .3-.7.4-1.8-.5-2.2-.9-.4-1.9-.1-2.8.5-2 1.4-2.3 4-3.9 5.7-8.1 8.3-16.4 16.4-26.3 22.7-5.2 3.3-10.2 6.8-15.3 10-1.1.7-2.3 1.3-3.5 1.8-.9.3-1.9 1.1-2.7.1-.8-1 .2-1.9.7-2.6 10.6-14.5 20.4-29.5 35.8-40 10.3-7 19.3-16 26-27 1.5-2.4 3.4-3.2 6.2-3.2 12.8.1 25.7 0 38.5.1 4.9 0 4.9.3 2.7 4.7-2.5 4.8-4.5 9.8-7.1 15.6 4.5-6.4 8.6-11.9 12.4-17.5 1.4-2 2.8-3.6 5.2-2.4 2.6 1.3.4 3.1-.2 4.6-4.8 12.7-8.6 25.7-10 39-.8 7.3-1.6 14.4-3.3 21.5-1.5 6.4-3.7 12.3-7.5 17.6-4.7 6.7-9 13.7-14.6 19.8 10.4-9.1 20.7-18.2 29-29.4-8.4 27.5-25.9 48-47 66 9.1-3.6 16-10.2 23.9-15.7 11-7.8 20.6-17.2 29-27.7.6-.8 1.5-1.6 2.6-.9 1 .6.6 1.7.4 2.7-5.3 24.8-7.8 50-11.6 75-2.6 16.7-5.7 33-8.3 49.9-2.9 18.4-5.2 37-3.3 56 1.9 19.3 6.5 38 11.9 56.8 8.2 28.4 19.5 56 30 83 5.1 12.9 9.7 26 17.3 38 5 7.8 10.4 15.4 16.6 22.3 14 15.6 30 28.7 49 38 20.7 10.3 41.5 20 63 27.7 16 5.6 32 11.8 49 14 20.3 2.5 40 2.3 60-4.4 13.2-4.5 26.5-8.8 37.6-17.5 20-15.6 39.6-31.7 53.8-53 9.4-14.2 16.3-29.4 22.5-45 7.9-20 11-41 15-62 1.6-8.4 3.6-16.9 4.4-25.4.3-3.3 2.2-3.3 4.5-2.5 11.7 4.2 23 .7 29-10 4.8-8.3 8.7-17 12.9-25.7.8-1.6 1.2-3.5 1.3-5.3 1-17.4.9-34.8-2.9-51.9-1.2-5.2-2.5-10.3-4.3-15.3-2.1-5.8-3.7-11.7-4.5-17.8-1-7.3-7.5-6.1-11.8-7.3-6.7-1.9-7.6-1.8-7.2-8.7.6-9.1-3.3-17.6-3.4-26.6 0-7.1-1.5-14.2-1.6-21.3-.3-18 .3-35.9-1.1-53.9-.5-6.1-2.4-12-1.9-18.3.2-2.2-1.3-5.5 2.5-6 3.4-.4 7-.9 9.2 3.1 2.3 4.3 5 8.3 8 13.3.4-4-2.7-6.5-1-9.8 8.2 8.2 14.2 17 14 29-.2 12 4.1 23.4 7 35 .5 1.9 1.7 3.6-.6 6.5-6.4-15-10-30-13.9-45.5.4 19 4 37.7 11.3 56-.4.2-.8.5-1.2.7-4.5-5.7-9.1-11.4-13.6-17 .8 7 4.6 12.5 8.5 17.6 5.8 7.7 10 16.3 15.4 24.3 2.8 4.2 4.8 8.3 4.6 14.6-.4 13.8-1.6 28 3.1 41.5 5.3 15 6.5 30 6.6 45.9 0 3.7-.3 7.3-1.4 10.8-4.1 12.6-9.3 24.5-16.8 35.8-7.5 11.3-17.8 20-25.6 30.9-.7.9-1.5 1.8-2.8 2-1.6-4-1.6-5 2.1-9 3-3.3 4.5-7.3 6.6-11 .5-.9 1.4-2.1.1-3.2-1.2-1-2.1-.2-3 .6-6.1 4.7-12.8 6.2-20 3.4-2.4-.9-3.2-.7-3.3 2.1-.3 12.7-4.1 24.9-6.1 37-2.2 13.3-6.9 25.8-9.2 39-1.3 7.1-4.8 13.8-7.8 20.5-4.5 10-9.5 20-15.2 29.4-3.3 5.5-7.1 11.2-11.2 15.5-7.9 8.2-15.3 17-23.8 24.6-2.9 2.6-3.3 6.2-3.4 9.6-.2 5.4-.7 10.7-1 16-.7 11.5-3.8 21.8-11.4 31.6-.5-5.3 1.1-9.4 2.6-13.5 4.1-11.7 4.7-24 7-36 .2-1.1.4-2.5-.8-3.2-1.6-.9-2.4.7-3.3 1.5-7.3 6.5-14.9 12.7-23.3 17.8-12.4 7.6-26 11.2-40 13.9-13.4 2.6-27 3.4-40.6 3.2-14.8-.3-29-3.3-42-9.6-6.8-3.2-14.3-3.9-21.4-6.3-18.7-6.2-37-13-54-22.9-15.8-8.9-30.5-19.4-44.7-30.4-13.9-10.7-24.4-24.7-33.4-39.8-2.1-3.5-4.4-7-6.2-12-1 6.7 1.1 12 1.7 17.3 1.6 12.8 3.5 25.6 5.5 38 1.6 10 4.4 19.9 7.7 29.7 7.3 22 18.4 42.6 25.8 65 2 5.9 5 11.5 7.6 17.2 8.7 19.5 17.6 39 27.5 58 6.1 11.7 11.4 24 19 34.9.3.4.1 1.2.2 2.3-5.4-2-7.1-6.8-9.6-10.6-9.9-15.3-19.3-30.9-28.9-46-2.4-3.8-4.8-7.5-7.6-11 2.5 6.8 4.7 13.7 7.6 20 7.5 17 14.2 34.4 22.8 50.9 1.8 3.4 2.6 7.4 3.8 11.2-37 0-74 0-111 0-.1-3-.4-6-.3-9 .7-16.4 2.5-32.8-.8-49-1.5-7.6-2.7-15-4.6-22.6-3.1-11.8-6.9-23-12.7-33.9-.9-1.7-2.2-3.4-2.7-5.3-2-7.3-5.6-14-8.6-20.9-4-8.8-10-16.7-15-25-6.3-10.7-13.3-21-17.3-33-1.8-5.3-4.1-5.4-7.9-.9-1 1.1-2.1 2.1-3.3 3-2.9 2-2.8 4.2-1.3 7.2 9.8 20.4 19.4 40.9 30 60.9 4.4 8.2 8.8 16.5 12.8 25 3.4 7.1 7.9 14.2 9.3 21.6 2.2 11.6 8.7 21.8 9.6 33.5.3 3.3 3.8 5.2 3.9 8.4.7 13.4 3 26.7 1.8 40-65.9.3-131 .3-196 .3m149-493c-.5 1-1 1.6-.9 2.2.5 5.7-3 5.7-7.2 5.6-5.4-.1-10.4 1.1-12.4 7.2-.2.7-1.1 1.1-1.7 1.6-5.8 4.3-10.7 9-9.4 17.3.2 1.4.1 3-.2 4.5-1.4 9.4-2.7 18.7-.8 28 2.4 12 4.8 23.6 14.8 32 4 3.5 7.6 7.7 10.9 12 7.7 10.2 17 18 31.4 16.3 7.1-.8 12.8-3.9 17.3-8.7 3.2-3.4-.3-7.8-1.7-11.6-.1-.3-.2-.6-.2-1-1.6-11.3-6-22-8.6-33-.7-3.1-2.3-5.9-5-7.8-2.4-1.7-2.8-2.9.3-3.9 1.6-.5 2.3-1.5 1.7-3-3.1-8.3-1-16.8-1.7-25-.2-2.6 1.4-6.3-1.1-7.4-3-1.3-5 2.4-7.4 4.1-2.3 1.6-4.8 13-3.6 15 2.9 5 2.7 11 5.6 16 .4.6-.2 1.9-.6 2.8-1.3 2.7-2.7 5.3-4.1 8-2.5 4.8-8.6 7-13.4 4.8-2.9-1.3-5.6-3.3-8.5-4-4-.9-5.7-3.7-7.3-6.8-1.5-2.8-3.3-5.6-4.1-8.4-1.4-4.7-4.1-9.4-2.4-14.8 2.9-9.4 10-15.4 16.7-21.9.9-.9 1.7-.6 2.7-.7 1.5-.2 8-9.4 7.7-10.8-.1-.4-.4-1.1-.8-1.2-3.5-1.1-3.4-5-6-7.9m-141 427c5.8-9.8 11.7-19 20-26.4 3-2.7 3.6-6.6 6.3-9.4 8.8-9.2 17.2-18.9 25.9-28 2.5-2.7 2.5-6.7 5.1-9 8.5-7.6 10.3-18.9 16.2-28 1.2-1.9.6-5.7-2.2-7.4-3.3-1.9-4.8 1.4-5.6 3.2-1.9 4.3-5.2 7.6-7.7 11.5-3.7 5.7-8.9 10.2-13.4 15.3-7.2 8.2-17.9 12.4-25.9 20-8.2 7.8-17.8 14.2-25.8 22.4-2.1 2.2-2.2 4.1-1.4 6.7 2 6.3 3.9 12.6 5.9 18.9 1 3.2-.6 7.1 2.5 10.3m117-65.9c-3.6-5.2-5.4-11.3-8.1-16.9-4.1-8.4-8.7-16.7-10.3-26-1-5.8-6.6-8-11.2-4.7-1.2.8-3.2 2-1.8 3.9 2.9 3.7 3.7 8.5 6.5 12.2 6.1 7.9 8.2 17.3 10 26.6 1.4 6.9 4.3 13.6 3.6 20.9 1.5-1.7 1.9-3.5 2-5.5.2-6.3-1-12.5-1.6-18.8-.1-1.4-.6-2.9 1-3.4 1.8-.6 2.4 1.2 2.6 2.3.9 4.3 4.3 6.7 7.2 9.5m-86-10.3c-1.9-1.6-3.6-.5-5.1.3-12.2 6.6-24.7 12.7-35.8 21.3-7.2 5.5-5.9 5.1-3.3 12.6.7 2.1 2.2 3.1 4.4.7 3.4-3.8 6.4-8 10.8-10.9 7-4.7 11.8-11.9 19.3-16.3 3.3-2 7.8-3.3 9.7-7.7m-60.9 14c-1.9-3.3-2.2-8-6.3-9.2-3-.8-6.7-.7-9 2.4-2.3 3-4.3 6.3-6.4 9.5-1.5 2.3-1.1 4.4 1.2 6 1.4.9 2.7 1.9 4.1 2.8 6 3.9 6.4 3.7 10.2-2.5 1.9-3 4.1-5.9 6.2-9m167-1.1c-3.4-6.6-6.9-13-10-19.8-3.5-7.2-7.5-14-10-21.8-1.4-4.4-3.7-8.5-5.9-12.6-1.2-2.2-3.4-1.7-5.3-1.1-1.1.3-1.1 1.3-.6 2.4 5 10.4 10.5 20.5 16.2 30.5 4.6 7.8 11.3 14.2 15.8 22.4m24-397c0-1.7-1.3-2-2.5-2.6-4.8-2.7-10-1.8-15-1.7-2.7 0-2.6 1.8-1.8 3.9 1.5 4 3.8 7.7 6 11.3.4.7.6 1.5 1.7 1.4 2.7-.2 11.7-9.6 11.7-12.3m656 527c.5-4.5.8-8.9 1.4-13.3.5-4 .6-8.2 6-9.6 3.3-.9 6.1-3.2 9.2-4.9 2.2-1.2 5.5-2.5 5-4.9-.7-2.9-4.2-1.5-6.5-1.5-11.4-.2-12.5-1.5-10.4-13 1.4-7.5 2.4-15 2.8-22.6.4-7.4 3.8-14.2 4.4-21.9.8-10.4 3.6-20.7 4.5-32.4 4.6 6.1 8.9 11.2 12.4 16.7 2.2 3.5 5.4 5.9 7.7 9.1 7 9.9 14.7 19 25.9 24.8 4.3 2.2 8.6 4.4 12.5 7.1 21 15.2 38 34.8 56.8 53 2.1 2.1 3.5 4.9 6 6.6 3.1 2.1 6.6 1.1 9.2-.7 1.4-.9 2.5-3.9.4-6.2-5.8-6.4-11-13.2-17.2-19.3-11.2-11.2-21-23.6-34-33-5.6-4.2-10.6-8.8-16.6-12.6-7.6-4.8-15.3-9.7-22.5-15.4-9-7.1-15-16.7-22.6-25-13.3-14.5-26.3-29.4-39-44-1.4-1.6-2.7-3.4-4.3-4.8-1.3-1.2-1.8-2.4-1.1-4 1.4-3.4-.5-4.5-3.2-4.2-3.8.3-6-1.8-8.6-4.1-5.7-5-10.2-11.6-18-14.6-.1 3.5 2.1 5.2 4.4 6.7 1 .7 2.7 1.2 2.2 2.9-.4 1.4-1.9 1.8-3.2 1.9-7.3.7-14.5 1.3-21.8 2.1-1.5.2-4-.9-4.3 1.1-.4 2.1 2.2 2.9 3.8 3.2 8.4 1.6 16.6 4.2 25 5.3 7.7 1 16.8-.2 19.9 10 .1.4.6.8.9 1.1 3.1 2.7 2.5 4.2-1.3 5.3-11.6 3.4-23.3 6.2-35.6 5.8-8.8-.3-17.7-.1-26.5 0-2.3 0-5 1.2-6.8.4-10-4.7-21-5.6-31.5-10.3-11.7-5.3-22.5-12-33.7-18-3.6-1.9-7.3-4.9-10.3-8.4-4.4-5.3-11-8.4-14.3-14.9-1.1-2-3.6-1.7-4 1.4-.2 1.3-.2 2.7.1 4 2.2 10.3 4.6 20.6 7.7 30.7 1.4 4.5 3.9 8.6 4.8 13 4.3 19.9 15.3 36 27 51.7 1.9 2.6 4.6 4.8 6.5 7.5 7.8 11.4 18 20 29.5 27.5 8.9 5.7 17.5 11.8 27 16.4-44-13.5-75-42-97-83-.2 3.8-.2 7 1.2 10 2.8 6.4 5.9 12.5 9.4 18.5 3.3 5.6 6.3 11.5 10 16.9 4.9 7.2 10.9 13.3 16.6 19.8 10.2 11.7 21.8 21.7 35.4 29 1.7 1 3.5 1.9 5.2 3 .8.5.9.9.3 1.1-3.4 1-1.7 2.8-.3 3.8 7.3 5.3 14 11.7 23.3 13.9 6.2 1.5 11.4 5.3 17.6 6.6-11 1.6-21.8.8-32.4-.7-6.1-.8-12.4-.3-18.2-2.1-10.7-3.3-21.9-4.9-32-9.7-7.2-3.4-14.3-6.9-20.6-11.8-7.9-6.2-16.5-11.5-22.8-19.6-2.1-2.7-3.7-5.7-6.2-8.2-8.4-8.2-13.9-18.5-18.9-29-2-4.1-3.5-8.5-7-11.8 6.7 33.9 29 56.8 54.6 78-6.6-4.3-14.3-6.4-20.6-11-4.3-3.1-8.2-6.7-12.4-10-1-.8-2.3-1.8-3.7-1-1.5.8-.2 2 0 3 .3 1.1.4 2.5 1 3.3 6.8 8.5 13.6 16.9 21.5 24.5 5 4.8 11.9 7.6 15.3 14 51 .2 103 .2 155 .2m-233 0c.7-2.3-.2-5 1.9-7 1.2-1.1.4-1.9-.6-2.8-1.2-1.1-3-1.5-3.3-3.4 1.5-1 3.1-1.8 4.5-2.9 1.4-1 .8-4.9 3.5-3.5 2.5 1.3 4.6 3.8 4.7 7.1.1 4.1.2 8.3.3 12.4 10 0 20 0 30 0-3.7-3.9-7.3-7.9-12.4-10.3-7.2-3.3-12.7-7.7-11.4-17.3 1.1-8.5-1-17.2-1-25.9 0-5.4-1.7-10.9-2.7-17.2-2.2 2.4-1.7 4.5-1.7 6.3-.1 11.7 0 23.3 0 35 0 .9.4 2.1-.7 2.7-.9.5-1.7-.1-2.1-.8-2.4-5.1-7.5-8-10-12.9-7.2-13.6-14.6-26.9-18-42-2.1-9.4-4.7-18.5-4.4-28 .1-2.3-.4-4.5-2.8-6.7-4.6 15.6.8 29.7 3.4 44-.8-1.3-1.3-2.7-3-2.5-1.3.2-1.7 1.6-2 2.6-1 3.9-1 7.7.4 11.7 1.5 4.2 3.4 8.2 5 12.3 3.1 7.7 6.6 15 11.9 21.6 2.7 3.3 4.1 7.6 6.2 11.5-3.6-3.1-7.1-5.9-10.4-9-8.3-7.7-14.6-16.8-18.7-27.4-.6-1.6-1.8-2.5-3.2-2.8-1.8-.4-1.2 1.6-1.6 2.5-3.1 6.3-3.7 13.3-5.9 19.9-3.6 10.8-6 21.9-8.6 32.9 17.5.3 35 .3 52.9.3m494-81c-2-.6-2.7-2.3-3.5-3.9-2.6-5.7-2.5-12.3-7.9-17-4.9-4.4-7.1-11-9.8-17.2-3.1-7.1-7.9-13.8-10-21-3.1-10.9-5.9-22-8.6-33-4-16.4-9.1-32.5-13.6-48.7-2.1-7.5-4.6-14.7-7.3-21.9-.4-1.1.2-3.1-1.9-2.7-1.6.3-1.5 1.9-1.7 3.3-.5 2.7 2 4.2 2.2 6.9.5 11 4.2 21.8 6.7 32.5 2.9 12.3 6.4 24.6 10 36.7 5 16.5 10.5 32.8 17.9 48 5.4 11.4 12 22 18.4 32.9 3.1 5.2 4.7 11.3 8.9 15.9.1-3.6.1-7.3.1-10.9m-1093 81c-2.9-5.5-5.6-11.2-8.8-16.5-3.3-5.5-1.7-12.6-5.9-19-2.1 8.3-3.1 15.5-.1 22 1.6 3.7.9 6.4-.4 9.8-2.2-1.6-2.8-4.3-5.5-4.6-.2.3-.5.6-.7.9 0 3 2.7 4.8 3.4 7.5 6-.1 12-.1 18-.1m782-208c-1.1.8-2.4 1-3.2 0-4.2-4.7-10.4-5.5-15.8-7.9-5.8-2.6-11.5-5.7-18.2-6.2-11.9-.8-23.8-2-35.7-3.1-2.7-.3-5-1.4-6.3-4.2-.7-1.7-1.7-3.3-3-4.6-8.4-7.9-13.9-17.6-18.2-28-.8-1.9-.9-3.8-.8-5.9 1-14 2-28 2.9-42 .7-10.5 1.8-20.7 11.5-27.6 2.4-1.7 4.7-3.9 6.3-6.4 2.8-4.2 7.9-6.8 8.3-12.7.8-12.4-1.8-24.5-2.4-36.7-.4-7.9-5.3-14.2-8.8-20.9-.8-1.5-.7-4.5-3-4-2.4.5-1.5 3.4-1.4 5.2.7 10.5-2.2 20.4-4.7 30-2.4 9.3-5.4 18.4-8.1 27.5-5.4 18.5-9.6 37-8.4 56.8.3 4.1 1.8 8.2 1 12.4-2-7.8-4.2-15.8-4-23.8.4-12.9 1.8-25.8 2.7-38.7.4-5.3.7-10.6.9-15.9 0-1.1.3-2.7-1.2-2.9-1.7-.2-2.1 1.3-2.3 2.6-1.6 12-6.5 23.6-7.1 36-.1.9-.1 2.6-1.4 2-3.6-1.5-3.6 1.8-4 3.3-2 6.5-2.8 13.3-3.4 20-1.6 16.7 1.7 32.7 7.8 47.9 5.9 14.7 16 26.8 28 36.9 14.4 11.9 31.5 18.6 49 24 13.5 4.1 27 6.9 41 8.8 1.7.2 3.2.4 4.4-2.1-18.4-3.8-36.5-8.2-52.9-18.8 1.2-.3 1.7-.5 2.1-.5.5 0 1 0 1.5.2 11 5 22.7 7.3 34.9 7.9 5.8.3 11.6.7 17.4.7 1.2 0 2.8 1.9 3.4.3.8-2.1-1.4-2.6-3-3.1-2.9-1-4.7-3-5.5-6-.3.1-.5-.2-.8-.5m-458-307c7.7 1.3 12.8-4.2 10.7-11.6-.4-1.5-1.1-2.9.8-3.8 2.6-1.2 5.8-2.4 8-1.2 2.4 1.3 2.5 4.7 2 7.6-.8 4.5-2.9 8.3-6.5 11.5 2.7 1.1 3.8-.3 4.9-1.8 2.9-4 4.4-8.4 4.8-13.4.3-3.3-3.5-7.8.2-9.3 2.3-.9 6.7 2.3 9.6 4.4 5.1 3.5 10.7 6.5 13.4 12.8 1 2.5-1 5.2.9 7.6.7-.5 1.2-.8 1.4-1.2.7-1.2.7-3.2 2.9-2.5 2.1.7 3.9 2.1 4.5 4.3.6 2.4-1.8 2.4-3.1 3.1-3.1 1.6-6.8.9-10 2.2 4.5 1.3 8.9 1.6 13.3-.4 4.1-1.9 4.6-4.9 1.4-8.2-5.4-5.6-11-10.9-16.5-16.6-6.5-6.8-13.3-12.6-22.8-15.3-6.6-1.9-12.9-4.6-19.6-6.4.9-.4 1.7-.3 2.4-.5 17-3.4 32-.3 44 13 3.4 3.7 7.7 6.4 12.6 8.3-5.2-6.4-10.6-12.5-16.4-18.2-4-4-7.1-9.1-13.7-10-8.2-1.3-16.3-.1-24.3 1-13.2 1.8-26 5.4-38.5 9.9-3.6 1.3-7 .3-8.8 5.4-1.5 4.1-6.5 3.7-10.6 2.7-.9-.2-2.1-.7-2.4.6-.1.6.4 1.6.9 2.2.8.8 1.8 1.5 2.9 2 1.9.9 4.7 1.1 4 4.1-.8 3.3-3.8 2.6-6.2 2.6-1.1 0-2.3-.4-3.4-.6-1.2-.3-2.6-1.4-3.5.3-.9 1.8 1.1 2.1 2 2.9 2.6 2.5 6.8 1.9 9.2 4 3.9 3.5 9.5 3 13.2 6.4 1 .9 2.2.2 3.2-.5 1-.7.3-1.4-.1-2.1-2.3-5.3-.2-10.7 4.8-13.6 2.6-1.5 5.1-.8 7.1.2 1.9.9.6 3.2.1 5-3 10.8 9.9 21 18.4 20.7 1.5 0 3.2-.2 3.4-2.1.2-1.6-1.2-2.3-2.4-2.7-1.7-.6-3.4-.9-6.3-1.5 3.3-2.1 5.5-1.6 7.8-1.2m-312 22.7c0-1.1.3-2.6-1.2-3-1.2-.3-1.7.9-2.2 1.7-8 11.9-14.6 24.6-19 38-4.3 13.4-6.3 27.4-8.9 41-2.7 14.4-1.4 28.7 1.6 42.9.4 1.9 1.3 3.6 3.2 2.2 2.4-1.8 4.8-3.4 5.7-7 2-8 5.3-15.6 10.3-22.3 2.9-3.8 5.1-7.5 4.6-12.6-.6-7.3.9-14.5 1.6-21.8.7-7 3.3-13.4 4.4-20.3 1.4-8.5-1.3-16.9-.1-23.6.1-6.3.1-11 0-15.6m580-29.9c.2-3.1.9-4.2 4.3-3 5.9 2.1 11.4.8 16.4-2.8.9-.7 2.1-1.4 1.8-2.8-.3-1.5-1.8-1.1-2.9-1.3-1.7-.4-3.2-.4-4.8.4-1.5.7-3.1 1.2-4.4-.7 1.5-.5 3.2-.5 4-1.9 1.1-1.9 2.9-4.3 2.4-5.9-.5-1.9-2.6.1-4.1.6-2 .6-4.5-1.5-4.1-2.4 2.9-5.8-.6-3.9-3.6-3.6-1.2.1-2.9-1-3.8-2-4.5-5-10.9-7-16.8-8-6.1-1.1-12.3-2.4-18.5-3.2-10.6-1.5-21.3-3.4-30 4.9-3.7 3.5-7 7.5-10.3 11.4-1.1 1.3-3.1 2.4-3 5.6 5.5-4.4 10.2-8.6 15.3-12.2 6.1-4.3 12.3-5.4 17-3.6-15.9 3.4-29 13.4-31.4 20.6 5.3-1.9 9.5-5.7 14.8-8.2-1 3.6-1.9 6.7-2.8 9.8-1.8 5.8-.9 11 2.3 16.2 3.3 5.2 10.5 8 15.5 5.3-2.4-1.1-4.5-2-6.6-2.9-5.9-2.6-9.5-10.8-7.5-16.6.6-1.6 1.2-3 2.8-3.8.5 1.9 3.2 1.9 3.3 4.8.4 8.7 9.3 13.5 17.4 10-.3-.4-.5-.9-.9-1.1-2.1-.9-4.1-2-3.4-4.7.7-3 3-3.1 5.5-2.5 2 .5 2.3-.9 2.3-2.3 0-2.2.1-4.1 3-4.1 2.8 0 3.8 1.4 4.8 4 1.7 4.2-1.1 8-.7 12 3.4-.3 3.6-2.9 4.3-5 2-7.2.2-13.6-5.2-20 4.2 1.4 7.3 2.4 10.4 3.5 2.6.9 4.5 2.8 6.7 4.2 8.3 5.4 9.9 10 6.2 18.4 4.1-1.3 4.2-1.3 4.5-7.2m-270-72.8c-8.1.5-16.2-.9-24.3 1.4-11.8 3.4-22.9 8.8-34.5 12.6-3.4 1.1-6.2 3-8.3 6-.7 1-1.7 1.9-.8 3 .8 1 2.1.5 3.2 0 3.4-1.6 6.7-3.1 10.6-3.6 7.7-1 15.4-2.1 22.7-5.3 4.9-2.2 9.9-2.7 15.5-1.9 10 1.6 19.9 3.1 30 3.6 9.9.5 19.8 1.3 29.6 3.4 8.5 1.8 17 4.3 26 3.4 1.4-.1 3.3.6 3.9-1.3.5-1.6-1.3-2.1-2.3-2.9-3.3-2.7-6.3-5.9-9.9-8.1-6.9-4.2-13.7-8.4-22-9.5-10.5-1.4-20.9-.3-31.4-.9-2.7 0-5.4-.1-8.1.1m-370 131c2.7-4.9 5.3-10 8.5-14.5 4.5-6.5 9.6-12.6 14.3-19 4.5-6.1 8-12.9 12-19.3 5.6-9.2 13.6-16.6 21-24.4 2.9-3.1 5.3-6.3 6.2-10.5 1.6-7.3 4.8-13.7 10.2-19 2.2-2.2 3.8-4.8 4-8.3.2-3.5 1.6-6.7 3.9-9.5 5.8-6.9 1.8-14.5 2.9-22.4-2.7 1.2-3 2.5-3.5 3.7-2.8 6.7-5.6 13-9.9 19-5.6 7.9-11.3 15.6-17.8 22.6-14.2 15.3-23.8 33-31.6 52-5.8 14.2-10.3 28.9-19.5 41.6-2.4 3.3-6.2 6.2-5.6 11.5 1-2.2 3.7-2 4.9-4.1m28 456c-3.3-4-2.8-10-7.3-13.4-.9-.7-.2-1.8 0-2.8 2.9-11.6-1.3-23.9 4.1-35 .5-1 .7-2.9-.8-3.5-1.2-.5-2.6 0-3.7.9-2.6 2.1-4.1 4.8-4.8 8-1.1 5.5-2.3 11-3 16.6-.4 2.9-1.6 3.6-4.2 3.6-9.3-.2-18.5-1.1-27.7-2.7-8.4-1.5-16.5-4-24.6-7-8.7-3.2-17.6-5.8-24.7-12.2-1.1-1-2.3-1.9-4-1.5 0 .4-.2.8 0 .9.8 1 1.7 2.1 2.6 3 8.3 8.2 17.2 15.6 27.4 21.3 18.4 10.3 37.8 17.8 59 17.7 3.1 0 5.1.9 6.1 3.8.7 2 2.2 3.3 4.5 3.4.3-.4.6-.6.8-.9m636-576c-6.1-5.6-14-7.7-21.4-10.8-9.2-3.9-18-3.7-26.8-1.7-13.6 3-27.5 3.7-41 7.4-6.5 1.7-12.2 6.5-13.4 12.8-.7 3.7 1.1 5 4.4 4.6 4.3-.5 8.5-1.4 12.7-1.8 17.5-1.5 34.8-5 51.6-9.9 9.8-2.9 18.2 0 27 2.3 6.1 1.6 10 6.5 14.8 11.5.2-7.2-4.1-10.8-8-14.4m410 293c.2-15.8 1.8-31.4 3.7-47 2.4-19 6.3-37.9 8.7-56.9 2-16 3.8-31.9.6-47.9-1.5-7.6-1.5-15.7-4.2-22.8-6.2-16.7-8.7-34-12.8-51-1.6-6.7-5.2-12.3-9-19-1.2 4.3.3 7 1.5 9.7.9 2 1.5 4 1.9 6.1 2 9.5 4.8 18.8 7.1 28 1.9 7.7 2.9 15.5 4.5 23 1.7 7.8 2.5 16 4.1 23.9 2.6 12.8 2 25.3.8 38-.9 9.5-3 18.9-3.9 28.5-1 11.3-1.8 22.8-4.6 33.8-2.9 11.5-4.5 23-4.2 35 .2 8 3.2 15.5 3.1 23.7 2.4-1.2 2.6-3.1 2.7-5.1m-243 84c1.4-.5 2.7 2.7 4.2-.1 1.2-2.1-.4-3-1.4-4.3-3.9-4.7-8.4-9-11.5-14.2-6.9-11.6-16.6-19-29-23.3-11.5-3.8-23.8-3.9-35-7.9-7.5-2.6-13.7-6.7-17.9-13.5-3.2-5.1-1.9-9.4 3.5-12.3 4.4-2.4 8.9-4.6 13.8-5.4-.2-1.4-.8-1.6-1.4-1.8-8.1-1.4-14.6 2.1-20 7.3-4.8 4.5-4.7 15-.8 20.3 1.5 2 7.5 3.4 1.9 7.5-.1.1.1 1 .4 1.3 3.2 5 7.6 8.1 13.6 8.9 1.3.2 3.4.5 2.3-2.2-1.4-3.4.5-2.2 2.2-1.7 7.5 2.1 14.9 4.7 22.5 5.9 13 2.1 24 7.7 32.4 17.6 5.8 6.8 14.7 9.6 20 16.9.2.5.4.8.7 1m-61.9 23c-12-5.1-22.6-12.6-32-21.3-9.3-8.7-16.9-19-23-30-4.1-7.5-6.4-15.7-8.9-24-3.2-10.3-4.2-20.3-4.2-30.7 0-4 0-8 0-12 0-2.3-.4-4.5-2.7-6.1-.6 1.2-1.1 2-1.4 3-.3.8-.4 1.6-.5 2.4-.9 17-2.2 33.9.6 51 2.2 13.3 8.3 24 15.8 34.6 7.9 10.9 18.5 18.8 29.9 25.9 11 6.9 22.7 12 35 15.9 1.7.5 2.9.2 4.2-1.4-4.1-3-8.5-5.2-12.9-7m-792-250c-3.5 7.5-6.5 8.8-14.5 6.9-6.9-1.7-14-2.7-20.6-5.3-8.5-3.4-17.2-6.5-23-14.5-3.4-4.6-6.8-9.2-9.7-14.3-1.4 1.3-.9 2.4-.6 3.5 3.2 12.5 11.3 21.7 21.6 28 9.1 5.8 18.9 10.9 30 12.6 5.1.7 6.4 4.2 3.4 8.5-7.1 10.3-11.6 22-18.5 32-.7 1-1.6 2.3-.3 3.6 6.7-5.8 44-73 43-80-3.8 6.9-8 12.3-11 18.5m438 143c-1.3.5-3.2 1.1-2.9 2.9.3 2 2.1 2.6 3.8 2.6 9.2 0 18.6 1.4 27.4-.5 12.2-2.6 24-.1 35.9.2 11.7.3 23.5 1.7 34.9-.2 13.6-2.3 27.4-1.7 40.8-5.3 6.2-1.7 12.8-1.8 19.3-.4 1.8.4 4-.4 4.4-2.4.3-2-2-1.8-3.2-2.4-2.2-.9-4.6-.7-6.9-.2-12.7 2.6-25.3 5.1-38 4.7-3.5-.1-7.1-.5-10.5.2-15.8 3.2-31.8-.1-47.6 1.7-.5.1-1 0-1.5-.1-14.5-3.2-29.4-2.3-44.7-3.9-3.6-.6-7.1 1.6-10.8 3.1m315-272c4.5 13.5 16.7 21.8 22 35 1.9-1.7 1.3-2.8.8-3.8-1.7-3.8-3.3-7.6-5.2-11.3-6.1-12.2-10.8-25-13.4-38-2-10.4-8.7-16.6-14-24.3.9 14.9 5.3 28.8 9.9 42.7m282 224c2.6-5.2 5.2-10.9 8-16 4.9-9 6.7-18.9 9.6-28.5 3.2-10.4 2.6-21.3 4.6-31.9.9-4.9.2-10.2.2-15.2-4.1 5.6-3.6 12-4.9 18-3.1 13.3-5.3 26.8-9.5 39.9-2.5 7.7-4.4 15.7-8.1 22.9-4.5 8.9-7.8 18-10.7 27.6-.1.4.2.9.6 2.5 4.8-6.4 7.1-13.3 10.2-19.3m-242-274c4 9.4 8.1 18.8 11 28.7 1.6 5.6 2.3 11.8 6.2 16.6 4 4.9 7.9 9.8 12 14.4 1.3 1.5 2 5.1 4.3 3.8 2-1.2.1-4.4-.7-6.4-4-10-8.3-19.8-12.6-29.7-4.4-10.4-9.3-20.5-17.8-28.4-.7-.7-1.3-1.4-1.9-2-1.1 0-1.3 1.4-.6 3m-742 152c2.5-4.7 4.4-9.6 6.4-14.5 4.1-10.2 10.3-19.3 16.8-28 3.6-4.9 4-10.3 4.5-15.9.1-1-.6-2.6-1.4-3-1.1-.6-2 .8-2.7 1.7-3.4 4.9-6 10.2-9.1 15.2-7.4 11.9-12.6 24.6-16.4 38-.9 3-2.4 6.2-1 9.8 2-.8 2.3-2.2 2.9-3.3m-62 394c9.5 7.6 20.7 12.2 31.7 17.2 1.9.9 5.2 2 6.9.1 1.5-1.7 2.1-4.6 1.3-7.1-.8-2.3-2.7-2.9-5-3.3-9.6-1.9-18.9-4.4-27.4-9.6-8.1-5-16.3-9.9-24.3-15.2 4.6 6.9 10.4 12.8 16.8 17.9m-49.7-270c-5.2 11.9-17.5 16.8-25.3 26-4.7 5.6-12.7 7.4-16.4 14.2-.7 1.2-3.1 2.1-1.7 3.5 1.3 1.4 3.3.5 4.9-.7 4.8-3.7 10.5-6.3 15.2-10 4.1-3.3 8.9-5.5 12.7-9.4 6.9-6.9 10.7-15.9 17.2-23 1.4-1.6 1.7-3.9 1-6.8-2.3 2.8-6.2 3.2-7.6 6.3m800-337c-6.1-12.7-11.4-25.7-18.9-37.7-2.9-4.7-5.7-9-12.3-7.5-1.4.3-3.4-.5-3.9 1.4-.4 1.5 1 2.6 2.1 3.7 9.3 9.4 17 20 24 31 3.5 5.6 6 11.8 10.3 17-.1-2.8-.1-5.6-1.3-8.2m-411-37c4.2-7.9 3.6-8.1-5.7-8-4.3 0-6.6 1.6-6.5 6.1.1 3.2-1.1 6.1-2 9.2-2.3 8-4.7 16-4.6 24.5 7.9-9.7 13-20.9 18.8-31.8m298 596c.2-1.3.4-3.4-1.7-3.6-2.1-.2-2.7 1.5-2.8 3.3-.3 3.5 0 6.9-.5 10.4-1.9 13.9-4 27.9-1.5 42 .2 1.1-.2 2.5 1.4 2.8 1.1.2 2-.6 2.4-1.5 2.1-3.7 4.4-7.3 3.9-12-.8-8.9-2.5-17.7-2.1-27.3-.2-4.3.1-9.2.9-14m358-355c13.9 9.9 25.8 21.8 37 34.5 3 3.4 6.1 7.1 10.8 8.5 1.3.4 2.5 2.5 3.9.8 1.3-1.8 0-3.4-1.4-4.8-.5-.5-.9-1-1.4-1.4-9.5-9.4-18.6-19.3-29-27.6-6.6-5.1-13-10.5-21-13-.6 2 .6 2.4 1.5 3.1m-494 88c1.4 4.4 4.8 7.3 9.2 7.6 3.4.2 6 1.3 8.4 3.4 1.1 1 2.3 1.9 3.6 2.7.8.5 1.8 1.3 2.7.4 1-.9.1-1.8-.4-2.6-3.3-5.2-6.8-10-11.3-14.3-2.2-2-4.6-3.1-7.3-3.4-5 0-6.3 1.7-4.9 6.2m-331-335c-1.5 4.3-3.2 8.7-2.9 13.5.2 2.1.9 2.9 2.7 1.3 3.8-3.4 7.6-6.7 11.3-10.2 1.7-1.6 4.2-3.6 3.3-5.6-1-2.3-4.2-.6-6.7-1.2-2.3 1-6.4-1.6-7.7 2.2m276 664c-4.9-19.3-14.6-36.7-21-55 3.9 19.7 10.7 38 21 55m282-403c.6 10.3-6 17.9-9.7 26.6-.6 1.4-1.1 2.7-1.1 4.3.1 3.5 1.5 5.1 5.1 3.5 6.6-3 9.5-9.4 13.4-14.9.3-.5.2-1.7-1.3-2-4.5 4-7.2 10-13 13.3 3.1-10 11.6-18.9 6.7-30.8m-110 326c-8.4 16-11.5 33.4-17 49.8 7.4-8.7 18.3-41 17-49.8m-131-291c-8.4 7.9-12.4 17.9-11.6 29 .5 7.7 3.9 14.9 12.6 18-15.8-15.6-8.2-31-1-47m11.7-95c3.6-13.7-8.8-40-19.7-41.6 12.9 11.2 14.6 26.7 19.7 41.6" />
</svg>
