<svg xmlns="http://www.w3.org/2000/svg" viewBox="0 0 1222.4 720.9" enable-background="new 0 0 1222.4 720.9">
    <path d="m133 721c-5-11.2-5.5-22.8-3-34.6 0-.2.1-.3.1-.5 1.5-6.9-.6-11-7.4-12.2-4-.7-6.9-2.5-9.9-4.9-1.7-1.4-4-4-5.9-2.3-1.6 1.5-.6 4.5.4 7 2.4 5.7 5.4 11.2 8.9 17.5-3.3-.7-5.1-2-6.7-3.6-4.6-4.5-8.8-9.4-12.3-14.9-2.1-3.3-3.7-7.7-9-7.5-1 0-1.9-.8-2-1.9-.2-1.2.6-2 1.6-2.2 3.4-.7 2.8-2.7 2.3-5.3-2.1-10.9.3-21.8-.3-32.7-.2-3.5 1-7.9-4.9-3.9-.2-.8-.4-1.2-.3-1.3 4.6-6.5 6.9-14 9.1-21.6.6-2 1.8-3.1 3.8-3 2.5.1 2.7 2.3 2.7 4 .1 6.8.1 13.7.1 20.5 0 8.6 2.2 16.7 4.3 24.9.9 3.5-.1 7.5 3.9 10.2 3.6 2.4 5.2 2.5 5.8-1.6.5-3.5 1.3-6.5 4.3-8.5.9-.6 1.1-1.7 1-2.7-1.2-10 3.2-19.9 2.1-30-.6-5.1 1.5-9.4 4.4-13.4.8-1.1 2-2.1 1.9-3.4-.3-7.3 3-13.6 5.6-20 .7-1.6 1.4-3 2.7-4.1 2-1.7 1.6-4 1-6-.6-2.1-2.7-1.5-4.3-1.5-5.3-.1-10.6.9-15.9 1.2-6 .4-8.1 5.7-9.8 10.6-1.6 4.8-4.3 7.3-9.7 7.4-6.1.1-11.8 3.3-18 2.7-1.1-.1-2.3-.2-4-.4 4.6-6.4 11.4-10.3 15-17.5-4.8-.1-9.3 1.3-13.3 2.7-20.4 7.1-39 17.8-57.9 28.5-2 1.2-2.9 2.6-3.7 4.8-4.9 12.8-8.5 26-14.9 38.7-1.9-5.1-1.5-11.4.6-15.4 3.2-6.3 5.6-13 8.1-19.6 3.5-9.1 5.6-18.6 9.2-27.7 3.6-9.3 5.6-19.3 9.4-28.6 4.7-11.5 8.2-23.5 13.2-34.9 3.2-7.3 4.9-15 7.8-22.4 6.7-17.2 13.7-34 21.7-51 4.3-9 8-18.4 12-27.6 3.9-8.7 9.5-16 15.6-23.4 10-11.9 23.5-20.5 32.4-33 7.2-10.4 17.3-17.9 24.8-28 4-5.5 8.4-11 13.2-16 .7-.8 4.6-2.5.7-5.1-.9-.6 1.6-4 3.1-5.7 1-1.2 2.7-2.2 4.1 0-.2-.9 1.3-3.1 2.3-3.7.1-.1.1-.3.2-.4 7.3-10.9 17.9-19.4 23-32 5.1-12.2 12.2-23.5 17.3-35.6 3.2-7.7 8.2-14.4 10.7-22.6 1-3.3 3.4-7 5.4-10.3 1.2-1.9 1.1-4.5 1.7-6.4 1.3-3.7 3.7-6.9 3.5-11 3.8.3 2.6-2.6 2.7-4.5.4-5.8 4.6-9.8 6.8-14.8 1.2-2.8 3.3-5.3 5.5-7.7-4.5 16.9-10 33.4-17.3 49 1.5.7 2.1 0 2.4-.7 6.3-13.8 13.5-27.3 17.8-42 1.9-6.7 6.3-12.7 6.2-19.8-.1-11.6 5.9-22.3 5.3-33.7-.5-10.5 2.7-20 4.3-30 1.9-12.4 11.3-18.2 18.9-25.7 4.4-4.4 9.5-8.2 13.5-13 1.3-1.6 2.9-2.7 4.4-4 7.9-7 15.6-14.5 24.7-19.7 6.2-3.5 10.9-9.3 19-12.4-2.3 4.9-5.8 7-8.6 9.4-4.3 3.8-9.2 7.1-13.2 11.2-10.4 10.8-19 23-28 35-7 9.8-12.2 20.7-16.5 31.7-6 15.2-12 30-14.8 46.7-1.2 7.4-2.7 14.9-5.2 22-1.8 5.3-.6 11.2-1.2 16.8-1.6 15.5-2.3 31-3.3 46.6-.2 2.7.5 5.3 3.7 3.2 5.6-3.8 12-5 18-7.5 6.2-2.6 11.9-2.9 18-3.2 1.2-.1 2.4-.1 3.5.3 12 4.7 25 3.3 37 7.6 9.2 3.3 18.5 6.3 24.7 14.7 1.4 1.8 3.2 3.3 5.2 4.7 2.4 1.7 4.8 3.4 5.9 6.5-1.8 1.3-3.5.5-5.3.1-9.9-2-19.4-5.6-29-8.3-11.3-3.1-22.8-5.4-34-8-1.3-.3-2.6-.5-3.7-1.3-7.3-5-15-6-23.7-3.3-5.2 1.6-10.8 3.3-16.5 2.2-.2 0-.6.2-.7.4-1.4 4.1-5.1 7.5-4.6 11.9.5 4.5-1 8.9-.4 13.3.1.8.1 2.2-.3 2.4-5 2.5-4.5 7.9-5 11.8-2.5 18.7-6.8 37-6.3 56 .7 22.6 1.9 45 8 67 2.7 9.9 2.1 20.9 4.9 30.8 3.1 10.7 4.4 21.7 6.1 32.5 2.1 13.9 7.4 26.8 10.3 40 3.5 16.4 10.6 31 16.9 46.7 6.8 16.5 17.2 30 27.7 44 4.9 6.6 10.9 12.5 16.5 18.5 7.7 8.1 16 15.7 22.8 24.7 7 9.2 16.8 14.7 27 19.6 13 6.2 27 6.3 41 7.1 14.6.9 29 .6 43.6-1.9 7.5-1.3 14-4.8 20.9-7.7 16-7 29.9-17.6 44.5-27 19-12.6 36-28 53.7-42.6 9.9-8.3 18.4-18.5 26.5-28.8.8-1.1 1.6-3.4 3.2-1.4 1 1.3 2.3 3.6-.1 5-1.1.6-1.7 1.3-2.1 2.5-3.2 7.5-8.7 13-14.3 18.7-14.2 14.5-30.5 26.5-46.8 38-8.1 6-16.4 11.8-25.7 15.9-3.4 1.5-6.2 3.7-9.1 6-16 12.6-33.5 22.6-53 27.8-5.4 1.4-11 1.8-16.8 1.9-3.6.1-7.6-.2-9.3 5.5-1.8-6.1-6.7-5.5-10.4-6.3-8.9-1.9-18-1.9-27-1.5-3.1.1-1.9 1.9-1.2 3.3 3.2 6.6 7.2 12.7 11 18.9 6.5 10.5 12.9 21 19 31.9 1.2 2.1 2.9 4.1 2.6 6.8-58.7 0-117 0-176 0-.3-7.8-4.4-14.5-6.1-21.9-3.1-13.5-9.1-26-11-40-1.6-12-3.4-23.9-3.3-36 0-1.9.8-4-1.1-5.8-5.5 8.7-7.3 18.3-7.1 28 .2 10.4-.5 20.7 1.5 31 1.6 8.5 3.4 16.5 6.8 24.4 2.9 6.6 6.8 12.8 8.3 20-3.3 0-6.7 0-10 0 0-5.2-.7-10.2-4.1-14.5-.8-1-1.1-2.5-1.2-3.7-.2-8.1-3-15.9-4-23.9-1.2-9.4-5.3-18.3-6.6-27.7-.5-3.9-.1-8.1-1.1-11.8-2.8-10-3.3-20-3.4-30.5-.1-7.6-3.5-14.8-3.2-22.6 0-.9-.6-2.1-1.8-2.1-.9 0-1.2 1-1.4 1.8-1.1 3.8-1.9 7.8-1.9 11.7-.1 20-.1 40 0 60 0 4.9.7 9.9 2 14.7 2 7.1 4 14.2 6 21.4.8 2.9 2.1 5.5 3.5 8.1 3.2 5.9 7.6 11.4 7 18.7-15.7 0-31 0-47 0-1-12.3-6.4-24-5.2-36.7-3.5 3.8-1.9 7.5-1.2 11.3.3 1.8 4.6 7.9-3.3 5-.4-.2-1.3.4-1.7.8-2.3 2.6-4.3 5.4-4.3 9.1 0 3.5-.2 7-.3 10.5-12.5.3-24.9.3-37 .3m15.7-314c-3.4-8.1-6.4-16-7.2-24.8-.1-1.4-.6-2.8-2-3.2-1.4-.4-1.9 1-2.6 1.9-3 3.5-6 7-9.2 10.4-9.3 9.7-18.9 19-28.8 28-3.4 3.1-3.5 7-1.5 11 1.8 3.5 4.9 5.7 8.1 7.8.9.6 2.5.9 1.9 2.5-.4 1.1-1.7 1-2.6.8-5.8-1.3-11.9-1.4-17.4-4-6.6-3.1-7.8-2.3-11.2 4.5-9.2 18.4-17 37-24.5 56-4 10-6.9 20.4-10.9 30.4-7.3 18.2-12.5 37-19 55-.4 1-1.2 2.3-.3 3.3 1.2 1.2 2.5.1 3.6-.5 8.2-4 16.4-8.1 24.5-12.2 10.8-5.5 22-10 34-12.4 9.8-2 19-4 25.3-12.7 1.7-2.4 6.1-3.6 5.4-6.4-.7-2.6-5.1-1-7.7-2.2-1.4-.7-3.9 0-3.9-2.2 0-1.7 1.6-2.8 3.3-3.9 6.8-4 14.5-7 18.2-14.8.6-1.2 1.8-1.2 2.5-.5 1.8 1.9 2.6.4 4-.7 4.4-3.5 7-9.6 14-9.1 1 .1 1.7-.9 1.9-2 .2-1.3-.2-2.6-1.6-2.7-2.6-.2-2.1-2-2.2-3.6-.3-3.5.5-7.2 2.5-9.5 4.4-5.1 6.7-10.7 7.7-17.2.8-5.3 3.5-10.3 2.8-16-1-7.7-2.1-15.4-3.4-23-.8-4.7.1-10.8.7-16 1.4-10.9 1.4-21.8 1.8-32.7.2-6.5-3.8-11.9-4-18.2 0-.6-.5-1.2-.9-1.7-1.3-1.9-2.5-1.4-3.3.3-.6 1.3-1.4 3-1.1 4.3 1.3 5.7.8 11.6 1.2 17.4.5 5.9 2.9 11.7 2.1 17.8m51 91c-1 10.2-3.6 20-3.6 30.5 0 1.2-.3 2.4-1.2 3.2-5.8 5.1-5 12-5.7 18.8-1 9.3 2.6 18.3 1.2 27.7-.6 3.9-2.6 7.8-1.9 11.7 1.5 9.1.2 18.3.8 27.4 1 16.2 2 32.5 8.2 47.9 3.5 8.6 6.9 17.2 10.9 25.5 2.4 5.1 5.2 9.9 6.3 15.6.4 2 .6 4.6 3.2 5.7 1.2-2.1 1-4.2.6-6-1.8-8.8-1.4-17.8-4.6-26.7-4.6-13-6.3-26.8-9-40-2.7-13-3.3-26.5-3.7-40-.4-13 .5-25.8.5-38.8 0-5.5-1.6-10.8-1-16.4 1.8-15.3 1.1-30.5-1-45.8m-9.3-13.4c-2.2.6-3.6 2.2-4.5 4.1-.8 1.7-1.8 3.6-3.7 3.7-5.8.2-9.3 3.4-12 8.1-.5.8-1.5 1.2-2.4 1.8-9.6 6.7-19 13.4-24 24.5-.4.9-1.6 1.8-2.6 2.2-4.2 1.6-7.5 4.4-9.7 8.2-3.8 6.7-7.6 13.3-13.7 18.7.8.3 1.4.6 2 .7 8.3.8 16.6-1 24.9-1.1 1.6 0 3.8-.6 4-3 .5-6.3 4.1-11.2 7-16.5.7-1.3 1.3-3.6 2.2-3.7 6.3-.8 5.5-5.7 5.9-9.8.2-2.2 1.3-3.8 2.5-5.3 5.8-6.9 11.8-13.8 17.7-20.6 3-3.6 4.4-8 6.6-12m86-405c10.3-4 17.4-10.6 21.5-21.4-9.2 5.6-19.9 8.6-21.5 21.4m506 641c.4-1.5-.2-2.8-1.1-3.7-5.6-6-8.3-13.5-11.7-20.7-1.4-2.8-3.2-5.3-5.5-7.6-3.7-3.8-8.5-5.9-12.3-9.5-6.3-5.9-10.8-13.8-19-17.6-.9-.4-1.7-1.9-1.7-2.9-.3-6.3-4.9-9.3-9.4-12.4-3.3-2.3-4.5-6.1-6.2-9.4-1.2-2.3-.2-4.1 1.2-5.9 1.1-1.3-.1-2.5-.8-3-4.2-2.6-5.6-7.4-8.4-11-.6-.8-1.3-1.8-2.3-1.6-1.2.3-2 1.7-1.7 2.7.9 3.5-.4 6.9.1 10.3 1.6 9.6 1.6 19.6 6.3 28.6-3.9-4.7-8.1-9.1-10.6-14.8-.9-2.1-1-4.3-1.9-6.5-4.3-10.6-13.3-19.9-10.2-32.9.1-.4-.1-1.1-.4-1.4-3.7-3.4-2.4-8.1-3.4-12-2.1-8.5-.9-17.2-1.9-25.8-.1-.9.4-2.3 1-2.7 3-1.7 2.7-4.5 2.4-7-.9-7-1.6-13.9-1.1-20.9.1-1.1-.6-2.2-.9-3.3-.4-1.3-1.2-1.9-2.6-1.9-1.2.1-1.8.7-2.1 1.8-1.7 6.6-5.7 12.5-7.4 18.7-2.5 9.2-7.7 16.9-10.6 25.8-2.7 8.4-8.3 15.8-9.5 24.8-.7 5.3-3.6 10-4.3 15-1 6.9 1.4 14.3-2.9 20.8-.4.6-.3 1.7-.2 2.4 1.7 7.2.6 14.6.9 21.9.8 20.7-2.7 41.7 5.3 61.8 44-.1 89-.1 133-.1m87 0c-2.1-7.1-4.2-14.2-6.3-21.4-3.1-10.4-4.9-21-5.4-31.8-.1-2.2.1-4.2 2.5-5.5 5.8-3 11.8-5.9 17.4-9.3 6.6-4.1 13.2-8.4 18.6-14.6-2.7-1-4.7-.3-6.6.6-8.3 4.1-17.2 5.6-26 6.6-1.8.2-4 .3-4.4-2.1-.4-2 .5-3.5 2.7-4.1 3.8-1.1 2.7-2.9.4-4.2-2.1-1.2-2.2-2.3-1.7-4.4 2.2-9.4 4.6-18.8 9.7-27 3.4-5.5 6.8-11 9.8-16.6 4.9-9.3 13-15.8 18.9-24 .8-1.2 2.3-1.8 3.6-2.6 1.9-1.3 3.1-.7 3.7 1.4 4.3 13.4 8.8 26.7 13.6 39.9 5.5 15.3 12 30 18.7 45 .5 1.1.9 2.8 3.4 2.9-3.9-10-6.9-19.8-10.7-29-6.9-17-10.2-35-14.8-52.9-3.1-11.8-2.8-24.4-7.4-36-2.9-7.3-3.9-15.4-5.7-23-1.9-8.4-4.4-16.7-6.4-25-1.3-5.6-1.3-12.2-3.8-16.7-3.7-6.8-5.3-14.2-7.7-21.3-4.7-14.2-9.7-28-15.6-41.8-5.5-12.6-12-24.6-16.9-37.5-.5-1.3-1-2.6-2.6-2.6-2-.1-2.5 1.6-2.8 3-.4 1.6-.4 3.3.2 4.9 3.4 8.5 6.6 17 10.3 25.6 2.6 6.1 4.4 12.5 7.6 18.6 4.1 7.7 5.4 16.9 7.9 25.4 1.6 5.4 3.1 10.8 5 16 2.7 7.6 6.5 14.8 8.3 22.6 1.6 7.2 4.6 14 5.7 21.4 1.3 8.5 3.1 16.8 5.9 24.9 2.6 7.5 1 15.5 3.8 23 2.5 6.7-.7 11-8 11.2-3.8.1-7.5-.7-11.3-.6-6 .1-11.9-2.4-17.8-.9-8.7 2.2-17.2 3.9-26.3 2.8-4.3-.5-8.5-1.6-12.7-2.2-10-1.3-11.4.4-9.8 10.6 1.5 8.8 2.7 17.7 2.9 26.6.2 6.8 1.2 13.5 1.4 20.3.4 11.2 7.1 21 6.7 32.4 0 .5.2 1 .4 1.4 4.7 6.5 4.8 14.6 7.9 21.7 5.9 13.6 12.2 26.8 21 38.9 2.2 3 5.3 6 4.9 10.4 2.7-.2 5.3-.2 8-.2m-24 0c-.2-.8-.1-1.8-.6-2.3-7.6-9.1-18.7-14.6-24.7-25.3-.5-.9-1.8-.7-2.8-.3-.8.3-.9 1.1-.6 1.6 1.2 1.6.9 3.1-.8 3.6-2 .7-4.8 1.1-6-1-3.1-5.1-8.2-8.8-9.7-15.3-1.5-6.6-4.9-13-9.5-17.7-5-5-5.8-11.3-7.1-16.9-1.8-7.6-5-14.7-7-22-1.2-4.7-4.8-8.5-4.2-14.2.4-4-.8-8.2-1.7-12.2-1.9-8.6-1.5-17.5-1.7-26-.1-7.1.7-14-.2-21.3-.7-5.9-.8-12 .2-17.9 1.4-8.5.1-16.9-.6-25.3 0-.6-.4-1.4-.9-1.6-1-.6-1.4.4-2 1-1 1.1-1.9 2.4-1.6 4 .7 3-.5 5.9-.7 8.8-1 11.2-3.7 22.3-3.4 33.6.6 21.8-1.1 43.5 1.8 65 2.2 16.9 5.2 33.7 8.8 50 4 18.2 11.6 35 20.7 51 18.3.1 36 .1 54 .1m-198 0c1.2-3.1-1.6-4.8-2.4-7.2-1.3-4.1-7.1-7.5-1.8-12.6.3-.3-.3-1.5-.5-2.3-1.2-4.5-1.6-9.6-7.3-11.4-.4-.1-.6-1.1-.7-1.7-.3-11.2.5-22.5-1.2-33.7-.9-6.3 3-13 .4-18.7-3.7-8.2-.5-15.6 2.1-22.3 3-7.9 5.5-15.9 7.8-24 .5-1.7 1.7-3.8-.6-4.8-2.6-1.3-3.7 1.1-5 2.8-2.7 3.5-3.2 8-5.2 11.8-4.4 8.3-7.9 16.9-9.3 26.4-.6 4-.4 7.9-.9 11.9-1.6 12.2-3.7 24.5-.5 36.6 1.7 6.6 1.3 13 1.8 19.7.2 2.5.6 4.9 1 7.4 1.3 7.6 2.4 15.4 6.3 22.3 5.3-.2 10.7-.2 16-.2m575 0c-5.3-13.4-14-24.7-21.5-36.8-.7-1.1-1.1-3.5-2.9-2.6-1.7.8-.3 2.7.3 4 5.8 12 12.6 23.7 19 35.5 1.7-.1 3.3-.1 5-.1m-464-258c2.6-8.9 5.3-17.8 7.9-26.7 2.4-8.5 5-17 6.3-25.9.5-3.6-.1-7.5 1.3-10.8 3.1-6.9 4.5-14 6.4-21.3 4.1-15.4 7.3-31 7.9-46.9.6-14.5 2.4-28.7 4.9-42.9 1.8-9.9 2.9-19.9-3.7-28-9.4-12-19.3-23.8-28-36.4-4.3-6.2-7.5-14.2-16.6-16.6-1.6-.4-4.4-4.5-6.4-7.1-5.1-6.9-10.5-13.5-16.7-19.4-3.4-3.2-5.6-7.3-7.8-11.4-4.5-8.7-8.2-17.8-12.9-26.3-3.3-6-4.9-12.6-8.6-18.4-3.4-5.4-4.5-11.9-7.3-17.8-2.7-5.8-5.8-11.7-10.3-15-4.9-3.7-9.6-7.5-13.7-11.9-5.2-5.5-12-9.9-13.9-18-.3-1.4-1.1-1-2.2-1-3.7-.2-7-1.3-7.3-5.8-.1-1.7-1.3-2.4-2.5-2.7-3.7-.9-6.1-3.6-9.1-5.5-10.7-6.8-22.5-11.4-34.5-15.3-8.8-2.8-17.9-5-25.5-10.7-3.3-2.5-6.3-3.1-10.2-1.1 7.6 5.6 15.8 9.8 24.3 13.6 10.6 4.6 21.3 9.2 31.8 14 14.5 6.6 26.6 17.2 38 28 3.6 3.4 8.2 7.1 9.2 11.5 1.3 5.4 4.9 8 7.9 11.5 1.4 1.6 2.7 3.4 4 5.1 4.6 6.2 6.5 13.5 9.2 20.5 2 5.4 2.5 5.2 1.5 12-.1.4.2 1.1.6 1.3 4.8 2.9 6.5 8.7 11 11.8 5.2 3.6 7.9 8.3 6.7 14.9-.3 1.7-1.1 4.3 2.2 5.2 5.2 1.5 8 5.6 10.3 10.2 1.4 2.7 2.5 5.1 1.8 8.6-.4 2 5.6 1.9 7.4 4.8.5.8 1.6 1.5 1.1 2.6-.5 1.4-2 1.2-3.1 1-3.9-.6-7.9-1.2-11.7-2-4.3-1-8.4-2.3-12.6-3.4-.2.4-.3.8-.5 1.2 5.1 2.8 10.3 5.7 16 6.8 14 2.7 14 2.6 15.8 5.3-2 .7-3-2-5.1-1.3-9.1 2.8-18 .6-26.9-.9-1.1-.2-3.2-.3-2.7.7 1.3 2.5.6 5.9 3.8 7.6 8.4 4.5 16.8 9.1 26.8 8.8.8 0 1.7.1 1.9 1.2-.6 1.5-1.9 1-3 1.1-4.6.5-9.4.3-13.8 1.6-3.9 1.2-6.7.3-9.7-1.7-1.5-1-2.6-3.9-4.8-1.7-1.9 1.9-1 4.1.7 6.2 8.5 10.6 19.6 13.9 32.6 12.2.9-.1 2.1-.5 2.6-1.2 2.6-3.4 7-2.5 10.2-4.6-1.8 3.7-3.6 7.2-4 11.3-.1 1.1-.2 2.5 1 3.1 1.1.6 2.4.6 3.2-.4 2.2-2.9 6.2-3.2 8.5-6.4 2.5-3.5 7-2.9 9.1.8 1.6 2.8 4 4 6.6 5 2.1.8 3.7 2.1 5.3 3.5 2.7 2.4 2.3 4.1-.5 6.3-8.4 6.8-16 14.5-23.6 22-6.9 6.8-14.3 13.4-20.4 21-7.1 8.9-15 18.7-8.3 32.8 2.5 5.2 4.4 10.8 1.8 16.8-2.1 4.9-4 9.8-6.9 14.4-1.1 1.8-1.9 3.9-2.5 5.9-.8 2.4.1 4.5 2 6.2 2 1.7 3.9 1.5 6 .4 2.4-1.2 4.6-2.6 6.5-4.5 3.9-3.8 7.5-8.4 12.2-11 9.2-5.1 16.5-12 22.8-20 1.2-1.6 3.1-2.4 3.8-4.9 2.8-10-1.8-21.9-11.5-25.8-5.3-2.1-9.9-3.4-11.5-10-1-4.6-1-9.5 2-13.3 7.5-9.7 19.8-13 27.8-22 1.2-1.3 2.6-2.5 3.9-3.8 2.2-2.3 4.6-1.9 6.5.3 1.6 1.9 2.2 4 1.6 6.9-1.9 9.2-4.2 18.5-3.3 28 .2 1.6-.6 3.7 2 4.9 1.8-10.6 3.6-20.9 7.5-31 1.7 2.6 2.2 8.1 1.3 12.3-3.9 17.4-6.1 34.9-5.9 52.8.1 6.4-1.4 12.9-3.5 19-5.6 15.6-15.2 29-22.3 43.9-.7 1.5-1.9 2.7-3 4-6.2 7.1-14.2 11.2-22.8 14.6-4.6 1.8-9 1.9-13.6.5-6.2-1.8-12.3-4.1-18-7-4-2-5.8-4.8-4.5-9.2.6-2.2 1-4.4-.1-7-2.5 2.1-2 5.2-3.6 7.3-4.7 6.3-7.2 13.8-10.4 20.8-9.8 21.6-16 44.7-26.8 65.9-5.1 10-7.8 21-13.3 30.9-4.2 7.5-8.9 14.7-13.2 22-.6 1-2.8 3.2-.1 3.7 2.9.5 3.1 1.6 2.6 3.9-.2 1.1.6 1.8 1.7 2 1.6.3 1.4-.9 1.7-1.8.8-2.5-.3-5.2 4.5-6.4 4.6-1.1-3.7-4-1.3-7.1.4-.5.6-1.2.8-1.8.4-1.1.7-2.2 1-3.3.3-1.2-.3-2.9 1.6-3.2 1.9-.3 1.7 1.7 2.4 2.6.6.7.2 2.1 1.3 2.2 6.6-5.7 7-12.8 3.9-20.6 4.4 5 8 9.9 5.4 16.4 1.7 0 2-.6 2.3-1.2 5.9-11 11.8-22 17.7-33 1.2-2.2.3-3.7-1.3-4.6-1.7-1-4.2-1.4-5.4.5-1.3 2-3.4 4.2-3.5 6.2-.5 7.9-4.7 11.8-12.5 13.3 1.9-3.2.7-8.2 6.6-8.3.4 0 1.1-.8 1.3-1.3 1.4-5.2 1.9-10.9 8.4-12.8.8-.3.2-1.6.5-2.2 2.1-4.7 4.2-9.4 6.3-14 1.7-3.9 4.8-7.4 6.7-11 6.6-12.6 12.5-25.7 17.2-39 .6-1.8.9-2.7 2.9-1.5 5 2.9 10.3 4.7 16 5.5 3.4.4 4.6 3.1 2.7 5.8-1.5 2.1-2 4 .6 5.3 2.4 1.2 4.8 1.6 6-1.8.6-1.8.7-4 3.6-5.1 0 2.8 1 4.8 4.1 5.1 1.4.2 1.4 1.7 1.4 2.9-.1 5 0 10-1.8 14.7-2.4 6.1.1 13-3.1 18.9-.3.5-.2 1.5.2 1.9 2.9 3.7 1.1 7.2-.2 10.8-.8 2.2-1.1 4.5-1.1 6.8.1 17.8-.2 35.7.1 54 .1 6.7 2.8 13 4.5 20.8 1.3-3.3 1.6-5.4 2.1-7.5 1.1-5.4.2-11 1.5-16.3 2.7-10.9 1.8-21.9 1-32.8-.9-11.9.3-23.9-1.4-35.8-.5-3.2 2.9-5.7 2.8-8.9-.4-10 2.4-19.8 2.1-29.8 0-1.2-.8-2.9.9-3.5 1.7-.5.8 2.5 2.6 2.3 1-2.2.3-4.3-.6-6.3-2.1-4.6 2.5-5.9 4.2-8.6.6-1 2.3-1.9 3.5-1.1 2.4 1.7 2.6 4.4 2.6 7.1 0 6.3-.1 12.7 0 19 .2 8.4-1 16.9 1.6 25.5 2 0 2-1 2.3-1.9m95-355c-3.6-6.2-4-13.3-6.7-19.6-4.2-9.9-8.9-19.6-13.5-29.4-6.4-13.3-15-25.4-20.6-39-2.2-5.5-5.2-10.8-8-16-.6-1.2-1.1-3.3-3.1-2.5-2.3.8-.6 2.7-.3 3.8 1.1 3.5 2.4 6.9 3.9 10.2 8.5 19.3 16.3 38.9 23 58.8 1.7 5 2.7 10.3 4.7 15 7.8 18.7 16 37 26 54.8 5.2 9.2 9.4 19 18.4 25.7.6.5.9 1.4 1.5 2 5.2 5.1 10.5 10.2 15.8 15.2.3-.2.7-.5 1-.7-2.7-5-5.2-10-8.2-15-4.9-7.9-9.3-16-12.5-24.8-4.1-10.9-7.3-22-13.8-31.9-.5-.8-.9-2.1-2-1.7-.6.2-.8 1.5-1.4 2.6-1.6-2.6-3-5-4.4-7.4m-214 137c-4.5-6.7-10.7-10.8-18.8-11.4-10.2-.8-20.4 2.1-30.6 1-1.9-.2-4 .1-5.9.5-12.9 2.2-25.8 4.3-38.8 5.5-9.7.9-19.5 1.5-29 2.1-5.5.3-10.9 2.1-14.8 6.3-2.1 2.2-6.6 3.8-4.6 7.8 1.9 3.9 6.3 2.7 9.5 2.2 9.4-1.6 18.9-.6 28-1.3 17-1.2 34-3.4 50-8.7 10.7-3.5 21.7-4.5 32.7-5.8 8-.9 15.4 1.2 22 5.4 1.2-1.6.5-2.7-.1-3.6m512 363c-7.8-10.8-14.5-22-21.7-33-9.5-14.7-18.4-29.9-28.5-44-8.2-11.6-16.2-23.4-23.9-35-12.5-19-25.8-37.7-36.6-57.9-5.4-10-12.2-19.6-17.6-29.9-6.9-13-13.8-26-19-39.8-4.8-12-10.5-23.9-14.9-36-.9-2.6-3.1-4.5-5.8-5.6-1.1 1.4-.3 2.4.3 3.4 8 13.9 13.3 29 19.5 43.9 10.8 25.9 23.8 50.8 36.5 76 12.5 24.5 27.6 48 42.8 71 5.5 8.3 12 15.8 17.6 24 6.2 9.2 13.7 17.2 19.7 26.4 5.1 7.8 12 14 16.8 22 4.1 7 10.7 12 14.4 19.5.4.8 1.2 1.6 2.9 1.4-.4-2.3-1.4-3.6-2.3-4.9m-768-63c-4.9 1.2-10.2-1.9-15.8-1.9-1.3 0-2.8-.8-2.8-1.7-.1-6.9-7.7-8.2-9.9-13.5-.6-1.5-3.2-2.8-1.3-4.6 1.7-1.4 4.4-1.4 5.9.4 6.9 8.3 15.7 6.1 24.4 4.7 2.8-.4 5.6-.7 8.4-1 16-1.6 32 1.6 48 1.7 11 .1 21.6.9 31.8 4.6 8.6 3.1 17.3 4.4 26.4 3.8 2.7-.2 6.8-.3 7 2.7.2 3.7-4 3.8-7 3.8-4.1 0-8.3.7-12.4-.7-1.4-.4-2.6 0-3.9.6-8.6 3.7-17.5 2.1-26.4 1.5-3.9-.3-7.9.4-11.9.8-11.9 1.2-23.7 2-35.5-1.7-4.2-1.3-9.3-.7-13.9-.1-3.4.5-6.8.8-11 .6m13.4-11.3c1.1 1.6 2.5 2.3 3.9 2.5 7 1.4 13.7 3.6 21 3.4 6.9-.2 13.9-.4 20.8.7 5.8.9 11.8.3 17.7-3-4.6-2.9-9.2-4.1-14-4.1-9.3 0-18.4-.4-27.6-2.7-7.2-1.7-14.5.3-21.8 3.2m-86-213c-.7.4-1.4.7-2 1.2-1.2 1.1-3.4 2.1-2.7 3.8.9 2.4 2.8 0 4.3.1 4.4.3 8-4.3 12.2-2.7 4.8 1.8 9.6 1.3 14 .8 9.9-1 20.4-1.3 27.8-9.8 1.5-1.7 3.8-1.7 5.9-2.1 6.3-1.2 12.8-2 18.7-5.7-3.1-1.9-6.2-1.1-9.1-1.7-8.3-1.6-16.6-1.9-25 .7-6.2 2-12.7 3.3-19.4 3.3-7.1 0-13.6-2-20.3-3.5-6.6-1.5-11.7-5.8-13.8-12.7-.8-2.7-1.3-5.4-1.8-8.2-.3-1.5-1-2.5-2.6-2.4-1.6.1-1.7 1.4-1.7 2.5-.1 1-.2 2 0 3 3 11.9.8 11.5-11 15.9-.5.2-1 .2-1.5.2-1.2.2-2.3.5-2.4 2-.1 1.5.4 3.1 1.8 3.2 3.8.2 6.9 3.5 11.8 1.7-2.4 1.7-4 2.4-6.1 2.5-.8 0-2.2-.2-2.4 1.2-.2 1.6 1 1.8 2.1 2.2 4.5 1.7 9 .9 13.5-1.1-.4 2.1-2 2.2-3 2.9-1.1.8-3.3.9-2.6 2.8.6 1.7 2.6 1.2 4 1 3.6-.5 7.1-1.3 10.7-2 .2.4.3.6.5.9m288-.9c-12.3 4.6-25.3 3.1-37.8 2.9-10.9-.2-22-2.2-32.8-5.1-7.3-2-14.7-3.9-22.4-2.2-1.6.4-3.8.4-3.9 2.3-.2 2.3 2 2.2 3.6 2.3 4 .4 7.9 1.6 11.3 3.5 9 5 18 9.6 28.4 11.6 3 .6 5.5 2.1 7.2 4.9 1.5 2.5 4 3.4 7.1 2.6-.3-1.6-2.8-2.9-.9-4.7 1.8-1.7 3.5 0 5.1.5 1.2.3 2.2 1.6 3.4 1.9 3.1.9 5.4 4.3 9.1 3.6.3-2.4-3.4-3.3-1.6-5.5 1.8-2.3 4.3-1 6.5-.4 1.1.3 2.1 1 3.2 1.2 3.8.9 7.5 1.7 11.7 1.4-2.7-5-2-6.4 3.5-6.1 3.6.2 6.9-.5 10.2-1.2-.1-1.3-.6-1.6-1.3-1.8-1.5-.3-3.2-.4-3.3-2.4 0-1.7 1.5-2.4 2.7-3.3 2-1.4 4.4-2.4 6.4-5.3-5.5-.5-10.4-2.6-15.4-.7m284-242c-1.5-1.6-2.7-3.4-4-5-8.4-10.4-16-21.3-23.4-32.5-7.9-12.2-17.5-23.3-27.9-33.7-6.1-6.2-12.5-5.4-20-4.7 9.2 9.3 16.6 19 24 28.8 6.8 8.5 14.4 16.4 20.4 25.6 3.9 6 10.5 9.8 14.4 15.7 5.5 8.4 14 13.5 20.3 20.9 1 1.2 2.6 2 4.4 2.3 1.6-8.1-3.6-12.6-8.2-17.4m-753-8.1c4.7-8.1 9.3-16.2 16.8-22.4 3.5-2.9 7.4-5.6 10.2-9.2 4-5 6.3-10.8 13-13.8 7.6-3.4 10.4-11.5 13.4-18.9 1.2-3 0-4-2.8-4-3.7 0-7.3.1-11 0-2.8-.1-4.2 1.1-5.1 3.7-2.3 6.9-5.4 13.5-6.6 20.8-.4 2.6-1.8 4.7-3.4 6.5-3.7 4.1-7.6 7.9-11.2 12-8.9 10-18.5 19.5-24.6 31.7-2.7 5.4-7.4 10.2-6.1 17.4 4.9-8.8 12.5-15.2 17.4-23.8m623 463c1-9 3.6-17.4 5.1-26 1.5-9.4 4.5-18.6 5.3-28 .1-1.5.8-3.9-1.1-4.4-2.3-.6-2.5 2.1-3.5 3.4-5.8 7.3-4.2 16.4-5.9 24.7-1.1 5.2-2.3 10.3-3 15.5-1.3 9.5-1.9 19-3.4 28.5-.4 3-.4 5.5 1.2 9 3.2-7.5 4.5-15 5.3-22.3m178-298c6.7 12.3 14.5 24 19.9 37 .9 2.2 2.6 3.4 5.2 2.3 1.4-.6 2.7-1.1 3.3 1.3.5 1.9 1.8 4.2 4.2 2.5 2.3-1.6.2-3.6-.9-5.1-7.6-10.4-14.3-21.4-22.7-31-2.7-3.1-5.4-6.2-9.3-9.4.2 1.6.1 2.1.3 2.5m-856-47c3.1-4.6 7.1-8.6 9.2-14 3.7-9.7 7.9-19.3 11.7-29 .8-2 2.9-5.2.7-6.1-2.5-1-2.9 2.8-3.9 4.7-5.7 11-9.9 22.7-18 32-2.8 3.2-4.3 7.4-6.3 11.2-.8 1.6-.9 3 1.6 2.6 1.7-.8 3.8.1 5.1-1.7m763 296c-6.7-6.7-12.3-14.2-16.6-22.7-.9-1.9-1.3-5.6-3.9-4.8-2.1.6-2 4.2-1.9 6.7 0 1.4.6 2.5 1.3 3.7 3.7 6.7 9.4 11.5 15.2 16.2 1 .8 2.6 1.6 2.2 3-.4 1.4-2.1 1.3-3.5 1.3-2.5.1-4.9-.2-7.4-.9-1.1-.3-2.7-1.7-3.5.2-.8 1.8.6 2.3 2.2 3 8 3.5 14.8-1 22-3-2.1-1.2-4.4-.8-6.2-2.7m-470-217c-7.8-10-18.9-14.5-30.7-17.5-6.3-1.6-12.8-1.9-19.3-1.4-2 .2-4.3.4-3.9 3.3.5 3.3 2.9 1.3 4.3.9 2-.5 3.9-.8 5.9-.8 14.4.2 26.6 5.8 37.8 14.4 3.3 2.5 6.3 5.8 11.2 6.9-.7-3.5-3.8-3.9-5.3-5.8m33.4 4.1c6.8 6.4 12.4 13.2 12.8 23.3.1 3.1.8 6.2 1 9.4.1 1.1.7 2 1.7 2.2 1.4.2 1.6-1 1.6-2-.1-6 .8-11.9-.7-17.9-2.8-10.5-11-15.9-19.3-21.5-1.9-1.3-3.8-3.3-8.1-2.2 4.3 3.1 7.8 5.7 11 8.7m9 189c-5.5-3.1-9.3-7.8-12.8-12.9-1.3-2-2.9-3.7-5.2-4.5-1.6-.6-3.3-1.7-5.1-.1-1.9 1.8-.8 3.6-.3 5.5.5 1.9 2 2.6 3.4 3.3 2.8 1.4 5.3 3 7.6 5.3 3.9 3.7 8.3 7.7 14.6 6.4 0-1.6-1.1-2.3-2.2-3m-38-30.4c.2 6.5 1.7 13.3 7.3 17.9.9.8 1.8 2.5 3.2 1.3 1.2-1-.3-2.1-.8-3-6.7-12.5-6.9-25-.3-37.5.7-1.4 2.1-2.7.9-5-7.5 7.5-10.6 16.5-10.3 26.3m438 19c.5-17.3 3.5-34.6-.3-52 .8 17.4-3.2 34.6-2.5 52 .9 0 1.9 0 2.8 0m-186 160c1.4-2.4 1.8-6.1 2.5-9.3.2-1.1.2-2.4-1-3.1-.8-.4-1.7-.3-2.3.3-4.7 4.4-8.7 9.3-10.7 15.5-.3 1-.5 2.1.6 2.6 1.2.5 1.5-.9 2.2-1.5 1.9-1.7.9-4.9 3.1-6.5 1.7 1.5 3 6.6 5.6 2m-132-599c8.1-.8 15.4-6.2 23.9-4.5.7.1 1.8-.1 1.9-1.1 0-1.5-1.4-1.9-2.4-2.1-10.2-1.6-19.5.5-27.7 7.2 1.6 1.7 2.9.6 4.3.5m-419 519c4.4 2.2 9.4 3.8 13 6.9 5.3 4.4 8.8 4.2 12.4-1.7.9-1.5 2.9-2.3 2.2-4.5-.8-2.3-2.9-2.7-4.9-2.4-8.9 1.1-17.6-.3-27-2.9 1.5 2.6 2.7 3.8 4.4 4.6" />
</svg>
