<svg xmlns="http://www.w3.org/2000/svg" viewBox="0 0 1280.3 720.9" enable-background="new 0 0 1280.3 720.9">
    <path d="m424 721c.8-12.3 1.6-24.7.4-36.8-1.3-14.6-2.7-29-8-43-3.8-10-7.6-20-11.5-30-3.6-9.3-9.4-17.5-13-26.8-1.1-2.8-4.1-6.7-1.1-8.3 2.8-1.5 3.6 3.4 4.7 5.7 8.5 18.6 18.7 36.5 25.9 55.7 3.8 10 7.1 20.3 9 30.9.4 2.2 1.4 4.3 2.2 6.4.4-2.8-.5-5.9 1.3-10 4.6 10 2.4 20 6.4 29 .3-4 .9-7.9.9-11.9 0-9.4-.3-18.9-.5-28-.2-9.6-.3-19-3.5-28.5-.8-2.4-.6-5.3-.5-7.9.2-5.2 0-10.3-3-14.9-1.1-1.6-1.1-3.5-1-5.3.5-7-2.9-12.4-6.4-18.2-2.8-4.6-4.2-10-6.3-15-6.4-15.7-13.4-31-23-45-4.9-7.2-8.5-15.3-12.3-23-2.4-4.8-5.8-9.2-6.7-14.7-.3-1.5-1.5-2-3.1-1.5-6.6 2.4-13.3 4.5-19.7 7.2-4.3 1.8-4.9 7.3-1.5 11.5 5.7 6.9 9.6 14.4 11.3 23.4.9 4.9 3.7 9.6 6.3 14 3.4 5.9 4.9 12.6 8.9 18.2.9 1.2 2.2 3.3.2 4.4-2.2 1.1-2.8-1.1-3.7-2.7-6.7-12-13.4-24-20.5-35.8-2.8-4.6-4.1-9.7-6.1-14.6-1.2-3-3.8-7.2-5.5-6.2-2.7 1.6 0 5.5 1.4 7.9 5.4 9.5 8.2 20 13 29.7 2.4 4.9 4.9 10 8 14.6.9 1.3 1.5 2.5 2 4 .3 1 .7 2 0 2.8-.9 1.1-2.2.8-3.2.1-5.2-3.5-11.4-5.1-16.4-9.2-7.8-6.2-16.2-11.8-24.6-17-6.8-4.3-10.9-11-16.4-16.5-8.6-8.6-16.9-17.4-24.5-26.9-2.4-3-4.5-6.1-6.6-9.3-.7-1.1-1.6-2.4-.7-3.7 1.1-1.5 2.7-.4 3.6.1 5.8 3.6 12 6.3 17.5 10.4 4.3 3.2 9.9 4.7 14.3 7.8 4.1 3 8.3 3.8 13 3.5 1.4-.1 2.7-.1 3.7-1.1 2.3-2.3 5.1-2.2 7.9-1.3 1.8.5 3.6.7 5.4-.1 1.4-.6 2.2-1.5 2.1-3.1-.1-2-1.7-1.7-3-1.8-6.6-.5-13.3-.5-19.7-2.1-7.8-1.8-9.8-9.5-4.4-15.6 5.4-6.2 11.9-11.5 16.4-18.5 2-3.2 4.6-5.1 8.5-1.8 2.1 1.7 3.3.5 3.4-1.9.1-7.7.3-15.4.3-23 0-1.3-.5-2.6.3-3.8 4.1-6.2 3.6-13 2-19.7-3.1-13-3.8-26-3.9-39.5-1.7.1-1.9 1.7-1.9 2.5-.6 9.5-3.8 18.8-1.7 28.7 1.1 4.9.1 10.3.4 15.4.2 4.8.2 9.7 1.4 14.3 1.3 5-.1 9.3-1.8 13.5-1.3 3.1-3.4 1.8-4.7-.4-5.2-8.5-10-17-12.6-26.8-1.4-5.4-3-10.9-5.9-15.8-1.9-3.2-2-7.1-2.6-10.5-2.1-11.5-3.7-23-4.3-34.9-.5-9.3-2.1-18.5-1.4-28-2.5 3.1-3.7 7-3.9 10.6-1.2 16.4-3.5 32.7-3.2 49 0 2.7-.1 5.3 1.7 7.6.7.9 1.1 2.2 1 3.3-.2 2.9-1.5 6.2-4.1 6.5-1.9.2-.6-3.3-1.1-5.1-1.3-4.4-2-8.8-2.5-13.4-.7-6.7-.8-13.2.1-19.8.6-4.3.4-8.6.3-13-.2-15.4 1.6-30 8.6-44.5 7.7-15.7 14.5-32 25.8-45.6 7.3-8.8 8.9-19.3 10.6-29.9.2-1.4.6-2.7 1-4.3-2.9 1.5-5.6 2.7-7.3 5.7-1.2 2.3-3.3 3.9-5.7 5.3-4.1 2.4-7.7 5.5-10.9 9.2-4.5 5.2-9.3 10.2-14.3 15-3.6 3.5-6.1 8.3-9.5 12-6.7 7.6-10.7 17-16.7 25-.9 1.2-1.4 3.7-3.4 2.8-2-.9-.7-2.9-.2-4.4 5.2-15.3 11.9-29.6 21-43 6.1-8.8 13.9-16 20.7-24 4.6-5.5 11-9 16.7-13 1.3-1 2.7-1.8 3-3.7-5.9 5-14.4 5.2-19.7 11.4-1.9 2.2-4.9 3.3-7.4 4.7-8.8 5-15.8 12.2-23.4 18.6-.9.8-1.5 1.9-2.9 1.3-1.3-.6-1.1-1.9-1.1-3.1 0-1 .1-2 .5-2.9 5.5-11.8 11.4-23 19.3-33.7 4.2-5.6 9.2-10.3 13.6-15.7 5.4-6.5 12.7-8 20-9.8 31.5-7.6 57-22.7 69.8-54 2.4-5.9 4.8-11.6 5.9-17.9.9-5 5.4-7.4 8.3-11 4.8-6.1 9.8-12 15-18.4 1.4 2.1.9 3.6.3 5.4-5.2 14.7-10 29.5-12.7 44.9-2.3 13.4-3.4 26.9-5.6 40-2.6 15.9-5.1 31.7-8.3 48-4.1 20-8.9 40-7.6 61 .7 11.9 1.6 23.8 4 35.5 5.6 26.6 11 53 17 80 4.3 19.6 9 39 15.5 58 7.9 22.8 18.3 44 33.8 63 12.6 15.5 27.4 28 44 38.8 15.9 10 31 21.4 46.6 32 9.8 6.6 20.7 11 31.8 15 11.4 4.2 23.3 4.6 35 5.2 13.4.7 26.6.5 39-3.9 15.4-5.2 30-11.4 42.9-22.4 16.5-14.4 33.8-27.9 49-43.5 11-11 20-23.7 28.8-36.8 13.8-21 23-44 30.4-67.9 3.8-12.4 7.8-24.9 10.3-37.8 1.1-5.5 3.2-10.8 5.4-16 1.1-2.7 2.8-3.6 5.5-2 .7.4 1.5.6 2.3 1 15.3 6.5 25.3 4.3 36.8-8.1.5-.6.8-1.5 2.4-1.1-.2 3.6-.9 6.9-3.8 9.4-3.8 3.2-7.6 6.4-12.7 7.5-1.4.3-1.6 1.5-2.4 2.3-1.9 2-2.8 5.7-6.9 4.2-.8-.3-1.4.4-1.5 1-.7 4.7-4.7 8-5.4 12.8-.3 2-1.1 4.1-3.3 4.7-6.7 1.6-9.2 7.1-11.4 12.6-1.7 4.5-2.9 9.2-4.1 13.8-.5 1.7 0 4.1-2.6 4.1-2.2-.1-2-2.2-2.2-3.9 0-.4-.4-.8-.6-1.4-4.5 8.8-6.4 18.2-9.8 27-.3.7-.6 1.8-.3 2.3 6.2 10.5 4.3 23.4 10.3 33.9 5.5 9.6 12 18.6 19 27 8.8 10.8 20.7 16.9 32.9 22.5 8.7 4 18 6 27.7 7.6 11.4 1.9 22.8 3.9 34 4.9 11.8 1 23-1.4 34.7-4.2 5.9-1.5 11.7-3.5 17.6-5.2 4.5-1.3 8.1-3.2 7.6-8.8-.2-2.3 1.1-3 3.3-3.4 8.3-1.6 16.9-.8 25-3.8 1.5-.5 2.7 1.3 4.9.2-4.3-3.9-4.1-9.9-7.1-14.3-5.2-7.5-11.8-13.6-19.6-18.4-1.3-.8-2.6-1.6-3.5-2.7-6.6-7.8-14.8-13.9-24-17.8-16.8-7-33-15.5-51-19-8.7-1.7-17.8-1.8-26.8-1.4-4.3.2-3.3 2.4-1.7 4.5 2.8 3.5 5.9 6.8 8.9 10 .9 1 2 1.8 2.8 2.9 1.4 1.8 3.1 4.3 1.7 6.1-2 2.4-4-.1-5.9-1.4-6.8-4.7-13.3-9.7-17.9-16.8-5.2-8-14.5-8.6-22.6-11.3-2.4-.8-4.8-1.4-7.1-2.2-1.1-.4-1.9-1.5-1.6-2.8.3-1.5 1.6-1.5 2.7-1.6 5.5-.5 11 .3 16.3 1.6 3.8.9 7.5 1.6 11.3 1.3 21.9-1.2 43.8.6 65 7.5 16.4 5.5 33 11.3 47.7 22 5.6 4.1 11.2 8 15.9 13.2 2.1 2.3 4.9 1.8 7.4.3 3-1.8-.1-3.5-.6-5-1-2.8-1.9-5.6-2.4-8.6-.2-1.2-.5-3 .9-3.6 1.5-.7 3.2.2 3.9 1.5 3.9 7.4 11.8 12 13.8 20.8.7 3.1 2.4 5.8 4.1 8.5 2.4 4 4.4 8 4.1 13-.2 3 .9 5.9 3.4 8.4 4.5 4.6 8.4 9.8 12.4 14.9 2.2 2.9 4.1 6.1 2.3 10-1.3 2.9.4 5.2 2.2 7.1 9.5 10.4 17.2 22 24.9 33.9 7.3 11 14.3 22.3 20 34 11 22.9 22.9 45 32.4 68.9 2.9 7.2 4.6 14.8 6.8 22-3 0-6 0-9 0-7.3-12.5-12.7-25.8-18.9-38.9-7.8-16.7-15.5-33.4-23.7-49.9-6.2-12.4-12.8-24.7-20-36.6-7.5-12.3-15.6-24-22.7-36.7-2-3.5-4.1-6.9-7.2-9.4-6.7-5.5-13.4-10.6-23-9.4-6.1.7-12 2.1-18.2 2.1-4.3 0-5.9 2-5.7 5.6.5 13.8-.9 27.5-3 41-.2 1.7-1 4.1 1 5 1.8.8 3.9-.3 5.3-1.8 2.2-2.3 4.3-4.7 6.8-7.4 1.1 3.5 1.2 6.4-.2 9.2-6 12-11.4 24.4-18.4 35.7-4.9 7.8-8.5 15.4-7.4 24.4 1.2 9.7 1 19.5 2.6 29 .7 4.5 2.3 5.8 6.3 5.3 7.5-1 15-2 22.6-3.2 2.3-.4 5.8-1.8 6.2.3.6 2.7-3.3 3.7-5.6 4.4-7.1 2.2-14.3 4-21.6 5.7-3.8.9-4.8 2.2-4.3 6.5.7 6.5 4.5 12 4.3 18.7-81 0-163 0-244 0-.8-2.8-.4-5.7 1.2-7.7 3.3-4.2-1.7-7-1.1-10.6-1 1.1-2-4.2-3.1 0-.3 1.3-1.5.6-1.8-.1-2.5-5.4-5.6-10.6-7.3-16.3-3.2-10.8-5.6-21.8-5.3-33 0-1.1.2-2.5-1.7-2.4-3.4.2-3.3.3-2.4-3.2 3.2-12.7 7.8-25 11-37.6 5.4-20.4 12.3-40.5 15-61.7-3.1-.8-4 2.5-5.9 4-9.9 7.5-19.6 15.2-28.5 24-15 15-33 24.3-53 30-16.7 4.9-33.8 5.5-50.9 4.6-12.2-.7-24.4-2.8-35.4-9-5.2-2.9-10.2-6.5-15.7-8.5-13.3-4.8-24.7-12.8-36-20.9-12.9-9.2-26-18.3-37.9-28.8-9.4-8.3-20-15.2-27.6-25.4-3.1-4.2-6.4-8.3-9.7-12.6-1.7 4.1 1.4 7.2 1.5 10.7.4 12.4 5.4 23.6 9.6 34.8 5.8 15.5 12.8 30.5 19.4 45.7 6 13.8 11.9 27.7 18.4 41 10.9 22.5 22.3 44.8 33.5 67 .7 1.5 2.1 2.9.9 5.9-18-28-33.8-56.9-50-86-.2 1.8-.4 2.3-.2 2.7 6.9 19 14.8 38 22 57 4.8 12.2 11 23.7 15.2 36-1 0-2 0-3 0-5.4-10.4-10.8-20.8-16-31-.4.2-.8.4-1.2.6 3.1 10.2 6.2 20.4 9.4 30.7-31.4.4-61.8.4-92 .4m-60-454c-5.3 5.9-8.1 5.8-12.7.3-1-1.2-3.8-3.6-3.9-.8-.3 5.8-4.5 11.5-1.4 17.5.8 1.7 1 3.2-.4 4.6-2.4 2.3-2.3 5.5-1.7 8 1.3 6-.3 12 2.3 18 2.9 7 1.7 15.6 7.3 21.7 5.1 5.7 8.6 12.6 13 18.8 8.4 11.5 18.6 15.4 32.4 12.5 3.1-.7 5.3-2.7 7.4-4.5 1.3-1.1-1.4-3-1.7-4.7-.1-.7-.4-1.4-.2-2 2.4-8-1-15.4-2.1-23-1.4-9.5-4.4-18.7-5.2-28-.2-2-1.2-3.6-3.2-4.7-1-.5-3.2-2.3.3-3.2 2.2-.6 2.5-2.3.8-3.7-2-1.6-1.3-3.3-1.2-5.3.3-6.2.1-12.5.1-20-2.7 3.7-6.8 5.4-6.8 9.2 0 5.3.8 10.7 2 15.9 1.2 5.7 4.2 11 4.6 17 .3 3.9-4.3 10.7-7.2 10-8.7-2.3-16.7-6.7-21.5-14.2-3.3-5.2-4.8-11.9-4.6-18.4.1-4.4.1-9.2 2.9-12.9 1.8-2.7 1.9-5 .6-7.8m451 213c-2.4 1-2 3.4-2.1 5.5-.5 8.9 2.4 17.3 3.4 25.9 1.2 11 3.8 21.4 7.8 31.5 4.6 11.7 11 22.5 16 34 .3.7 1.1 1.4 1.8 1.5 6.2 1.3 9.8 6.6 12.2 11 5.6 10.4 16.3 14.3 24.5 21 7.6 6.2 17.7 9.5 27 13.5 4.9 2.1 10.3 4.4 15.4 4.4 11-.1 21 4.7 32 3.8 6.4-.5 13.2.3 19.8.4-.7-.2-1.5-.1-2.1-.4-7.9-3.6-16.8-2.8-25-5.1-6.3-1.7-13.4-3.1-19.7-4.9-19-5.4-35.8-15.9-50-29.8-2.1-2-4.7-3.6-7-5.5-6.3-5.1-10.9-11.9-16.8-17.3-10.3-9.4-16.8-21.3-22.5-33.6-3.5-7.6-4.5-16.3-7.3-24-3.8-10.5-2.1-21.8-7.4-31.9m119 169c-3.3-2.7-5.9-4-9.3-4.3-2.7-.2-5.4-1.4-8-2.5-6.5-2.7-13-5.5-19.5-8.4-7.2-3.3-15.9-3.9-21.3-10.8-1.9-2.4-4.5-3.8-7.2-5.1-9.5-4.8-15.8-13-22-21-4.9-6.3-10.3-12.4-13.8-20-3.1-6.8-7-13.4-10.2-20.3-2-4.4-4.6-8.6-5-14-.2-3-3.9-5.9-4.2-9.7-.1-1.1.5-3.2-1.6-2.9-1.4.2-1.9 1.9-1.7 3.3.9 7.2 1.3 14.5 3.2 21.4 1 3.7.8 7.7 2.5 11 4.1 8.3 6.9 17 10.4 25.6 3.5 8.4 10.4 13.7 14.7 21 1.1 2 3 4.3 5.3 5.8 7.3 4.7 14.5 9.7 22 14 7.7 4.4 15.5 9 25 8.5 1.5-.1 2.8.6 4.2 1.3 11 5.7 22.9 8.5 36.4 7.3m-177 44.7c2.3-1.2 2.6-2.8 2.8-4.4 1-8.7 5.3-17.2 1.7-26-.4-1 2.1-2.4-.3-3.2-1.3-.4-1.6.8-2.1 1.6-4.3 7.9-5.5 16.5-6.7 25.4 1.7-.7 1.1-3.2 2.8-2.9 1.7.3 1.1 2.1 1.2 3.4.2 1.9.4 3.8.6 6.3m-389-432c.5-.4 1.1-.7 1.4-1.1 1.7-2.4 1.7-17.3.3-19.8-1.6-3-4.5-2.4-6.4-1.8-3.2.9-1.6 4.2-1.8 6.5-.2 2.3 1 3.5 3.3 3.3 4.4-.5 4.9 2.1 4.7 5.5-.3 2.3-.5 4.7-1.5 7.4m-132 459c-.7-7.4-1.5-14.8-2.1-22.3-.1-.9.1-2.1.5-2.9 2.6-4.7 2.7-9.8 3.3-14.9.3-2.8-.9-6.9 4.9-4.7 2.3.9 2.2-2 2-3.5-.4-3.3-1.4-6.5-1.8-9.8-1.8-15.9-6.4-31-11.7-46-3.4-9.5-8.1-18.4-10.8-28-1-3.8-3.3-4.2-6.1-1.4-7.8 7.7-11.7 17-11.9 28 0 2.8.5 5.6-.7 9-5.2-7.5-9.2-14.9-9.9-23.8-1-12.5.7-24.5 7.3-35.4 1.3-2.1 2.5-4.3.9-6.4-1.9-2.5-4.1-.6-6.3.1-3.2 1-6.2 3.1-9.9 3.1-.3-2.2 1-3.3 1.8-4.7 6.3-10.7 13.6-20.9 18.3-32.4 3.7-8.8 8-17.5 8.9-27.3.4-4.3 2.8-7.5 7.5-8 8.7-.9 16.9-5.2 25.9-4.2 1.8.2 3.8-.8 4.1-2.3 1.3-5.1 8-7.3 6.3-14.2 3.3 1.8 4.4 4.2 5.5 6.5 5.7 11.6 11.4 23 16.8 35 1 2.1 2.7 3.3 3.8 5.1 2.1 3 1.7 5.4-2 5.7-8 .8-12.4 7.5-18.7 10.9-8.7 4.6-14.4 12.5-20.9 19.3-4.8 4.9-9.1 11-12 17.8-1.6 3.7-4.7 6.4-4 11.2.6 4 2.2 7.2 4.3 10.4.8 1.2 1.9 1.9 3.4 1.4 1.5-.5 2-1.8 1.8-3.2-.7-4.6 1.6-8 4.1-11.4 4-5.4 5.2-12.2 8.8-17.8.4-.7.6-1.6 1.2-2.1 7.8-7.1 14.2-15.7 21-23.6 4.5-5.1 9.7-8.1 15.5-10.9 2.4-1.1 3.6-.6 5.4 1.1 7.6 6.8 14.3 14.6 23 20 8.6 5.5 17 11.3 26.8 14.8 4 1.4 8.1 2.2 12.2 3.3.6-2.3-1-2.4-1.9-2.9-9.5-5-19.6-9-28-15.4-6.4-4.7-13-9.1-18.3-15.3-.9-1-2.1-2.3-.8-3.4 1.6-1.4 2.1.8 2.9 1.5 10.4 8.7 21.4 16.4 33.6 22.3 11.3 5.5 21.7 12.7 33.5 17.2 4.4 1.7 4.5 7.1 6.4 10.7 5.2 9.7 10 19.8 14.2 30 3.6 8.8 5.9 18.2 9.4 27 3 7.7 4.1 16 8.2 23.4 1.8 3.4 1.3 7.7 2.5 11.6 4.3 13.6 5.7 27.7 6.3 42 .1 3.1 1.7 6.2.7 9.4-62 .2-123 .2-185 .2m81-162c-3.7-.9-7.8-2.3-11-.2-5.7 3.6-13.2 4.3-17 10.8-.3.6-1.5.6-2.3 1-7.7 3.8-15.4 7.5-21.8 13.4-1.6 1.4-3.1 3-4.6 4.5-.6.6-1.2 1.3-2.1.6-.7-.6-.5-1.5-.1-2.3 1.7-3.6 3.9-6.8 6.7-9.6 3.1-3 5.9-6.3 7.8-10.2.5-1.1 1-2.1 0-3.2-.9-1-2.4-1.2-3.2-.4-5 5.4-11.9 8.4-16.8 14.3-4 4.7-7.9 9.4-11.4 14.5-3.1 4.4-8.1 8.2-3.9 14.9 4.1 6.5 4.8 14.4 7.6 21.5.4 1-.2 2.7 1.5 2.6 1.3 0 1.9-1.4 2.2-2.5 1.3-5.4 4.9-9.6 7-14.5 4.9-11.6 15.4-18.6 23.3-27.7 4-4.5 8.7-9.6 15.6-10.9.8-.2 1.5-1.3 2.2-1.9 5.6-5.3 13.3-7.9 18-14.2.5-.4 1.6-.3 2.4-.5m964-26.4c-12.5-15.6-25.7-30.4-40-44-12.2-11.7-24.5-23-37.6-33.9-16.3-13.3-35.5-22.7-49.9-38.5-1-1.1-2.5-2.4-3.8-.8-1.8 2.1.2 3.7 1.6 5 15.5 14.3 30 29.6 46.7 42.5 9.3 7.2 18.3 15 26 23.9 4.8 5.6 11.2 9.1 16.2 14.4 4.6 4.9 8.9 10.8 14.8 13.9 10.2 5.3 17.9 13.3 26 20.7 0-1 0-2 0-3m-858-528c.8-1.1 1.9-2 1.3-3.5-.7-1.6-2.3-1.2-3.5-1.2-13.2 0-26.3 0-39.5-.1-2.2 0-3.3.9-4.7 2.7-6.6 8-12.2 16.9-20.9 23-.6.4-.9 1.3-.1 2.9 11-6.3 20-15.4 29.8-23-.1 1.1-.3 1.9-.8 2.5-7.1 9-15.9 16.4-24.4 23.9-11.5 10.3-25 17.9-37 27.6-4.7 3.8-10.4 6.6-14 11.6-.8 1-2.6 2.2-1.3 3.8 1.1 1.3 2.5.1 3.7-.2 9.4-3 18.2-7.6 27.4-11 10.8-4 21.9-8.8 29.5-18.5.9-1.2 2.4-1.9 4.3-3.2-2.6 7.3-8.1 11.4-12.2 16.5-4.2 5.2-9.7 8.7-14.8 12-10.3 6.8-21.6 12-32 18.4-5 3-10.7 5.6-14 10.5-2.7 4.1-4.8 8.7-7.7 12.7-.6.9-1 1.7.3 2.7 11.3-7.7 23.8-13.5 36-19.7 10.9-5.5 21.9-11 31.8-18.5 4.7-3.5 9-7.5 13.7-12-.1 2.9-.6 4.8-1.7 6.4-6.4 9.1-13 17.9-22 24.6-8.2 6.1-16.6 11.8-25 17.6-7.4 5.2-14.9 10.3-22 15.8-8.6 6.6-13.7 15.2-19.8 23.5-.7 1-1.2 2.2-.2 3.2 1.1 1.1 2.4.9 3.7.2 9.3-5.5 19.5-9 29-13.4 6.5-3 13.2-5.7 19.8-8.5.2.4.5.9.7 1.3-7 3.7-12.2 9.8-19.3 13.4-2.4 1.2-5.7 3.1-5 5.5.8 2.8 4.2 1.2 6.5.6 8.6-2.4 17-4.7 26-7.3-2.4 2-4.7 2.9-7 3.8-6.4 2.4-12.6 5.1-18.9 7.7-1.5.6-2.8 1.5-2.1 3.3.7 1.7 2.2.9 3.5.6 3.3-.6 6.5-.6 9.8-1.4 7.3-1.9 14.8-3.6 22-4.8 10.9-1.7 20-6.8 29-12.7 10.7-7 16.9-17.9 24.6-27.5 1-1.2 2.4-3 1-4.4-1.6-1.5-2.8.3-4.1 1.3-9.3 7.1-18.9 13.6-30 17.7 22.9-15.7 42.5-34.4 54.8-60-2.5-.7-3.2.8-3.9 1.7-4.1 5-8.4 9.8-13.4 13.8-3.5 2.7-7.1 6.6-11 7.2-5.5.7-9.9 3.2-14.6 5.5-1.6.8-3.2 1.4-4.8 2.1 4.5-3.6 8.7-7 12.8-10.6 5.6-4.9 11.8-9.3 16.7-14.8 6.9-7.7 10.2-17.7 14.6-26.9.5-1.1 1-2.4-.2-3.1-1.1-.7-1.6.7-2.3 1.4-6.4 5.6-12.7 11.3-19 16.9-.1-1.4.4-2.4 1.1-3.2 7.1-9.3 14.6-18.4 20-28.8 3.2-6.2 7.5-11.5 11.7-17 2.9-3.8 6.9-6.6 9.3-10.8.9-1.5 2-3.4-.6-3.9-3.2-.6-6.9-1.5-9.6.7-5.2 4.3-11.3 7.4-15.8 12.7-2.2 2.7-5.2 4.8-8.1 7.4 2.8-6.9 8.5-11 12.5-16.5m485 317c-1.2 8.3-1.7 16.7-3.7 25-2.7 11.3-6 22.4-10.4 33-1 2.4-4.2 5.7-1.8 7.5 2 1.5 4.7-2 6.8-3.8 11-9.4 20-20.8 29-31.7 6.1-7.1 11-15.4 15.5-23.7 5.7-10.7 9.3-22 7.2-34.8-1-6.1-.4-12.5 1.7-18.2 2.6-7.2 4.6-14.5 6.5-21.8 3.9-14.8 3.9-29.5 1.4-44-3-18.3-2.8-37-5.8-55-.7-4.5-1.8-8.9-5-12.4-.5 1.3-.7 2.5-.5 3.6 3.2 17.9 2.2 35.7.1 53.6-1 8.7-2.4 17.3-4 25.9-2 10.6-4.9 21-8.1 31-6.5 20.8-16.5 40.5-22.4 62-.1.4-.6.6-1 1.1-.2-1.5-.4-2.8-.6-4.7-3 2.4-4.7 4.8-5.2 8.2m-328-104c-5.1-5.2-9.6-11-14-16.8-5.1-6.7-11.7-12.8-20-13.6-12-1.2-24.6-2.2-36.4 1.8-5.6 1.9-10.5 2.3-15.6-.9-1.1-.6-2.6-1.6-4.3-.7.1 2.1 1.8 3.1 3.3 3.9 3.7 2 2.8 3.1-.4 4.6-5.2 2.6-9.2-.2-13.6-2.3-.9-.4-1.7-2.2-2.9-.9-1.1 1.3 0 2.5.8 3.5.4.5 1.1.9 1.4 1.4.7 2 4.8.9 3.9 3.5-.9 2.9-4.4 1.4-6.6 2.3-.8.3-1.9-.6-2.9-.5-3.4.2-6.3-2.4-10-2 1.3 3.8 4.7 4.4 7.1 6.4 1.1.9 4 .7 3 3.1-.8 2.1-2.8 3.1-5.3 2.7-4-.6-8.4.2-11.8-3-.6-.5-1.4-1.1-2.2-.3-1.1 1-.1 1.8.4 2.6 2.1 3.1 4.6 5.3 8.5 6.2 2.2.5 5.3-.8 6.8 2.4 1.9 4.1 5.2 4.2 8.6 2.2 2.7-1.6 3.3-.6 3.7 2 .4 2.7 1.7 5.1 4.6 6 1 .3 2.2 1.5 3.1.2.7-1-.3-1.8-.9-2.6-1.7-2-2.7-4.1-2.1-6.9 2.3-10 10-14.2 20-17.9-5.1 5.8-5.5 11.5-6.3 17.5-1.6 11.9 12.4 21.4 22.9 19.8 1.4-.2 2.5-.8 2.8-2.4.2-1.6-1.2-2-2.1-2.4-1.5-.7-3.1-1.6-4.7-1.5-3.4.1-6-1-7.8-3.7 4.2 0 8.9-1 12.7.3 3.3 1.1 4.8-.3 6.7-1.6 3.1-2 4.3-5.4 5.4-8.6.9-2.6 2.7-5 5.3-4.2 2.6.8 3.2 3.7 2.6 6.7-1 4.7-2.7 9-6.2 12.7 3.3 1.2 4.4-.9 5.5-2.3 3.9-5.3 4.7-11.2 3.2-17.5-.3-1.1-.9-2.4.3-3.2 1-.6 1.9.3 2.7.8 3.8 1.8 6.8 4.8 10 7.3 5.2 4 10.5 7.8 9.1 15.7-.1.5.3 1.3 1.2 1.3 3.1-6.4 2.7-9.1-1.7-14-.9-1-1.8-1.9-2.8-2.8-10-9.9-19.6-20.7-34-24.9-1.5-.4-3.5-.9-4.3-3.4 11.7.1 22.8.4 31 9.3 6.5 6.9 15 11.2 22.4 17.8.8-2 .1-2.5-.4-3.1m149-1.8c-8.6 16.2-3 23.8 4.6 30 5.9 4.8 10.9 5.6 14.6 2.7-2-.7-3.9-1.2-5.7-1.9-6.8-3-11.6-7.8-13.3-15-.7-3.1-.2-6.7 3.4-7.3 3.1-.5 4.5 1.9 5.1 5.3 1 6.4 6.1 10 12.4 10 5.9-.1 7.3-1.5 9.1-9.4.2-1 .7-1.9.7-2.9-.1-1.5-.7-3.2 1.5-3.5 2-.3 3.5.7 4.2 2.7 1.3 3.6 1.4 7.1-.1 10.7-.4.9-1.2 2-.1 2.7 1.3.8 2.2-.4 2.8-1.3 2.3-3.4 2.7-7.2 2.8-11.4.2-4.4-3.5-7.2-4-11.4 17.2 5.1 22 13.7 16.3 27.5 4.5-.3 5.5-3.4 5.7-6.8.3-4.8 2.1-6.9 7-4.7.6.3 1.2.5 1.9.6 7.2 1 15.4-.4 17-7.8-4.9 0-9.7 0-14.8 0 .4-.4.6-.7.8-.8 3.3-.4 8.6-5.2 7.6-7.2-1.7-3.5-4.3 1.3-6.4-.3-.1-.1-.3.1-.5.1-.9.2-2.1.9-2.6-.3-.4-1.1.5-1.9 1.4-2.4 1.3-.8 3-1.8 2-3.4-.9-1.5-2.3 0-3.5.3-6.1 1.4-7.6.1-6-5.5-4.1 0-8.2 1.9-12.2-.2-8.4-4.1-17.2-6.9-26.4-8.6-13-2.5-26-3.9-35 9.2-3 4.4-7.4 7.8-10.2 14 4.7-2.9 8.2-5.5 10.8-8.7 10-12.2 26.9-11.6 39.5-7.6-22.3-4.7-36 8-48 23.3 5.4-4.2 11-8 17.9-10.6m367 138c-7.6-9.4-14.4-19.4-21.8-28.9-9.2-11.9-12-26.9-20.5-39-5.2-7.5-8-16.7-12-25-8.3-17-13.3-35.5-21.7-52.6-4.9-9.9-9.4-20-13.2-30.5-3.2-8.7-7.1-17.2-9.3-26-2-8.2-4.6-15.8-9.3-22.8-2.4-3.6-4.5-7.3-6.2-11.3-4.7-11.3-9.8-22.5-14.7-33.8-.5-1.1-.9-3-2.5-2.6-1.8.5-1.3 2.5-1 3.8 1.3 4.9 3.2 9.7 4.8 14.5 3.9 12 8.4 24 12.8 36 1.6 4.2 1.5 8.4.7 12.7-1.3 7.1.7 13.9 1.9 21 2.7-1 1.9-3.2 2.8-4.5.8-1.2.9-3.3 2.6-3.3 1.7.1 1.8 2.1 2.3 3.4 6.3 16.8 14 32.9 21.8 49 6.2 13 11.6 26.4 17.7 39 2.3 4.9 5 9.6 6.4 14.9.2.6.8 1.6 1 1.6 5.1-1.1 2.7 3 2.8 4.6.1 4.1.1 8.6 3.7 10.9 5.7 3.6 6.6 9.7 9.2 14.8 2.7 5.5 3.8 11.7 6.7 17 3.7 7 7.2 13.7 14.2 19 8.4 6.4 14.3 16 21.3 24 1.9 2.2 3.8 4.4 8.2 5-3.5-4.2-6-7.8-8.7-11.3m-313-192c-7.9 0-15.2 3.2-22.9 4.2-13.9 1.8-27.9 3.2-41.8 5.3-6 .9-11.3 3.8-14.2 9.8-2.3 4.7-1.5 6.1 3.8 5.5 4.8-.6 9.6-.9 14.4-.9 18.2.2 36-2.5 53.7-6.4 5.2-1.1 10.5-3.4 16-1.5 3.7 1.2 7.5 1.2 11.3 1.4 6.8.4 13.6.4 19.4 4.9 1 .8 2.8 2.3 3.9.5.8-1.3-.5-2.8-1.5-3.9-3.9-4.3-8.8-7-14.3-8.7-6.1-1.9-12.7-2.5-17.5-7.6-2-2.1-5.4-2.4-8.6-3-.5.1-1.1.4-1.7.4m-207 18.8c2.4-.1 3.6-1.2 1.7-3.4-8.5-9.7-18-17.4-31.6-18.6-15.9-1.4-31.7-3.8-47.6-5.3-5.9-.6-12-2-17.9 1.4-4.2 2.5-9.1 3.8-13.6 6-4.6 2.2-9.3 4.6-12 9.3-.5.8-1.2 1.8-.6 2.8.8 1.1 1.7.1 2.6-.2 6.9-2.3 13.7-5.1 20.7-6.5 6.7-1.3 13.7-1.5 20.6.8 6.4 2.1 13 3.8 19.6 4.8 9.5 1.3 18.9 3.3 28.4 4.7 8.6 1.3 17 4.6 25.9 3.8 1.2.1 2.5.5 3.8.4m279 62.7c.3 5.2 3.8 9.7 8.3 11.7 6.4 2.9 13.3 3.2 20.3.9 2.9-.9 3.5-2.8 2.7-4.8-2-5.3-2-11-3.6-16.4-3.5-11.4-6.8-22.8-11-33.9-3.6-9.2-7.6-18.2-15-25.4 0 22.8-2.6 45-1.5 67.9m-152 226c-2.7.9-5.4 1.8-8.1 2.6-8.3 2.4-16.4 4.3-25.4 3-8.5-1.2-17.4-1.9-25.9 1.6-3.6 1.5-7.3 1.3-11-.4-2.8-1.3-6.2-2.3-9.1-2-10.7 1.1-21.3 1-31.8-.7-7.4-1.2-15.5-1-21.9-5.7-2.9-2.2-5.8-2.4-8.9-1.8-3.4.6-6.7 1.8-10 2.9-1.8.6-4.3 1.2-4 3.7.3 2.4 2.7 2.8 4.7 2.7 3.9-.2 7 1.4 10.2 3.5 5 3.3 9.2 7.8 14.9 10 1.5.6 3.1 2.3 4.5.8 1.5-1.5-.3-3.1-1-4.4-3.3-6.4-2.4-8.3 4.7-7.7 12.2 1 24.4 2.4 36.8 2 1.2 0 2.6.6 3.7 1.3 5.7 3.6 12 3.6 17.8 1.7 8.1-2.7 16.2-3 24.5-3.3 9-.3 18.3.2 27-3 5.5-2 11-3.6 16.8-4.1 1.6-.1 3.7-.4 4.8-2.7-7.1-2.1-7.1-2.1-13.2-.1m127-436c-4.5-7.4-9.8-14-15-20.8-5.6-7-11.2-14.5-22.4-12.2-4.1.8-4.1 2.3-2.2 4.7 5.4 6.6 9.3 14 14 20.9 5.1 7.1 10.4 14 15.2 21.4 3.5 5.3 6.9 10.8 10.7 16 1 1.3 2.1 2.4 4.2 1.6-4.5-8.6-8.8-16.8-13-25 6 2.8 10 7.5 15.3 10.8-2.4-5.8-3.4-11.9-6.7-17.3m-557 50.7c-18.3 15.3-32.4 33.6-39.7 57-1.3 4-2.4 8.3-2.6 12.5-.5 9.5 2.6 18.6 4.6 27.7.8 3.7 2.7 7.3 5.5 10.4 1.5-2.3.3-4.1-.2-6-2.6-10.6-2.9-21.3-1-32 2-11.6 7.4-21.8 12.8-32 7.2-13.6 14.7-27 25.7-38 1.2-1.2 3.5-1.7 3-4.6-3.7.6-5.6 3.5-8.1 5.6m40.5 357c.5-7.5-3.7-13.9-7.5-19.3-4-5.7-6.5-12.3-10.8-17.8-1.2-1.5-1.2-4.4-3.7-3.9-2.5.4-1.4 3-1.4 4.6-.1 8.8 2 17.4 4 25.9.7 3.1-.2 6.8 1.6 9.2 4.1 5.3 4.8 12 8.1 17.5 1 1.6.7 4.3 2.4 5.3 3.2 1.8 2.7-2.5 4.4-3.2.3-.1.6-.5.9-.5 4.5 0 4.3-3.1 4.1-6.5.9-3.9-2.4-7.1-2.1-11.3m-69-239c-2.6-.9-4.4 1.7-6.5 3-.3.2-.4.5-.6.8-10.8 13.8-21.4 27.7-31.4 42-2 2.8-3 6.2-5.2 9-6.4 8-11.7 16.8-17.4 25.3-.7 1-2 2.4-.6 3.4 1.3 1 2.3-.5 3.3-1.4 6.2-5.9 10.8-13.3 15.6-20.3 11.6-16.9 24.5-32.8 38-48 .5-.6.8-1.9 1.7-1.6 6.5 2 4.3-3 4.9-6.2-1-1.7 1.1-4.9-1.8-5.9m-208 425c-1.8 0-3.7.1-5.5-.2-1.8-.3-2.6.6-2.8 2-.5 5.4-4.7 8.5-7.9 12-3.4 3.6-8.4 6.1-5.7 12.4.2.4 0 1-.2 1.4-2.9 5.9-5.1 12.5-9.8 17-4.3 4.1-2.3 7.7-2.5 11.9 1.7-.1 2.1-.9 2.5-1.6 6.8-10.2 13.5-20.4 20.3-30.4 5.1-7.5 9.8-15 12.5-23.9-.2-.2-.5-.5-.9-.7m189 26.5c-2.1-11.2-1.6-22.7-4.3-33.9-.7-3.1-1.3-5.7-4-7.5-7.7 14.2-2.4 50 9.2 56-2.5-5.3 0-10-.9-14.6m641-587c-9.5-16.7-16-34.8-23.8-52-1.7-4-4-7.6-5.9-11.4-1.3-2.6-4-2.7-6.1-1.6-2.4 1.2.1 2.8.5 4.2 3.3 10.4 7.7 20 13.7 29.5 7.2 11 13.4 22.8 20.3 34 1.6 2.6 3 5.8 7 6.4-1.9-3-4-5.8-5.7-8.8m98 87c5.6-16.6-23.9-73-35-81 11.9 27.6 28.6 52 35 81m-691 23.6c-4.6 2.7-9.3 5.1-13.4 8.4-6.2 4.9-10.4 10.8-10.7 19-.1 1.7.3 3 1.4 4 .8.7 1.4-.1 2-.7 6.4-6.5 12.8-12.9 19-19.6 2.3-2.4 3.8-5.5 4.5-8.8.3-1.4.1-2.7-1.7-3.1-.3.2-.8.4-1.2.7m338 194c-1.6-1.8-4.3-2.9-7.2-1.3-4.3 2.3-3.5 5.8-2.7 9.4.7 3.1 2.1 5.5 5.1 6.8.3.1.7 0 1-.1 3.8-2.2 6.5.3 9.4 2.2 2.5 1.6 4.6 4.3 8.6 3.9-3.8-7.9-8.6-14.8-14.2-20.9m-356-18c-.9-2.6 1.5-7.2-2.6-7.5-4.8-.3-3.1 4.7-3.5 7.4-1.1 6.9-3.4 13.9 1 20.6 1.1 1.6 1.9 4.2 4.2 3.4 2.1-.7 3.7-2.7 3.8-6.1-3.8-5.1-.8-11.8-2.9-17.8m-98 158c1.1.1 2.2-.5 1.8-1.7-.7-2.3-3.3-2.5-4.9-3.9-1.6-1.4-2 .6-2.7 1.7-2.2 3.6-6.4 7.2-9.2 7.7-6.6 1.1-9.4 5.5-12.7 9.9-1.4 1.9-3.5 3.6-2.2 6.5 2.1-1 3.9-2.2 5.9-2.8 2.2-.7 3.7-2 3.6-4.2-.2-4.3.3-5.6 3.3-1.3.5.7 1.3.6 1.7.1 3.7-4.3 10.8-5.8 11-12.9 1.6.4 3 .8 4.4.9m-75.9 52.9c-4.6 1.9-8.9 6.3-9.7 9.9-.9 4.3-2.3 7-5.4 9.6-.8.7-1.6 2-.7 3.1.8 1 2.3 1 3.2.3 7.2-5.2 15.5-9.7 15.3-19.4 1.3-4.1-1-4.2-2.7-3.5m786-250c3.1-6.4 2.2-14.5-1.7-18.2 0 2.3-.3 4.2.1 5.9 1.4 6.1-1.8 10.9-4.3 15.9-1.8 3.5-4.5 6.5-5.8 10.4-.7 1.9-1.7 3.8.2 5.5 1.9 1.8 4 .4 5.4-.7 5.8-4.7 10.9-10 14.8-16.5.3-.5.1-1.3-1.2-1.8-4.9 5.4-9.3 11.6-16.6 15 3.1-5.2 6.5-10.2 9.1-15.6m-682 231c-16.6-2.4-33-1.4-49 2.3-1.4.3-3.7 1-2.9 3.2.6 1.6 2.6 1 4 .7 9.4-1.9 18.9-3 28.5-3.9 6.9-.7 13.9-.3 21.7-1.2-1.5-.8-1.8-1-2-1.1m-147 83c.8-.6 1.8-1 2.4-1.7 3.4-4.2 5.8-9 9-13.4 1.9-2.6 3.5-5.4 6.2-7.4 1.2-.9 1.5-2.2 1-3.6-.3-.8-1.3-.8-1.6-.3-1.9 3.2-4.8 2-7.6 2-2.5-.1-3.6 1.6-2.6 4 .7 1.6.6 2.8-.9 3.9-5.3 4-8.7 8.8-7 15.9.5.1.8.4 1.1.6m562-427c-1.6-2.3-3.1-5-7.4-5.1 12.2 13.8 11.7 31.4 17.6 46.9.5-14.9-1.6-29-10.2-41.8m-9.8 140c-3.4 2.3-4.9 4.5-6.1 6.8-4.9 9.3-4.6 19.3-2.9 29 .9 5.4 2.9 11.3 10.8 12.5-12.6-15.7-8.6-31.6-1.8-48m-476 202c.4-1.2.3-2.7-.6-3.8-1.3-1.4-3-1.1-4.6-.6-1 .3-1.8 1.2-1.5 2.3.9 2.9-.9 3.1-3 4.2-4 2.1-8.3 4.1-11.2 7.8-1 1.3-2.2 2.9 1.5 3.7 3.7.8 5.5-.9 8.1-2.7-1.2-.4-2-.7-3.2-1 5.8-.3 12.9-5.1 14.5-9.9m795-232c0 .8.2 1.8 1.2 1.8.5 0 1.2-.6 1.4-1.1 3.4-7 3.3-14.4 2.5-21.8-.1-.8-.5-2.1-1.9-1.8-.9.2-1.1 1.1-1.4 1.9-1.3 4.5-2.8 8.9-2 13.4.2 2.6.1 5.1.2 7.6" />
</svg>
