<svg xmlns="http://www.w3.org/2000/svg" viewBox="0 0 1280.4 720.7" enable-background="new 0 0 1280.4 720.7">
    <path d="m250 721c4.7-12.2 10.9-23.8 14.4-36.5 2.7-9.9 3.4-19.3-1.3-29-6.7-13.9-7.7-29.4-11.4-44-.8-3.1-1.1-6.2-1.2-9.4-.3-9.7-6.1-16.9-10.9-24.5-7.6-12-18.8-20.9-26.6-32.6-1.3-1.9-3.9-3.9-3.1-5.9.9-2.2 4.3-1.7 6.6-2.2.5-.1 1 0 1.5-.1 6.7-.3 12.2-1.4 15-9.2 4.7-13 12.2-25 10.6-39.7-.3-2.9 1.9-3.6 3.4-4.3 8.1-3.5 15-8.9 22.9-13 3.7-2 6.2-3.9 6.6-8.4.2-2.5.6-5.3 2.9-7.6 3.8 4.3 3.6 9.8 5 14.6 2.7 8.7 6.2 17 9.5 25.6 3.1 8.2 5.5 16.7 10 24.3 1 1.7.3 3.1-1.3 4.3-2.4 1.7-4.5 4.2-7.2 5.3-6.6 2.8-10 8.8-15 13.3-8.5 7.8-13.7 18-17 28-3.1 9.6-5.9 20.5-.2 31 7.9 14.8 8.7 31.6 11.4 47.8.8 5.1.7 11 3.4 14.8 2.9 4 4.3 9.1 8.2 12.4 1 .8 3 2.2 3 1.2 0-2.6 4.3-2.3 2.9-4.8-5.8-10.5-5-22-5.4-33-.2-6.7 1.9-14.3 4.9-21 1.6-3.6 3.6-7.2 4.6-10.9 2.1-7.5 7.3-12.3 12.9-17 3.9-3.4 7.4-7.4 11-11.2 1.2-1.2 2.2-2.4 4-2.7 1.8-.3 3.6-.7 5.3-1.4 1.6-.7 2.9-2.2 2.2-4-.8-1.8-2.3-.3-3.4 0-11.2 3-20.4 9.1-28.7 16.9-2.4 2.3-5.1 4.3-8 6.7-1.3-4 .8-6.4 2.5-8.7 3.8-5.1 5.8-11 9.1-16.5.7-1.2 1.1-2.8 0-3.7-1.6-1.2-2.2.5-2.9 1.6-2 2.9-4.7 4.9-7.6 6.9-3.5 2.3-4.3 6.9-6.1 10.5-3.6 7.3-8.7 13.7-11 21.6-.3 1.1-1 3-2.6 2.7-1.7-.3-1.7-2.1-1.9-3.6-.9-6.4.4-12.6 1.1-18.9 1-8.7 3.4-16.6 6-24.7.9-2.8 2.5-4.9 4.3-7.2 6-7.6 11.3-15.8 17.8-23 5.2-5.9 10-5.3 14.7 1 4.7 6.3 7 14.2 13.4 19.5 2.5 2.1 2.9 6.6 4.7 9.7 3 5.4 6.9 10 11 14.7 4 4.6 6.5 10.4 10.4 15 7.2 8.6 12.5 19 21.4 25.8 9.2 6.8 15 16.6 24 23.6 3.8 3 2.3 8.9 3.5 14.4 1.2-4.1 2.3-7.6 1.9-11.2-1.3-10-1.7-20-2.5-30-1.1-15-7-28.5-12.8-41.8-4.6-10.5-10.2-20.8-16.5-30.5-2.8-4.4-5-9.3-7.6-13.8-1.8-3-5.7-4.2-7-7.8-1-2.6-2.6-4.9-2.7-7.9-.1-1.6-.4-3.7-1.4-4.6-2.9-2.5-3.9-5.6-5.1-9-1.7-4.9-5.4-8.6-8.5-12.6-.8-1-2.4-2-2.4-3-.1-4-2.2-5.1-5.8-4.9-2.3.1-2.7-1.4-2.1-3.4.6-1.8 1-4.1-.7-5.1-4.1-2.4-2.8-5.6-1.6-8.8 2.2-6.1 4.4-12 6.9-18 .6-1.4 1.4-2.6-.3-3.3-3.4-1.4-4.1-4.6-5.4-7.4-1.2-2.6-1.8-6-6-5.6-1 .1-.9-.7-.9-1.3-.8-7.3-3.5-14.4-2.5-22 .5-3.6-.3-6.9-3.8-9-1.1-.7-2.7-2-1.5-3.7 1-1.5 2.6-1.9 4.4-1 2.3 1 4.1 2 5.4 4.5 2.6 4.8 6.2 9.2 10.6 12.4 2.8 2 4.4 4.5 5.4 7.2 3.8 11.2 7 22.7 10.8 34 1.7 5 4.1 9.8 6.2 14.6.8 1.7 1.8 3.6 4 3.2 2.3-.4 1.3-2.7 1.7-4.1 2.7-9.4-1.2-17.3-4.6-25.7-5.6-13.9-11.3-27.9-14.4-42.7-3-14.3-4.5-28.7-5.2-44-3.5 15.4-2.1 30-1.6 45 .1 2.4 1.7 5.7-1 6.7-2.7 1-4.1-2.5-5.1-4.5-6.8-13.7-11.5-28-11.2-43.6 0-1.5 0-3 0-4.5-.2-5.8.1-11.3 3.5-16.7 5.4-8.6 5.9-19 10.3-28.4 1.8-3.7 3.6-7.5 5.8-10.9 5.7-8.8 7.4-18.7 9.3-28.5 1.3-6.5 2.1-13 6.8-18.4.3-.3.1-.9.2-1.8-3.1-.2-4.5 2.5-5.7 4.1-7.5 9.6-16 18.2-23.3 27.9-3.2 4.4-7.8 7.6-10.2 12.8-.8 1.8-3.5 2.2-5.3 1.2-1.9-1.1-.6-2.7-.2-4.3 2.1-8.5 4.7-16.8 7.2-25 2-6.8 5.8-12 10.4-17 .8-.9 2.1-1.9 2.1-2.7-.6-7.3 5-10.2 9.8-14-2.7-1.3-5-.1-6.7.9-13.8 8.2-26.7 17.5-33 32.9-2.1 5.1-4.6 9.9-7.1 14.7-.5.9-1.1 1.6-1.7 2.5-2-2-.9-3.5-.6-4.7 2.7-10.6 3.3-22 8.4-31.8 5.9-11.3 10.8-23.3 21.3-31.7 7.2-5.8 15.9-7.2 24-10 11.3-4 22.5-8.1 32-15.5 12.5-9.6 21.8-21.7 26.8-36.7 2.7-7.9 4.8-16 7.2-24-.4-.2-.9-.3-1.3-.5-1.4 3.4-2.7 6.9-4.3 10.3-4 8.4-9 16.3-14.8 23.5-6.6 8.4-15.9 13.6-25.5 18.5-15.9 8.1-33 11-50 15.9-3.6 1.1-7.2 2.4-10.8 3.6-1.8.6-3.7.3-4.4-1.2-1.1-2.3 1.6-2.3 2.8-3.2 8.4-6.7 17.5-12.3 27-17 9-4.6 18-9.1 26.9-14-4.3 1.5-8.7 3-13 4.5-.3.1-.6.3-.9.4-2.7.9-6.5 3.1-8.1.7-1.9-2.9 3.3-3.2 4.6-6.1-10.3 4.7-21.3 6.2-31 10.6-1 .5-2.1 2.5-3.4 1-1.1-1.3-1-3.3.3-4.6 2.1-2.3 4.3-4.6 6.2-7 6.7-8.4 15.7-14 24-20.6 7.8-6.1 15.7-12 22.8-18.9 4.8-4.5 9-10 11.9-16.2-1.2-1.1-2.1-.4-2.6.4-6 8.7-15.3 13-23.8 18.4-12.2 7.7-24.8 14.9-35.7 24.4-4.2 3.6-8.5 7.8-11.2 13-.5 1.1-1.4 2.2-2.7 1.5-1-.5-.7-1.7-.3-2.7 4.5-12.4 10.6-23.8 20-33 10.9-10.8 23-20 35.4-29 5.7-4.3 11.8-9 15.6-17-2 1.3-3.4 1.8-4.3 2.8-9.5 9.8-23 13-33.9 20.5-1.2.8-2.7 1-3.6-.2-.9-1.1.5-2.1 1.1-3 .9-1.2 1.9-2.3 1.7-4.7-8.7 5.7-10.3 16.3-17.9 22.3-7.3 5.8-11.8 14.5-18.6 21.6-1.5-2.1-1.4-4.2-.7-5.9 4.4-10.9 8.8-22 18.2-29.9 6.7-5.6 13.7-11 21-15.7 5.8-3.7 10.7-8.3 16-12.3 11.5-8.3 22.7-17.3 32.4-27.8 1.4-1.5 3-2.9 3.9-5.7-16.6 12-31.5 24.4-49 33.6.3-3.4 2.7-4.6 4.4-5.6 16-9.7 28-23.5 39.8-37.8 6.6-8.2 11-17.6 16.7-26.5 1.3-2.1 2.5-2.7 4.5-2.7 7.7 0 15.3 0 23 0 1.3 0 3-.4 3.6 1 .7 1.6-.5 2.7-1.6 3.8-8 8.2-15 17-21.4 27.4 5.5-1.9 7.6-6.7 11-9.9 8.6-7.7 17.5-14.7 27.3-20.7.4-.3.7-.8 1.1-1 3-1.2 7-1.9 9 .1 1.8 1.8-2.1 3.6-3.6 4.9-6.8 6.3-13 13-18.6 20.5-6.5 8.9-11.2 18.7-16.5 28-3.4 6.1-7 12-10.9 18.9 11.2-8.8 18-20.5 27.7-29.6-5.3 13.8-14.3 25-23.8 36-9.6 11-20 21-31.7 30 9.6-3.2 16-11.5 25.7-14.9-3.1 6.4-9.3 10-13.3 15.7 7.8-4.9 16.7-8.1 23.8-14.7.4 9.3-26.6 37-45.5 50 10.2-1.7 39-25.5 50-37.9 13.7-16.2 24-34.5 35-53 2.1 3.1.5 5.3-.2 7.2-6.6 17.7-13.4 35-19.9 53-5.7 15.7-7.4 32-8.7 48.8-.6 7.7-1.8 15.5-2.9 23-1.6 11.2-1.8 22.4-3.9 33.6-1.7 9.4-4.7 18.6-5.6 28-1.5 15-1.8 30-.9 45 1 16.5 4.6 32.5 7.5 48.6 2.7 15 6.8 30 9.7 45 4.1 21 9.9 41.6 15 62 6.7 26 16 51 31.5 73.9 9.1 13.4 19 26.4 31.5 36.8 11.8 10 24.3 19.3 37.8 27 10.2 5.8 20 12 29.9 18.5 9.6 6.3 20.3 9.3 31.4 11.7 12.4 2.7 24.8 4 37 4.7 19.4 1.1 36.9-4.8 54-12.7 17.3-7.9 31.7-19.8 46-32 10-8.7 20-17.4 29-27 14.7-16.3 29-32.7 38-53 11.9-26.9 21.6-54 28.5-83 2.5-10 5.4-20 8.2-30 .9-3.2 2.2-4.5 5.6-1.9 4.6 3.6 9.8 6.2 15.9 6.3 1.5 0 3.3.3 3.3 2.3 0 2-1.7 2.1-3.2 2.3-4.3.7-6.3 3.9-9 6.9-7.6 8.4-8.6 19.9-14.6 29-2.2 3.3-.9 9-2.6 13.4-1.1 2.7-1.4 5.6-5.2 6.5-2.6.6-2.4 3.7-2.5 5.9-.1 4 .9 7.9-2.6 11.4-1.9 1.9-.5 5.1.3 7.6 1.1 3.2 2.1 6.4 2 9.7-.5 14.5 1.8 29 5.6 42.7 4 14.2 9.1 28 17.2 41 8.7 13.8 20 25.5 33 34.4 14 9.6 28.8 19.4 46.6 22 .6.1 1.2.6 2.1-.3-3-3.8-7.5-4.8-11.7-6.2-5-1.7-9.8-3.4-14.6-6.2-20.4-11.6-33.8-29.4-47-47.9-8.6-12-13.3-25.5-18.8-38.7-2.1-4.9-2.6-10.5-3.8-15.8-.2-1.1-.2-2.5 1.3-2.8 1.6-.3 1.7 1.1 2.1 2.2 2.1 6.4 6.2 11.5 10.8 16.3-.9-4.9-3.5-9.6-2.7-14.4 1.2-7.3.6-14.3-.7-21.4-.3-1.7-.4-3.6 1.2-6.2 6.7 15.5 11.6 31 24 42.8 12.3 11.2 25.6 20.7 41.6 26.3-4.3-3.6-9.4-6.5-12.7-10.8-7.7-10-16.8-19-22.3-30.7-.6-1.2-1.6-2.7-.2-3.6 1.6-1 2.2 1 2.9 1.9 7.2 8.9 14.8 17.4 24.6 23.6.8.5 1.6 1.3 2.5 1.5 9.4 1.6 17.8 6.8 26.9 8.4 10 1.7 15.6 6.4 18.4 15.7 1 3.3 3.8 4.8 7.5 3.8 7.3-1.9 14.8-3.2 21.6-6.9 1.1-.6 2-1.2 2.7-2.6-6.3-2.8-13-1-19.5-2.4 5.5-1.7 11.3 0 17.2-1.4-4.3-3.2-9.1-3-13.6-3.6-3.7-.5-7-1.6-10.5-2.9-8.1-2.8-16.6-4.5-23-10.6-7.4-6.9-17-10.5-24.7-17.4-5.7-5.2-9.7-11.5-14.5-17.2-1.5-1.8-2.6-4.1-2.3-7.3 16.8 19 36.6 32.5 62.9 34-.2.5-.4.9-.6 1.4-2.5 1.3-4.9 2.5-7.4 3.9-.8.5-2.1.9-1.9 2 .2 1.3 1.5 1.8 2.6 1.9 1.5.2 3 .1 4.5-.1 12.3-1.5 24.5-1.7 36 3.1 1 .4 2.8.1 2.7 1.6-.5 5.7 2.8 3.5 5.3 2.6 5.1-1.9 10-4.3 15-5.9 4.7-1.5 9.6-2.2 14.4-3.2 1.9-.4 4.5-.3 5.2-2.2.8-2-1.6-3.1-2.8-4.2-7.8-7.2-15.5-14.5-24-20.9-1.2-.9-2.7-1.8-4-1.7-6.4.4-11.7-3.2-17.7-4.6-5.5-1.3-10.4-4.8-12.7-9.7-8-16.8-23.5-23.7-39-30.8-2.6-1.2-5.1-2.2-7.6-3.5-3.8-2-6.2-.3-5.6 3.9 1 6.9 1.8 13.9 3.8 20.5 1.7 5.5 1.7 11 2.9 16.6.2 1 .3 2.2-.6 2.7-1.2.7-2.2-.2-3.2-.8-14.9-8.4-21.8-22-25.4-38-2.1-9.4-1.8-9.9-11.3-10.2-7.8-.3-15.6-1.2-23.4-1.1-4.1 0-7.8-1.2-11.7-2.2-1.2-.3-2.3-.8-2.3-2.2.1-1.4 1.4-1.8 2.5-2 1.3-.3 2.7-.4 4-.3 11.9 1.3 23.8-.8 35.7-1.2 5.7-.2 11.3-2.3 17.3-1.9 12.8.7 24.5 4.4 35.5 10.8 5.2 3 11.2 4.8 15.6 10.5-1.4-5.2-2.5-7.6-5.3-9-2.4-1.2-3.1-2.9-2.8-5.2.6-4.5-1.4-9.2 1.9-13.5 2.5-3.2 5-2.9 6.9-.4 3.4 4.8 7 9.6 10.4 14.3 3.9 5.4 7.3 10.9 10.2 16.8.6 1.2 1.5 2.3 1.2 3.7-1 5.5 2.2 8.8 5.7 12.4 6.2 6.5 12.9 12 21.3 15 2.5.9 4.6 2.6 6.5 4.5 9.3 9.5 19.6 18 27.5 28.8 7.2 9.7 14.9 18.9 21 29 7.1 11.6 14.7 22.8 20.9 35 6.5 12.9 13.5 25.5 20 38 7 13.7 14.7 27 21.8 40.8 3.6 7 9.4 12.8 14 19.3 7.2 10.3 15.6 19.7 24 29 .7.8 1.1 1.6.8 2.7-1 0-2 0-3 0-.9-1.2-1.7-2.6-2.8-3.4-15-9.9-25-25-38.8-36-1.1-.9-2-2.2-2.7-3.5-12.4-22-24.7-44-35.9-67-7.1-14.3-14.6-28-21.6-42.6-5.6-11.4-12.3-22.3-19.9-32.7-1.1-1.5-1.8-2.2-4-1.7-13.2 2.5-26 5.5-39 9.7-4 1.3-5.4 3.3-5.9 6.7-.9 5.7-1.9 11.4-5 16.5-4.5 7.4-7.9 15.3-11 23.4-1.7 4.4-3.5 9.1 1 13.3.6.6 1.8 1.7.8 3-6.2-.6-7.3.1-8.7 6.4-3.7 16.4-6.7 32.8-4 49.7.5 3.1 1 6.9 3.6 8.3 2.9 1.6 5.4-1.6 7.5-3.6.2-.2.5-.5.7-.7 1.4-1.3 3.1-1.8 4.5-.5 1.7 1.5 1.1 3.3-.2 4.9-1.2 1.5-2.8 2.4-4.6 2.9-2.5.7-4.5 2.1-6.5 3.7-1.7 1.3-1.4 3.2-.5 5 .9 1.9 2.1.7 3.3.3 1.2-.4 2.6-.5 3.9-.4 1.8 0 4.2-.4 4.4 2 .2 2-2.1 2.1-3.7 2.6-4.6 1.3-4.8 2.9-3.4 7.6 2.8 8.8 8.3 16.7 9.4 26-56 0-113 0-169 0 0-2.6-.1-5.3-.1-7.9 0-2-.5-3.4-2.6-4.2-2-.8-3.8-.1-5.1 1-1.5 1.3-1 3.3-.2 5.1 1 2 3.2 3.5 3 6.1-17.7 0-35 0-53 0-.9-6.4 1.1-12.5 2.7-18.5.5-1.9.5-3.2-.1-5.1-2.4-6.9-5.2-13.7-5.9-21-.3-3.3-.8-6.5-1.7-10.4-6.3 11.8-.3 23.4-1.5 34.8-1.4-3.3-4.2-5.5-5.2-8.6-3.6-11.3-7-22.7-6.6-34.8 0-.7.7-1.6-.4-2.2-2.1-1.2-2.2-1.5-1.5-3.3.6-1.7 1.7-3.3 1.9-5.1 2-14.4 6.9-27.9 11.3-41.7 4-12.7 7.2-25.7 10-39-1.3.4-2.2.4-2.8.9-7 5.8-14.2 11.4-20.8 17.7-15.7 14.9-32.5 27.9-53 35-13.5 4.7-27 9.1-41.6 8.7-9.3-.3-18.6.2-27.9-1-11.9-1.5-23.7-3.8-34.4-9.1-8-3.9-16.5-6.8-24-11.3-8.6-5-17.8-8.9-25.9-14.9-16.3-12-32.5-24-45.8-39.6-4.2-4.9-9-9.2-13.3-14-3.6-4.2-6.4-9-10.6-12.8.6 4.8 1.1 9.6 2.7 14 15.9 44 35.8 86 56 129 8.6 17.8 17.7 35 26.6 52.9-.7 0-1.3 0-2 0-3.8-4.2-6.2-9.4-9.2-14.2-12.4-20.5-26-40-37-61-2.9-5.7-6.2-11.2-9.3-16.8 2.6 8.1 6.1 15.9 8.8 23.8 8.1 23.3 18 45.9 27.7 69-91-.3-183-.3-275-.3m147-438c-5.2 3.5-8.6 10.7-6.8 15.8 1.7 4.9 2.4 9.9 3.3 15 1.5 8.7-4.5 14.8-13.2 12.6-10.6-2.8-15.8-4.1-17.4-17.6-.7-6-2-12 2.3-18 4.8-6.6 10.6-12 16.6-17.4 3.1-2.7 4.7-7.6 3.3-11.5-2.2-6.1-8.1-7.4-13-9.9-1.6-.9-3.4-2.2-5.6-1.7-6.5 1.6-11.7 7.1-11.4 13.9.4 9.9-2.6 19.3-3.4 29-.3 3.3.3 6.5-.3 9.7-2.6 12.7-2.1 25.4 2.4 37.5 3.6 9.7 11.3 17 17 25.4 4.9 7.1 10.4 12.6 19.6 14.8 8.6 2.1 16.5-6.3 17.2-13.4 1-10.4-1.6-20.3-3.3-30-2.5-14.4-7-28.6-6-43.5.1-3.4-.9-6.8-1.4-10.3m-19 231c-3.6-1.3-4.9-3.7-6.3-6.2-2.9-5.4-5.2-11-8.4-16.3-3.1-5-7.1-9.2-10-14-.9-1.4-.9-4.4-3.4-3.2-2.4 1.1-1.8 3.7-.9 5.8 1.7 4 2.5 8.3 4.3 12.4 3.4 7.8 6.2 15.8 12.3 22.3 4.3 4.6 4.7 11.2 8.1 16.4 7.5 11.5 13.2 24 20.7 35.5 8 12.3 11.6 26.7 16.7 40.7 1.3-2.3.2-4.1-.3-5.9-1.7-5.7-3.5-11.3-4.8-17-.4-2-1.4-5.6 1-6.2 2.3-.5 3.1 3.1 3.7 5.1 3.1 11.3 8 21.9 10.7 33 .1-9.2-.6-18.5-3.6-27-2.4-6.8-3-13.8-4.5-20.6-1.5-6.7-3-13.5-5.1-20-3.5-10.6-8.3-20.7-12.3-31-1.9-5-5.4-9.1-7.4-14-3.6-9.2-5.6-19-11.7-27-2.3-3-10.2-5.5-13.3-3.5-1 .6-1.3 1.6-.9 2.6 3 7 3 14.9 7.7 21.4 3.7 4.8 7.1 10 7.8 17m519 127c.3-.4.5-.9.8-1.3-2.9-4-7.4-6-11.6-8.2-2.8-1.4-5.9-2.2-8.6-3.7-7.8-4.4-12.4-12.3-19.3-17.9-10-8.1-17.4-19-23.8-30.7-9.5-17-13.9-35.7-17.4-54-1 1-.9 2.1-.6 3.5.7 3.4.2 6.9.2 10.4 0 5-.2 10.2 1.5 15.2 2.6 7.5 5.4 14.9 7.6 22.5 2.4 8.3 5.5 16.2 10 23.4 6.5 10 17 15.9 25 24.6.2.2.6.4.9.5 6.2 1.9 11.7 5.3 17.4 8.3 5.7 2.8 11.8 5.2 17.8 7.9m-130 13.7c-3.8 6-4.8 21.7-1.8 28 2.3-4.3 2.3-9.2 3.7-13.7 1.5-5 3.3-10-1.9-14.5m513-186c-7.6-3.9-14-9.3-20.9-14.2-11-7.9-22.9-13.9-34.9-19.9-10.5-5.2-21.7-9.1-32-14-15.9-7.4-31.7-15-48-21-1.7-.6-4.1-2.5-5.1.1-.8 2.2 1.9 3.3 3.7 3.9 3.4 1 6.4 2.9 8.6 5.5 1.7 2.1 3.6 3.7 5.9 4.2 4.6 1.1 7.8 5.7 13.2 5 .5-.1 1.3.5 1.6 1 2.7 4.4 7.3 6.3 11.5 8.6 7.5 4.2 15.3 7.9 23 11.7 19.5 9.6 38.8 19.5 57 32 5.3 3.8 11.6 6.6 17.4 9.9 0-4.1 0-8.4 0-12.8m-736-227c1.4-3.8.3-7.7.6-11.6 7.2 2.5 12 8.1 18 11.7-1.7-5.7-6.5-8.7-10.4-12.3-4-3.7-7.8-7.6-11.5-11.6-3.6-3.9-9.4-4.7-13.5-8.4 2.3 0 4.3-.3 6.3.1 5.5 1 11.6.8 15.8 5.1 6.5 6.5 14.5 11 21 17.3 1.3 1.2 3 3.1 5.8 2.3-7.2-8.5-13.4-17.3-21.4-24.6-3.4-3.1-7.3-5.7-11.6-6.5-11-2.3-22.7-2.3-33.6.3-7.7 1.8-14.2 1.8-20.9-1.9-.9-.5-1.8-.9-2.9.1.6.9 1.3 1.8 1.8 2.8.7 1.5 3.8 1.7 3 3.4-1 2-3.6 2.6-6 2.9-1.9.2-3.5-.7-5.2-1.3-2.6-.9-6.1-4.2-7.6-2.2-1.3 1.8 2.7 4.3 4.9 6 2.1 1.5 1.3 2.7-.3 3.2-2.8.8-5.7 2.1-8.7 1-2.3-.8-5.7-3.5-6.9-1.3-1.3 2.6 3.4 3.3 4.9 5.3.3.4.8.6 1.2.9 1.1.8 3 1 2.1 3.2-.8 1.9-2.3 2.4-4 2.2-3-.4-5.9-.9-8.5-2.5-.8-.5-1.7-1.4-2.6-.2-.8 1.1.3 1.8.9 2.5 2.2 2.5 4.5 5 8 5.6 2 .3 4 1.2 4.4 2.8 1.4 4.7 4.3 3.2 6.9 2 3-1.4 4.4-1.4 4.9 2.5.6 3.9 2.6 7 7.7 6.7-6.1-12.6.8-24 16.3-28-5.3 7.8-10 15.7-4.9 25.9 3 5.8 13.2 12.2 19.7 11.5 1.4-.2 2.8-.4 3.1-2 .3-1.6-.5-2.9-2.1-3.5-1.2-.4-2.5-.9-3.8-1.1-5.4-.8-12.5-7.6-13.4-13-.2-1.5-.5-3.3 1.3-3.9 2-.6 2.9 1.3 3.6 2.6.5 1 .5 2.3.5 3.4.1 3.4 1.6 5.8 4.9 6.6 7 1.6 13.7.3 20-2.7.7-.3 1.2-1.2.7-2.1-6.6.4-6.5.2-6.7-6.5-.1-2.5.3-3.9 2.6-4.4 2.4-.5 2.5 1.6 3.1 3.1 1 3.1 2.4 4.1 4.5.7.7-1.2 1.4-2.4 3.1-1.8 1.4.5 1.8 1.9 2.2 3.2.4 1.2-.2 2.3-.3 3.4-.6 4.2-2.9 7.8-4.7 12.7 5.3-2.2 6.1-6 7.4-9.5m-151 359c-2.9-7.5-7.8-14.3-8.9-22.4-.7-5-3.1-9.2-5.7-13-1.8-2.7-3.1-5.3-3.5-8.5-.4-2.5-1.7-4.6-3.1-6.7-5.5-8.7-11.3-17-15-26.8-2.6-6.7-7-12.8-11-18.8-2.5-3.7-6.7-1.9-10.2-1.6-1.9.2-2.4 2.3-2 4 1.5 7 .1 14.3 2.9 21 1.3 3.1 2.9 6 3.8 9.2 4.2 16.4 8.6 32.8 21.4 45 .1.1.2.2.3.4 5.1 8.2 8.3 17.7 16 24 .6.5.7 1.5 1 2.3 1.7 5.8 4.9 10.5 9.5 14.3 4.4 3.7 6.8 9.3 12.8 12.8-.4-13-4-24.4-8.3-35.5m349-341c-6.6-2.5-12.2-6.2-13.8-13.7-.4-2.1-.5-4.8 1.8-5.6 2.1-.7 4.4 0 5.8 2.6 1.5 2.7 3.3 5.4 5.5 7.5 5.3 4.8 15.2 4.5 17.3-7.5.3-2-.3-5.4 2.9-5.4 3.3 0 3.6 3.5 4.5 5.9.6 1.5.5 3.3-.3 4.9-.5 1-1.8 2 .1 2.7 1.5.5 2.5-.1 3-1.7 1-3.2 1.2-6.5.8-9.8-.4-3.6-2.5-6.5-3.4-10 8.7 1.4 14.5 5.5 18.3 12.8 2.8 5.3 2.8 10.6-2 15.8 6.1-1.7 7.1-3.8 7.5-13 13.5 3.8 24 1 28-6.1-3.4 0-6.6-.1-9.9.7-4.4 1-7.1.3-9.5-2.1 5.9 1 9.9-1.5 13.2-5.9-3.3-1.8-6.2.5-9.1.2-1.2-.1-2.5-.3-3.1-1.4-.8-1.5 1-1.8 1.7-2.5 1.1-1.1 2.8-2 1.5-4.4-2.5 1.4-5.3 1.7-8 1.7-1.1 0-2.9.1-3.6-1.3-.8-1.7 1-2.1 1.9-2.9.8-.7 2-1.3 1-3.3-3.6 1.4-7.4 3-11.4 1.6-5.2-1.8-10.2-3.9-15.4-5.5-8.9-2.8-17.8-5.8-27-4.9-5.5.5-11.7 0-16.2 3.9-6.9 6-13 12.7-18 20.6 4.9-2 8.7-5.7 12.3-9.4 8.8-9 19.8-9.9 31-8.9-8.4.6-16.2 2.6-23 7.8-6.4 5-12 10.7-16.9 17.3 4.6-2.4 8.7-5.3 12.9-8.3.9-.7 1.8-2 3-1.2 1.2.8.6 2.2 0 3.1-4.6 7.5-2.6 14.4 2.3 20.7 4.5 5.8 11.6 11.2 20.4 7.3-2.7-.8-4.6-1.4-6.3-2.1m28.8-83c-19 3.2-38 6.5-57 10-5.9 1.1-10.2 4.5-12.7 10-1.7 3.8-.2 6.1 4 6.3 5 .3 9.8-1.6 14.8-1.9 19.9-1.1 39-5.3 58.8-9.5 3.7-.8 7.4-2 11.2-.6 10 3.7 20.8.8 31 2.9 1 .2 2.6.5 3.1-.8.4-1.3-.8-2.1-1.7-2.8-3.4-2.5-7.1-3.9-11.2-5.1-5.3-1.5-11.6-.4-16-4.6-4.4-4.3-9.7-4.5-15.2-4.1-3 .1-6.1-.3-9 .1m-204 19.4c2.5-.4 6.1 1.4 7.3-1.5.9-2.3-3.1-2.9-4.2-4.8-.4-.7-1.1-1.2-1.6-1.9-3.4-5.5-9.1-7.4-14.8-9.2-5.9-1.9-12-2.2-18-3.1-11.5-1.7-23-2.2-34.6-3.8-9.6-1.4-19.7-3.2-28.9 2.8-3.6 2.3-8 3.3-11.7 5.4-3.8 2.2-8.1 3.9-10.5 8.1-.4.7-1.1 1.4-.4 2.2.7.9 1.5.4 2.2 0 4.4-2.5 9.6-2.5 14.3-4.2 11.5-4.3 22.6-3.8 34-.1 13 4.2 27 5 40.6 7.1 7.7 1.2 15.2 3.6 22.5 3 1.6.1 2.6.2 3.6 0m368-12.7c1.7 12.3 0 24-2.7 36-2.2 9.5-6.4 18.6-8.3 28-2.2 10.6-2.4 21.6-3.4 32.5-1 11-3.4 21.9-5.6 32.7-.1.3-.7.5-1 .7-1.6-1.3.4-4.4-3.6-4.7 4.5 17.4-5.1 32.9-6.5 49.6 2.6-.2 3.5-1.9 4.5-3.4 5.9-8.4 11.4-17 15.5-26.4 3.9-9.1 8.2-18.2 7.4-28.5-.1-1.9.3-4-2.2-5.5-4.2 8.9-8.3 17.7-12.6 27-1.6-2.2-1-3.4-.5-4.6 6.3-15 10.2-30.7 14.3-46 3.4-13.2 4.9-26.7 7-40 1.3-7.9 3-15.6 2.9-23.6-.1-4.6-2.5-8.8-2.1-13.7.5-6.1-.7-12.2-1.7-18.3-.5-3 .4-6.3-3.7-9.7.9 7 1.6 12.7 2.3 18.3m-665 60.7c.2-3.9-3.2-4.5-5.4-5.6-2-1-3.1 1.8-4.3 3.3-6.2 7.5-10 16.6-17 23.5-3.1 3-6.2 6.1-8.3 9.9-3 5.3-7 9.6-11.9 13-16 11.4-33.6 20-50.8 29.4-10.3 5.6-21 10.3-31.5 15.7-15.3 7.9-31 14.3-46.6 22-4.2 2.2-8.4 4.4-13.4 7.1 2.8 1 4.1.4 5.5-.2 18.3-8 37-15 54.9-24.3 7.7-3.9 16-6.1 23.7-10 6.8-3.5 13.9-6 20.9-8.9 9.7-4 19-9.1 27.4-15.5 10.7-8.2 20.5-17.6 29-27.8 6.9-7.9 13-16.5 18.9-25.4.8-1.2 1.1-3.7 3.2-3.2 1.8.5 2.7 2.3 2.7 4.4 0 1.5.5 2.9 2.6 4.8.1-4.8 0-8.6.2-12.4m414 254c8.9-1.3 16.7-6.6 25.9-6.6 1.4 0 2.8-.9 2.7-2.4-.1-1.5-1.8-1-2.8-1.4-2.9-1-5.7-1.1-8.6.6-9.7 5.7-20.7 6.4-31 6.1-8.8-.2-17.2 0-25.5 2.5-4.4 1.3-9 1.7-13.2-.1-7-3-14.2-2.9-21.5-2.9-10.3.1-20.5-1.4-30.6-3.1-2.6-.4-5.3-1-5.5-4.7-.1-2.1-1.8-2.1-3.4-2.1-7.3-.3-14 2.1-20.7 4.6-1.4.5-3.2 1.9-2.8 3.7.5 2 2.7 2.4 4.5 2.1 2.7-.4 5.6-.8 7.7.7 5.2 3.7 12 5 15 11.5.9 1.8 3.1 2.4 5 3 2 .5 3.4 1.4 2.8-2.2-1.1-6.2 1-8.3 7.2-9.1 1.7-.2 3.2 0 4.9.2 4.4.4 8.9 1.1 13.3.7 5-.5 9.6.4 14.4 1.6 7.8 1.9 15.9 4.8 23.9 1.5 7.7-3.1 15.6-4.4 23.5-3.6 5.4-.4 10.2.1 15-.6m-412-130c6.2 2.3 12.8 3.2 19.5 3.5 1.1 0 3.2-.4 2.5-1.4-2.1-3.4-.4-7.2-2.1-10.6-3.1-6.4-5-13.3-6.5-20-1.7-7.8-4.5-15.4-2.9-23.9 1.1-5.8 2-12 .3-18.2-.4-1.4-.2-3.3-2-3.6-2-.3-3 1.2-3.5 2.9-.7 2.4-.8 4.9-1.6 7.3-5.9 17.9-4.2 36.8-6.8 54.6.8 3.6-1.2 8.1 3.1 9.6m-47 126c-11.6 5.5-23.3 10.8-35 16-5.6 2.4-11.3 4.8-16.5 8.1-5.1 3.3-11 5.1-16.5 8-10 5.2-13.4 14.6-18.5 23.3 10.9-4.9 22.6-5.1 33.8-7.7 11.4-2.6 23.3-.4 34.6-3.3-8-1.6-15.8-3.6-24-2.3-8.1 1.3-16.2 1.9-24.4 2.8 23.5-17.9 48-33.8 74.9-46-3.3-.9-5.9.3-8.3 1.5m594-462c.3.7 1.5 2.8 3 1.4 1.1-1 0-2-.7-2.9-5.6-7.9-12-15.2-18.5-22.4-4.8-5.3-9.7-7.3-16.4-6.3-.9.1-2.1-.1-2.6 1.1-.5 1.1.5 1.8 1 2.6 2.4 3.2 4.8 6.2 7.1 9.5 9.9 14.5 21.7 27.5 31 42 1.4 2.2 3 4.8 5.7 6.1.7.3 1.4 1 2.2.2.6-.6.2-1.2 0-1.8-1.4-3.5-2.7-7.1-4.1-10.6-4.1-9.8-10.7-18-14.8-27.9 2.2 2.9 5.5 5.1 6.9 8.7m132 182c3.5 7.5 7.5 14.8 10.6 22.4 6 15 19 25.7 24.3 41 .3.8.9 2.1 2.1 1.7 1.4-.5 1.3-2.2.7-3-6-8.3-6-18.8-11.9-27.6-8.1-12-14.6-25.6-19.6-39.5-.7-2.1-1-4.5-3.9-4-3 .5-2.8 3.3-3.4 6 .3.8.6 1.9 1.1 2.9m-936 483c4.1-4.7 8-9.8 11-15.2 8.6-15 21.4-26.9 30.8-41 1.2-1.8 5.1-3.9 3.4-5.1-2.5-1.9-4.3 1.9-5.7 3.9-7.9 11.2-18 20.5-27.4 30.4-9.3 10-17.6 20.3-22.8 33-.4.9-.8 2-1.5 2.5-3.5 2.7-2.4 6.1-1.8 10.2 6.5-5.6 8.9-12.9 13.9-18.5m594-292c1.9.1 3.5 1 4.9 2.2 1.8 1.4 3.7 2.9 5.6 4.2.7.5 1.6.5 2.3 0 .7-.5.6-1.2.2-1.8-4.9-6.4-8.8-13.6-14.4-19.5-1.8-1.8-4.4-2.4-6.9-1.2-1.8.9-2.6 2.5-2.4 4.4-.1 6.8 4.2 11.4 10.7 11.7m-332-174c4.8-7.5 12.2-13.5 13.4-23 .1-1.2.7-2.2-.4-3.2-1.2-1-2.2-.4-3.1.4-8.2 7.4-13.9 16.3-16 27.3-.3 1.5 0 2.6 2.4 2.9 2.2-.1 2.6-2.7 3.7-4.3m34.9-144c-15 .6-43.9 30.7-41 43 9.9-18.8 25-31.5 41-43m154-54c6.2-8.8 13-17 21.4-24 1.9-1.6 4.7-3.8 3.8-5.7-1.2-2.5-4.8-1-7.3-1.1-1.1 0-1.7.7-2.3 1.6-2.5 3.7-5.2 7.2-7.6 11-4.2 6.8-9.5 13-12 21 2.3 0 3.1-1.6 4-2.8m576 305c.8.5 1.9.6 2.8.6 1.2 0 3 .6 3.6-.8.6-1.5-1-2.3-2-3.1-4.4-3.2-8.8-6.4-13.3-9.4-5.1-3.3-8.6-8.6-14-11.6-.8-.4-1.4-1.9-2.4-.9-1.1 1.1-.3 2 .7 2.9 3.2 3.2 6.2 6.5 9.4 9.7 2 2.1 3.1 4-1.3 5.8 6.9-.2 11.5 3.9 16.5 6.8m-201-308c-4.2-8.4-8.2-17-13-25-1.9-3.2-4.7-3.1-7.7-3-.9.1-2.1-.1-2.5 1.1-.4 1.1.5 1.8 1.1 2.6 4.2 4.9 8.3 9.8 12.5 14.6 3.4 3.9 5.4 9 9.3 12.7 1-1.1.9-2 .4-2.9m-252 376c-11.3-12.3-12-30.8-2-44 1.1-1.5 1.8-2.9 1.2-4.7-1.3 0-1.8.7-2.3 1.3-9 9.7-10.4 21.6-8.9 33.9 1 7.8 5.1 13.8 13.7 15.8-.6-.7-1.1-1.5-1.7-2.3m17.3-149c1.7-16.5-1.1-31.5-14.5-42.8 9.9 12.6 9.8 28.5 14.5 42.8m-299 239c-1.5-7.6-3-15.2-4.7-22.7-.9-4-2.4-7.9-3.6-11.8-.5-1.7-1.5-3.6-3.2-3.2-2.3.5-1.2 2.6-.8 4.1 1.9 7.5 3.3 15.2 6.1 22.4 1.6 4.2 1.6 9.1 5.5 13 .4-1 .8-1.5.7-1.9m561-165c-1.8 3.4-3.9 6.6-4.7 10.4-.7 3.4 1.5 5.9 4.5 5.2 4.2-1.1 12.4-11.8 12.5-16.5-1.4.5-2 1.7-2.8 2.7-2.5 3.3-4.9 6.7-8.1 9.4-.8.6-1.6 1.5-2.6.8-.9-.7-.5-1.9-.1-2.8 1.2-2.4 2.3-4.8 3.6-7 4.4-7.4 7-14.9 2.7-23.4 2.6 8.2-1.6 14.6-5 21m17.3-60.7c1-1.2 3.3-2.3 2.3-4-1.2-2-3.1-.5-4.8.3-6.7 3-13.4 6-20.4.6-.7-.6-1.7-.8-2.1.2-.2.6 0 1.7.4 2.3 2.8 3.9 6.7 5.7 10.7 5.3 5.8 0 10.6-.4 13.9-4.7m177 78c-.4 1.4.4 2.2 1.6 2.8 9.4 4.5 16.2 12.4 24 18.8 3.3 2.7 5.7 6.6 10 8 1.2.4 2.6 1.5 3.5-.2.8-1.5-1-1.9-1.7-2.6-7-6.5-15.7-11-22.5-17.9-3.4-3.4-7.5-6-11.2-9-.6-.5-1.3-1-1.8-1.3-1.3-.1-1.9.6-2.1 1.4m-190-317c8.1 9.8 16.2 19.6 24.3 29.4.4-.3.7-.6 1.1-.9-5.2-12.2-12.4-22.8-24.4-29-.4.2-.7.5-1 .8m-212 374c5.6-.6 8.4-3.3 9.5-8 .4-1.9-.3-3.3-1.4-4.5-1.2-1.2-2.8-1.3-4.1-.5-5.3 3.1-8.9 7.8-12.9 13.8 6.5-1.6 9.4-6.3 13.9-8.6-1.6 2.4-3.1 4.8-5 7.8m-119 197c6.6 24.8 21.6 46.6 26.8 72-1.3-26.8-15.3-49-26.8-72" />
</svg>
