<svg xmlns="http://www.w3.org/2000/svg" viewBox="0 0 1251.5 720.8" enable-background="new 0 0 1251.5 720.8">
    <path d="m238 721c0-4.5 3.4-7.5 5.2-11 5.7-10.9 8.7-22.5 9.5-34.7.6-8.9 1.8-17.8 0-26.8-.3-1.4 0-3-1.6-4.4-2.3 2.9-1.9 6.5-2.7 9.7-.4 1.7 0 4.1-2.1 4.5-1.8.3-2.5-1.9-3.2-3.4-5-11.2-9.9-22.4-14.8-33.6-2.2-5.1-4.9-10.2-6.4-15.6-2.7-9.7-5.9-19.3-7.2-29-.4-3.3-1.3-6.4-3.9-8.9-2.7-2.7-4.9-5.8-7.3-8.8-5.8-7.1-9.6-8.3-18-4.4-13 6.2-25.9 12.9-37 22-7.9 6.5-14.3 14.7-20.7 22.8-7.6 9.6-14.8 19.5-22 29.4-6.4 8.8-13 17.4-19 26.5-2.1 3.2-5.2 5.8-9.3 7.3 3-5 6.1-9.9 9.1-14.9 1.9-3.1 4.1-6.1 3.5-10-.2-1.1.6-1.8 1.2-2.6 5.5-8.1 12.6-14.9 19.7-21.6 4.9-4.6 7.1-10.7 10.5-16 7.2-11.7 13.6-23.8 22-34.5.4-.5.9-1.1 1.4-1.4 8.4-3.1 14.9-10.4 24.4-11 1.2-.1 2.3-.7 3.3-2.2 1.4-2.4 4.2-3.5 7.3-3.4 3.9.1 7.7-.7 10.2-4 2.3-3.1 5.6-2.1 8.6-2.9 6.5-1.7 12.9-4 18.8-7.4 2.3-1.4 5.5-1.6 6.8-4.9.5-1.3 3.3-2.5 4.8-.9 4 4.1 7.8 1.4 10.7-.7 2.8-2.1 5.7-2.6 8.7-2.9 7.8-.7 14.7-3.9 21.7-6.9 4.5-1.9 4.5-3.8.6-6.5-1.2-.8-1.7-1.7-1.7-2.7.4-7.4-3.3-14-3.5-21.5-.2-12 .6-23.6 4.9-35 4-10.8 10.4-19.4 19.3-26.5 4.3-3.4 5.6-9.9 3.4-15-1.2-2.9-1.9-6-.9-10.2 1.8 5.3 4 9.4 4.7 14.2 1.6 11.8 5.6 23 10 34 1 2.6 1.2 4.7-1.8 5.4-2.6.6-5.2.8-6.4-2.9-1.1-3.6-3.3-6.8-3.2-10.8 0-1.6-.9-4.1-3.2-3.6-2.8.6-1.2 2.8-.9 4.5 1.2 5.6 3.8 10.6 6.6 15.5 3.7 6.2 3 7.2-1.8 12.7-7.2 8.3-12.6 17.8-11.8 29.5 0 .5-.1 1.2.2 1.5 2.3 2.1 2.5 4 0 6.1-.5.4-1.1 1.9-.1 2.7 1 .8 2.3.5 3.3 0 4.8-2.6 9.6-5.3 14.3-8 2.6-1.5 5.2-2.4 6.5 1.3 4 11.7 11.2 21.8 16 33 1.6 3.7.9 7.7 2.2 11 3.1 7.7 4.2 15.6 3.7 23.8 0 .6.1 1.5.4 1.9 7.4 9.1 3.9 20.9 7.5 30.9 3.1 8.8 1.3 18.4 4.6 27 1.3 3.4 0 7.3 1.7 10.9.4-12-1.1-23.9-2.3-35.7-.5-5.4-1.6-10.9-1.6-16.3 0-9.2-.7-18.2-1.6-27.3-.2-1.9-.1-4.2 1.8-4.6 1.8-.3 2 2.1 2.4 3.7 3.4 12 6.1 24.4 9.6 36 2.4 8 3.2 16.4 6.2 24.4 3.4 9.2 5.1 19 7 28.8.8 3.9 2.7 7.4 3.5 11.3 3 15.9 6.6 31.7 10.4 48-1.2-9.8-2.1-19.6-3.5-29-3.3-23.7-7.2-47-12.4-71-3.8-17.3-7.4-34.5-13.8-51-2.5-6.4-3-13.5-4.3-20.4-.2-1 0-2.1 1.1-2.5 1.1-.3 1.4.7 1.8 1.3 2 3.5 3.9 7.1 6.6 10.3-1.8-4.6-3.3-9.5-5.6-13.9-4.1-7.5-5-16-7.7-24-2.4-6.9-6.4-13-8.4-20-.9-3.2-3.7-2.3-5.9-1.8-5.8 1.2-11 4.9-17.5 3.6.1-2.6 2.3-3.3 4.1-4.2 4.6-2.3 8.9-4.9 13-8.1 2.5-1.9 3.1-3.6 1.5-6.2-2-3.3-1.8-6.9-2.4-10.5-.9-6.4-2.2-13-4.4-19-4.1-11.6-4.8-23.9-8.4-35.6-1.6-5.1-.3-11-4.1-15.6-.9-1.1-.7-2.4-.1-3.8 2.4-5 .5-9.4-1.9-13.7-.7-1.3-2.1-2.2-2.1-3.9 0-10.5-6.3-20.3-5.2-30.4.9-8.5.1-17 2.5-25.6 1.6-5.7.3-12.2 3.7-17.7.1-.2-.3-1-.6-1.2-.9-.4-1.5.2-2 1-1.9 3.5-4.2 6.9-5.6 10.5-3.7 9.2-5.6 18.8-6.6 28.8-.9 8.8-1.6 17.4-1.5 26 .1 4.4 2.2 8.7 1 13.2-.2.9 0 2.1-1.8 2.5-4.2-9.7-10-18.7-13.8-28.6-2.4-6.2-3.3-13.3-5.1-19.9-2.4-8.7-3.9-17.5-5-26.4-.1-1-.1-1.6-1.9-1.9-2-.3-1.9-3.3-2-5.4-.2-3.1.8-6.3-2-9.7-2.1 5.2-5.2 9.6-1.9 15 2.8 4.6 1.2 8.7-1.6 12.4-8.7 11.7-19 21-32 28-17.4 9.7-36.4 15.7-54 23.8-6.4 2.9-13.7 4.7-20.5 7.3-16 6.2-31.4 13.8-47 20.5-9.4 4-19 7.1-28 11.8-5.7 3-12.3 3.8-17.5 8.2-1.3 1.1-4.5 0-7.1 1.1-14.2 6-27.7 13.7-42.5 18.6-1.8.6-3.6 1.6-6.2-.1 2.6-1.5 4.7-3 7-4 18.4-8.3 36.8-16.7 55-24.9 11.8-5.2 23.8-10 35.6-15 23.4-10 46.8-20 69.8-31 17.3-8.3 35-15.2 53-22 9.2-3.6 17.6-9.1 22.8-18 .5-.8 1.4-1.3 2.2-2 2.8-2.6 3.6-4.7 2.4-9.2-3-11-6.7-22.4-4.9-34 1.1-7 5.1-12.9 9.7-18.2 1.1-1.3 2.9-1.5 4.1-.5 2.3 2.2 5.4 2.4 8 3.8 1.6.8 3.2 1.8 4.4.1 1.1-1.6 2.2-3.5.8-5.5-1.2-1.8-2.2-3.9-3.8-5.2-2.5-2-2.3-4-.6-5.9 5.2-5.8 11.6-9.7 19-11.8 5.9-1.7 5.7 3.9 8.4 6.9-.1-3.7 6.8-4.8 2.9-10-.9-1.2 1.3-2.1 2.5-1.6 1.8.6 3.3.6 4.5-.9 7.6-10.2 19-15.4 28.6-23.3 10.2-8.5 19.9-17.5 24.9-30 2.7-6.9 5.3-13.9 6.1-21.4-2.7 5.7-6 10.9-9.6 16-7.2 10.4-16.4 18.3-27.4 24.8-11.5 6.9-23.8 12-35.7 18.3-2.7 1.4-6 1.4-8.2 4.1-.8 1-2.2.8-3-.3-.9-1.2-.4-2.6.7-3 6.3-2.7 10.3-8.6 16.4-11.7 3.8-1.9 7.1-4.8 10.2-7.8 5.9-5.7 13.9-8.8 19.6-16.5-12.2 8.2-24 14.6-36 21.5-1.5.9-3.8 3.1-5.1 1.2-1.3-1.9 1.3-3.5 2.8-4.6 4.5-3.2 9.2-6.2 14.3-9.6-1.5.2-3.2 1-2.9-1.6.3-2.6 1.6-4.5 3.3-6 6.6-6 12.5-12.7 17.9-19.8 4-5.3 8.9-10.2 11.2-17.7-3.3 1.6-4.6 3.9-6 5.8-5.6 7.5-12.8 13.3-19.7 19.5-4.6 4-7.7 9.3-11.9 13.7-3.3 3.5-6.3 7.2-9.5 10.7-.8.9-1.8 2.4-3.3 1.2-1.1-.9-.4-2.1.2-3.2 2.8-5.6 5.6-11.3 8.4-16.9 5.8-11.6 13.2-22.3 19.5-33.7 4.9-8.7 11.4-16.6 16-25.6.7-1.4 1.9-2.7 1.3-4.7-2.6 6.2-10.5 8.5-11 16.2 0 .4-.4 1-.8 1.2-10.7 7.3-15.6 19-21.3 29.7-5.1 9.5-10.5 19-13.3 29.8-1.9 7.2-9 13.3-16.2 13.7-2.6.2-2.8-1.6-2.3-3.3 1-3.3 2.3-6.6 3.6-9.8 4.6-11.9 7.3-24 10-36.6 2.9-13 10-22.7 20.8-30.8 10.2-7.5 20-15.7 28.5-25.4 3.3-3.8 7.9-6.6 10.2-11.5-3.8 2.5-6.7 6-10.3 8.7-11.2 8.4-21.7 17.7-33.6 25.4-7.9 5.1-14.9 11.6-22.4 17.4-1 .7-1.9 2.6-3.2 1.3-1.4-1.2.4-2.4 1-3.4 4.4-6.3 11.2-9.8 17-14.2 9.2-7 18.5-13.8 27-21.5 8.7-7.8 16.8-16.4 23.6-25.9 11.3-16 20-33.4 28-51 3.3-7.4 3-7.6 11.2-7.6 3.5 0 7 0 10.5 0 1.1 0 2.5-.4 3 1.1.3 1-.2 2-.9 2.7-6.7 6.3-11.4 14.2-16.5 21.7-3.4 5.1-6.2 10.6-9.7 16.7 4.7-2.3 6.9-5.8 9.4-8.9 10.6-12.7 23.3-23 36.9-32.4 1.4-.9 2.8-1 4.3-.9 2.1.2 2.8 1.6 1.1 2.9-2.8 2.1-4.5 5.2-7.4 7.2-9.1 6.4-15.2 15.7-20.8 25-8.6 14.2-13.4 30-17.5 46-.8 3-3.2 4.6-5 6.7-7.9 9.5-15.8 19-25.6 26.7-.4.3-.5.8-1.5 2.5 8.4-5.7 15.7-10.7 21.5-17.3 4.7-5.2 10.7-9 15.2-14.4.6-.7 1.5-1.6 2.6-.8 1.1.8.3 1.9-.1 2.7-6.5 13.6-14.5 26-27.6 34.5-.6.4-1 .8-1.6 1.2-.7.5-1.3 1-2.8 2 4.9.2 7.9-2 11.2-3 1.2-.4 2.6-1.7 3.6-.3.8 1.1-.2 2.6-1 3.6-3.3 4-6.5 8-10 11.7-6 6.3-12 12.6-19.4 17.6-1.2.8-2 2.1-2.8 3.5 10.4-5.3 19.6-12.3 28.4-19.9 9-7.7 16.4-16.7 23.8-25.9 7.4-9.2 13.8-19 19.5-29 5.7-10 11.4-20 17.8-30-.7 6.7-4.1 12.4-6.8 18.3-6.4 14-12 28-17.4 42.8-6.4 17.5-7.6 35.9-9.1 54-.5 6.1-1.6 12.2-1.9 18.3-.5 9.6-1 19-1 28.7.1 12.4-2.3 24.4-3.7 36.6-.6 5.3-1.1 10.6-1.4 15.9-.6 15.2-.4 30.5 1 45.7 1.2 12.9 4.2 25.5 6.8 38 4.7 22 9 44.5 14.2 67 4.5 19 8.7 38.5 16 56.9 6 15.3 13 30 22.5 43.7 5.6 8 10.3 16.8 17.4 23.5 9.9 9.3 19 19.4 30 27.6 7.8 5.8 16.3 10.6 25 14.9 11.3 5.6 22.5 11.5 33.7 17.2 10.8 5.5 22 9.3 33.9 12.6 12.9 3.5 26 5.5 39 5.3 25.7-.4 49-8.5 69.9-23.9 16.6-12.4 33.5-24.4 48-38.9 16.3-15.9 32.7-31.7 42.8-52 9.4-19.5 16.4-39.9 22.3-60.8 4.3-15.3 8-30.8 11.5-46 1.5-6.4 2.5-13 4.1-19.4.3-1.2.4-2.9 2-3.2 1.4-.2 1.8 1.2 2.5 2.1 5.8 8.5 14.4 7.5 22.9 6.6 1.2-.1 2.4-.8 3.3.1.9.9-.2 1.8-.8 2.5-10.6 9.7-15.7 23-23 34.8-5 7.9-6.8 17.7-12 24.9-4.6 6.2-2 13-5.3 18.9-3.6 6.3-3.6 13.6-4.5 20.7-1.7 12.9-.7 25.8-.5 38.7 0 3.8 2.4 8 3.5 12 1.1 3.9 2.4 7.5.8 11.5 4.6-2.7 3.8-6.3 2.5-10.4-1.8-5.8-1.1-11.9-.5-17.8.3-3.1-.5-6.8 1.1-9.3 3.6-5.4 1.8-11.2 2.7-16.8 1-6.4 2.2-12.7 1.9-19.3-.1-1.7-1-5 1.9-4.7 2.2.2 3.9 2.4 3.2 5.7-.7 3.2-.3 6.6-.5 9.9-.2 4.9.1 9.5-2.3 14.4-1.9 3.8-.7 9.1-.7 13.8-.1 3.8 0 7.7 0 11.5 0 1.1-.3 2.6 1.1 3 1.4.4 1.9-.9 2.3-2 .5-1.2.8-3 2.4-2.6 1.6.4 1.2 2.3 1.1 3.5-1.2 8.2 4.5 14 7.8 20.4 4.5 8.8 9.1 17.8 16 25 4.1 4.3 7.7 9 12.7 12.6-10.4-13-18.8-27.6-22.3-43.7-3.5-16-5.3-32.5-2.2-49 1 6.7 1.6 13.4 2.7 20 1.7 10.6 5 20.4 10.2 29.7 7 12.7 16 24 27.3 33 14 11 29.8 19.6 47 24.4 2.4.7 4.7 1.3 6.9 2.7 1.9 1.2 4.7 2.7 6.2.2 1.3-2.3-1.1-4.6-3.2-5.4-5.5-2.3-10.2-6.1-16-7.7-3-.8-5.5-2.5-6.8-5.4-.5-1.2-1.5-2.3-2.5-2.2-9.5.3-14.3-7.1-20.5-12.3-12.8-10.7-16-26.7-23-40.6-4.1-8.1-5.3-17-7.7-25.6-.5-1.8-.3-3.9-.4-5.8 1.6-.4 2.3.4 2.5 1.4 2.3 8.6 7.9 15 13.8 21.5 5.1 5.5 10.7 10.2 16.4 14.9.8.6 1.6 1.6 2.6.8 1.3-1.2 0-2.1-.7-2.9-5.7-6.3-11.4-12.4-15.9-19.7-3.8-6-6-12.5-8.5-19-.4-.9-1.2-2.4.6-2.9 1.2-.4 1.6.8 2 1.7 6.3 15.3 16.6 27.4 29.5 37.6 7.2 5.7 30.8 17 37.6 17.2-5.3-3.1-11-5.5-16.3-8.5-8.4-4.7-14.7-11.6-21.5-18.3-9.4-9.3-13.7-21.5-20-32.5-1.5-2.6-3.1-4.7-6.4-5.8-3.4-1.1-5.4-1.1-6.3 3.6-1.4-5.8-5.4-6.9-9.9-8.1-7-1.8-13.8-4.6-20.6-7.2-2.3-.9-5.1-1.8-4.3-5.1.8-3.5 3.8-1.9 6.1-2.3 5.3-1 9.8.9 14.3 3 6.6 3.1 13.8.9 20.6 2.7 4.3 1.1 8.9 1.1 13 2.3 3 .8 3.6-.1 3.5-2.7 0-4.2 0-8.3 0-12.5 0-5.4 1.1-10 6.4-12.9 2.7-1.5 2.8-8.3.1-10-1.6-1.1-3.2-1.7-1.6-3.6 1.7-2 3.8-.7 4.6.7 3 5.2 8 9.6 5.4 17-1.5 4.2 1.7 8.4 4.7 10.9 9 7.6 12.5 19 19.8 27.7 2.3 2.8 4.3 5.5 7.9 6.3 12 2.7 19.8 11.5 28 19.6 7.3 7.2 15.2 13.7 24 19 7.4 4.6 14 10.3 20 16.8 3.5 3.8 7.3 7.3 10.9 11 12.7 13 23.3 27.6 32.8 43 5.4 8.8 10.7 17.9 16.3 26.6 5.2 8.1 10.5 16.3 15.6 24.5 6.5 10.5 13.7 20.7 22.3 29.7 4.4 4.6 8.6 9.3 12.9 13.9 7.4 7.9 16 14.3 25.6 19.4 1 .5 2 1.2 2.9 1.9.2.1.1.6.3 1.6-5.9-1.4-10.7-4.4-15.7-7-17-8.6-30-22-43.6-35-11-10.5-19-23-28-35.4-9.7-13.3-16.6-28-24.9-42.5-10-17.2-20-34.7-34.6-48-6.5-6.2-14-12-24-13.9-13.7-2.6-26-8.6-38-15.8-13-7.7-23-18.6-34.6-28-1.1-1-2-2.5-3.6-2.4-5.6.3-10.7-1.3-16.3-4 1.1 6.6 5.8 9.8 9.2 13.4 15.7 16.9 34.4 29 57 35.9 1.2.4 3.1.8 3.5 1.8 2.6 6.1 8.3 6.1 13.5 7.2 4.4.9 8.7 2 12.5 4.6 1.3.9 2.5.6 4-.4-2.1-3.4-6.6-2.7-9-5.3 5.9-2.1 12-.4 15.4 4 1.1 1.5 1.6 2.8-.5 3.5-8.9 3.2-13.4 11.4-20 17-10 8.8-9.7 20.4-11.7 31.5-1 5.4-5.8 22.8-7.9 25.7-2-4.5-1.5-9.6-3.8-13.8-.5-.9-.7-2.1-1.8-2.1-1.1 0-1.4 1.2-1.6 2.2-1.3 7-3.2 13.9-3.7 21-.9 12.9-1.7 25.8 1 38.6 1.9 8.8 3.6 17.5 6.6 26 1.8 5.1 6.4 8.3 8.4 13.3 1.2 3.1 3.1 5.9 2.4 9.4-71 0-143 0-214 0 .3-6 1.4-11.8 3.3-17.5 2.3-6.9 3.6-13.8-.1-21-1.3-2.6-2.3-5.8-2.6-9-.8-6.9-1.9-13.8-1.9-20.8 0-1.1 0-2.6-1.6-2.7-1.6-.1-1.5 1.4-1.7 2.5-2.2 12.7-2.2 25.5-2.1 38 0 1.9 1.9 4-.6 6.5-1.2-2.2-2.4-4-3-6-3.2-11-6.3-22-6.1-33.8 0-1.3.5-2.9-.9-3.6-1.9-1-2 1.9-3.5 2-.9-1.5-.5-2.9 0-4.3 4-13.7 7.6-27.4 12-40.9 5.4-16.2 9.8-32.6 13.9-49 .3-1.3.9-2.8-.5-3.6-1.3-.7-2 .9-2.8 1.5-4.2 3-7.2 7.3-11.5 10.4-8.4 6-16.9 11.8-24.6 18.5-9.6 8.5-19 16.6-30.9 22.3-15 7.5-30.9 11.6-47 13.8-7.6 1-14.9-.7-22.3-.3-16.5.9-31.9-4.2-46.9-9.9-13.6-5.2-26.7-11.5-40-17.3-1.1-.5-2.4-1.9-3.5-.6-1 1.2.2 2.5.7 3.7 3.1 6.6 6.2 13.2 9.4 19.8 10.2 21 22.3 41 25.6 65 .5 3.9 1.2 9 .2 11.6-.2-.2-.6-.4-.7-.6-3.8-19.4-11-37.5-20-55-5.6-11-11.2-22-14.9-33.7-2.8-8.9-6.3-15.3-15.2-19.9-16.9-8.7-29.4-23.5-43.6-35.9-5.7-4.9-10.3-10.9-15.4-16.8-.8 2.5-.4 4 .1 5.6 4.1 12.2 9 24 13.9 36 9.2 22.6 19.8 44.6 30 67 4.2 8.8 8.9 17.4 12.8 26.4 4.1 9.4 9.3 18.3 13.7 27.5 3.8 8 9 15.5 11.3 24-1.3 0-2.7 0-4 0-2.8-4.5-5.6-9-8.5-13.4-7.3-11.2-14.6-22.5-22-33.6-5.4-8-9-17-13.9-26-.5 3.5.4 5.9 1.8 8.2 1.3 2.1 2.2 4.4 3.2 6.7 5.3 11.5 8.4 23.9 13.9 35.4 3.4 7.2 5.7 15 8.6 22.6-86 .1-172 .1-258 .1m53.7-145c-7.3 3.2-9 9.9-11.3 15.9-4.8 12-7.9 24.5-7.2 37.7.1 1 .1 2.1-.9 2.7-1.1.6-1.8-.4-2.6-1-2.4-1.8-3.6-4.4-4-7.2-.9-7.2-2-14.4-3.4-21.5-3.1-16.6 1.8-31 9.8-45 5.9-10 13-19.5 23-26.3.6-.4.9-1 0-2-4.7 3.3-10.8 4.4-14.8 8.9-3.2 3.5-5.4 7.7-9.6 10.5-2.5 1.7-5 4.3-6.5 7.4-5 10-10.9 19.4-11.9 31-.7 7.9-2.9 15.5.8 23 1.6 3.4 3.1 7 3.7 10.7 1.9 10.6 7 19.5 14.4 27 2.3 2.4 2.6 6.1 5.9 7.8 4.3 2.2 7.1 5.9 9.2 10.2 2 4.3 5.2 7.6 8.4 10.7.4-3.7-1.1-6.9-2.6-10.3-1.7-3.7-4.2-7.7-4.2-11.6.1-12.9-1.8-25.8 1.8-38.7 1.7-6 3.3-12 5-18 1.7-5.9 4-11.6 8.5-16 1.8-1.8 2.8-3.7 2.4-6.6-7 2.4-11.3 7.3-14.3 13.4-.8 1.6-1.7 4-3.7 3-1.6-.8.1-3 .5-4.5 1.1-3.9 2.4-7.7 3.6-11.6m73-252c-.5 4.9-1.1 9.6-1.3 14.4-.1 2.2-1.6 3.9-2.6 3-3.7-3.6-9.9-3.8-12.2-8.5-1.4-2.8-3.8-2.7-5.6-4-.8-.6-1.6-.5-2.2.3-.5.8-.6 1.7.1 2.3 2.9 2.6 2.5 6 2.3 9.3-.4 4.7 2.1 7.6 5.9 9.5 2 1 4.3 1.6 6.6 2.1 2.5.5 4.9 1.6 4.6 4.2-.3 2.3-2.7 3.4-5.4 3.5-3.7.2-6.9-.9-9.7-3.2-1.8-1.5-3.8-2.7-6-3.5-1.4-.5-3-.7-4.2.6-1.2 1.4-.5 2.7.2 4.1 2.2 4.7 5.7 8.5 8.7 12.6 4.4 6 9.4 11.4 17 13 11.6 2.4 16-1 15.4-13-.3-6.8-3.5-13.5-3.8-20.4-.4-8.8-9.5-15.3-6.1-24.8.3-.6-.3-1.3-1.7-1.5m18 337c.3-5.7-.6-13.3-1.7-20.8-1.8-11.8-2.9-23.6-5.1-35-2.3-12.3-3.1-24.9-6.2-37-2.3-9.2-3.9-18.6-6.3-27.8-3.1-11.8-7.1-23.4-9.9-35-1.7-7.4-5.7-14-6-21.9-.1-1.7-1.3-4.3-3.7-3.7-2.1.5-1.3 2.7-.6 4.2 3.5 7.5 5.4 15.5 8.4 23 4.9 12.2 7.1 25 9.4 37.7 2.1 11.9 5.8 23.4 7.2 35.4.8 6.9 3 13.6 4 20.3 1 6.4 2.2 12.7 3.3 19 2.3 14.7 4.9 29 7.2 42m-102-403c4.5 3.5 2.2 6.8.3 10-.6 1-1.2 1.9-1.8 2.9-3.1 5.2-2.9 10.7-2.1 16.8 4-3.2 4-8.5 7.6-11 3.1-2.1 4.9-5.1 4.9-8.2 0-5.6 2.2-10.2 4.4-15 1.9-4.2 5.4-7.4 6.8-11.9-1.9 1.8-3.9 3.5-5.6 5.4-1 1.1-1.5 2.6-2.2 3.9-3.9 7.1-5.9 8.3-12.3 7m470 398c-.3-1.2-.5-2.1-.7-2.8-.5-1.6-1.3-3.6-2.6-3.8-1.8-.3-1.6 2.1-2.2 3.4-2.9 5.4-2.2 11-1.4 16.9.1.9.3 1.8 1.3 1.8.5 0 1.2-.6 1.4-1.1 1.5-5 2.9-9.9 4.2-14.4m64.9-94c.7 1.6 1.4 3.5 2.5 5.1 2 3 4.9 5.3 6.3 8.7.6 1.4.9 2.8 3.1 1.9 2.3-.9 2-2.8 1.2-4-2.6-4.4-5.6-8.6-8.5-12.8-.8-1.2-2.4-1-3.7-1.1-1.3-.1-.5 1.2-.9 2.2m-476-252c0-3.2 0-5.7 0-8.2 0-2-1.3-3.4-3-3.4-2.2-.1-2.6 2.1-2.2 3.7 1.3 5.4.8 10.9.9 16.3 0 1 .1 2.2 1.2 2.4 1.2.2 1.7-1 2.1-1.8 1.9-3.1.6-6.5 1-9m453 393c.1-2.6.1-5.1-.9-7.4-.3-.8-.6-1.7-1.6-1.7-1.3 0-1.7 1-1.6 2 .1 3.7-1.3 7.1-2 10.7-.4 1.8-.2 3.7 1.4 5 .7.7 1.4 1.6 2.5 1.4 1.3-.2 1.1-1.4 1.3-2.4.5-2.4 1.2-5 .9-7.6m459-248c-2.5 2.2-3.3-.7-4.6-1.7-6.2-4.7-13.9-6.5-20.7-10.2-10.7-5.7-21-11.7-32.4-16.5-17.5-7.5-34.8-15.3-53.8-18.4-12.6-2.1-24.9-5.4-37-9-22.9-6.6-45-15.7-69-19.9-5.3-1-10.4-.5-16.4-.5 2.8 3.8 6.1.7 8.7 2.4 4 2.7 8.9 3.2 13.3 5.4 4.5 2.3 9.6 4.1 14.5 6 5.6 2.2 10.7 5.5 17.7 4.1 4.2-.8 9.4-.6 14 .5 2.2.5 3.8 1.7 2 3.7-4.3 4.8-.5 4 2.6 4.4 4.7.5 9.6-.9 14.2 1.3 3.7 1.7 6.4 7.1 11.6 2.9 0 0 .6.7 1 1 3.4 2.4 7.5 3 11.2 4.6 2.3 1 4.9 1.6 5.8-2.1.3-1.1 2.3-2.2 2.3-.9.1 3.4 2.6 2.1 3.9 2.3 4.3.7 7.9 3.8 11 5.9 2.4 1.6 3.8 2.6 6 1.5 2.8-1.4 5.6-1.1 7.5 1.6.4.5.4 1.2 1.3 1 7.2-1.7 10.3 3.8 14 8 2.3 2.6 4.6 4.8 8.3 1.9.9-.7 3.2-.9 3.8-.3 3.3 3.4 7.4 1.9 11.2 2.3 1.5.2 2.8.4 3.5 2.4-3.6-.9-7.1-1.4-10.5-1-.9.1-1.7.4-1.8 1.4-.1.9 1.1.7 1.3 1.1 1.3 2.2 3.9.6 5.2 1.9 3.2 3.1 6.6 5 10.9 2.9 2.8-1.4 6.6-1.6 8.4-.6 4.1 2.1 8 4.2 12.5 5.2 1.6.4 3.3 1.6 3.5 3.8.3 2.9 1.3 4.2 4 1.8.8-.7 1.7-1.3 2.7-.5 1.1 1-.1 1.8-.5 2.6-.3.8-.8 1.5-.9 2.3-.4 2.7 2.6 3.2 3.5 5 .1.2 1.6.2 1.8-.1.8-1.3-1.3-1.9-1.2-3.3 2.6 1.1 2.5 4.4 4.9 5.6.3-3.8.3-7.8.3-11.8m-793-215c-.9 9.6 10.5 21.5 20 21.8 2 .1 5.3.8 5.4-1.9 0-1.8-2.2-4.4-5.2-4.6-.7 0-1.3-.1-2-.1-7.1-.2-11-3.6-12.5-10.8-.2-1.1-1-2.4.5-3 1.2-.5 1.6.9 2.2 1.6 1.9 2 3 4.5 5.5 6.2 4.4 3.1 9 1.4 13.4 1.6 2.8.1 4.7 0 3.5-4.2-.7-2.4-2-6.7 1.2-8.4 2.5-1.4 6.3 2.1 8.8-1.3.5.6 1.2 1.1 1.6 1.8 1.1 1.8 1 3.7.6 5.7-.8 4.2-3.1 7.7-5.6 12.5 11.2-5.6 7.9-15.2 8.9-23.6 5 3.2 9.7 6 14.2 9.1 2.8 2 4.5 4.8 6 8.2 1.6 3.8-.5 6.9-.6 10.7 3.7-2.1 4.1-5.4 4.8-8.6 2.5 1.5 3.3 3.9 4.7 5.7 2.6 3.2.8 4.6-2.4 5.5-2 .5-4.2-.3-6.6 1.2 1.4.6 2.2 1.3 3.1 1.4 3.6.6 7.1.4 9.4-2.8 2.4-3.4-.4-5.7-2.1-8.3-2.1-3.2-5.3-4.9-7.9-7.5-10-10-17.6-22.5-30.8-29.4 9.4-2.9 16 2.2 21.8 7.5 5.3 4.8 11.5 8.4 16.3 13.8 1 1.1 2.6 1.5 4 2.3-6.4-8.5-10.8-18-18.9-25-7-6-15.3-9.2-24-8.7-7.7.4-15.5 1-23 2.6-6.4 1.4-12.8 1.3-19-1.3-1.1-.5-2.2-1.6-3.9-.6.6 1.2 1.3 2.3 1.9 3.5.6 1.1 2.7 1 2.4 2.8-6.6 2.3-9.6 2.1-14.2-.3-1.8-.9-3.9-4-5.4-2-1.6 2.1 2 3.6 3.1 5.4.3.5 1 .9 1.6 1.2 3 1.4 1.8 2.8-.2 3.7-3.5 1.5-7.1 1.1-10.7.2-2.5-.6-5.5-4.6-7.1-1.9-1.4 2.3 3.3 3.7 5.3 5.6 1.5 1.5 5.7 1.7 3.9 5-1.6 3.1-4.8.6-7.2.4-1.1-.1-2.3-1.3-3.2-2.2-.9-.9-1.7-1.6-2.9-.3 2.3 4.5 3.8 9.8 10.3 10 .6 0 1.3 1.5 1.5 2.4 1.1 5 3.8 4 7 2.1 1.1-.6 1.9-2 3.8-1.5.1 3.8 1.9 6.7 5.4 8.6 1.1.6 2.2 1.2 3.1.1.8-1-.2-1.9-.8-2.6-2.3-2.8-1.9-5.7-.6-8.9 3.1-7.6 9.6-10.9 16.8-13.4-3.1 3.9-4.6 8.4-5 12.9m288-3.2c4.4 5.1 6 11.4-.6 18 5.5-1.5 6.8-2.8 7-6.9.1-3.7.2-5.2 5-3.8 6.8 1.9 13.8.8 19.9-3.3.8-.6 1.9-1.2 1.6-2.3-.4-1.6-1.7-1-2.9-.9-4 .4-8.1 1-12.2-.2 4.9-.8 9.3-2 11.2-7.6-6.3.2-12.3 1.1-19-.3 3.3-1.3 5.7-2.2 8.1-3.4 1-.5 2.1-1.4 1.9-2.7-.4-1.7-1.9-.9-2.9-.8-1.8 0-3.6.4-5.4.5-1.7 0-3.6-.4-4.3-2-.6-1.5 1.5-1.9 2.1-3 .5-.8 1.6-1.3.4-2.9-4 1.5-8 2.7-12.6.7-12.6-5.6-25.8-8.1-39.6-7.7-13.3.4-29.5 11.4-34.4 24.6 8.9-8.6 17.9-17 30.8-17.3-17 4.8-25.9 17.3-29 26.8 7.1-6.3 13-12 21.7-15.2-6.9 10-7.9 18.8-3.3 25.4 5 7.2 13.7 10.6 22.8 8.2-4.5-.8-7.1-3-10.6-3.8-6.1-1.3-9-6-10.7-11.4-1.1-3.2 1.3-5.2 4.7-4.9 3.9.4 4.8 3.8 6.7 6 3.6 4.5 7.5 6.4 12.2 5.1 5.1-1.4 6.9-4.1 7.2-10.5.1-1.9-.8-4.5 1.9-5.1 2.6-.5 4 1.7 5.2 3.8 2.6 4.3-1.1 7.4-1.9 11.2 6.9-1 7.7-10.3 1.8-23.5 7.6.4 13.2 4.3 17.5 9.2m22.9-53.7c-4.2-.6-9.2-.5-12.2-3.5-6.6-6.7-14.3-6.1-22.3-4.7-11.6 2-23 4-34.7 6.4-10.6 2.2-21.5 3.9-31 9-2.9 1.5-5.2 3.6-6.5 6.6-.8 1.9-2 4-.7 5.7 1.5 1.9 4 2.3 6.4 1.9 21.8-3.8 43.6-7.9 65-12.8 5.2-1.2 10.6-3.6 16-2.5 11.7 2.4 23.5 1.9 36.5 3.5-5-6-10.3-8.6-16.6-9.6m-349 10.7c5.7.5 11.3-.6 16.6-2.5 7.4-2.6 14.8-2.7 22.4-.3 4.4 1.4 9 2.3 13.6 2.9 12.8 1.7 25.5 4 38 5.5 7.1.8 14.3.3 21.5.3 1.6 0 3.7-.8 2.1-2.6-3.5-3.9-6.9-8.5-11.4-10.6-9.1-4.4-19-6.1-29.4-6.4-7.1-.2-14.2-.9-21.3-1.8-8.4-1-17-2.7-25-.2-9.8 3-19 7.4-29 10-4.2 1.2-8 3.5-10 7.8 4.2-.8 7.8-2.5 11.9-2.2m247 296c-11 3.1-22.4 4.7-33.9 4.4-4-.1-7.9.5-11.8 1.3-6.7 1.5-13.6 3-20 1.3-12.4-3.2-24.9-2-37-3.1-7.5-.7-15.8.2-22-3.8-5.6-3.6-10.6-2.3-15.9-1.3-2.6.5-5 1.8-7.5 2.5-2.7.8-5 2.5-4.4 5.1.6 2.6 3.6 1.5 5.7 1.5 7.7-.2 14.4 1.7 19.6 7.9 2.4 2.8 5.8 4.5 10 4.2-3.1-6.9-.6-11 6.5-10.9 10.3.2 20.5.6 30.8 1 1.6.1 3.5.2 4.8 1 4.1 2.4 8.7 2.3 13.2 2.9 6.5.9 12.4-1.5 18.4-3.6 8.1-2.7 16.5-1.1 24.7-2 11.4-1.2 21.9-6.8 33.6-5.5 1.6.2 3.2-.6 4.9-3.4-7-.1-13.2-1.1-19 .5m-308-488c-22.7 27.8-45 56-68 83 .5.4 1 .8 1.6 1.3 30-21.7 51.9-50 68-83-.6-.5-1.2-1-1.8-1.4m-90 132c-4.3 5.5-8.8 10.9-12.4 16.8-7.7 12.8-6.7 27.8-10 41.7-.3 1.2.6 2.2 1.9 2.6 3.2.9 7.1-1.6 7.5-5 1.6-12.5 6-24 9.5-36 2.2-7.5 4.6-15 8.2-22-2.9-.5-3.8 1.1-4.7 2.3m675 213c2.6-.3 4.9-.1 7.3.7 1 .4 2.2 1.8 3 .4.8-1.4-.8-3-1.7-3.1-5-.6-6.4-5.6-10-7.7-4.3-2.4-6.6-6.5-7.8-11-4.3-15.6-3.3-31.9-6.5-47.6-2.2-11-5.7-21.3-12.2-30.6-1.1-1.6-3.1-2.5-4.7-1.6-1.7 1-.3 2.7.3 4 .5 1.2 1.4 2.2 2 3.4 5.3 9.5 10 19 10.8 30 .3 4.1.7 8.3 1.7 12.3 1.8 7.9 1.8 16 4.1 23.9 1.5 5 1.4 10.5 5.5 14.5 1.7 1.7 2 3.7 1.2 6-.3 3.2 3.2 6.7 7.1 6.2m-370 49.6c-2.9-3.9-7.2-5.3-9.7-3-3.5 3.2-.8 6.2.6 9.4 3 6.8 10.5 6.2 15.4 9.9 1.8 1.4 4.1 2.6 7.9 2.9-5.2-7-9.7-13.2-14.2-19m236-364c-2-4-3.8-8.1-6.2-11.8-3.6-5.7-6.9-11.6-10-17.6-1.8-3.4-5.8-3-7.9-1.6-2.7 1.7.3 3.8 1.5 5.5 7 9.5 15.3 18 21.4 28 .5.8.8 1.9 2.2 1.6 1.3-1.7-.2-3-.9-4.4m-262 329c-7.9 4.6-12.2 21.8-9.1 34 1.9 7.5 9.8 15.6 16.4 15.9-16.6-14.8-15.8-31.9-7.3-50m-119-333c6.2-7.7 12.5-15.3 18.8-22.9 1.3-1.5 4.2-1.9 3.5-4.6-.3-1.3-7-.5-8.3.9-.8.9-1.3 1.9-2 2.8-3.1 3.8-5.4 8.3-8.2 12.3-2.8 4.2-6.4 8.4-7.4 14.6 2.1-.9 2.7-2 3.6-3.1m124 189c12.2 11.8 9 28.6 14.3 43 5-8.8-2.8-40-14.3-43m-237 275c-.6-1.7-2.5-1.3-3.9-.5-3.6 2.3-2.4 5.1-.5 7.6 1.8 2.2 2.9 4.7 4.4 7.1 2.4 4 3.2 9.1 7.8 12-.6-9.3-4.8-17.7-7.8-26.3m516-165c-1.2 2.5-2.3 5.1-3.4 7.7-.9 2.1.2 3.5 1.6 4.8 1.2 1.2 2.4 1.7 4 .7 4.2-2.8 7.6-6.1 8.4-12.2-2.4 1.7-3.6 3.4-4.8 5.1-1.4 1.8-2.8 5.5-5.3 3.9-2.3-1.5 0-4.5 1.1-6.7 1.4-2.8 2.9-5.6 4.1-8.5 2.4-5.3 4-10.8 2.1-16.7-.8 8-4.4 14.9-7.8 21.9m-200 72c-.9 3.3-4.6 4.3-5.1 7.5 2.2.7 3.8-.6 5.3-1.2 2.8-1.2 4.2-3.8 4.5-6.7.2-2-1.2-3.4-3-4.1-2.9-1.1-5.3.2-7.2 2.2-2.9 3.1-5.7 6.4-9.3 10.6 7.1-.6 8.6-8.1 14.8-8.3m109-397c-1 1.8 1.3 2.8 2.3 3.9 3.3 3.5 6.8 6.8 10.2 10 .8.8 1.6 2.1 2.9 1.2 1.1-.8-.1-1.7-.3-2.6-.8-3.5-3.3-6.1-4.5-9.3-1.2-3.3-3.1-4.5-6.4-4-1.5.1-3.5-.7-4.2.7m-478 205c4-2.3 8-4.6 12-7 1.1-.6 2.7-1.2 2.1-2.9-.7-1.9-2.4-1.3-3.8-.9-5.6 1.4-10 5.1-15 7.8-1.3.7-1.3 1.8-1 3 .4 1.2 1.4 1.2 2.8 1.3.8-.4 1.9-.7 2.9-1.3" />
</svg>
