<svg xmlns="http://www.w3.org/2000/svg" viewBox="0 0 1096.6 720.3" enable-background="new 0 0 1096.6 720.3">
    <path d="m240 720c-.9-5.6-2.9-10.6-7.3-14.3-1.6-1.3-2.3-3.2-3.2-5-5.5-10-8.9-21-14.8-30.9-1.3-2.1-3.2-3.3-4.6-5.1-6.4-8.1-11.6-16.9-15.8-26.3-1.1-2.5-1.8-5.7-5.8-4.8-.7.2-1.3-.1-1.7-.7-4.7-8.6-12.9-14.9-15.7-24.7-.6-2.1-1.8-4-1.3-6.2 1-4.9-1.4-6.6-5.9-7.5-9.3-1.8-18.3-5-26.3-10.2-3.3-2.1-6.1-5-8.9-7.8-1.2-1.2-2.7-3.1-1.2-4.8 1.4-1.7 3.1-.1 4.5.6 8.1 4.1 16.8 5.8 25.8 6.6 3.2.3 4-.9 4-3.9.1-6.7-.8-13.4.8-20.3.8-3.2-3.5-4.1-6.2-4.2-9.8-.2-19.7-.8-29.5.1-12.7 1.2-25.4 2-38 4.6-18.7 3.9-36.9 9.1-54.8 15.7-10 3.6-20.3 6-30.9 7.3-1.9.2-3.3-.2-3.4-2.5-.1-2 .2-3.6 2.7-3.8 20-2 38-9.4 57-15.2 11.2-3.4 22.9-5 34.5-6.9 16.7-2.7 33.4-3.1 50-2.9 5.2.1 10.2 1.4 15.4 1.1 6.6-.4 8.8-2.3 8.6-8.8-.3-9.7.4-19 4.9-28 .6-1.2.9-3 2.5-2.4 1.8.7.5 2.4.2 3.5-1.2 4.2-2.6 8.3-3.3 12.9 2.6-8.1 8.5-13.5 14.6-19.3 1.4 3.7 0 6.6-1.5 9.5-3.6 6.7-6.5 13.5-3.2 21.3 1.5 3.5-1.6 6.5-2 10-.4 4 .8 5.3 4.3 5.4 2.8 0 5.6.5 8.4-.8 1.4-.6 3.3-2 4.3.2.9 2 .9 4.7-1.4 5.7-3.5 1.6-5.1 4-4.6 8.1-1.5-1.6-1.4-3.4-1.2-5 .8-5-2.7-6.1-6.2-6.3-4.4-.2-3.9 3.4-4.2 6.4-1.1 10.6.1 21.4 3.7 30.8 2.7 7 4.1 15.7 11 20.9 1.8 1.3 2.5 4.3 1.3 6.9-1.2 2.6-.3 3.8 2 5.6 5.6 4.4 9.8 9.5 10.2 17.7.3 6.4 5.7 11.4 8.4 17.6.7-6 .5-12 2.5-17.8 1.2-3.4 3.5-4.5 5.9-1.7 2.5 2.8 4.7 6 6.8 9.2 1.3 2.1 2.3 4.5 0 6.8-.5.5-.8 1.5-.9 2.3-.8 9.9.4 32 8.2 42.7 0-16.2.4-31.8-.2-47-.2-5-2.8-10.2-5.2-14.8-5.1-10.2-6-21.5-8.9-32-2.1-7.6.5-16.2-4.9-23-.5-.6-.7-1.9.6-1.7 4.8.8 3.9-3.4 4.4-5.4 1.2-4.9 1.6-9.9 4.8-14.3 1.2-1.6 2-4.4 1.3-6.7-2.9-9.8 3.6-15 9.6-20.5 2.2-2 3.6-3 .4-5.4-2.5-1.9-.7-4 1-5.7.9-.9 2.8-.8 2.9-2.4.4-6.6 4.6-7.4 9.9-6.4 3.1.6 4.7-.5 5.3-3.6.9-4.2 5.6-5 7.6-8.6 2.5-4.6 6.6-8.4 8.2-13.4.5-1.5-.4-4.3-1-6.4-1.5-4.9 1.1-8.1 4.2-10.8 2.4-2.1 4.4-5 8-5.8 1.7-.4 3.1-2.1 2.7-3.8-1.2-6.2 2-10.7 5.5-14.9 1.9-2.3 2.3-4.1 1.4-6.7-4.2 3.4-6.1 8.3-9.3 12.3-4.9 6.1-11 10.8-16.3 16.5-2.4 2.8-4.2 6.2-7.2 8.5-1.2.9-2.3 3.1-4.2 1.5-1.6-1.3-3.3-3-1.8-5.6.8-1.4 1.6-2.8 1.2-5.3-6 8.8-15 14-20 23-1 1.9-2.7 3.6-5 4.7-2.7 1.2-5.1 1.5-6.3-1.1-1.1-2.3-1.3-4.9 1.4-7.1 5.2-4.1 5.7-6.8 2.6-10.7-1.6.6-1.5 2.3-2.3 3.4-.8 1-1.3 2.6-3 1.9-1.6-.6-1.2-2.2-1.2-3.5-.1-2.4 1.5-4 2.8-5.7 1.6-2.1 3.4-4 5.4-5.8 1.6-1.4 3.5-3.2 4.4.9.5 2.5 1.7 4.8 2.7 7.7 4.3-3.9 9.1-6.8 10.6-12.5.2-.6.5-1.6.8-1.7 8.4-1.4 11.4-9.5 17-14.3 2.4-2 2.9-6.7 4.8-10 .6-1.1 0-3.4-2.7-2.5-1.1.4-2.1-.6-2.2-1.5-.2-1.7 1.8-2.2 2.5-3.4.5-.8 1.3-.4 2.1.2 4.8 3.6 4.9 3.6 7.4-1.8 1.3-2.9 4.5-4.6 4.5-8.1 0-1.4 1.8-2.4-.3-4.3-1.3-1.1.4-3.4 2.5-3.8 6.4-1.3 6.5-6.7 6.6-11.2.1-3.7-2.8-6.4-6.7-7.8-3-1-4.3 1.1-5.3 2.8-.8 1.3-1.7 3.3 1.3 4.8 4.1 2 1.4 4.8-.5 6.6-1.1 1.1-1.7 4.8-4.2 2.4-1.7-1.6-.6-3.8 1.1-5.5-4.7 5.1-11.8 6.8-16.2 12.6-5 6.4-11.3 11.8-17.2 17.5-1 1-2.6 3.4-3.8.7-.8-1.9-3.6-5-.3-6.5 4.7-2.1 5.3-6.9 8.3-10 4.2-4.6 6.6-10.9 12.9-13.7 2.4-1 2.3-3.4 2.5-5.6.2-2.3.7-4.7 3.5-1.8.5.5.8 1.2 1.3.1 3.2-7.4 6.3-14.8 9.3-22.3.3-.8 0-2-1.1-2.6-.3.1-.8.1-.8.3-.6 1.4.5 4.4-2.2 3.9-1.9-.4-.8-2.7-.2-4.3.9-2.7.5-6.5-.7-7.7-4.4-4.4-3.8-10.3-5.7-15.4-3.2-8.5-2.2-17.9-3.5-26.8-.8-5.9-1.2-11.9-1-19-1.4 1.5-2.1 2-2 2.2 3 9.2-2 17.5-3 26-.1 1-.3 2 0 2.9 1.3 4.8.5 9.1-2.3 13.2-1.6 2.3-2.5 5-1.2 8 1.2 3-.4 5.8-1 8.6-.1.5-.7 1.3-1.1 1.4-6.2 1.7-10.9 4.8-13.2 11.3-.8 2.4-3.6 4.3-5.7 6-2 1.6-4.2 1-4.2-1.7-.1-5.2.1-10.6 4.3-14.6.8-.8 1.2-1.3 1.1-2.5-.9-11.2 3.5-21.3 6.3-31.8 3.2-12 8.9-23.4 12-35.6 1.4-5.5 4.4-10.4 6.4-15.6.6-1.6 2.3-3 1.2-5.1-3 1.5-2.8 4.8-4.4 7-10 14.8-15.6 31.8-23.3 47.7-.5 1-.9 2.2-1.1 3.3-.3 1.6-.2 3.8-2.5 3.5-1.8-.3-2.1-2.3-2.2-4 0-6.5-1.6-13.5.3-19.4 3-9.2 4.3-19 9.5-27.4 3-4.9 5.4-4.9 9.9 0 0-2.8.5-5.4-.1-7.6-1.5-5.5-.1-10 2.8-14.6 2.5-3.9 4.4-8.2 6.7-12.2.7-1.3.6-3.7 3-3.3 2.4.4 2.3 2.5 2.4 4.3 0 .5.1 1 .4 1.5 1.4-7.2 5-13.6 5.4-21.5.5-10.9.7-22 6.4-32 4.3-7.5 9.8-13 19-12.4 4.6.3 6.2-3.7 7.5-6.2 3.9-7.3 10.6-12 15.3-18.7 7.8-10.9 15.2-22 18.3-35.4 1.3-5.4 4.7-10 5.6-15.8 1.9-13 8.6-24 16.2-34.6.8-1.1 1.6-2.1 2.4-3.1.5-.6 1-1.1 1.8-1.9 1.5 2.2.5 3.9-.2 5.4-6 12.8-8.6 26.7-12.6 40-3.8 12.8-5.7 26-11.4 38.5-5.5 11.9-7.2 24.7-7.1 37.6 0 14-.6 27.9-1.1 41.9-.1 3.7-1.6 7.1-2.4 10.6-4.5 20.5-8 41-6.4 62 1.1 15.3 3.5 30.6 5.5 45.9 1.7 13.6 3.9 27 5.2 40.9 1.6 16.3 4.4 32.5 7.8 49 4.5 21.4 8.8 42.8 16.4 63 8.1 22 18.9 42.7 33 62 8.8 11.7 18.7 22.4 28.9 32.8 7.5 7.6 16.3 13.5 24.6 20 5.4 4.2 9.5 9.7 15 13.7 11.2 8.1 23 13.9 36.6 18 17 5.3 34 4.7 51 4.3 22-.6 43-6.6 61-19.9 7.9-5.7 15-12.5 22-19 8.3-7.6 16.6-15.2 24.5-23 12.3-12.4 25.4-23.9 36.7-37 6.9-8.2 14.3-16 20.4-24.9 7.7-11.3 13.7-23.4 18.2-36.4 8.5-24.7 16.3-49.7 22.3-75 3-12.7 5.4-13.2 16.6-7 10.8 5.9 22.3 4.9 33.7.4 5.8-2.3 10.5-5.9 15.5-10.2 0 8.1-3.6 11.9-9 15.8-4.8 3.4-9.3 4.8-14.9 4.8-3.6 0-2.2 3.4-2.4 5.5-.2 2.6 1.5 1.9 3 1.5 2.1-.5 4.4-.2 5.2 1.7.9 2 1.4 4.5-1.1 6.2-1.2.8-1.5 2-1.2 3.1 2.8 8.7-2.3 15.7-5 23-3.5 9.8-9 19-11.2 29-1.7 7.8-7.5 13-9 20.6-.4 1.8-1 3.5-.9 4.8 4.1-3.6 6.8-8.6 9.2-13.8.4-.8 1-1.3 1.9-1.3 1.3.1 1.6 1 1.7 2 .6 3.2 1.3 6.3.5 9.8-.8 3.7-1 7.7-.3 11.4 1.5 7.6-.5 15.2.9 22.7.3 1.4.4 2.9.9 4.3.5-3.7.4-7.5 2.7-11.2-4.9 44.9-.7 88 20.4 129-16.8-42-16-85-7.9-129 1.5 4.3 1.2 8.8.7 13-.5 4.7 4.3 7.6 3.1 12.3-1.1 4.5-1.4 9.2-1 13.9 1.1 13.4 2.9 26.7 3.5 40 .4 7.7 1.2 15.2 2.6 22.7 2.5 13.3 5.6 26.6 11.5 38.9 4.6 9.6 8.5 19.4 14.9 28 .8 1 1.5 2.3 1.1 3.7-44.7 0-89 0-134 0-2.7-7.1-3.5-14.8-2.8-22 .8-7.9-1.7-15.5-.5-23.3.3-1.7-1.5-2.4-2.4-3.6-.6-.8-1.1-1.8-2.3-1.4-1.1.4-1.4 1.3-1.5 2.3-1 6.6-2.1 13.2-2.1 20 0 9.3-.2 18.6-.3 27.9-.3 0-.7 0-1 0-.5-10.5-4.3-20.5-4.5-30.8-2.8-.2-1.9 3.5-4 2.2-1.4-.8-.4-2.5.1-3.6 2.9-6.2 3.3-12.7 3.1-19.5-.5-19.5.8-38.8 6.7-57 .7-2.4-.4-3.2-2.1-3.6-5.1-1.3-4.3-4.3-2.3-7.6.8-1.3 1.4-2.6 1.9-4 2.7-7 5.5-13.9 11.4-19 1.5-1.3 2.5-3.3 2.3-5.4-.7-8.5 2.3-15.8 7.4-22.5.8-1.1 1.5-2.6-.1-4.4-7.5 10.7-16.2 20-24.8 29-12.5 13.6-26 26-40 38-10.4 9.2-21.4 17.8-31.9 26.9-19 16.5-41 24.8-66 26-19.4 1.1-38.8 1-57.8-5.1-11-3.5-21-8.2-31-14.3-3.6-2.2-6.3-5.5-11-8.1 1.3 3.7 2.2 6.3 3 8.9 5.1 15 10.7 29.9 17.2 44 4.3 9.7 9.2 19 12.5 29-45.7 0-91 0-137 0-2.1-6.4-3.7-13-6.5-19.3-4.1-9.2-8.8-18.3-12.4-27.6-7.4-19-18.4-36-29-53-1.6-2.6-3.8-5.9-6.7-6-4.6-.2-5.1-3-5.4-6.1-1.1-10.7-4.4-21-4.4-31.9 0-7-1.7-14-1.9-21.3-.1-2.8-.4-5.9-2.1-8.6-1.5 1-2.8 2.2-3 3.9-.9 10.6-3.4 21-3 31.8.4 10.8-1.6 21.6 2.4 32.5 2 5.4 1 12 4.4 17.4.8 1.3 1.3 3.3 1 4.8-1 5.4 1.3 9.6 3.8 14 1.7 2.9 1.5 3 .1 6-2.9-4.5-7.2-7.9-8.7-13.6-2.2-8.5-8.9-15.5-9.4-24.8-.2-3.3-.7-6.6-.9-9.9-.8-9.4-2.5-18.9-2.1-28 .4-8.7 1.8-17.5 1.7-26.3 0-1.3.1-2.9.8-3.8 5.8-6.6 3.4-16 8.1-23 1.8-2.8 1.1-6.8 3.4-9.8.8-1.1.1-2.4-1.4-3.6-4.6 7.8-10 14.9-12.7 23.5-.9 3.1-1.8 6.1-3.7 8.5-2.1 2.6-3.1 5.8-3.3 8.7-.5 7.8-3.8 14.9-4.3 22.8-.6 9.7 1.5 19 1 28.8 0 .2.1.3.1.5 3.8 8.5 5.4 17.8 9.7 26.3 4.9 9.6 10.3 19 17.7 26.6 6.1 6.1 11.7 12 15.7 19.7 1.5 2.8 4.4 4.4 5.6 7.5 3.5 9.4 7.7 18.6 13.6 26.9 1.5 2.1 3.2 4.3 3.1 7.1-24 .2-49 .2-74 .2m34.4-409c-.5 9.2 0 18 1.9 26.6 1 4.3 2.3 8.6 3.9 12.8 5.2 14.5 14 27.3 20 41.5 3.3 8.1 12.7 11.3 20.9 8.3 2.5-.9 3.5-2.2 3.7-5.1.5-6.4-1.6-12.5-2.1-18.7-.9-11.9-2.3-23.7-4.3-35.5-1.7-10-3.7-20-3.8-30.5-.1-8.7 1-17.2 1.1-25.9.1-2.9-.5-5.2-3.5-6.4-2.1-.9-3.6-2.5-3.5-5 .2-6.3-.2-12.5.8-18.9 1.8-11 3.2-22.3 1.1-33.6-1.5-7.9-3-15.6-8.6-21.8-3.5-3.9-10.4-4.9-14.4-1.7-7 5.7-9.9 13.5-10.3 22.3 0 .7-.7 2.2.9 2.2 5.1-.1 5.9 4.2 7.3 7.5 3.2 7.9 4.1 16.7 8.1 24.4 1.3 2.6-.6 3.7-2.6 4.3-8.2 2.5-12.2 9.1-13.4 16.5-1.9 12.2-4.2 24.5-3.2 36.7m650 409c-4.1-10.3-9.4-20-13-30.6-3.5-10-6.1-19 .2-29.7 7.7-12.8 5.9-27 2.1-41-2.2-8.3-6.2-15.7-9.6-23.5-3.1-7.1-1.8-8.8 5.8-8.8 1.5 0 3 0 4.5 0 8.7-.3 17.5 1 26.4-1.7-2.6-3.8-7.2-4-9.8-7.1-.8-1-2.5-1.7-2.3-3.1.3-1.6 2.2-1.7 3.6-2.2 10.3-3.5 20.7-6.5 30.4-11.8 15.8-8.6 32-16.2 48-24.6 5-2.6 10.5-4.6 15-8.4-1.6-1-2.6-.5-3.8-.3-18.8 4.4-36 12.4-54 18.8-14.8 5.3-29 11-44 16.5-2.3.8-4.8 1.5-7.3 1-1.6-.3-2.7-1.2-3.2-2.8-.4-1.2.1-2.2 1-3.1 5.1-5 10.2-9.9 15-15 2.5-2.5 5.2-3.8 8.8-3.5 5.8.5 11.7.1 17.2-2 9.4-3.6 17.9-9.2 27-13.2 3.3-1.5 8-1.4 9.9-4.8 1.5-2.5 2.9-3.2 5.5-2.9 1.5.2 2.8-.1 4.1-1.2 7.1-5.6 15.5-4.9 23.7-4.7 2.2.1 3.2 1.4 4.1 3.1 5.4 10.4 9.6 21 16.4 31 7.1 10.5 13.5 22 18.5 33.9 2.2 5.3 5.8 9.6 8.5 15.2.8-2.6.7-4.3-.1-6.1-3.6-8.2-7.6-16.2-10.6-24.6-3.6-10.2-9.3-19.6-11.7-30-.4-1.7-.7-3.9-3.4-3.1-4 1.2-3.5-1.9-4.5-4.2 2.4 0 2 3.1 4.4 2.8.1-.5.6-1.2.4-1.7-2.7-6.9-3.9-14.4-8.2-20.6-2.3-3.3-5-7.5-5.4-10.5-.8-4.7-3.4-8.3-4.8-12.5-.9-2.8-.5-7.6-6-7-.1 0-.5-1.1-.5-1.7-.1-3.1-.9-5.7-2.9-8.2-1-1.2-1.7-3.5-.9-5.2 2.8-6.6-1.3-11.5-3.7-18-1.7 3.7-.7 6.4-1.2 8.5-7.5-8.4-4.4-20.3-10-29.7-2-3.3 0-8-3.9-11.9-2.6-2.7-3.1-8.6-4.2-12.8-1.6-6.4-4.2-12.5-5.8-18.9-2.6-10-6.1-20-9.8-29.7-2.9-7.6-4.3-15.7-7.6-23-4.9-10.8-6.8-22.8-13.8-32.7-4.6-6.5-1.1-16.8-9.8-21.5-.2-.1-.1-.7-.2-.9-3.9-7.3-5.5-15.8-11-22-6.1-6.8-10-15-16.3-21.8-5.5-6-12.6-10.2-17.4-16.8-1-1.4-2.3-1-2.5.4-.5 3.6-.8 7.2.9 10.7 1.5 3 4 1.6 6.1 1.7 3.2.1 5 3.1 3.8 4.4-2.8 2.9-2.4 6-2.4 9.2-1.4.3-1.9-.5-2.5-.9-1.1-.8-1.9-3-3.6-1.8-1.2.8-.6 2.8-.5 4.3.1.8.4 1.6.9 2.2 3 3.6-.2 6.9-1 10-.3 1.3-4.4-.5-6.5-1.7-1.1-.7-2.4-1.2-3.4-2-2.4-1.8-5.4-3.3-7.8-1.6-2.3 1.7-2.9 5.1-1.7 8.2 3 8.2 6 16.5 9.1 24.7 1.8 4.8 3.6 9.6 5.5 14.3.9 2.3 3.1 3.6 4.4 1.4 3.3-5.5 8.4-10.3 9.7-16.5 2.3-11.3 8.1-21.8 8.4-33.6 0-.9.5-1.7 1.3-2 1.3-.4 1.7.5 2.1 1.5 2.2 6 5.6 11.3 9 16.6 2.6 4 4.1 8.7 6.2 13 9.8 20.7 17 42 24 64 4.3 13.4 8.8 26.7 13.2 40 5.9 18 12.7 35.6 19.7 53 1.6 4 1 8.3 3.4 12.2 5.8 9.5 8.9 20.3 12.9 30.7.6 1.6 1.2 3.9-1.5 5.1-4.4 1.8-8.4 4.6-12.9 6.4-5.5 2.2-11 5-15.8 8.5-4.2 2.9-8.7 5.5-13 7.5-10.5 4.8-20.4 10.6-31.4 14.2-2.5.8-.1 1.8.6 3.3-7.3-4.8-14.7-2.6-22-2.2-5.6.3-7.2 3.7-7.4 8.5-.1 1.2.1 2.3 0 3.5-.3 3.3 1.3 5 4.4 4.2 5-1.4 5.3 6.1 10 4.9.3-.1-.5 1.3-.7 2-1.6 3.9-5.9 5-8.2 8-4.3 5.6-9.2 10.8-11.3 17.8-1.8-.7-1.3-2.2-1.7-3.2-1.3-3.2-7.8-5.7-12.2-4.4-3.4 1-2.2 4.1-2.2 6.4.2 14.7 2.2 29 5.5 43.6.3 1.4.9 2.8-.2 4.2-3.8-7.7-6.9-15.7-8.3-23.8-1.7-9.7-5-19-5.7-29-.2-2.8-1.9-4.7-4.8-5.8-6.3-2.4-11.5-6.7-16.6-11-1.5-1.3-2.9-3.8-5.4-2.6-2.4 1-1.4 3.5-1.4 5.4-.2 7.3 0 14.7-.5 22-.5 8.1-2.2 16-1.3 24.3.5 4.2-1.5 8.6.7 12.7 2 3.9 2.7 7.8 1.4 12-.5 1.4-.6 3.1.2 4.4 1.7 3.1 1.6 6.4 1.5 9.7-.7 15.5 3 30.6 6.6 45 2.8 11.9 5.9 24 11.2 35.4-2.7-5.5-8.2-8.3-11.4-13.2-3.1-4.7-5.9-9.5-9.6-13.7-3.5-4-2.1-11.6-9.5-12.7-.3 0-.6-1.2-.6-1.8.1-3.6-1.3-4.9-4.9-3.9-.8.2-2.3-.3-2.6-.9-2.8-5.3-9-9-7.6-16.4.3-1.6.9-4-1.8-5-3.8 15.5 7.8 56.7 21.5 78 26.6-.1 53.6-.1 81-.1m20 0c.1-1.7.3-3.3.3-5 .1-10.5.1-10.7 10.5-10.6 4.5.1 5.7-1.6 5.6-5.9-.3-8.3-.1-16.6-.1-25 4.8 2.8 5.9 2.2 6-3 0-2.5.1-5-.2-7.5-1.3-10.9-1.1-21.8-.1-32.8.4-4.3.2-8.6.1-13 0-1.3-.7-2.7-2.1-3.1-1.7-.6-2.4.9-2.9 2-1 2.1-3.1 3-.1 6.5 3.7 4.3 2.1 11 1.3 16.9-.8 5.5-1 11 0 16.4.6 3.1.3 5.8-1.1 8.6-4-1.4-3-4.6-2.6-7.1 1.2-7.9 1.2-15.9.1-23.8-.1-1.1-.3-1.8.7-2.6 1-.7 1.8-2 .6-2.8-1.2-.9-3-.9-3.9.7-.6 1.1-.5 2.9-2.5 2.1-3.7-1.6-3.7 1.6-4.9 3.5-1.2 2.1.4 5.3-2.8 6.5-2.7 1-2.8 4-1.9 5.2 1.9 2.6 3.2-.2 4.5-1.5.6-.6 1.2-1.2 2.2-.9.8.2 1 .9 1 1.6 0 1.1-.4 2-1.6 2.2-.8.1-1.7.2-2.5.2-3.9-.3-6.2 1-5.8 5.3.1 1-.2 2-1 2.7-1.7 1.5-2 2.4.4 4 3.2 2.2 2.7 5.6-.6 8.3-2.3 1.8-2 4.8-.3 5.4 6.1 2.4 2.8 7.3 3.5 11 .4 2.3-1.1 3.3-3.4 3.1-2.3-.2-2.5-1.4-2.1-3.5.6-3.1-.7-4.1-4-3.6-2.8.4-4.8 1.1-4.9 4.3-.1 4.8-2.4 9.7.9 14.3.6.8.6 2.5.2 3.3-3.1 5.7-1.3 11.7-1.3 17.6 4.8 0 9.8 0 14.8 0m-612 0c-1.1-10-6.4-18.6-10.7-27-4.1-8.1-6.5-16.8-10.6-24.9-5.3-10.5-8.2-22.3-13.6-32.8-2-3.9-2-9.7-7.5-11.5-1.4 2.1-.4 3.9.2 5.8 5.9 18.6 16.7 35 21.6 54 .1.3.3.6.4.9 3.8 11.9 10.4 22.9 11.3 35.7 2.9-.1 5.9-.1 8.9-.1m-133 0c-.8-1.8-3.8-1.2-4.1-3.9-.5-5.2-3.9-9.4-5.8-14.2-3-7.7-5.5-15.7-9.6-22.7-4.3-7.4-7.2-15.5-11.7-22.9-.6-.9-1.2-2.1-2.9-1.5.1 2.4.5 4.9 1.6 7 5.3 9.8 7.2 20.8 11.6 30.9 3.7 8.7 5.9 18 8.8 27 4.1.1 8.1.1 12 .1m-46.7-484c.5-2.5 1.3-4.7 3-6.7 7.3-8.6 16.2-15.4 25.4-21.9 1.5-1.1 3.4-1.2 5.2-1.3 5.6-.5 10.8 1.6 16 2.8 13.5 3.2 27 4.8 40.9 4.2 4.4-.2 8.6-1.6 11.3-5.3 4.3-5.9 6.7-12.9 11.4-18.6 1-1.2 2.5-2.9.9-4.4-1.8-1.7-3.4.1-4.6 1.3-3.3 3.6-7 6.6-11.2 8.9-10.9 6-22.9 7.6-35 6-4.5-.6-9-.6-13.4-.3-1.8.1-3.5 1.1-5.3.1-1-.5-2.6 0-3-1.4-.4-1.4 1.2-1.7 1.9-2.6 3.2-4 8.9-4.5 12-8.7 2.7-3.8 6.2-6.8 9.7-9.8 8.1-7.1 15.6-14.6 12.7-26.8-3.3 1.2-6.1 3.4-8.7 6-11.5 11-22.7 22.7-36.7 30.8-14.7 8.4-26.8 19.9-39 31-4.6 4.2-7.5 9.6-11.4 14.2-8.8 10.4-16.9 21-23.6 33-9.2 16-18 32.4-27 48.6-1.9 3.3-3.2 7-5.2 10.2-7.7 12.2-14 25-20.9 37.8-7 13-14.9 25.5-19.6 39.6-2.8 8.3-8.3 15-12.5 22.5-5.4 9.8-10.9 19.9-18.2 28-8.9 10-7.3 21-7 33.8 5.7-7 8.9-13.7 12.7-20 9.6-16.2 18.9-32.7 28-49 8.5-14.6 17-29 25.5-43.8 8.8-15.3 17.4-30.7 25.8-46 11.8-21.7 23.8-43 36.9-64 3.1-5 6.2-10 10.9-14.6 2.2 9.8 5.2 18.8 10.6 26.8-3.7-13.7-1.1-26.9 1.5-40m607-133c1.4-.5 2.1-2.9 4.1-1 1.7 1.6.1 2.5-.4 3.8-1.1 3-2.4 6.1 2.3 7.5 1.3.4 2.7 1.8 3.1 3.1 1.8 5.6 6.7 8.4 10.4 12.3 4.3 4.5 11.3 7.9 8.4 16.3-.3.9-.2 2.5 1.2 2.9 2.3.7 2-1.8 2.8-3.5.9 2 .9 3.7 3 3.9 1.5.1 3.4-.1 4.1 2.4-6 2.3-10.8 6.4-16.7 10.5 8.9 2.9 16.2-.6 23.8-1.5-10 5.7-21 8.4-31.7 12.6 5.2 1.1 10-.4 15-1-5.6 1.7-10.5 4.6-15 8.1-.9.6-2.6.6-2.1 2.2.3 1.2 1.6 1.8 2.8 1.6 4.7-.7 9.8 1.3 14.6-2.2-1.2 4.7-4.9 3.6-7.3 4.7-1.8.8-3.4 1.8-3.4 3.9 0 2.3 2 3.1 3.7 3.5 4.2.9 8.2-.2 11.8-2.2 7.2-3.9 14-8.5 21-12.4 2.6-1.4 3.8-5.4 8-4.1-.1 1.8.3 3.8-.4 5.3-2.2 4.8-2 9.9-2.5 14.8-.8 9.4-.8 18.9-1.2 28.4-.1 1.6-.8 3.2-1 4.9-.2 1.4-2.6 3.1-.2 4.2 1.8.8 3.3-.8 4.3-2.5 2.5-4.3 4.9-8.7 7.5-12.9 6.2-10.2 15.7-15.9 26.8-20 .1 3.3-1.9 4.5-3.3 6.1-3.5 3.8-3.1 6.6 1.6 8.9 5.3 2.6 10.8 5.1 16.2 7.4 4.4 1.9 5.9.6 5.1-4-1-6.2-3.1-12.3-2.3-18.7.5-4.3-1.5-6.9-5.2-8.7-2-1-4.1-1.9-4.4-5 1.9 0 3.8-.5 5.2.1 5.1 2.4 4.1-1.4 4.3-3.9.2-2.2-1.4-3.2-3-4.2-7.1-4.6-14.9-7.3-22.9-9.4-11.2-2.9-21.7-7.6-30.4-15-8.7-7.4-16.3-16-22.6-25.7-5.8-8.8-11.4-18.5-18.8-25.5-8.2-7.8-18.2-14.7-30-18.5 2.1 9.6 6.6 17.4 11 25.5 1.4-.3 1.3-2.3 2.5-2.8m117 201c-.5-4.7-2.2-7.6-6.6-9.4-5-2-6.3-1.4-6.4 3.9-.2 10.9.3 21.9-1.9 32.8-2.1 10.5-3.9 21-6.7 31.4-1.2 4.6-3.7 9.3-3 14 1.4 9.9.2 19.9 1.4 29.8 1.1 9.4.2 19 .3 28.7 0 2.3-.8 4.8 1 6.7 2.5 2.6 3.7 5.9 4.8 9.1 2.9 8.2 6.5 15.8 13 21.8 1.9 1.7 3.1 2.6 3.8-1 1.6-8.3 1.5-16.6.4-24.8-1.4-9.5.6-18.8 0-28-.4-6.5 1.5-13 1.5-19.8 0-5.5-.8-11.2.3-16.4 2.6-12 1.4-24 2.5-31.5.7-19-2.9-33-4.5-47m-665-58c-1.5 3.6-3.4 7.2-5.1 10.7-5.8 12.3-9.7 25-12.7 38.5-2 9-1.9 18-2 27-.1 10 .6 20-3.8 29.8-4.9 11-6.6 23-9.2 34.9-2.1 9.7-2.2 19.8-3.4 29.6-1.7 13.3 1.6 27-3.5 40-.5 1.3.3 2.7 1.7 3.2 1.3.5 2.2-.2 2.9-1.2 1.8-2.4 3.5-4.9 3.7-8 .6-9 3.6-17.5 5.7-26 3.7-15.4 8.4-30.6 12.8-45.8.4-1.5-.1-4 1.7-4.4 2.1-.4 2.5 2.2 3.6 3.5.7.8 1.3 2 3 1.4-.2-.9-.2-1.8-.6-2.4-5.6-9.1-3.1-17.4 1.8-26 2.3-4 6-8 5.8-12.8-.1-3 .3-5.7 1.6-8.1 2.9-4.9 1.4-9.3.1-13.7-1.7.1-.4 2.1-2.1 2-.9-2 .4-4.3-1.6-7.2-3.6 6.8-4.4 14-8.2 20.5 1.1-7.2 3.9-13.9 1.6-21-2.7.8-.7 4.2-4.9 4.9 6.4-24.5 12-48 14.8-73-1.9 1-2.9 2.2-3.7 4m574 131c4.4-1.2 8.6-3.3 12.8-5.1.7-.3 1.6-.9 1.9-1.5 1.6-3.5 5.1-5.2 7.8-7.4 10.3-8.7 17.6-18.8 16.7-33-.6-9.6-4.4-17-13.6-21.3-4.2-1.9-6.8-4.3-5.6-9.8 1.3-6 5.9-9.5 8.9-14 1.9-2.9 3.7-6.2 8.2-4.9.8.2 1.6-.2 1.7-1.3.4-3.9 2-2.5 4.1-1.2 1.9 1.1 2.4 5.6 5.5 3.3 2.9-2.2-.8-4.7-.9-7.2 0-.6-.3-1.3-.6-1.9-1.6-3.2-6.6-5.9-8.3-4.3-2.7 2.6-6.4 4.2-8.4 7.7-5.1 9.3-11.5 17.7-19.6 24.7-2.9 2.5-5.6 5.1-8.1 8-4.8 5.7-6.6 12.3-4.3 19.6 3.9 12.5 3.3 24.4-3.2 35.9-1.4 2.5-2.5 5-2.5 8-.2 6 1.6 7.6 7.5 5.9m-76-153c-5-1-10.4-.3-15.2-2.3-4-1.6-8.1-2.1-12.2-1.7-13.7 1.4-27 4.7-40 7.5-6.1 1.3-12.3 2.6-18.5 3.5-7.2 1-14.6 1.1-20.3 6.8-2 2-3.2 3.8-2.3 6.5.8 2.6 3.2 3.2 5.6 3.3 7.3.5 14.4 1.3 21.8.2 15.2-2.3 30-4.9 45-10 4.6-1.6 9.1-3.6 14.2-4.3 7.2-1 14.2 1 21.3.2 4.2-.4 8.2.7 12.3 1.4 4 .7 7.2 3.8 12.6 4-7.1-7.8-14.3-13-23.9-15m-322-12.5c-7.5 3.7-15.4 3.8-23.4 3.5-3.9-.2-7 1.8-10 3.9-1.2.9-2 1.9-1.5 3.3.4 1.3 1.8 1.3 3 1.4 3.6.1 7.3.5 10.9.7 6.9.4 13.9 1.7 20.5-2 2.8-1.5 5.7-.6 8.6.6 6 2.3 12 4.9 18.2 6.3 12.9 2.8 26.3 3.2 38.6 8.6 9.3 4.1 19.3 4.4 29 6.2.8.2 1.7.5 2.2-.3.5-.8-.1-1.7-.7-2.2-3-2.6-6.7-4.6-9.1-7.7-7.9-10.5-19.8-13-31-16.9-6.7-2.2-13.5-1.4-20-2.6-9.1-1.7-18.4-2.4-26.4-3.4-3.7.2-6.5-.4-8.6.6m209 325c-9.1-1.8-17.8 1.4-26.7 3.3-8.7 1.9-17.5 3.1-26.5 3.9-7.8.7-15.6.2-23.3 1.3-.6.1-1.6.4-1.9.1-3.9-4.5-8.2-2-12.4-.8-.2 0-.3.1-.5.1-11-.9-22-1.7-33-2.8-2.7-.3-5.2-1.5-7.1-4-2.7-3.4-7.4-2.1-11-3.7-2.9-1.2-4-3.8-6.2-5.4-.4-.3-.5-1.4-.3-1.8.6-1 1.7-.9 2.7-.7 3.6.7 7.1 1.4 10.8 1.9 7.6 1 14.6-1.9 21.4-3.8 12.9-3.6 25.3-3.7 38-.1 5.6 1.6 11.3 1.2 16.9.6 12-1.4 23.6-1 35 3.5 6.5 2.5 14 2.2 21 1.7 1.3-.1 2.6-.4 3.9.1 1.7.7 4.3.7 4 3.5-.3 2.7-2.4 3.3-5 3.1m-29-3.2c-6.9-2-13-3.9-19-5.6-.6-.2-1.3-.1-2 .1-9.3 2.5-18.7.4-28 .7-.9 0-1.9-.4-2.9-.7-4.7-1.8-9.5-1.5-14.2-.6-1.9.4-5.4.1-5.2 2.6.1 2.5 3 4.1 5.6 5 .8.3 1.6.2 2.5.2 4.5-.1 8.7 1.6 13 2.3 4.9.7 9.5 4.1 14.3 3.2 7.4-1.4 14.7-1.8 22-2.7 4.3-.6 9.3.1 13.9-4.5m-228-464c5.1-8.5 10.7-16.7 16-25 .6-.9 1.8-1.8.7-3-.8-.8-1.8-.3-2.8-.1-5.6.9-9.7 4.4-12.7 8.8-3.7 5.4-6.2 11.7-9.9 17-7.1 10-10.4 22-16.5 32.6-1.2 2.2-3 6-1.3 7.4 4 3.1 1.2 5.5.2 8.1-5.4 14-12.2 27.5-19 40.8-2.7 5.2-7 9.7-8.7 15.8 1.8-.1 3-.6 3.6-1.9 2.7-5.9 7.2-10.6 10.3-16.3 7.6-13.9 16.7-27 24-41 5.3-10 11.5-19.7 18-29 7.4-10.8 14.5-21.8 23-31.6 1.2-1.3 1.8-3.1 2.6-4.8.6-1.2 1.2-2.6-.3-3.6-1.7-1.2-2.2.6-3.1 1.4-8.8 8.3-15.7 18.2-23 27.6-2.8 3.5-4.2 8.1-8.4 12 1.2-6.4 4.5-10.6 7.2-15m52.6 245c-1.6 1.5-2 1.9-2.5 2.3-1.2 1-3.8 1.1-3.1 3.2.7 2.1 3.2 1.6 4.9 1.3 3.7-.7 7.4-1.7 10.7-3.6 1.1-.6 2.1-1.4 3.1-.2.8.9.1 1.8-.4 2.7-.5.8-1.6 1.4-1.1 2.8 5.9 1.8 10-4.6 15.9-4.4-.9 2.2-1.6 3.7-2.2 5.2 6-2.9 11.4-6.3 17.8-7.5 3.9-.7 7.6-2 10.8-4.6 4.7-3.8 10.4-4.5 16.4-4.4 4.1.1 8.3-.7 11.9-2.8-.5-1.4-1.4-1.4-2.2-1.7-13-5.3-26-2-39-.5-9.1 1-18.2 2.8-27 .5-10.8-2.7-21.4-3.5-32 0-.9.3-2.1-.1-2.4 1.2-.2 1 .8 1.3 1.3 1.9 2 2.3 4.5 3.7 8.2 4.3-2.4 1.3-4.2 2.2-6.6 3.4 5.7 3 11.2 2.2 17.9.9m271 18.5c-.7-.9-2.2-1.5-1.5-2.8.7-1.4 2.3-1 3.6-.9 2.7.1 5.3.8 7.5 2.2 2.6 1.6 6.1.8 6.7-.8 1.3-3.3 3.4-2.2 5.4-2.3 1.5-.1 3.1.2 4.5-.1 2.2-.5 6.9 1.3 4.3-4.2-.4-.9.8-1.4 1.6-1.5 2-.3 3.7-1.6 4.4-3 1.1-2.5 1.1-5.4 3.2-7.7.8-.8-.4-1.5-2-1.5-9.2.1-18 2-26.9 4.1-9.9 2.3-19.9 2.1-29.7 1-8.5-.9-16.7-4.3-24.8-7.4-7.2-2.8-14.6-1-21.8 1.2 2.1 1.3 4.3 2.5 6.5 2.7 8.2.7 15 4.8 21.9 8.5 3.3 1.8 6.7 3.9 10.3 4.8 6.1 1.5 11.4 4.1 16.3 8.1 3.4 2.7 7.2 4.8 12.6 2.4-1-1.3-1.6-2-2.1-2.8m-305-334c-1.6 0-2.1 1.3-3 2.3-7.2 8.4-13.4 17.6-19.8 26.7-9.1 13-20.4 24.3-27.8 38.6-4.3 8.5-8.3 17.3-14.9 24.5-2 2.2-.8 5.4-.8 8.2 0 .7.7 1.5 1.2 1.1 2.1-1.5 5.6-2.2 5.9-4.7.7-5.5 3.6-9.9 5.5-14.9 5.2-13.8 14.4-24.8 25-34.7 5.4-5.1 11.7-9 17.2-14 2-1.9 5.3-3.8 5.2-6.4-.2-5.8 3.9-6.8 7.6-8.1 5.3-1.9 9.9-5.2 15-7.4 1.2-.5 2.4-1.5 2.1-3-.3-1.5-1.8-1.1-2.9-1.3-2.7-.5-5.5-1-9.3-1.7 7.6-1.7 14.5-.7 20.4-5.2-9 0-17.9 0-26.8 0m483 229c-3.1.6-4.2 3.1-5 5.6-1 3.2 2.1 2.8 3.6 3.6 4.6 2.3 9.3 4.4 12.5 8.7 2.6 3.4 5.1 1.9 7.4-.6 4.5-5 9.2-9.8 11.9-16 .7-1.5 1.8-1.3 2.7-.2 1.1 1.2 2 2.7 3.1 3.9 2.3 2.5 4.6 1.6 6.4-.4 1.5-1.7-1.5-8.8-3.8-9.5-1.1-.4-2.3-.6-3.2-1.2-6-3.4-10.7-2.5-15 3.1-1.9 2.5-3.9 4.5-7.4 5-4 .5-7.3-2.1-11.2-1.9-.7-.1-1.4-.2-2 0m154-129c-10.2-9-20.6-17.7-31.4-26-7.5-5.8-15-11.4-22.5-17.2-7.2-5.6-15.9-9-22.3-15.5-.9-.9-2-2.6-3.2-1.5-1.6 1.5.5 2.6 1.4 3.5 7.3 7.6 15.6 14.4 24 20.6 11.9 8.7 23.4 17.9 34.9 27 3.9 3.2 7.7 6.2 10.2 10.5 3.7 6.2 9.1 7 16.4 5.5-2.8-2.6-5.1-4.8-7.5-7m-733 122c4-4.8 9.6-7.8 12.5-13.9 3-6.5 4.4-13.7 8.9-19.6 2.5-3.3 4.7-6.9 8.1-9.4 1.5-1.1 1.5-2.6.8-4-.5-1.1-1.5-1.1-2.5-.4-2.7 2.1-6.1 3.8-8.1 6.5-4.9 6.6-9.5 13.4-13.7 20.4-3.2 5.4-5.8 11-8.6 16.8-.9 1.8-.9 3.5 1.4 4.4.4-.3 1-.5 1.2-.8m-53 292c-3.7-.9-3.6.6-3.1 3.2.6 3 3.7 5.6.9 9.1-.7.8.5 2.1 1.9 2.3 3 .5 5.5-.5 6.6-3.2 2-4.9 5.8-8.5 9.1-12.4 2.4-2.8 1.8-6.2 3.7-8.9.5-.7-.1-2.9-2.3-3-2.4-.2-5.4 0-7.2-1.3-3.2-2.4-4.2-.7-5.7 1.5-1.6 2.5-2.2 4.5 1.4 5.8 1.5.6 1.2 2.2 1.3 3.8-.2 4.9-4.4 3.7-6.6 3.1m123-393c-8.3 10.5-16.3 21.3-22.6 33-1.5 2.9-4.1 5.4-3.9 9 .1 1.3-.5 3 .7 3.7 1.5.8 2.2-1 3.2-1.7 4.2-3.4 5.8-8.7 9.7-12.4 1.8-1.7 3.6-3.7 4.4-5.9 2.7-7.8 6.4-15.2 9.6-22.8.5-1.1 1.6-2.3.1-3.6-.3.1-.9.3-1.2.6m158 321c.7 3.5 2.6 6.1 5.8 7.6 4.6 2.3 9.2 4.4 13.8 6.6.9.4 1.8 1.3 2.6.1.5-.8-.2-1.5-.7-2.2-3.7-5.1-7.4-10.2-11.2-15-1.3-1.7-2.8-3.4-5.2-3.2-3.9 0-5.8 2.4-5.1 6.2m355-160c-2.6 17.2-4.9 34.5-2.2 52 6.2-17 4-34.5 2.2-52m-386-21.5c-8.5-14.5-46-21.5-60.8-9.8 21.8-5.9 41.9-2.1 60.8 9.8m639-41c-15.5-18-32-35-47.6-53 2.2 8.8 39.9 51 47.6 53m-153 244c-2.6.7-3.6 3.5-6.1 4.2-6.2 1.7-9.6 7.2-14 11.2-2.2 2-3.2 4.2-6.8 3.1-2.5-.7-5.3.9-4.4 3.7.8 2.7-.3 4.4-2 7.2 9.6-3.6 31.5-23.3 33-29.4m-463-21.6c-6.2-3.9-10.2-9-10.2-16.8 0-5.4 1.2-10.5 3.3-15.4.5-1.1 1-2.3-.2-3.1-.8-.6-1.4.4-1.9 1.1-6.3 9.1-7.2 24.5.3 33 2.9 3.4 6.5 5.6 11.6 4.3-.3-2.4-1.8-2.6-2.9-3.2m-262 2.6c3.3 0 5.4-2.1 5.7-5.4.2-1.6-6-6.9-7.4-6.7-4.4.5-10.2 9.8-8.9 14 .3 1.1.9 1.7 2.1 1.8.9 0 1.7-.1 2-1 .5-1.3-.5-1.9-1.3-2.9 2.6 1.9 5.2.1 7.8.2m288-175c-2.4-4.8-5.5-9.1-10.4-11.7-1.1-.6-2.2-1.1-3.1 0-.6.7 0 1.7.7 2.1 8.5 5.6 9.9 14.7 12 23.6.8 3.3-.5 7 2.4 10.8 3.2-9.1 2.1-17-1.6-24.8m-129-249c-5.5.1-10.2 1.7-14 6.1-2.9 3.3-6.6 6-9.9 9.1-1.2 1.1-2 2.4-.9 4 .9 1.4 1.9.6 2.9-.1 8.2-5.7 16-11.9 24-18.5-1-.4-1.6-.6-2.3-.6m-172 590c-1.2-4-4-7.1-5.1-11.3-2.3-8.7-4.3-17.3-3.9-26.4 0-1 .2-2.7-1.4-2.7-1.6 0-1.2 1.4-1.3 2.6-2 12.6 1.8 24 7.1 35 1.6 3.4 2.8 7.3 7.5 10.4-1.3-3.3-2.2-5.6-2.9-7.9m619-47c-4.3 17.2-5 34.6-2.8 52 1.9-17.4 1.4-34.8 2.8-52m-528-230c4.3 4.4 8.6 3.6 11.4-1.8 3.3-6.2 4.1-12.5.5-18.9-.8-1.4-.8-2.8-.9-4.3-.3-5.4 0-10.6 3-15.3 1.3-2.1 1.9-4.7-1.5-5.5-6-1.5-17.4 4.3-19.7 10-1.3 3.2-1.8 6.7-1.4 9.9-.2 10 1.7 18.9 8.6 25.9" />
</svg>
