<svg xmlns="http://www.w3.org/2000/svg" viewBox="0 0 1280.4 720.7" enable-background="new 0 0 1280.4 720.7">
    <path d="m261 721c2-10.5-3.5-18.4-8.9-26.6-2.1-3.2-4.9-6.2-5.7-10.3-.2-1.1-.8-2.3-1.6-3.1-7.8-7.8-11.6-17.8-14.4-27.9-2.9-10.6-2.6-21.7-.5-32.6 2.9-15 8.5-28.9 16.3-42 .4-.7.8-1.5 1.1-2.2.2-.4.1-1 .2-1.9-3.5.2-5.4 3-7.9 4.5-5.4 3-11.6 4.9-14.5 11.4-4.5 10.2-7 20.7-5.5 32 .2 1.3.9 2.5-.2 4.2-5.4-5.4-8.4-11.7-8.7-19-.1-2.8 0-5.7-.1-8.5 0-3.3-2-4.2-4.7-3.2-5.2 1.8-10 4.2-15.3 5.7-4.6 1.4-4.7 4.5-4.2 8.2.3 1.9 1.5 3.6 1.2 6-3.2-.9-3.7-3.8-4.7-6-1.8-3.6-3.9-4.6-8-3.2-18.2 6-37 8.9-56 7.9-5.9-.3-11-2.9-16.3-6.9 3.4-1.5 5.8.3 8.3.4 14.3.3 27.8-3.7 41-7.4 4.9-1.4 9.9-2.6 15-3.6 7.5-1.6 8.6-2.9 8.7-10.6.3-19.7 10-34.6 24-47 2.6-2.3 5.2-4.5 7.5-7.6-5.1-2.1-10.3-2.2-15.2-2.6-22.9-1.8-45.8-1.7-68.8-.4-31 1.7-59 13.7-88 22.9-4.2 1.4-8.1 2.3-12.5 2.2-6.3 0-12.7-.1-19 0-2.6 0-4-.9-4-3.8 0-2.8 1.2-4.1 3.9-3.8 18.5 1.9 35.9-2.3 52.9-9 12.8-5 26.5-7.1 39.6-11.4 5.6-1.8 11.7-2.1 17.7-2.5 11.6-.7 23-2.5 34.8-2.2 18.2.6 36.4 2 54 5.3 7.6 1.4 13.9.3 20-4 4.6-3.2 9.7-5.6 14.7-8.3 3-1.7 5.4-1.5 6.5 3.2-2.8-9.9 6.1-9 10.3-11.7 3.4-2.2 4.4-3.4 2.7-7.2-3.6-8.4-1.7-16.5 2.6-24.3 4.7-8.5 11.2-15.3 19.3-20.8 5.8-3.9 11-8.3 16-13 .8-.8 2.8-1.3 1.8-3-.7-1.2-2.1-1.5-3.5-1.5-5 0-10 0-15-.1-1.4 0-3.4.6-4-1.1-.7-1.7.9-3 1.8-4.4 4.1-6.5 11-7.4 17.5-9 11.3-2.8 21.8-7 31.9-12.6 7.9-4.3 14.5-10.2 21.7-15.5 9.9-7.3 11.3-17 8.2-27.9-1.4-4.9-2.2-10-3.6-14.9-1-3.6-2.2-3.6-4.7-1.3-9 8.4-18 16.7-27 25-4.9 4.5-9.7 9.1-14.6 13.6-.8.8-1.7 2.1-2.9 1.3-1.5-.9-.3-2.2 0-3.5 3.1-11.7 6.7-23 7.9-35 .2-2.1.6-3.6 2.5-5 3.5-2.5 7.1-4.8 9.9-8.1 3.4-4 7.8-3.9 12.7-1.7-4.8-1.9-4.5-4.2-.7-7.1-7.3 4.8-12.5 1.2-17.6-3.5-2.7-2.5-6.5-3.9-7.7-8.1-.9-3.2-.8-5.5 2.2-7.8 7.5-5.7 14.7-11.8 22.3-17.5 5.5-4.2 8.9-9.1 10-16.2 3.8-21 11.7-41 20-60.7 4.7-10.9 4.5-22 3.6-33.7-1.2-14.8-1.8-29.5 7-43 5.3-8.2 8.2-18 8.1-28.4-14 23.7-29 46.6-46.7 67.9-4.6-7.4 4.4-10.5 4.8-16.5-2.9 1.2-4 3.6-5.4 5.7-1.6 2.5-2.9 4-4.5-.2-1.6-4.1-4.4-1.7-5.8-.1-2.6 3.2-5.9 4.8-9.4 6.1-6.8 2.5-11.4 8.4-17.8 11.4-8 3.7-15.7 8.3-25 8.3-3.2 0-4.6-1-4-4.4.3-1.6 0-3.3-.5-4.9-.6-2.1.4-3.9 1.8-4.1 3.7-.3 5.6-4.1 9.2-4.3.6 0 1.5-.3 1.8-.8 1.7-3.2 4.7-3.8 7.8-4.9 10.7-3.8 19.9-10.4 29-17 .6-.5 1.5-.8 2.3-.8 9.6-.5 12.3-7.5 14.9-15 2.5-7.3 5.9-14.4 9.1-21.5.7-1.6 2-3.3 4.1-3.3 1.4 0 1.2 1.8 2.1 2.6 1 .8.8 1.6-.1 2.5-3.7 3.4-2.8 8.7-5.1 12.7-.9 1.6-.4 3.2.9 4 1.8 1.1 2.1-.9 2.8-1.9.9-1.3 2.2-2.1 3.7-2.3 1.9-.3 2.7-1.6 2.8-3.1.8-7.8 5.4-13.8 9.6-19.9 6-8.7 12-17.5 18.4-25.9 4.9-6.4 11.6-11 17.6-16.5.6-.5 1.4-1.3 2.1-.5.9 1 .4 2.2 0 3.3-2.2 6.2-4.3 12.5-6.6 18.7-5.1 14-7.6 28.8-11.7 43-1.6 5.6-5.8 9.2-8.7 13.8-2.9 4.7-4.4 9.5-4.5 15-.1 12.8.6 25.5 1.9 38 .7 6.9-1.3 13.5-3.4 20-4 12.3-10 23.8-13.6 36-3.8 13.6-6.9 27-8.1 41-1.5 17 2.1 33.4 5.8 49.6 4.3 18.6 6.5 37 9.3 56 2.4 16.2 4.6 32.5 6.7 48.7 3.3 24.9 7.9 49 13.6 74 1.5 6.4 4.2 12.6 7.3 18.5 6.8 12.9 12 26.6 19.3 39 5.8 10 14.6 16.4 24.8 20.5 15.6 6.3 31.8 9.5 49 9.6 29.6.2 57-6.4 85-17.4 16.8-6.7 33.7-12.9 50.6-19.4 18.3-7.1 35.7-16 51.8-27 15.2-10.2 31.8-18.8 44-32.6 13-14.3 23.5-30.4 33.5-46.9 8.9-14.6 17.7-29 25.7-44 1.7-3.2 4.2-6 6.4-8.9.6-.8 1.4-1.7 2.5-1.1 1 .6.8 1.7.4 2.7-3.4 7.7-6.2 15.7-11 22.8-3.2 4.8-5.2 10.3-8.5 15-7 10.4-14 20.8-20.8 31-7.6 11.8-16.7 22-26 32-10.5 11-23 19.8-35.6 28.5-10.2 7.1-20.6 14-31.6 19.8-10.4 5.5-21 10.2-32 14.4-11 4.3-22 9.1-33.4 12.7-13.4 4.3-26.3 10-39.8 13.8-9.5 2.7-18.7 6.3-28.6 7.8-4.4.6-2.8 3.9-1.2 6.5 6.5 10.4 13 20.8 19.4 31 7.7 12.6 14.8 25.6 18.4 40 .5 1.9 1.2 3.7-.3 6-2.8-3.8-4-8.2-5.8-12.2-5.2-12-13.2-22-19.3-33.6-5.7-10.5-12-20.6-16.2-31.9-1.2-3.2-2.9-4.7-6.2-4.4-7.3.6-14.6-.7-21.8.9-3.7.8-7.2-.7-10.9-.9-2.7-.2-4.3-.3-3.1 3.7 2.3 8.1 6.1 15.4 9.8 22.8 7.6 15 16.2 29.6 24.7 44 4.6 7.8 9.9 15.2 14.2 23 2.5 4.6 6.7 8.3 7.2 13.9-88 .5-177 .5-265 .5m90-248c-.3-.1-.6-.3-.9-.4-3.8 7.1-7.7 14.3-11.4 21.5-3.1 6-4.4 13.2-9.6 17.8-7.1 6.3-12.9 13.8-19.6 20.5-6.4 6.4-12.3 13.4-17.6 20.8-9.3 13-16.6 27.4-22.3 42-1.2 3.1-1.9 6.4-.6 9.7 2.1 5.6 3.3 11.5 3.3 17.4 0 8 2.6 15.7 2.6 23.7 0 2.5.6 5 .9 7.5.9-2.2.9-4.3.9-6.5 0-2-.1-4.4 2.2-5.1 2.4-.7 3.4 1.6 4.4 3.2 3.2 5.1 6.1 10.4 10.7 15.9-1-3.5-1.5-6.2-2.5-8.6-4.8-11.4-4.4-23.3-3.6-35 .2-2.4 1.5-4.3 2.5-6.4 3.6-7.2 8.4-14 10.4-21.9.2-.9 1-2 0-2.7-1-.7-1.7.3-2.5 1-1.9 1.6-4 3-6.2 4.7-1.7-6.4 1.4-11.2 4.7-15 3.2-3.7 4.5-8.3 7.4-12 .4-.6.8-1.3-.2-1.4-3.8-.4-1.5-2.5-1.1-3.9 2.1-7.1 7.9-12 10.6-18.9 1.9-4.8 6.9-7.1 8.9-11.9.6.9.7 1.6.5 2.1-4.9 12.3-8.8 24.9-12.7 37.6-2.9 9.6-3.5 19.5-4.6 29-1.8 15 .4 30 .8 45 .1 4.1.9 8.2.9 12.4.1 3.1 2.2 6 5.2 7.8-3.6-8.1-1.3-16.4-1.3-24.7 3.3 6.2 4.9 13 7.2 19.4 2.4 6.6 7 12 10.3 18.8.6-4.5-2.3-6.8-3.2-10-2.5-8.6-3.9-17.4-5.5-26-3-17-1.6-34 .3-51 1.4-12.6 5-25 10.4-37 4.8-10.7 8.5-21.9 13.4-32.6 7-15.5 15.6-30 21-46 3.1-9.2 3.2-9.7.4-13.8-4.7 10.2-10.9 19.4-15 29.8-2.5 6.2-5.7 12.2-8.7 18.3-.4.8-1 2.1-2.2 1.4-1-.6-.8-1.8-.3-2.7 3-5 4.7-10.4 6.2-16 1.5-5.8 3.6-11.5 5.5-17.4m-87 21c-.5 4.2 1.3 4.4 4.2 2.5 2.2-1.4 4.6-2.6 6.7-4.2 5.5-4 12.5-6.4 15.9-12.3 3.2-5.5 7.4-9.9 11.8-13.9 11-10.2 21.4-21.3 32.4-31.6 3-2.8 4.4-6.6 6.3-10 .5-.8 1-1.8-.1-2.7-.9-.7-2.2-.9-2.7-.1-2 2.9-5.9 3-8.2 5.4-6.2 6.7-13.8 12-20.7 18-12.4 10.7-24.6 21.7-36.4 33-4.4 4.1-8.6 9.1-9.2 15.8m-.7 117c-13.3 26-12.5 52 .7 78.9 3-27 4.4-53-.7-78.9m-31.5-62c-1.8-.8-2.9.3-3.9.9-14.6 9-28 19-36.8 34.5-.6 1.1-2.4 1.9-1.2 3.4 1.1 1.4 2.7.8 4.1.2 5.5-2.2 11-4.3 16.6-6.4 2.7-1 4.6-2.7 5.5-5.4 2.5-6.7 6.5-12.6 10.2-18.7 1.7-2.8 5.1-4.7 5.5-8.5m614 172c1.9-4 4-7.9 5.7-12 3.6-8.3 8.3-16.3 10.6-25 5.5-21 10.3-42.6 14.9-64 1.1-5 2.7-10 3-15 .9-18 5.2-35.7 5.9-53.8.3-6.3.5-12.6.5-18.9 0-1.7-1.2-4.6-3.2-2.5-3.5 3.5-8.6 3.3-12 6.8-1.1 1.1-2.8 1.9-5.1.9 2.4-5.6 7.1-9.3 11-13.4 3.8-3.9 8.8-7.3 9.6-12.8.9-5.7.2-11.6-.2-17.4-.6-9-.2-18-.2-27.5 1.6 1.8.2 3.8 1.9 5.1 2.5-1.9 3.4-4.8 3.4-7.4 0-5.2 1.5-10 2.4-15.2.5-2.8 1.7-5.5 1.8-8.2.5-19.3 5.1-38 7.9-57 .2-1.4.6-2.9-.5-4.3-2.1.8-3 2.7-3.6 4.5-2.4 7.4-5.9 14.3-8.9 21.5-5.7 13.6-11 27.4-15.7 41-4.4 13.2-8.2 26.6-12.5 39.8-5.9 18-10 36-10.4 55-.1 6.4-1.3 12.8-1.5 19.4-.4-4.4-2.5-8.4-2.6-12.6-.6-15.4-2.8-30.6-1.8-46 1.1-18 5.1-35.5 9.5-52.9 2.2-8.8 7.5-16.6 8.5-25.9.4-4.2 1.7-7.9 4.8-11 2.1-2.2 3.4-5.2 3.2-9.1-9.6 5.9-18.9 11.5-28 17.4-19 12.3-36.8 10.8-53-4.5-1.4-1.3-2.8-3.1-6-3.7 1.9 3.3 3.9 5.8 3.2 8.9-3.6 16.8-6.9 33.7-11 50-4.4 17.3-9.3 34.5-14.7 51.6-5.8 18.3-11 36.7-19.6 53.9-6.9 14-14.4 28-17.4 44-3.1 16-8.6 31-14.3 46-1.9 5-3.7 10-5.5 15 .4.2.8.4 1.2.5 5.4-8.9 8.5-19 13.8-28 1.5 13.7 1.7 27.5 6.9 40 .1-9.8 3.9-18.8 5-28.5.7 14 .6 28 7.8 41.7.4-1.3.7-1.8.7-2.2-1.1-9.7 1.4-19 3.8-28 .4-1.4 1.1-9.5 5.1-1.4.5 1 1.5.4 2.2.2 1.9-.7 2.3.2 2.6 1.8 1.1 6.2 2.2 12.2-.3 18.5-3.1 7.6-6.7 15-7.5 23.5 32.9 0 65.9 0 99 0m122 0c-2.2-10.8-4.3-21.7-5.8-32.7-1.8-13.3-1.2-26.5 1-39.6.2-1.1.2-2.5 1.6-2.8 1.4-.2 2.3.9 2.7 1.8 1.9 3.9 5.1 7.4 3.3 12.5-.6 1.7-.7 3.9.7 6.1 2.8-3.7 4.2-7.5 4.7-11.8 1-8.3-1.4-15.7-5.9-22.6-.7-1.1-2.2-2.6-1-4 .5-.6 2.2-.6 3.3-.5 10.2 1.2 28 12.3 26 26.5-.1.7-.2 1.7 1 1.9 6.2-8.2 6.3-8.1 8.1-17.9.9-4.8-.7-10.6 5-13.7.3-.2.2-1.6-.1-2.3-.3-.8-1.1-.4-1.7 0-3.6 2.2-4.6-.6-5.7-3-4.9-10.9-11.5-20.5-21.3-27.5-2-1.4-3.2-3.5-2.6-6 .9-4 .7-8.2 2.3-12.2 2.3-5.7 4.3-11.5 6.3-17.3.4-1.2 2.2-2.8 0-3.8-1.8-.8-1.9 1.2-2.6 2.2-5.7 8-7.7 17.5-11.2 26.4-2.5 6.3-2.5 7.1-9.1 6.8-3.7-.1-7.3-.9-10.7-2.2-16.4-6.1-29.5-16.2-38-31.6-1.2-2.1-2.3-4.9-4.9-3.6-2.2 1.1-3.3 3.8-3.4 6.7-.5 14.9.6 29.8-.9 44.8-1.5 14.3-3.3 28.5-5.9 42.7-1.7 9.1-3.1 18.3-5.6 27-1.5 5.5-1.8 11.8-6.6 16.6 4.3-28.7 4.5-73 0-77-.5 10.7-2.8 20.8-4.8 31-2.2 11.7-5.8 23-10.3 34-5 12.2-10.6 23.9-18.6 34.4-2.5 3.4-6 6.2-7.1 10.6 39 .1 79 .1 118 .1m-750 0c.5-2.1.4-4.3.1-6.5-2.1-14.9-5.5-29.6-9.8-44-2.3-7.6-3.7-15.4-7.1-22.6-.5-1.1-.8-3-2.5-2.4-1.2.4-.9 2-.6 3.1.3 1.1.5 2.3.9 3.4 3.3 8.5 3.9 17.6 6.3 26.3 3.9 13.8 5.2 28 5.8 42.7 2.3 0 4.6 0 6.9 0m1062-406c-.9-.5-1.9-.7-2.6-1.4-12.2-11.2-25.7-20.7-38-31.4-3.8-3.3-8-6.2-13-10 1 2.9 1.8 4.1 2.8 5.2 10 10.4 22 18.5 32.9 27.8 6 5.1 12 9.9 18.2 14.8.1-1.7.1-3.4.1-5m-411-133c-5 2.1-10 4.3-15 6.3-4.3 1.7-4.8 3.2-2.2 6.9 3.5 4.8 8.4 7.2 14 8.7 5 1.3 10.5.9 14.9 4.2 1 .8 1.8.2 2.4-.8 2.4-4.4 6.7-4.7 10.8-4.2 4.5.6 8.9 1.2 13.3.2 1.1-.3 2.6-.1 2.5.9-.6 5.1 3.7 8.2 5.4 13.2-5.3-.7-9.7-2.5-14.6-2.2-3.3.2-6.9 1.2-10.2-.1-2.6-1-3.9.5-4.6 2.5-.8 2.4 0 4.1 2.7 4.9 9.4 2.8 14.5 9.9 18 18.5 1.2 2.9 2.2 6.1 4.2 8.3 2.6 2.9 3.9 4.8 2.1 9.1-1.5 3.4-.1 7.9-1.4 11.7-.8 2.4-1 4.9-.7 7.4 1.4 11.7 3.9 23 3.9 35 0 1.3-.5 2.9 1 3.6 1.9.9 1-2.5 2.8-2.2.9 22.4-.4 44.6-2.6 66.8-.6 5.6-.7 11.2-1.1 16.9-.1 1.1-.1 2.5 1.4 2.8 1.6.4 1.7-1 2.3-2 1.4-2.7 1.8-5.5 2-8.6.5-7.8-.3-15.5-.1-23.3 0-1-.1-2.3 1.1-2.5 1.4-.2 1.9 1 2.2 2.2.9 3.9 1.6 7.8 2.8 11.5.5 1.6.7 4.1 2.6 4.5 2.2.4 3.6-1.8 4.5-3.4 4.7-8.3 10.6-16 15.3-24.3 5.7-10.2 10.6-20.9 14.8-32 4.3-11.3 10.4-21.9 9-34.6-.2-2 .7-3.4 3.4-1.9 11.2 6.2 23 9.6 36 9.9 1.9 0 3.8.1 5.2 1.3 5 4 11.5 4.2 17 6.8 1.9.9 2.9-.1 3-2 .3-4.7-5.9-14.2-10.4-16-4.6-1.8-9.2-3.8-13.8-5.6-3.9-1.4-7.7-3-12-2.2-3.2.6-6.3-.8-9.1-2-9.2-3.9-18-9.1-25.6-15.2-8.8-7.1-17.2-15-24.7-23.8-11-13-19.8-27.3-27.3-42.5-2.5-5.1-2.2-5.7 3.3-5.8 7.9-.1 14.7 3.9 21 7.4 7.7 4.1 15.4 8.7 23.4 11.8 7 2.8 12.4 6.6 17.3 11.8 3.9 4.1 8.4 7.5 12 11.8 1.5 1.7 3.1 4 6.1 4.7-.6-5.5-3.5-9.8-4.8-14.5-4.1-14.5-9.4-28.5-13-43-3.4-13.4-6.5-26.7-6.1-40.5.2-9.6 1-19 1.1-28.9 0-6.3-2.6-11.6-5.8-16-5.1-7.2-9.8-14.7-15-21.9-6.6-9.1-13.6-17.9-20.5-26.7-.8-1-1.3-2.4-3.1-1.9-3.4 1-5.2-1.4-7.2-3.4-3.9-3.8-5.7-8.9-8.3-13.5-4.2-7.4-9.6-13.7-16.3-18.9-1.1-.8-2.6-2.3-3.9-.6-1 1.3.1 2.6 1 3.5 4.8 4.5 4.5 8.4-.3 15.6-2.5 3.7-4.1 7.6-5.2 11.7-1.4 5.4-3.9 7.1-8.6 4.1-8.8-5.6-18.7-7.5-28.4-10.2-1.3-.4-2.5-.8-3.9-.3-3.8 1.5-6.1-2-9.1-3-1.7-.6.1-2.2 1.3-2.6 2-.8 4.1-1.3 6.6-2.1-.9-.8-1.2-1.3-1.6-1.4-7.3-1.3-14.7-2.4-22-3.8-1.9-.3-2.6.7-2.4 2.1.5 3.9-1.9 5.1-4.9 6.3-4.5 1.9-5.5 5.5-3 9.6 1.5 2.5 4 3.9 6.1 5.7 5 4.3 12.2 2.7 17.4 7.9 3 3 9 5.6 14.6 5.3 2.6-.1 4.7.6 6.8 2.3 4.3 3.4 5.9 2.5 6.7-3.1.2-1.3-.9-2.7-.6-3.2 1.8-2.4-1.6-7 2.8-7.7 3.9-.7 8-.4 12 .1 2.5.3 5.7 2.5 4.6 4.7-2.8 5.8-2.3 11.7-2.7 17.7-.4 6.4 3.3 12.2 2 18.7-.2.9.4 2.1-.7 2.7-1.1.6-1.9-.3-2.6-1-5.8-5.1-12.5-8.7-19.3-12-1.5-.8-3.3-2.1-5.1-.8-9.3 7.3-19.8 12-31 15.4-2.4.7-2.8 2.9-.4 3.9 2.8 1.1 5 3.3 7.8 4.4 6.3 2.5 6.6 3.2 2.1 8.3-1.7 2-3.7 4.1-2.3 6.6 2 3.6 4.6 7.3 8.9 8.1 14.2 2.5 28 5.2 42.7 6.1 3.4.2 6.6 4 5.4 7-1 2.3-1.1 3.5 1.1 4.9 1.5 1 2.2 2.9 1.1 4.4-1.2 1.7-2.7.1-4-.5-5.3-2.4-10.7-4.6-16.7-3.2-9.5 2.3-19 4.3-29 3.8-4.7-.3-7.7 3-8.5 7-.7 3.8-2.5 4.3-5.4 3.9-12.3-1.5-24.6-2.8-36-7.8-4-1.7-7.8-4.4-12.5-4.5 8.8 9 20 12.7 31.9 16.4-2.3 2.8-2.3 2.8-5 2.9-9.7.5-19-.6-28-5.1-1.1-.5-2.3-1.2-3.2-.1-1.1 1.2.2 2.1.9 2.9 1.7 1.9 3.5 3.5 5.8 4.7 7.2 3.6 14.7 5.6 22.8 6.5 14.9 1.7 29-1.2 43-5.6 7.2-2.3 14.3-4.6 21.5-6.8-28.6 18-59 25.6-92 11 1.4 4.6 4 6.9 7.3 8.7 6.3 3.5 13.4 4.6 20 6.8 6.4 2.1 12.6 2.3 19 .2 5.2-1.7 10-1.9 15.3 1.1 3.8 2.3 8.1 2.9 12.9 1 5.6-2.3 11.6-3.3 17.5-4.9-.6.3-.5.8-.4 1.2m-482-152c-1.3.8-1.5 3.2-3.8 2.5-2.2-.7-1.3-2.8-1.6-4.3-.4-2.2-.1-5.2-4-2.9-1.5.9-3.3.4-4.8-.5-5.2-3.3-10.6-6.2-15.5-9.9-8.3-6.3-18.4-8.6-27.8-12-11-3.9-23-2.3-34.6-2.3-1.5 0-2.9.6-4.3 1-8.3 2.4-14.9 8.2-22.8 11.4-12.8 5.1-25.5 10.3-38.8 13.9-9.3 2.5-18.6 4.5-28 6.3-14.5 2.8-28.9 4.5-43 2.2-7.7-1.2-15.6-2.4-22.6-6.9-11.6-7.5-22.7-15.7-32-25.9-.5-.6-.9-1.6-1.9-1.2-1.2.5-.9 1.6-.7 2.6.9 3.7 1.4 7.5 2.8 11 5 12.6 9.7 25.3 21.6 33.9 7.8 5.7 15.7 10.5 24.8 13 9.2 2.7 18.5 4.9 27.8-.4 4-2.3 8.5-4.4 14.7-5.2-11.8 10.2-21.3 21-28.5 33-7.1 12-16.8 22.3-23 34.7 1.3-.2 2.3-.7 2.8-1.5 7.5-11.3 19-19.4 24.7-32.4 1.4-3.3 3.8-6.2 5.9-9.1 7.3-10 16.2-18.6 25-27 2.9-2.8 6-5.6 10-7.2 10.8-4.4 22.3-7 32-13.8 5.2-3.6 10.5-6.9 15.8-10.2 11.3-7.2 23.5-12.3 37-13.6 6.3-.6 12.8-2.8 18.8-.8 9 2.9 18.4 3.9 27.4 7.1 8.1 2.9 16.4 5.4 24.4 8.6 5.9 2.4 7.6 6.2 6.1 12.8-1 4.4-5.1 7.2-10.5 7.5-8 .4-15-3.3-21.7-6.4-5.7-2.5-9.7-.8-13.9 1.5-6.6 3.7-13.3 7.2-20.7 8.7-2.1.4-3.6 1.5-5.1 2.8-14.9 13.2-27.3 28.6-40 43.6-1.7 2-2.6 4.4-2.6 6.9 0 7.5-.7 14.9-1.9 22.3-.6 3.3-2 6.3-2.2 9.6-.7 10.8-5.7 20-10.6 29-.4.8-1.5 1.6-.4 2.5.8.6 1.5-.2 2.2-.5 3.9-1.7 4-5.8 5.9-8.8 3.5-5.6 7.2-11 5.7-18.3-.6-2.6.1-5.3 1-7.8 2.5-6.9 5.5-13.5 4.3-21.5-.4-3.1-.4-7.3 1.4-10.7 4.7-8.6 12.9-13.4 21.5-16.2 5.6-1.8 7.3-5 7.4-9.2.1-4.6 2.6-7 5.6-9.2 1.8-1.4 3.9-2.4 5.3-4.3 1.5-2 3.7-2.8 6.1-2.8 3.2 0 6.3-.1 9.5 0 3.2.1 6-.3 8.5-2.9 2.8-3 6.5-4.8 11.5-3.2-2.1 1-3.6 1.7-5 2.6-1.6 1-4.7 1.6-3.5 3.9 1.1 2.2 2.9-.4 4.4-1 1.3-.4 3.1-.8 3.4.8.3 1.4-1.2 2-2.7 2.2-3.3.6-6.5 1.5-9.7 2.1-2 .4-5.7 3.1-4-2.6.3-1-.7-1.5-1.6-1.4-3.6.1-7.2 0-10.3 4.1 3.7-.5 4.7 2.1 7.5 3.4-3.9 1.2-6.9 2.5-9.8 4.1-4 2.2-1.8 5.5-1.7 8.4.2 3 2.7 2.4 4.6 2.5 2.7.1 5.3.1 8 0 1.6-.1 3.6.2 3.6-2.3 0-2.2-1.6-2.2-3.2-2.3-1.8-.1-3.2-.6-4.4-2.7 5.9-3.1 12-5.1 18.9-5.5-.7 1.2-2 2.2-.8 3.2 1.3 1 2.8.4 4.2-.4 2.6-1.5-.1-3.2.3-5.1 3.2 2.3 5.7-1.4 8.9-1 3 .4 4.2.8 2.7 4.3-4 9.1-9.7 17.3-13.6 26.5-2.9 6.7-7.2 13-15.3 14.5-3.8.7-7.2 1.7-10.6 3.7-3.3 2-7.4 4.1-11 4.1-5.8-.1-9.4 3.6-13.9 5.9-1.9.9-3.1 2.9-2 5 1 1.9 3.3 2.7 5.2 1.7 4.9-2.5 10.6-3.3 15-6.2 4.2-2.7 7.9-2.9 12-1.6 1.6.5 3.2.9 3.6-1.2.4-2.4 2.3-2.5 3.9-3.1 4.5-1.7 8.1-3.7 10.6-8.7 3.8-7.4 8.1-14.7 14.2-20.8 5.6-5.6 12.4-9.8 17-16.9 9-13.7 20.5-25.6 32.4-36.9 3.8-3.7 7.6-7.4 8.7-13.9-4.9 3.7-10.5 7.1-15.9 10.6m690 298c-.4.6-.1 1.6-.2 2.5-1.1 5.2 3.7 7 5.8 10.3 7.1 11.2 13.4 22.8 19.8 34.4 11.6 20.8 20.7 42.7 30 64 10.2 23.4 22.3 45.9 30.8 70 1.5 4.3 4.5 7.6 6.4 11.6 7 14.7 12.7 29.9 19.3 44.7.6 1.3 2.2 2.7.9 4-1.3 1.4-2.7-.4-4-.9-14-5.5-26.4-14-40-20-14.6-6.3-29.8-10.6-44-16.9-7.9-3.4-16.9-4.4-25.4-6.4-2.6-.6-5.2-.9-7.9-1.1-18.2-1.1-35.7 2.3-52 10.2-5.3 2.5-10.9 4.4-16 8.4 2.3 1 3.7-.1 5.2-.5 7.9-2.3 15.2-6.4 23.6-7.5 10.7-1.5 21.4-1.7 32-2.4 13-.9 24.4 4 36.4 6.1 9 1.5 17.5 5.8 26 8.9 8.1 2.9 16.3 5.7 24 9 14.2 5.9 27.9 13 41.9 19.5 2.7 1.3 4.8 2.9 5.9 5.7 2 5.1 4.6 9.9 6.7 14.9 5.7 13.2 14.5 24.4 22.7 36 .6.8 1.4 1.9 2.9 1.4-.1-.6-.1-1.1-.4-1.5-6.8-9.8-10.6-21-14.6-32-6.6-18.3-13.5-36.6-20-54.9-4.4-12.2-9.5-24-14.6-36-9.2-21.8-20-42.8-29.4-65-5.1-12-11.8-23.4-16.9-35.4-9.6-22.7-21.3-44-36-63.7-7.3-9.7-14.4-19.5-20-30.4-2.3-4.4-2.2-10-5.9-13.5-7.8-7.4-14.5-15.8-20.8-24.5-2.3-3.2-5.6-3.3-6.7-.3-1 2.8-1.8 5.3-5.3 5.8-1 .2-1.2 1.4-.5 2 3.2 2.5 2.4 6.9 4.7 9.7 4.6 5.5 6.7 12.5 11.2 18 5.5 6.9 9.3 14.8 13.4 22.5 1.1 2.1 2.6 3.2 5.3 2.1 2.7-1.1 2.5-3.1 1.8-4.9-1.3-3.7-.2-7.1.7-10.6 3.7.9 6.2 2.1 3.6 6.1m-979 123c12.3-1.7 24.7-1.5 37-3.7 18.5-3.3 35.7-9.4 52-18.5 17.2-9.7 30.5-23.8 43-38.5 6-6.9 10.3-14.9 14.9-22.7 1.8-3 6.4-6.7 3.9-9-2.3-2.1-6.1 2.6-8.9 4.7-5.8 4.3-11.3 9.8-18.6 10.9-11.2 1.6-18 8.8-24.9 16.6-1.4 1.6-2.7 3.3-4.4 4.7-6.7 5.1-13.4 10.2-19.9 15.6-9 7.4-18.6 13.8-28.7 19.3-11 6-23.4 9.2-35 13.3-7.5 2.6-15.6 2.6-23 5.9 4.1.2 8.2 2 12.6 1.4m422 43.8c-14-.2-27.8-1.5-41.5-4.3-4.4-.9-9-.9-13.4 0-3.7.8-6.8.2-10-1.7-10.5-6.1-22-9.2-34-9.9-3.3-.2-4.9-1.4-5.3-4.6-.4-3.8-2.3-6.5-6-7.9-3.2-1.2-5.5-3.6-7.3-6.5-1-1.5-1.1-3.2.3-4.6 1.6-1.5 2.7-.1 3.8.9 3.8 3.6 8.3 3.8 13 2.6 4.8-1.2 9.6-2.6 13.9-5.3 4.9-3.2 10.5-2.6 14.9-.7 11.9 5.3 24.6 7.6 37 10.7 10.6 2.6 19.3 9 28.5 14.6 6.3 3.9 13.4 6.4 20 9.5 1.8.8 4.2 1.5 3.6 3.9-.5 2.3-3 2.2-5 2.3-4.3.4-8.6-.1-12.8 1m-15.9-8.8c-.5-1-2.8-1.8-.5-3.2 1.1-.6 1.5-1 .5-2.2-5.7-6.2-11.9-11-20.3-13.6-7.2-2.2-14.8-1-21.9-3.8-4.9-1.9-10.2-2.8-15.2-4.4-2-.6-3.8-.7-4.7 1.2-1 2.1.8 3.3 2.3 4.4.4.3.9.5 1.2.8 3.1 2.6 6.2 5.3 2.5 9.7-1.4 1.6.3 1.3 1 1.7 9.7 6.4 19.9 10 31.7 7.1.7-.2 1.7 0 2.4.3 6.6 2.7 13.4 4.2 21 2m182-292c-6.8-2.6-14.7-1.9-20.6-6.7-4.8-3.9-10.4-4.8-16.2-5.3-13.5-1-26.7 2.6-40 2.1-11.3-.4-22.6 0-34-.1-3.3 0-6.3.6-9.1 2.3-3.8 2.3-3.9 5.7-.3 8 3.4 2.3 6.8 4.7 11 5.5 21.4 3.9 42.6 1.6 63.9-.7 4.6-.5 9.2-1.5 13.7-2.4 5.1-1 9.3 2.1 14 2.9 11.2 1.8 22.7 2.2 33.8 5.9-3.9-5.7-9.5-9.1-15.9-11.5m-49.6 100c1-.1 2.5.6 3-1 1.1-3.6 1.4-3.9 4.7-2.3 1.2.6 2.3 1.4 3.7 1.3 2.5-.2 4.9.8 6.8-2.9 1.8-3.5 7.1-2.3 11.4-4-3.9-2.8-6.8-6.5-10.9-7.4-8.6-1.9-17.3-3.1-26-3.2-11.3-.2-22-2.4-32-7.3-5-2.4-10.7-3.4-14.8-7.6-3.4-3.5-8-5.1-12.5-6.5-1.4-.4-2.8-.8-3.5.6-.9 1.8.9 2.2 1.9 2.8 2.6 1.3 4.4 3.5 6.2 5.6 5.6 6.4 11 13 18 17.8 9.9 6.9 22.5 7.6 32.9 13.6.7.4 1.7.7 2.3 0 .8-1-1.6-1.2-.8-2.4 3.6-.4 6.1 3.1 9.8 2.9m-250-143c4-1.4 7.8-1 11 2.1 3.2 2.9 6.3 6.1 9.9 8.2 10.2 5.9 21 10.3 32 13.9 3.4 1.1 6.9 2.4 10.7 2.1 1.5-.1 3.3-.1 2.5-2.5-2.7-7.7-5.9-15.2-14-18.3-12.9-4.7-25-11-38.6-14.2-13.9-3.4-20-.7-26 12.6 3.6-2.9 8.2-2.5 12.2-3.9m66 85c-7.7-1-15.3-1.2-22.5 1.7-3.4 1.4-6.7 1.6-10.2 1.8-9.8.6-19-1.8-28-5.3-3.4-1.3-7-2.1-10.7-1.7-1.1.1-3.2.7-2.5 1.4 2.7 2.4.3 5.8 2 8 1.4 1.8 1.6 2.7-.6 3.7-.9.4-1.8 1.1-1.2 2.3.6 1 1.6.8 2.6.8 1.8.1 4.9-.4 5.1 1.4.4 4.1 2.7 2.5 4.8 2.6 2.3.1 6-4.3 7 1.7 0 .3 1.5.6 2.3.4 6.3-1.4 12.6-.5 18.9-.6 8-.2 15-2.1 20.5-8.3.9-1.1 2.1-1.4 3.3-1.8 6-2.1 12.6-2.5 19-7.1-4.1-.5-6.9-.6-9.7-1m-448 193c0 1.7-.2 3.2-1.6 4.5-3.1 3-3.9 6.8-3.4 11 .1 1.1-.3 2.5 1.1 3 1.3.5 2.1-.7 2.9-1.4 8.8-7.6 17.4-15.4 25.7-23.6 7-6.9 14-13.8 21.4-20 13.9-12 26.8-25 40-37.6 1-.9 3.1-2 1.8-3.5-1-1.3-3.2-.8-4.7-.1-.9.4-1.5 1.3-2.3 1.9-4.1 3.4-8.3 6.9-12.4 10.3-1.5 1.2-3.3 2.3-4.6.1-.7-1.2-.5-2.9-2.4-1.6-1.2.9-.9 2.4-.3 3.7.3.6 2.7.5.5 1.9-2 1.2-3.5 2.8-4.2 5.3-.5 1.8-2.7 2.4-4.1 1.5-1.4-.9.1-2.3.7-3.4.7-1.2 2.5-1.7 2.1-3.6-5.9 2.7-8.1 6-7.8 11.7 0 .6-.4 1.2-.8 1.7-2.1 2.7-3.8 5.8-7 7.6-9.1 5.2-15.3 13.7-23.3 20-3.8 3.1-8 5.7-11.4 9.3-1.1 1.1-2.1 3.5-3.7 2.7-2.5-1.2.4-3 .4-4.9-2.9 0-2.9 1.8-3 3.5m235-132c13.8-2.3 26.7-7.5 39.9-11.5 4.4-1.3 9.7-3.4 10.3-9.5.2-2.1.6-3.9-3-4.1-3.3-.2-5.7 1-8.2 2.4-10.3 5.6-22 7.5-32 13.8-5.7 3.5-11.8 6.2-19.3 7.9 5 4.4 8.6 1.7 12.4 1m-186-100c-17 11-34 22-51 33-1.4.9-4.2 1.4-2.8 3.7 1.4 2.2 3.1-.2 4.5-1.1 9.2-5.6 18.5-11 27.4-16.9 9.5-6.3 20-10.6 29.7-16.9 9.7-6.4 18.2-14.3 27.5-21.3 4.9-3.7 10-7.5 12.9-13.3-15.6 11.7-31.8 22-48 32.7m380-197c-1.1-.1-1.9.2-2.4 1.3-5.2 11.3-13.8 20-22 28.8-8.8 9.1-13.8 19.9-18.2 31.4-.3.8-.7 1.6.1 2.2.8.6 1.6 0 2.2-.6 2.9-2.9 6.1-5.6 8.7-8.9 12.5-16 21.6-34 31.9-51 .3-.6.6-1.2.8-1.5.3-1-.2-1.4-.9-1.4m-242 306c-10.4 5.6-22.3 6-33.4 8.8-8.5 2.2-16.6 5.2-24.8 8.1-1.5.5-2.7 1.9-3.9 3-4.9 4.8-9.1 10.3-16 12.5-1.7.6-2.6 2.4-1.8 4.1.8 1.8 2.4.5 3.4-.1 6.8-4.1 13-9 20.3-12.7 11.4-5.7 23.5-8.9 35-12.9 8-2.7 15.9-5.3 23.8-8.3.8-.3 1.4-.8 1.7-1.7-1.1-2.3-2.9-1.7-4.6-.8m670-9.7c3.5-4.7 8.2-8 12.5-11.9 5.3-4.7 10.8-3.1 13 3.6 3.1 8.9.9 17.3-.7 25.9-1.3 6.9-4.1 14-.6 21.3.2-8.9 3.1-17 5.6-25.5 2.5-8.5 2.2-17-.1-25.5-1.5-5.6-9.8-9.1-14.6-6-7.5 4.9-13.3 11.7-19 19.3 2.3.4 3.4-.4 3.9-1.2m-492-227c-1.6 1.2-3 2.7-4.3 4.1-4.1 4.5-7.4 10.5-12.8 13-5.4 2.4-7.3 6.3-8.9 11-.8 2.2-3.2 5.2-1 6.8 2.2 1.6 2.7-2.6 4.6-3.5.1-.1.3-.2.4-.3 11.8-5.8 18-16.5 23.6-27.6.4-.7.6-1.5.8-2-.3-1.9-1.1-2.5-2.4-1.5m455 284c-.3.4-.6.9-.6 1.3-.2 7.7-4 13.5-9.7 18.3-3.3 2.8-6.2 6.8-3.7 10.8 2.8 4.6 7.4 1.6 11.2.3 5.9-2 11.3-5.8 17.6-6.7 6.2-.8 11.9-3 17-6.3 5.9-3.7 8.5-9 6.9-14-2.5 7.3-7.7 12-14.5 14-10.6 3.1-21.3 6-31 10.8-1.2.6-2.6 1.4-3.6 0-1-1.3 0-2.4.8-3.5 3.1-4.3 6.3-8.5 9.1-13 2.3-3.8 3.2-8 2.1-12.7-.9.5-1.3.6-1.4.8m-564-26.5c-6.8 2.6-13 5.4-19.7 7.3-10.5 3-11.9 12.8-16.3 20.3 6-1.1 34.7-23.4 36-27.6m166 31.5c-1.2-11.2-.5-22 5.8-31.9-6.5 4-9.5 10-10.5 17.3-2.6 18.7 4.9 33 19.5 44-2.6-11.2-13.5-17.9-14.8-29.5m61-141c-1.5-8-6.3-14.5-11.4-20.7-2-2.3-4.5-7.3-6.3-5.7-2.4 2.1 1.7 5.4 3.6 8 7.1 9.7 12.9 19.7 8.6 32.7-1 2.9-2.7 6.2-.6 10.2 6.5-7.4 7.8-15.7 6.1-24.5m573-100c-13-19-26.3-38-39-56.9-.5.3-.9.7-1.4 1 9.1 21.9 26.5 37.9 39 57 .6-.5 1.1-.9 1.7-1.4m-232-58c-5.8-2.2-10.9-6.3-17.9-3.9-3.7 1.3-3.2 2.4-1.1 4.7 4.3 4.6 17.5 6 25 2.4-2.3-1.3-4.1-2.5-6.1-3.2m-402 120c-6.3-3.2-13.7-5.9-21-.4 18.7-2.7 28.5 11.3 41 20.6-3.4-9.9-11.4-15.8-20-20m402 102c-11 8-21.9 16.4-37.6 13.8 8.8 8.5 33.8-.8 37.6-13.8m-663 78c.1-1.4-1-1.9-1.9-1.1-2.7 2.5-6.9 4.4-6.1 8.9 1.1 6.7 4.5 12.5 8.8 17.9-2.3-8.6-1.6-17.2-.8-25.7m973-152c1.3 1.5 3.6 2.4 5.8 2.4 1.1 0 2.5.5 3.1-.8.4-1.1-.6-1.8-1.3-2.4-3.3-3-6.4-6.3-10-8.7-4.2-2.7-6.5-8.1-12.7-8.2 5.7 5.4 10 11.8 15.2 17.7m-290-134c.9-.7 1.9-2.2.9-2.9-2.2-1.7-3.8-5.1-7.5-3.3-3.5 1.7-7.1 3.4-10.3 5.8 4.7 3.5 12.7 3.6 16.9.4m-763 345c-.3.9-.3 2.2.8 2.6 1.2.5 1.8-.7 2.1-1.5 1.9-4.4 4.6-8.3 7.4-12 2.4-3.3 2.8-7.2.1-11.4-4.7 7.1-7.8 14.7-10.4 22.4" />
</svg>
