<?xml version="1.0" encoding="utf-8"?>
<!-- Generator: Adobe Illustrator 18.0.0, SVG Export Plug-In . SVG Version: 6.00 Build 0)  -->
<!DOCTYPE svg PUBLIC "-//W3C//DTD SVG 1.1//EN" "http://www.w3.org/Graphics/SVG/1.1/DTD/svg11.dtd">
<svg version="1.1" id="Layer_1" xmlns="http://www.w3.org/2000/svg" xmlns:xlink="http://www.w3.org/1999/xlink" x="0px" y="0px"
	 viewBox="0 0 1280.8 720.8" enable-background="new 0 0 1280.8 720.8" xml:space="preserve">
<path d="M283.8,720.8c-0.8-7.9,0.3-16-1.3-23.9c-2.8-14.2-2.8-29.1-10.1-42.2c-0.5-1-1.2-1.9-2.5-4.1c-4.6,13.6-11.9,25.4-4,39.2
	c-6,0.1-8.3-3.1-10.2-7.9c-2.3-5.8-5.6-11.3-8.4-16.9c-4.3-8.5-6.6-17.6-7.8-27c-0.5-3.8-2.2-7.3-2.4-11.2c-0.1-3.5-1.8-6.3-6.8-6.2
	c12.4-12.4,24.2-23.8,37.3-33.9c13.6-10.5,27.7-20.3,42.3-29.5c0.1-0.1,0.4-0.1,0.4-0.3c3-7.1,11.3-7.1,16-12
	c2.8-2.9,7.1-3.4,11.3-0.8c-3.2-7.2-4-15.1-9.2-21.2c-0.9,1.4-0.4,2.9,0,4.4c0.3,1,3,1.7,0.6,3c-1.7,0.9-3.7,2.6-5.8,0.5
	c-8.7-8.9-15.2-18.7-17.3-31.6c-1.2-7.4-1-14.8-2.3-22.2c-0.7-4.2,0.3-8.6,1.5-12.7c2.6-9.5,5.9-18.7,10.4-27.4
	c3.6-7,1.4-12.6-2.1-19.7c-2.4,6-4.5,11.3-6.5,16.5c-3.2,8.4-9.1,14.9-14.9,21.6c-1,1.2-2.4,2.5-3.8,1.8c-1.5-0.7-0.3-2.4,0-3.6
	c1.7-6.1,2.7-12.4,2.9-18.6c0.2-7.6-0.5-15.3-2.2-22.7c-3.9-17.4-8.3-34.7-12.1-52.1c-1-4.6-1.2-9.5-2-14.2
	c-0.4-2.7-0.8-5.2-2.2-7.5c-4.6-7.6-3.1-16.2-4.1-24.4c-0.1-1-0.2-2.7,1.3-2.8c1.7-0.1,1.9,1.4,2.3,2.7c2.7,8.2,7,15.7,11.1,23.3
	c0.1,0.2,0.5,0.3,0.9,0.5c1-1.5-0.5-2.8-0.5-4.1c0-1.3-0.6-2.9,1.1-3.5c1.5-0.5,2.7,0.9,3,2c1,3.7,4.2,6.9,2.5,11.2
	c-0.6,1.4,0.3,2.2,1.1,3c6.1,6.2,10.1,14,16.7,19.8c3.5,3.1,3.9,7.8,4.6,11.9c2.9,16.9,9.9,32.5,15.4,48.6
	c4,11.7,7.7,23.6,10.8,35.5c2.2,8.2-1.6,15.6-5.3,22.7c-1.3,2.5-3,1.7-3.9-0.4c-1.8-4.2-3.4-8.6-5.1-12.9c-0.5-1.2-1-2.3-2.4-3.1
	c1.4,4.5,2.5,9.1,4.3,13.4c3.7,8.6,4.1,17.5,4.9,26.6c1,12,6.7,22.7,13.8,32.5c0.8,1.2,2.1,1.6,3.6,1.1c0.8-0.3,1.1-1,1.2-2
	c0.7-5.8,4-7.4,9.3-4.5c0.6,0.3,1,0.8,2.2,1.8c-1-2.9,0.3-5.4-2.3-7.3c-1.1-0.8,0.2-2.5,1-3.5c2.8-3.8,3.1-8.2,3.5-12.7
	c1-11.3-1.6-21.7-6.9-31.6c-1.9-3.5-1.4-7,1-11.5c0,11.5,8.3,17.7,12.8,25.8c4,7.2,8.2,14.2,13.6,20.5c1.6,1.8,0,3-0.7,4.4
	c-0.5,0.9-1.5,2.1-0.2,3.1c1,0.8,2.1,0.1,2.7-0.5c2.4-2.6,3.7-0.7,5.1,1.1c0.7,0.9,1.3,1.9,1.9,2.9c5.1,8.4,5.4,8.9-2.4,14.6
	c-5.1,3.8-3,8.1-1.6,11.7c6.4,17.4,9.7,35.3,10.6,53.9c0.5,10.3,0.9,20.6,0.6,30.9c-0.3,12.1-1.8,24.1-4.3,36
	c-1.2,5.8-2.7,11.5-2.8,17.6c-0.1,5.3-2.2,10.5-3.3,15.9c5.3-12.2,7.5-25.2,10.7-38c3.3-12.9,4.9-26.2,7.4-39.4
	c3,10.1,0.7,20.3,0.3,30.4c-0.4,10.2-2,20.4-3,30.6c4.3-16.5,6.1-33.4,8.2-50.2c2.1-17.1,1.6-34.4,0.7-51.8
	c-0.6-10.9-2.8-21.4-4.9-31.9c-1.5-7.7-2.8-15.7-5.8-23.2c-4.3-10.9-7.7-22.1-12.4-32.9c-8-18.5-15.9-37-26.5-54.3
	c-3.3-5.4-6-11.3-9.3-16.9c-0.2,8.4,4.4,15,7.6,22.1c6.2,13.7,12.2,27.5,18,41.4c0.5,1.1,0.6,2.2-0.2,3.3c-1,0.2-1.5-0.4-1.9-1.2
	c-6.3-13-14.2-25.1-20.9-37.9c-8.5-16.2-16.9-32.6-24.3-49.4c-2.9-6.6-5.2-13.8-7.1-21c-2.2-8.3-5-16.4-6.4-24.9
	c-2.4-13.8-2.6-27.6-1.7-41.6c0.7-12,3-23.7,5.5-35.3c0.6-3.1,1.7-6.1,2.5-9.1c0.4-1.4,1-2.9-1-4.3c-3,7.3-6.2,14.3-8.7,21.5
	c-6.3,17.6-7.2,35.9-7.1,54.4c0,2.1-0.1,4.4-2.4,5c-2.6,0.6-2.3-2.4-3.1-3.7c-3.8-5.9-5.1-12.5-5.1-19.4c0-1.9-0.3-3.6-1-5.4
	c-5.6-14.7-3.6-29.8-1.1-44.6c1-5.8,2-11.8,3.6-17.2c2.1-7,4.3-14.2,7.7-20.9c1.2-2.4,2.4-4.8,3.2-7.3c3.3-11.5,12.4-17.2,21.7-23.2
	c10.9-7.1,21.1-15.1,29-25.9c6.3-8.6,11.7-17.5,15.2-28.6c-2.7,1.5-3.3,3.5-4.5,5.1c-1.2,1.6-2.5,3.1-3.6,4.8
	c-6.4,10.5-15.9,17.6-26.2,23.8c-7.1,4.2-14.2,8.4-21.4,12.5c-1.1,0.7-2.4,1.1-3.6,1.6c-0.9,0.3-1.9,1.1-2.7,0.1
	c-0.7-0.9-0.1-1.8,0.5-2.7c1.3-2,2.5-4,4.5-5.3c7.4-4.7,14.9-10.1,20-16.8c6.8-8.8,15.5-17,17.5-28.9c-1.6-0.2-2,1-2.5,2
	c-3.3,7.4-8.4,13.7-12.8,20.4c-5.3,8.2-13.3,12.7-21.7,16.3c-6,2.5-8.9,7.7-13.3,11.6c-5.5,4.9-10.8,10.1-16.1,15.4
	c-1.4,1.4-2.4,0.9-3.4-0.1c-1.1-1.1-0.3-2.3,0.6-3c3.9-3.4,5.9-8.1,9.1-12c-5.4,1.4-8.2,5.9-11.6,9.7c-1.2,1.4-2.4,3.3-4.4,2.5
	c-1.6-0.6-0.9-2.6-0.9-4.1c-0.5-11.9,3-22.8,7.4-33.7c5.4-13.3,12-25.9,20.6-37.4c8.7-11.5,17.8-22.6,27.2-33.6
	C348.3,91.5,360,76,370.1,59.5c-6.5,5.5-11.5,12.3-16.6,19.1c-1.1,1.4-1.7,3.4-3.5,2c-1.5-1.1,0.5-2.2,1.2-3.1
	C368,57.2,380,34.2,390.6,10.3c0.3-0.6,0.6-1.2,0.7-1.8c2.6-8.4,4.1-9.3,12.8-8c2.8,0.4,3,1.6,1.5,3.6c-3.2,4.4-7.2,8.2-10,12.9
	c-4.7,7.9-9.7,15.6-13.4,25.5c6.2-7,11.6-13,17-18.9c8.2-9.1,18.5-15.6,28.7-22.1c2.8-1.8,6.2-1.2,9.2-0.6c2.8,0.5,1.7,2.5,0.5,4.1
	C428.6,18,419.3,31,410.6,44.5c-7.9,12.3-17.1,23.9-25.8,35.7c-0.7,1-2.1,1.5-3.6,1.9c12.4-27,30.9-50.1,49.2-74.8
	c-12.4,5.5-19.8,14.5-27,23.6c-12,14.9-18.6,32.4-23.8,50.5c-1.9,6.6-6.3,11.2-10.5,16c-2.4,2.7-5.2,5.1-7.3,8.1
	c10.7-7,19.5-16.2,29-25.5c0.6,13.3-24,51.9-36.4,57.7c1.4-6.8,2.8-13.3,4.2-19.8c-3,4.2-3.5,9.2-4.6,14c-1.1,4.9-2.7,9.7-6.8,12.9
	c-4,3.1-7.5,7-12.4,9.7c2.3,0.2,3.2-1.7,4.5-1.7c8.2-0.2,11.9-7.1,17.5-11.2c9.9-7.1,18.6-15.5,27.3-24
	c10.3-10.1,18.2-21.8,25.9-33.9c3.3-5.3,6.6-10.5,10.3-15.6c0.1,5.6-3.4,9.8-5.4,14.5c-3.9,9.2-7.1,18.5-9.6,28.1
	c-4,15.3-4.9,31.1-6.6,46.7c-1.3,12-2.6,24.1-2.4,36.2c0.3,17-1.8,33.8-3.9,50.6c-2.3,18.7-2.4,37.3-0.4,56.1
	c2.2,20.2,7.2,39.8,9.8,59.8c3.7,27.6,11.8,54.1,18.4,80.9c6.6,26.6,18.7,50.5,33.9,73.1c10.1,15.1,24.4,25.6,37.9,37.1
	c16.7,14.3,36.4,23.4,55.8,33.1c10.7,5.4,20.6,12,32.3,15.5c17.4,5.2,34.8,7.4,53,5.8c11.4-1,22.3-3.5,33.1-6.7
	c14.2-4.2,26.1-12.8,37.8-21.6c13.1-9.9,26.7-19.1,39.7-29.1c14.9-11.5,26.6-25.8,37.9-40.6c16.2-21.1,24.2-45.8,31.1-71
	c4.9-17.9,9.6-35.9,14.4-53.8c1.1-4.3,1-8.9,3.5-12.9c1-1.6,1.7-3.3,4-1.2c10.3,9.1,28.7,8.7,38.5-0.8c4.4-4.2,7.5-9.2,9.6-15
	c2.5-6.8,6.6-12.7,9.9-19c0.3-0.5,0.8-0.9,1.4-1.5c3.1,13.8-24.2,85.9-37.2,97c2.1-12.6,9.5-22.4,12.8-34.6c-5.6,4.9-5.9,12-11,17.2
	c0.5-7.8,3.1-14,5-20.4c0.9-3.2,2-6.3,2.9-9.5c0.2-0.9,0.5-2.2-0.7-2.6c-1-0.3-1.9,0.4-2.3,1.5c-4.6,11.5-10,22.7-14.4,34.4
	c-4,10.5-9,20.6-12.7,31.2c-2.9,8.3-6.6,16.3-9.3,24.7c-2.9,9.1-6.5,18-8.4,27.4c-5,25.5-5.3,44.9,1.4,66.8c2.2-1.3,2.5-3.4,2.5-5.5
	c0-10.5,2.1-20.6,6.3-30.3c0.8-1.8,0.9-3.6,0.7-5.4c-0.4-3.8-0.4-7.3,3-9.9c1.3-1,1.1-2.8,1-4.2c-0.6-5.3,1.2-10.2,2.1-15.2
	c0.1-0.3,0-0.9,0.2-0.9c6.1-1.7,2.9-6.6,3.1-9.9c0.5-8.5,6.1-15,8.5-22.7c1.2-3.7,2.3-7.3,2.2-11.1c-0.3-8.4,6.2-12.4,11.1-17.4
	c0.5-0.5,1.3-0.7,1.7,0c0.3,0.5,0.3,1.3,0,1.8c-2.3,4.7-3.8,9.7-5.6,14.5c-4.6,11.6-10.6,22.9-13.2,35.1c-2.5,12-2.6,24.6-2.5,37
	c0.1,17,1.9,33.9,8.6,49.6c7.7,18,19.6,32.6,38.5,40.1c18.6,7.4,37.8,8.8,57.5,5.4c6.1-1,12-2.1,17.9-5.1
	c-7.7,1.5-15.1,1.5-22.5,1.4c-16.1-0.3-31.7-3-45.6-11.6c-9.4-5.9-17-13.7-22.5-23.5c-7.9-13.9-11.8-28.8-12.8-44.9
	c-1.4-22.1,2-43.6,5.7-65.2c2.1-12.4,5.2-24.6,8.7-36.6c0.5-1.7,0.9-3.5,3.7-5c-1.3,15.2-0.7,29.7,6.2,44.6c-0.4-7.9,2-14,4.5-19.7
	c3.3-7.4,2.9-14.5,0.8-21.8c-2.4-8.2-1.7-16.6-0.8-24.8c0.4-4.3,4.3-8.3,7.2-12.3c1.2,5.4,1.3,10.8,3,15.9c1.1,3.3,1.5,6.7,3.3,9.8
	c1.8,3.1,0.4,6.5-1.8,9.1c-3,3.6-2.7,5.9,1.7,7.8c2.1,0.9,5.1,0.7,6.5,2.1c5.9,5.6,14.6,7.6,19.1,15c2.7,4.5,6.9,7.7,10.6,11.2
	c2,1.8,2.7,3.6,2.6,6c-0.2,4.5-0.2,8.9-0.8,13.4c-0.7,5.5-1,11.3,1.6,16.7c1.2,2.6,1.4,5.4,1.2,8.1c1.4,1.3,1.9-0.2,2.7-0.5
	c7.2-2.5,11.8,0.4,12.3,8.1c0.2,2.9,1.2,5.1,3.2,7.1c5.7,5.6,10.1,11.7,10,20.3c0,3,10.1,12.6,13,13c1.2,0.2,1.9-0.1,2.4-1.2
	c1.7-4.1,4.4-2.6,6.8-1c6.3,4.3,11.8,9.3,16.3,15.8c4.8,6.9,10.9,12.9,16.6,19.2c3.6,3.9,7.3,7.8,11.3,11.3
	c7.3,6.2,13.4,14,17.9,21.9c6,10.6,13.1,20.6,19,31.2c4.9,8.9,10.3,17.8,15.6,26.5c8.1,13.2,15.7,26.8,24.8,39.3
	c0.5,0.6,0.6,1.5,0.8,2.3c-3.3,0-6.7,0-10,0c-8.4-10.4-16.4-21.1-23.3-32.7c-12.1-20.4-22.4-41.8-33.8-62.6
	c-7.1-12.8-14.3-25.6-26.5-34.4c-1-0.7-1.7-2.5-3.2-1.8c-1.5,0.7-0.9,2.4-0.9,3.6c-0.1,7.6,0.9,15.2,1.8,22.8c0.3,2.5,0.4,5-0.9,7.3
	c-1,1.7-2.4,2.4-4.2,2.1c-1.9-0.3-1.2-2.1-1.4-3.2c-1.4-8.4-0.7-17.4-6.5-24.6c-0.6-0.7-0.4-2.1-1.8-1.8c-1.1,0.2-1.6,1.3-1.8,2.2
	c-0.5,3.6-0.5,7.3,0.1,10.9c0.7,3.9,1.7,8,1.3,11.8c-1.2,11.6-2,23.3-7.4,34.1c-0.9,1.8-1.8,4-0.9,6.2c0.6,1.5-0.2,2.7-1.6,3.2
	c-4.6,1.7-5.4,5.9-5.7,9.7c-0.5,6.1-3.2,11.3-5.1,17c-2.1,6.1-11.2,10.3-5.6,18.7c-3.9,3.6-0.4,7.8-0.8,11.6c-71.3,0-142.7,0-214,0
	c-0.4-1.7-0.5-3.3,0.1-4.9c1.9-5.3,3.7-10.7,5.9-15.9c2.6-6.1,4.6-11.9-0.5-17.9c-1.7-2-2.3-5-3.3-7.7c-3.9-11.2-4.7-22.6-4-34.3
	c0.1-1-0.2-2-2-2.3c-5.2,13.9-4,28.4-3.6,42.9c-8.8-17.1-10.8-35-7.9-53.8c-7.1,10.8-11.1,22.9-17,34.7c-1.6-2.7-0.7-4.3-0.1-6.1
	c4.8-12.9,9.6-25.8,14.4-38.7c5.5-14.6,10.8-29.2,16.5-43.8c5.2-13.3,8.6-27.2,11.9-41c0.3-1.4,0.5-2.9-0.8-3.6
	c-1.6-0.9-2.1,1-2.9,1.9c-1,1.1-1.8,2.4-2.8,3.5c-12,13.4-26.5,23.8-41.4,33.7c-5.9,3.9-12.1,7.3-17.6,12
	c-14.2,12.1-29.8,22-48.1,26.8c-14.9,3.9-30,4.7-45.4,4.8c-25.1,0.2-47.5-7.5-68.1-21.3c-3.1-2.1-6.4-4-9.9-4.3
	c-3.9-0.4-7.3-1.8-10.6-3.7c-22.3-12.4-42.9-26.9-60.8-45.2c-0.7-0.8-1.4-1.9-2.8-1.4c-0.1,2.9,0.2,5.9,1.7,8.2
	c4.6,7.4,7.4,15.5,10.9,23.4c8.9,19.8,18.5,39.3,28,58.8c6.9,14.1,13.6,28.4,20.5,42.5c6.1,12.5,12.4,24.9,19.6,36.9
	c2.9,4.9,6.2,9.8,7.2,15.7c-1.7,0-3.3,0-5,0c-0.3-1.7-1.1-3.1-2.1-4.4c-5.9-8.7-11.6-17.7-17.9-26.1c-2.5-3.3-3.5-7.7-7.8-9.9
	c5.6,13.5,11.2,27,16.8,40.4C451.2,720.8,367.5,720.8,283.8,720.8z M388.1,379.5c1.5,0.1,3.8-0.7,6-0.8c4-0.3,4.9-2.5,4.2-5.7
	c-2.3-11.3-4.8-22.6-7.4-33.9c-0.2-1-0.4-3.4-2.3-2.4c-1.8,1-2.1-0.3-3.3-0.6c-5.3-1.5-9.6-5-14.6-6.9c-2-0.8-4.4-0.4-5.4,2.2
	c-0.9,2.3-0.4,3.7,1.8,5.4c4.6,3.8,9.3,7.2,14.6,9.9c1.8,0.9,3.8,2.2,2.3,5.1c-1.2,2.3-2.8,2.9-5.3,2.4c-4-0.8-7.6-1.8-9.9-5.7
	c-1.2-2-3.7-3.1-6.1-1.8c-2.2,1.2-1.3,3.3-0.9,5.3c1.1,6.3,3.5,12.1,7,17.3C373.4,375.8,379.3,379.6,388.1,379.5z M400.8,514.3
	c9.1,27.6,17,55.5,20.3,84.4c3.3,29.1,3.8,58.3,0,87.5c8.2-28.8,9.2-58,5.3-87.4C422.6,569.3,414.4,541,400.8,514.3z M776.4,632.9
	c-1.2,2.9-1.8,5.5,0.3,8.2c0.5,0.7,0.6,2,0.3,2.9c-2.9,8.2,0.6,16,1.4,24c0.1,0.6,0.5,1.3,1,1.6c0.7,0.4,1.3-0.2,1.5-0.8
	c1.2-4.7,4.8-8.6,3.5-14.1C782.5,647.2,780,640,776.4,632.9z M975.7,681.2c6.3-14,5.4-28.4,2.6-43
	C976.7,652.5,974.9,666.8,975.7,681.2z M355.8,615c-2.1-16-4.9-31.9-9.2-47.5c-0.9-3.2-2.4-5.5-5-7.7
	C346.8,578.3,352.9,596.2,355.8,615z M353.1,557.9c-0.2,15.2,7.8,28.4,10.2,43.1C360.4,586.5,358.3,571.8,353.1,557.9z M990.8,720.8
	c-0.1-3.9,2-7.9-2.2-11.3c-2.1-1.7,1.5-11.4,4.2-12.1c1-0.3,1.6,0,1.7,1.1c0,1.2,0.4,2.4,0,3.4c-2.4,6.4,0.5,12.6,0.4,18.9
	c26,0,52,0,78,0c-4.6-5.5-8.5-11.9-14.4-15.9c-4.1-2.7-4.4-4.7-2.6-8.5c2.1-4.5,1.3-6.2-3.5-7.8c-1.4-0.5-3-0.5-3.2-2.5
	c-0.2-1.6-0.1-3.6-2.6-3.4c-2.2,0.1-1.9,1.9-2.1,3.3c-0.2,1-0.4,2.1-1.7,2c-1.3-0.1-1.5-1.2-1.5-2.2c-0.1-9.6-1.6-19.5-0.5-28.8
	c1.2-10.1-2.5-17.5-7.5-25.9c-1.7,5.6-3.7,10.1-9.2,12.1c-2,0.7-3.3,3.3-3.4,5.7c-0.5,12-5.6,23.5-4.2,35.8c0.4,3.1-3.1,4.9-5.8,3.4
	c-0.9-0.5-3.3-8.7-2.6-9.4c1.2-1.3,2.3-2.6,0.8-4.3c-1.6-1.8-4-0.1-6.1-1.2c-1.1-0.5-1,2-1.2,3.2c-0.1,0.8,0,1.7-1.4,2.4
	c0-2,0-3.7,0-5.4c0-1.1,0.1-2.6-1.4-2.9c-1.4-0.2-1.9,1.2-2.1,2.3c-0.9,4.2-2.4,8.2-4.3,12c-0.1,0.1,0.4,0.4,0.5,0.6
	c1.6,0.6,1.9-1.9,3.5-1.4c-1.5,2.8-4.9,3.3-6.3,6.7c-2.4,5.6-4,11.8-7,16.9c-2.6,4.4-3.4,8.4-3.2,13.1
	C983.5,720.8,987.2,720.8,990.8,720.8z M1280.8,515.8c-1.5-0.9-2.1,3.6-3.6,0.7c-1.3-2.5-3.4-3.3-5.7-4.3
	c-6.7-2.9-13.5-5.6-19.9-8.8c-17.1-8.5-34.7-15.8-52.5-22.8c-33.4-13.1-65.9-28.2-98.5-43.2c-3.9-1.8-7.8-3.6-11.8-5.3
	c-1.4-0.6-3.1-1-3.9,0.8c-0.7,1.6-0.7,3.3,1.2,4.4c0.9,0.5,1.7,1,2.6,1.4c10.7,5.7,21.4,11.4,32.2,16.9c4.1,2.1,8.4,4.2,12.8,5
	c4.4,0.8,8,2,10.1,6.1c1.2,2.3,2.9,3.2,5.4,2.9c0.3-1.8-2.2-2.4-1.3-5.3c1.9,3.9,5.1,4.5,7.8,6c2.8,1.5,5.8,2.6,8.7,3.5
	c6.6,1.9,10.8,8.3,17.9,9.1c2.7,0.3,5,1.5,7.2,3.1c4.7,3.5,9.1,7.5,15.8,6.4c2.1-0.3,4.2,1.6,6.2,2.9c8.2,5.5,17.7,7,27.1,9.2
	c5.7,1.3,11.5,2.1,17.1,3.7c1.4,0.4,2.7,1.3,3,3c0.4,2.3,1.2,3.8,3.8,1.5c1.1-1,2.8-0.7,3.1,1.1c0.6,3.9,2.5,3.4,5,1.7
	c0.8-0.6,2.1-0.7,2.8,0.1c1.1,1.1-0.5,1.5-0.9,2.3c-0.7,1.4-0.4,2.7,0.9,4c2.2,2.3,5,3.4,7.6,4.9
	C1280.8,523.1,1280.8,519.5,1280.8,515.8z M154.8,720.8c14.7-23.5,29.1-47.3,44.9-70.2c-7.6,4-12.9,10-16.7,17.2
	c-4.4,8.2-9,16.3-14.2,24c-6.4,9.6-11.8,19.9-19,29C151.5,720.8,153.2,720.8,154.8,720.8z M552.4,256.1c3.5-2.6,0.6-5.2-0.5-7.5
	c-2.5-5.1-7.6-8.2-11.1-12.5c-4.3-5.2-8.6-10.6-13.5-15.2c-4.6-4.3-8.8-9.7-15.9-10.5c-1.4-0.2-2.7-1.1-3.3-2.7
	c0.5-0.2,0.9-0.4,1.4-0.5c0.7-0.1,1.3-0.1,2,0c10.4,1.2,18.9,6.2,26.7,13c4.3,3.8,9,7.2,13.5,10.8c-1.7-4.7-3.8-8.8-6.6-12.3
	c-10.9-13.4-23.7-22.7-42.3-19c-3.3,0.6-6.6,0.7-9.9,1c-3.8,0.3-7.7,0.5-11.2,1.8c-4.7,1.8-9,1.6-13.5-0.3c-1.5-0.6-2.9-2.2-4.8-0.9
	c0.5,2.8,3.6,3.5,4.3,5.9c-7.4,4.8-13.6,0-20.5-2.9c0.8,3.8,2.6,5.9,5,7.5c1.1,0.8,3.4,0.7,2.9,2.7c-0.5,1.9-2.4,2-4.1,2
	c-2,0.1-3.9,0-5.8-0.9c-3.2-1.5-6.5-2.8-10.3-4.4c1.2,5.7,5.5,7.4,9.3,9.6c1.1,0.7,3.5,0.3,2.8,2.6c-0.6,2-2.3,2.6-4.4,2.1
	c-3.8-0.8-7.5-2-11.3-5.6c1,5.9,2.8,10.3,7.2,11.7c3.3,1,5.1,2.7,6.2,5.5c0.8,1.9,2,2.3,3.4,1.3c1.9-1.3,4.5-1,6-3.2
	c2,7.1,4.6,9.3,9.5,7.7c-2-2.5-4.3-5-2.6-8.4c1.7-3.2,3.2-6.6,5.4-9.5c4.1-5.5,9.7-8.2,14.7-7.6c-7.6,9.1-7.4,19.9-1,28.4
	c5.2,6.9,15,9.3,20.6,5.6c-4.1-0.9-6.5-4.2-10.6-5.4c-4.6-1.4-9.5-4.5-9-11c0.1-0.9-0.7-2.2,0.6-2.6c1.5-0.5,2,0.9,2.4,1.9
	c0.5,1.4,0.4,3,1,4.3c0.4,1,1,3.2,2.7,1.6c1.9-1.9,2.6-0.6,3.9,0.5c3.6,2.9,7.6,1.5,11.3,0.3c3.3-1.1-0.6-3.3,0.3-5
	c0.4-0.8,0.6-2,0.4-2.9c-0.4-1.9-0.2-3.5,1.6-4.2c1.9-0.8,2.5,1,3.4,2.1c0.7,0.9,1.3,2.2,2.6,0.6c1-1.3,1.8-3.1,3.9-2.1
	c2.2,1.1,1.7,3.3,1.7,5.3c0,5.8-3.6,10-6.7,14.7c7.3-0.9,9.4-6.3,10.1-24.9c3.8,1.1,6.8,3.5,9.7,5.7c6,4.7,13,9,12,18.4
	c-0.1,0.5,0.3,1.4,0.8,1.6c0.9,0.4,1.5-0.3,2.1-0.9c0.9-0.9-0.3-2.8,1.5-3.2c5.5,7.1,5.5,7.1-3.9,10
	C546.2,259.1,549.4,258.3,552.4,256.1z M756.3,205.8c-13-4.6-26.4-6.3-40.2-5.3c-12.7,0.9-23,5.8-29.2,17.5c-0.5,1-1.7,2.2-0.6,3.1
	c1.5,1.3,2.2-0.5,3.1-1.3c5.4-5.1,10.3-10.9,19.2-11.5c-4.7,2.7-9.2,4.6-12.4,8.7c-3,3.9-7.2,6.9-9.5,11.3c-0.5,1-2.8,1.8-1,3.2
	c1.4,1.1,2.2-0.6,3.2-1.4c5.6-4.6,11.1-9.5,18.5-12.5c-7.1,13.6-4.2,23.2,1.8,28.5c5.7,5.1,14.2,7.3,19.5,4.6c-1.7-1.7-4-1.5-6-2
	c-7.3-1.8-12.6-5.4-14.6-13.2c-0.7-2.7-0.7-5.4,1.6-6.5c1.9-0.9,4.1,0.3,5.6,2.7c2.2,3.6,4.4,7.5,8.7,9.3c1,0.4,2.5,0.9,3.3,0.5
	c1.5-0.7,0.4-2.1-0.1-3c-0.9-1.8-0.8-3.3,0.8-4.4c1.5-1.1,1.9-2.1,0.1-3.3c-0.8-0.5-1.6-1.4-0.9-2.5c0.6-1,1.6-1,2.7-0.9
	c1.5,0.1,2.1,1.2,1.7,2.4c-0.7,1.9-0.1,3.1,1.5,4.2c1.7,1.2,2.2,2.9,1.2,4.8c-0.4,0.7-1,1.6,0.2,2c0.9,0.3,1.5-0.2,1.9-1.2
	c1.2-3.3,2.7-6.4,2.3-10.1c-0.2-1.5-0.9-3.8,1.2-4.4c2.2-0.6,2.9,1.7,3.9,3.2c1.3,1.8,2,3.7,1.4,6.1c-0.4,1.6-0.7,3.3,1.2,5.5
	c4.1-7.7,2.9-14.5-1.7-21.7c7.1,0.1,11.6,3.8,15.8,7.6c5.8,5.2,5.5,11.7,1.1,19.3c4.8-2.6,6.1-5.4,6-9c0-2.8,0.8-4.1,3.9-2.8
	c4.9,2,10,1,14.6-0.5c2.8-0.9,6.3-2.3,7-6.5c-4.9-0.6-9.4,2.5-15,0.5c4.6-1.2,8-2.9,9.1-7.6c-3.3,0.2-6.2,0.5-9.1,0.6
	c-1,0.1-2.1-0.1-2.5-1.1c-0.4-0.9,0.1-1.6,0.7-2.2c1.2-1.1,3.5-2,2.5-3.8c-1.1-2.2-3.3,0.1-5-0.1c-0.5-0.1-1,0.1-1.5,0
	c-2.4-0.2-5.6,1-6.8-1.8c-1-2.4,2.5-2.9,3.5-4.7c0.1-0.3,0.1-0.6,0.3-1.2C764.7,205,760.8,207.4,756.3,205.8z M789.1,174.9
	c-8.4-1.5-16.3-3.6-23.8-8c-8-4.7-16.7-1.3-24.8,0.1c-18.2,3.3-36.3,7.5-54.3,11.8c-5.5,1.3-10.5,4.1-13.5,9.4c-1.6,2.9-1.5,5,2.1,6
	c4.8,1.4,9.6,0.3,14.2-0.4c18.5-2.5,36.7-7,55.1-10.4c6.6-1.2,13.3-3.9,20-3.1c8.4,1.1,16.6,2.2,25.1,1c2.9-0.4,6,1.3,9.5-0.1
	C795.7,178.3,792.7,175.5,789.1,174.9z M429.1,184c10.1-0.3,20.2-0.5,29.9-4c1-0.4,2.3-0.6,3.4-0.5c12.2,2,24.5,3.9,36.7,6.2
	c14.7,2.8,29.4,4.8,44.4,4.2c1.4-0.1,3.4,0.6,4.1-1c0.7-1.8-1.5-2.2-2.5-3.2c-1.6-1.5-3.4-2.8-4.6-4.6c-4-5.8-10.1-7.3-16.5-8.9
	c-10.1-2.4-20.4-2.3-30.5-3.6c-11.6-1.5-23.4-3-35.1,0.6c-9,2.8-18.1,5.4-27,8.4c-4.7,1.6-8.9,4.3-11.2,9.7
	C424.1,187.9,425.6,184.1,429.1,184z M679.8,480c-9.4,1.1-18.7,3.4-28.1,2.1c-3.4-0.5-6.5-0.2-9.8,0.4c-8.3,1.4-16.6,4.2-25.1,2.7
	c-15.6-2.7-31.4-3.1-47.1-2.5c-6.6,0.2-12.9-1-18.8-3.6c-5.4-2.4-20.2-0.1-24.3,4.1c-0.9,0.9-2.2,1.8-1.4,3.4
	c0.7,1.4,2.1,1.7,3.4,1.5c8.9-1.4,16.3,2.9,23.9,6.1c4.7,2,4.6,2,6.5-1.9c1.3-2.7,3.6-4.3,6.7-4.1c1.1,0,2.3,0.2,3.4,0.2
	c13.7-0.1,27.5-1.5,41,2.6c8.1,2.5,16.3,1.6,24.3-1.4c4-1.5,8.2-2.8,12.6-2.5c12.7,0.9,25.1-1.2,37.4-4.2c5.2-1.3,10.6-1.6,15.8-3.1
	C693.4,477.4,686.6,479.1,679.8,480z M358,55.8c11.9-15.9,22.7-32.6,31.3-50.6c0.8-1.6,1.4-3.2-0.4-4.3c-3.3-2-11.7,0.1-13.7,3.4
	c-2,3.3-3.9,6.6-5.4,10.1c-4.4,10.2-8.7,20.5-13,30.8c-3.4,8.2-7.7,15.9-11.6,24C351.2,66.2,354.4,60.5,358,55.8z M267.7,298.9
	c4.3-1.4,3.5-5,3.4-8.3c-0.1-2.9-2.6-3.2-4.4-2.7c-5.4,1.5-11.1,1.5-16.3,4.2c-6.9,3.6-12.7,8.7-18.8,13.4c-4.4,3.4-7,8.2-4.3,14.2
	c0.4,1,0,2.7,1.6,2.7c1.3,0,1.6-1.4,2.1-2.5c5.5-12.4,19.4-21.1,33.9-20.8C265.4,299.1,266.6,299.2,267.7,298.9z M281,311.8
	c0.4,1.2,1.2,2.6,2.8,2.4c1.7-0.2,1.2-1.7,1.2-2.8c0.3-10.7,0.5-21.4,4.3-31.6c1.9-4.9,0.3-8.2-3.8-10.7c-2.7-1.6-4.9-2.2-6.4,2
	c-2.3,6.7-1.6,13.7-2.8,20.5C275.8,298.9,278.8,305.2,281,311.8z M1013.6,316c5.5,9.9,8.2,20.5,7.9,31.8c-0.1,5.9,2,11.4,4.3,16.7
	c0.4,0.8,0.8,2,2,1.8c1.3-0.2,1.1-1.5,1.2-2.4c1.5-9.7,1.9-19.5-0.4-29.1c-2.3-9.7-8.2-17-15.3-24.1
	C1012.8,314.5,1012.8,314.5,1013.6,316z M914.3,398.5c0.3-2.4-0.2-4.5-2.1-5.6c-2.3-1.3-1.8-3.2-1.9-5.1c-0.3-5.6,0.6-11.3-1.1-16.8
	c-0.2-0.8-0.2-1.8-1.3-1.8c-1-0.1-1.4,0.8-1.8,1.5c-2.6,5.3-4.5,10.6-3.3,16.7c0.7,3.4,0.6,7.1,1.9,10.2c1.8,4.5,0.7,9.9,4.4,14.3
	c1.3-2.2,2.4-4,3.3-5.7c0.4,0.6-0.3,1.9,1.8,2.9C914.2,405.1,913.9,401.8,914.3,398.5z M844.7,40.8c-3.3-12.1-8.3-23.4-13.3-34.8
	c-2-4.7-5-6.2-9.6-5.5c-1.2,0.2-2.9-0.4-3.5,1.1c-0.6,1.3,0.9,2,1.6,2.9c7.7,10.1,14.9,20.5,20,32.3c1.2,2.8,2,6,4.6,8.5
	C845.4,43.3,845.1,42.1,844.7,40.8z M598.2,402.3c-3.6-2-5.2-5.4-7.1-8.7c-2.4-4.1-5-8.2-9.6-10.4c-2-0.9-3.8-1-5.5,0.6
	c-1.5,1.5-2.4,3.2-1.3,5.3c0.8,1.6,1.3,3.3,2.4,4.9c5.1,7.5,14.4,7.5,21.2,12c1.2,0.8,1.8-0.2,1.7-1.8
	C599.4,403.8,599,402.8,598.2,402.3z M984.6,263.2c0.4-0.2,1.2,0.3,1.7,0.6c7.3,5.9,16.5,10.2,17.5,21.5c0.2,2.4,1,6.8,4.2,6.3
	c2.3-0.4,0.9-4.7,1-7.2c0.9-12.4-12.4-22.3-21.6-23.6c-5.9-0.8-12.2-0.8-18.3-0.3c-1.5,0.1-2.9,0.4-3.9,2.4
	C971.8,260.9,978,266.3,984.6,263.2z M308.9,229.4c-7.8,4.2-13,11.1-18.9,17.3c-0.6,0.6-1,1.2-0.3,2.1c1.8,2.3,3.6,4.7,5.3,7.1
	c1,1.3,2.2,1.9,2.9-0.1c2.1-6.5,6.3-11.9,9.6-17.8c1.6-2.9,4.4-5.4,4.8-8.9C311,228.2,309.9,228.9,308.9,229.4z M958.2,498.9
	c1-3.9-1.7-11.9-5-14.6c-3.4-2.8-5.6-1.9-7.5,1.7c-1.9,3.5,2.5,14.8,6.2,15.9c0.6,0.2,1.3,0.2,1.3,0.2
	C956.2,502.1,957.6,501.3,958.2,498.9z M28.8,537.8c-5.8,3.1-10.1,8.2-16,11.2c-3.9,2-7.1,5.2-11.1,7.3c-2.6,1.4-1.9,5.2-0.6,7.1
	c1.2,1.8,2.5-1,3.8-1.8c8-4.8,14.2-11.8,21.4-17.7c3-2.5,7-4.3,8.4-9C32,535,30.6,536.8,28.8,537.8z M779.5,24.4
	c-5.2-6.8-10.4-13.5-15.4-20.4c-2.5-3.4-5.4-4.4-9.8-2.8c9.3,10.7,18.3,21.1,27.3,31.5C782.3,29.4,781.3,26.8,779.5,24.4z
	 M565.4,399.7c-6.9-5.9-9.3-13.8-9.9-22.6c-0.5-7-0.8-13.9,2.8-20.4c0.6-1,2.4-2.3,1-3.4c-1.8-1.3-2.4,1-3.2,2.1
	c-6.4,9.8-6.9,31,2,41.5c1.9,2.3,4.1,4.2,7.6,4.4C565.5,400.5,565.6,399.9,565.4,399.7z M582.2,252.4c4-12.2-1.2-38.6-16.5-46.6
	C579,218.2,577,236,582.2,252.4z M851.5,317.9c-1.5,2.5-3.3,5-3.8,8c-0.3,1.9-0.7,4.1,1.3,5.5c1.6,1.1,3.4,0.6,5.2,0
	c4-1.3,5.8-4.8,8.1-7.7c0.5-0.7,1.8-1.5,0.4-2.4c-0.8-0.6-1.5,0.2-2,0.9c-1.6,1.8-3.1,3.9-5,5.3c-1.2,0.9-2.8,3-4.8,1
	c-1.5-1.5-0.6-3.2,0.2-4.6c1.3-2.3,2.9-4.4,4.1-6.8c3.3-6.4,7.7-12.5,3.8-20.3C859.9,305.2,855.4,311.4,851.5,317.9z M300.7,114.5
	c12.4-10.4,24.5-21.2,34.4-34.2C323.2,91.3,309.6,100.6,300.7,114.5z M813.9,1c-1.1-1.4-4.2-1-6.2,0c-1.6,0.7-0.7,2.4,0,2.9
	c5.6,4,8.2,10.6,14,15.6C823.3,11,818,6.1,813.9,1z M644.2,390.9c0.2,3.4-3.9,3.1-4.4,5.9c4,0.8,6.6-1.1,8.6-3.9
	c1.2-1.7,1.3-3.9-0.3-5.5c-1.3-1.3-3-2.4-4.9-1.4c-5,2.5-9.6,5.6-12.6,11.4C636.4,396.7,638.8,390.8,644.2,390.9z M563.9,655.9
	c-6.9-19.1-15.9-37.2-24.2-55.7c-2-4.5-2.6-9.7-5.5-14.1c-2.5,2.1-1,4.3-0.5,5.8c10.7,33.3,27.3,64.5,37.4,98.1
	C570.5,678.2,567.9,666.9,563.9,655.9z"/>
<g>
</g>
<g>
</g>
<g>
</g>
<g>
</g>
<g>
</g>
<g>
</g>
<g>
</g>
<g>
</g>
<g>
</g>
<g>
</g>
<g>
</g>
<g>
</g>
<g>
</g>
<g>
</g>
<g>
</g>
</svg>
