<?xml version="1.0" encoding="utf-8"?>
<!-- Generator: Adobe Illustrator 18.0.0, SVG Export Plug-In . SVG Version: 6.00 Build 0)  -->
<!DOCTYPE svg PUBLIC "-//W3C//DTD SVG 1.1//EN" "http://www.w3.org/Graphics/SVG/1.1/DTD/svg11.dtd">
<svg version="1.1" id="Layer_1" xmlns="http://www.w3.org/2000/svg" xmlns:xlink="http://www.w3.org/1999/xlink" x="0px" y="0px"
	 viewBox="0 0 1280.4 720.7" enable-background="new 0 0 1280.4 720.7" xml:space="preserve">
<path d="M250.4,720.7c4.7-12.2,10.9-23.8,14.4-36.5c2.7-9.9,3.4-19.3-1.3-29c-6.7-13.9-7.7-29.4-11.4-44.1c-0.8-3.1-1.1-6.2-1.2-9.4
	c-0.3-9.7-6.1-16.9-10.9-24.5c-7.6-12-18.8-20.9-26.6-32.6c-1.3-1.9-3.9-3.9-3.1-5.9c0.9-2.2,4.3-1.7,6.6-2.2c0.5-0.1,1,0,1.5-0.1
	c6.7-0.3,12.2-1.4,15-9.2c4.7-13,12.2-25.1,10.6-39.7c-0.3-2.9,1.9-3.6,3.4-4.3c8.1-3.5,15.1-8.9,22.9-13c3.7-2,6.2-3.9,6.6-8.4
	c0.2-2.5,0.6-5.3,2.9-7.6c3.8,4.3,3.6,9.8,5,14.6c2.7,8.7,6.2,17.1,9.5,25.6c3.1,8.2,5.5,16.7,10.1,24.3c1,1.7,0.3,3.1-1.3,4.3
	c-2.4,1.7-4.5,4.2-7.2,5.3c-6.6,2.8-10.1,8.8-15,13.3c-8.5,7.8-13.7,18.1-17,28.3c-3.1,9.6-5.9,20.5-0.2,31.3
	c7.9,14.8,8.7,31.6,11.4,47.8c0.8,5.1,0.7,11,3.4,14.8c2.9,4,4.3,9.1,8.2,12.4c1,0.8,3,2.2,3,1.2c0-2.6,4.3-2.3,2.9-4.8
	c-5.8-10.5-5-22.2-5.4-33.3c-0.2-6.7,1.9-14.3,4.9-21c1.6-3.6,3.6-7.2,4.6-10.9c2.1-7.5,7.3-12.3,12.9-17.1c3.9-3.4,7.4-7.4,11-11.2
	c1.2-1.2,2.2-2.4,4-2.7c1.8-0.3,3.6-0.7,5.3-1.4c1.6-0.7,2.9-2.2,2.2-4c-0.8-1.8-2.3-0.3-3.4,0c-11.2,3-20.4,9.1-28.7,16.9
	c-2.4,2.3-5.1,4.3-8,6.7c-1.3-4,0.8-6.4,2.5-8.7c3.8-5.1,5.8-11.1,9.1-16.5c0.7-1.2,1.1-2.8,0-3.7c-1.6-1.2-2.2,0.5-2.9,1.6
	c-2,2.9-4.7,4.9-7.6,6.9c-3.5,2.3-4.3,6.9-6.1,10.5c-3.6,7.3-8.7,13.7-11.1,21.6c-0.3,1.1-1,3-2.6,2.7c-1.7-0.3-1.7-2.1-1.9-3.6
	c-0.9-6.4,0.4-12.6,1.1-18.9c1-8.7,3.4-16.6,6-24.7c0.9-2.8,2.5-4.9,4.3-7.2c6-7.6,11.3-15.8,17.8-23.1c5.2-5.9,10-5.3,14.7,1
	c4.7,6.3,7,14.2,13.4,19.5c2.5,2.1,2.9,6.6,4.7,9.7c3,5.4,6.9,10.1,11,14.7c4,4.6,6.5,10.4,10.4,15c7.2,8.6,12.5,19.2,21.4,25.8
	c9.2,6.8,15.1,16.6,24,23.6c3.8,3,2.3,8.9,3.5,14.4c1.2-4.1,2.3-7.6,1.9-11.2c-1.3-10-1.7-20.2-2.5-30.2c-1.1-15.1-7-28.5-12.8-41.8
	c-4.6-10.5-10.2-20.8-16.5-30.5c-2.8-4.4-5-9.3-7.6-13.8c-1.8-3-5.7-4.2-7-7.8c-1-2.6-2.6-4.9-2.7-7.9c-0.1-1.6-0.4-3.7-1.4-4.6
	c-2.9-2.5-3.9-5.6-5.1-9c-1.7-4.9-5.4-8.6-8.5-12.6c-0.8-1-2.4-2-2.4-3c-0.1-4-2.2-5.1-5.8-4.9c-2.3,0.1-2.7-1.4-2.1-3.4
	c0.6-1.8,1-4.1-0.7-5.1c-4.1-2.4-2.8-5.6-1.6-8.8c2.2-6.1,4.4-12.1,6.9-18.1c0.6-1.4,1.4-2.6-0.3-3.3c-3.4-1.4-4.1-4.6-5.4-7.4
	c-1.2-2.6-1.8-6-6-5.6c-1,0.1-0.9-0.7-0.9-1.3c-0.8-7.3-3.5-14.4-2.5-22c0.5-3.6-0.3-6.9-3.8-9c-1.1-0.7-2.7-2-1.5-3.7
	c1-1.5,2.6-1.9,4.4-1c2.3,1,4.1,2,5.4,4.5c2.6,4.8,6.2,9.2,10.6,12.4c2.8,2,4.4,4.5,5.4,7.2c3.8,11.2,7,22.7,10.8,34
	c1.7,5,4.1,9.8,6.2,14.6c0.8,1.7,1.8,3.6,4,3.2c2.3-0.4,1.3-2.7,1.7-4.1c2.7-9.4-1.2-17.3-4.6-25.7c-5.6-13.9-11.3-27.9-14.4-42.7
	c-3-14.3-4.5-28.7-5.2-44c-3.5,15.4-2.1,30.3-1.6,45.2c0.1,2.4,1.7,5.7-1,6.7c-2.7,1-4.1-2.5-5.1-4.5c-6.8-13.7-11.5-28-11.2-43.6
	c0-1.5,0-3,0-4.5c-0.2-5.8,0.1-11.3,3.5-16.7c5.4-8.6,5.9-19.2,10.3-28.4c1.8-3.7,3.6-7.5,5.8-10.9c5.7-8.8,7.4-18.7,9.3-28.5
	c1.3-6.5,2.1-13.1,6.8-18.4c0.3-0.3,0.1-0.9,0.2-1.8c-3.1-0.2-4.5,2.5-5.7,4.1c-7.5,9.6-16.1,18.2-23.3,27.9
	c-3.2,4.4-7.8,7.6-10.2,12.8c-0.8,1.8-3.5,2.2-5.3,1.2c-1.9-1.1-0.6-2.7-0.2-4.3c2.1-8.5,4.7-16.8,7.2-25.2
	c2-6.8,5.8-12.1,10.4-17.1c0.8-0.9,2.1-1.9,2.1-2.7c-0.6-7.3,5-10.2,9.8-14.1c-2.7-1.3-5-0.1-6.7,0.9c-13.8,8.2-26.7,17.5-33.2,32.9
	c-2.1,5.1-4.6,9.9-7.1,14.7c-0.5,0.9-1.1,1.6-1.7,2.5c-2-2-0.9-3.5-0.6-4.7c2.7-10.6,3.3-22.1,8.4-31.8
	c5.9-11.3,10.8-23.3,21.3-31.7c7.2-5.8,15.9-7.2,24.1-10.1c11.3-4,22.5-8.1,32.1-15.5c12.5-9.6,21.8-21.7,26.8-36.7
	c2.7-7.9,4.8-16,7.2-24c-0.4-0.2-0.9-0.3-1.3-0.5c-1.4,3.4-2.7,6.9-4.3,10.3c-4,8.4-9,16.3-14.8,23.5c-6.6,8.4-15.9,13.6-25.5,18.5
	c-15.9,8.1-33.3,11-50.1,15.9c-3.6,1.1-7.2,2.4-10.8,3.6c-1.8,0.6-3.7,0.3-4.4-1.2c-1.1-2.3,1.6-2.3,2.8-3.2
	c8.4-6.7,17.5-12.3,27.1-17.1c9-4.6,18-9.1,26.9-14.1c-4.3,1.5-8.7,3-13,4.5c-0.3,0.1-0.6,0.3-0.9,0.4c-2.7,0.9-6.5,3.1-8.1,0.7
	c-1.9-2.9,3.3-3.2,4.6-6.1c-10.3,4.7-21.3,6.2-31.3,10.6c-1,0.5-2.1,2.5-3.4,1c-1.1-1.3-1-3.3,0.3-4.6c2.1-2.3,4.3-4.6,6.2-7
	c6.7-8.4,15.7-14.1,24-20.6c7.8-6.1,15.7-12.1,22.8-18.9c4.8-4.5,9-10.1,11.9-16.2c-1.2-1.1-2.1-0.4-2.6,0.4
	c-6,8.7-15.3,13.1-23.8,18.4c-12.2,7.7-24.8,14.9-35.7,24.4c-4.2,3.6-8.5,7.8-11.2,13.1c-0.5,1.1-1.4,2.2-2.7,1.5
	c-1-0.5-0.7-1.7-0.3-2.7c4.5-12.4,10.6-23.8,20.1-33.2c10.9-10.8,23.1-20.1,35.4-29.3c5.7-4.3,11.8-9,15.6-17
	c-2,1.3-3.4,1.8-4.3,2.8c-9.5,9.8-23,13-33.9,20.5c-1.2,0.8-2.7,1-3.6-0.2c-0.9-1.1,0.5-2.1,1.1-3c0.9-1.2,1.9-2.3,1.7-4.7
	c-8.7,5.7-10.3,16.3-17.9,22.3c-7.3,5.8-11.8,14.5-18.6,21.6c-1.5-2.1-1.4-4.2-0.7-5.9c4.4-10.9,8.8-22,18.2-29.9
	c6.7-5.6,13.7-11,21.1-15.7c5.8-3.7,10.7-8.3,16.1-12.3c11.5-8.3,22.7-17.3,32.4-27.8c1.4-1.5,3-2.9,3.9-5.7
	C364.5,51.5,349.6,63.8,332,73c0.3-3.4,2.7-4.6,4.4-5.6c16.1-9.7,28.2-23.5,39.8-37.8c6.6-8.2,11.1-17.6,16.7-26.5
	c1.3-2.1,2.5-2.7,4.5-2.7c7.7,0,15.3,0,23,0c1.3,0,3-0.4,3.6,1c0.7,1.6-0.5,2.7-1.6,3.8c-8,8.2-15,17.1-21.4,27.4
	c5.5-1.9,7.6-6.7,11.1-9.9c8.6-7.7,17.5-14.7,27.3-20.7c0.4-0.3,0.7-0.8,1.1-1c3-1.2,7-1.9,9,0.1c1.8,1.8-2.1,3.6-3.6,4.9
	c-6.8,6.3-13.1,13-18.6,20.5c-6.5,8.9-11.2,18.7-16.5,28.2c-3.4,6.1-7,12.1-10.9,18.9c11.2-8.8,18-20.5,27.7-29.6
	c-5.3,13.8-14.3,25.2-23.8,36.2c-9.6,11-20.2,21-31.7,30.1c9.6-3.2,16.1-11.5,25.7-14.9c-3.1,6.4-9.3,10-13.3,15.7
	c7.8-4.9,16.7-8.1,23.8-14.7c0.4,9.3-26.6,37.2-45.5,50.1c10.2-1.7,39-25.5,49.5-37.9c13.7-16.2,24.2-34.5,35.3-53
	c2.1,3.1,0.5,5.3-0.2,7.2c-6.6,17.7-13.4,35.3-19.9,53c-5.7,15.7-7.4,32.2-8.7,48.8c-0.6,7.7-1.8,15.5-2.9,23.2
	c-1.6,11.2-1.8,22.4-3.9,33.6c-1.7,9.4-4.7,18.6-5.6,28.2c-1.5,15.1-1.8,30.1-0.9,45.2c1,16.5,4.6,32.5,7.5,48.6
	c2.7,15.1,6.8,30,9.7,45.2c4.1,21,9.9,41.6,15.1,62.3c6.7,26.2,16.1,51.3,31.5,73.9c9.1,13.4,19.1,26.4,31.5,36.8
	c11.8,10,24.3,19.3,37.8,27.1c10.2,5.8,20.1,12.1,29.9,18.5c9.6,6.3,20.3,9.3,31.4,11.7c12.4,2.7,24.8,4,37.4,4.7
	c19.4,1.1,36.9-4.8,54.2-12.7c17.3-7.9,31.7-19.8,46-32.1c10-8.7,20.1-17.4,29-27.2c14.7-16.3,29.2-32.7,38.2-53.1
	c11.9-26.9,21.6-54.5,28.5-83.1c2.5-10.1,5.4-20.1,8.2-30.2c0.9-3.2,2.2-4.5,5.6-1.9c4.6,3.6,9.8,6.2,15.9,6.3
	c1.5,0,3.3,0.3,3.3,2.3c0,2-1.7,2.1-3.2,2.3c-4.3,0.7-6.3,3.9-9,6.9c-7.6,8.4-8.6,19.9-14.6,29.1c-2.2,3.3-0.9,9-2.6,13.4
	c-1.1,2.7-1.4,5.6-5.2,6.5c-2.6,0.6-2.4,3.7-2.5,5.9c-0.1,4,0.9,7.9-2.6,11.4c-1.9,1.9-0.5,5.1,0.3,7.6c1.1,3.2,2.1,6.4,2,9.7
	c-0.5,14.5,1.8,29,5.6,42.7c4,14.2,9.1,28.2,17.2,41c8.7,13.8,20,25.5,33.1,34.4c14.1,9.6,28.8,19.4,46.6,22.1
	c0.6,0.1,1.2,0.6,2.1-0.3c-3-3.8-7.5-4.8-11.7-6.2c-5-1.7-9.8-3.4-14.6-6.2c-20.4-11.6-33.8-29.4-47-47.9
	c-8.6-12-13.3-25.5-18.8-38.7c-2.1-4.9-2.6-10.5-3.8-15.8c-0.2-1.1-0.2-2.5,1.3-2.8c1.6-0.3,1.7,1.1,2.1,2.2
	c2.1,6.4,6.2,11.5,10.8,16.3c-0.9-4.9-3.5-9.6-2.7-14.4c1.2-7.3,0.6-14.3-0.7-21.4c-0.3-1.7-0.4-3.6,1.2-6.2
	c6.7,15.5,11.6,31.3,24.2,42.8c12.3,11.2,25.6,20.7,41.6,26.3c-4.3-3.6-9.4-6.5-12.7-10.8c-7.7-10-16.8-19.1-22.3-30.7
	c-0.6-1.2-1.6-2.7-0.2-3.6c1.6-1,2.2,1,2.9,1.9c7.2,8.9,14.8,17.4,24.6,23.6c0.8,0.5,1.6,1.3,2.5,1.5c9.4,1.6,17.8,6.8,26.9,8.4
	c10.1,1.7,15.6,6.4,18.4,15.7c1,3.3,3.8,4.8,7.5,3.8c7.3-1.9,14.8-3.2,21.6-6.9c1.1-0.6,2-1.2,2.7-2.6c-6.3-2.8-13-1-19.5-2.4
	c5.5-1.7,11.3,0,17.2-1.4c-4.3-3.2-9.1-3-13.6-3.6c-3.7-0.5-7-1.6-10.5-2.9c-8.1-2.8-16.6-4.5-23.2-10.6c-7.4-6.9-17-10.5-24.7-17.4
	c-5.7-5.2-9.7-11.5-14.5-17.2c-1.5-1.8-2.6-4.1-2.3-7.3c16.8,19,36.6,32.5,62.9,34.1c-0.2,0.5-0.4,0.9-0.6,1.4
	c-2.5,1.3-4.9,2.5-7.4,3.9c-0.8,0.5-2.1,0.9-1.9,2c0.2,1.3,1.5,1.8,2.6,1.9c1.5,0.2,3,0.1,4.5-0.1c12.3-1.5,24.5-1.7,36.3,3.1
	c1,0.4,2.8,0.1,2.7,1.6c-0.5,5.7,2.8,3.5,5.3,2.6c5.1-1.9,10-4.3,15.1-5.9c4.7-1.5,9.6-2.2,14.4-3.2c1.9-0.4,4.5-0.3,5.2-2.2
	c0.8-2-1.6-3.1-2.8-4.2c-7.8-7.2-15.5-14.5-24-20.9c-1.2-0.9-2.7-1.8-4-1.7c-6.4,0.4-11.7-3.2-17.7-4.6c-5.5-1.3-10.4-4.8-12.7-9.7
	c-8-16.8-23.5-23.7-39.1-30.8c-2.6-1.2-5.1-2.2-7.6-3.5c-3.8-2-6.2-0.3-5.6,3.9c1,6.9,1.8,13.9,3.8,20.5c1.7,5.5,1.7,11.1,2.9,16.6
	c0.2,1,0.3,2.2-0.6,2.7c-1.2,0.7-2.2-0.2-3.2-0.8c-14.9-8.4-21.8-22.1-25.4-38c-2.1-9.4-1.8-9.9-11.3-10.2
	c-7.8-0.3-15.6-1.2-23.4-1.1c-4.1,0-7.8-1.2-11.7-2.2c-1.2-0.3-2.3-0.8-2.3-2.2c0.1-1.4,1.4-1.8,2.5-2c1.3-0.3,2.7-0.4,4-0.3
	c11.9,1.3,23.8-0.8,35.7-1.2c5.7-0.2,11.3-2.3,17.3-1.9c12.8,0.7,24.5,4.4,35.5,10.8c5.2,3,11.2,4.8,15.6,10.5
	c-1.4-5.2-2.5-7.6-5.3-9c-2.4-1.2-3.1-2.9-2.8-5.2c0.6-4.5-1.4-9.2,1.9-13.5c2.5-3.2,5-2.9,6.9-0.4c3.4,4.8,7,9.6,10.4,14.3
	c3.9,5.4,7.3,10.9,10.2,16.8c0.6,1.2,1.5,2.3,1.2,3.7c-1,5.5,2.2,8.8,5.7,12.4c6.2,6.5,12.9,12,21.3,15.1c2.5,0.9,4.6,2.6,6.5,4.5
	c9.3,9.5,19.6,18.1,27.5,28.8c7.2,9.7,14.9,18.9,21.2,29.3c7.1,11.6,14.7,22.8,20.9,35c6.5,12.9,13.5,25.5,20,38.3
	c7,13.7,14.7,27.1,21.8,40.8c3.6,7,9.4,12.8,14,19.3c7.2,10.3,15.6,19.7,24,29c0.7,0.8,1.1,1.6,0.8,2.7c-1,0-2,0-3,0
	c-0.9-1.2-1.7-2.6-2.8-3.4c-15-9.9-25.2-25-38.8-36.3c-1.1-0.9-2-2.2-2.7-3.5c-12.4-22-24.7-44-35.9-66.6
	c-7.1-14.3-14.6-28.3-21.6-42.6c-5.6-11.4-12.3-22.3-19.9-32.7c-1.1-1.5-1.8-2.2-4-1.7c-13.2,2.5-26.2,5.5-39,9.7
	c-4,1.3-5.4,3.3-5.9,6.7c-0.9,5.7-1.9,11.4-5,16.5c-4.5,7.4-7.9,15.3-11,23.4c-1.7,4.4-3.5,9.1,1,13.3c0.6,0.6,1.8,1.7,0.8,3
	c-6.2-0.6-7.3,0.1-8.7,6.4c-3.7,16.4-6.7,32.8-4,49.7c0.5,3.1,1,6.9,3.6,8.3c2.9,1.6,5.4-1.6,7.5-3.6c0.2-0.2,0.5-0.5,0.7-0.7
	c1.4-1.3,3.1-1.8,4.5-0.5c1.7,1.5,1.1,3.3-0.2,4.9c-1.2,1.5-2.8,2.4-4.6,2.9c-2.5,0.7-4.5,2.1-6.5,3.7c-1.7,1.3-1.4,3.2-0.5,5
	c0.9,1.9,2.1,0.7,3.3,0.3c1.2-0.4,2.6-0.5,3.9-0.4c1.8,0,4.2-0.4,4.4,2c0.2,2-2.1,2.1-3.7,2.6c-4.6,1.3-4.8,2.9-3.4,7.6
	c2.8,8.8,8.3,16.7,9.4,26.1c-56.3,0-112.7,0-169,0c0-2.6-0.1-5.3-0.1-7.9c0-2-0.5-3.4-2.6-4.2c-2-0.8-3.8-0.1-5.1,1
	c-1.5,1.3-1,3.3-0.2,5.1c1,2,3.2,3.5,3,6.1c-17.7,0-35.3,0-53,0c-0.9-6.4,1.1-12.5,2.7-18.5c0.5-1.9,0.5-3.2-0.1-5.1
	c-2.4-6.9-5.2-13.7-5.9-21c-0.3-3.3-0.8-6.5-1.7-10.4c-6.3,11.8-0.3,23.4-1.5,34.8c-1.4-3.3-4.2-5.5-5.2-8.6
	c-3.6-11.3-7-22.7-6.6-34.8c0-0.7,0.7-1.6-0.4-2.2c-2.1-1.2-2.2-1.5-1.5-3.3c0.6-1.7,1.7-3.3,1.9-5.1c2-14.4,6.9-27.9,11.3-41.7
	c4-12.7,7.2-25.7,10.1-39.1c-1.3,0.4-2.2,0.4-2.8,0.9c-7,5.8-14.2,11.4-20.8,17.7c-15.7,14.9-32.5,27.9-53.2,35.1
	c-13.5,4.7-27,9.1-41.6,8.7c-9.3-0.3-18.6,0.2-27.9-1c-11.9-1.5-23.7-3.8-34.4-9.1c-8-3.9-16.5-6.8-24.2-11.3
	c-8.6-5-17.8-8.9-25.9-14.9c-16.3-12-32.5-24-45.8-39.6c-4.2-4.9-9-9.2-13.3-14.1c-3.6-4.2-6.4-9-10.6-12.8c0.6,4.8,1.1,9.6,2.7,14
	c15.9,44.1,35.8,86.4,56.1,128.5c8.6,17.8,17.7,35.3,26.6,52.9c-0.7,0-1.3,0-2,0c-3.8-4.2-6.2-9.4-9.2-14.2
	c-12.4-20.5-26.1-40.2-37.1-61.5c-2.9-5.7-6.2-11.2-9.3-16.8c2.6,8.1,6.1,15.9,8.8,23.8c8.1,23.3,18.1,45.9,27.7,68.6
	C433.8,720.7,342.1,720.7,250.4,720.7z M397.7,282.3c-5.2,3.5-8.6,10.7-6.8,15.8c1.7,4.9,2.4,9.9,3.3,15c1.5,8.7-4.5,14.8-13.2,12.6
	c-10.6-2.8-15.8-4.1-17.4-17.6c-0.7-6-2-12.1,2.3-18.1c4.8-6.6,10.6-12.1,16.6-17.4c3.1-2.7,4.7-7.6,3.3-11.5
	c-2.2-6.1-8.1-7.4-13-9.9c-1.6-0.9-3.4-2.2-5.6-1.7c-6.5,1.6-11.7,7.1-11.4,13.9c0.4,9.9-2.6,19.3-3.4,29c-0.3,3.3,0.3,6.5-0.3,9.7
	c-2.6,12.7-2.1,25.4,2.4,37.5c3.6,9.7,11.3,17,17.1,25.4c4.9,7.1,10.4,12.6,19.6,14.8c8.6,2.1,16.5-6.3,17.2-13.4
	c1-10.4-1.6-20.3-3.3-30.3c-2.5-14.4-7-28.6-6-43.5C399.2,289.2,398.2,285.8,397.7,282.3z M378.5,513.4c-3.6-1.3-4.9-3.7-6.3-6.2
	c-2.9-5.4-5.2-11-8.4-16.3c-3.1-5-7.1-9.2-10.1-14.1c-0.9-1.4-0.9-4.4-3.4-3.2c-2.4,1.1-1.8,3.7-0.9,5.8c1.7,4,2.5,8.3,4.3,12.4
	c3.4,7.8,6.2,15.8,12.3,22.3c4.3,4.6,4.7,11.2,8.1,16.4c7.5,11.5,13.2,24,20.7,35.5c8,12.3,11.6,26.7,16.7,40.7
	c1.3-2.3,0.2-4.1-0.3-5.9c-1.7-5.7-3.5-11.3-4.8-17.1c-0.4-2-1.4-5.6,1-6.2c2.3-0.5,3.1,3.1,3.7,5.1c3.1,11.3,8,21.9,10.7,33.3
	c0.1-9.2-0.6-18.5-3.6-27c-2.4-6.8-3-13.8-4.5-20.6c-1.5-6.7-3-13.5-5.1-20c-3.5-10.6-8.3-20.7-12.3-31.2c-1.9-5-5.4-9.1-7.4-14.1
	c-3.6-9.2-5.6-19-11.7-27.1c-2.3-3-10.2-5.5-13.3-3.5c-1,0.6-1.3,1.6-0.9,2.6c3,7,3,14.9,7.7,21.4
	C374.4,501.2,377.8,506.4,378.5,513.4z M897.8,640.6c0.3-0.4,0.5-0.9,0.8-1.3c-2.9-4-7.4-6-11.6-8.2c-2.8-1.4-5.9-2.2-8.6-3.7
	c-7.8-4.4-12.4-12.3-19.3-17.9c-10.1-8.1-17.4-19.2-23.8-30.7c-9.5-17.1-13.9-35.7-17.4-54.5c-1,1-0.9,2.1-0.6,3.5
	c0.7,3.4,0.2,6.9,0.2,10.4c0,5-0.2,10.2,1.5,15.2c2.6,7.5,5.4,14.9,7.6,22.5c2.4,8.3,5.5,16.2,10.1,23.4c6.5,10,17.1,15.9,25,24.6
	c0.2,0.2,0.6,0.4,0.9,0.5c6.2,1.9,11.7,5.3,17.4,8.3C885.7,635.5,891.8,637.9,897.8,640.6z M767.3,654.3c-3.8,6-4.8,21.7-1.8,28.2
	c2.3-4.3,2.3-9.2,3.7-13.7C770.7,663.8,772.5,658.8,767.3,654.3z M1280.4,468.7c-7.6-3.9-14.1-9.3-20.9-14.2
	c-11-7.9-22.9-13.9-34.9-19.9c-10.5-5.2-21.7-9.1-32.3-14c-15.9-7.4-31.7-15.1-48.3-21.1c-1.7-0.6-4.1-2.5-5.1,0.1
	c-0.8,2.2,1.9,3.3,3.7,3.9c3.4,1,6.4,2.9,8.6,5.5c1.7,2.1,3.6,3.7,5.9,4.2c4.6,1.1,7.8,5.7,13.2,5c0.5-0.1,1.3,0.5,1.6,1
	c2.7,4.4,7.3,6.3,11.5,8.6c7.5,4.2,15.3,7.9,23,11.7c19.5,9.6,38.8,19.5,56.6,32.1c5.3,3.8,11.6,6.6,17.4,9.9
	C1280.4,477.4,1280.4,473.1,1280.4,468.7z M544,241.3c1.4-3.8,0.3-7.7,0.6-11.6c7.2,2.5,12,8.1,18.1,11.7
	c-1.7-5.7-6.5-8.7-10.4-12.3c-4-3.7-7.8-7.6-11.5-11.6c-3.6-3.9-9.4-4.7-13.5-8.4c2.3,0,4.3-0.3,6.3,0.1c5.5,1,11.6,0.8,15.8,5.1
	c6.5,6.5,14.5,11,21.1,17.3c1.3,1.2,3,3.1,5.8,2.3c-7.2-8.5-13.4-17.3-21.4-24.6c-3.4-3.1-7.3-5.7-11.6-6.5
	c-11.1-2.3-22.7-2.3-33.6,0.3c-7.7,1.8-14.2,1.8-20.9-1.9c-0.9-0.5-1.8-0.9-2.9,0.1c0.6,0.9,1.3,1.8,1.8,2.8c0.7,1.5,3.8,1.7,3,3.4
	c-1,2-3.6,2.6-6,2.9c-1.9,0.2-3.5-0.7-5.2-1.3c-2.6-0.9-6.1-4.2-7.6-2.2c-1.3,1.8,2.7,4.3,4.9,6c2.1,1.5,1.3,2.7-0.3,3.2
	c-2.8,0.8-5.7,2.1-8.7,1c-2.3-0.8-5.7-3.5-6.9-1.3c-1.3,2.6,3.4,3.3,4.9,5.3c0.3,0.4,0.8,0.6,1.2,0.9c1.1,0.8,3,1,2.1,3.2
	c-0.8,1.9-2.3,2.4-4,2.2c-3-0.4-5.9-0.9-8.5-2.5c-0.8-0.5-1.7-1.4-2.6-0.2c-0.8,1.1,0.3,1.8,0.9,2.5c2.2,2.5,4.5,5,8,5.6
	c2,0.3,4,1.2,4.4,2.8c1.4,4.7,4.3,3.2,6.9,2c3-1.4,4.4-1.4,4.9,2.5c0.6,3.9,2.6,7,7.7,6.7c-6.1-12.6,0.8-24,16.3-28.1
	c-5.3,7.8-10.1,15.7-4.9,25.9c3,5.8,13.2,12.2,19.7,11.5c1.4-0.2,2.8-0.4,3.1-2c0.3-1.6-0.5-2.9-2.1-3.5c-1.2-0.4-2.5-0.9-3.8-1.1
	c-5.4-0.8-12.5-7.6-13.4-13c-0.2-1.5-0.5-3.3,1.3-3.9c2-0.6,2.9,1.3,3.6,2.6c0.5,1,0.5,2.3,0.5,3.4c0.1,3.4,1.6,5.8,4.9,6.6
	c7,1.6,13.7,0.3,20.1-2.7c0.7-0.3,1.2-1.2,0.7-2.1c-6.6,0.4-6.5,0.2-6.7-6.5c-0.1-2.5,0.3-3.9,2.6-4.4c2.4-0.5,2.5,1.6,3.1,3.1
	c1,3.1,2.4,4.1,4.5,0.7c0.7-1.2,1.4-2.4,3.1-1.8c1.4,0.5,1.8,1.9,2.2,3.2c0.4,1.2-0.2,2.3-0.3,3.4c-0.6,4.2-2.9,7.8-4.7,12.7
	C541.9,248.6,542.7,244.8,544,241.3z M392.8,600.7c-2.9-7.5-7.8-14.3-8.9-22.4c-0.7-5-3.1-9.2-5.7-13.1c-1.8-2.7-3.1-5.3-3.5-8.5
	c-0.4-2.5-1.7-4.6-3.1-6.7c-5.5-8.7-11.3-17-15.1-26.8c-2.6-6.7-7-12.8-11-18.8c-2.5-3.7-6.7-1.9-10.2-1.6c-1.9,0.2-2.4,2.3-2,4
	c1.5,7,0.1,14.3,2.9,21.1c1.3,3.1,2.9,6,3.8,9.2c4.2,16.4,8.6,32.8,21.4,45.2c0.1,0.1,0.2,0.2,0.3,0.4c5.1,8.2,8.3,17.7,16.1,24.1
	c0.6,0.5,0.7,1.5,1,2.3c1.7,5.8,4.9,10.5,9.5,14.3c4.4,3.7,6.8,9.3,12.8,12.8C400.7,623.1,397.1,611.8,392.8,600.7z M741.8,259.3
	c-6.6-2.5-12.2-6.2-13.8-13.7c-0.4-2.1-0.5-4.8,1.8-5.6c2.1-0.7,4.4,0,5.8,2.6c1.5,2.7,3.3,5.4,5.5,7.5c5.3,4.8,15.2,4.5,17.3-7.5
	c0.3-2-0.3-5.4,2.9-5.4c3.3,0,3.6,3.5,4.5,5.9c0.6,1.5,0.5,3.3-0.3,4.9c-0.5,1-1.8,2,0.1,2.7c1.5,0.5,2.5-0.1,3-1.7
	c1-3.2,1.2-6.5,0.8-9.8c-0.4-3.6-2.5-6.5-3.4-10.1c8.7,1.4,14.5,5.5,18.3,12.8c2.8,5.3,2.8,10.6-2,15.8c6.1-1.7,7.1-3.8,7.5-13.1
	c13.5,3.8,24.2,1,28.2-6.1c-3.4,0-6.6-0.1-9.9,0.7c-4.4,1-7.1,0.3-9.5-2.1c5.9,1,9.9-1.5,13.2-5.9c-3.3-1.8-6.2,0.5-9.1,0.2
	c-1.2-0.1-2.5-0.3-3.1-1.4c-0.8-1.5,1-1.8,1.7-2.5c1.1-1.1,2.8-2,1.5-4.4c-2.5,1.4-5.3,1.7-8,1.7c-1.1,0-2.9,0.1-3.6-1.3
	c-0.8-1.7,1-2.1,1.9-2.9c0.8-0.7,2-1.3,1-3.3c-3.6,1.4-7.4,3-11.4,1.6c-5.2-1.8-10.2-3.9-15.4-5.5c-8.9-2.8-17.8-5.8-27.2-4.9
	c-5.5,0.5-11.7,0-16.2,3.9c-6.9,6-13.1,12.7-18.1,20.6c4.9-2,8.7-5.7,12.3-9.4c8.8-9,19.8-9.9,31.3-8.9c-8.4,0.6-16.2,2.6-23,7.8
	c-6.4,5-12.1,10.7-16.9,17.3c4.6-2.4,8.7-5.3,12.9-8.3c0.9-0.7,1.8-2,3-1.2c1.2,0.8,0.6,2.2,0,3.1c-4.6,7.5-2.6,14.4,2.3,20.7
	c4.5,5.8,11.6,11.2,20.4,7.3C745.4,260.6,743.5,260,741.8,259.3z M770.6,176.6c-19.1,3.2-38.1,6.5-57.2,10
	c-5.9,1.1-10.2,4.5-12.7,10.1c-1.7,3.8-0.2,6.1,4,6.3c5,0.3,9.8-1.6,14.8-1.9c19.9-1.1,39.3-5.3,58.8-9.5c3.7-0.8,7.4-2,11.2-0.6
	c10.1,3.7,20.8,0.8,31.1,2.9c1,0.2,2.6,0.5,3.1-0.8c0.4-1.3-0.8-2.1-1.7-2.8c-3.4-2.5-7.1-3.9-11.2-5.1c-5.3-1.5-11.6-0.4-16-4.6
	c-4.4-4.3-9.7-4.5-15.2-4.1C776.6,176.6,773.5,176.2,770.6,176.6z M566.4,196c2.5-0.4,6.1,1.4,7.3-1.5c0.9-2.3-3.1-2.9-4.2-4.8
	c-0.4-0.7-1.1-1.2-1.6-1.9c-3.4-5.5-9.1-7.4-14.8-9.2c-5.9-1.9-12-2.2-18.1-3.1c-11.5-1.7-23.1-2.2-34.6-3.8
	c-9.6-1.4-19.7-3.2-28.9,2.8c-3.6,2.3-8,3.3-11.7,5.4c-3.8,2.2-8.1,3.9-10.5,8.1c-0.4,0.7-1.1,1.4-0.4,2.2c0.7,0.9,1.5,0.4,2.2,0
	c4.4-2.5,9.6-2.5,14.3-4.2c11.5-4.3,22.6-3.8,34.3-0.1c13.1,4.2,27,5,40.6,7.1c7.7,1.2,15.2,3.6,22.5,3
	C564.4,196.1,565.4,196.2,566.4,196z M934.4,183.3c1.7,12.3,0,24.1-2.7,36c-2.2,9.5-6.4,18.6-8.3,28.1c-2.2,10.6-2.4,21.6-3.4,32.5
	c-1,11.1-3.4,21.9-5.6,32.7c-0.1,0.3-0.7,0.5-1,0.7c-1.6-1.3,0.4-4.4-3.6-4.7c4.5,17.4-5.1,32.9-6.5,49.6c2.6-0.2,3.5-1.9,4.5-3.4
	c5.9-8.4,11.4-17,15.5-26.4c3.9-9.1,8.2-18.2,7.4-28.5c-0.1-1.9,0.3-4-2.2-5.5c-4.2,8.9-8.3,17.7-12.6,27c-1.6-2.2-1-3.4-0.5-4.6
	c6.3-15,10.2-30.7,14.3-46.4c3.4-13.2,4.9-26.7,7-40.1c1.3-7.9,3-15.6,2.9-23.6c-0.1-4.6-2.5-8.8-2.1-13.7
	c0.5-6.1-0.7-12.2-1.7-18.3c-0.5-3,0.4-6.3-3.7-9.7C933,172,933.7,177.7,934.4,183.3z M269.8,244c0.2-3.9-3.2-4.5-5.4-5.6
	c-2-1-3.1,1.8-4.3,3.3c-6.2,7.5-10.1,16.6-17.1,23.5c-3.1,3-6.2,6.1-8.3,9.9c-3,5.3-7,9.6-11.9,13.1c-16,11.4-33.6,20-50.8,29.4
	c-10.3,5.6-21.1,10.3-31.5,15.7c-15.3,7.9-31.3,14.3-46.6,22.2c-4.2,2.2-8.4,4.4-13.4,7.1c2.8,1,4.1,0.4,5.5-0.2
	c18.3-8,37.1-15.1,54.9-24.3c7.7-3.9,16.1-6.1,23.7-10.1c6.8-3.5,13.9-6,20.9-8.9c9.7-4,19-9.1,27.4-15.5
	c10.7-8.2,20.5-17.6,29.3-27.8c6.9-7.9,13.1-16.5,18.9-25.4c0.8-1.2,1.1-3.7,3.2-3.2c1.8,0.5,2.7,2.3,2.7,4.4c0,1.5,0.5,2.9,2.6,4.8
	C269.7,251.6,269.6,247.8,269.8,244z M684,497.5c8.9-1.3,16.7-6.6,25.9-6.6c1.4,0,2.8-0.9,2.7-2.4c-0.1-1.5-1.8-1-2.8-1.4
	c-2.9-1-5.7-1.1-8.6,0.6c-9.7,5.7-20.7,6.4-31.3,6.1c-8.8-0.2-17.2,0-25.5,2.5c-4.4,1.3-9,1.7-13.2-0.1c-7-3-14.2-2.9-21.5-2.9
	c-10.3,0.1-20.5-1.4-30.6-3.1c-2.6-0.4-5.3-1-5.5-4.7c-0.1-2.1-1.8-2.1-3.4-2.1c-7.3-0.3-14.1,2.1-20.7,4.6
	c-1.4,0.5-3.2,1.9-2.8,3.7c0.5,2,2.7,2.4,4.5,2.1c2.7-0.4,5.6-0.8,7.7,0.7c5.2,3.7,12.1,5,15.1,11.5c0.9,1.8,3.1,2.4,5,3
	c2,0.5,3.4,1.4,2.8-2.2c-1.1-6.2,1-8.3,7.2-9.1c1.7-0.2,3.2,0,4.9,0.2c4.4,0.4,8.9,1.1,13.3,0.7c5-0.5,9.6,0.4,14.4,1.6
	c7.8,1.9,15.9,4.8,23.9,1.5c7.7-3.1,15.6-4.4,23.5-3.6C674.4,497.7,679.2,498.2,684,497.5z M271.9,367.5c6.2,2.3,12.8,3.2,19.5,3.5
	c1.1,0,3.2-0.4,2.5-1.4c-2.1-3.4-0.4-7.2-2.1-10.6c-3.1-6.4-5-13.3-6.5-20.2c-1.7-7.8-4.5-15.4-2.9-23.9c1.1-5.8,2-12.1,0.3-18.2
	c-0.4-1.4-0.2-3.3-2-3.6c-2-0.3-3,1.2-3.5,2.9c-0.7,2.4-0.8,4.9-1.6,7.3c-5.9,17.9-4.2,36.8-6.8,54.6
	C269.6,361.5,267.6,366,271.9,367.5z M224.6,493c-11.6,5.5-23.3,10.8-35.1,16c-5.6,2.4-11.3,4.8-16.5,8.1c-5.1,3.3-11,5.1-16.5,8
	c-10.1,5.2-13.4,14.6-18.5,23.3c10.9-4.9,22.6-5.1,33.8-7.7c11.4-2.6,23.3-0.4,34.6-3.3c-8-1.6-15.8-3.6-24-2.3
	c-8.1,1.3-16.2,1.9-24.4,2.8c23.5-17.9,48.2-33.8,74.9-46.4C229.6,490.6,227,491.8,224.6,493z M819,30.6c0.3,0.7,1.5,2.8,3,1.4
	c1.1-1,0-2-0.7-2.9c-5.6-7.9-12-15.2-18.5-22.4c-4.8-5.3-9.7-7.3-16.4-6.3c-0.9,0.1-2.1-0.1-2.6,1.1c-0.5,1.1,0.5,1.8,1,2.6
	c2.4,3.2,4.8,6.2,7.1,9.5c9.9,14.5,21.7,27.5,31.2,42.3c1.4,2.2,3,4.8,5.7,6.1c0.7,0.3,1.4,1,2.2,0.2c0.6-0.6,0.2-1.2,0-1.8
	c-1.4-3.5-2.7-7.1-4.1-10.6c-4.1-9.8-10.7-18.1-14.8-27.9C814.3,24.8,817.6,27,819,30.6z M950.7,212.1c3.5,7.5,7.5,14.8,10.6,22.4
	c6,15,19.2,25.7,24.3,41.1c0.3,0.8,0.9,2.1,2.1,1.7c1.4-0.5,1.3-2.2,0.7-3c-6-8.3-6-18.8-11.9-27.6c-8.1-12.1-14.6-25.6-19.6-39.5
	c-0.7-2.1-1-4.5-3.9-4c-3,0.5-2.8,3.3-3.4,6C949.9,210,950.2,211.1,950.7,212.1z M14.5,695.2c4.1-4.7,8-9.8,11.1-15.2
	c8.6-15.1,21.4-26.9,30.8-41.2c1.2-1.8,5.1-3.9,3.4-5.1c-2.5-1.9-4.3,1.9-5.7,3.9c-7.9,11.2-18.1,20.5-27.4,30.4
	c-9.3,10-17.6,20.3-22.8,33c-0.4,0.9-0.8,2-1.5,2.5c-3.5,2.7-2.4,6.1-1.8,10.2C7.1,708.1,9.5,700.8,14.5,695.2z M608.1,403.1
	c1.9,0.1,3.5,1,4.9,2.2c1.8,1.4,3.7,2.9,5.6,4.2c0.7,0.5,1.6,0.5,2.3,0c0.7-0.5,0.6-1.2,0.2-1.8c-4.9-6.4-8.8-13.6-14.4-19.5
	c-1.8-1.8-4.4-2.4-6.9-1.2c-1.8,0.9-2.6,2.5-2.4,4.4C597.3,398.2,601.6,402.8,608.1,403.1z M275.6,229.6
	c4.8-7.5,12.2-13.5,13.4-23.1c0.1-1.2,0.7-2.2-0.4-3.2c-1.2-1-2.2-0.4-3.1,0.4c-8.2,7.4-13.9,16.3-16,27.3c-0.3,1.5,0,2.6,2.4,2.9
	C274.1,233.8,274.5,231.2,275.6,229.6z M310.5,85.8c-15,0.6-43.9,30.7-41.3,43.3C279.1,110.3,294.3,97.6,310.5,85.8z M464.5,31.3
	c6.2-8.8,13.1-17,21.4-24c1.9-1.6,4.7-3.8,3.8-5.7c-1.2-2.5-4.8-1-7.3-1.1c-1.1,0-1.7,0.7-2.3,1.6c-2.5,3.7-5.2,7.2-7.6,11
	c-4.2,6.8-9.5,13-12,21C462.8,34.1,463.6,32.5,464.5,31.3z M1040.2,336.3c0.8,0.5,1.9,0.6,2.8,0.6c1.2,0,3,0.6,3.6-0.8
	c0.6-1.5-1-2.3-2-3.1c-4.4-3.2-8.8-6.4-13.3-9.4c-5.1-3.3-8.6-8.6-14-11.6c-0.8-0.4-1.4-1.9-2.4-0.9c-1.1,1.1-0.3,2,0.7,2.9
	c3.2,3.2,6.2,6.5,9.4,9.7c2,2.1,3.1,4-1.3,5.8C1030.6,329.3,1035.2,333.4,1040.2,336.3z M839.1,28.5c-4.2-8.4-8.2-17-13.1-25.1
	c-1.9-3.2-4.7-3.1-7.7-3c-0.9,0.1-2.1-0.1-2.5,1.1c-0.4,1.1,0.5,1.8,1.1,2.6c4.2,4.9,8.3,9.8,12.5,14.6c3.4,3.9,5.4,9,9.3,12.7
	C839.7,30.3,839.6,29.4,839.1,28.5z M587.4,404.7c-11.3-12.3-12.1-30.8-2-44c1.1-1.5,1.8-2.9,1.2-4.7c-1.3,0-1.8,0.7-2.3,1.3
	c-9,9.7-10.4,21.6-8.9,33.9c1,7.8,5.1,13.8,13.7,15.8C588.5,406.3,588,405.5,587.4,404.7z M604.7,255.9c1.7-16.5-1.1-31.5-14.5-42.8
	C600.1,225.7,600,241.6,604.7,255.9z M306,494.8c-1.5-7.6-3-15.2-4.7-22.7c-0.9-4-2.4-7.9-3.6-11.8c-0.5-1.7-1.5-3.6-3.2-3.2
	c-2.3,0.5-1.2,2.6-0.8,4.1c1.9,7.5,3.3,15.2,6.1,22.4c1.6,4.2,1.6,9.1,5.5,13.1C305.7,495.7,306.1,495.2,306,494.8z M867.4,330.1
	c-1.8,3.4-3.9,6.6-4.7,10.4c-0.7,3.4,1.5,5.9,4.5,5.2c4.2-1.1,12.4-11.8,12.5-16.5c-1.4,0.5-2,1.7-2.8,2.7c-2.5,3.3-4.9,6.7-8.1,9.4
	c-0.8,0.6-1.6,1.5-2.6,0.8c-0.9-0.7-0.5-1.9-0.1-2.8c1.2-2.4,2.3-4.8,3.6-7c4.4-7.4,7-14.9,2.7-23.4
	C875,317.1,870.8,323.5,867.4,330.1z M884.7,269.4c1-1.2,3.3-2.3,2.3-4c-1.2-2-3.1-0.5-4.8,0.3c-6.7,3-13.4,6-20.4,0.6
	c-0.7-0.6-1.7-0.8-2.1,0.2c-0.2,0.6,0,1.7,0.4,2.3c2.8,3.9,6.7,5.7,10.7,5.3C876.6,274.1,881.4,273.7,884.7,269.4z M1061.4,347.6
	c-0.4,1.4,0.4,2.2,1.6,2.8c9.4,4.5,16.2,12.4,24.2,18.8c3.3,2.7,5.7,6.6,10,8c1.2,0.4,2.6,1.5,3.5-0.2c0.8-1.5-1-1.9-1.7-2.6
	c-7-6.5-15.7-11-22.5-17.9c-3.4-3.4-7.5-6-11.2-9c-0.6-0.5-1.3-1-1.8-1.3C1062.2,346.1,1061.6,346.8,1061.4,347.6z M871.2,30.1
	c8.1,9.8,16.2,19.6,24.3,29.4c0.4-0.3,0.7-0.6,1.1-0.9c-5.2-12.2-12.4-22.8-24.4-29.3C871.8,29.5,871.5,29.8,871.2,30.1z
	 M658.7,403.9c5.6-0.6,8.4-3.3,9.5-8c0.4-1.9-0.3-3.3-1.4-4.5c-1.2-1.2-2.8-1.3-4.1-0.5c-5.3,3.1-8.9,7.8-12.9,13.8
	c6.5-1.6,9.4-6.3,13.9-8.6C662.1,398.5,660.6,400.9,658.7,403.9z M539.7,600.7c6.6,24.8,21.6,46.6,26.8,72.1
	C565.2,646,551.2,623.8,539.7,600.7z"/>
<g>
</g>
<g>
</g>
<g>
</g>
<g>
</g>
<g>
</g>
<g>
</g>
<g>
</g>
<g>
</g>
<g>
</g>
<g>
</g>
<g>
</g>
<g>
</g>
<g>
</g>
<g>
</g>
<g>
</g>
</svg>
