<?xml version="1.0" encoding="utf-8"?>
<!-- Generator: Adobe Illustrator 18.0.0, SVG Export Plug-In . SVG Version: 6.00 Build 0)  -->
<!DOCTYPE svg PUBLIC "-//W3C//DTD SVG 1.1//EN" "http://www.w3.org/Graphics/SVG/1.1/DTD/svg11.dtd">
<svg version="1.1" id="Layer_1" xmlns="http://www.w3.org/2000/svg" xmlns:xlink="http://www.w3.org/1999/xlink" x="0px" y="0px"
	 viewBox="0 0 1280.7 720.8" enable-background="new 0 0 1280.7 720.8" xml:space="preserve">
<path d="M156.7,720.8c-0.4-2.4-0.7-4.6-2.5-6.7c-2.4-2.9-3.7-6.5-3.8-10.5c-0.1-3.9-6.9-13.1-10.5-14.2c-2.6-0.8-4.5,0.9-6.4,2.1
	c-2.3,1.5-5.8,4.6-7,3.3c-1.9-2.2,1.8-4.6,3.1-6.8c3.2-5.2,4.8-10.5,2.6-16.5c-1-2.8-1.8-5.7-1.8-8.7c0-0.7,0-1.4-0.3-1.9
	c-2.8-5.7-2.9-6.7,0.3-12.9c4.5-8.8,10.1-16.7,17.7-23.1c3.3-2.8,3.2-5.7,1.8-9.3c-1.2-2.9-1.8-6-2.7-9.1c-0.4-1.2-1.2-2.8,0.6-3.3
	c1.6-0.4,2.2,1.3,2.7,2.4c1.3,3,2.6,6.1,3.6,9.2c1.3,4,3.6,3.9,6.2,1.5c7.7-7.3,17.6-10.4,27.3-13.7c6.4-2.2,11.7-6.1,17.7-8.5
	c7.1-2.9,12.8-8.3,20.2-10.5c1.8-0.5,3.4-2.1,4.7-3.5c12.3-13,19.3-28.8,24.6-45.7c1.7-5.4,6.5-9.2,11.3-12.3
	c2.3-1.5,4.2,0.3,5.3,2.9c3.5,8.9,6,18.4,10.9,26.5c4.6,7.5,7.1,15.9,11.8,23.3c7,11,13.2,22.5,19.6,33.9c2.9,5.2,7.3,9.3,9.9,14.7
	c-2.5-9.8-8.3-18.2-12.2-27.4c-5.6-13.6-11.8-27-15.6-41.2c-2.7-9.7-7-18.9-9.4-28.6c-1.9-7.5-3.9-15.1-5.6-22.7
	c-1.1-5.1-0.2-10.3,1.6-15.2c1.7-4.8,2-9.5-0.7-13.9c-1.9-3.2-1.4-7-2.5-10.5c-2.7-8.1-5-16.5-3.6-25.3c0.2-1.1,0.1-2.9,0.7-3.3
	c5.5-3,4.1-8.2,4.3-12.9c0.1-2.5,0.1-4.7-3-5.3c-2-0.4-2-2-1.9-3.5c0.6-8.7-0.9-17.2-1.1-25.9c-0.2-12.7,2.5-25,4.6-37.4
	c1.3-7.3,2.7-14.5,6-22.6c-4.3,4.6-6.1,9.1-7.5,13.5c-1.3,4-2.7,6.6-7.1,6.5c-0.8,0-1.5,0.5-1.4,1c0.2,1.8,1,0,1.6,0.2
	c2.2,0.7,1.5,2.3,1.2,3.7c-0.5,2.1-0.8,4.5-2.1,6.1c-6,7.6-3,18.2-9,26c-1.9,2.4-0.5,7.4-0.5,11.3c0,2.9-0.3,5.5-2.5,7.8
	c-2.2,2.2-2.7,5.2-2.5,8.4c0.1,1.6,0.7,3.8-1,4.6c-7.5,3.8-4.9,10.3-4.4,16.2c0.3,2.9,0.6,5.8,0,8.9c-2-0.7-0.6-2.5-1.6-3.4
	c0,1.5,0.1,3,0,4.5c-0.3,4-0.4,7.6,5.6,6c1.9-0.5,2.4,1.3,2.4,2.9c0,3.7,0.2,7.3-0.1,11c-0.2,3.2-1.2,5.5-5.4,5.6
	c-5.3,0.2-7.5,4.2-8.5,9c-0.6,2.7-1,5.5-1.7,9.6c-2.4-11-8.9-18.7-12.5-27.7c-0.5-1.2-0.8-2.9-2.4-2.8c-1.3,0.1-2.3,1.2-2.6,2.7
	c-0.1,0.3-0.2,0.6-0.4,0.9c-4.4,11.1-4.4,11-12.5,2.3c-10.2-11.1-15.3-24-15.9-39.1c-0.2-6.1-0.4-11.7,2.9-17.2
	c1.7-2.8,5.3-2.2,6.7-5.9c3-7.9,9.5-14.3,11.6-22.8c0.3-1.3,0.9-2.4,0.9-3.8c0.3-12.6,1.3-25.1,0.8-37.7c-0.3-6.6,0.5-13.2,0.2-19.8
	c-0.1-3.5,1.4-5.9,4-8.1c4.2-3.5,6.8-8.2,10.2-12.3c-0.3-0.3-0.7-0.6-1-0.9c-2.6,2-5.2,4-7.9,6c-0.7,0.5-1.9,1.2-2.7,0.4
	c-0.8-0.9,0-1.6,0.5-2.5c1.9-3.3,1.7-7.3,3.9-10.8c11.4-17.8,25.6-32.9,42.4-45.6c7.1-5.3,14.5-10.2,20.6-16.8
	c-13.7,6.9-27.3,13.9-40.4,22.1c13.9-16,33.2-25.6,47.4-41.1c-6.6,2.7-12.3,6.8-18.1,10.7c-6.8,4.6-13.5,9.2-20.8,13
	c-1.8,1-3.5,1-4.3-0.6c-1.1-2,1.3-2.2,2.4-2.9c3.7-2.2,2.8-7.1,6-9.8c1.7-1.5,2.4-3.4,5.5-2.8c3.7,0.7,6.5-2.9,8.2-5.1
	c4.1-5.2,10.2-6.9,15.3-10c3.7-2.2,7.4-4.3,9.3-7.9c2.6-5.1,6.1-9.7,8.8-14.8c1-1.9,3.6-3.4,6-3.5c4.1-0.2,8.4-0.4,12.4,0.3
	c3,0.5,5.3,0.3,7.4-1.5c8.9-7.4,16.1-16.1,21.8-26.2c1.2-2.2,2.5-4.5,3.4-7c-4.7,5.2-9.4,10.4-14.8,14.8c-7.3,6-14.4,11.9-25.1,11.8
	c-3.8,0-8.4,1.8-12.6,2.1c-6.9,0.6-12.7,3.2-18.3,6.9c-0.5,0.3-1.6,0.4-1.9,0.1c-3.5-3.3-6.9-1-10,0.3c-3,1.2-5.4,0.7-8-0.8
	c4.6-6,11.3-9.2,17.6-12.4c4.5-2.3,7.2-6.5,11.7-8.5c6.4-2.8,10.6-8.4,15.7-13c4.7-4.4,10.7-7.4,15.8-11.5c3.1-2.5,6.4-4.6,7.9-8.6
	c1-2.7,4.5-2,6.3-4.3c5.4-6.7,11.5-12.8,17.3-19.2c0.3-0.4,0.8-0.8,0.8-1.2c0.9-12.7,11.9-16.3,20-22.7c8.5-6.8,17.1-13.5,24.2-22
	c1.5-1.8,2.8-4.1,5.7-4.6c-10.6,29.5-31.7,50.8-55.2,70.3c9-4.2,16.7-10.2,24.4-16.3c4-3.2,8.1-6.2,12.2-9.3
	c0.9-0.7,1.8-1.7,3.1-1.1c1.5,0.7,0.6,2.1,0.5,3.1c-1,8.2-2,16.4-3.4,24.6c-2,11.9-3.2,23.9-4,36c-0.3,4.2,0.9,8.6,1.6,12.8
	c2,10.7-0.6,20.9-2.7,31c-2.1,10.2-5.1,20.1-8.9,29.9c-4.3,10.9-4.5,22.3-2.4,33.8c2.8,15,6.6,29.7,11.4,44.2
	c3.9,11.8,7.3,23.7,11,35.5c0.5,1.6,0.3,4.9,3.8,2.9c0.1,0,1.6,1.9,2,3.1c3.8,11.5,8.7,22.6,13.3,33.7c9.4,22.7,21.7,43.5,38.3,61.9
	c9.7,10.8,20.7,19.8,32.3,28.5c6.2,4.7,12,9.9,17.3,15.6c2.7,2.9,6,4.2,9.2,5.7c22.7,10.9,45.5,21.9,68.6,31.8
	c9.2,3.9,19.4,5.3,29.4,6.5c11.3,1.3,22.6,1.3,33.9,0.9c17.7-0.6,34.6-4.4,51.1-11.2c16.3-6.8,27.7-19,39-31.6
	c5.6-6.3,11.5-12.4,17.1-18.7c9.2-10.3,15.9-22,22.4-33.9c12.1-22.4,17.1-46.8,21.1-71.6c2.5-15.2,5.3-30.3,8-45.5
	c0.2-1,0.3-2,1.5-2.3c2.2,0.6-0.2,3.7,2,4.1c5.6,0.9,11.3,1.4,16.6-1.7c8.7-5.1,12.3-13.5,14.9-22.7c6.4-23,6.6-46.2,2.8-69.6
	c-1-6.3-3.2-12.5-4.9-18.7c-1.7-5.9-1-6,4.8-6.7c7.4-1,14.9-2.2,21.5-5.9c5.6-3,8.9-2.5,13.1,1.8c5.5,5.7,11.7,10.5,16.9,16.5
	c8.3,9.6,14.3,20.7,20.3,31.7c2.4,4.3,5.4,8.3,7.1,13.1c4.3,12,5.2,24.4,4.9,37.1c-0.1,2.9-2.8,5.4-1.3,9.5c3-9.1,6.9-17.1,6.7-26.2
	c-0.1-6-0.4-12,0.1-18c0.9-12.9-5.5-23.1-11.3-33.6c-4.2-7.6-10.6-13.5-16.7-19.5c-6.2-6-12.9-11.9-21-15.5c-2.9-1.3-3.9-3.1-4-6.1
	c-0.1-3,1-4.2,3.9-5.2c4.3-1.5,4.5-4.3,1.2-7.7c-4.3-4.5-10.8-4.9-15.6-8.5c-3.9-2.9-8.5-1.9-12.7-2.4c-3.3-0.4-6.1-1.2-8.8-3
	c-1.9-1.3-3.5-2.6-6.2-0.8c-1.9,1.3-6.8-2.9-7.6-6.4c-1.7-7.6-6.5-13.6-10.1-20.2c-1-1.7-2.1-3.4-3.1-5.1c-0.5-0.9-0.8-2.3-1.5-2.5
	c-8.5-2.4-4.2-9.2-4-13.7c0.4-8.1,0.7-16.2-0.1-24.3c-0.7-7.1-0.9-14.2-1.4-22.6c13,15,25.2,29.1,37.4,43.2c0.4-0.3,0.8-0.7,1.1-1
	c-6-5-9.5-12-14.3-17.9c-5.2-6.4-7.7-14.6-11.2-22c-1.1-2.4-4.8-5-2.3-7.4c2.8-2.7,5.1,1.5,7.7,2.5c3,1.2,5.2,3.7,6.9,6.3
	c8.9,13.1,20.4,23.9,30.8,35.7c9.4,10.7,20.8,18.9,31.5,27.9c9.5,8,19.6,15.3,28.8,23.7c1.7,1.6,3.6,3.1,4.6,5.1
	c2.1,4.3,4.1,8.1,9.9,8.2c2.3,0,2.6,2.5,2.7,4.7c0.4,9.2,9,15.3,17.9,12.8c2.3-0.7,1.6-2,0.5-2.8c-3-2.2-6.6-3.8-7.8-7.8
	c-0.2-0.6-0.9-0.8-1.6-0.1c-2.3,2.3-2.4,0-2.5-1.4c-0.2-3.8-2.4-6.6-5.2-8.7c-5.1-3.7-8.9-8.6-13-13.3c-8.8-10-14.8-21.9-22.3-32.7
	c-6.7-9.6-13.2-19.4-20.4-28.6c-4.5-5.8-9.5-11.4-13.4-17.7c-0.4-0.7-1.3-1.2-0.5-2c1-1,2.1-0.7,3.2-0.3c3.4,1.3,6.3,3.7,10.8,4.6
	c-2.9-7.1-5.1-13.7-8.3-19.9c-6.3-12.5-13-24.7-19.7-36.9c-2.3-4.2-5-8.2-7.5-12.3c-1.5-2.4-1.4-4.1,2.1-4c0.3,0,0.7,0,1,0
	c8.8-0.3,8.7-0.2,12.5,7.6c5.7,11.6,12,23,16,35.3c3.1,9.4,6.3,18.8,8.9,28.4c1.9,7.1,6.6,12.1,11.2,17.3c3.7,4.1,7.8,7.7,11.8,11.5
	c1.1,1,1.2,2.3,1.5,3.6c3.8,14.8,12.4,27.1,22.2,38.3c9.6,11.1,21.1,20.1,33,28.7c8.9,6.4,18.7,11.3,27.7,17.6
	c9.3,6.4,16.8,14.9,24.8,22.7c1.2,1.2,1,2.8,1.1,4.2c1.2,16.2,2.9,32.2,6.6,48.1c4.7,19.9,13.6,37.9,23.7,55.4c0.7,1.3,2,2.2,3,3.3
	c8.8,9.7,17.8,19.4,28.3,27.5c1.9,1.5,4.2,3.4,2.8,6.7c-0.6,1.5,0.3,3.1,1.9,3.6c4.1,1.1,7.7,4.1,12.4,3.3c2.8-0.5,5.2,1,7.5,2.2
	c8.7,4.5,17.4,8.9,27.1,10.9c0.8,0.2,1.6,0.5,2.3,0.9c1.1,0.6,2.9,0.8,2.6,2.5c-0.2,1.4-1.9,1.1-2.9,1.4c-13.3,4.6-27,7.6-41.1,8.7
	c-2.4,0.2-4.4,0.9-6.6,1.5c-0.3,0.5-0.7,1-1,1.5c2.5,2.1,5,4.3,7.7,6.2c10.3,7.3,19.4,15.9,28,25.1c17.4,18.5,30.3,39.6,35.1,64.7
	c2,10.3,4,20.8,3.7,31.6c-0.3,10.7-0.1,21.5-0.1,32.2c-2.9,0.2-3.1-1.8-3.6-3.2c-4.9-14.6-14-26.6-24-38
	c-9.5-10.9-21.2-19.4-32.2-28.8c-10.9-9.4-23.4-16.8-33.8-27c-3-3-7.3-4.6-11-6.9c-0.4,0.4-0.7,0.7-1.1,1.1
	c3.1,4.1,5.8,8.5,9.3,12.1c3.6,3.8,5.6,8.6,9.3,12.2c1.4,1.4,1.6,3.5,0.9,5.1c-0.5,1.2-2.7,1.2-3.7,0.6c-5.7-3-13.2-1.5-18-6.2
	c-4.9-4.9-8.7-10.9-13.5-15.9c-6.5-6.7-10.8-14.7-15.3-22.6c-1.1-1.9-1.9-3.9-2.7-5.9c-2.2-5.4-1.8-6,3.8-7c1.1-0.2,2.6-0.1,2.5-1.7
	c0-1.6-1.5-1.6-2.6-1.6c-1.5-0.1-3,0-4.5-0.1c-1.1,0-3,0.1-3.1-1.1c-0.3-4.5-3.9-7.9-4.1-12.3c-0.1-1.9-0.5-3.5-1.9-4.1
	c-2.1-1-3.2-2.9-3.5-4.6c-1.7-9.6-9.2-17.3-8.5-27.6c0.1-2.3-1.6-4.7-2.3-7.1c-0.8-3-2.2-6.1,1.9-8.1c1.4-0.7,1.1-2.3,0.8-3.6
	c-0.3-1.2-1.3-1.6-2.3-1.3c-3.3,1.1-4.2-1.2-5.6-3.3c-2.6-3.8-1.9-8-1.6-12.1c0.2-3,2.4-2.7,4.4-1.4c2.6,1.6,3.3,0.2,3.4-2.1
	c0.1-0.8,0-1.7,0-2.5c0-6.7-2.3-8.4-8.8-6.5c-4,1.2-7.4-1.8-6.9-6c0.2-1.8,0.7-3.6,0.7-5.4c0.1-2.4,0.1-4.2-2.8-6
	c-5.4-3.4-5.2-8.7-0.6-13.3c2.1-2.1,3.5-14.5,1.8-16.6c-1.5-1.9-6-1.2-7,1.3c-0.6,1.4-0.7,2.9-1,4.3c-0.3,1.2,0.6,2.7-1.1,4
	c-2.4-2.5-5.7-4.6-3.1-9c0.5-0.9,1-2.3,0.2-2.7c-5.8-2.7-2.4-7.9-3.6-11.6c0,0-0.1,0.2-0.2,0.5c-0.4,2,1.1,5.2-1.1,5.8
	c-2.4,0.7-2.9-2.6-3.9-4.4c-7.3-12.6-14.2-25.4-22.6-37.3c-2.5-3.5-5.1-6.8-9.2-10.5c0.7,4,1.9,6.4,3.6,8.5
	c6.7,8.9,10.5,18.8,10.2,30c-0.3,12.5,1.8,24.8,2.3,37.3c1.1,22.3,0.7,44.8,5.5,66.9c1.3,6.1-0.1,12.6,2.2,18.7
	c3.5,9.5,4.2,19.9,9.1,29.1c6,11.3,10.7,23.2,18.8,33.3c4.2,5.3,9,10.1,13.6,15.1c1.6,1.8,1.9,3.3,1.1,5.8c-2.1,6.4,0.8,12.1,4,17.4
	c1.6,2.7,3.1,5.4,4.4,8.8c-5.1,0.2-7.8-3.2-10.9-5.2c-11.5-7.2-22.8-14.7-34-22.2c-2.3-1.6-4.2-3.8-6.2-5.7
	c-4.7-4.4-8.7-9.3-15.3-11.7c-7.5-2.8-12.9-9.4-18.8-14.7c-13.1-11.8-26-23.8-32.7-40.8c-1-2.6-3.5-4.5-4.2-8.4
	c-1.1,2.6-0.8,4-0.3,5.5c6.5,17.5,13.8,34.5,27.2,48.1c1.2,1.2,2,2.6,2.5,4.2c2.7,7.6,8.4,12.5,14.4,17.7
	c6.3,5.5,14.3,9.3,19.6,15.4c6.1,7,15.2,8.9,21,15.3c5.3,5.9,13.5,9.3,15.9,17.6c-7.6,0.2-14.2-2.9-20.8-6.1
	c-3.1-1.5-5.4-3.9-7.7-6.3c-2.3-2.4-4.9-3.9-8.4-3.7c-4.1,0.3-6.6-2-7.9-5.5c-1.1-3.1-4-3.9-6.2-5.7c-4.6-3.7-10.8-4.2-15-8.5
	c-4.9-5-9.7-10.1-15-14.6c-4.1-3.5-6.1-8.7-9-13c-3.8-5.6-7.8-11.1-10.7-17.6c-3.1-7.2-4.2-15-8.7-23c1.2,5.9,1.6,10.7,3.9,15.2
	c2.5,5,4,10.4,6.2,15.6c3.8,9.1,9.6,17,15.9,24.7c11.1,13.6,23.5,25.7,37.3,36.3c6.5,5,12.4,10.8,19.9,14.2c1.2,0.6,2.8,1.2,3.3,3.1
	c-18.5-4.5-34.7-13.8-48.3-26c-13.6-12.3-27.3-25.2-36.2-42.1c-0.2,5,1.4,9.4,3.6,13.5c3.3,6.1,7.4,11.8,10.6,17.9
	c2.6,4.9,6.4,9,10,12.8c5.4,5.7,10.1,12.2,17,17c4.7,3.2,9.3,7.6,13.5,11.9c1.1,1.1,2.2,1.8,3.7,2.3c6.9,2.5,13.7,5.5,18.5,11.3
	c3.8,4.5,9.3,5.6,13.9,8.1c11.6,6.1,22.5,13.2,33.9,19.4c9.4,5.1,17.5,11.9,26.2,17.7c6.2,4.2,12.2,9.9,17.2,16.1
	c1.6,1.9,1.1,4,0.6,6.2c-1.3,5.8-0.3,8.5,5.2,10.5c10.6,3.8,20.3,9.4,30.7,13.5c12.3,4.8,23.4,11.9,33.9,20c3.9,3,7.9,5.8,11.7,9.1
	c2.3,2,2.8,4.9,4.9,6.7c13.7,11.6,22.6,27.1,33.3,41.1c6.4,8.3,12,17.1,16.9,26.3c0.4,0.7,0.4,1.5,0.5,2.3c-1.3,0-2.7,0-4,0
	c-3.7-8.4-9.7-15.5-15.1-22.7c-14.9-19.6-29.7-39.4-47.9-56.4c-4.2-3.9-8.7-7-13.8-9.5c-6.9-3.3-13.6-6.9-20.6-10
	c-2.5-1.1-5-3.6-9.7-2.5c4.7,3,5.6,6.7,6.5,10.4c0.5,2.1,1,4.2,2.6,5.9c2.9,3,3.3,6.6,3.4,10.5c0.2,5.2-0.8,10.4-1,15.8
	c1.6-0.6,1.2-1.6,1.6-2.3c0.8-1.3,0.6-3.5,3.1-3.3c2.6,0.2,2.9,2.5,2.9,4c0.2,4.6,2.2,9,0.5,13.8c-0.7,2-0.1,4.4-0.1,6.8
	c5.8-6.8,4.6-15.3,7.2-22.6c0.4-1.2,0.5-2.9,1.9-3.2c1.4-0.3,2.4,1.1,3,2.3c1.2,2.2,1.8,4.6,1.7,7.2c-0.1,11.4-3.5,22.2-5.7,33.2
	c-0.6,2.7-1.8,5.3-2.9,7.9c-0.4,1.1-0.4,2.8-2.5,2.3c-3-0.7-6.2-1.1-8.6-3.1c-8.3-7.1-12.7-6.1-16.6,3.9c-0.7,1.8-1.8,3.9-3.4,4.8
	c-3.1,1.6-3.4,4.1-3.6,7c-87.7,0-175.3,0-263,0c-0.1-3.7-0.9-7.5,0-10.9c2.7-10.2,2-20.8,3.7-31.1c0.3-1.8-0.3-4,1.8-4.7
	c1.9-0.7,2.9,1.3,4.2,2.2c0.8,0.5,1.4,1.4,2.1,2.1c5.7,5.2,12,9.6,18.8,13.3c-3.9-4.1-8.2-7.8-11.9-11.9c-4.2-4.6-9.3-8.4-12-14.2
	c-1.8-3.7,0.1-7.9-1.5-11.7c-4.4,4.3-4.5,4.3-7.7-0.9c-0.6-1-1.1-2.1-1.6-3.1c-3.9-8-7.9-16-11.3-24.2c-2.7-6.3-5.2-12.8-7.4-19.3
	c-3.2-9.3-4.8-19.1-7-28.8c-0.6-2.5-3.4-6.1,0-7.4c2.8-1.1,3.6,3.3,4.6,5.4c4.8,10.2,12.2,18.6,21.3,24.4
	c14.7,9.3,30.9,15.2,48.8,14.4c3.3-0.1,6.7,0,10,0c1.6,0,3.2,0.2,3.7,1.9c0.8,2.8,3.1,4.7,4.3,7.2c5.7,11.7,15.9,19.9,23.6,30.5
	c1.2-3.7,1.7-7.3,1.1-10.9c-2.9-18-3.3-36-2.9-54.2c0.1-2.9-0.4-5.6-1.6-8.2c-3.4-7.2-2.9-15.2-4.9-22.8c-1.5-5.9-2.8-12.2-4.2-18.2
	c-2-8.5-5.9-16.6-8-25.3c-2-8.5-6.8-16.2-9.2-25c-1.8-6.7-5.7-13.3-8.3-20.1c-2.6-6.7-6.6-12.6-9.6-19
	c-5.6-12.4-12.6-24.1-18.6-36.3c-5.3-10.7-11.3-21.1-17.5-31.2c-2.2-3.6-3.3-8.1-7-11.1c-1.4,3.2-1.7,6-1.6,8.8
	c0.4,16.2,6,31.5,10,46.9c5.1,19.1,9.8,38.3,14.7,57.4c3.9,15.1,6.2,30.5,10.9,45.4c2.6,8.3,3,17.2,5.2,25.7
	c3.4,12.9,7.2,25.7,12.4,38c1,2.3,2.9,4.8,1,6.9c-2.1,2.2-5,0.8-7.4-0.4c-1-0.5-2-1.1-3-1.8c-7.8-5.3-16-10-22-17.8
	c-7.2-9.2-14.6-18.3-19.4-29c-3.7-8.2-6.6-16.8-8.9-25.5c-3.1-11.5-5.1-23.2-6.8-34.9c-1.6-10.6-4.7-20.9-5.7-31.7
	c-0.3-3.7-2.5-7.2-4-10.7c-0.4-0.9-1.6-2.8-2.4-1.1c-2.6,5.1-8.2,8.5-7.7,15.5c0.8,13-1.3,25.9-1.1,38.9c0.1,5.1-1.5,10.1-2.3,15.2
	c-0.5,0-0.9,0.1-1.4,0.1c-3.3-8.2-2.2-17.4-5.7-25.3c-4,13.5-2.6,28-5.6,42c-2.1-3.4-4.1-6.4-7.1-10.5c0.6,5.6-0.8,10,1,14.1
	c1.8,3.9,1.3,7.5,0.1,11.5c-1.3,4.4-2.2,8.8,1.1,13.2c2.2,2.9,1.1,6.7,0.6,10.2c-0.2,1-1.1,1.6-2.2,1.7c-1.2,0-1.7-0.8-1.8-1.9
	c-0.1-1.2-0.2-2.4-0.2-3.8c-0.6,1.6,0.4,3.5-1.6,4.9c-0.1-1.3-0.3-2.1-0.3-2.9c0-16.8-0.7-33.6,0.3-50.4c0.5-9.2-0.2-18.6,1.7-27.8
	c0.4-1.7,2.5-4.3,0.2-5.3c-2.1-0.9-3.3,2.2-4.9,3.5c-0.4,0.3-0.7,0.7-1,1.1c-10.5,15.5-24.9,26.7-41.9,33.7
	c-15.7,6.5-32.9,7.8-49.7,9.2c-26.9,2.2-52.9-1.6-78-11.9c-12.4-5.1-24.9-10.1-36.8-16.4c-12.7-6.7-26.1-12.7-36.3-23.1
	c-3-3.1-6.1-5.6-9.6-7.9c-11.1-7.3-21.1-15.8-30.5-25.3c-6.3-6.4-12.4-12.9-17.4-20.2c-5.7-8.2-12.2-16.2-15.5-26
	c-0.4-1.1-0.7-2.7-2.4-2.9c-0.9,1.3-0.2,2.5,0.1,3.7c4.7,17.2,9.4,34.5,13.9,51.8c3.2,12.5,5.1,25.4,9.1,37.6
	c5.1,15.7,13.2,30.3,20.2,45.3c16.8,36,33.4,71.9,53.7,106.1c0.7,1.2,1.9,2.4,0.6,4.3c-11.8-14.3-20.7-30.7-32.2-45
	c18.8,36.9,37.5,73.7,53.1,112c-12.6-19.6-24.1-39.9-38.2-58.5c1.6,5.6,3.1,11.2,5.5,16.4c5.8,12.9,10.1,26.3,15.3,39.3
	c0.7,1.9,1.7,4,1,6.3c-52.7,0-105.3,0-158,0c-1.1-3.5,0.5-6.9,0.7-10.4c1.1-16.9-3.2-33.4-3.1-50.2c0-0.6-0.1-1.4-0.4-1.9
	c-3.9-6.5-2.9-14-4.3-21c-0.6-2.9-0.8-5.8-2.2-8.6c-3.5-6.6-4.9-14.1-6.7-21.2c-3.1-12.3-5.7-24.8-10-36.7c-3.1-8.5-6.3-17-8.4-25.8
	c-2-8.9-5.4-17.3-7.6-26.2c-1.8-7.8-3.8-15.7-6.6-23.2c-2.2-5.9-2.4-12.3-4.8-18.1c-3.4-8.2-5.3-16.9-5.5-25.3
	c-0.3-10.9-4.7-20.9-5.3-31.7c-0.3-5.2-2-10.5-1.9-15.7c0.3-10.8-0.8-21.5-0.2-32.3c0.1-1.3,0.5-2.8-1.3-5.1c0,2.8,0.2,4.5,0,6
	c-1,5.8,0.5,11.6-0.2,17.3c-1.9,13.9-2,27.7-0.9,41.7c1,11.8,2.2,23.6,4.4,35.1c1.8,9.2,3.8,18.5,5.6,27.7c0.4,1.9,1.7,5.7-0.8,6.1
	c-2.9,0.5-3.2-3.6-3.4-5.7c-1.2-9.7-3.3-19.2-5.6-28.6c-1-4.1-0.6-8.3-1.2-12.4c-1.5-10.9-3.7-22-3.2-32.9
	c0.6-13.3,0.2-26.6,0.6-39.9c0-1.9,1.4-5-2.6-5.2c-3.5-0.2-6.7-0.8-7.8,4.2c-1.2,5.5,0,11-1.4,16.4c-1,3.8,0.6,6.8,1.1,10.3
	c2.6-1.4,0.7-5,3.9-5.8c1.3,7.4,2.5,14.9,1.1,22.3c-1.9,9.9,0.1,19.8,0,29.7c0,8.7,0.3,17.6,2.8,26.5c2.2,7.8,0.4,16.7,4.7,24.5
	c2,3.7,1,8.1,2.1,12.1c4.2,15.3,8.1,30.7,13.3,45.8c3.9,11.1,7.8,22.2,11.5,33.3c3.2,9.6,6.5,19.1,10.3,28.4c1.5,3.6,0,7.9,3,11.4
	c2.5,2.9,2.4,7.1,3.9,10.8c0.2-2.6,1.9-5,0.9-7.1c-2.5-5.1-1.6-10.7-3.2-16c-1.4-4.5-2.4-9.2-3.4-13.8c-1.8-8.6-3.5-17.2-6.6-25.4
	c-1.1-2.8-2.9-5.4-3.4-8.2c-1.4-7.8-2.4-15.5-5.6-22.9c-5.3-12.5-7.1-26.1-11.2-39c-1-3.1-1-6.7,0.4-10.1c1.6,0.4,1.9,1.5,2.1,2.3
	c1.7,8,5.7,15.5,5.7,23.9c0,1.7,0.6,3.2,1.2,4.8c6.7,17.2,11.6,35,16.9,52.7c3.8,12.7,6.7,25.6,9.8,38.4c2.7,11.2,6.7,22.1,8.7,33.5
	c1.8,10.6,3.3,21.3,6.1,31.6c2.6,9.8,4.1,19.4,3,29.5C291.4,720.8,224,720.8,156.7,720.8z M307,269.4c0,1,0,2,0,3
	c-0.6,11.2,1.4,22.3,6.9,31.7c8.5,14.6,20.9,26.5,32.8,38.5c5.3,5.4,12.4,7,20.3,5.3c7.6-1.6,12.7-6.8,18.6-10.8
	c3.1-2.1,3.2-4.6,2.4-7.3c-3.9-12-8.7-23.8-11.9-36c-2.3-8.7-6-17.1-6.9-26.3c-0.9-8.5-4.1-16.4-8.1-23.9c-0.6-1.1-1.2-2.7-2.9-2
	c-1.4,0.5-1.2,1.9-1,3c1.6,7.1,0.6,14.3,0.7,21.4c0,2.3-0.4,4.9,1.6,6.5c2.7,2.1,3.4,5.1,4.5,8.1c0.9,2.8,1.8,6.3-0.9,7.8
	c-3,1.7-7.1,3.3-10.4,0.7c-6.2-4.9-12.8-9.7-17.8-15.7c-6.7-7.9-4.7-18.2-0.7-26c3.9-7.6,3.5-14.4,2.8-21.9c-0.3-3.4-5.2-8-9-8.2
	c-3.8-0.2-6.7,1.3-8.1,5.3c-1,2.6-2.3,5.1-3.6,7.6c-0.7,1.4-1.5,3.7-3.3,2.8c-1.7-0.8-2.8-3.1-1.6-5.1c3-5.1,1.8-10.7,1.9-16.1
	c0-2.1-0.1-4.7-2.6-5.4c-2.8-0.8-4.1,1.5-5.5,3.4c-3.9,5.1-3.8,10.9-2.6,16.7C305.4,240.6,306.9,255,307,269.4z M1032.2,382.4
	c-0.7,3.2-2.6,2.6-4.2,2.8c-1.2,0.1-2.6,0.3-2.7,1.7c-0.4,4.1-1.3,8.6,0.4,12.3c1.4,3,5.4,0.9,8.3,1.4c0.5,0.1,1,0,1.5,0
	c2.4-0.1,3-1.2,2.5-3.6C1036.9,392,1033.3,388.1,1032.2,382.4z M998.3,235.4c0.6-3.5-1.3-6-3.1-8.6c-0.7-1-1.6-1.8-2.9-1.4
	c-1.4,0.5-1.1,1.8-1.3,2.9c-0.7,2.9,2.1,4.7,2,7.4c-0.1,2-0.6,4.8,2.8,4.5C999.3,240.1,998,237.3,998.3,235.4z M796.7,720.8
	c1-5.7,1.9-11.4,2.9-17.1c0.8-4.6,0.9-9.1-2.3-12.8c-8-9.3-14.1-19.8-20-30.5c-3.1-5.6-5.9-11.3-9.2-17.9c-1.8,6.8-6,12.1-2.1,18.6
	c0.7,1.1,0.7,4.4-1.7,3.4c-5.3-2.2-5.2,2.5-6.1,4.6c-3.2,7.8-6.2,15.7-8.4,23.9c-2.5,9-5.2,18.2-4.2,27.8
	C762.7,720.8,779.7,720.8,796.7,720.8z M1147.7,720.8c0.6-15.9-7.8-28.3-15.7-40.9c-1.5-2.4-2.4-0.2-3.2,0.9
	c-1.6,2.3-2.7,5.1-5.9,7.4c0.8-4.2,1.4-7.4,1.9-10.6c0.1-0.9,0.3-2.1-1.1-2.4c-1-0.2-1.3,0.9-1.8,1.4c-2.1,2.3-1.5,5.6-2.8,8.3
	c-5.6,11.9-12.6,23.2-16.5,35.8C1117.7,720.8,1132.7,720.8,1147.7,720.8z M1280.7,697.8c-2.1-2.8-4.4-5.4-6.2-8.3
	c-9.5-15.6-14.3-32.9-18.6-50.4c-2-8.1-4.5-16-8.9-24.2c-0.3,1.6-0.6,2.2-0.5,2.8c4,20.5,6.1,41.5,13.9,61.2
	c4.9,12.2,11.9,22.9,20.3,32.8C1280.7,707.2,1280.7,702.5,1280.7,697.8z M280.2,121.4c-0.4,1.2-3,2-1.3,3.5c1.8,1.6,2.8-0.9,4-1.7
	c4.7-3.2,9.3-6.7,14.8-8.6c7.8-2.7,15.7-5.5,23-9.4c12.6-6.6,25.3-13.1,36.5-22.1c16.4-13.3,32.4-26.9,42.4-46
	c1.1-2,2.3-4.2,0.4-5.9c-2.3-1.9-4.2,0.5-5.4,2c-4.3,5.2-10.2,8.3-15.1,12.8c-0.9,0.8-1.9,2.1-3.3,1c-0.2-0.8,0.2-1.3,0.7-1.8
	c6.1-7.1,11.6-14.5,15-23.3c0.5-1.4,2-3.2,0.3-4.6c-1.7-1.4-3,0.4-4.3,1.4c-5.1,3.8-10,7.8-16.9,10.9c2.1-2.1,3.3-3.3,4.6-4.6
	c6.2-6.4,13.1-12.2,17.1-20.4c1-2.1,1.5-4-1.8-4c-17.3,0-34.7,0-52,0c-1.7,0-2.6,0.4-2.6,2.6c-0.2,9.6-5.7,16.9-10.9,24.3
	c-0.8,1.2-1.8,2.3-2.3,3.7c-1.3,4-3.7,7.5-6.4,10.6c-7.4,8.6-15.2,17-22.9,25.4c-1.7,1.8-3.6,3.4-4.9,5.6
	c-3.7,6.2-8.3,11.7-12.3,17.8c-3.6,5.5-9.8,9-13.3,15c-4.7,8.1-12.8,13.3-19.4,19.7c-7.7,7.5-11.3,17.6-18.7,25.3
	c11.7-3.7,21.5-10.9,31.7-16.9c10.3-6.1,20-13.9,28.4-23.4C281,112.8,281.6,117.6,280.2,121.4z M40.6,501.7
	c2.8-8.1,5.7-16.1,8.3-24.2c2.3-7.3,2.9-15.2,8-21.5c0.9-1.2,1.2-2.7,1.1-4.3c-0.2-3.1,0.9-5.9,2-8.7c6.1-14.8,11.7-29.9,19.3-44.1
	c2.3-4.4,3.5-10.2,7.6-12.6c5.3-3.2,9.4-7.4,14.1-11.2c9.8-7.9,20.5-14.9,30.9-22.1c4.3-3,6-7.1,3-9.7c-8-7-12.2-16.4-16.9-25.5
	c-2.1-4.1-4-3.4-6.7-0.9c-9.1,8.2-18.7,15.9-26.8,25.2c-3.3,3.8-5.5,8.3-8.8,12C62,369.3,47.7,384,36,400.7
	c-6.7,9.6-15,18-20.9,28.4c-3.4,6-6.2,12.5-11.3,17.4c-3,2.9-4,6-3.5,9.8c0.1,1.1-0.3,2.6,1.1,3c1.5,0.5,1.8-1.1,2.6-1.9
	c12.8-13.1,25.8-25.9,39.6-37.9c1-0.9,2.2-2.6,3.8-1.8c1.6,0.8,0.8,2.7,1,4.1c0.9,5.6-1.5,10.8-2.1,16.2
	c-1.5,13.3-3.6,26.6-4.6,39.9c-0.6,7.9-1.5,15.7-2.2,23.6C39.9,501.6,40.2,501.7,40.6,501.7z M84.1,580.9c3.8-1.6,7.6-3.2,11.4-4.7
	c14.7-5.9,30.1-7.6,45.6-8.9c6.1-0.5,12.3-0.5,18.4-1.3c3.9-0.5,7.8,0.1,11.6-1.6c12-5.1,23.2-11.9,35.6-16.1
	c2.4-0.8,3.6-3.5,6.3-3.7c0.8-0.1,1.6-0.4,2.3,0.2c0.6,0.5,0.9,1.4,0.4,1.7c-3,1.8-3.4,6.2-7.3,7c-2,0.4-3.8,1.2-4.9,3.1
	c-1.1,1.9-2.8,2.4-4.8,3.1c-7.3,2.6-12.9,8.2-19.8,11.7c-1.6,0.8-2.9,2.8-1.8,4.6c1.1,1.9,3.3,1.1,5,0.9c0.8-0.1,1.5-0.6,2.3-0.9
	c7.9-3.6,14.6-9.5,22.6-12.9c0.7-0.3,1.5-1,1.7-1.7c1.1-3.4,3.7-4.3,6.1-2.3c2.6,2.3-0.3,4.5-1.7,6.2c-1.5,1.9-4,2.8-5.2,5.3
	c-0.6,1.3-2.1,2.5-0.6,4c1.2,1.2,2.6,0.3,3.7-0.4c2.9-2.1,6.3-2.9,9.5-4.3c12.2-5.5,22.7-12.8,27.2-26.4c0.8-2.5,1.2-4.2-1.2-5.3
	c-2.8-1.4-3.4,0.3-4.1,2.9c-0.7,2.7-3.5,3.1-5.8,2.3c-2.7-1-1.1-3.1-0.3-4.6c1.4-2.8,2.2-6,5.4-7.5c1.1-0.5,1.1-1.5,0.8-2.6
	c-1.4-4.9,1.2-8.3,4.4-11.4c5.4-5.2,9-11.8,11.3-18.4c2.5-7.1,0.9-15.2,0.6-22.8c-0.1-1.9-1.8-3.2-3.9-3.3
	c-4.3-0.4-7.8,1.5-10.4,4.8c-1.3,1.6-1.2,2.9,1.1,3.7c4.6,1.6,5.2,4.8,1.8,8.6c-1.7,1.9-3.3,5.6-5.2,0c-0.5-1.4-1.9-1.5-3.4,0.3
	c-3.3,4-3.4,9.3-6.4,13.4c-2.4,3.2-7.7,5.7-3.2,11c0.3,0.3-0.4,1.6-0.9,2.2c-2.8,4-4.5,8.8-8.4,12.2c-2.5,2.1-4.4,4.8-6.2,7.6
	c-2.5,3.9-5.3,7.8-11,8.1c-13.2,0.9-26.5,0.9-39.8,1.7c-16.8,1.1-32.9,3.8-49,8.9c-14.3,4.5-21.5,16.8-33,24.5
	C82.2,581.2,83.2,581.2,84.1,580.9z M141.4,339.5c-0.3,2.9,1.2,5,3.6,6c2.6,1,3-2,4.2-3.4c0.8-1,1.2-2.3,1.8-3.5
	c4.6-9.5,9.7-18.7,13.8-28.4c3-7.1,8-13,10.8-19.9c2.1-5.3,5.4-9.7,8.2-14.5c0.8-1.3,1.4-2.6,2.2-3.9c4.8-8.5,8.8-17.6,14.5-25.4
	c5.1-7,9.6-14.5,15.8-20.8c8.3-8.4,16.2-17.2,24.5-25.5c0.9-0.9,2.4-1.6,1.9-3.3c-0.5-1.7-2-2.1-3.5-2.3c-4.3-0.6-7.8,0.9-10.9,3.7
	c-1.2,1.1-2.1,2.4-3.6,3.3c-11.2,6.4-21.4,14.3-31.5,22.3c-5.4,4.3-8.8,11-15.7,13.4c-1.5,0.5-2.6,1.4-3.7,2.5
	c-6.5,6.4-12.5,13.2-16.3,21.6c-2.5,5.4-5.4,10.6-8.3,15.8c-3.5,6.1-7.2,12.7-7.7,19.1c-1,13-2.6,26.1,0,39.2
	C141.4,336.9,141.5,338.2,141.4,339.5z M11.1,351.7c1.8-2.4,4.6-4.5,5.2-7.1c2.1-9.1,8.4-15.5,14-21.9
	c10.1-11.7,21.3-22.5,32.8-32.9c10.7-9.7,22.2-18.6,33.9-27.3c2.4-1.8,4.4-4.3,6.4-6.6c5.2-5.9,8.6-13.1,13.9-18.7
	c6.3-6.6,12.9-12.9,19.3-19.4c1.1-1.1,2.1-2.1,3.1-3.2c0.7-0.8,1.3-1.7,0.5-2.7c-0.9-1.2-1.6-0.2-2.5,0.1c-3.9,1.1-7,3.5-10.5,5.5
	c-12.4,7-23.8,15.4-35.4,23.6c-6.5,4.5-12.3,10-19.2,13.6c-10,5.3-17,14-25.2,21.2c-2.5,2.2-4.1,6.5-7.9,6.1c-3.3-0.3-5,1.4-6.8,3.1
	c-6.9,6.5-11.8,15-19.8,20.6c-1.7,1.2-3.1,3.2-3.9,5.1c-1.5,3.6-4.2,6.4-6.5,9.3c-1.6,2.1-2.2,3.9-2.2,6.3c0,14,0,28,0,42
	c0,1.4-0.5,2.9,0.9,4.4C4.8,365.8,6.4,358,11.1,351.7z M109.8,681.3c-1.2,1.6-1.4,5.2-3.9,4.4c-2.2-0.7-3.6-3.4-3.3-6.5
	c0.5-4,0.3-8,0.6-11.9c0.1-1.4,0-3.4-0.9-3.6c-4.2-0.7-2.9-3.5-2.8-6c0.1-2.5,0.6-5,0.3-7.5c-0.7-7.1,0.9-13.8,3.6-20.3
	c0.9-2.3,3.6-5.4,1.2-7.1c-2.7-1.9-4.2,1.8-5.7,3.9c-0.1,0.1-0.2,0.3-0.4,0.3c-1.5,0.4-3,2.4-4.4,0.8c-1.1-1.2,0.2-2.8,1-4
	c0.4-0.5,1.1-0.8,1.5-1.3c7.5-8.4,18.4-11.7,27-18.4c3.8-2.9,8.5-3.6,12.8-5.2c1.2-0.4,2.7-1.2,2.3-2.8c-0.3-1.1-1.8-1.9-2.9-1.3
	c-4.5,2.3-9.7,1.8-14.2,4.5c-4.2,2.6-8.9,4.4-13.3,6.5c-1.2,0.6-2.3,0.6-3-0.7c-0.7-1.1,0.2-1.7,0.9-2.5c1.1-1.1,3.2-2.4,0.7-3.8
	c-1.7-1-3.5-0.4-4.6,1.6c-0.6,1.2-1.2,2.4-2.1,3.4c-12,13.5-25.5,25.3-39.6,36.5c-6.6,5.2-13.7,10-19.2,16.5c-3.5,4-9.1,6.1-12,9.9
	c-4.6,5.9-10.1,10.9-14.9,16.4c-3.9,4.5-8.1,8.8-12.4,12.8c-2.6,2.4-2.7,5.7-1.2,7.5c1.5,1.7,3.1-1.4,4.4-2.6
	c4.2-4,8.3-8.1,12.3-12.2c16.1-16.5,32.4-32.8,50.4-47.3c2.3-1.9,4.8-3.6,7.1-5.4c0.7-0.5,1.4-0.8,2.3-0.3c0.9,0.6,0.8,1.3,0.6,2.2
	c-1.8,6.4-1.3,13-0.6,19.3c1.3,11.8,5,22.8,15.9,29.6c1.3,0.8,2.8,1.4,2.8,3.2c0,2.4,1.8,3.2,3.5,3.5c4.1,0.8,4.7,3.4,4.6,7
	c-0.2,4.2,0,8.5,0,12.8c1.3-0.5,1.5-0.9,1.6-1.4c0.4-4.8-1.1-10.1,3.5-13.9c0.2-0.2,0.1-1,0-1.4c-1.4-4.5,0.9-8.1,2.9-11.7
	c1.6-2.9,2.2-5.5-0.4-8.8C111.1,678.3,110.8,680,109.8,681.3z M646.2,368.4c11,0.5,21.1,1.9,31-0.9c6.1-1.7,12.2-3.8,18.7-4
	c6.5-0.2,11.8,1.8,16.4,6.7c3.7,3.9,6.7,8.8,12.3,10.6c1.7,0.6,1.1,2.1,0.2,2.7c-2,1.3-2.9,3.5-4.4,5.2
	c-8.1,9.3-18.7,14.9-30.4,17.8c-12,3-24.1,5.9-36.6,5.6c-10-0.2-19.6-2.8-29.5-4.3c-6.9-1-13.8-1.8-20.6-2.7c-3-0.4-5.7-1.9-8-3.8
	c-4.9-4.2-4.3-12.2,1.6-16.2c8.1-5.5,15.9-11.9,25.7-14.3C630.7,368.7,639.1,369.7,646.2,368.4z M625.9,380c0.3,1.5-0.5,2.2-1.3,2.7
	c-3.1,1.8-6.4,3.4-8.7,6.5c-0.8,1.1-1.8,2-1.2,3.5c0.6,1.5,1.8,1.9,3.2,1.8c6.3-0.4,12.6,0.9,18.9,1c16.3,0.2,32.4-1.8,48.4-4.2
	c6.1-0.9,13.6-0.9,16.3-8.9c0.5-1.4,2.3-1.7,3.8-1.8c2.4-0.3,6,1.3,7-0.9c1.2-2.7-3.4-3.5-4.3-6c-0.2-0.7-1.2-1.1-1.8-1.6
	c-6.5-4.6-13.6-3.3-20.5-1.7c-6,1.4-11.7,4-17.9,3.8c-13.5-0.5-26.9,0.8-40.3,1.3c-6.5,0.2-13.2,1.8-17.5,7.8
	C615.2,381.8,620.3,379.4,625.9,380z M656.2,406.7c10.7-1.3,21.4-1.7,30.6-7.8c1.8-1.2,4.3-2.4,3.7-4.5c-0.6-2.2-3.5-1.5-5.3-1.1
	c-16.7,3.8-33.8,4.1-50.7,5.8c-1.4,0.1-3.4-0.5-3.7,1.5c-0.3,1.9,1.8,2.2,3.1,2.6C641.1,405.9,648.9,405.3,656.2,406.7z M0.4,268.9
	c0,2.8-0.1,5.7,0,8.5c0.1,2.1,1.2,3.2,3.3,2.1c4-2.1,8-4,11.7-6.5c10-6.5,20.4-12.2,31.3-16.9c8.2-3.5,16.9-6.2,22.6-13.8
	c1.8-2.3,3.5-4.6,6-6.5c7-5.2,14.6-9.8,20.2-16.7c0.7-0.9,2.8-1.3,1.8-3c-1.1-1.9-2.4-0.7-3.8-0.2c-11.5,4.6-22.8,9.7-34.5,13.4
	c-10.6,3.4-20.1,8.8-30.1,13.5c-7,3.3-13.4,8.1-20.3,11.3c-6.8,3.1-9.5,6.8-8.2,13.9C0.4,268.2,0.3,268.5,0.4,268.9
	C0.4,268.9,0.4,268.9,0.4,268.9z M582.3,112.9c-5.6-11.1-15.4-16.3-27.2-17.2c-11.2-0.9-22.6,0.3-33.8,0.7
	c-13.5,0.5-26.7,2-39.6,6.1c-7.7,2.4-15.2,5.5-23.4,6.5c-4.6,0.6-9.4,2.2-13.1,5.6c-0.7,0.6-1.6,1.4-1.1,2.5
	c0.1,0.3,0.8,0.6,1.2,0.6c6.6-1.2,13.5,0.8,19.9-0.9c13.8-3.6,27.3-7.6,41.9-5.6c8.1,1.1,16.4,1.4,24.7,1.5
	c16.2,0.1,32.4,1.9,48.5,4.2C583.5,116.9,583.3,114.8,582.3,112.9z M1101.3,507.1c-0.9-2-2.3-2.7-4-3.3c-3.7-1.2-7.6-2.1-11.2-3.6
	c-3.7-1.6-6.8-4.7-11.5-2.9c-1,0.4-3-0.3-3.7-1.1c-2.4-3.2-6.9-2.1-9.5-5c-0.7-0.8-2.2-0.7-3.2,0.1c-0.9,0.7-0.5,1.8-0.4,2.8
	c0.4,3.8,2,6.9,4.6,9.7c5.4,5.6,10,12.4,10.9,19.7c0.8,6.3,4.4,8.8,7.8,12.6c3,3.4,7.7,3.1,10.5,6.2c2.7,3,6.3,5.2,8.9,8.4
	c1.8,2.3,5.2,3.4,7.8,3.1c1.4-0.2,0.5-4.2,0.6-6.5c0.1-1,0-2,0-3C1108.6,531.3,1106.4,518.9,1101.3,507.1z M801.3,96.1
	c-5.6-3.3-12.6-3.1-17.5-6.6c-9.8-6.9-19.9-5.3-30.1-3.1c-11.9,2.6-23.8,5.7-35.4,9.7c-8.6,2.9-15.3,7.7-18.7,16.4
	c-0.5,1.2-1.5,2.4-0.5,3.7c0.9,1.2,2.2,0.3,3.2,0.1c10.3-2.5,20.7-4.7,30.8-7.7c18.1-5.4,36.3-9,55.2-8.4c6.1,0.2,11.9,2.8,18.4,2.3
	C805.4,99.5,803.9,97.6,801.3,96.1z M1.1,246.8c2,1,2.8-1.7,4.1-2.8c2-1.7,4.2-3.3,6.2-4.9c7.6-5.9,14.9-12.1,22.8-17.6
	c6.7-4.7,14-8.6,20.8-13.1c10.8-7.1,22.4-12.7,34-18.3c10.9-5.2,21.9-10.2,33-14.9c9.5-4,18.7-8.9,28.8-10.7c4.2-0.8,7-1.7,8.8-5.5
	c0.7-1.6,1.9-2.9,0.7-4.5c-1.2-1.5-2.8-0.3-4.1,0.1c-13.7,3.2-26.1,10.1-39.7,13.9c-11.9,3.3-22.6,9.9-33.6,15.4
	c-6.2,3.1-13.1,5.5-18.1,10c-5.6,4.9-12.4,7.5-18.3,11.8c-6,4.4-12.6,8.4-18.9,12.6c-7.8,5.3-14.9,11.6-22.6,17.1
	c-2.6,1.9-5.8,2.6-4.8,6C0.5,243.7-0.4,246.1,1.1,246.8z M578.2,174.5c-13.5-0.5-26.9,1.1-39.9,4.8c-12,3.4-23.8,3.4-35.9,1.6
	c-10.2-1.6-20-0.2-29.5,4.5c3.4,4.6,8.6,3.2,12.6,4.3c0.9,2.4-3,1.4-1.9,3.5c0.9,1.6,2.7,1.1,4.1,1c3.2-0.1,6.4-0.5,9.7-0.7
	c-0.2,1.7-2.4,2.5-1.3,3.9c1.2,1.6,2.9,0.4,4-0.3c3.2-1.9,6.6-2.1,10.1-1.6c1.6,0.2,2.7,1.9,4.6,1.6c13.2-2.2,26.2-4.5,38.4-10.7
	c4.9-2.5,9.8-5.7,16.1-5.5c4.2,0.1,8.3-2.4,12.6-4.7C580.5,174.6,579.3,174.6,578.2,174.5z M267.5,6.3c-2.1,3.7-4.5,7.2-6.7,10.8
	c-4.9,8.4-11,15.7-17.4,22.9c-8.2,9.1-16.4,18.2-26.3,25.7c-4.8,3.6-10.9,5.7-14.4,10.2c-8,10.4-13.6,22.3-19.7,33.9
	c-0.6,1.1-0.9,2.5,0.1,3.2c1,0.7,2.2-0.1,3.1-0.8c3.1-2.7,6.3-5.4,9.3-8.2c12.8-12.3,24.5-25.5,31.8-42.1c1.6,1,0.5,3.2,2.2,3.3
	c1.3,0.1,1.7-1.5,2.3-2.4c6.8-12.3,17.3-21.9,24.6-34.1c6-10.2,14.8-18.7,23.9-27.3C272.7-0.4,270.7,0.6,267.5,6.3z M701.5,171.8
	c7.1,0.2,13.7,2.2,20.4,4.2c9.6,2.9,19.8,3.8,28.8,8.6c4.3,2.3,9.6,4.1,13.9,2.2c5-2.3,10.5-0.6,15.6-4c3-2,6.6-3.9,9.7-6.2
	c1-0.7,2.8-1.3,2.4-2.8c-0.4-1.6-2.2-1.2-3.4-1.2c-11.6,0.2-23.2-1.7-34.9-1.1c-7.2,0.4-14.2-1-21.3-1.7c-6.1-0.6-12-3.1-18.2-2.2
	c-5.6,0.8-11.2,2.1-17.1,1.6C698,171.6,700.1,171.8,701.5,171.8z M936.1,88.5c-0.1-0.7,0-1.6-0.3-2.2C923.6,60.7,913,34.4,899,9.7
	c-3.3-5.8-6.5-11.3-14.7-9.2c-1.7,0.4-4.2-0.8-5.1,1c-1,1.9,1.1,3.6,2.1,5.2c5.6,8.9,12.6,16.8,18.6,25.6c10.9,16,21,32.5,30.7,49.3
	c1.5,2.5,3,4.9,4.6,7.4C935.5,88.8,935.8,88.6,936.1,88.5z M986.1,391.7c-3.7-12.3-6.3-25-7.9-37.7c-1.5-11.6-3.8-23.1-5.7-34.6
	c-1.8-11.3-4.7-22.4-7.7-33.5c-1.1-4.1-1.5-8.6-5.1-12.7c-0.4,10.6,2.2,20,3.2,29.6c1.2,10.7,2.6,21.5,4.5,32.2
	c1.2,7,2.1,14,3.7,20.9c1.8,8,3.9,15.9,6.5,23.7c2.2,6.6,5.3,12.9,8.4,20.2C987.5,396.3,986.8,394.1,986.1,391.7z M177.3,354.1
	c-0.4-1.2-2.3-4.8,2.3-3.9c1.5,0.3,2-1.3,2.1-2.3c0.2-3.3,0.1-6.6,0.1-10.8c-2.1,3.2-4.9,4.6-6.8,6.5c-5.5,5.3-9,12.2-10.4,19.9
	c-0.3,1.7-0.9,3.9,0.8,5.1c4.7,3.3,7.4,7.9,8.7,13.4c0.2,0.9,0.7,1.9,2.6,1.9C177.8,374.2,181,364.3,177.3,354.1z M972.7,151.2
	c-7.7-8.7-12.6-19.7-23.3-26c-6.3-3.7-11.6-9.3-17.4-14c-0.8-0.6-1.6-1.7-2.6-1c-1.4,0.9-0.2,2.1,0.1,3.1c0.2,0.6,0.8,1,1.2,1.6
	c7.9,12.8,19.7,21.9,30.8,31.5c3.3,2.8,6.5,6.6,11.3,7.4C973.5,152.6,973.1,151.7,972.7,151.2z M231.5,41.9
	c11-11.5,21.9-23.1,32.7-34.7c1-1.1,3.5-2.2,1.8-3.9c-1.4-1.3-2.7,1.1-4.2,1.7c-0.4,0.2-0.7,0.7-1.1,1c-8.3,8.3-16.9,16.2-24.6,24.9
	c-4.9,5.5-11.4,9.8-13.2,18.1C225.8,46.7,228.9,44.6,231.5,41.9z M333.5,0.5c-3.4,0-6.8,0-10.3,0c-8,0-11.7,2.6-14.2,10.1
	c-0.4,1.2-0.7,2.2,0.5,3.1c1.4,1,10.6-0.8,11-2.4c0.6-2.5,2.5-3.2,4.4-4.2c3-1.6,5.9-3.5,8.8-5.3C333.7,1.4,333.6,0.9,333.5,0.5z
	 M494.8,137.2c16.7-7.1,34.1-8.6,52.7-6.1C536.9,122.1,502.1,126.2,494.8,137.2z M854.7,39.7c7.2,5.9,14.3,11.7,21.8,17.3
	c1.8,1.4,5,4.3,6.7,1.9c1.4-2.1-1.8-4.6-4-6.1c-5.5-3.9-11.2-7.6-16.7-11.5c-3.3-2.4-6.4-5-10.3-8.1
	C852.3,36.5,853.2,38.4,854.7,39.7z M1215,493.3c-0.3-0.9-0.9-2.2-2.4-2.1c-0.4,0-0.7,0.6-0.9,1c-1.9,4,0.5,16,3.6,19.3
	c1,1.1,2,1.2,3,0.9c1.3-0.3,1.7-1.4,1.5-2.7C1219,504.1,1216.7,498.8,1215,493.3z M647.9,288.2c1,0.5,2,0.4,2.5-0.8
	c0.6-1.1-0.2-1.9-0.9-2.6c-1.8-1.6-4.1-2.1-6.4-2.3c-6.6-0.7-12.8,1.4-19.2,2.5c-2.4,0.4-4.8,2.1-5,5.2
	C628.7,288,638,283.8,647.9,288.2z M778.6,644.7c3.5,7.5,5.9,15.5,9.3,23.1c2.5,5.4,4.4,11,7.4,16.2c1.5,2.5,2,7.1,4.7,7
	c3.1-0.1,2.8-4.7,3.5-7.3c2.2-7.6,6.3-15.6-2.2-22.3c-1.5-1.2-2.5-3-3.7-4.5c-7.2-9.2-12.9-19.4-17.8-30c-0.4-0.9-1-1.8-2.2-1.7
	c-1.3,0.1-1.3,1.4-1.5,2.3c-0.2,1.1-0.2,2.3-0.4,4.3C776.4,635.5,776.5,640.2,778.6,644.7z M557.2,681.1c0-5.5-0.4-11.1-2.4-16.2
	c-5.9-14.9-12.2-29.7-18.4-44.5c-8-18.9-15.7-37.9-20.9-57.8c-0.5-1.9,0.3-4.5-3-6.3C519.1,601.4,540.7,640.3,557.2,681.1z"/>
<g>
</g>
<g>
</g>
<g>
</g>
<g>
</g>
<g>
</g>
<g>
</g>
<g>
</g>
<g>
</g>
<g>
</g>
<g>
</g>
<g>
</g>
<g>
</g>
<g>
</g>
<g>
</g>
<g>
</g>
</svg>
