<?xml version="1.0" encoding="utf-8"?>
<!-- Generator: Adobe Illustrator 18.0.0, SVG Export Plug-In . SVG Version: 6.00 Build 0)  -->
<!DOCTYPE svg PUBLIC "-//W3C//DTD SVG 1.1//EN" "http://www.w3.org/Graphics/SVG/1.1/DTD/svg11.dtd">
<svg version="1.1" id="Layer_1" xmlns="http://www.w3.org/2000/svg" xmlns:xlink="http://www.w3.org/1999/xlink" x="0px" y="0px"
	 viewBox="0 0 1281.2 720.8" enable-background="new 0 0 1281.2 720.8" xml:space="preserve">
<path d="M181.2,720.8c-2.3-4.3-6.8-6.4-10.4-9.1c-9.5-7.2-14.2-17.2-18.2-27.9c-0.3-0.7-0.8-1.3-1.5-2.4c-3.4,6.7-2.3,13.6-3.3,20.2
	c-2.5-5.9-1-11.9-0.6-17.8c0.2-3.7,0.6-7.6,2.1-11.2c1.2-2.8-0.2-5.3-2.1-7.7c-9.7-12.4-14.6-26-13.2-42.2
	c0.7-8.2,2.6-15.4,6.1-22.5c0.4-0.8,0.8-1.6,0-2.3c-1.1-1-2.5-0.6-3.8-0.1c-7.6,2.9-15.1,6-22.1,10.1C99,616.9,83.6,626.1,69,636.4
	c-8.8,6.2-17,13.1-25,20.3C29.4,669.7,16.3,684.4,2,697.8c-2.3-5.6-1.3-7.7,2.7-11.3c6.4-5.8,12.5-12.1,18.5-18.3
	c12.4-12.7,25.6-24.3,40-34.6c13.3-9.5,27-18.4,41.4-26.1c11-5.9,22.3-11.5,34.7-14c3.7-0.8,5.4-3.5,7.3-6.1
	c6-7.9,12.3-15.5,20.4-22c-4.9-3-9.2-0.6-13,0.3c-11.8,3.1-24,4.5-35.6,8.3c-14.1,4.6-27,11.1-37.3,22.2c-0.9,0.9-2.1,1.5-3.5,2.4
	c-1.3-2.6,0.3-4.4,1.3-6.1c4-7.3,9.3-13.5,14.9-19.8c8.6-9.8,19.8-14.7,31-20.1c17.3-8.3,36-10.7,54.7-13.6
	c17.2-2.6,34.7-2.7,51.8-5.6c8.1-1.4,14.2-5.3,19.2-11.3c10.5-12.7,21.7-24.8,29.4-39.7c1.3-2.5,3.5-4.5,5.9-5.9
	c2.9-1.7,4.6-0.5,4.5,2.7c-0.1,2.6,0.1,6-1.4,7.7c-5.4,6.3-5.6,14.7-9.5,21.5c-1.8,3.2-6.4,5-5.2,10.2c5.4-2.8,9.4-7.4,14.3-10.8
	c1.2-0.8,1.9-2.3,3-3.2c3.6-3,4.7-2.5,5.9,1.9c2.1,8.2,3.4,16.9,6.8,24.2c2.9,6.1,5.3,12.7,8.7,18.5c3.7,6.4,6,13.3,9.3,19.8
	c6.1,12.4,11.9,25.1,20.1,36.4c-4.3-11.5-8.4-23-13-34.4c-3.5-8.8-5-18.1-8.7-26.8c-5.3-12.4-6.5-25.9-9.8-38.9
	c-2.3-9.3-6.5-18.6-5.3-29c1.2-10.7-1.8-21.6-0.8-32.4c1.3-13.7,0.8-27.5,0.9-41.2c0-4.3-0.8-8.6-0.9-12.9
	c-0.6-17.1,0-34.1,6.4-50.4c-2.6,2.4-7.7,12.1-8.8,16.2c-0.5,1.8-0.4,4.8-2.8,4.6c-2.9-0.2-2.8-3.2-2.8-5.5
	c0.3-18.4,0.9-36.8,4.9-54.9c1.1-5.1,3.1-10.1,3.1-15.4c0-1.7,1.1-2.7,2.2-3.8c1.4-1.5,2.5-3.1,1.4-5.6
	c-17.5,14.8-29.8,33.2-40.7,52.9c8.4-25.2,24.2-45.9,41.8-66.6c-4.7,1.5-22.7,18.3-27.1,24.1c-7,9.3-14.3,18.3-20.1,29.1
	c-1.7-2.2-1-3.3-0.4-4.7c8-17.7,19.6-32.9,33.2-46.6c2.7-2.7,5.9-4.8,9-7c1.2-0.9,2.3-1.9,3-3.3c0.8-1.9,1.6-4-0.4-5.4
	c-1.9-1.4-2.9,0.7-4.2,1.7c-2.2,1.7-4.4,3.2-7.4,3.8c-5.1,1.1-7.5,6.2-11.4,9.2c-9.7,7.3-18.6,15.9-25.5,25.7
	c-7.3,10.4-14,21.3-16.9,34.1c-1.6,7-4.6,13.7-6.1,20.7c-1.1,5.2-2.3,10.3-3.7,15.3c-0.6,2.4-1,2.8-3.1,1c-4.1-3.7-5.6-8.9-7.9-13.5
	c-1.8-3.5-2.5-7.5-3.4-11.4c-0.9-3.8,0.4-6.2,4.8-5.9c0.3,0,0.7,0,1,0c2.4-0.2,5.7,1,6.5-2.1c0.7-2.7-1.7-4.5-3.8-6.3
	c-7.2-6-8.5-18-4.4-28.2c3.8-9.5,9-18.3,13.3-27.5c3.3-7,4.5-14.5,5.4-22.1c0.4-3.2-0.3-3.1-3.2-1.7c-8.3,3.9-16,9.4-25.3,11
	c-0.6,0.1-1.2,0-2.3,0c1.6-4.7,3.2-8.9,6.6-12.3c15.3-15.5,30.7-30.9,47.3-45.1c8.4-7.2,17.1-14.1,25.8-21
	c7.2-5.7,16.2-7.5,24.8-9.4c19.5-4.2,36.7-12.1,51-26.2c7.2-7.1,12.8-15.6,21-21.7c2.6-1.9,0.3-4.4,1.8-6.7
	c2.3-3.6,5.3-6.9,6.3-11.6c-6.6,7.7-11.8,16-19,22.7c-0.7,0.7-1.4,1.7-2.5,1.4c-1.6-0.5,0.6-2.2-1.3-3.2
	c-12,12.1-28.1,16.5-43.8,21.5c-5.6,1.8-11.7,2.4-17.5,3.6c-1.1,0.2-2.5,0.9-3-0.6c-0.5-1.5,1.2-1.9,2.1-2.3
	c6.7-2.6,12.7-6.5,19-9.7c12.8-6.4,24.9-13.6,36.3-22.1c6.6-4.9,13.6-9.1,20.7-13.3c9.7-5.8,17.9-13.7,25.6-21.9
	c8.3-8.8,16-18.1,21.5-29c4.3-8.4,8.1-17,11.2-26c1.8-5.3,3.9-10.6,5.7-15.9c0.9-2.7,3-2.4,4.9-2c2.3,0.5,1.8,2.4,1.4,4.1
	c-6.4,25-15.7,48.9-30.3,70.3c-9.5,13.9-21.2,26.2-35.2,37.1c5.1,0.4,7.6-2.7,10-5c4.4-4.4,10.1-7,14.6-11.2
	c0.7-0.7,1.6-1.5,2.6-0.6c0.9,0.8,0.5,1.8,0.1,2.8c-2.1,5.4-4.1,10.8-5.7,16.4c-2.1,7.8-3,15.7-3.4,23.6
	c-0.6,13.5-1.3,26.9,1.8,40.5c3.7,15.8,1,31.6-11.6,43c-10,9.1-10.9,19.9-9,31.4c2.1,12.6,6.5,24.6,10.6,36.7
	c5.5,16.3,12.3,32.2,18.3,48.3c3.4,9.1,8.4,17.6,12.9,26.3c5,9.5,10.1,19,15.6,28.3c8.6,14.5,17.6,28.7,28.7,41.6
	c14.3,16.6,31.5,29,49.5,40.9c18.2,12.1,38.4,18.5,58.4,26c14.4,5.4,29.1,10.4,42.9,17.4c7.1,3.6,14.7,3.9,22.2,4.9
	c14,1.8,28.2,1.4,42.4,1.1c7.6-0.2,15.1-1.8,22.5-3.9c12.3-3.5,24.6-6.9,35.4-14.1c8.6-5.8,16.1-12.9,22.7-20.7
	c7.6-8.9,16.3-17,22.5-27.1c6.4-10.3,11.7-20.9,15.7-32.5c4.7-13.6,7.1-27.6,9.9-41.5c1.2-6.1,0.4-12.2,1.2-18.4
	c1.2-9.2,2-18.4,3.2-27.6c1.4-11,2.9-22,5-32.9c0.2-1,0.3-2,0.7-2.9c0.5-1,1.4-2,2.7-1.7c1.2,0.3,1.1,1.5,1.2,2.5
	c0.3,4.3,0,8.6-1.3,12.8c-0.4,1.3-1.1,2.6,0.2,3.7c1.4,1.1,2.9,0.5,4.2-0.1c3.4-1.5,5.5-4.4,7.3-7.3c4.6-7.1,8-14.6,8.1-23.6
	c0.2-14.8-1.5-29.1-5.1-43.4c-1.5-5.8-2-11.8-2-17.7c-0.1-6.8,0.2-13.6-1.7-20.3c-1.6-5.6-0.3-6,5.5-5.6c8.3,0.5,16.4-1.6,24.1-4.5
	c2.9-1.1,4.8-0.9,7.8,0.6c-2.2-6.2,1.8-5.7,5.2-5.8c10.3,0,20.5,0,31.4,0c-2.3-4-5.6-5.4-8.8-7.1c-5.3-2.8-11.5-3.6-16.4-7.6
	c-2.5-2-6.7-0.2-9.9-2.4c-6.6-4.5-14.4-4.1-22-4.3c-7-0.2-13.3-2-17.3-8.7c-0.7-1.1-4-5.3-6.8-0.6c-0.7,1.2-2.5,2.1-3.3,0.6
	c-1.6-3.1-4.7-5.5-4.6-11.2c2.1,4.8,4.1,5.2,6.7,2.5c1.4-1.4,3.4-0.4,5.2-1c-3.7-0.3-6.3-2.1-7.6-5.5c-1-2.6-4.9-0.6-5.7-3.9
	c-0.8-3.2-0.9-6.2-0.7-9.4c1-14.1,1.8-28.1-0.8-42.1c-2.1-11.4-3-23-4.2-34.5c-0.2-1.9-1.2-4.7,1.9-5.5c2.6-0.6,3.7,1.5,4.9,3.4
	c10.2,16,23.5,28.8,39.5,38.9c-7.6-7-13.6-15.4-20.1-23.4c-0.8-1-2.5-1.9-1.5-3.3c1-1.4,2.5-0.1,3.5,0.5
	c11.5,6.9,23.8,12.3,36.2,17.5c4.1,1.7,8.4,3.2,12.7,4.3c10.9,2.8,21.4,6.9,32.7,7.8c1.8,0.1,3,1.1,4.3,2.2
	c5.2,4.6,10.4,9.2,15.6,13.7c2.3,1,3.6,4.4,7,3c9,11,19.9,19.8,30.8,28.8c0.9,0.8,3.4,1.2,2,3.1c-1,1.3-2.3-0.1-3.5-0.7
	c-14.7-7.7-28.8-16.4-41.2-27.5c-5.9-5.3-11-11.4-17-16.7c0,3.9,1.3,7.2,3.3,10.1c11.7,16.5,26,30.4,43.3,41.2
	c3.4,2.1,5.8,5.9,9.1,8.3c3.3,2.5,5.9,5.6,8.4,8.9c1.1,1.5,2.4,2.7,3.3-0.4c0.6-2.2,2.4-1.8,4.1-1c3.6,1.8,6.9,3.8,9.6,6.8
	c0.7,0.8,1.5,1.3,1.2,2.4c-0.4,1.2-1.5,1.2-2.4,1.3c-0.8,0.1-1.7,0.2-2.5,0.1c-2.4-0.3-3,2-4,3.2c-1.1,1.2,1.1,2,1.8,2.9
	c2.9,3.6,7.2,5.7,10.2,9.3c1.1,1.3,2.8,2.4,4.1-0.6c1.1-2.5,3.7-1.5,5.8-1.1c1.4,0.3,1.4,1.7,1.4,2.9c-0.1,2.5-1.9,2.3-3.8,2.6
	c4.5-0.6,5.8,2.8,6,5.7c0.4,3.6,1.9,5,5.1,5.5c3.2,0.5,5.7,1.5,7.3,5c1.4,3,5.1,4,8.8,5.4c0-3.3,0.4-6.2,4.7-5.4
	c1.6,0.3,3.6-0.2,3.9,2.2c0.2,1.8,0.6,3.7-1.9,4.4c-2.5,0.7-2.7,2.6-0.2,3c5.2,0.9,6.6,5.3,9.3,8.6c2.7,3.3,3.1,7.5,5.1,11
	c0.9,1.5,1.2,3.6,3.9,3.4c1-1.4-0.8-2.5-0.7-3.9c0.1-2.8,0.6-4,3.8-5.1c9-3,16,1.7,23.1,5.2c5.9,3,11.2,7.1,16.8,10.6
	c0.5,0.3,1.3,0.7,1.8,0.5c1-0.4,1.6-3.1,2.8-0.7c1.1,2.3,2.1,5,1.1,7.7c-0.7,1.9-2.4,1.1-3.8,1.2c-2.8,0.1-4.7-1.2-6.8-2.9
	c-5.5-4.4-12.7-2.7-19-4.6c-3.1-1-3.1,2.1-3,4.3c0.3,4.1,2.7,7.6,4.7,10.8c2,3,3.9,7.3,9.1,6.2c1.1-0.2,1.7,0.7,2.2,1.7
	c1.8,3.6,5.1,5.8,7.4,8.9c2.1,2.8,4.8,1.8,7.2,0.7c1.4-0.6,2.6-1.3,4.1-1.5c3.9-0.4,6,1.2,5.1,5.1c-1,4.3,0.8,6.6,4.6,7.8
	c3.1,0.9,3.9,2.7,3.6,5.8c-0.4,5.3,0.4,10.6,2.4,15.6c0.8,1.9,0.7,4,0.3,5.9c-0.5,2.6-2.2,4-4.6,2.4c-3.3-2.3-6.9-1.9-10.5-1.9
	c-2.8,0-4.6-0.8-4.3-3.9c0.3-3.1-0.8-5.8-3.2-7.4c-4.7-3.3-6.8-9.4-12.7-11.4c-1.4-0.5-2.7-1.3-4.2-1.2c-3.2,0.2-3.9-1.5-4-4.3
	c-0.1-3.2-0.7-6.3-0.6-9.6c0.2-4.3-4.7-7.2-8.4-9.8c-0.4-0.3-1.3-0.2-1.4-0.4c-3.3-7.9-12-11.8-14.8-20.3c-1-3.1-3.6-6.2-7.3-6.9
	c-1.4-0.3-2.5-0.5-3.5-1.4c-1.1-0.9-2.1-1.8-3.3-0.1c-1,1.4-0.5,2.6,0.4,3.6c0.9,0.9,2.3,1.4,3.1,2.4c1.5,1.8,2.1,4,0.8,6
	c-0.7,1.1-1.7,3-3.4,2.4c-1.9-0.7-3.7-1.9-4.4-4.2c-0.9-2.9-2.1-5.8-3.3-8.9c-1.3,1.6,0.4,4.9-1.4,4.1c-2.8-1.2-7.7,1.8-8.3-3.3
	c-0.4-4.2-2.2-8.4-0.8-12.8c0.8-2.4-1.3-3.7-2.6-5c-6.1-6.4-12.2-12.8-19.4-18c-2.2-1.6-3.5-3.4-3.7-6.4c-0.3-4.5-2.4-7.8-7.5-9.3
	c-3.9-1.1-6.8-4.5-8.3-8.4c-1-2.6-2.2-5-4.7-6.2c-5.2-2.5-8.2-7.3-12.3-11c-2.4-2.1-4.1-4.3-7.9-3.5c-3.6,0.8-7.6-6.9-6-11.3
	c-1.3-0.5-2.5,2.2-3.8,0.2c-2-3.3-5.8-4.2-8.5-7c-4.9-5.1-11.7-7.7-18.8-10.1c-8.2-2.8-16.4-2.5-24.4-2.9
	c-9.7-0.5-19.8-0.8-29.2,1.9c-7.5,2.1-15.3,0.2-23.2,3.1c1.7,0.6,2.9,1.3,4.2,1.5c10.5,1.7,21.1,4.1,31.7,4.7c13,0.7,24.7,6,37,8.8
	c2,0.5,2.8,1.7,4,3.2c1.2,1.5,2.1,4.3,5.5,2.8c2.9-1.3,2.6,2.3,3.5,3.7c1.1,1.9-0.3,4.2-1.6,5c-2.3,1.2-4.3-0.8-6.1-2.2
	c-4.9-3.7-7.6-11.3-15.9-9.3c-1.2,0.3-2.3-0.4-3.2-1.2c-6.9-6.5-15.5-2.7-23.3-3.6c-0.8-0.1-1.9,0.3-1.9,1.2c0,0.9,0.3,1.8,1.6,2.1
	c16.8,4.8,31.5,14.5,47.7,20.8c7.1,2.7,13.9,5.7,18.2,12.4c1,1.6,2.6,2.5,4.9,2.9c-1.6-5.9-6.9-8.4-10.4-12.3c-2.4-2.6-5-5-7.7-7.3
	c-1.3-1.1-1.6-2.3-1-3.5c0.8-1.5,2.1-1.6,3.8-1c2.9,0.9,5.1,2.2,7.3,4.6c4.8,5.3,10.3,9.9,14.7,15.5c8.7,11.1,18.7,21.1,25.7,33.7
	c6.1,11,12.2,22.1,17.8,33.3c7,14,11.5,28.9,17.2,43.4c0.6,1.6,1.2,3.1-0.2,5.1c-5.3-12.2-10.3-24.3-15.8-36
	c-4.8-10-10.2-19.8-16.6-28.9c-5.1-7.1-9.9-14.5-17.1-19.7c-1.1-0.8-2-2.7-3.7-1.6c-2.9,2-4.8,0-7.2-1.2
	c-13.5-6.9-27.1-13.7-42.9-13.6c-4.2,0-8.1,0.9-12.1,2.4c-6.8,2.5-14.2,2-21.2,1.4c-4-0.3-7.5,0.3-11.1,1.5c-4.1,1.4-8,3.2-12.5,3
	c4.1,1.6,8.4,1.2,12.6,0.7c7.4-0.8,14.8-2.4,22.3-1.6c8.3,0.9,16.5,2.7,24.8,4.1c0.6,0.1,1.3,0.7,1.9,0.6c10.3-1.4,18.7,4.8,28,7.3
	c5.7,1.5,11.4,4.5,15.7,8c3.7,3,7.7,6.8,10.8,11.1c2.6,3.6,6.8,6.1,8.1,10.8c0.3,1,1,1.2,1.9,0.5c3.2-2.7,4-0.2,5.3,2.2
	c10.7,20.7,17.2,43,24.2,65.1c3.2,10.2,6.5,20.4,10.2,30.4c3.8,10.6,7.2,21.3,11.8,31.6c1,2.3,3.6,4,3.2,7.1c-2.5-0.4-4-2.3-5-3.9
	c-5.9-9.9-12.4-19.5-16.6-30.5c-2.9-7.5-7-14.6-9.7-22.3c-4.2-12.2-9.4-24-13.8-36.1c-6-16.4-14.7-31.4-23.9-46
	c-0.6-1-1.5-1.7-2.6-2.4c1.3,6,5.1,10.8,7.5,16.3c6.8,15.2,13,30.5,17.1,46.6c3,11.7,6.9,23,10.6,34.5c3.5,10.8,7.8,21.1,12.9,31.1
	c8.2,16,19.2,30.1,32.6,42.2c1.8,1.6,3.9,3.3,6.2,4c7.1,2.3,11.3,7.8,15.8,13.1c6.4,7.5,14.3,13.3,22.1,19.3
	c2.4,1.8,5.6,2.8,8.4,4.1c1.8,0.9,2.7,1.8,1,3.7c-1.4,1.6-1.2,3.7-1.2,5.7c-0.2,9.1-1.3,18.1-2.6,27.2c-1.2,8.2-1.1,16.6,6,23
	c1.8,1.6,3.4,3.7,4.1,6.1c0.3,1.1,1,2.6,0.6,3.3c-4.7,7.4-0.7,15.3-2.5,23.8c3.1-2.6-0.2-7.6,4.4-7.2c3.5,0.3,1,4.3,2.9,6.9
	c-0.1-4.2,1.6-7.3,2.5-10.6c0.2-0.8,0.5-1.8,1.4-1.8c0.6,0.1,1.4,0.9,1.7,1.5c2.3,4.9,4.2,10,5.5,15.4c0.9,3.8-3.2,5.9-2,9.6
	c-2.1-0.6-1.2-1.9-1.8-2.6c-1.5,6.3,3,12.2,1.9,18.6c-0.2,1,0.7,1.1,1.6,1.3c2.1,0.4,2.2,2,1.6,3.8c-2.5,7.9-3.9,16.4-8,23.4
	c-2.3,4-1.2,4.5,1.2,6.2c0.3,0.2,0.4,0.9,0.3,1.2c-0.6,1.1-1.9,1.3-2.6,0.8c-3.6-2.9-9-0.1-12.3-4.2c-1.2-1.4-3.8-0.2-5.6,0.7
	c-1.6,0.9-1.6,2,0,3.1c2.6,1.8,5.5,3,8.4,1.9c3.3-1.2,4.6,0.1,4.1,2.9c-0.5,2.8,0.9,3.7,2.9,4.1c9,2,17.8,4.7,27.1,5.4
	c6.6,0.5,13.2,2.4,20,3.2c2.9,0.3,5.8,0.6,8.7,1.4c-7.7,1.7-15.3,3.3-23.2,3.7c-1.5,0.1-3,0-4.5,0c-1.2,0-2.6-0.1-3.1,1.1
	c-0.7,1.6,0.7,2.5,1.7,3.2c7.2,5.3,13,12.1,19.4,18.4c10.6,10.5,18,23.4,26.4,35.4c3,4.3,6.4,8.5,8.4,13.4c-1.7,0-3.3,0-5,0
	c-4.2-7.5-9.9-14-15-20.8c-4.9-6.6-10.5-12.8-15.5-19.3c-6.3-8.2-13.4-15.4-20.9-22.5c-6.8-6.4-14.5-8.6-23.4-8.1
	c-3.3,0.2-6.7,0-9.9-0.4c-2-0.2-4.4-1.5-5.6,0.2c-1.2,1.7,1.3,3.4,1.9,5.2c0.2,0.4,0.6,0.8,0.9,1.2c7.4,9.3,13.1,19.5,14.5,31.4
	c1.5,12.3,0.7,24.3-10,33.2c-6.7,0-13.3,0-20,0c1.2-8.4-4.6-13.9-9-19.4c-2.8-3.6-6.8-7-11.6-8.8c-1.2-0.4-2.4-0.5-2.8,1
	c-0.3,1.2,0.7,1.6,1.7,1.9c1.3,0.3,3.5-0.5,3.2,1.9c-0.3,1.8-2.2,1.7-3.7,1.7c-2.3,0-3.9,0.6-3.1,3.5c1.8,6.4,1.2,12.6-2.8,18.2
	c-85.7,0-171.3,0-257,0c-0.1-2.2-0.6-4.4-0.1-6.5c2.3-10.1,1.1-20.5,2.8-30.7c0.3-1.7-0.7-4,1.6-4.8c2.1-0.7,3.6,0.6,5.2,2
	c5.8,5,12,9.5,19.5,13.7c-1-2.1-2.2-2.7-3.2-3.5c-7-5.5-13-12.2-18.8-18.9c-3.4-3.9-3.6-9.1-3.2-15.3c-3.5,3.6-6.1,2.5-7.5-0.2
	c-5-10.1-10.4-20.1-14.3-30.6c-3.8-10.5-6.1-21.5-8.8-32.4c-1.4-5.6-2.3-11.4-3.3-17.1c-0.2-1.1-0.4-2.6,0.8-3.2
	c1.5-0.8,1.9,0.9,2.6,1.6c0.6,0.6,1.2,1.2,1.6,1.9c5.8,10.9,13.5,19.5,25,25.3c12.3,6.2,24.8,9.9,38.5,10.3c4.8,0.2,9.7,0,14.5,0
	c1.7,0,3.6,0,4.2,1.9c2,6.3,6.5,11.2,9.7,16.8c6.9,12.1,16.7,21.9,28,29.4c9.9,6.6,21.3,11.4,33,14.8c5.5,1.6,10.6,4.8,16.4,5.5
	c5.6,0.7,11.1,1.6,16.7,2.2c9.1,0.9,18.2-0.3,27.3,1.2c0.1,0,0.4-0.4,0.9-1c-8.8-4.6-17.2-9.8-25.5-15
	c-12.8-7.9-23.8-17.6-32.7-29.2c-7.9-10.3-17-19.5-24.3-30.2c-3.3-4.9-7.3-9.3-10.1-14.7c-5.6-10.4-9.2-21.6-13.6-32.5
	c-5.1-12.8-10.2-25.7-12.9-39.3c-0.8-3.7-3.1-7.1-3.7-10.8c-2-12.4-6.7-24-11.3-35.4c-7.6-18.5-16.2-36.6-26.5-53.9
	c-6.8-11.4-13.5-23-20.4-35.2c-1.3,5.7-1.5,10.3-0.1,15.6c1.8,7,4.9,13.4,6.7,20.2c2.2,8.3,3,16.9,5.8,25.1
	c1.9,5.6,3.1,11.5,4.2,17.3c1.9,10.7,3.3,21.6,5.1,32.3c1.5,8.5,3.5,16.9,3,25.6c-0.1,2.1,0.6,4.2,1,6.3c1.2,6.3,4.3,12.4,4.6,18.6
	c0.5,9,2.1,17.7,4.4,26.3c2.3,8.4,4.8,16.8,7.6,25.1c0.6,1.9,2,3.8,0.6,5.5c-1.4,1.7-3.7,1.2-5.6,0.5c-8.7-3-16.8-7.3-23.5-13.5
	c-5.7-5.2-10.9-10.6-14.4-18.1c-2.4-5.2-7.1-10-9.8-15.3c-7.2-14.5-10.6-30.2-13.5-46c-2.2-11.8-2.8-24-7.5-35.3
	c-0.9-2.1,2-5.1-1.7-6.5c-2.8,3.3-4.6,7.5-8.5,9.6c-3,1.6-3.9,3.7-3.9,7.2c0.2,15.4,1.1,30.8-3,47.2c-4.1-8.7-3.3-18-7.9-24.9
	c-0.1,2.2-0.5,5.1-0.6,7.8c-0.3,6.9-1.4,13.9,0.2,20.9c0.5,2.1,0.2,5.2-2.2,5.9c-2.1,0.6-4.5-0.2-5.2-3.3c-0.4-1.8-1.3-3.7-4.2-4.3
	c0,24.8-4,48.5-11.8,71.7c0.1-7.4,1.1-14.6,1.6-21.9c0.7-10.3,3.7-20.2,4.6-30.4c1.2-14.2,2.3-28.4,3.5-42.5
	c0.1-1.3,1.1-2.8-0.4-3.6c-1.3-0.7-2.4,0.7-3.5,1.4c-11.2,7.2-23.7,11.1-36.4,13.8c-19.7,4.2-39.6,5.4-59.8,3.9
	c-18.4-1.4-35.3-7.8-52.2-13.9c-12.2-4.4-24-10.2-36.3-14.3c-10.5-3.5-19.8-9.3-29.6-14c-2.8-1.4-6-1.9-8.6-3.5
	c-4.8-2.8-9.2-6.2-13.9-9.2c-5.6-3.5-11.6-6.5-16.9-10.4c-18.1-13.5-31.9-30.9-43.7-49.9c-8.6-14-16.2-28.5-21.7-44.1
	c-0.8-2.3-2-4.7-3.5-6.5c-4.6-5.4-8-11.4-10.9-17.8c-1.2-2.6-2.2-5.6-6-4.5c-4.1,1.2-4.2,4.6-3,7.7c5.4,14.4,10.2,29,14.3,43.8
	c3.2,11.3,7,22.4,10.4,33.7c3.3,10.8,5.7,21.8,9.7,32.3c7,18.2,14.2,36.4,22.4,54.1c11.1,23.9,21.9,48.1,35,71
	c6.9,12.1,13.9,24.1,21.9,35.5c2.4,3.4,4.4,7,6.5,10.5c-0.5,0.3-1,0.7-1.4,1c-10.2-13-20.6-25.8-30.4-39
	c-9.9-13.3-19.2-27-28.3-40.9c9.7,28.7,26.1,54,39.9,80.6c13.8,26.6,27.2,53.4,40.8,80.1c-0.5,0.3-1,0.5-1.5,0.8
	c-8.8-12.3-16.5-25.3-26.2-37c0.5,2.5,1,4.9,2.1,7.1c4.2,9,8.7,17.9,12.8,27c1.6,3.5,4.2,6.9,3.3,11.2c-49.3,0-98.7,0-148,0
	c-1.1-8.3,0.2-16.6,0.7-24.9c0.7-11.8-1.3-23.6-1.1-35.4c0.1-4.4-0.7-8.9-1.3-13.3c-1.4-9.8-3-19.5-4.7-29.3
	c-0.3-1.9-1.3-3.7-1.9-5.6c-0.6-1.9-1.6-3.7-1.8-5.6c-1-8.2-3.1-16.2-5.1-24.2c-3.2-12.7-7.7-25.2-11.5-37.8
	c-4.1-13.5-8.9-26.9-12.9-40.5c-2.5-8.6-5.4-17.2-8.6-25.6c-4.7-12.5-7.7-25.5-11-38.3c-2.8-10.8-5.3-21.7-8.5-32.5
	c-0.4-1.3-0.4-2.6-0.6-3.9c-1.4-10.7-2.8-21.4-4.3-33c-0.6,1.3-0.9,1.7-1,2.1c-1,11.5,1.3,22.9,1,34.4c0,0.5,0.1,1,0.3,1.4
	c4.1,7.9,2.9,16.8,4.4,25.2c1.3,7.8,2.2,16,4.9,23.1c2.8,7.4,3.8,15,5.9,22.4c3.8,13.4,7.6,26.7,11.4,40.1c0.9,3.1,3.5,6,3.8,9.1
	c0.9,9.9,5.1,18.8,7.5,28.2c2.6,10.4,6.3,20.5,9.2,30.8c1.9,6.6,2.5,13.8,4.6,20.2c2.2,6.6,4,13.3,5.2,20c0.9,4.7,4.3,8.3,4.5,13
	c0.7,11.4,3.7,22.5,5.6,33.6c2.6,15.4,2.7,30.7,2.2,46.1C319.2,720.8,250.2,720.8,181.2,720.8z M877.3,416c0.5,1.5,0.5,2.2,0.8,2.7
	c6.6,11.8,11.7,24.3,19,35.9c6.7,10.7,15.3,19.9,22.5,30.2c6.7,9.4,15.1,17.5,22.4,26.4c6.3,7.7,12.3,15.5,19.2,22.7
	c5.8,6.1,10.7,13.1,15.4,19.8c9.4,13.3,18.1,27.3,25.7,41.7c2.6,5,5.7,10,6.8,15.3c0.9,4.3,2.2,8.2,3.9,12.2
	c3.1,7,7.4,13.6,8.5,21.5c1.9,13.9,3.4,27.9,3.3,42.2c-0.1-3.2,4.5-3.3,4.1-5.7c-0.7-4.2,1.3-7.8,1.8-11.7c1-7,5.3-8.8,11.1-4.9
	c2.3,1.5,5.5,3.5,7.3,0.2c2.3-4.3,6-8.4,4.1-14.1c-0.5-1.7,0.4-3.2,2.2-3.9c1.4-0.5,2.6-0.9,3.5-2.4c1.7-2.8,3.4-2,4.5,0.7
	c1.5,3.9,1.3,7.9-0.2,11.7c-1.6,4-0.8,8.1-1.7,12.1c8-13.6,9.9-33.4,4.8-44.5c-0.3,2-0.5,4-2.5,6c-0.5-5.7-1-10.6-1.2-15.6
	c-0.1-2.1-0.8-5.4,2.5-5.6c3.1-0.2,1.6,3,2.3,4.6c0.2,0.5,0.4,0.9,0.5,1.4c2.6,11.9,6.1,23.7,7.7,35.9c0.8,6.2,1.7,12.4,1.9,19.4
	c5-7.6,6.2-16,10.4-23.2c2.3,1.9,0.3,4.7,2.8,6.6c2.7-6.6,5.4-12.9,7.9-19.3c1-2.5,1.4-5.3,5.1-3.6c-5.8-8.1-16.6-8.7-24.2-15.9
	c4.3-0.2,6.9,1.3,9.5,2.7c3.8,2,7.8,3.7,12,4.7c1.7,0.4,5.1,0.5,4.1-2.1c-2.4-6.1-0.6-11.9-0.6-17.9c0-12-0.3-23.9,1.8-35.8
	c0.7-3.7,1.6-8.2-3.5-10.7c-1.5-0.8-2.1-3.5,0.1-5c1-0.7,2.6-1.4,1.5-2.4c-1.7-1.6-1.6-5-4.4-5c-3,0-3.9-1.5-4.5-4
	c-1.3-5.1-3.1-10.1-5.5-14.9c-7.1-14-16.2-26.7-25.1-39.5c-2.5-3.6-5.2-7.1-8.5-10.2c-6-5.5-12-11.3-16.1-18.6
	c-1.7-3-4.6-5.8-7.6-7.6c-6.1-3.8-12.9-6.8-18.5-11.4c-3.8-3.2-7.9-3.2-12.2-2.7c-2.3,0.3-3.6,2.3-1.3,3.7c6.9,4.1,8.3,12.9,15,17
	c0.8,0.5,2.2,1,1.2,3.2c-4.2-2.1-7.6-5-10.8-8.1c-3.9-3.7-10-5-12.2-10.6c-0.1-0.2-0.9-0.3-1.4-0.3c-7.4,0.7-9.1-7.1-14.4-9.8
	c-1.3-0.6-1.8-3.4-4.5-2.5c-1.8,0.6-2.9-1.1-4.4-1.6c0,4.5,3.3,6.9,5.8,9.6c1,1.1,4,1.5,3.1,3.2c-1.1,2.1-3.5,0.6-5.3,0
	c-0.6-0.2-1.3-0.4-1.9-0.7c-7.1-3.6-13.9-7.6-20.2-12.5c-9.6-7.4-20.1-13.9-28.4-22.5c-9.6-9.8-20.3-18.6-28.1-30.2
	c2.6,5.6,5.8,10.7,9.7,15.4c7.2,8.9,15.9,17,17,30c0.8-2.6,2.7-4.4,4.3-2.7c1.9,1.9,4.2,3,6.2,4.7c7.1,6,11.5,15,21.1,18
	c1.5,0.4,3,2,2.4,3.9c-0.6,1.9-2.4,1.3-3.8,1.4c-1.6,0.2-3.8-0.6-4.4,1.5c-1.2,3.9,1.8,4.3,4.3,3.8c11.6-2,20.9,2.8,28.1,11
	c4.2,4.8,11.9,5.7,13.6,13c0.1,0.6,1.3,0.9,2,1.3c6.3,3.5,12.2,7.2,17.6,12.2c4.2,3.8,6.5,9.8,12.5,11.5
	c5.6,10.5,14.9,18.6,19.1,29.8c1.2,3.2,4.9,4.1,5.3,7.6c0.5,4.4,2.7,8.2,5.1,11.8c2.8,4.2,2.2,8.7,1.5,13c-0.3,2-1.3,4.2-1.1,6.1
	c1,8.5,0.3,17,0.4,25.5c0,2.1,1.2,6-1.3,6.1c-2.9,0.1-5.4-3-6.1-6.3c-0.3-1.3-0.1-2.7-0.1-4c-0.2-3.3,0.5-6.7-0.5-9.9
	c-3.4-10.4-9.7-19.1-16.5-27.5c-2.1-2.6-4-5.1-3.9-8.3c0.2-3.6-1.7-5.6-4.1-8c-4.1-4.1-8.5-8.2-11.2-13.2c-4-7.3-9.8-13-16.4-16.7
	c-5.9-3.4-9.4-8.9-14.6-12.8c-5.9-4.4-12.6-8.2-18.1-13.8c-4.9-5-11.9-8-17.6-13.3c-7.1-6.7-14-14-22.1-19.8c-1.3-0.9-2.5-1.9-3-3.3
	c-2.4-7.5-9.5-10.8-14.9-15.2c-4.3-3.5-7.5-7.2-9.9-11.8c-3.3-6.4-8.2-12-10.2-19.1c-0.3-1-0.8-2.1-2.8-1.8c1.7,4,3.4,7.8,5,11.6
	c4.9,11.4,13,20.9,18.6,31.6c4.4,8.4,10.6,14.8,16,22c7.6,10.1,18.8,17,27,26.8c3.7,4.4,9.9,5.7,13.1,10.4c4,5.9,12.6,7.7,13.9,16
	c0,0.1,0.2,0.3,0.3,0.3c8.8,5.5,15.3,13,21.9,21c5.1,6.2,9,13.7,15.9,18.5c0.5,0.4,0.9,1,1.2,1.6c5.1,9.8,10.6,19.5,15.1,29.5
	c2.1,4.8,6.5,9.1,5.2,15.1c-0.5,2.2,0.9,4.1,1.7,6.1c2.8,7.5,3,15.4,3.5,23.2c0.3,5.2-2.2,10.8,2.4,15.6c1.2,1.3,1.3,4.7-0.3,6.1
	c-2.1,1.9-2.3,3.8-2.3,6.2c-0.1,2.4-1.2,4.4-3.7,4.5c-2.6,0-3.8-2-3.8-4.4c0.1-4.8-0.4-9.6,0.5-14.4c0.8-4.5,1.9-9.9-0.4-13.7
	c-2.4-4-3.1-8-3.1-12.1c-0.1-8.1-5.3-14.9-5.6-22.9c0-0.3-0.4-0.6-0.6-0.8c-4-4.9-6-10.9-9.5-16.1c-2.1-3.1-2.8-6.6-4.6-9.8
	c-4.2-7.4-13.3-11.5-14.3-21c-0.1-0.5-0.8-1.1-1.4-1.3c-3.1-1-4.6-3.8-6.8-5.7c-4.1-3.5-5.1-9.4-9.7-12.5c-3.5-2.3-5.5-5.6-6.9-9.4
	c-0.4-1.2-0.6-3.3-2.7-3c-3.3,0.6-6.1-2.4-5.9-3.6c0.6-4.7-3.9-4-5.5-6.1c-1.9-2.5-3.6-5.3-5.8-7.4c-11.8-11.4-23.7-22.7-35.6-33.9
	c-0.8-0.8-1.7-1.7-2.7-2.2c-4.8-2.4-8.1-6.1-10.3-10.9c-1.2-2.6-3-4.6-5.3-6.4c-4-3.1-7.6-6.6-9.8-11.5
	C884.8,424.8,882.7,419.7,877.3,416z M315.4,276.7c0.9,16,4.7,30.5,16.6,42c9,8.7,19,16.5,27.4,26c3.8,4.3,9.2,7.1,15.3,7.7
	c11.1,1.1,20.2-2.9,27.2-11.5c1.7-2.1,3.6-3.7,6-4.2c2.8-0.6,2.6-1.9,1.6-3.8c-1.7-3.2-3.7-6.4-4.8-9.8
	c-5.1-15.2-12.4-29.6-16.6-45.2c-3.2-11.8-7.3-23.4-6.2-36c0.3-3.1,1-8.1-2.9-8.3c-4-0.2-4.3,5.1-4.3,8.3c0.1,7.7-1.2,15.2-2.8,22.7
	c-1.2,5.8-1.2,11.8,3.7,16.2c3.8,3.5,4.8,8.2,6.5,12.7c1.2,3.2-1.6,6.8-5,6.3c-4.4-0.6-9-1.6-12-5.3c-7.1-8.6-13.9-17.5-16.5-28.6
	c-2.1-9.2-1.3-18.2,6.5-25.1c2.1-1.8,2.3-4.1,1.4-5.8c-2-4-1.2-8.6-3.3-12.7c-1.6-3.2-2.3-7.5-0.9-11.2c1.5-4-0.2-8.4,2.3-12.4
	c1-1.6,0.2-4.1-1.2-6.1c-3.3-4.6-8.5-6.9-12.4-10.5c-10.5-9.9-26.6-0.1-30.3,10.8c-4.1,12.1-4,24.2-1.8,36.3
	c2.3,12.4,5.6,24.7,6.6,37.4c0.1,1.7,0.2,3.7,2,4.9c2.5,1.6,2,3.8,1.6,6C317.5,278.2,317.5,275.9,315.4,276.7z M237.3,560
	c-1.6,0.6-3.5,1.1-5.2,2c-8.2,3.9-16.8,6.6-25,10.8c-15.7,8.1-30,17.3-41.8,30.5c-3.9,4.3-4,8-2,13c2.7,6.6,4.8,13.7,5.7,20.4
	c1,7,4,13.3,5.2,20.1c0.8,4.4,2.3,8.6,3.3,12.9c0.4,1.4,0.9,2.6,2.5,2.5c1.6-0.1,2-1.4,1.5-2.5c-1.7-4.1,1.3-7.1,2-10.7
	c1.5-7.4,3.2-14.3,7-20.9c1.5-2.5,1.6-6,3.8-8.4c5.9-6.6,9.6-14.6,17.1-20.2c6.4-4.8,11-12,17.8-17c9.3-6.9,18.6-13.6,28.5-19.6
	c3.5-2.1,7.2-4.6,9.6-7.8c4.6-6.4,10.4-11.5,15.3-17.5c2.9-3.5,4.5-7.2,5.5-11.5c0.2-0.8,0.7-1.6-0.1-2.3c-1-0.8-2-0.1-2.7,0.4
	c-1.1,0.7-2,1.7-2.9,2.7c-3.2,4-7.1,7.3-11.2,10.2c-6.3,4.5-13.1,8.4-19.8,12.3c-3.6,2-7.4,6.6-11.9,1.2
	C239.3,560.1,238.4,560.2,237.3,560z M145.2,640.3c2.6-0.7,2.7-3,2.7-5.1c-0.2-6.3-0.2-12.6,3.1-18.4c2.7-4.7,5.9-9.2,5.2-15.1
	c-0.1-0.8,0.8-2.3,1.4-2.5c5.4-1.2,7.3-6.4,11-9.4c11.4-9.5,20.3-22.4,35.2-27.5c0.4-0.1,0.9-0.6,1.1-1c1.7-4.1,5.5-5.2,9.3-5.9
	c8.3-1.6,15.2-6.4,23-9.2c0.9-0.3,1.7-1.1,2.5-1.7c1.6-1.2,1.7-3,0.8-4.4c-1-1.6-2.4-0.3-3.5,0.2c-11.1,5.1-23.4,6.7-34.6,11.5
	c-10.4,4.4-21.1,8.1-29.4,16.2c-2.4,2.4-5.3,4.3-8,6.4c-5.8,4.6-11.4,8.9-12.5,16.8c-0.2,1.1-1,1.6-1.7,2.3c-2,1.8-3.6,3.9-4.2,6.6
	c-1.7,7.6-6.8,14.4-4.1,23.1c1.3,4.1,0.2,8.9,0.3,13.4C142.5,638.4,142.8,640,145.2,640.3z M367.4,634.8c1-4.1,0-6.7-0.9-9.4
	c-3.8-11.3-7-22.8-10.8-34.1c-3.2-9.7-6.4-19.4-9.5-29.1c-2.2-6.6-5-12.9-7.3-19.5c-2.1-5.9-2.5-12-4.6-17.7
	c-3.2-8.7-5.7-17.5-8.4-26.3c-4.6-15.4-6.3-31.4-10.2-46.9c-1.8-7.3-2.8-14.8-4.2-22.1c0.7,4.1,0.1,8.3,0.5,12.4
	c0.8,6.6,2.3,13,3.2,19.5c1,7.2,1.9,14.4,3.6,21.4c2.6,10.2,4.3,20.6,7.4,30.7c2.8,9,5.2,18.1,8.3,27c3.9,11.4,8.7,22.6,12.4,34
	c3.8,11.6,8.1,22.9,11.7,34.6C361.2,617.4,364.8,625.2,367.4,634.8z M157.3,613.3c-4.4,7.8-5.7,16.3-5.6,24.7
	c0.1,9.9,4.2,19.2,6.4,28.8c0.5,2.1,1.5,4.2,3.8,3.9c2.9-0.3,1.8-3.1,1.9-4.9c0.5-12.4,0-24.7-3.3-36.9
	C159.2,624,159.5,618.4,157.3,613.3z M941.2,383.5c-3-0.3-4.9-2.9-8-2.4c-1.7,0.3-3,0.7-3.2,2.5c-0.1,1.6,1.1,2.3,2.5,2.7
	c1.4,0.4,4,0,4,1.3c0,6.2,4.6,5.6,8.4,6.3c0.8,0.2,2,1.1,2.2,1.8c1.3,6.1,6.7,3.3,10.1,4.6c0.7,0.3,2-0.1,1.8-1.1
	c-0.7-3.2,1.5-7.5-3.6-9.3c-2.5-0.9-4.9-2.6-6.7-4.6c-5.1-5.6-11.1-10.4-15.7-16.5c-1.2-1.6-3-2.2-4.9-1.4c-0.5,0.2-0.8,1-1.1,1.5
	c3.8,0.1,0.6,5.4,4.1,5.6C937,374.9,938.5,379.8,941.2,383.5z M1057.3,708.6c14.1-15.3,16.2-33.1,14.3-51.9
	C1068.3,674.1,1063.2,691.1,1057.3,708.6z M176.4,693.1c-1.3-12.9-6.4-24.7-9.5-37.1C166.3,669.5,169.4,681.9,176.4,693.1z
	 M1117.6,693.3c2.6,7.6-0.3,15.8,2.9,23.2C1125.3,708.2,1122.4,700.6,1117.6,693.3z M809.2,720.8c0.5-8.1,2.1-16.5-4.9-23.3
	c2.7,0.7,2.3,4.6,5.3,4c2-0.4,2.6-2.5,2.8-4.3c0.8-7.1,2.4-14,3.4-21c0.6-4.4-0.7-6.9-3.6-9.4c-4.9-4.4-10.3-8.3-13.8-14.1
	c-5.3-8.8-9.2-18.3-12.9-27.9c-0.5-1.2-0.1-3.4-2.5-3c-1.8,0.4-1.9,1.9-2.2,3.5c-2.1,12,4.7,22.8,4.7,34.6c0,0.3,0.4,0.5,0.5,0.9
	c4.8,11.3,9.4,22.7,15.5,33.4c-5.9-3.9-10.4-9.1-13.8-15.1c-3.8-6.6-7.1-13.5-10.7-20.3c-0.6-1.2-1.3-2.6-2.9-2.3
	c-1.8,0.4-1.1,2.1-1.2,3.3c-0.1,1.1,0.1,2.3,0.2,3.5c0.7,6.2,2.6,12.4-1.1,18.7c-1.4-3.1-3.5-5.1-6-7.1c-4.5,7.7-6.2,16.1-8.3,24.4
	c-1.8,7.1-3.8,14.1-2.6,21.5C773.2,720.8,791.2,720.8,809.2,720.8z M1281.2,643.8c-7.7-4.6-12.7-12.2-17.5-19
	c-11-15.3-17.1-33.4-25.6-50.1c-3.5-6.8-6.7-13.7-12.8-18.8c2.1,7,4.5,13.8,7.3,20.4c1.9,4.6,2.4,8.8-1.2,13.1
	c3.7,1.6,7.6,1.9,9.3,6.2c5.9,15.7,12.2,31.3,23.7,43.9c5.4,6,9.8,13,16.9,17.4C1281.2,652.4,1281.2,648.1,1281.2,643.8z
	 M1281.2,405.8c-1.4-1.2-2.8-2.3-4.1-3.6c-1.8-1.7-4.1-2.7-5.5-0.6c-1.1,1.8-2,4.8,1.2,6.3c2.7,1.3,3,3.7,3.1,6.3
	c0.1,5,1,10.2-0.2,14.9c-1.9,7.5,1,12.7,5.6,17.7C1281.2,433.1,1281.2,419.4,1281.2,405.8z M1281.2,359.8
	c-5.9,0.4-10.9-1.8-15.7-4.9c-1-0.6-1.9-1.3-3-1.7c-1.7-0.8-3.8-1.4-5,0.4c-1.2,1.8-1,4.2-0.2,6.2c0.6,1.7,2.3,2.3,4.1,1.7
	c2.9-0.9,5.4,0.1,8.1,1.3c3.8,1.6,7.8,2.7,11.7,4C1281.2,364.4,1281.2,362.1,1281.2,359.8z M160.7,80.6c-11.9,2.8-23.9,5.2-35.6,8.6
	c-10.2,2.9-20,7-30.1,10.2c-14.5,4.5-27.9,11.3-41.3,18.1c-4.4,2.2-9,4.1-13.3,7c-8.9,6-17.7,12.1-26.5,18.2
	C7,147.4-2,151,0.8,162.3c0.3,1.2-0.5,2.9,0.9,3.6c1.3,0.6,2-0.9,2.9-1.4c4.2-2.4,7.6-5.8,11.5-8.6c17.9-12.6,36.9-23.5,56.5-33.2
	c3.8-1.9,8.3-1,11.6-3.2c10.2-7.1,22-9.9,33.5-13.4c17.6-5.4,35.4-9.8,53.7-12.4c6.7-1,12.9-4.3,19.8-4.1c1.1,0,2.4-0.8,3.1,0.6
	c0.6,1.3-0.7,2.1-1.4,2.9c-3.3,4.1-7.2,7.9-9.8,12.5c-2.6,4.6-6.1,7.8-10.2,10.4c-10.5,6.8-19.6,15.7-31.6,21.2
	c2.4,1.4,4.3,0.7,5.9,0.3c5.1-1.2,10.4-2,14.8-5.2c1.3-0.9,3.1-1.9,4.6-0.5c1.6,1.4,0.4,3.3-0.1,4.6c-1.3,3.4-3.1,6.6-4.6,9.9
	c-0.5,0.9-1.1,1.7-2.1,2c-15.9,4.7-31.7,9.4-48.4,10.1c-5.6,0.2-10.9,1-15.9,3.4c-12.7,6-25.5,11.6-37.8,18.3
	c-17,9.2-33.6,19.1-50.1,29.2c-2.5,1.5-7,2.3-6.7,7c0.2,3,0,6,0,9c0,2.3,0.5,3.6,3.2,2.2c3.6-1.9,7.5-3.4,11.1-5.6
	c12.8-7.7,26.8-12.7,40.5-18.2c6.9-2.8,14.1-4.8,21.1-7.2c3.8-1.3,7.4-3.6,11.2-4c6-0.7,11-3.4,16-6.3c16.3-9.7,33.6-17.2,51.7-23.1
	c3.2-1,7.2-0.9,9.3-3.9c7.7-11.2,17.1-20.8,27.6-29.3c5.3-4.2,10.3-8.8,16.2-12.4c5.4-3.2,11.7-4.9,16-10.4c2.2-2.8,6.5-4.3,9.2-7.2
	c0.9-1,2.1-0.7,3.2-0.1c4.3,2.5,8.6,1.9,12.9,0.2c4.2-1.7,8.5-2.5,13-3.2c3.8-0.6,7.4,0.6,11.3-0.2c6.1-1.3,12.5-2.4,18.8-1.3
	c6.5,1.2,12.9,1,19.5,1c17.5,0,33.8-3.9,48.6-13.2c5-3.2,11.4-5.6,14.4-10.2c4.1-6.1,10.2-10.2,14-16.4c0.6-1.1,1.8-2.2,3-2.5
	c3.4-0.9,5.1-3.6,7-6c6-7.6,10-16.4,13.2-25.5c0.5-1.5,1.3-3.2,0-4.1c-1.6-1.2-2.7,0.7-3.7,1.7c-4.3,4.2-9.6,6.8-14.5,10.1
	c6.7-8.1,14.5-15,19.7-24.3c0.8-1.4,1.7-2.6,1.3-4.1c-0.5-1.7-2.2-1.2-3.4-1.2c-23,0-46,0-69,0c-1.4,0-3.2-0.3-4,1.4
	c-3.9,8.4-10.9,14.4-16.2,21.7c-6.2,8.6-14.3,14.5-22.6,20.5c-5.9,4.3-12.6,7.6-18.7,11.7c-6.8,4.5-14.5,6-21.9,8.4
	c-8.1,2.6-16.7,3.7-24.8,6.3c-6.7,2.1-13.5,5.5-20.3,5.6c-10,0.2-19.1,3.8-28.7,5.4c-9.1,1.5-18.3,2.3-27.3,4.8
	c-2.4,0.7-5.3,1.8-9.1,0.5c4.9-2.6,9.8-2.9,14.5-5.8C162.3,80.7,161.5,80.4,160.7,80.6z M613.5,398.5c4-2.1,8.1-4.2,12-6.4
	c10.7-5.9,21.4-11.8,32-17.9c4.4-2.5,9.2-3.4,13.9-3.4c13.4-0.2,26.7-0.8,39.9-3.2c10.9-2,19.3,3.1,25.9,11.3
	c3.2,4,6.9,4.7,11.5,3.3c1.8-0.5,3.7-1.5,4.6,1c0.8,2.5,0.3,4.6-2.7,5.4c-0.6,0.2-1.3,0.8-1.8,0.7c-6.1-0.9-11.3,0.5-15.8,5.2
	c-1.4,1.5-4.8,0.8-7.1,1.8c-12.7,5.2-26,7.7-39.5,8.4c-8.7,0.5-17.6-0.5-26.4-0.4c-7.6,0.1-15.3-0.8-22.9,0.9
	c-2.5,0.6-4.6-0.6-6.1-2.5c-2.5-3-5.3-4-9.2-2.8c-2.4,0.7-5.1,0.1-7.7,0.1C613.8,399.4,613.6,398.9,613.5,398.5z M713.2,371.1
	c-2.6,0.2-5.3-0.2-7.9,0.5c-8.4,2.1-16.8,3.7-25.5,3.5c-11.7-0.3-22.1,3.4-31.4,10.4c-0.8,0.6-2.7,0.4-2.3,2.1
	c0.4,1.4,2,1.5,3.2,1.9c6.1,2,12.9,2.2,18.7,1.4c13.2-1.7,26.5-1.3,39.6-3.6c6.1-1.1,12.4-2,17.4-6.4c3.4-3,3.4-4.7-0.3-7.4
	C721.2,371,717.3,370.8,713.2,371.1z M656.4,398c0,0.5,0,0.9,0,1.4c9.1,0.3,18.2-0.4,27.3,1c9.8,1.5,18.7-1.9,27.3-6
	c-0.1-0.5-0.1-1-0.2-1.4C692.6,394.7,674.5,396.3,656.4,398z M525.3,84.5c-6.8,1.2-14,2.1-19.1,7.4c-4.8,5.1-10.6,8.3-16.6,11.5
	c-6.3,3.3-13,5.9-18.1,11.1c-0.7,0.7-1.6,1.6-1,2.6c0.8,1.2,2,0.8,3.1,0.1c3.1-2.2,6.6-3.1,10.2-4c7.5-1.7,14.4-4.7,20.6-9.4
	c4.3-3.3,8.7-6.2,14.8-5.9c21.2,1.1,42.5,3,63.8,2.2c1.1,0,2.3,0.2,3.4,0.6c7.8,2.6,16.1,1.2,24,3.6c2.2,0.7,1.7-1,1.4-2.4
	c-2-10.2-9.9-16.5-20.6-17.6c-11-1.1-21.9-0.8-33.5-1C547.2,83.7,536.2,82.6,525.3,84.5z M928.6,91.5c-6-3.7-8.4-10.7-13.7-15
	c-6.8-5.6-10.3-13.7-15.2-20.8c-2.2-3.2-4.4-5.9-8-6.9c-5.2-1.5-8.4-4.7-10.5-9.7c-5.2-12.2-10.9-24.2-17.7-35.6
	c-1.6-2.7-10.2-4.8-11.9-2.6c-2.6,3.3,1.3,4.6,2.9,6.5c0.1,0.1,0.2,0.3,0.3,0.4c6.3,9.2,12.6,18.3,18.7,27.6c1.3,1.9,2.7,4,2.7,7.4
	c-10.8-5.5-21.1-10.3-31.3-17.3c0.3,1.8,0.2,2.6,0.5,3.1c9.9,11.7,18.9,24.4,33.8,30.8c0.7,0.3,7.1-0.4,2.5,4.1
	c-0.1,0.1,1,1.6,1.7,2.2c1.3,0.9,2.8,1.5,3.4,3.7c-4-1.3-7.5-2.5-10.8-4.5c-3.1-1.8-5.9-4.9-11.1-3.9c20.5,16,42.6,26.5,65.5,36.3
	C930.8,94.3,930,92.3,928.6,91.5z M0.8,318.1c0,6.1,0.5,6.3,6.3,3.7c10.3-4.5,20.5-9.2,31-12.9c4.9-1.8,10.2-2.9,14.8-5.5
	c2.6-1.5,4.3-3.4,3.1-6.5c-2.9-7.6-5-15.4-4.6-23.7c0.1-2.6-0.9-3.4-3.8-1.9c-11.9,6.1-23.3,13.2-35,19.6c-8.2,4.4-15,8.4-11.8,19.3
	C0.8,312.7,0.8,315.4,0.8,318.1z M955.6,113.1c-4.7-6.5-9.8-12.8-13.8-19.8c-6.8-11.9-12.7-24.2-17.8-37.1
	c-7.1-17.8-16.2-34.8-24.4-52.2c-0.8-1.6-1.7-3.3-3.4-3.3c-7.4-0.2-14.7-0.1-22.8-0.1c1.6,2.9,3.5,4.1,5.4,4.7
	c3.9,1.2,6.1,3.8,7.5,7.4c4.1,10,11.9,17.9,15.6,28.1c0.2,0.5,0.5,0.9,0.8,1.3c6.2,10,11.9,20.2,18.6,29.9
	c6.1,8.6,12,17.4,17.9,26.1c3.6,5.3,9,9.2,11.5,15.3c2.3,1,3.6,4.4,7,3C957.4,115.1,956.3,114.2,955.6,113.1z M727.7,98
	c-0.6,1.4-1.5,3-0.7,4.2c0.8,1.3,2.7,0.8,4.2,0.6c17.3-2.7,34.7-5.3,51.3-11.3c8.2-2.9,16.6-5.7,25.6-2.6c3.2,1.1,6.2,3,9.9,3.2
	c-0.1-1.7-0.7-2.9-1.4-4c-7-9.8-19.7-15.3-34.6-12.5c-14.4,2.7-28.6,7-42.9,10.3c-2.7,0.6-4.1,3.4-7.3,3.1c1.3-2.7,2.9-4.9,5.6-6.7
	c-7.5-1.6-10.3,4.1-16.3,15.8c4.4-0.3,6.2-3.2,7.6-7.3C730.9,94.4,728.6,96.1,727.7,98z M1148.3,398.3c-3.6-1.6-9.5-1.3-6.5-8.1
	c0.2-0.4-0.7-1.5-1.2-2.1c-4.1-4.6-9.3-7.6-15.3-8.5c-2.8-0.4-5.4-0.9-8.2-3.1c3.4-0.2,4.6-1.8,4.3-4.6c-0.2-1.9-0.6-3.4-2.8-3.3
	c-2.4,0.1-5.1-2.4-7.1-0.2c-2.2,2.4,2.6,2.3,2.2,4.6c-1.6,0.2-2.9-0.5-3.9-1.6c-2-2.2-4.4-4.4-5.4-7c-0.4-1,1.8-3.3-1.2-3.7
	c-2.5-0.4-5.7-0.3-6,2.8c-0.2,3-1.5,2.2-3.1,2c-1.1-0.1-2.3,0.1-3.5,0.3c-0.7,0.1-1.2,0.5-1.3,1.3c-0.1,1,0.4,1.8,1.3,1.8
	c4,0,4.5,2.4,4.4,5.6c0,1,0.2,2.1,1.5,2.3c1.2,0.2,1.8-0.6,2-1.7c0.2-0.8,0.2-1.7,1.6-2c1.2,2.9,4.5,6,4.2,8.2
	c-1,8.1,5.6,12.7,7.8,19.2c1.7,5.2,6.4,9.6,9,14.9c1.1,2.3,3,1.6,4.7,1.5c0.3,0,0.7-0.2,0.8-0.4c0.9-1.9-0.9-1.6-1.8-2.1
	c0.2-0.3,0.4-0.7,0.6-1c3.7-5.3,8.4-8.9,15.3-9.4c4.1-0.3,8.5-0.5,12.4-2.9C1151.9,399,1149.9,399,1148.3,398.3z M93.6,284.2
	c0.7,3.5,1.9,3.6,5,3.1c8.7-1.4,16.3-6.2,25.3-6.8c5.9-0.3,6.6-2.3,4.9-8.4c-1.4-5.1-2.3-10.2-1.5-15.6c0.6-3.6,0.1-7.3,0.1-11
	c0-2.4-1.3-3.5-3.5-2.8c-8.4,2.6-16.8,5.1-24.8,8.8c-1.1,0.5-1.9,1.3-2.2,2.5c-1.4,6.6-5.6,12.5-4.2,18.1
	C93,277.3,92.9,280.7,93.6,284.2z M1134.3,453.4c-2.2-1.6-4.8-2.1-7.5-1.9c-1.9,0.1-3.8,0.4-4.5,2.4c-0.8,2.1,0.4,3.6,2,4.7
	c3.5,2.5,6.9,5.1,10.5,7.4c3.5,2.2,6.9,5,11.3,4.6c13.4-1.3,26.5-4,39.2-8.3c3.7-1.2,6.6-4.7,10.2-4.9c7.4-0.3,11-6.7,18-9
	c-1.7-0.7-2.2-1.2-2.8-1.2c-10.8-0.9-21.7-0.9-32.5-2.7c-1.1-0.2-2.6-0.1-2.8,1.4c-0.4,2.6,2.2,1.6,3.8,2.9c-6,0.4-8.9,6.5-15.1,6
	c1.4,2,3.3,0.7,4.8,1.6c-7.5-0.4-14.9,2-22.2-0.4c3.6,0,7.3,0,10.9,0c1.7,0,3.6,0,3.7-2.3c0.1-1.9,1.2-4.3-0.3-5.7
	c-1.2-1.2-3.9-1.2-5.1-0.1c-2.1,1.9-4.3,1.3-6.5,1.4c-3.3,0.1-6.7-0.1-10,0.1c-3.4,0.2-3.9,1.8-1.3,4.6
	C1136.3,454.5,1135.3,454.2,1134.3,453.4z M528,199.2c2.5-1.4,5.5-4.6,7.3,0.8c0.2,0.6,1.1,0.8,1.7,0.5c4.3-2.5,9.1-1.6,13.5-2.5
	c9.2-1.7,18.2-4.9,26.4-9.7c8.1-4.7,14.6-12.5,25-12.9c1.2,0,3.2-1,2.7-2.9c-0.5-1.6-2.2-1.1-3.5-1.1c-10.8-0.6-21.2,2.3-30.8,6.1
	c-13.4,5.3-27.1,7.3-40.9,5.5c-8.6-1.1-15.9,1.5-23.6,3.6c-1.2,0.3-2.7,0.9-2.6,2.6c0,1.5,1.4,1.7,2.5,2c2,0.5,4,0.9,5.9,1.2
	c-0.4,2.6-4.9,1.3-3.6,4.1c1.2,2.6,4,1.5,6.1,0.3c2.4-1.5,5.2-0.1,7.7-2.1c-0.4,3.1-3.3,3.1-4.1,5.7
	C521.6,201.7,524.8,201,528,199.2z M56.9,293c0.2,7,1.8,8,8.2,5.7c7.9-2.9,15.8-5.7,23.8-8.3c2.8-0.9,3.7-2.2,2.8-5.1
	c-2.6-8.6-4.9-17.2-4.2-26.3c0.2-2.7-1.1-3.6-3.7-2.6c-5.1,2-10.1,4.1-15.4,5.7c-5.4,1.6-8.8,5-9.1,10.3c-0.4,6.3-1.8,12.4-2.5,18.7
	C56.9,291.7,56.9,292.4,56.9,293z M717.1,167.4c4,1.2,7.4,2,10.8,3.2c7.4,2.6,14.5,5.7,22,7.8c5.2,1.5,9.8,3.4,14.1,6.8
	c3.4,2.7,7.6,4.7,12.3,3.4c0.8-2.1-2.3-2.1-1.5-4.3c2.9,0.8,5.9,1.7,8.9,2.4c1.9,0.4,4.4,1.2,5.5-0.9c1.6-3.3,4.3-2.5,6.8-2.8
	c2-0.2,5.5,1.4,4.2-3.4c-0.4-1.4,1.7-1.9,2.9-2.3c1.8-0.6,3.4-1.3,4.2-3.1C801.8,172.4,721.8,166.1,717.1,167.4z M177.2,244
	c-6.5,6.8-7.8,16.7-13.8,23.9c-1.4,1.7-1.9,4.3-0.3,6.5c2.5,3.4,4.4,7.7,7.6,10c5.9,4.1,10.9,9.3,16.9,13.4c0.9,0.6,2.1,1,3.1,1.5
	c0.8,0.4,1.7,0.6,2.2-0.3c0.2-0.5,0.3-1.5-0.1-1.8c-4.6-4.6-4.9-11.4-8.6-16.6c-2.9-4.1-5.6-9.4-3.5-14.4c2.7-6.6,2-13.7,3.8-20.3
	c1.6-5.8,3.8-11.4,5.7-17.2C183.7,232.2,181.8,239.2,177.2,244z M140.3,215.8c3.1-6.6,8.6-11.6,13.1-17.2c1.1-1.4,3.3-2.9,1.8-4.5
	c-1.5-1.6-3.6-0.3-5.3,1c-5.3,3.9-11.1,7.3-16.1,11.7c-6.1,5.3-11.7,11.3-17.5,17.1c-0.6,0.6-1.2,1.3-0.8,2.2c0.3,0.7,1,0.7,1.7,0.6
	C125.6,224.5,135.5,225.9,140.3,215.8z M1079.8,204.2c-2.4-1.4-4.9-2.7-7.3-4.2c-12-7.6-24.8-13.2-38.7-16.3
	c-1.5-0.3-3.2-0.7-3.9,1.1c-0.7,1.6,0.9,2.3,1.9,3.1c1.1,0.9,2,2.2,3.8,2c7.1-0.9,9.5,4.9,12.5,9.4c2,2.9,5.6,4.7,6.6,2.4
	c2.1-4.8,5.2-2.2,7.1-0.8c1.9,1.3,3.7,1.8,5.7,2.6c4.2,1.8,9.2,1.8,12.9,5c0.9,0.8,2.2,0.7,3.3-0.1
	C1083.3,206.1,1081.5,205.2,1079.8,204.2z M408.8,48.2c-2.9,2.9-5.5,6.5-9.4,8c-6.7,2.7-10.6,7.4-12.1,14.4
	c-0.6,2.9-1.8,5.6-2.5,8.5c-0.3,1.1-2.1,2.4-0.5,3.5c1.7,1.1,2.8-0.4,4.2-1.5c10.6-8.3,16.1-20.6,24.5-30.6c1-1.2,1.8-2.8,0.8-5.2
	C411.8,45.8,410.2,46.8,408.8,48.2z M1137.4,221.9c-0.2-0.9-1.1-1.1-1.9-1.3c-12.3-3.3-24.5-6.6-36.8-9.8c-1.7-0.5-3.4-0.3-3.6,2.1
	c-0.2,2.1,0.8,3.1,2.8,3.2c2.1,0.1,4.4-0.2,6.2,1.3c6.9,5.3,15.6,6.9,23.4,9.3c5.5,1.7,8,5.2,12.6,8.9
	C1140.6,230.4,1138.4,226.2,1137.4,221.9z M253.2,37.7c10-7.7,21.1-13.6,31.6-20.5c6.1-4,11.5-8.8,16.9-13.6
	c0.7-0.6,1.8-1.3,0.9-2.4c-0.6-0.7-1.6-0.7-2.2-0.1c-4.3,4.1-10.4,5.6-14.8,9.2c-7.4,5.8-15.8,10.1-23.2,15.9
	c-5.9,4.6-12.5,8.3-16.9,14.6C248.5,40.6,251,39.3,253.2,37.7z M1198.5,335.3c-0.3-4.3,1.6-4.5,4.7-2.6c2.8,1.7,5.5,3.8,8.5,5
	c1.7,0.7,3.4,3.2,5.3,1.5c1.9-1.7-2.2-2.1-1.5-3.9c0.1-0.3,0-0.7,0-1c-0.6-6-2.6-7.7-8.8-7.8c-3.5,0-6.7,0.1-9.5-3
	c-1.9-2.1-5-0.7-7.4-0.1c-1.7,0.4-1.2,2.6-0.8,3.9c0.7,2.3,2.1,6.1,3.8,5.8c5.8-1.3,3.9,1.7,3.2,4.5c-0.3,1.1-0.5,2.3,0.6,3.2
	C1198.3,339.3,1198.6,337.3,1198.5,335.3z M662.5,279.4c-3.1,0.1-5.2,1.4-6.3,4.1c-1,2.6-0.6,5.5,1.4,7.4c2,1.9,3.8,3.9,7.5,1
	c4-3.3,9.5-1.1,14.4-0.2C676.2,282.5,671.2,279.1,662.5,279.4z M20,253.8c5.5-2.2,10.8-5.1,16.6-6.5c6.6-1.6,12.5-4.9,19-6.7
	c2.7-0.8,3.3-4.7,2.3-6.8c-1.2-2.8-3.3,0.1-4.9,0.7c-2.3,0.9-4.6,1.9-6.9,2.8c-12,5-23.1,11.6-34.4,18.1
	C14.9,256.6,17.4,254.8,20,253.8z M268,380.1c-0.1,1.1,0.2,2.4,1.6,2.8c3.1,0.7,5.9,2.4,9.1,2.2c1.6-0.1,3.6,0.7,4.4-1.3
	c0.7-1.9-0.5-3.7-1.9-4.8c-6.2-4.9-8.4-11.4-7.7-19.1c0.2-1.8,0.9-4-1.8-5.5C268.8,362.8,269,371.6,268,380.1z M87,234.5
	c1.6,1.9,2.4,0.6,4-0.8c3.7-3.1,5.9-7,8.2-10.9c1.1-1.8,3.4-3.5,1.4-5.5c-1.7-1.8-4.2-0.8-5.9,0.5c-6,4.2-10.4,9.9-15,15.5
	C82.2,235.1,84.9,231.9,87,234.5z M582.1,133.7c-6.5-13.5-50-12.7-59.5-3.7C542.8,126.7,562.4,123.7,582.1,133.7z M1182.7,393.5
	c-1.5,0-3,0-4.5-0.1c-6.9,0-14,2.8-20.5-1.6c-2-1.3-1.7,0.8-2.1,1.5c-0.5,0.9-0.6,2.4,0.7,2.2c6.8-1.1,11,7.5,18.2,4.8
	c0.3-0.1,1,0.4,1.2,0.7c0.9,1.8,1.9,3.6,4.1,2c2.4-1.7,4.4-3.8,6.4-5.6C1185.5,395.4,1185.2,393.4,1182.7,393.5z M1075.3,386.4
	c1,3.5,3,6.5,5.7,8.6c2.3,1.8,2.1-2.9,4.4-2.7c0.3,0,0.7-0.1,1-0.1c2.8,0,3.1-1.8,3.1-4c0-2.6-1.2-3.3-3.6-3.7
	c-9-1.5-8.9-1.6-9.4-10.3c0-0.6-0.2-1.3-0.6-3.3C1074.8,375.6,1074.6,383.7,1075.3,386.4z M630.5,280.2c-1-8-0.5-15.8,1.3-23.7
	c-8.6,12-5.8,41.4,12.7,44.3C637.6,294.5,631.7,288.9,630.5,280.2z M1198.1,492.1c-0.9-2.4-3.8-2.7-5.9-1.9
	c-2.3,0.9-2.8,3.1-1.4,5.4c1.4,2.3,2.6,4.6,4.1,6.8c1,1.3,1.4,3.9,3.9,3.1c2.3-0.7,1-2.8,1.1-3.9
	C1201,497.8,1199.2,495,1198.1,492.1z M570.9,683.2c-2.2-9.9-6-19.3-10.1-28.5c-5.7-12.7-12.3-25-18-37.7
	c-5.2-11.6-10.8-22.9-13.7-35.5c-1.1-4.8-1.7-10.1-4.3-14.7c-1,0.9-0.9,1.9-0.8,2.9c1.6,13.7,4.9,27,10.3,39.6
	c4.9,11.4,9.9,22.9,15.7,33.9c4.6,8.8,8.5,18,13.1,26.8c2.9,5.5,4.8,11.4,7.1,18C571.8,685.7,571.2,684.5,570.9,683.2z M757.2,589.3
	c2.1,0.7,3.3-2.1,4.6-3.8c1.3-1.7,3-3.1,4-4.9c1-1.8,1.3-4-1.7-4.4c-7.2-1-8.2-0.1-8.2,7.6C756.6,585.2,754.6,588.4,757.2,589.3z"/>
<g>
</g>
<g>
</g>
<g>
</g>
<g>
</g>
<g>
</g>
<g>
</g>
<g>
</g>
<g>
</g>
<g>
</g>
<g>
</g>
<g>
</g>
<g>
</g>
<g>
</g>
<g>
</g>
<g>
</g>
</svg>
