<?xml version="1.0" encoding="utf-8"?>
<!-- Generator: Adobe Illustrator 18.0.0, SVG Export Plug-In . SVG Version: 6.00 Build 0)  -->
<!DOCTYPE svg PUBLIC "-//W3C//DTD SVG 1.1//EN" "http://www.w3.org/Graphics/SVG/1.1/DTD/svg11.dtd">
<svg version="1.1" id="Layer_1" xmlns="http://www.w3.org/2000/svg" xmlns:xlink="http://www.w3.org/1999/xlink" x="0px" y="0px"
	 viewBox="0 0 1251.5 720.8" enable-background="new 0 0 1251.5 720.8" xml:space="preserve">
<path d="M237.5,720.8c0-4.5,3.4-7.5,5.2-11.1c5.7-10.9,8.7-22.5,9.5-34.7c0.6-8.9,1.8-17.8,0-26.8c-0.3-1.4,0-3-1.6-4.4
	c-2.3,2.9-1.9,6.5-2.7,9.7c-0.4,1.7,0,4.1-2.1,4.5c-1.8,0.3-2.5-1.9-3.2-3.4c-5-11.2-9.9-22.4-14.8-33.6c-2.2-5.1-4.9-10.2-6.4-15.6
	c-2.7-9.7-5.9-19.3-7.2-29.3c-0.4-3.3-1.3-6.4-3.9-8.9c-2.7-2.7-4.9-5.8-7.3-8.8c-5.8-7.1-9.6-8.3-18-4.4c-13,6.2-25.9,12.9-37,22.1
	c-7.9,6.5-14.3,14.7-20.7,22.8c-7.6,9.6-14.8,19.5-22,29.4c-6.4,8.8-13.1,17.4-19.1,26.5c-2.1,3.2-5.2,5.8-9.3,7.3
	c3-5,6.1-9.9,9.1-14.9c1.9-3.1,4.1-6.1,3.5-10.1c-0.2-1.1,0.6-1.8,1.2-2.6c5.5-8.1,12.6-14.9,19.7-21.6c4.9-4.6,7.1-10.7,10.5-16.1
	c7.2-11.7,13.6-23.8,22.2-34.5c0.4-0.5,0.9-1.1,1.4-1.4c8.4-3.1,14.9-10.4,24.4-11.1c1.2-0.1,2.3-0.7,3.3-2.2
	c1.4-2.4,4.2-3.5,7.3-3.4c3.9,0.1,7.7-0.7,10.2-4c2.3-3.1,5.6-2.1,8.6-2.9c6.5-1.7,12.9-4,18.8-7.4c2.3-1.4,5.5-1.6,6.8-4.9
	c0.5-1.3,3.3-2.5,4.8-0.9c4,4.1,7.8,1.4,10.7-0.7c2.8-2.1,5.7-2.6,8.7-2.9c7.8-0.7,14.7-3.9,21.7-6.9c4.5-1.9,4.5-3.8,0.6-6.5
	c-1.2-0.8-1.7-1.7-1.7-2.7c0.4-7.4-3.3-14.1-3.5-21.5c-0.2-12,0.6-23.6,4.9-35.1c4-10.8,10.4-19.4,19.3-26.5
	c4.3-3.4,5.6-9.9,3.4-15.1c-1.2-2.9-1.9-6-0.9-10.2c1.8,5.3,4,9.4,4.7,14.2c1.6,11.8,5.6,23,10,34.1c1,2.6,1.2,4.7-1.8,5.4
	c-2.6,0.6-5.2,0.8-6.4-2.9c-1.1-3.6-3.3-6.8-3.2-10.8c0-1.6-0.9-4.1-3.2-3.6c-2.8,0.6-1.2,2.8-0.9,4.5c1.2,5.6,3.8,10.6,6.6,15.5
	c3.7,6.2,3,7.2-1.8,12.7c-7.2,8.3-12.6,17.8-11.8,29.5c0,0.5-0.1,1.2,0.2,1.5c2.3,2.1,2.5,4,0,6.1c-0.5,0.4-1.1,1.9-0.1,2.7
	c1,0.8,2.3,0.5,3.3,0c4.8-2.6,9.6-5.3,14.3-8c2.6-1.5,5.2-2.4,6.5,1.3c4,11.7,11.2,21.8,16,33.2c1.6,3.7,0.9,7.7,2.2,11.1
	c3.1,7.7,4.2,15.6,3.7,23.8c0,0.6,0.1,1.5,0.4,1.9c7.4,9.1,3.9,20.9,7.5,30.9c3.1,8.8,1.3,18.4,4.6,27.2c1.3,3.4,0,7.3,1.7,10.9
	c0.4-12.1-1.1-23.9-2.3-35.7c-0.5-5.4-1.6-10.9-1.6-16.3c0-9.2-0.7-18.2-1.6-27.3c-0.2-1.9-0.1-4.2,1.8-4.6c1.8-0.3,2,2.1,2.4,3.7
	c3.4,12.1,6.1,24.4,9.6,36.3c2.4,8,3.2,16.4,6.2,24.4c3.4,9.2,5.1,19.1,7,28.8c0.8,3.9,2.7,7.4,3.5,11.3c3,15.9,6.6,31.7,10.4,47.5
	c-1.2-9.8-2.1-19.6-3.5-29.3c-3.3-23.7-7.2-47.3-12.4-70.6c-3.8-17.3-7.4-34.5-13.8-51.1c-2.5-6.4-3-13.5-4.3-20.4
	c-0.2-1,0-2.1,1.1-2.5c1.1-0.3,1.4,0.7,1.8,1.3c2,3.5,3.9,7.1,6.6,10.3c-1.8-4.6-3.3-9.5-5.6-13.9c-4.1-7.5-5-16-7.7-24
	c-2.4-6.9-6.4-13-8.4-20.1c-0.9-3.2-3.7-2.3-5.9-1.8c-5.8,1.2-11,4.9-17.5,3.6c0.1-2.6,2.3-3.3,4.1-4.2c4.6-2.3,8.9-4.9,13-8.1
	c2.5-1.9,3.1-3.6,1.5-6.2c-2-3.3-1.8-6.9-2.4-10.5c-0.9-6.4-2.2-13-4.4-19.1c-4.1-11.6-4.8-23.9-8.4-35.6c-1.6-5.1-0.3-11-4.1-15.6
	c-0.9-1.1-0.7-2.4-0.1-3.8c2.4-5,0.5-9.4-1.9-13.7c-0.7-1.3-2.1-2.2-2.1-3.9c0-10.5-6.3-20.3-5.2-30.4c0.9-8.5,0.1-17.1,2.5-25.6
	c1.6-5.7,0.3-12.2,3.7-17.7c0.1-0.2-0.3-1-0.6-1.2c-0.9-0.4-1.5,0.2-2,1c-1.9,3.5-4.2,6.9-5.6,10.5c-3.7,9.2-5.6,18.8-6.6,28.8
	c-0.9,8.8-1.6,17.4-1.5,26.2c0.1,4.4,2.2,8.7,1,13.2c-0.2,0.9,0,2.1-1.8,2.5c-4.2-9.7-10.1-18.7-13.8-28.6
	c-2.4-6.2-3.3-13.3-5.1-19.9c-2.4-8.7-3.9-17.5-5-26.4c-0.1-1-0.1-1.6-1.9-1.9c-2-0.3-1.9-3.3-2-5.4c-0.2-3.1,0.8-6.3-2-9.7
	c-2.1,5.2-5.2,9.6-1.9,15.1c2.8,4.6,1.2,8.7-1.6,12.4c-8.7,11.7-19.1,21-32.1,28.3c-17.4,9.7-36.4,15.7-54.5,23.8
	c-6.4,2.9-13.7,4.7-20.5,7.3c-16,6.2-31.4,13.8-47.2,20.5c-9.4,4-19.2,7.1-28.2,11.8c-5.7,3-12.3,3.8-17.5,8.2
	c-1.3,1.1-4.5,0-7.1,1.1c-14.2,6-27.7,13.7-42.5,18.6c-1.8,0.6-3.6,1.6-6.2-0.1c2.6-1.5,4.7-3,7-4c18.4-8.3,36.8-16.7,55.2-24.9
	c11.8-5.2,23.8-10.1,35.6-15.1c23.4-10,46.8-20.2,69.8-31.2c17.3-8.3,35.3-15.2,53.1-22.2c9.2-3.6,17.6-9.1,22.8-18.1
	c0.5-0.8,1.4-1.3,2.2-2c2.8-2.6,3.6-4.7,2.4-9.2c-3-11.1-6.7-22.4-4.9-34.2c1.1-7,5.1-12.9,9.7-18.2c1.1-1.3,2.9-1.5,4.1-0.5
	c2.3,2.2,5.4,2.4,8,3.8c1.6,0.8,3.2,1.8,4.4,0.1c1.1-1.6,2.2-3.5,0.8-5.5c-1.2-1.8-2.2-3.9-3.8-5.2c-2.5-2-2.3-4-0.6-5.9
	c5.2-5.8,11.6-9.7,19.1-11.8c5.9-1.7,5.7,3.9,8.4,6.9c-0.1-3.7,6.8-4.8,2.9-10c-0.9-1.2,1.3-2.1,2.5-1.6c1.8,0.6,3.3,0.6,4.5-0.9
	c7.6-10.2,19.1-15.4,28.6-23.3c10.2-8.5,19.9-17.5,24.9-30.3c2.7-6.9,5.3-13.9,6.1-21.4c-2.7,5.7-6,10.9-9.6,16.1
	c-7.2,10.4-16.4,18.3-27.4,24.8c-11.5,6.9-23.8,12.1-35.7,18.3c-2.7,1.4-6,1.4-8.2,4.1c-0.8,1-2.2,0.8-3-0.3c-0.9-1.2-0.4-2.6,0.7-3
	c6.3-2.7,10.3-8.6,16.4-11.7c3.8-1.9,7.1-4.8,10.2-7.8c5.9-5.7,13.9-8.8,19.6-16.5c-12.2,8.2-24.2,14.6-36,21.5
	c-1.5,0.9-3.8,3.1-5.1,1.2c-1.3-1.9,1.3-3.5,2.8-4.6c4.5-3.2,9.2-6.2,14.3-9.6c-1.5,0.2-3.2,1-2.9-1.6c0.3-2.6,1.6-4.5,3.3-6
	c6.6-6,12.5-12.7,17.9-19.8c4-5.3,8.9-10.2,11.2-17.7c-3.3,1.6-4.6,3.9-6,5.8c-5.6,7.5-12.8,13.3-19.7,19.5
	c-4.6,4-7.7,9.3-11.9,13.7c-3.3,3.5-6.3,7.2-9.5,10.7c-0.8,0.9-1.8,2.4-3.3,1.2c-1.1-0.9-0.4-2.1,0.2-3.2c2.8-5.6,5.6-11.3,8.4-16.9
	c5.8-11.6,13.2-22.3,19.5-33.7c4.9-8.7,11.4-16.6,16-25.6c0.7-1.4,1.9-2.7,1.3-4.7c-2.6,6.2-10.5,8.5-11,16.2c0,0.4-0.4,1-0.8,1.2
	c-10.7,7.3-15.6,19.1-21.3,29.7c-5.1,9.5-10.5,19.2-13.3,29.8c-1.9,7.2-9,13.3-16.2,13.7c-2.6,0.2-2.8-1.6-2.3-3.3
	c1-3.3,2.3-6.6,3.6-9.8c4.6-11.9,7.3-24.2,10.1-36.6c2.9-13,10-22.7,20.8-30.8c10.2-7.5,20-15.7,28.5-25.4
	c3.3-3.8,7.9-6.6,10.2-11.5c-3.8,2.5-6.7,6-10.3,8.7c-11.2,8.4-21.7,17.7-33.6,25.4c-7.9,5.1-14.9,11.6-22.4,17.4
	c-1,0.7-1.9,2.6-3.2,1.3c-1.4-1.2,0.4-2.4,1-3.4c4.4-6.3,11.2-9.8,17.1-14.2c9.2-7,18.5-13.8,27.1-21.5c8.7-7.8,16.8-16.4,23.6-25.9
	c11.3-16,20.2-33.4,28.2-51.3c3.3-7.4,3-7.6,11.2-7.6c3.5,0,7,0,10.5,0c1.1,0,2.5-0.4,3,1.1c0.3,1-0.2,2-0.9,2.7
	c-6.7,6.3-11.4,14.2-16.5,21.7c-3.4,5.1-6.2,10.6-9.7,16.7c4.7-2.3,6.9-5.8,9.4-8.9c10.6-12.7,23.3-23.1,36.9-32.4
	c1.4-0.9,2.8-1,4.3-0.9c2.1,0.2,2.8,1.6,1.1,2.9c-2.8,2.1-4.5,5.2-7.4,7.2c-9.1,6.4-15.2,15.7-20.8,25
	c-8.6,14.2-13.4,30.1-17.5,46.1c-0.8,3-3.2,4.6-5,6.7c-7.9,9.5-15.8,19-25.6,26.7c-0.4,0.3-0.5,0.8-1.5,2.5
	c8.4-5.7,15.7-10.7,21.5-17.3c4.7-5.2,10.7-9,15.2-14.4c0.6-0.7,1.5-1.6,2.6-0.8c1.1,0.8,0.3,1.9-0.1,2.7
	c-6.5,13.6-14.5,26.1-27.6,34.5c-0.6,0.4-1,0.8-1.6,1.2c-0.7,0.5-1.3,1-2.8,2c4.9,0.2,7.9-2,11.2-3c1.2-0.4,2.6-1.7,3.6-0.3
	c0.8,1.1-0.2,2.6-1,3.6c-3.3,4-6.5,8-10.1,11.7c-6,6.3-12.1,12.6-19.4,17.6c-1.2,0.8-2,2.1-2.8,3.5c10.4-5.3,19.6-12.3,28.4-19.9
	c9-7.7,16.4-16.7,23.8-25.9c7.4-9.2,13.8-19,19.5-29.3c5.7-10.1,11.4-20.2,17.8-30c-0.7,6.7-4.1,12.4-6.8,18.3
	c-6.4,14-12.1,28.3-17.4,42.8c-6.4,17.5-7.6,35.9-9.1,54.2c-0.5,6.1-1.6,12.2-1.9,18.3c-0.5,9.6-1,19.1-1,28.7
	c0.1,12.4-2.3,24.4-3.7,36.6c-0.6,5.3-1.1,10.6-1.4,15.9c-0.6,15.2-0.4,30.5,1,45.7c1.2,12.9,4.2,25.5,6.8,38.1
	c4.7,22.2,9,44.5,14.2,66.6c4.5,19.2,8.7,38.5,16,56.9c6,15.3,13,30.1,22.5,43.7c5.6,8,10.3,16.8,17.4,23.5
	c9.9,9.3,19.1,19.4,30,27.6c7.8,5.8,16.3,10.6,25,14.9c11.3,5.6,22.5,11.5,33.7,17.2c10.8,5.5,22.2,9.3,33.9,12.6
	c12.9,3.5,26.1,5.5,39.3,5.3c25.7-0.4,49.3-8.5,69.9-23.9c16.6-12.4,33.5-24.4,48.4-38.9c16.3-15.9,32.7-31.7,42.8-52.5
	c9.4-19.5,16.4-39.9,22.3-60.8c4.3-15.3,8-30.8,11.5-46.3c1.5-6.4,2.5-13,4.1-19.4c0.3-1.2,0.4-2.9,2-3.2c1.4-0.2,1.8,1.2,2.5,2.1
	c5.8,8.5,14.4,7.5,22.9,6.6c1.2-0.1,2.4-0.8,3.3,0.1c0.9,0.9-0.2,1.8-0.8,2.5c-10.6,9.7-15.7,23-23.1,34.8
	c-5,7.9-6.8,17.7-12.1,24.9c-4.6,6.2-2,13-5.3,18.9c-3.6,6.3-3.6,13.6-4.5,20.7c-1.7,12.9-0.7,25.8-0.5,38.7c0,3.8,2.4,8,3.5,12
	c1.1,3.9,2.4,7.5,0.8,11.5c4.6-2.7,3.8-6.3,2.5-10.4c-1.8-5.8-1.1-11.9-0.5-17.8c0.3-3.1-0.5-6.8,1.1-9.3c3.6-5.4,1.8-11.2,2.7-16.8
	c1-6.4,2.2-12.7,1.9-19.3c-0.1-1.7-1-5,1.9-4.7c2.2,0.2,3.9,2.4,3.2,5.7c-0.7,3.2-0.3,6.6-0.5,9.9c-0.2,4.9,0.1,9.5-2.3,14.4
	c-1.9,3.8-0.7,9.1-0.7,13.8c-0.1,3.8,0,7.7,0,11.5c0,1.1-0.3,2.6,1.1,3c1.4,0.4,1.9-0.9,2.3-2c0.5-1.2,0.8-3,2.4-2.6
	c1.6,0.4,1.2,2.3,1.1,3.5c-1.2,8.2,4.5,14,7.8,20.4c4.5,8.8,9.1,17.8,16.1,25.1c4.1,4.3,7.7,9,12.7,12.6
	c-10.4-13.1-18.8-27.6-22.3-43.7c-3.5-16-5.3-32.5-2.2-49c1,6.7,1.6,13.4,2.7,20.2c1.7,10.6,5,20.4,10.2,29.7
	c7,12.7,16,24.1,27.3,33.1c14,11.1,29.8,19.6,47.2,24.4c2.4,0.7,4.7,1.3,6.9,2.7c1.9,1.2,4.7,2.7,6.2,0.2c1.3-2.3-1.1-4.6-3.2-5.4
	c-5.5-2.3-10.2-6.1-16.1-7.7c-3-0.8-5.5-2.5-6.8-5.4c-0.5-1.2-1.5-2.3-2.5-2.2c-9.5,0.3-14.3-7.1-20.5-12.3
	c-12.8-10.7-16.1-26.7-23.1-40.6c-4.1-8.1-5.3-17-7.7-25.6c-0.5-1.8-0.3-3.9-0.4-5.8c1.6-0.4,2.3,0.4,2.5,1.4
	c2.3,8.6,7.9,15.1,13.8,21.5c5.1,5.5,10.7,10.2,16.4,14.9c0.8,0.6,1.6,1.6,2.6,0.8c1.3-1.2,0-2.1-0.7-2.9
	c-5.7-6.3-11.4-12.4-15.9-19.7c-3.8-6-6-12.5-8.5-19c-0.4-0.9-1.2-2.4,0.6-2.9c1.2-0.4,1.6,0.8,2,1.7c6.3,15.3,16.6,27.4,29.5,37.6
	c7.2,5.7,30.8,17.1,37.6,17.2c-5.3-3.1-11-5.5-16.3-8.5c-8.4-4.7-14.7-11.6-21.5-18.3c-9.4-9.3-13.7-21.5-20.1-32.5
	c-1.5-2.6-3.1-4.7-6.4-5.8c-3.4-1.1-5.4-1.1-6.3,3.6c-1.4-5.8-5.4-6.9-9.9-8.1c-7-1.8-13.8-4.6-20.6-7.2c-2.3-0.9-5.1-1.8-4.3-5.1
	c0.8-3.5,3.8-1.9,6.1-2.3c5.3-1,9.8,0.9,14.3,3c6.6,3.1,13.8,0.9,20.6,2.7c4.3,1.1,8.9,1.1,13.1,2.3c3,0.8,3.6-0.1,3.5-2.7
	c0-4.2,0-8.3,0-12.5c0-5.4,1.1-10.1,6.4-12.9c2.7-1.5,2.8-8.3,0.1-10.1c-1.6-1.1-3.2-1.7-1.6-3.6c1.7-2,3.8-0.7,4.6,0.7
	c3,5.2,8,9.6,5.4,17c-1.5,4.2,1.7,8.4,4.7,10.9c9,7.6,12.5,19,19.8,27.7c2.3,2.8,4.3,5.5,7.9,6.3c12,2.7,19.8,11.5,28.1,19.6
	c7.3,7.2,15.2,13.7,24,19.1c7.4,4.6,14.1,10.3,20.1,16.8c3.5,3.8,7.3,7.3,10.9,11c12.7,13.1,23.3,27.6,32.8,43.2
	c5.4,8.8,10.7,17.9,16.3,26.6c5.2,8.1,10.5,16.3,15.6,24.5c6.5,10.5,13.7,20.7,22.3,29.7c4.4,4.6,8.6,9.3,12.9,13.9
	c7.4,7.9,16,14.3,25.6,19.4c1,0.5,2,1.2,2.9,1.9c0.2,0.1,0.1,0.6,0.3,1.6c-5.9-1.4-10.7-4.4-15.7-7c-17-8.6-30.1-22-43.6-35
	c-11-10.5-19.2-23.2-28-35.4c-9.7-13.3-16.6-28.3-24.9-42.5c-10.1-17.2-20.1-34.7-34.6-48.4c-6.5-6.2-14.1-12-24.1-13.9
	c-13.7-2.6-26.2-8.6-38.3-15.8c-13.1-7.7-23.2-18.6-34.6-28.1c-1.1-1-2-2.5-3.6-2.4c-5.6,0.3-10.7-1.3-16.3-4
	c1.1,6.6,5.8,9.8,9.2,13.4c15.7,16.9,34.4,29.1,56.6,35.9c1.2,0.4,3.1,0.8,3.5,1.8c2.6,6.1,8.3,6.1,13.5,7.2c4.4,0.9,8.7,2,12.5,4.6
	c1.3,0.9,2.5,0.6,4-0.4c-2.1-3.4-6.6-2.7-9-5.3c5.9-2.1,12-0.4,15.4,4c1.1,1.5,1.6,2.8-0.5,3.5c-8.9,3.2-13.4,11.4-20,17.1
	c-10.1,8.8-9.7,20.4-11.7,31.5c-1,5.4-5.8,22.8-7.9,25.7c-2-4.5-1.5-9.6-3.8-13.8c-0.5-0.9-0.7-2.1-1.8-2.1c-1.1,0-1.4,1.2-1.6,2.2
	c-1.3,7-3.2,13.9-3.7,21c-0.9,12.9-1.7,25.8,1,38.6c1.9,8.8,3.6,17.5,6.6,26c1.8,5.1,6.4,8.3,8.4,13.3c1.2,3.1,3.1,5.9,2.4,9.4
	c-71.3,0-142.7,0-214,0c0.3-6,1.4-11.8,3.3-17.5c2.3-6.9,3.6-13.8-0.1-21c-1.3-2.6-2.3-5.8-2.6-9c-0.8-6.9-1.9-13.8-1.9-20.8
	c0-1.1,0-2.6-1.6-2.7c-1.6-0.1-1.5,1.4-1.7,2.5c-2.2,12.7-2.2,25.5-2.1,38.3c0,1.9,1.9,4-0.6,6.5c-1.2-2.2-2.4-4-3-6
	c-3.2-11-6.3-22.1-6.1-33.8c0-1.3,0.5-2.9-0.9-3.6c-1.9-1-2,1.9-3.5,2c-0.9-1.5-0.5-2.9,0-4.3c4-13.7,7.6-27.4,12.1-40.9
	c5.4-16.2,9.8-32.6,13.9-49.2c0.3-1.3,0.9-2.8-0.5-3.6c-1.3-0.7-2,0.9-2.8,1.5c-4.2,3-7.2,7.3-11.5,10.4c-8.4,6-16.9,11.8-24.6,18.5
	c-9.6,8.5-19.2,16.6-30.9,22.3c-15.1,7.5-30.9,11.6-47.4,13.8c-7.6,1-14.9-0.7-22.3-0.3c-16.5,0.9-31.9-4.2-46.9-9.9
	c-13.6-5.2-26.7-11.5-40.1-17.3c-1.1-0.5-2.4-1.9-3.5-0.6c-1,1.2,0.2,2.5,0.7,3.7c3.1,6.6,6.2,13.2,9.4,19.8
	c10.2,21,22.3,41.2,25.6,65c0.5,3.9,1.2,9,0.2,11.6c-0.2-0.2-0.6-0.4-0.7-0.6c-3.8-19.4-11.1-37.5-20-55c-5.6-11-11.2-22-14.9-33.7
	c-2.8-8.9-6.3-15.3-15.2-19.9c-16.9-8.7-29.4-23.5-43.6-35.9c-5.7-4.9-10.3-10.9-15.4-16.8c-0.8,2.5-0.4,4,0.1,5.6
	c4.1,12.2,9,24.1,13.9,36c9.2,22.6,19.8,44.6,30.3,66.6c4.2,8.8,8.9,17.4,12.8,26.4c4.1,9.4,9.3,18.3,13.7,27.5
	c3.8,8,9,15.5,11.3,24.2c-1.3,0-2.7,0-4,0c-2.8-4.5-5.6-9-8.5-13.4c-7.3-11.2-14.6-22.5-22.1-33.6c-5.4-8-9-17-13.9-26
	c-0.5,3.5,0.4,5.9,1.8,8.2c1.3,2.1,2.2,4.4,3.2,6.7c5.3,11.5,8.4,23.9,13.9,35.4c3.4,7.2,5.7,15,8.6,22.6
	C409.5,720.8,323.5,720.8,237.5,720.8z M291.2,576.2c-7.3,3.2-9,9.9-11.3,15.9c-4.8,12-7.9,24.5-7.2,37.7c0.1,1,0.1,2.1-0.9,2.7
	c-1.1,0.6-1.8-0.4-2.6-1c-2.4-1.8-3.6-4.4-4-7.2c-0.9-7.2-2-14.4-3.4-21.5c-3.1-16.6,1.8-31.2,9.8-45c5.9-10.1,13-19.5,23-26.3
	c0.6-0.4,0.9-1,0-2c-4.7,3.3-10.8,4.4-14.8,8.9c-3.2,3.5-5.4,7.7-9.6,10.5c-2.5,1.7-5,4.3-6.5,7.4c-5,10-10.9,19.4-11.9,31.1
	c-0.7,7.9-2.9,15.5,0.8,23.2c1.6,3.4,3.1,7,3.7,10.7c1.9,10.6,7,19.5,14.4,27.1c2.3,2.4,2.6,6.1,5.9,7.8c4.3,2.2,7.1,5.9,9.2,10.2
	c2,4.3,5.2,7.6,8.4,10.7c0.4-3.7-1.1-6.9-2.6-10.3c-1.7-3.7-4.2-7.7-4.2-11.6c0.1-12.9-1.8-25.8,1.8-38.7c1.7-6,3.3-12,5-18
	c1.7-5.9,4-11.6,8.5-16c1.8-1.8,2.8-3.7,2.4-6.6c-7,2.4-11.3,7.3-14.3,13.4c-0.8,1.6-1.7,4-3.7,3c-1.6-0.8,0.1-3,0.5-4.5
	C288.7,583.9,290,580.1,291.2,576.2z M364.2,324.2c-0.5,4.9-1.1,9.6-1.3,14.4c-0.1,2.2-1.6,3.9-2.6,3c-3.7-3.6-9.9-3.8-12.2-8.5
	c-1.4-2.8-3.8-2.7-5.6-4c-0.8-0.6-1.6-0.5-2.2,0.3c-0.5,0.8-0.6,1.7,0.1,2.3c2.9,2.6,2.5,6,2.3,9.3c-0.4,4.7,2.1,7.6,5.9,9.5
	c2,1,4.3,1.6,6.6,2.1c2.5,0.5,4.9,1.6,4.6,4.2c-0.3,2.3-2.7,3.4-5.4,3.5c-3.7,0.2-6.9-0.9-9.7-3.2c-1.8-1.5-3.8-2.7-6-3.5
	c-1.4-0.5-3-0.7-4.2,0.6c-1.2,1.4-0.5,2.7,0.2,4.1c2.2,4.7,5.7,8.5,8.7,12.6c4.4,6,9.4,11.4,17,13c11.6,2.4,16-1,15.4-13
	c-0.3-6.8-3.5-13.5-3.8-20.4c-0.4-8.8-9.5-15.3-6.1-24.8C366.2,325.1,365.6,324.4,364.2,324.2z M382.2,661.5
	c0.3-5.7-0.6-13.3-1.7-20.8c-1.8-11.8-2.9-23.6-5.1-35.3c-2.3-12.3-3.1-24.9-6.2-37.1c-2.3-9.2-3.9-18.6-6.3-27.8
	c-3.1-11.8-7.1-23.4-9.9-35.3c-1.7-7.4-5.7-14.1-6-21.9c-0.1-1.7-1.3-4.3-3.7-3.7c-2.1,0.5-1.3,2.7-0.6,4.2
	c3.5,7.5,5.4,15.5,8.4,23.2c4.9,12.2,7.1,25.1,9.4,37.7c2.1,11.9,5.8,23.4,7.2,35.4c0.8,6.9,3,13.6,4,20.3c1,6.4,2.2,12.7,3.3,19
	C377.3,634.1,379.9,648.7,382.2,661.5z M279.9,258c4.5,3.5,2.2,6.8,0.3,10.1c-0.6,1-1.2,1.9-1.8,2.9c-3.1,5.2-2.9,10.7-2.1,16.8
	c4-3.2,4-8.5,7.6-11c3.1-2.1,4.9-5.1,4.9-8.2c0-5.6,2.2-10.2,4.4-15c1.9-4.2,5.4-7.4,6.8-11.9c-1.9,1.8-3.9,3.5-5.6,5.4
	c-1,1.1-1.5,2.6-2.2,3.9C288.3,258.1,286.3,259.3,279.9,258z M749.8,656.3c-0.3-1.2-0.5-2.1-0.7-2.8c-0.5-1.6-1.3-3.6-2.6-3.8
	c-1.8-0.3-1.6,2.1-2.2,3.4c-2.9,5.4-2.2,11.1-1.4,16.9c0.1,0.9,0.3,1.8,1.3,1.8c0.5,0,1.2-0.6,1.4-1.1
	C747.1,665.7,748.5,660.8,749.8,656.3z M814.7,562.1c0.7,1.6,1.4,3.5,2.5,5.1c2,3,4.9,5.3,6.3,8.7c0.6,1.4,0.9,2.8,3.1,1.9
	c2.3-0.9,2-2.8,1.2-4c-2.6-4.4-5.6-8.6-8.5-12.8c-0.8-1.2-2.4-1-3.7-1.1C814.3,559.8,815.1,561.1,814.7,562.1z M339.1,309.8
	c0-3.2,0-5.7,0-8.2c0-2-1.3-3.4-3-3.4c-2.2-0.1-2.6,2.1-2.2,3.7c1.3,5.4,0.8,10.9,0.9,16.3c0,1,0.1,2.2,1.2,2.4
	c1.2,0.2,1.7-1,2.1-1.8C340,315.7,338.7,312.3,339.1,309.8z M792.1,702.9c0.1-2.6,0.1-5.1-0.9-7.4c-0.3-0.8-0.6-1.7-1.6-1.7
	c-1.3,0-1.7,1-1.6,2c0.1,3.7-1.3,7.1-2,10.7c-0.4,1.8-0.2,3.7,1.4,5c0.7,0.7,1.4,1.6,2.5,1.4c1.3-0.2,1.1-1.4,1.3-2.4
	C791.7,708.1,792.4,705.5,792.1,702.9z M1251.5,454.8c-2.5,2.2-3.3-0.7-4.6-1.7c-6.2-4.7-13.9-6.5-20.7-10.2
	c-10.7-5.7-21.2-11.7-32.4-16.5c-17.5-7.5-34.8-15.3-53.8-18.4c-12.6-2.1-24.9-5.4-37.1-9c-22.9-6.6-45.1-15.7-68.7-19.9
	c-5.3-1-10.4-0.5-16.4-0.5c2.8,3.8,6.1,0.7,8.7,2.4c4,2.7,8.9,3.2,13.3,5.4c4.5,2.3,9.6,4.1,14.5,6c5.6,2.2,10.7,5.5,17.7,4.1
	c4.2-0.8,9.4-0.6,14.1,0.5c2.2,0.5,3.8,1.7,2,3.7c-4.3,4.8-0.5,4,2.6,4.4c4.7,0.5,9.6-0.9,14.2,1.3c3.7,1.7,6.4,7.1,11.6,2.9
	c0,0,0.6,0.7,1,1c3.4,2.4,7.5,3,11.2,4.6c2.3,1,4.9,1.6,5.8-2.1c0.3-1.1,2.3-2.2,2.3-0.9c0.1,3.4,2.6,2.1,3.9,2.3
	c4.3,0.7,7.9,3.8,11,5.9c2.4,1.6,3.8,2.6,6,1.5c2.8-1.4,5.6-1.1,7.5,1.6c0.4,0.5,0.4,1.2,1.3,1c7.2-1.7,10.3,3.8,14.1,8
	c2.3,2.6,4.6,4.8,8.3,1.9c0.9-0.7,3.2-0.9,3.8-0.3c3.3,3.4,7.4,1.9,11.2,2.3c1.5,0.2,2.8,0.4,3.5,2.4c-3.6-0.9-7.1-1.4-10.5-1
	c-0.9,0.1-1.7,0.4-1.8,1.4c-0.1,0.9,1.1,0.7,1.3,1.1c1.3,2.2,3.9,0.6,5.2,1.9c3.2,3.1,6.6,5,10.9,2.9c2.8-1.4,6.6-1.6,8.4-0.6
	c4.1,2.1,8,4.2,12.5,5.2c1.6,0.4,3.3,1.6,3.5,3.8c0.3,2.9,1.3,4.2,4,1.8c0.8-0.7,1.7-1.3,2.7-0.5c1.1,1-0.1,1.8-0.5,2.6
	c-0.3,0.8-0.8,1.5-0.9,2.3c-0.4,2.7,2.6,3.2,3.5,5c0.1,0.2,1.6,0.2,1.8-0.1c0.8-1.3-1.3-1.9-1.2-3.3c2.6,1.1,2.5,4.4,4.9,5.6
	C1251.5,462.8,1251.5,458.8,1251.5,454.8z M458.4,239.3c-0.9,9.6,10.5,21.5,20.2,21.8c2,0.1,5.3,0.8,5.4-1.9c0-1.8-2.2-4.4-5.2-4.6
	c-0.7,0-1.3-0.1-2-0.1c-7.1-0.2-11-3.6-12.5-10.8c-0.2-1.1-1-2.4,0.5-3c1.2-0.5,1.6,0.9,2.2,1.6c1.9,2,3,4.5,5.5,6.2
	c4.4,3.1,9,1.4,13.4,1.6c2.8,0.1,4.7,0,3.5-4.2c-0.7-2.4-2-6.7,1.2-8.4c2.5-1.4,6.3,2.1,8.8-1.3c0.5,0.6,1.2,1.1,1.6,1.8
	c1.1,1.8,1,3.7,0.6,5.7c-0.8,4.2-3.1,7.7-5.6,12.5c11.2-5.6,7.9-15.2,8.9-23.6c5,3.2,9.7,6,14.2,9.1c2.8,2,4.5,4.8,6,8.2
	c1.6,3.8-0.5,6.9-0.6,10.7c3.7-2.1,4.1-5.4,4.8-8.6c2.5,1.5,3.3,3.9,4.7,5.7c2.6,3.2,0.8,4.6-2.4,5.5c-2,0.5-4.2-0.3-6.6,1.2
	c1.4,0.6,2.2,1.3,3.1,1.4c3.6,0.6,7.1,0.4,9.4-2.8c2.4-3.4-0.4-5.7-2.1-8.3c-2.1-3.2-5.3-4.9-7.9-7.5c-10-10-17.6-22.5-30.8-29.4
	c9.4-2.9,16,2.2,21.8,7.5c5.3,4.8,11.5,8.4,16.3,13.8c1,1.1,2.6,1.5,4,2.3c-6.4-8.5-10.8-18.1-18.9-25c-7-6-15.3-9.2-24.2-8.7
	c-7.7,0.4-15.5,1-23.2,2.6c-6.4,1.4-12.8,1.3-19-1.3c-1.1-0.5-2.2-1.6-3.9-0.6c0.6,1.2,1.3,2.3,1.9,3.5c0.6,1.1,2.7,1,2.4,2.8
	c-6.6,2.3-9.6,2.1-14.2-0.3c-1.8-0.9-3.9-4-5.4-2c-1.6,2.1,2,3.6,3.1,5.4c0.3,0.5,1,0.9,1.6,1.2c3,1.4,1.8,2.8-0.2,3.7
	c-3.5,1.5-7.1,1.1-10.7,0.2c-2.5-0.6-5.5-4.6-7.1-1.9c-1.4,2.3,3.3,3.7,5.3,5.6c1.5,1.5,5.7,1.7,3.9,5c-1.6,3.1-4.8,0.6-7.2,0.4
	c-1.1-0.1-2.3-1.3-3.2-2.2c-0.9-0.9-1.7-1.6-2.9-0.3c2.3,4.5,3.8,9.8,10.3,10.1c0.6,0,1.3,1.5,1.5,2.4c1.1,5,3.8,4,7,2.1
	c1.1-0.6,1.9-2,3.8-1.5c0.1,3.8,1.9,6.7,5.4,8.6c1.1,0.6,2.2,1.2,3.1,0.1c0.8-1-0.2-1.9-0.8-2.6c-2.3-2.8-1.9-5.7-0.6-8.9
	c3.1-7.6,9.6-10.9,16.8-13.4C460.3,230.3,458.8,234.8,458.4,239.3z M746.4,236.1c4.4,5.1,6,11.4-0.6,18c5.5-1.5,6.8-2.8,7-6.9
	c0.1-3.7,0.2-5.2,5-3.8c6.8,1.9,13.8,0.8,19.9-3.3c0.8-0.6,1.9-1.2,1.6-2.3c-0.4-1.6-1.7-1-2.9-0.9c-4,0.4-8.1,1-12.2-0.2
	c4.9-0.8,9.3-2,11.2-7.6c-6.3,0.2-12.3,1.1-19.1-0.3c3.3-1.3,5.7-2.2,8.1-3.4c1-0.5,2.1-1.4,1.9-2.7c-0.4-1.7-1.9-0.9-2.9-0.8
	c-1.8,0-3.6,0.4-5.4,0.5c-1.7,0-3.6-0.4-4.3-2c-0.6-1.5,1.5-1.9,2.1-3c0.5-0.8,1.6-1.3,0.4-2.9c-4,1.5-8,2.7-12.6,0.7
	c-12.6-5.6-25.8-8.1-39.6-7.7c-13.3,0.4-29.5,11.4-34.4,24.6c8.9-8.6,17.9-17,30.8-17.3c-17.1,4.8-25.9,17.3-29.2,26.8
	c7.1-6.3,13.1-12.1,21.7-15.2c-6.9,10.1-7.9,18.8-3.3,25.4c5,7.2,13.7,10.6,22.8,8.2c-4.5-0.8-7.1-3-10.6-3.8
	c-6.1-1.3-9-6-10.7-11.4c-1.1-3.2,1.3-5.2,4.7-4.9c3.9,0.4,4.8,3.8,6.7,6c3.6,4.5,7.5,6.4,12.2,5.1c5.1-1.4,6.9-4.1,7.2-10.5
	c0.1-1.9-0.8-4.5,1.9-5.1c2.6-0.5,4,1.7,5.2,3.8c2.6,4.3-1.1,7.4-1.9,11.2c6.9-1,7.7-10.3,1.8-23.5
	C736.5,227.3,742.1,231.2,746.4,236.1z M769.3,182.4c-4.2-0.6-9.2-0.5-12.2-3.5c-6.6-6.7-14.3-6.1-22.3-4.7c-11.6,2-23.2,4-34.7,6.4
	c-10.6,2.2-21.5,3.9-31.3,9c-2.9,1.5-5.2,3.6-6.5,6.6c-0.8,1.9-2,4-0.7,5.7c1.5,1.9,4,2.3,6.4,1.9c21.8-3.8,43.6-7.9,65.3-12.8
	c5.2-1.2,10.6-3.6,16.1-2.5c11.7,2.4,23.5,1.9,36.5,3.5C780.9,186,775.6,183.4,769.3,182.4z M420,193.1c5.7,0.5,11.3-0.6,16.6-2.5
	c7.4-2.6,14.8-2.7,22.4-0.3c4.4,1.4,9,2.3,13.6,2.9c12.8,1.7,25.5,4,38.3,5.5c7.1,0.8,14.3,0.3,21.5,0.3c1.6,0,3.7-0.8,2.1-2.6
	c-3.5-3.9-6.9-8.5-11.4-10.6c-9.1-4.4-19.1-6.1-29.4-6.4c-7.1-0.2-14.2-0.9-21.3-1.8c-8.4-1-17.1-2.7-25.2-0.2
	c-9.8,3-19.1,7.4-29.1,10.1c-4.2,1.2-8,3.5-10,7.8C412.3,194.5,415.9,192.8,420,193.1z M666.5,489.1c-11.1,3.1-22.4,4.7-33.9,4.4
	c-4-0.1-7.9,0.5-11.8,1.3c-6.7,1.5-13.6,3-20.2,1.3c-12.4-3.2-24.9-2-37.4-3.1c-7.5-0.7-15.8,0.2-22.2-3.8
	c-5.6-3.6-10.6-2.3-15.9-1.3c-2.6,0.5-5,1.8-7.5,2.5c-2.7,0.8-5,2.5-4.4,5.1c0.6,2.6,3.6,1.5,5.7,1.5c7.7-0.2,14.4,1.7,19.6,7.9
	c2.4,2.8,5.8,4.5,10.1,4.2c-3.1-6.9-0.6-11.1,6.5-10.9c10.3,0.2,20.5,0.6,30.8,1c1.6,0.1,3.5,0.2,4.8,1c4.1,2.4,8.7,2.3,13.2,2.9
	c6.5,0.9,12.4-1.5,18.4-3.6c8.1-2.7,16.5-1.1,24.7-2c11.4-1.2,21.9-6.8,33.6-5.5c1.6,0.2,3.2-0.6,4.9-3.4
	C678.5,488.5,672.3,487.5,666.5,489.1z M358.7,0.6C336,28.4,313.3,56.2,290.6,84c0.5,0.4,1,0.8,1.6,1.3
	c30.2-21.7,51.9-50.3,68.3-83.3C359.9,1.5,359.3,1,358.7,0.6z M268.8,132.6c-4.3,5.5-8.8,10.9-12.4,16.8c-7.7,12.8-6.7,27.8-10,41.7
	c-0.3,1.2,0.6,2.2,1.9,2.6c3.2,0.9,7.1-1.6,7.5-5c1.6-12.5,6-24.2,9.5-36.2c2.2-7.5,4.6-15,8.2-22.2
	C270.6,129.8,269.7,131.4,268.8,132.6z M943.9,346c2.6-0.3,4.9-0.1,7.3,0.7c1,0.4,2.2,1.8,3,0.4c0.8-1.4-0.8-3-1.7-3.1
	c-5-0.6-6.4-5.6-10.1-7.7c-4.3-2.4-6.6-6.5-7.8-11.1c-4.3-15.6-3.3-31.9-6.5-47.6c-2.2-11-5.7-21.3-12.2-30.6
	c-1.1-1.6-3.1-2.5-4.7-1.6c-1.7,1-0.3,2.7,0.3,4c0.5,1.2,1.4,2.2,2,3.4c5.3,9.5,10,19.1,10.8,30.3c0.3,4.1,0.7,8.3,1.7,12.3
	c1.8,7.9,1.8,16,4.1,23.9c1.5,5,1.4,10.5,5.5,14.5c1.7,1.7,2,3.7,1.2,6C936.5,343,940,346.5,943.9,346z M573.7,395.6
	c-2.9-3.9-7.2-5.3-9.7-3c-3.5,3.2-0.8,6.2,0.6,9.4c3,6.8,10.5,6.2,15.4,9.9c1.8,1.4,4.1,2.6,7.9,2.9
	C582.7,407.8,578.2,401.6,573.7,395.6z M809.9,32c-2-4-3.8-8.1-6.2-11.8c-3.6-5.7-6.9-11.6-10.1-17.6c-1.8-3.4-5.8-3-7.9-1.6
	c-2.7,1.7,0.3,3.8,1.5,5.5c7,9.5,15.3,18.1,21.4,28.3c0.5,0.8,0.8,1.9,2.2,1.6C812.1,34.7,810.6,33.4,809.9,32z M547.4,361.2
	c-7.9,4.6-12.2,21.8-9.1,34.3c1.9,7.5,9.8,15.6,16.4,15.9C538.1,396.6,538.9,379.5,547.4,361.2z M428.1,28.5
	c6.2-7.7,12.5-15.3,18.8-22.9c1.3-1.5,4.2-1.9,3.5-4.6c-0.3-1.3-7-0.5-8.3,0.9c-0.8,0.9-1.3,1.9-2,2.8c-3.1,3.8-5.4,8.3-8.2,12.3
	c-2.8,4.2-6.4,8.4-7.4,14.6C426.6,30.7,427.2,29.6,428.1,28.5z M551.6,217.5c12.2,11.8,9,28.6,14.3,43.4
	C570.9,252.1,563.1,220.5,551.6,217.5z M314.6,492.3c-0.6-1.7-2.5-1.3-3.9-0.5c-3.6,2.3-2.4,5.1-0.5,7.6c1.8,2.2,2.9,4.7,4.4,7.1
	c2.4,4,3.2,9.1,7.8,12.1C321.8,509.3,317.6,500.9,314.6,492.3z M831,327c-1.2,2.5-2.3,5.1-3.4,7.7c-0.9,2.1,0.2,3.5,1.6,4.8
	c1.2,1.2,2.4,1.7,4,0.7c4.2-2.8,7.6-6.1,8.4-12.2c-2.4,1.7-3.6,3.4-4.8,5.1c-1.4,1.8-2.8,5.5-5.3,3.9c-2.3-1.5,0-4.5,1.1-6.7
	c1.4-2.8,2.9-5.6,4.1-8.5c2.4-5.3,4-10.8,2.1-16.7C838,313.1,834.4,320,831,327z M630.7,398.5c-0.9,3.3-4.6,4.3-5.1,7.5
	c2.2,0.7,3.8-0.6,5.3-1.2c2.8-1.2,4.2-3.8,4.5-6.7c0.2-2-1.2-3.4-3-4.1c-2.9-1.1-5.3,0.2-7.2,2.2c-2.9,3.1-5.7,6.4-9.3,10.6
	C623,406.2,624.5,398.7,630.7,398.5z M739.5,1.2c-1,1.8,1.3,2.8,2.3,3.9c3.3,3.5,6.8,6.8,10.2,10.1c0.8,0.8,1.6,2.1,2.9,1.2
	c1.1-0.8-0.1-1.7-0.3-2.6c-0.8-3.5-3.3-6.1-4.5-9.3c-1.2-3.3-3.1-4.5-6.4-4C742.2,0.6,740.2-0.2,739.5,1.2z M261.2,205.8
	c4-2.3,8-4.6,12-7c1.1-0.6,2.7-1.2,2.1-2.9c-0.7-1.9-2.4-1.3-3.8-0.9c-5.6,1.4-10,5.1-15,7.8c-1.3,0.7-1.3,1.8-1,3
	c0.4,1.2,1.4,1.2,2.8,1.3C259.1,206.7,260.2,206.4,261.2,205.8z"/>
<g>
</g>
<g>
</g>
<g>
</g>
<g>
</g>
<g>
</g>
<g>
</g>
<g>
</g>
<g>
</g>
<g>
</g>
<g>
</g>
<g>
</g>
<g>
</g>
<g>
</g>
<g>
</g>
<g>
</g>
</svg>
