<?xml version="1.0" encoding="utf-8"?>
<!-- Generator: Adobe Illustrator 18.0.0, SVG Export Plug-In . SVG Version: 6.00 Build 0)  -->
<!DOCTYPE svg PUBLIC "-//W3C//DTD SVG 1.1//EN" "http://www.w3.org/Graphics/SVG/1.1/DTD/svg11.dtd">
<svg version="1.1" id="Layer_1" xmlns="http://www.w3.org/2000/svg" xmlns:xlink="http://www.w3.org/1999/xlink" x="0px" y="0px"
	 viewBox="0 0 1241.6 720.5" enable-background="new 0 0 1241.6 720.5" xml:space="preserve">
<path d="M221.6,720.5c-5.6-7.3-12-14.2-16.5-22.2c-3-5.4-6.6-11-7-17.7c-0.1-2.4-1.1-4.9-2.1-7.1c-0.6-1.3-0.3-5.1-4-2.5
	c-1,0.7-1.8-1.2-2.5-2.1c-4.9-6.4-10.5-12.4-14.2-19.7c-0.1-0.3-0.5-0.5-0.5-0.8c-0.2-2.5-2.6-5.7-0.4-7.4c2.3-1.9,3.7,1.9,5.7,2.8
	c6.1,2.8,8.2,7.8,7.9,14.2c-0.2,3.6,2.6,5.9,3.9,9.4c2-2.7,1.4-4.8,0.8-7c-0.5-1.9-0.9-3.9,1.3-5.3c2.4-1.5,3.7,0.1,5,1.6
	c5.4,6.5,11,12.8,16.2,19.4c2.7,3.5,3.9,7.7,3.8,12.1c-0.1,2,0.6,3.9,2,5.6c-0.4-6.7,3.3-13.8-2.9-20.1c-2-2.1-4.7-4.8-3.8-8.6
	c0.1-0.4-0.1-1.3-0.2-1.3c-8.7,0.5-5.6-7.9-8.6-11.8c-8.5-10.9-6.7-24.4-7.2-37.2c-0.3-5.8,0-11.6-1.1-17.5c0,5.4,0,10.8,0,16.2
	c0,0.8,0.6,1.6,0.5,2.4c-0.1,1.5,1,4-1.5,3.9c-1.6-0.1-1.9-2.4-1.9-4.1c0-8.5,0-17-0.1-25.6c0-1.5,0-3,0.1-4.5
	c0.1-1.2,0.9-2.3,2.1-2.6c4-0.8,3.7-0.9,5.8-5.2c3.5-7.3,4.3-15.7,10.2-22.1c2.4-2.6,2.1-7.5,4.8-10.5c1.1-1.3,0.7-4.2,4-3.1
	c1.1,0.4,1.1-1.8,0.7-2.3c-4.4-4.2,0-4.9,2.4-6.3c0.4-0.2,0.8-0.6,1.4-1c-1.8-0.9-3.2-1.7-4.7-2.5c2.4-5.5,6.8-9.6,9.6-14.7
	c0.3-0.5,1-0.7,1.4-1.1c2.6,4.8,6.1,1.6,8.6,0.4c3.1-1.5,4.1-5.2,5-8.3c0.8-2.4,1.8-3.8,3.8-5.2c4.9-3.4,5.8-8.9,6.6-14.2
	c0.2-1.5-0.3-3.1,0.7-4.3c1.8-2.4,1.7-4.8,0.6-7.5c-0.5-1.3-1.5-3.2,1.5-1.8c0.9,0.4,1.4-0.5,1.1-1c-2.5-4.6,1.4-7.4,3.4-10.1
	c3.2-4.5,3.9-10.3,8-14.2c1-1,0.8-2.8-0.1-4.9c-4.5,3.1-5.8,8.6-9.4,11.9c-4.5,4.1-7.9,8.4-9.2,14.5c-0.4,1.9-3.6,2.9-5.6,2.1
	c-4.2-1.6-6.8,0.8-9.1,3.3c-4.1,4.5-7.8,9.3-11.7,13.9c-0.7,0.9-1.6,1.7-2.6,2.2c-3.4,1.6-5,4.2-5.3,7.8c-0.4,3.7-2.6,4.1-5.6,3
	c-2.8-1.1-3-2.9-0.7-4.2c3.2-1.8,4.3-4.5,5.8-7.5c1.7-3.4,4.5-6.4,7.4-9.1c5.4-5,5-13.5,10.9-17.9c2.2-1.6,2.9-3.2,3-5.6
	c0.1-1.3,1.1-2.6,2.6-2.7c2.1-0.1,0.7,2.8,2.6,3.3c1.1-2.1,2.7-3.7,1-6.6c-1.4-2.4,1-4.7,1.8-7c1-2.7,2.9-3,5.5-1.8
	c2,1,2.8-1.4,3.7-2.6c2.5-3.4,3.5-7.5,4.6-11.4c1.4-5,4.5-9.1,6.1-14c2.1-6.8,2.3-13.5,1.5-20.7c-2.4,3.6,0.4,7.7-1.5,11.3
	c-1.4-0.7-1.3-3.4-3.5-2.9c-1.2,0.3-0.8,1.7-1.1,2.6c-0.3,1-0.2,1.4,1,1.5c4.3,0.1,2.6,2.8,2,4.9c-0.5,1.6-2.2,2.4-3.1,3.8
	c-1.3,2.1-3.3,2.4-4.3-0.5c-1.3-3.6-2.4-1.7-4-0.1c-8.4,8.6-15,18.7-24.3,26.6c-3.8,3.2-6.7,7.3-10.1,10.9c-1.1,1.1-2,2.9-4.1,2.2
	c-1-0.4-1.5-1.4-1.4-2.4c0.3-1.7,0.9-3.3,2.9-3.5c2.5-0.2,3-1.8,2.8-3.9c-0.3-3.4,1.3-5.3,4.5-6.2c5.3-1.4,5.2-7.2,8.3-10.5
	c0.5-0.6-0.3-1.5-1.1-2c-1.2-0.7-0.5-1.3,0.1-1.9c0.4-0.4,0.8-1.4,1.5-0.6c3.3,3.4,3.3-0.8,3.4-1.8c0.5-3.9,2.9-6.5,5.6-9
	c4.5-4.3,6-10.4,8.6-15.7c4.5-9,5.2-19.3,9.3-28.5c1.3-2.9,0.3-5.5-0.6-8.4c-2.5,2.3-1.1,6-3.4,8.9c-1.7-3.1-1.7-5.9-0.6-8.4
	c2.4-5.1,1-10.1,0-14.9c-1.6-7.5-2.9-15.1-3.8-23.2c-1.7,3.4-1.8,6.6-0.5,9.5c1.3,3.1,2.5,4.8-2.4,6.2c-4.1,1.2-4.9,6.8-6,10.8
	c-1.4,5.2-2,10-5.6,14.7c-4,5.1-4.7,12.6-7.8,18.6c-4.1,7.7-6.3,16.3-12.6,22.9c-2.7,2.9-5.8,6.2-6.4,10.8c-0.4,3.2-2.8,4.7-5.8,3.7
	c-3.4-1.1-2.3-3.7-1.2-6.1c1.9-4.4,3.8-8.8,5.4-13.3c2.8-7.5,8.2-13.2,12.7-19.5c9.8-13.7,17.4-28.5,22-44.7
	c3.7-13.2,8.3-26.2,10-39.9c1.3-10.4,0.3-21,0.4-31.4c0-0.3,0-0.9-0.1-1c-7.9-3.9-3.1-10.4-2.6-15.5c0.6-6.3,0.8-12.6,0.7-18.9
	c-0.1-7.8,0.8-15.4,2.8-23.1c-2.5,2.8-4.8,5.4-6.6,8.7c-5.8,10.4-13.4,19.3-25.4,23.3c-5.1,1.7-9.9,4.4-15.2,5.9
	c-6.9,1.9-13.8,0.6-20.7,0.8c-3.4,0.1-5.9,0.7-8,3.8c-2.9,4.4-6.4,8.4-10,12.3c0.8-4.2,2.3-8.2,4.9-11.5c1.2-1.5,1.8-3.2,1.4-4.5
	c-0.5-1.9-2.8-1.3-4.3-1.3c-5.1-0.1-9.6,1.3-13.6,4.9c-9.4,8.4-18.7,17-26.2,27.2c-6.1,8.3-11.6,16.9-17.3,25.4
	c-7.8,11.6-14.6,23.8-20.7,36.3c-7.4,15-17.2,28.6-24.3,43.8c-1.4,3.1-3.7,5.8-5.9,9.2c-1-2.9,0.1-4.8,1.1-6.5
	c2.2-3.9,3.3-8.3,5.3-12.3c3.8-7.4,5.4-15.9,9.8-22.8c9.8-15.3,15-32.7,23.2-48.7c9.4-18.4,19.6-36,34.6-50.4
	c8.7-8.4,17.7-16.5,27.1-24.2c1-0.8,2.2-1.7,3-1.3c5.1,2.4,6.6-2.1,9-4.6c6.4-6.6,12.1-13.8,19.5-19.4c3.5-2.7,6.2-6.5,8.7-10.2
	c5.6-8.4,12.7-15.3,20.2-21.9c2-1.8,3.5-4,5.4-5.9c8.6-8.4,14-19.3,21.9-28.4c5.6-6.4,10.2-13.7,15.2-20.7c2.7,2.8,0.3,4.8-1.1,6.9
	c-6.3,9.7-13.7,18.6-19.8,28.4c-5.4,8.6-12.2,16.4-18.8,24.2c-7.3,8.6-13.8,17.8-21.1,26.3c-10.1,11.7-19,24.6-31.3,34.3
	c-1.4,1.1-2.4,2.6-3.3,4.8c6,0.4,11.5-1.8,17.3-1.9c13.9-0.3,26.1-5.2,36.8-14c6.3-5.2,9.9-12.4,14.3-18.9
	c3.2-4.6,5.2-10.1,8.5-14.5c2.5-3.3,6.2-5.9,9.5-8.5c8.2-6.4,16.5-12.6,24.7-18.9c1.5-1.1,3.1-2.9,4.7-1.4c1.4,1.4-0.5,2.8-1.4,4.2
	c-2.9,4.2-6.7,7.7-10.7,12.1c10.1-2.2,17.3-8,22.5-15.3c5.2-7.2,9.4-15.3,12.7-23.7c1.5,4.6,0.2,8.9-1.1,12.6
	c-5,13.8-3.9,28.1-4.9,42.3c-1.1,16.8-0.2,33.8-4.6,50.4c-4.8,18.3-8.3,37.1-9.9,55.9c-0.7,8.8,0.7,17.9,2,26.7
	c3,20.8,7,41.5,9.7,62.3c2.5,19.9,6.8,39.5,10.4,59.1c2.3,12.6,6.3,25,10,37.3c4.6,15.4,10.8,30.2,16.5,45.2
	c4.7,12.3,11.5,23.4,19.2,34.1c6.9,9.7,13.6,19.5,21.9,28.1c7.6,7.8,14.5,16.5,23,23.1c10.1,7.9,18.6,18.1,30.8,23.3
	c7.7,3.3,15.5,5.6,23.6,7.3c12.1,2.6,24.4,3.6,36.6,3c19-0.9,37.9-2.6,56.1-9.3c15.5-5.7,29.1-14.2,41.8-24.4
	c18.8-15,36.6-31.2,54-47.8c4.2-4,8.3-8.1,12.5-12.1c2-2,4.2-2.9,7.2-2.3c2.5,0.5,2.8,2.1,2.8,4c0,1.2-2.9,3.7-3.8,3.2
	c-0.9-0.5-0.4,0.3-0.4,0.3c-0.6,3.9-3.6,4.6-6.8,5.7c-4.6,1.6-7.5,5.8-11.1,9c-10.8,9.7-21.6,19.3-33,28.4
	c-12.7,10.1-25.9,19.6-39.1,29.1c-12.2,8.7-26.2,13.9-41,17.3c-17.5,4-35.2,4-53,3.8c-5.4,0-5.5,0.3-3.4,5.1
	c3.5,7.9,6.9,15.8,10.4,23.6c0.4,0.9,1,1.7,0.1,3.4c-5.5-7.1-9.4-14.8-12.7-22.7c-4.7-11.2-4.4-11.5-16.3-12.4
	c-6.5-0.5-12.8-1.3-19.1-2.8c-1.1-0.3-2.3-0.6-3.3,0.3c-0.9,0.8-0.6,1.8-0.1,2.7c4.3,9.7,8.4,19.4,12.8,29
	c5.8,12.5,12.7,24.4,18,37.1c0.6,1.4,1.6,2.6,1.2,4.2c-44,0-88,0-132,0c-7.3-46.6-25.2-88.4-55.7-124.8c-1.6,1.6-1.5,3.7-0.5,5.1
	c3.9,5.3,4.8,12.1,8.2,17.4c7.4,11.6,11.5,24.8,17.5,37c1.1,2.3,1.8,5.5-0.8,6.7c-2.9,1.3-3.1-2.3-3.9-4
	c-7.2-15.8-15.1-31.3-22.9-46.8c-2.1-4.1-4.6-8.4-5-12.8c-0.8-8.4-4.5-16-5.9-24.3c-1-6.1-2.4-12.3-3.5-18.5
	c-1.2-6.1,0.4-12.6-2.7-19c-0.8,3.9-3.5,6.6-3.5,10.2c0,10.8-0.4,21.7,0.2,32.5c0.3,5.4,0.4,11,2.4,16.2c2.3,6.2,3.6,12.8,5,19.1
	c1.9,8.6,3.8,16.9,8.1,24.8c1.8,3.3,4.2,6.4,4.9,10.3c0.1,0.8,0.3,1.7-0.3,2.3c-0.6,0.6-1.6,0.4-1.7-0.1c-0.9-4-6.3-4.7-6.8-8
	c-1.6-10.8-13.8-16.4-13.1-28.1c0-0.3-0.4-0.5-0.5-0.8c-2.1-4-3.2-8.2-4-12.7c-0.8-4.7-0.3-9.6-2.2-14.2c-2.6-6.2-2.4-12.8-2.3-19.5
	c0.2-7.4,3.4-14.1,3.8-21.4c0.5-7.9,1-15.8,5.2-23.1c1.8-3.1,2.3-6.8-0.4-10.8c-0.6,3.2-3.4,4.3-4.3,6.9c-2.6,7.1-5.6,14-8.2,21.2
	c-3.8,10.7-5.1,21.6-5.7,32.6c-0.5,10,0.7,19.8,3,29.8c2,8.2,5.5,16.1,10.3,21.4c7.2,7.8,8.2,20.4,19.3,24.9
	c0.4,0.2,0.5,0.8,0.8,1.3c3.7,5.9,9.5,9.7,14.5,14.2c2.2,2,4.5,3.8,5.9,6.5c3.1,5.8,6.7,11.4,9.5,17.4c4.8,10.3,11.5,19.7,14.3,31
	C283.6,720.5,252.6,720.5,221.6,720.5z M294.7,393.2c-0.6-3.2,0.1-5.3,0-7.7c-0.2-5.4-1.6-10.4-2.4-15.7
	c-1.6-11.9-5.5-23.6-4.2-35.8c0.1-1.1-0.5-2.3-0.8-3.4c-4.3-15.8-3.6-31.9-2.1-48c0.6-6.3,2.6-12.5,0.3-19c-0.8-2.4-0.7-5.5,0.1-7.9
	c3.7-11.6,1.9-23.3,1.6-35c-0.2-6.7-2.3-13-5.8-18.8c-2.9-4.9-7.4-6.7-11.7-4.2c-4.1,2.5-7.5,5.4-9.3,10.5c-2.4,6.4-2.8,13-3.2,19.5
	c-0.4,5.5,0.8,11.2,1.2,16.8c1-3.4,1-6.7,1.5-9.9c0.2-1.6,0.6-3.9,3-4.1c2.2-0.2,2.6,1.8,3.2,3.3c2.4,5.3,4.7,10.6,7,15.9
	c1.6,3.7,1,7.2-1.8,10.1c-6.4,6.8-8.6,15.4-10.5,24.2c-1.4,6.8,0.1,13.7-1.2,20.4c-1.7,8.1-0.9,16.4,0.9,23.7
	c2.8,11,5.7,22.3,10.7,32.7c1.7,3.6,3.2,7.3,4.9,10.9C280.1,380.1,284.9,388,294.7,393.2z M928.8,440.7c1.8-6.2-1.2-11.8-2.6-17.5
	c-2.4-9.8-5.8-19.4-10.9-28.1c-4.7-8-3.5-16.2-1.6-24.1c1.6-6.6,1.5-13.2,2.3-19.7c0.9-7.7,0.6-15.5,0.3-23.2c-0.2-3.6-1-7-2.7-10
	c-5.3-9.4-9.3-19.5-15.9-28.2c-2.1-2.7-1.8-5.5-0.6-8.5c1-2.5,2.5-2.8,3.9-0.6c4.1,6.6,10.2,11.6,13,19.3c1.4,3.9,5.1,7,7.4,10.8
	c4.5,7.4,8.8,14.9,12.2,22.7c3.4,8,6.7,16.1,10.2,24.2c10.6,24.1,20.4,48.6,29.4,73.4c4.8,13.2,9.7,26.4,14.6,39.6
	c1.9,5,2.6,10.8,4.6,15.6c4,9.3,7.2,18.9,9.8,28.5c2.9,10.8,8.9,20.5,10.1,32c0.5,5.1,2,10.9,5.8,15.6c2.3,2.9,1,7.5,2.4,11
	c3.7,9.4,5.3,19.5,10.3,28.3c0.8,1.3,1.4,2.6-0.3,4.4c-2.1-2.8-4.7-5.3-6.1-8.3c-7.2-14.6-14.1-29.2-21-43.9c-1.4-3-2.2-6.3-3.2-9.4
	c-1.2-3.5-3.7-4.6-7.1-3.5c-12.4,4.3-24.9,8.5-37.2,13c-13.9,5.2-27.8,10.6-42.4,13.8c-5.9,1.3-11.9,9-11.9,15.2
	c0,2.3,1.6,3.2,3.2,4c7.9,3.8,15.4,8.4,22,14.2c4.1,3.6,7.3,8.2,9.9,13c2.4,4.5,4.4,9.3,6,14.2c1.2,3.5,2.8,4.1,5.9,2.5
	c1.4-0.7,3-2.4,4.5-1.1c1.7,1.4,1.5,3.8,0.6,5.6c-5.2,10-4.3,21.4-7.8,31.7c-1,3-2.9,5.8-4.1,8.8c-0.4,1.1-1.2,2.2,0.3,2.9
	c5.1,2.5,1.5,4-0.8,4.9c-4.4,1.7-5.7,4.5-5.6,9.2c0.2,6.7-5.5,10.2-9.5,14.5c-3.6,3.8-7.2,7.4-7.7,13c-22.7,0-45.3,0-68,0
	c-5.4-10.6-12.7-20.2-17.6-31.2c-6.4-14.6-11.8-29.5-14.9-45.1c-1.4-6.8-3.2-13.5-3.8-20.4c-0.1-1.3-0.7-3.5,1.3-3.8
	c1.4-0.2,2.4,1.4,3.2,2.7c3.9,6.7,7.6,13.5,11.2,20.3c3.6,6.7,7.2,13,11.8,19.1c3.4,4.4,5.6,10.1,9.9,13.9
	c9.7,8.6,16.2,20.2,26.9,27.7c2.3,1.6,2.7,5,6.2,5.7c-1.8-2.6-2.7-5.7-5.3-7.9c-4.8-4-8.2-8.8-9.3-15.2c-0.6-3.9-3.2-6.9-5.1-10.1
	c-3.5-5.9-5.2-12.5-7.9-18.6c-2-4.6-1.8-10.1-5.7-13.9c-0.4-0.4-0.5-1.3-0.4-1.9c1.1-7.2-3.6-13.6-2.9-20.7c0.2-2.2,0-4.7-1.2-6.3
	c-4.6-5.9-4-13.5-6.2-20.1c-3.1-9.6-4-19.9-4.7-30.2c-0.3-4.4-1-8.9-1.6-13.3c-0.4-2.4-0.6-4.9,1.6-6.4c2.3-1.6,3.8,0.6,5.6,1.8
	c7.6,5.3,15.6,10.2,24.5,13.1c3.2,1,6.9,0.4,10.4,0.5c7.9,0.2,15.6,1,21.6,7.1c1.7,1.7,3.3,1.3,3.7-0.8c1-4.2,4.4-6.9,6.4-10.5
	c1.5-2.8,1.9-5.6,2.2-8.4c0.1-0.8-3.1-3.7-5.3-3.1c-4,1.1-5.5-1-6.7-4c-1.1-3-2.6-4.2-5.4-1.7c-0.5,0.5-1.5,0.8-2.2,0.7
	c-2.6-0.3-6.4-7.1-5.4-10.3c1-3.5,2.5-6.9,7.3-4.3c0.9,0.5,1.6,0.5,2.4-0.7c4.2-5.5,7.9-5,10.7,1.4c2.6,6,8.4,9.3,12,14.5
	c0.6,0.8,2.2,0.2,3.2-0.5c1.2-1,1.4-2.5,0.7-3.6c-0.9-1.5-2.2-2.9-3.5-4.1c-3-3-4.7-6.8-5.9-10.8c-0.5-1.8-0.2-3.4,1.7-4.2
	c4.8-2,9-5.5,14.9-5.1c6,0.5,14.6-8.9,15.1-14.9c0.3-3.8,1.4-7.5,1.8-11.3c0.1-1.5,0.2-3.8-1.6-4.3c-1.8-0.6-2.1,1.7-2.9,2.8
	c-5,7.6-12.2,13.1-18.5,19.5c-0.6,0.6-1.4,1.2-2.1,0.4c-0.8-0.8-0.2-1.6,0.3-2.2c2.7-3.2,4.1-7.2,6-10.9c0.7-1.4,1.3-2.8,0-4.2
	c-1.2-1.3-2.4-0.4-3.7-0.1c-5.1,1.4-10.3,2.6-15.4,4.1c-2.5,0.7-3.6,0.6-4.4-2.5c-1.1-4.1-1.8-7.1,2.6-10c3.5-2.3,4.9-6.5,4.7-11
	c-0.4-6.3,0.3-12.6-0.8-18.9c-0.6-3.3-1.5-4.8-4.9-4.7c-1.8,0-4.4,0.9-4.9-1.9c-0.5-3,1.7-3.5,4.1-3.7c1.9-0.1,2.6-1.3,2.5-3
	c-0.1-1.2,0-2.4-0.5-3.4c-3-7-1.8-13.8,0.7-20.7c0.8-2.1,1-4.4,1.6-7.2c2.2,2.6,3.6,4.7,4,7.7c0.8,6.4,3.4,12.4,4.7,18.7
	c0.8,3.6,3.5,7.6,8.4,7.9c1.5,0.1,2.6,0.5,2.5,2.3c-1.6,0.6-3.1,1.5-4.7,1.6c-4.6,0.4-5.4,3.1-5.1,7.1c0.4,5.6-0.7,11.2-1.9,16.7
	c-0.3,1.2-1.6,2.6-0.5,3.7c1.3,1.3,3.1,0.4,4.7,0.2c1.1-0.1,2-2.5,3.3-0.5c0.8,1.3-0.8,2.3-1.3,3.4c-1.6,3.8-6.7,3.4-8.3,7.4
	c2.2,0,4.2-0.1,6.2,0c9.1,0.6,9.9,0.4,11.1-11.6c0.3-2.9-0.9-5.4-0.6-8.3C932.1,453.6,932.3,446.8,928.8,440.7z M912.6,708.5
	c-1.7-8.9,1.4-14.9,6.7-20.1c3.3-3.2,5.9-6.9,7.1-11.4c0.7-2.5-1.5-4.7,0.3-8.4c-1.5,1.9-2.1,2.7-2.7,3.5c-0.7,0.9,0.7,3.7-2.1,2.7
	c-2.1-0.8-0.8-2.8-0.4-3.8c3-6.6,5.3-13.7,9.5-19.4c4.7-6.4,4.4-13,2.6-19.3c-4.5-15.3-14.6-26.5-28.6-34c-4.8-2.6-6.4-1.6-7.1,4
	c-2.1,14.6-0.8,29.2-0.8,43.8c0,5.7,0.9,11.6,2.1,17.2c2.5,11.3,5.6,22.4,8.4,33.6C908.5,700.5,909,704.3,912.6,708.5z M915.1,558.6
	c9.6-2.8,16.6-10.1,26.2-12.5c5.1-1.2,10.1-3.2,15.1-5c10.9-3.9,22.2-6.2,33.4-9c1.5-0.4,3.8,0.5,4.1-1.7c0.4-2.7-0.5-5.5-2.3-7.3
	c-1.2-1.3-3.1-0.3-4.9,0.7c-5.3,2.8-10.5,6.3-16.7,7c-2.4,0.3-5.1-1.2-6.7,2.1c-0.5,1.1-3.1,1.6-3.5,0.7c-2.4-5.1-6.7-2-10.1-2.5
	c-1.9-0.3-4.3,4.5-2.9,5.2c5,2.5,0.1,2.7-0.8,3.3c-1.2,0.8-2.8,1.7-4.1,1.6c-4.9-0.3-9,6.9-14.4,1.4c-0.5-0.5-1.9,0.5-1.5,1.3
	c0.7,1.7-0.5,2.4-1.5,2.5C917.2,547.4,918.1,554.5,915.1,558.6z M955.7,503c0.1-3,2.8-3,4.5-3.5c5.7-1.8,11.4-3.5,17.3-4.7
	c4.1-0.9,4.6-2.7,3.2-6.3c-2.4-6.3-4.2-13-6.9-19.2c-1.5-3.5-1.9-7.6-5.3-11.4C966,474,960.2,488.2,955.7,503z M848.6,720.5
	c0.7-2.6-1-3.9-2.7-5.3c-3.6-2.9-7.9-5.6-9.6-9.8c-2.7-6.9-7.3-12.7-11.4-18.5c-6.9-9.9-9.5-21.5-16-31.5c-4.9-7.5-2.4-18.2-10-24.9
	c-0.6-0.6-0.6-1.8-0.9-2.8c-2.2-7.6-4.4-15.2-6.6-22.7c-0.8-2.7-2.2-6.5,0.5-7.5c3.2-1.1,1.3-3.4,2.4-4.7c0.3-0.3,0.4-0.9,0.6-1.4
	c1-2.3,1.5-4.2-1.4-5.8c-2.3-1.3-3-4.3-2.5-6.6c2.7-12.7-1.1-25.5,0.8-38.2c0.1-0.7-0.2-1.6-0.4-2.5c-2.9,1.3-2.1,3.8-2.1,5.7
	c0.1,16-0.9,31.9-1.9,47.8c-0.5,8.1-0.8,16.3,0.6,24.4c1.3,7.3,3.2,14.6,3.8,21.9c0.7,7.9,3.9,14.9,5.6,22.4c1.8,7.8,5,15.3,7.6,23
	c-8.1-13.6-14.4-27.8-18.8-43.1c-4.9-17.2-9.6-34.3-10.3-52.3c-0.2-4.6-1.9-9.2-0.9-13.9c1.4-6.8,0.8-13.6,0.9-20.4
	c0.1-7.7,1-15.2,1.8-22.8c0.3-3,1.3-6.4-1.7-9c0.9,3.9-0.1,7.6-1.9,10.8c-2.5,4.4-3.2,8.5-1,13.1c0.3,0.7,0.3,1.7,0,2.5
	c-2.7,7.7-3.2,15.8-2.8,24.8c-1-1.2-1.6-1.7-1.5-2c1.8-6.1-4.3-10.6-3.2-16.5c0.1-0.6-0.7-1.4-1.1-2.1c-2.5-4.6-5.1-8.9-4.8-14.6
	c0.4-5.8,0.6-11.6-0.8-17.4c-0.4-1.8,0.5-4.6-2.2-4.9c-2.5-0.4-2.8,2.4-3.7,4.1c-0.4,0.7-0.6,1.5-0.8,2.3c-1.3,7.3-3,14.5-3.7,21.8
	c-0.7,6.4-4.3,12-3.6,18.8c0.8,8.3,0.2,16.8,0.2,26.2c-2.8-4.2-3.7-7.6-3.4-11.3c0.1-1.3-0.1-2.6-0.9-3.8c-2.7-3.7-3.7-7.6-2.2-12.2
	c0.6-2,0.8-4.7-0.1-6.4c-2.5-4.8-1.3-10.1-2.7-15c-0.4-1.4,0.5-3.9-2.1-3.7c-1.9,0.1-3.2,1.7-3.4,3.7c-0.8,7.7-2.6,15.3-3.7,22.9
	c-1.3,8.6-2.3,17.5-1.5,26.4c0.5,5.3-0.6,10.8,0.5,15.9c1.3,6.1,0.2,11.6-1,18c-1-1.2-2-1.8-2.3-2.6c-3.7-10.7-8.6-21.1-10.5-32.4
	c-0.3-2-1.1-3.7-3.2-3.8c-1.9-0.1-2.2,1.7-2.6,3.1c-0.3,1-0.4,2-0.8,2.9c-2.5,6.2-1.4,13.1-4.1,19.2c-1.2,2.6-1.4,5.4-2.1,8
	c-2.1,7.6-2,15.5-2.3,23.2c-0.3,8.3-2.7,16.3-2.6,24.6c0,4.1,2.2,7.7,2.1,11.7c-0.1,5.4-1,10.7-1.6,16.1c-1.1,8.8-0.1,17.9,0,26.9
	C745.9,720.5,797.3,720.5,848.6,720.5z M817.1,403.4c0.6,1.3-0.6,4,2,3.8c1.8-0.1,2.7-2.3,2.6-3.8c-0.3-4.5,1.8-8.3,3.1-12.3
	c3.4-10.5,6.3-21.2,9.5-31.7c0.3-1.1,0.7-3,2.4-2.7c2,0.4,1.9,2.5,1.4,3.7c-2.7,6.3-3.2,13.1-5.1,19.5c-3,10-4.6,20.2-4.7,30.6
	c-0.1,14.2,6.4,26.9,9.4,40.3c2.2,10,10.2,16.8,14.1,25.9c1.5,3.5,3.1,6.8,8,6.8c1.4,0,2.8,2.1,4.1,3.4c0.7,0.7,0.3,2.7,2,2.3
	c1.3-0.4,1.8-1.9,1.9-3.3c0.1-5-0.1-10,0.2-15c0.2-4.2-0.2-8.2-3.4-10.9c-4.3-3.7-2.4-6.3,0.9-9.2c3.3-2.9,6.5-5.9,6.5-10.7
	c0-9,3.5-17.4,4.6-26.2c1.4-11.1,4.3-22.1,6.3-33.1c2.9-16.3,6.1-32.5,7.4-49.1c0.4-4.8-1-6.9-6-7.3c-1.3-0.1-2.9,0.5-3.8-0.7
	c-3-4.1-5.3-8.9-7.9-13.1c-3.3-5.5-2.7-13.4-3.5-20.3c-0.3-2.6-0.6-5-1.9-7.5c-1.2-2.4-5.4-6.8,1.7-8c1.8-0.3,1.3-1.9,1.3-3.2
	c-0.1-5.1-0.3-10.3,0.7-15.4c0.8-4.2,0.2-8.1-3.4-11.8c-9.2-9.3-19.9-16.5-31.3-22.7c-15.4-8.5-30.3-17.5-42.5-30.6
	c-14.6-15.7-27.5-32.9-38.1-51.3c-6.7-11.7-16.3-21.1-23.1-32.7c-2.1-3.6-3.1-8.8-7.7-11c-0.3-0.1-0.5-1-0.4-1.3
	c1.2-3.4-1.2-5.2-3-7.3c-4.3-5-7.8-10.7-11.2-16.2c-8.1-12.9-15.1-26.6-24.1-38.9c-3.3-4.5-7.4-8.4-11.3-12.8
	c-1.4,2.4-0.1,3.5,0.5,4.7c1.8,3.7,3.7,7.4,5.4,11.1c8.1,17.1,17.7,33.4,25.5,50.7c2.7,6.1,8.2,10.9,9.2,17.9
	c0.6,4,2.7,7.4,4.5,10.9c0.4,0.8,1.7,1.1,1.1,2.4c-2.2,5.4-2,6,3.8,5.6c4.7-0.2,4.3,2.1,3.5,5.6c-3.3-1.8-6.4-1.9-9.1,0.8
	c1.1,3.2,4.3,3.9,6.8,5.5c0.8,0.5,1.5,0.7,2-0.4c2.1-4.7,5-1.5,5.7,0.2c3.1,7.6,13.9,10.3,12.7,20.4c0,0.3,1.2,0.6,1.5,1.1
	c2,3.7,7.9,5.1,8.1,8.6c0.6,7.5,6.3,9.9,10.6,13.8c0.4,0.3,0.7,0.7,1.1,1.1c2.4,2.2,1,3.5-1.2,4.3c-2.8,0.9-5.7,1.6-8.8,1.6
	c-1.7,0-4.2-0.8-4.7,1.5c-0.6,2.2,0.8,4.3,3,5.2c2.3,0.9,1.8,1.7,0.9,3.7c-1.6,3.4,0.3,5.5,4,4.7c2.5-0.5,4.8-0.8,7.5,0.3
	c-1.3,1.6-2.3,1.5-3.3,1.6c-3.7,0.5-2.4,3.5-2.6,5.5c-0.3,2.8,2.1,1.8,3.5,2.1c5.5,1,10-1.9,14.6-3.9c1.7-0.8,3.6-3.2,5-2.1
	c2.3,1.8-1.3,2.2-1.7,3.6c0,0.2-0.1,0.4,0,0.5c2.6,4.4-2.1,7.7-1.9,11.9c0.1,2.3-0.7,5-2.3,7c-2.1,2.6-2.3,5.3-1.3,8.4
	c0.4,1.2-0.2,2.9,1.5,3.3c1.7,0.4,2.1-1.3,3-2.2c5.1-5.4,19.9-9.6,25.8-6.7c13.1,6.4,17.2,11.5,18.7,27.7c0.2,1.8-0.5,3.8,0.7,5.4
	c6.5,8.8,3.6,19.6,6.2,29.2c0.9,3.3,1.1,6.9,0.6,10.3c-1.2,8.7-1,17.4-2,26.1c-1.3,12.4-4,24.5-7.4,36.3c-3.4,11.7-8.1,23.1-13.7,34
	c-0.9,1.7-2.6,4.3-0.6,5.4c2.5,1.4,2.7-2,3.9-3.4c0.1-0.1,0.2-0.2,0.8-0.8C816.3,401.2,816.6,402.3,817.1,403.4z M807.2,293.7
	c3-10,1.5-20-1.2-29.9c-1.3-5-5.3-6.2-9.4-2.9c-4,3.2-7.8,6.8-10.4,11.3c-5.3,9.3-13.1,16.5-20.9,23.5c-8.5,7.7-12.4,16.2-8.9,27.8
	c3,9.7,2.4,19.1-2.8,28.4c-2.5,4.5-5.4,9.2-4.6,15c0.6,4.9,2.4,6.4,7.2,5.6c4.6-0.8,8-3.6,11.7-6c5.6-3.5,10.6-7.7,15.9-11.5
	c3.9-2.8,6.9-7.5,9-12.5c3.4-7.9,5.8-15.2,3.2-24.2c-2.1-7.4-5.9-12.5-12.4-16.2c-6-3.4-7.8-10.9-4-15.7c2.5-3.1,5.1-6.1,7.9-9
	c5.8-6,10.5-4.9,13.4,3c1.6,4.5,3.1,9,4.7,13.5C806.3,293.9,806.8,293.8,807.2,293.7z M158.4,555.3c1.4,3.5-1.8,8.7,5,9.5
	c-7.6,1.6-8.7,6.8-8.5,12.6c0.3,8.9-1,17.9,1.7,26.7c1.1,3.5,0.3,7.5,0.2,11.3c0,4.8-0.3,9.7,2.1,14.1c0.4,0.7,0.9,1.6,0.1,2.3
	c-1.1,0.9-1.8-0.1-2.5-0.7c-7.7-6.3-15.5-12.5-19.6-22.1c-1.2-2.9-3.8-3.2-6.6-3.4c-12-0.9-23.9-1-35.9-1c-0.9,0-1.8-0.2-3.5-0.5
	c6.4-5.4,14-5.6,20.7-7.9c5.3-1.8,10.9-3.1,16.4-3.7c4.7-0.5,6.1-3.1,5.9-6.8c-0.3-6.4,2.8-11.8,4.8-17.4c1.1-3,0.3-3.5-2.3-3.7
	c-14.8-1.3-29.5-0.2-44.3,1.7c-27,3.5-51.9,12.8-75.7,25.6c-4.1,2.2-8,4.8-12.2,6.6c-1.1,0.5-2.8,2.5-3.8,0.4
	c-0.8-1.8-1.4-4.5,1.2-5.7c16-7.4,31.4-16.1,48.4-21.7c14.6-4.8,29.8-6.3,44.3-11c3.7-1.2,7.5,0.1,11.2-0.1
	c12.6-0.6,25.3-1.3,37.9,0.3c2.8,0.4,5.6,0.3,8.5,0.5C156.3,561.6,155.2,556.6,158.4,555.3z M146.8,590.6c1.5-6.5,3.1-13,4.7-19.5
	c0.3-1.3,2.1-2.2,0.2-3.8c-1.9-1.6-3.6-2.9-6.2-2.4c-2.1,0.4-2.1,2-2.5,3.7C140.8,576.4,144.5,583.3,146.8,590.6z M196.5,382.2
	c0.5,1.9,1.7,2.8,3.1,0.8c4-5.7,10.6-10.1,9.7-18.5c-0.2-2,0.8-4.3,1.9-6.1c5.6-10,9.7-20.8,13.3-31.5c3.2-9.6,6.9-19.1,9-29.2
	c1.6-8,4.4-15.8,6.1-23.9c1-4.8-1.7-7.9-4.4-11c-0.9-1-2.9-1.6-4.2,0.5c-5.4,9.3-10.8,18.6-14.5,28.8c-3.2,8.8-5.5,17.9-7.8,27
	c-1.9,7.6-6.2,14.4-7.9,21.8c-2.8,12.3-3.8,25.1-4.5,37.9C196.3,379.9,196.2,381.1,196.5,382.2z M691.9,228.5
	c-9.2-8-19.3-14.1-32.2-13.4c-1.6,0.1-3.5,0.3-5-0.3c-12.2-4.8-24.4-2.8-36.7-0.2c-8.1,1.7-16.2,3.2-24.2,5.1
	c-6.8,1.7-14.1,1.8-21.2,2.3c-5.3,0.4-9,3-12,7c-2.7,3.6-0.9,8.1,3.6,8.5c5.9,0.6,12.1,1.2,17.8,0.6c17.8-1.8,35.2-5.5,52.4-10.6
	c14.1-4.2,28.8-3.8,43.4-1.7c5,0.7,9.5,3.1,14.9,4.7C692.2,229.4,692.2,228.8,691.9,228.5z M328.5,206.1c-5.3-0.8-8.8,1.5-12,5.1
	c-0.7,0.8-1.4,1.5-1.1,2.5c0.3,1.3,1.6,1,2.5,1c5.2,0,10.2,0.3,15.2,1.8c3,0.9,6.4,0.6,9.7-0.9c3.5-1.6,7.4-1.3,11.1,0.4
	c2.2,1,4.5,2.1,6.9,2.9c12.8,4.2,26.5,4.3,39.2,8.5c13.2,4.3,26.4,7.1,40.2,7.8c1.1,0.1,2.3,0.8,3.1-0.5c0.5-0.9-0.2-1.7-0.9-2.1
	c-8.3-5.4-14.5-13.4-23.7-17.7c-8.6-4-17.6-5.6-26.7-7.2c-12.1-2.1-24.4-1.9-35.5-4.6C346.5,203.7,337.7,207.5,328.5,206.1z
	 M1022.7,210.3c-5.1-8.9-9.5-18.4-15.5-26.6c-9.6-13.1-19.1-26.1-31.8-36.7c-14.1-11.8-28.7-23-42.7-34.9
	c-9-7.6-19.3-13.4-27.6-21.9c-11.5-12-22.4-24.4-32.2-37.8c-4.9-6.7-10.6-12.7-15.3-19.6c-2.9-4.3-6.8-8-10.3-11.9
	c-1.3,1.4-0.9,2.5-0.1,3.4c5.2,6.7,8.5,14.5,12.9,21.7c5.5,9.1,12.4,17.1,18.5,25.6c1.6,2.3,3.2,4.7,5.1,6.7
	c6.2,6.5,12.8,12.6,18.7,19.3c5.9,6.6,12.5,12.5,19.9,16.9c10.8,6.6,21.1,13.8,30.7,21.8c11.4,9.6,22,20.1,28.3,34.2
	c1.8,4,5.3,6.2,10.3,4.6c3-1,5.6-0.3,5.7,3.9c0.1,3.1,1.8,6.6,4,7.7c8.2,3.9,9.7,12.3,13.5,19.1c2,3.6,4.5,5.2,8.3,6.9
	C1023,211.5,1023,210.8,1022.7,210.3z M447,531.8c-2.2,0-4.4-0.3-6.5,0.1c-8.2,1.4-15-1.8-21-6.7c-3.1-2.5-8.1-1.7-10-6.2
	c-0.4-0.9-2.1-1.3-1.2-2.7c0.6-1,1.7-1.2,2.7-0.9c11.1,3.3,22.3,1.3,32.8-1.5c13.2-3.6,25.2,0.7,37.7,2c4.6,0.5,9.3,0.5,14,0
	c10.8-1.1,21.2-1.1,31.7,3.2c7.7,3.2,16.5,3.2,25,3.1c2.3,0,4.7-0.4,6.9,0.8c1.4,0.7,2.7,1.5,2.5,3.3c-0.2,1.8-1.7,2.8-3.2,2.4
	c-9.2-2.3-18,1.5-26.9,2.1c-17.9,1.1-35.8,1.5-53.6,3.2c-0.8,0.1-2,0.7-2.4,0.4c-7.6-6.8-16.4-1-24.4-2.5
	C449.7,531.6,448.4,531.8,447,531.8z M518.4,524.5c-3.6-3.4-7.3-4.7-11.9-4.8c-13.3-0.2-26.6,1.3-39.8-1.8c-2.8-0.7-6-0.3-8.9,0.2
	c-1.4,0.2-4-0.2-4,1.9c0,2.1,2.3,2.5,4.1,2.8c5.7,1,11.3,2.5,17,3.7c3.8,0.8,7.5,3.5,11.5,2.5C496.7,526.4,507.5,527.4,518.4,524.5z
	 M791.2,403.3c-0.7,0.5-1.3,1-1.9,1.6c-8.4,7.3-18,11.5-29.3,11.3c-8.6-0.1-16.7-1.8-24-6.8c-5.9-4.1-9.5-2.9-12.5,3.5
	c-0.5,1-0.8,2.2-1.3,3.2c-7.3,17.4-11.5,35.9-17.8,53.7c-1.3,3.6-1.9,7.4-2.8,11.1c-0.2,1-0.2,2.1,1.1,2.4c1.2,0.3,1.8-0.4,2.1-1.5
	c1.2-3.8,2.5-7.6,6.1-10c0.3-0.2,0.7-1.1,0.6-1.3c-3.5-5.2,1.1-9.4,1.7-14.1c0.4-3,2.2-5.1,5.4-5.7c3.1-0.6,4.8-2.7,6.7-5.3
	c2.6-3.4,2.3-7.3,3.6-12.1c0.6,7,0.6,7-2.2,12.2c-1.4,2.5,0,3.3,2.2,3.5c5.5,0.4,7.5-1.5,8-8.7c0.5-7.3,2.2-13.8,8.6-18.3
	c-1.1,1.4-1.7,3.1,0,4.2c1.6,1,2.7-0.3,3.4-1.8c0.8-1.5,2.4-1.6,3.9-1.6c2.5,0,5,0.3,7.5-0.1c7.6-1,16,2.7,22.4-4.3
	c0.1-0.1,0.3-0.2,0.4-0.2c6.2-2,10.1-8.5,9.1-15.1C791.8,403.2,791.4,403.2,791.2,403.3z M363.1,314.9c1.2,1.7,3.2,0.8,5,0.1
	c3.5-1.2,6.9-5.4,10.8-0.5c0.3,0.4,2,0.1,2.8-0.3c2.7-1.5,5.7-1.7,8.5-2.5c6.1-1.6,12.6-1.6,18.3-4.3c5.7-2.7,10.6-7.2,17.5-7.2
	c2.4,0,4.8-1,7.2-1.7c0.9-0.3,2-0.7,2.1-1.8c0.1-1.3-1.1-1.7-1.9-1.9c-2.5-0.7-5.1-1.2-7.8-1.6c-9.6-1.2-18.6,2.4-28,2.9
	c-7.6,0.4-15.3,2.6-22.8,0.9c-11.4-2.7-22.7-4.9-34.4-2.7c-1.5,0.3-3.8-0.7-4.4,1.2c-0.6,2,1.6,3,2.9,4.2c0.5,0.4,1.1,0.7,1.7,1
	c2.4,1.1,2.1,2.2,0.1,3.4c-0.8,0.5-2.5-0.1-2.4,2.1c4.7,1.3,9.6,1.5,14.6,0.9c-0.3,1.4-1,1.8-1.8,2.1c-1.4,0.5-3.5,0.7-3.1,2.5
	c0.3,1.8,2.5,1,3.9,1.2c4.6,0.7,8.8-1.1,13.6-2.6C364.9,312.7,361.7,312.9,363.1,314.9z M562.7,302.9c7.9,1.6,15.9,2.7,22.5,8.1
	c3,2.4,6.5,4.8,10.4,5.7c7.8,1.8,15.3,4.5,21.9,9c2.3,1.6,4.8,1.3,7.2,1.1c2.4-0.2,2.9-1.3,0.9-3.1c-0.7-0.6-1.9-0.9-1.4-2.4
	c2.9-0.4,5.8-0.6,8.8,0.4c2.7,0.9,6.6,1.5,8.1-0.2c2.9-3.2,6.1-2.3,9.3-2.7c1.1-0.1,2.2-0.6,3.4-0.8c2-0.4,4.5-0.5,2.4-3.6
	c-0.2-0.3,0-1.2,0-1.2c5.2-0.4,4-6.2,7.3-8.4c-4.1,0.6-7-3.3-11.2-2.1c-15.5,4.6-31.5,4.1-47.3,3.4c-6-0.3-12.2-1.3-17.8-3.9
	c-9.4-4.4-19-5.2-28.8-1.2C559.4,302.9,561.2,302.6,562.7,302.9z M328.2,8.5c-2.1,2.9-4.2,5.9-6.4,8.8c-4.3,5.9-10.5,10.4-13.5,17.1
	c-2.4,5.6-5.6,10.4-9.6,14.8c-2.9,3.3-5.1,6.9-6.9,10.9c-6,13.8-10.8,28.1-18.1,41.2c-0.5,0.8-1.4,1.9,0.2,3.2
	c2.4-3.5,5.4-6.6,7.2-10.5c6.8-15.3,14.4-30.1,27.3-41.4c1.6-1.4,3.1-3,4.6-4.6c6-6,12-11.9,17.8-17.9c0.8-0.9,2.9-2.2,0.5-3.4
	c-3.7-1.8-3.5-1.5-1-5.1c5.4-7.7,11.2-15.1,20.9-20.2C339.4-1.6,334.3,0.2,328.2,8.5z M357.3,28.2c-4.3,1.1-5.7,9.1-12.2,5.4
	c-0.3-0.1-1.1,0.6-1.6,1.1c-1.7,1.8-3.5,3.5-5.1,5.4c-7.3,8.8-14.4,17.6-21.8,26.3c-2.3,2.6-2.9,5-1.4,8.1c2.3,4.8,3.7,9.8,3.2,15.3
	c-0.3,3.3-0.6,6.9,2.3,10.9c10.1-25.8,18.6-51.9,39.2-72.7C357.9,28.2,357.6,28.1,357.3,28.2z M672.2,672.5c0.5-1.1,1.2-2.2,2.5-2
	c0.5,0.1,1.3,0.9,1.3,1.2c-0.7,4.6,3.8,7.6,3.5,12.2c-0.1,1.7-0.1,5.3,2.5,5.1c2.7-0.3,2.1-3.6,2.2-5.9c0-0.5-0.1-1-0.2-1.5
	c-1.1-9.6-1.7-19.1-0.2-28.8c0.5-3.7,1.3-7.8-0.9-11.2c-2.3-3.5-2.4-7.4-2.9-11.3c0-0.2,0.2-0.4,0.3-0.5c1.5,0.2,1.3,2.5,3.2,2.6
	c0.8-6,3.8-11.3,3.6-17.5c-0.1-3.1-2.5-4.3-3.9-4.6c-2.4-0.5-2.7,2.2-2.9,4.2c-0.6,6.8-3,13.3-3.7,20.3c-0.5,4.5-2.5,9.3-3.3,14.1
	c-1.4,8.6-1.1,17.5-4.7,25.8c-1.1,2.6-2.9,5.6-1.5,9.4C669.8,680.3,670.4,676.2,672.2,672.5z M82.8,510.7c18,1.6,35.7-1.8,53.6-2.7
	c0.8,0,1.3-0.3,1.6-0.9c1.8-4.6,5.6-7.7,8.5-11.4c0.8-1.1,1.8-2.3,0.8-3.6c-1.1-1.3-2.5-0.6-3.7,0c-4.8,2.1-10,2.9-14.9,5.4
	c-10.9,5.5-23.1,7.7-35.2,10c-3.8,0.8-8-0.2-11.9,2.6C82.2,510.4,82.5,510.7,82.8,510.7z M153,68.7c1.2-1.1,2.4-2.1,3.6-3.2
	c4.5-4,7.7-9,11.7-13.4c9.3-10.5,17.4-21.9,26.4-32.6c4.3-5.1,5.1-12.1,9.4-17.2c0.6-0.7,0.2-1.7-0.8-1.8c-2.4-0.3-5-1-6.8,1.7
	c-5.4,8.1-10.8,16.3-16.1,24.4c-5,7.7-9.8,15.6-15,23.2c-4.3,6.2-9,12-13.5,18C152.2,68,152.6,68.4,153,68.7z M184.9,378.5
	c-0.1-1.2,0.5-3.1-1.1-3.5c-1.8-0.5-2.3,1.6-3.1,2.7c-3.8,5.6-7.1,11.5-11.2,16.9c-3,4-2.1,7.8-0.4,11.6c1.7,3.8,4.3,4.6,7.5,1.9
	c3.6-3.2,6.8-6.8,10-10.4c0.9-1,1.3-2.3,1-4.9C186.6,388.9,185.3,383.8,184.9,378.5z M877.4,484.9c0.3,6.1,1.4,12.2,2.2,18.3
	c0.1,0.6,0.4,1.3,0.9,1.6c1.1,0.6,1.3-0.6,1.8-1.1c2.6-2.7,2.6-6.3,3-9.7c0.6-5.7,3.8-10.9,2-17.2c-2.8-9.7-4.6-19.6-4.4-29.8
	c0-2,0.6-4.2-1.6-5.9C879.8,455.7,876.6,470.1,877.4,484.9z M219.3,360c4.1-9,8.4-18,12.3-27.1c4.9-11.4,8.2-23.4,12.4-35
	c1.6-4.4,4.3-8.7,3.9-13.7c-0.1-1.2,0.4-3-1.4-3.2c-1.6-0.2-1.9,1.4-2.2,2.8c-2.5,12-7,23.4-11.5,34.7c-5.4,14-12.1,27.6-19.4,40.7
	c-2.5,4.6-2.7,7,1.8,10.8C216,366,217.8,363.1,219.3,360z M159.3,411.7c-1.7-0.8-3,0-3.9,1.2c-9.1,11.3-20,20.6-30.8,30
	c-1.4,1.3-5.7,1.8-3.5,4.7c1.5,2,3-1.5,4.5-2.3c12.6-6.6,23.8-15.2,35-24c1.2-0.9,2.3-1.9,2.2-3.7
	C162.6,416.2,160.4,412.2,159.3,411.7z M1232.7,474.6c-14.6-17.3-28.9-34.9-43.5-52.3c-2-2.3-3.7-5.5-8-6.9c4,7.7,55.9,70,60.4,72.6
	C1240.2,482.2,1236.1,478.7,1232.7,474.6z M696.7,556.2c-0.5-2.1-2.2-1.9-2.7-0.5c-2.1,5.9-6.8,11.5-6.3,17.6
	c0.6,7.6-0.5,14.8-1.6,22.2c-0.2,1.3-1.2,2.8,1,3c1.6,0.2,2.4-0.8,2-2.6c-0.4-2-0.3-3.1,2.4-4.1c3.2-1.1,3.3-5.4,0.5-7.5
	c-1.2-0.9-1.7-1.5-1-2.7c2.3-4.1,2.6-8.9,4.2-13.3c0.7-2.2,2.9-3.8,2.8-5.4C697.4,560.1,697.2,558.1,696.7,556.2z M1030.4,234.2
	c3.7,3.7,6.6,8.1,9.9,12.2c4.3,5.1,8.2,10.6,13.8,14.6c-0.8-3.4-0.6-7.1-3.3-9.6c-3.9-3.5-7-7.5-9.8-11.8c-3.9-6.1-7.7-12.3-11.8-19
	C1026.4,226.3,1026.7,230.5,1030.4,234.2z M360.6,240.3c23.5-4.2,44.7-0.4,64.2,12.2C415.2,237.6,370.3,228.7,360.6,240.3z
	 M434.3,396.3c-6.2,8.4-6.5,21.8-0.6,30.4c2.3,3.4,5.4,5.8,9.3,7.2c1.8,0.7,4.3,0.4,5-1c0.9-2.1-1.7-2.2-3.1-2.9
	c-10-5.2-11.4-12.3-11.5-21.7c0-4.9,3.6-8.8,3.6-13.6C435.4,394.6,434.9,395.5,434.3,396.3z M468.2,287.2c5.3-15.8-0.2-36-17.2-40.2
	C466.1,256.4,465.4,272.5,468.2,287.2z M812.1,593.3c1.8-19.3,2.1-38.6,1.2-57.9C808.6,554.6,810.8,573.9,812.1,593.3z M701.3,511.1
	c1.4,0.6,2.6-0.3,3.6-1.1c6.3-4.7,9.7-11.1,11.4-18.6c0.3-1.2-0.2-1.8-1.2-2.4c-1.7-1-3.4-1-5.1,0c-1.2,0.7-1.7,1.5-0.9,2.8
	c1.3,1.9,0.5,3-0.8,4.7c-2.2,2.9-3.2,6.8-7.3,8.3c-1.1,0.4-0.7,2.1-0.8,3.2C700.4,509.1,700,510.5,701.3,511.1z M456.5,427.6
	c-0.8-1.1-2.2-2-3.5-2.6c-3-1.4-5,0.1-4.5,3.3c0.4,2.4,1.2,4.7,3.7,6c2.1,1.1,4,2.8,5.9,4.3c3.7,2.9,7.8,5.3,13.1,5.2
	C465.5,439.1,460.8,433.6,456.5,427.6z M684.8,509.2c-1.7-0.5-2.7,1.1-3.1,2.5c-0.9,3-1.7,6.2-4.1,8.2c-1.9,1.7-2.9,3.1-1.4,5.4
	c1.3,2,2.9,4,5.4,2.7c2-1,5.2-1.5,4.4-5.3c-0.8-3.4-1.2-6.9,0.4-10.5C686,511.2,685.6,509.4,684.8,509.2z M563.7,218.6
	c-6.8,1.5-11.3,6.2-15.5,11.3c-1.7,2-5.4,4.5-2.9,6.8c2.1,1.8,4.8-1.8,6.8-3.7c0.5-0.5,0.9-0.9,1.4-1.4c3.3-3.3,5.4-7.9,10.6-9.2
	c0.9-0.2,1.6-1.6,2.3-2.4C566.1,218.1,564.9,218.4,563.7,218.6z M53.4,168.1c11-5.7,16.5-16.1,23-25.7
	C66.8,149.3,60.1,158.7,53.4,168.1z"/>
<g>
</g>
<g>
</g>
<g>
</g>
<g>
</g>
<g>
</g>
<g>
</g>
<g>
</g>
<g>
</g>
<g>
</g>
<g>
</g>
<g>
</g>
<g>
</g>
<g>
</g>
<g>
</g>
<g>
</g>
</svg>
