<?xml version="1.0" encoding="utf-8"?>
<!-- Generator: Adobe Illustrator 18.0.0, SVG Export Plug-In . SVG Version: 6.00 Build 0)  -->
<!DOCTYPE svg PUBLIC "-//W3C//DTD SVG 1.1//EN" "http://www.w3.org/Graphics/SVG/1.1/DTD/svg11.dtd">
<svg version="1.1" id="Layer_1" xmlns="http://www.w3.org/2000/svg" xmlns:xlink="http://www.w3.org/1999/xlink" x="0px" y="0px"
	 viewBox="0 0 1280.4 720.7" enable-background="new 0 0 1280.4 720.7" xml:space="preserve">
<path d="M261.4,720.7c2-10.5-3.5-18.4-8.9-26.6c-2.1-3.2-4.9-6.2-5.7-10.3c-0.2-1.1-0.8-2.3-1.6-3.1c-7.8-7.8-11.6-17.8-14.4-27.9
	c-2.9-10.6-2.6-21.7-0.5-32.6c2.9-15,8.5-28.9,16.3-42c0.4-0.7,0.8-1.5,1.1-2.2c0.2-0.4,0.1-1,0.2-1.9c-3.5,0.2-5.4,3-7.9,4.5
	c-5.4,3-11.6,4.9-14.5,11.4c-4.5,10.2-7,20.7-5.5,32c0.2,1.3,0.9,2.5-0.2,4.2c-5.4-5.4-8.4-11.7-8.7-19.2c-0.1-2.8,0-5.7-0.1-8.5
	c0-3.3-2-4.2-4.7-3.2c-5.2,1.8-10.1,4.2-15.3,5.7c-4.6,1.4-4.7,4.5-4.2,8.2c0.3,1.9,1.5,3.6,1.2,6c-3.2-0.9-3.7-3.8-4.7-6
	c-1.8-3.6-3.9-4.6-8-3.2c-18.2,6-37,8.9-56.3,7.9c-5.9-0.3-11-2.9-16.3-6.9c3.4-1.5,5.8,0.3,8.3,0.4c14.3,0.3,27.8-3.7,41.4-7.4
	c4.9-1.4,9.9-2.6,15-3.6c7.5-1.6,8.6-2.9,8.7-10.6c0.3-19.7,10.1-34.6,24.1-47.3c2.6-2.3,5.2-4.5,7.5-7.6
	c-5.1-2.1-10.3-2.2-15.2-2.6c-22.9-1.8-45.8-1.7-68.8-0.4c-31,1.7-59.2,13.7-88.2,22.9c-4.2,1.4-8.1,2.3-12.5,2.2
	c-6.3,0-12.7-0.1-19,0c-2.6,0-4-0.9-4-3.8c0-2.8,1.2-4.1,3.9-3.8c18.5,1.9,35.9-2.3,52.9-9c12.8-5,26.5-7.1,39.6-11.4
	c5.6-1.8,11.7-2.1,17.7-2.5c11.6-0.7,23.1-2.5,34.8-2.2c18.2,0.6,36.4,2,54.4,5.3c7.6,1.4,13.9,0.3,20.2-4c4.6-3.2,9.7-5.6,14.7-8.3
	c3-1.7,5.4-1.5,6.5,3.2c-2.8-9.9,6.1-9,10.3-11.7c3.4-2.2,4.4-3.4,2.7-7.2c-3.6-8.4-1.7-16.5,2.6-24.3c4.7-8.5,11.2-15.3,19.3-20.8
	c5.8-3.9,11.1-8.3,16-13.1c0.8-0.8,2.8-1.3,1.8-3c-0.7-1.2-2.1-1.5-3.5-1.5c-5,0-10,0-15-0.1c-1.4,0-3.4,0.6-4-1.1
	c-0.7-1.7,0.9-3,1.8-4.4c4.1-6.5,11.1-7.4,17.5-9c11.3-2.8,21.8-7,31.9-12.6c7.9-4.3,14.5-10.2,21.7-15.5
	c9.9-7.3,11.3-17.1,8.2-27.9c-1.4-4.9-2.2-10-3.6-14.9c-1-3.6-2.2-3.6-4.7-1.3c-9,8.4-18,16.7-27,25c-4.9,4.5-9.7,9.1-14.6,13.6
	c-0.8,0.8-1.7,2.1-2.9,1.3c-1.5-0.9-0.3-2.2,0-3.5c3.1-11.7,6.7-23.2,7.9-35.3c0.2-2.1,0.6-3.6,2.5-5c3.5-2.5,7.1-4.8,9.9-8.1
	c3.4-4,7.8-3.9,12.7-1.7c-4.8-1.9-4.5-4.2-0.7-7.1c-7.3,4.8-12.5,1.2-17.6-3.5c-2.7-2.5-6.5-3.9-7.7-8.1c-0.9-3.2-0.8-5.5,2.2-7.8
	c7.5-5.7,14.7-11.8,22.3-17.5c5.5-4.2,8.9-9.1,10.1-16.2c3.8-21.1,11.7-41,20.2-60.7c4.7-10.9,4.5-22.1,3.6-33.7
	c-1.2-14.8-1.8-29.5,7-43.3c5.3-8.2,8.2-18,8.1-28.4c-14,23.7-29,46.6-46.7,67.9c-4.6-7.4,4.4-10.5,4.8-16.5c-2.9,1.2-4,3.6-5.4,5.7
	c-1.6,2.5-2.9,4-4.5-0.2c-1.6-4.1-4.4-1.7-5.8-0.1c-2.6,3.2-5.9,4.8-9.4,6.1c-6.8,2.5-11.4,8.4-17.8,11.4c-8,3.7-15.7,8.3-25,8.3
	c-3.2,0-4.6-1-4-4.4c0.3-1.6,0-3.3-0.5-4.9c-0.6-2.1,0.4-3.9,1.8-4.1c3.7-0.3,5.6-4.1,9.2-4.3c0.6,0,1.5-0.3,1.8-0.8
	c1.7-3.2,4.7-3.8,7.8-4.9c10.7-3.8,19.9-10.4,29-17.1c0.6-0.5,1.5-0.8,2.3-0.8c9.6-0.5,12.3-7.5,14.9-15.1
	c2.5-7.3,5.9-14.4,9.1-21.5c0.7-1.6,2-3.3,4.1-3.3c1.4,0,1.2,1.8,2.1,2.6c1,0.8,0.8,1.6-0.1,2.5c-3.7,3.4-2.8,8.7-5.1,12.7
	c-0.9,1.6-0.4,3.2,0.9,4c1.8,1.1,2.1-0.9,2.8-1.9c0.9-1.3,2.2-2.1,3.7-2.3c1.9-0.3,2.7-1.6,2.8-3.1c0.8-7.8,5.4-13.8,9.6-19.9
	c6-8.7,12-17.5,18.4-25.9c4.9-6.4,11.6-11,17.6-16.5c0.6-0.5,1.4-1.3,2.1-0.5c0.9,1,0.4,2.2,0,3.3c-2.2,6.2-4.3,12.5-6.6,18.7
	c-5.1,14.1-7.6,28.8-11.7,43.2c-1.6,5.6-5.8,9.2-8.7,13.8c-2.9,4.7-4.4,9.5-4.5,15c-0.1,12.8,0.6,25.5,1.9,38.3
	c0.7,6.9-1.3,13.5-3.4,20c-4,12.3-10.1,23.8-13.6,36.3c-3.8,13.6-6.9,27.1-8.1,41.3c-1.5,17.1,2.1,33.4,5.8,49.6
	c4.3,18.6,6.5,37.4,9.3,56.2c2.4,16.2,4.6,32.5,6.7,48.7c3.3,24.9,7.9,49.4,13.6,73.7c1.5,6.4,4.2,12.6,7.3,18.5
	c6.8,12.9,12,26.6,19.3,39.3c5.8,10.1,14.6,16.4,24.8,20.5c15.6,6.3,31.8,9.5,49,9.6c29.6,0.2,57.4-6.4,84.7-17.4
	c16.8-6.7,33.7-12.9,50.6-19.4c18.3-7.1,35.7-16.1,51.8-27c15.2-10.2,31.8-18.8,44.3-32.6c13-14.3,23.5-30.4,33.5-46.9
	c8.9-14.6,17.7-29.1,25.7-44.3c1.7-3.2,4.2-6,6.4-8.9c0.6-0.8,1.4-1.7,2.5-1.1c1,0.6,0.8,1.7,0.4,2.7c-3.4,7.7-6.2,15.7-11,22.8
	c-3.2,4.8-5.2,10.3-8.5,15.1c-7,10.4-14,20.8-20.8,31.3c-7.6,11.8-16.7,22.2-26.2,32.3c-10.5,11.1-23.1,19.8-35.6,28.5
	c-10.2,7.1-20.6,14-31.6,19.8c-10.4,5.5-21.2,10.2-32.2,14.4c-11.1,4.3-22.1,9.1-33.4,12.7c-13.4,4.3-26.3,10-39.8,13.8
	c-9.5,2.7-18.7,6.3-28.6,7.8c-4.4,0.6-2.8,3.9-1.2,6.5c6.5,10.4,13,20.8,19.4,31.2c7.7,12.6,14.8,25.6,18.4,40.1
	c0.5,1.9,1.2,3.7-0.3,6c-2.8-3.8-4-8.2-5.8-12.2c-5.2-12-13.2-22.2-19.3-33.6c-5.7-10.5-12.1-20.6-16.2-31.9
	c-1.2-3.2-2.9-4.7-6.2-4.4c-7.3,0.6-14.6-0.7-21.8,0.9c-3.7,0.8-7.2-0.7-10.9-0.9c-2.7-0.2-4.3-0.3-3.1,3.7
	c2.3,8.1,6.1,15.4,9.8,22.8c7.6,15.1,16.2,29.6,24.7,44.2c4.6,7.8,9.9,15.2,14.2,23.1c2.5,4.6,6.7,8.3,7.2,13.9
	C438.1,720.7,349.8,720.7,261.4,720.7z M351.4,473c-0.3-0.1-0.6-0.3-0.9-0.4c-3.8,7.1-7.7,14.3-11.4,21.5c-3.1,6-4.4,13.2-9.6,17.8
	c-7.1,6.3-12.9,13.8-19.6,20.5c-6.4,6.4-12.3,13.4-17.6,20.8c-9.3,13.1-16.6,27.4-22.3,42.4c-1.2,3.1-1.9,6.4-0.6,9.7
	c2.1,5.6,3.3,11.5,3.3,17.4c0,8,2.6,15.7,2.6,23.7c0,2.5,0.6,5,0.9,7.5c0.9-2.2,0.9-4.3,0.9-6.5c0-2-0.1-4.4,2.2-5.1
	c2.4-0.7,3.4,1.6,4.4,3.2c3.2,5.1,6.1,10.4,10.7,15.9c-1-3.5-1.5-6.2-2.5-8.6c-4.8-11.4-4.4-23.3-3.6-35.2c0.2-2.4,1.5-4.3,2.5-6.4
	c3.6-7.2,8.4-14,10.4-21.9c0.2-0.9,1-2,0-2.7c-1-0.7-1.7,0.3-2.5,1c-1.9,1.6-4,3-6.2,4.7c-1.7-6.4,1.4-11.2,4.7-15
	c3.2-3.7,4.5-8.3,7.4-12.1c0.4-0.6,0.8-1.3-0.2-1.4c-3.8-0.4-1.5-2.5-1.1-3.9c2.1-7.1,7.9-12.1,10.6-18.9c1.9-4.8,6.9-7.1,8.9-11.9
	c0.6,0.9,0.7,1.6,0.5,2.1c-4.9,12.3-8.8,24.9-12.7,37.6c-2.9,9.6-3.5,19.5-4.6,29.2c-1.8,15,0.4,30.2,0.8,45.3
	c0.1,4.1,0.9,8.2,0.9,12.4c0.1,3.1,2.2,6,5.2,7.8c-3.6-8.1-1.3-16.4-1.3-24.7c3.3,6.2,4.9,13,7.2,19.4c2.4,6.6,7,12,10.3,18.8
	c0.6-4.5-2.3-6.8-3.2-10c-2.5-8.6-3.9-17.4-5.5-26.2c-3-17.1-1.6-34.3,0.3-51.2c1.4-12.6,5-25.2,10.4-37.1
	c4.8-10.7,8.5-21.9,13.4-32.6c7-15.5,15.6-30.3,21.1-46.5c3.1-9.2,3.2-9.7,0.4-13.8c-4.7,10.2-10.9,19.4-15.1,29.8
	c-2.5,6.2-5.7,12.2-8.7,18.3c-0.4,0.8-1,2.1-2.2,1.4c-1-0.6-0.8-1.8-0.3-2.7c3-5,4.7-10.4,6.2-16C347.4,484.6,349.5,478.9,351.4,473
	z M264.8,494c-0.5,4.2,1.3,4.4,4.2,2.5c2.2-1.4,4.6-2.6,6.7-4.2c5.5-4,12.5-6.4,15.9-12.3c3.2-5.5,7.4-9.9,11.8-13.9
	c11.1-10.2,21.4-21.3,32.4-31.6c3-2.8,4.4-6.6,6.3-10c0.5-0.8,1-1.8-0.1-2.7c-0.9-0.7-2.2-0.9-2.7-0.1c-2,2.9-5.9,3-8.2,5.4
	c-6.2,6.7-13.8,12.1-20.7,18c-12.4,10.7-24.6,21.7-36.4,33.1C269.6,482.3,265.4,487.3,264.8,494z M264.1,610.7
	c-13.3,26.2-12.5,52.1,0.7,78.9C267.8,662.5,269.2,636.6,264.1,610.7z M232.6,548.6c-1.8-0.8-2.9,0.3-3.9,0.9
	c-14.6,9-28.1,19.2-36.8,34.5c-0.6,1.1-2.4,1.9-1.2,3.4c1.1,1.4,2.7,0.8,4.1,0.2c5.5-2.2,11.1-4.3,16.6-6.4c2.7-1,4.6-2.7,5.5-5.4
	c2.5-6.7,6.5-12.6,10.2-18.7C228.8,554.3,232.2,552.4,232.6,548.6z M846.4,720.7c1.9-4,4-7.9,5.7-12c3.6-8.3,8.3-16.3,10.6-25.1
	c5.5-21.2,10.3-42.6,14.9-64.1c1.1-5,2.7-10,3-15c0.9-18.1,5.2-35.7,5.9-53.8c0.3-6.3,0.5-12.6,0.5-18.9c0-1.7-1.2-4.6-3.2-2.5
	c-3.5,3.5-8.6,3.3-12,6.8c-1.1,1.1-2.8,1.9-5.1,0.9c2.4-5.6,7.1-9.3,11.1-13.4c3.8-3.9,8.8-7.3,9.6-12.8c0.9-5.7,0.2-11.6-0.2-17.4
	c-0.6-9-0.2-18-0.2-27.5c1.6,1.8,0.2,3.8,1.9,5.1c2.5-1.9,3.4-4.8,3.4-7.4c0-5.2,1.5-10.1,2.4-15.2c0.5-2.8,1.7-5.5,1.8-8.2
	c0.5-19.3,5.1-38,7.9-57c0.2-1.4,0.6-2.9-0.5-4.3c-2.1,0.8-3,2.7-3.6,4.5c-2.4,7.4-5.9,14.3-8.9,21.5c-5.7,13.6-11,27.4-15.7,41.3
	c-4.4,13.2-8.2,26.6-12.5,39.8c-5.9,18-10.1,36.3-10.4,55.4c-0.1,6.4-1.3,12.8-1.5,19.4c-0.4-4.4-2.5-8.4-2.6-12.6
	c-0.6-15.4-2.8-30.6-1.8-46.2c1.1-18.1,5.1-35.5,9.5-52.9c2.2-8.8,7.5-16.6,8.5-25.9c0.4-4.2,1.7-7.9,4.8-11.1
	c2.1-2.2,3.4-5.2,3.2-9.1c-9.6,5.9-18.9,11.5-28.1,17.4c-19,12.3-36.8,10.8-53.2-4.5c-1.4-1.3-2.8-3.1-6-3.7
	c1.9,3.3,3.9,5.8,3.2,8.9c-3.6,16.8-6.9,33.7-11.1,50.4c-4.4,17.3-9.3,34.5-14.7,51.6c-5.8,18.3-11,36.7-19.6,53.9
	C736.5,591,729,605.3,726,621c-3.1,16-8.6,31.2-14.3,46.4c-1.9,5-3.7,10.1-5.5,15.1c0.4,0.2,0.8,0.4,1.2,0.5
	c5.4-8.9,8.5-19,13.8-28.1c1.5,13.7,1.7,27.5,6.9,40.4c0.1-9.8,3.9-18.8,5-28.5c0.7,14.1,0.6,28.2,7.8,41.7c0.4-1.3,0.7-1.8,0.7-2.2
	c-1.1-9.7,1.4-19,3.8-28.2c0.4-1.4,1.1-9.5,5.1-1.4c0.5,1,1.5,0.4,2.2,0.2c1.9-0.7,2.3,0.2,2.6,1.8c1.1,6.2,2.2,12.2-0.3,18.5
	c-3.1,7.6-6.7,15.1-7.5,23.5C780.4,720.7,813.4,720.7,846.4,720.7z M968.4,720.7c-2.2-10.8-4.3-21.7-5.8-32.7
	c-1.8-13.3-1.2-26.5,1-39.6c0.2-1.1,0.2-2.5,1.6-2.8c1.4-0.2,2.3,0.9,2.7,1.8c1.9,3.9,5.1,7.4,3.3,12.5c-0.6,1.7-0.7,3.9,0.7,6.1
	c2.8-3.7,4.2-7.5,4.7-11.8c1-8.3-1.4-15.7-5.9-22.6c-0.7-1.1-2.2-2.6-1-4c0.5-0.6,2.2-0.6,3.3-0.5c10.2,1.2,28.2,12.3,26,26.5
	c-0.1,0.7-0.2,1.7,1,1.9c6.2-8.2,6.3-8.1,8.1-17.9c0.9-4.8-0.7-10.6,5-13.7c0.3-0.2,0.2-1.6-0.1-2.3c-0.3-0.8-1.1-0.4-1.7,0
	c-3.6,2.2-4.6-0.6-5.7-3c-4.9-10.9-11.5-20.5-21.3-27.5c-2-1.4-3.2-3.5-2.6-6c0.9-4,0.7-8.2,2.3-12.2c2.3-5.7,4.3-11.5,6.3-17.3
	c0.4-1.2,2.2-2.8,0-3.8c-1.8-0.8-1.9,1.2-2.6,2.2c-5.7,8-7.7,17.5-11.2,26.4c-2.5,6.3-2.5,7.1-9.1,6.8c-3.7-0.1-7.3-0.9-10.7-2.2
	c-16.4-6.1-29.5-16.2-38.1-31.6c-1.2-2.1-2.3-4.9-4.9-3.6c-2.2,1.1-3.3,3.8-3.4,6.7c-0.5,14.9,0.6,29.8-0.9,44.8
	c-1.5,14.3-3.3,28.5-5.9,42.7c-1.7,9.1-3.1,18.3-5.6,27.2c-1.5,5.5-1.8,11.8-6.6,16.6c4.3-28.7,4.5-73.1,0-77.3
	c-0.5,10.7-2.8,20.8-4.8,31c-2.2,11.7-5.8,23-10.3,34.1c-5,12.2-10.6,23.9-18.6,34.4c-2.5,3.4-6,6.2-7.1,10.6
	C889.8,720.7,929.1,720.7,968.4,720.7z M218.4,720.7c0.5-2.1,0.4-4.3,0.1-6.5c-2.1-14.9-5.5-29.6-9.8-44c-2.3-7.6-3.7-15.4-7.1-22.6
	c-0.5-1.1-0.8-3-2.5-2.4c-1.2,0.4-0.9,2-0.6,3.1c0.3,1.1,0.5,2.3,0.9,3.4c3.3,8.5,3.9,17.6,6.3,26.3c3.9,13.8,5.2,28.3,5.8,42.7
	C213.8,720.7,216.1,720.7,218.4,720.7z M1280.4,314.7c-0.9-0.5-1.9-0.7-2.6-1.4c-12.2-11.2-25.7-20.7-38.3-31.4
	c-3.8-3.3-8-6.2-13.1-10c1,2.9,1.8,4.1,2.8,5.2c10,10.4,22,18.5,32.9,27.8c6,5.1,12.1,9.9,18.2,14.8
	C1280.4,318,1280.4,316.3,1280.4,314.7z M869.6,182.1c-5,2.1-10,4.3-15,6.3c-4.3,1.7-4.8,3.2-2.2,6.9c3.5,4.8,8.4,7.2,14.1,8.7
	c5,1.3,10.5,0.9,14.9,4.2c1,0.8,1.8,0.2,2.4-0.8c2.4-4.4,6.7-4.7,10.8-4.2c4.5,0.6,8.9,1.2,13.3,0.2c1.1-0.3,2.6-0.1,2.5,0.9
	c-0.6,5.1,3.7,8.2,5.4,13.2c-5.3-0.7-9.7-2.5-14.6-2.2c-3.3,0.2-6.9,1.2-10.2-0.1c-2.6-1-3.9,0.5-4.6,2.5c-0.8,2.4,0,4.1,2.7,4.9
	c9.4,2.8,14.5,9.9,18,18.5c1.2,2.9,2.2,6.1,4.2,8.3c2.6,2.9,3.9,4.8,2.1,9.1c-1.5,3.4-0.1,7.9-1.4,11.7c-0.8,2.4-1,4.9-0.7,7.4
	c1.4,11.7,3.9,23.2,3.9,35.1c0,1.3-0.5,2.9,1,3.6c1.9,0.9,1-2.5,2.8-2.2c0.9,22.4-0.4,44.6-2.6,66.8c-0.6,5.6-0.7,11.2-1.1,16.9
	c-0.1,1.1-0.1,2.5,1.4,2.8c1.6,0.4,1.7-1,2.3-2c1.4-2.7,1.8-5.5,2-8.6c0.5-7.8-0.3-15.5-0.1-23.3c0-1-0.1-2.3,1.1-2.5
	c1.4-0.2,1.9,1,2.2,2.2c0.9,3.9,1.6,7.8,2.8,11.5c0.5,1.6,0.7,4.1,2.6,4.5c2.2,0.4,3.6-1.8,4.5-3.4c4.7-8.3,10.6-16,15.3-24.3
	c5.7-10.2,10.6-20.9,14.8-32c4.3-11.3,10.4-21.9,9-34.6c-0.2-2,0.7-3.4,3.4-1.9c11.2,6.2,23.2,9.6,36,9.9c1.9,0,3.8,0.1,5.2,1.3
	c5,4,11.5,4.2,17,6.8c1.9,0.9,2.9-0.1,3-2c0.3-4.7-5.9-14.2-10.4-16c-4.6-1.8-9.2-3.8-13.8-5.6c-3.9-1.4-7.7-3-12-2.2
	c-3.2,0.6-6.3-0.8-9.1-2c-9.2-3.9-18.1-9.1-25.6-15.2c-8.8-7.1-17.2-15-24.7-23.8c-11.1-13-19.8-27.3-27.3-42.5
	c-2.5-5.1-2.2-5.7,3.3-5.8c7.9-0.1,14.7,3.9,21.2,7.4c7.7,4.1,15.4,8.7,23.4,11.8c7,2.8,12.4,6.6,17.3,11.8
	c3.9,4.1,8.4,7.5,12.1,11.8c1.5,1.7,3.1,4,6.1,4.7c-0.6-5.5-3.5-9.8-4.8-14.5c-4.1-14.5-9.4-28.5-13.1-43.1
	c-3.4-13.4-6.5-26.7-6.1-40.5c0.2-9.6,1-19.2,1.1-28.9c0-6.3-2.6-11.6-5.8-16.1c-5.1-7.2-9.8-14.7-15-21.9
	c-6.6-9.1-13.6-17.9-20.5-26.7c-0.8-1-1.3-2.4-3.1-1.9c-3.4,1-5.2-1.4-7.2-3.4c-3.9-3.8-5.7-8.9-8.3-13.5
	c-4.2-7.4-9.6-13.7-16.3-18.9c-1.1-0.8-2.6-2.3-3.9-0.6c-1,1.3,0.1,2.6,1,3.5c4.8,4.5,4.5,8.4-0.3,15.6c-2.5,3.7-4.1,7.6-5.2,11.7
	c-1.4,5.4-3.9,7.1-8.6,4.1c-8.8-5.6-18.7-7.5-28.4-10.2c-1.3-0.4-2.5-0.8-3.9-0.3c-3.8,1.5-6.1-2-9.1-3c-1.7-0.6,0.1-2.2,1.3-2.6
	c2-0.8,4.1-1.3,6.6-2.1c-0.9-0.8-1.2-1.3-1.6-1.4c-7.3-1.3-14.7-2.4-22-3.8c-1.9-0.3-2.6,0.7-2.4,2.1c0.5,3.9-1.9,5.1-4.9,6.3
	c-4.5,1.9-5.5,5.5-3,9.6c1.5,2.5,4,3.9,6.1,5.7c5,4.3,12.2,2.7,17.4,7.9c3,3,9,5.6,14.6,5.3c2.6-0.1,4.7,0.6,6.8,2.3
	c4.3,3.4,5.9,2.5,6.7-3.1c0.2-1.3-0.9-2.7-0.6-3.2c1.8-2.4-1.6-7,2.8-7.7c3.9-0.7,8-0.4,12,0.1c2.5,0.3,5.7,2.5,4.6,4.7
	c-2.8,5.8-2.3,11.7-2.7,17.7c-0.4,6.4,3.3,12.2,2,18.7c-0.2,0.9,0.4,2.1-0.7,2.7c-1.1,0.6-1.9-0.3-2.6-1
	c-5.8-5.1-12.5-8.7-19.3-12.1c-1.5-0.8-3.3-2.1-5.1-0.8c-9.3,7.3-19.8,12-31,15.4c-2.4,0.7-2.8,2.9-0.4,3.9c2.8,1.1,5,3.3,7.8,4.4
	c6.3,2.5,6.6,3.2,2.1,8.3c-1.7,2-3.7,4.1-2.3,6.6c2,3.6,4.6,7.3,8.9,8.1c14.2,2.5,28.3,5.2,42.7,6.1c3.4,0.2,6.6,4,5.4,7
	c-1,2.3-1.1,3.5,1.1,4.9c1.5,1,2.2,2.9,1.1,4.4c-1.2,1.7-2.7,0.1-4-0.5c-5.3-2.4-10.7-4.6-16.7-3.2c-9.5,2.3-19.1,4.3-29,3.8
	c-4.7-0.3-7.7,3-8.5,7c-0.7,3.8-2.5,4.3-5.4,3.9c-12.3-1.5-24.6-2.8-36.2-7.8c-4-1.7-7.8-4.4-12.5-4.5c8.8,9,20.2,12.7,31.9,16.4
	c-2.3,2.8-2.3,2.8-5,2.9c-9.7,0.5-19.2-0.6-28-5.1c-1.1-0.5-2.3-1.2-3.2-0.1c-1.1,1.2,0.2,2.1,0.9,2.9c1.7,1.9,3.5,3.5,5.8,4.7
	c7.2,3.6,14.7,5.6,22.8,6.5c14.9,1.7,29-1.2,43-5.6c7.2-2.3,14.3-4.6,21.5-6.8c-28.6,18.1-58.6,25.6-91.8,11.1
	c1.4,4.6,4,6.9,7.3,8.7c6.3,3.5,13.4,4.6,20.2,6.8c6.4,2.1,12.6,2.3,19,0.2c5.2-1.7,10.1-1.9,15.3,1.1c3.8,2.3,8.1,2.9,12.9,1
	c5.6-2.3,11.6-3.3,17.5-4.9C869.4,181.2,869.5,181.7,869.6,182.1z M387.1,29.6c-1.3,0.8-1.5,3.2-3.8,2.5c-2.2-0.7-1.3-2.8-1.6-4.3
	c-0.4-2.2-0.1-5.2-4-2.9c-1.5,0.9-3.3,0.4-4.8-0.5c-5.2-3.3-10.6-6.2-15.5-9.9c-8.3-6.3-18.4-8.6-27.8-12c-11-3.9-23-2.3-34.6-2.3
	c-1.5,0-2.9,0.6-4.3,1c-8.3,2.4-14.9,8.2-22.8,11.4c-12.8,5.1-25.5,10.3-38.8,13.9c-9.3,2.5-18.6,4.5-28,6.3
	c-14.5,2.8-28.9,4.5-43.4,2.2c-7.7-1.2-15.6-2.4-22.6-6.9c-11.6-7.5-22.7-15.7-32-25.9c-0.5-0.6-0.9-1.6-1.9-1.2
	c-1.2,0.5-0.9,1.6-0.7,2.6c0.9,3.7,1.4,7.5,2.8,11c5,12.6,9.7,25.3,21.6,33.9c7.8,5.7,15.7,10.5,24.8,13.1
	c9.2,2.7,18.5,4.9,27.8-0.4c4-2.3,8.5-4.4,14.7-5.2c-11.8,10.2-21.3,21.1-28.5,33.1c-7.1,12-16.8,22.3-23.1,34.7
	c1.3-0.2,2.3-0.7,2.8-1.5c7.5-11.3,19.2-19.4,24.7-32.4c1.4-3.3,3.8-6.2,5.9-9.1c7.3-10,16.2-18.6,25.1-27c2.9-2.8,6-5.6,10-7.2
	c10.8-4.4,22.3-7,32.2-13.8c5.2-3.6,10.5-6.9,15.8-10.2c11.3-7.2,23.5-12.3,37-13.6c6.3-0.6,12.8-2.8,18.8-0.8
	c9,2.9,18.4,3.9,27.4,7.1c8.1,2.9,16.4,5.4,24.4,8.6c5.9,2.4,7.6,6.2,6.1,12.8c-1,4.4-5.1,7.2-10.5,7.5c-8,0.4-15-3.3-21.7-6.4
	c-5.7-2.5-9.7-0.8-13.9,1.5c-6.6,3.7-13.3,7.2-20.7,8.7c-2.1,0.4-3.6,1.5-5.1,2.8c-14.9,13.2-27.3,28.6-40.2,43.6
	c-1.7,2-2.6,4.4-2.6,6.9c0,7.5-0.7,14.9-1.9,22.3c-0.6,3.3-2,6.3-2.2,9.6c-0.7,10.8-5.7,20-10.6,29.3c-0.4,0.8-1.5,1.6-0.4,2.5
	c0.8,0.6,1.5-0.2,2.2-0.5c3.9-1.7,4-5.8,5.9-8.8c3.5-5.6,7.2-11.1,5.7-18.3c-0.6-2.6,0.1-5.3,1-7.8c2.5-6.9,5.5-13.5,4.3-21.5
	c-0.4-3.1-0.4-7.3,1.4-10.7c4.7-8.6,12.9-13.4,21.5-16.2c5.6-1.8,7.3-5,7.4-9.2c0.1-4.6,2.6-7,5.6-9.2c1.8-1.4,3.9-2.4,5.3-4.3
	c1.5-2,3.7-2.8,6.1-2.8c3.2,0,6.3-0.1,9.5,0c3.2,0.1,6-0.3,8.5-2.9c2.8-3,6.5-4.8,11.5-3.2c-2.1,1-3.6,1.7-5,2.6
	c-1.6,1-4.7,1.6-3.5,3.9c1.1,2.2,2.9-0.4,4.4-1c1.3-0.4,3.1-0.8,3.4,0.8c0.3,1.4-1.2,2-2.7,2.2c-3.3,0.6-6.5,1.5-9.7,2.1
	c-2,0.4-5.7,3.1-4-2.6c0.3-1-0.7-1.5-1.6-1.4c-3.6,0.1-7.2,0-10.3,4.1c3.7-0.5,4.7,2.1,7.5,3.4c-3.9,1.2-6.9,2.5-9.8,4.1
	c-4,2.2-1.8,5.5-1.7,8.4c0.2,3,2.7,2.4,4.6,2.5c2.7,0.1,5.3,0.1,8,0c1.6-0.1,3.6,0.2,3.6-2.3c0-2.2-1.6-2.2-3.2-2.3
	c-1.8-0.1-3.2-0.6-4.4-2.7c5.9-3.1,12-5.1,18.9-5.5c-0.7,1.2-2,2.2-0.8,3.2c1.3,1,2.8,0.4,4.2-0.4c2.6-1.5-0.1-3.2,0.3-5.1
	c3.2,2.3,5.7-1.4,8.9-1c3,0.4,4.2,0.8,2.7,4.3c-4,9.1-9.7,17.3-13.6,26.5c-2.9,6.7-7.2,13-15.3,14.5c-3.8,0.7-7.2,1.7-10.6,3.7
	c-3.3,2-7.4,4.1-11.1,4.1c-5.8-0.1-9.4,3.6-13.9,5.9c-1.9,0.9-3.1,2.9-2,5c1,1.9,3.3,2.7,5.2,1.7c4.9-2.5,10.6-3.3,15-6.2
	c4.2-2.7,7.9-2.9,12.1-1.6c1.6,0.5,3.2,0.9,3.6-1.2c0.4-2.4,2.3-2.5,3.9-3.1c4.5-1.7,8.1-3.7,10.6-8.7c3.8-7.4,8.1-14.7,14.2-20.8
	c5.6-5.6,12.4-9.8,17.1-16.9c9-13.7,20.5-25.6,32.4-36.9c3.8-3.7,7.6-7.4,8.7-13.9C398.1,22.7,392.5,26.1,387.1,29.6z M1077.3,327.8
	c-0.4,0.6-0.1,1.6-0.2,2.5c-1.1,5.2,3.7,7,5.8,10.3c7.1,11.2,13.4,22.8,19.8,34.4c11.6,20.8,20.7,42.7,30.2,64.4
	c10.2,23.4,22.3,45.9,30.8,70c1.5,4.3,4.5,7.6,6.4,11.6c7,14.7,12.7,29.9,19.3,44.7c0.6,1.3,2.2,2.7,0.9,4c-1.3,1.4-2.7-0.4-4-0.9
	c-14-5.5-26.4-14-40.2-20c-14.6-6.3-29.8-10.6-44.4-16.9c-7.9-3.4-16.9-4.4-25.4-6.4c-2.6-0.6-5.2-0.9-7.9-1.1
	c-18.2-1.1-35.7,2.3-52.1,10.2c-5.3,2.5-10.9,4.4-16,8.4c2.3,1,3.7-0.1,5.2-0.5c7.9-2.3,15.2-6.4,23.6-7.5c10.7-1.5,21.4-1.7,32-2.4
	c13-0.9,24.4,4,36.4,6.1c9,1.5,17.5,5.8,26.2,8.9c8.1,2.9,16.3,5.7,24.2,9c14.2,5.9,27.9,13,41.9,19.5c2.7,1.3,4.8,2.9,5.9,5.7
	c2,5.1,4.6,9.9,6.7,14.9c5.7,13.2,14.5,24.4,22.7,36c0.6,0.8,1.4,1.9,2.9,1.4c-0.1-0.6-0.1-1.1-0.4-1.5
	c-6.8-9.8-10.6-21.2-14.6-32.1c-6.6-18.3-13.5-36.6-20.2-54.9c-4.4-12.2-9.5-24.2-14.6-36.2c-9.2-21.8-20.2-42.8-29.4-64.6
	c-5.1-12-11.8-23.4-16.9-35.4c-9.6-22.7-21.3-44.1-36.1-63.7c-7.3-9.7-14.4-19.5-20-30.4c-2.3-4.4-2.2-10-5.9-13.5
	c-7.8-7.4-14.5-15.8-20.8-24.5c-2.3-3.2-5.6-3.3-6.7-0.3c-1,2.8-1.8,5.3-5.3,5.8c-1,0.2-1.2,1.4-0.5,2c3.2,2.5,2.4,6.9,4.7,9.7
	c4.6,5.5,6.7,12.5,11.2,18.1c5.5,6.9,9.3,14.8,13.4,22.5c1.1,2.1,2.6,3.2,5.3,2.1c2.7-1.1,2.5-3.1,1.8-4.9
	c-1.3-3.7-0.2-7.1,0.7-10.6C1077.4,322.6,1079.9,323.8,1077.3,327.8z M98.5,450.9c12.3-1.7,24.7-1.5,37-3.7
	c18.5-3.3,35.7-9.4,52-18.5c17.2-9.7,30.5-23.8,43.2-38.5c6-6.9,10.3-14.9,14.9-22.7c1.8-3,6.4-6.7,3.9-9c-2.3-2.1-6.1,2.6-8.9,4.7
	c-5.8,4.3-11.3,9.8-18.6,10.9c-11.2,1.6-18.1,8.8-24.9,16.6c-1.4,1.6-2.7,3.3-4.4,4.7c-6.7,5.1-13.4,10.2-19.9,15.6
	c-9,7.4-18.6,13.8-28.7,19.3c-11.1,6-23.4,9.2-35.2,13.3c-7.5,2.6-15.6,2.6-23,5.9C90,449.7,94.1,451.5,98.5,450.9z M520.3,494.7
	c-14-0.2-27.8-1.5-41.5-4.3c-4.4-0.9-9-0.9-13.4,0c-3.7,0.8-6.8,0.2-10-1.7c-10.5-6.1-22-9.2-34-9.9c-3.3-0.2-4.9-1.4-5.3-4.6
	c-0.4-3.8-2.3-6.5-6-7.9c-3.2-1.2-5.5-3.6-7.3-6.5c-1-1.5-1.1-3.2,0.3-4.6c1.6-1.5,2.7-0.1,3.8,0.9c3.8,3.6,8.3,3.8,13,2.6
	c4.8-1.2,9.6-2.6,13.9-5.3c4.9-3.2,10.5-2.6,14.9-0.7c11.9,5.3,24.6,7.6,37.1,10.7c10.6,2.6,19.3,9,28.5,14.6
	c6.3,3.9,13.4,6.4,20.2,9.5c1.8,0.8,4.2,1.5,3.6,3.9c-0.5,2.3-3,2.2-5,2.3C528.8,494.1,524.5,493.6,520.3,494.7z M504.4,485.9
	c-0.5-1-2.8-1.8-0.5-3.2c1.1-0.6,1.5-1,0.5-2.2c-5.7-6.2-11.9-11.1-20.3-13.6c-7.2-2.2-14.8-1-21.9-3.8c-4.9-1.9-10.2-2.8-15.2-4.4
	c-2-0.6-3.8-0.7-4.7,1.2c-1,2.1,0.8,3.3,2.3,4.4c0.4,0.3,0.9,0.5,1.2,0.8c3.1,2.6,6.2,5.3,2.5,9.7c-1.4,1.6,0.3,1.3,1,1.7
	c9.7,6.4,19.9,10.1,31.7,7.1c0.7-0.2,1.7,0,2.4,0.3C490,486.6,496.8,488.1,504.4,485.9z M686.2,194.3c-6.8-2.6-14.7-1.9-20.6-6.7
	c-4.8-3.9-10.4-4.8-16.2-5.3c-13.5-1-26.7,2.6-40.3,2.1c-11.3-0.4-22.6,0-34-0.1c-3.3,0-6.3,0.6-9.1,2.3c-3.8,2.3-3.9,5.7-0.3,8
	c3.4,2.3,6.8,4.7,11,5.5c21.4,3.9,42.6,1.6,63.9-0.7c4.6-0.5,9.2-1.5,13.7-2.4c5.1-1,9.3,2.1,14,2.9c11.2,1.8,22.7,2.2,33.8,5.9
	C698.2,200.1,692.6,196.7,686.2,194.3z M636.6,294c1-0.1,2.5,0.6,3-1c1.1-3.6,1.4-3.9,4.7-2.3c1.2,0.6,2.3,1.4,3.7,1.3
	c2.5-0.2,4.9,0.8,6.8-2.9c1.8-3.5,7.1-2.3,11.4-4c-3.9-2.8-6.8-6.5-10.9-7.4c-8.6-1.9-17.3-3.1-26.1-3.2c-11.3-0.2-22-2.4-32.1-7.3
	c-5-2.4-10.7-3.4-14.8-7.6c-3.4-3.5-8-5.1-12.5-6.5c-1.4-0.4-2.8-0.8-3.5,0.6c-0.9,1.8,0.9,2.2,1.9,2.8c2.6,1.3,4.4,3.5,6.2,5.6
	c5.6,6.4,11.1,13,18,17.8c9.9,6.9,22.5,7.6,32.9,13.6c0.7,0.4,1.7,0.7,2.3,0c0.8-1-1.6-1.2-0.8-2.4
	C630.4,290.7,632.9,294.2,636.6,294z M386.5,150.6c4-1.4,7.8-1,11.1,2.1c3.2,2.9,6.3,6.1,9.9,8.2c10.2,5.9,21.1,10.3,32.3,13.9
	c3.4,1.1,6.9,2.4,10.7,2.1c1.5-0.1,3.3-0.1,2.5-2.5c-2.7-7.7-5.9-15.2-14.1-18.3c-12.9-4.7-25.2-11-38.6-14.2
	c-13.9-3.4-20.2-0.7-26,12.6C377.9,151.6,382.5,152,386.5,150.6z M452.8,235.9c-7.7-1-15.3-1.2-22.5,1.7c-3.4,1.4-6.7,1.6-10.2,1.8
	c-9.8,0.6-19.1-1.8-28.1-5.3c-3.4-1.3-7-2.1-10.7-1.7c-1.1,0.1-3.2,0.7-2.5,1.4c2.7,2.4,0.3,5.8,2,8c1.4,1.8,1.6,2.7-0.6,3.7
	c-0.9,0.4-1.8,1.1-1.2,2.3c0.6,1,1.6,0.8,2.6,0.8c1.8,0.1,4.9-0.4,5.1,1.4c0.4,4.1,2.7,2.5,4.8,2.6c2.3,0.1,6-4.3,7,1.7
	c0,0.3,1.5,0.6,2.3,0.4c6.3-1.4,12.6-0.5,18.9-0.6c8-0.2,15.1-2.1,20.5-8.3c0.9-1.1,2.1-1.4,3.3-1.8c6-2.1,12.6-2.5,19-7.1
	C458.4,236.4,455.6,236.3,452.8,235.9z M5.1,428.8c0,1.7-0.2,3.2-1.6,4.5c-3.1,3-3.9,6.8-3.4,11c0.1,1.1-0.3,2.5,1.1,3
	c1.3,0.5,2.1-0.7,2.9-1.4c8.8-7.6,17.4-15.4,25.7-23.6c7-6.9,14-13.8,21.4-20.2C65.1,390,78,376.9,91.6,364.5c1-0.9,3.1-2,1.8-3.5
	c-1-1.3-3.2-0.8-4.7-0.1c-0.9,0.4-1.5,1.3-2.3,1.9c-4.1,3.4-8.3,6.9-12.4,10.3c-1.5,1.2-3.3,2.3-4.6,0.1c-0.7-1.2-0.5-2.9-2.4-1.6
	c-1.2,0.9-0.9,2.4-0.3,3.7c0.3,0.6,2.7,0.5,0.5,1.9c-2,1.2-3.5,2.8-4.2,5.3c-0.5,1.8-2.7,2.4-4.1,1.5c-1.4-0.9,0.1-2.3,0.7-3.4
	c0.7-1.2,2.5-1.7,2.1-3.6c-5.9,2.7-8.1,6-7.8,11.7c0,0.6-0.4,1.2-0.8,1.7c-2.1,2.7-3.8,5.8-7,7.6c-9.1,5.2-15.3,13.7-23.3,20.2
	c-3.8,3.1-8,5.7-11.4,9.3c-1.1,1.1-2.1,3.5-3.7,2.7c-2.5-1.2,0.4-3,0.4-4.9C5.2,425.3,5.2,427.1,5.1,428.8z M240.4,297.1
	c13.8-2.3,26.7-7.5,39.9-11.5c4.4-1.3,9.7-3.4,10.3-9.5c0.2-2.1,0.6-3.9-3-4.1c-3.3-0.2-5.7,1-8.2,2.4c-10.3,5.6-22.1,7.5-32.1,13.8
	c-5.7,3.5-11.8,6.2-19.3,7.9C233,300.5,236.6,297.8,240.4,297.1z M54.5,197.5c-17,11.1-34.1,22.1-51.2,33.1
	c-1.4,0.9-4.2,1.4-2.8,3.7c1.4,2.2,3.1-0.2,4.5-1.1c9.2-5.6,18.5-11,27.4-16.9c9.5-6.3,20.1-10.6,29.7-16.9
	c9.7-6.4,18.2-14.3,27.5-21.3c4.9-3.7,10-7.5,12.9-13.3C86.9,176.5,70.7,187,54.5,197.5z M434.7,0.6c-1.1-0.1-1.9,0.2-2.4,1.3
	c-5.2,11.3-13.8,20.1-22.2,28.8c-8.8,9.1-13.8,19.9-18.2,31.4c-0.3,0.8-0.7,1.6,0.1,2.2c0.8,0.6,1.6,0,2.2-0.6
	c2.9-2.9,6.1-5.6,8.7-8.9c12.5-16,21.6-34,31.9-51.3c0.3-0.6,0.6-1.2,0.8-1.5C435.9,1,435.4,0.6,434.7,0.6z M192.5,306.3
	c-10.4,5.6-22.3,6-33.4,8.8c-8.5,2.2-16.6,5.2-24.8,8.1c-1.5,0.5-2.7,1.9-3.9,3c-4.9,4.8-9.1,10.3-16,12.5c-1.7,0.6-2.6,2.4-1.8,4.1
	c0.8,1.8,2.4,0.5,3.4-0.1c6.8-4.1,13-9,20.3-12.7c11.4-5.7,23.5-8.9,35.3-12.9c8-2.7,15.9-5.3,23.8-8.3c0.8-0.3,1.4-0.8,1.7-1.7
	C196,304.8,194.2,305.4,192.5,306.3z M862.9,296.6c3.5-4.7,8.2-8,12.5-11.9c5.3-4.7,10.8-3.1,13.1,3.6c3.1,8.9,0.9,17.3-0.7,25.9
	c-1.3,6.9-4.1,14-0.6,21.3c0.2-8.9,3.1-17.1,5.6-25.5c2.5-8.5,2.2-17-0.1-25.5c-1.5-5.6-9.8-9.1-14.6-6
	c-7.5,4.9-13.3,11.7-19.1,19.3C861.3,298.2,862.4,297.4,862.9,296.6z M371.2,69.3c-1.6,1.2-3,2.7-4.3,4.1c-4.1,4.5-7.4,10.5-12.8,13
	c-5.4,2.4-7.3,6.3-8.9,11c-0.8,2.2-3.2,5.2-1,6.8c2.2,1.6,2.7-2.6,4.6-3.5c0.1-0.1,0.3-0.2,0.4-0.3c11.8-5.8,18-16.5,23.6-27.6
	c0.4-0.7,0.6-1.5,0.8-2C373.3,68.9,372.5,68.3,371.2,69.3z M825.9,352.9c-0.3,0.4-0.6,0.9-0.6,1.3c-0.2,7.7-4,13.5-9.7,18.3
	c-3.3,2.8-6.2,6.8-3.7,10.8c2.8,4.6,7.4,1.6,11.2,0.3c5.9-2,11.3-5.8,17.6-6.7c6.2-0.8,11.9-3,17.1-6.3c5.9-3.7,8.5-9,6.9-14.1
	c-2.5,7.3-7.7,12-14.5,14c-10.6,3.1-21.3,6-31.3,10.8c-1.2,0.6-2.6,1.4-3.6,0c-1-1.3,0-2.4,0.8-3.5c3.1-4.3,6.3-8.5,9.1-13
	c2.3-3.8,3.2-8,2.1-12.7C826.4,352.6,826,352.7,825.9,352.9z M262,326.4c-6.8,2.6-13.1,5.4-19.7,7.3c-10.5,3-11.9,12.8-16.3,20.3
	C232,352.9,260.7,330.6,262,326.4z M427.8,357.9c-1.2-11.2-0.5-22,5.8-31.9c-6.5,4-9.5,10.1-10.5,17.3c-2.6,18.7,4.9,33,19.5,44.1
	C440,376.2,429.1,369.5,427.8,357.9z M489.2,216.7c-1.5-8-6.3-14.5-11.4-20.7c-2-2.3-4.5-7.3-6.3-5.7c-2.4,2.1,1.7,5.4,3.6,8
	c7.1,9.7,12.9,19.7,8.6,32.7c-1,2.9-2.7,6.2-0.6,10.2C489.6,233.8,490.9,225.5,489.2,216.7z M1062.6,116.4
	c-13.1-19-26.3-38-39.4-56.9c-0.5,0.3-0.9,0.7-1.4,1c9.1,21.9,26.5,37.9,39.1,57.3C1061.5,117.3,1062,116.9,1062.6,116.4z
	 M830.6,58.1c-5.8-2.2-10.9-6.3-17.9-3.9c-3.7,1.3-3.2,2.4-1.1,4.7c4.3,4.6,17.5,6,25.1,2.4C834.4,60,832.6,58.8,830.6,58.1z
	 M429,177.9c-6.3-3.2-13.7-5.9-21.1-0.4c18.7-2.7,28.5,11.3,41.1,20.6C445.6,188.2,437.6,182.3,429,177.9z M831.3,280.2
	c-11,8-21.9,16.4-37.6,13.8C802.5,302.5,827.5,293.2,831.3,280.2z M168.3,358.3c0.1-1.4-1-1.9-1.9-1.1c-2.7,2.5-6.9,4.4-6.1,8.9
	c1.1,6.7,4.5,12.5,8.8,17.9C166.8,375.4,167.5,366.8,168.3,358.3z M1141.7,206.5c1.3,1.5,3.6,2.4,5.8,2.4c1.1,0,2.5,0.5,3.1-0.8
	c0.4-1.1-0.6-1.8-1.3-2.4c-3.3-3-6.4-6.3-10.1-8.7c-4.2-2.7-6.5-8.1-12.7-8.2C1132.2,194.2,1136.6,200.6,1141.7,206.5z M851.9,72.5
	c0.9-0.7,1.9-2.2,0.9-2.9c-2.2-1.7-3.8-5.1-7.5-3.3c-3.5,1.7-7.1,3.4-10.3,5.8C839.7,75.6,847.7,75.7,851.9,72.5z M89.3,417.6
	c-0.3,0.9-0.3,2.2,0.8,2.6c1.2,0.5,1.8-0.7,2.1-1.5c1.9-4.4,4.6-8.3,7.4-12.1c2.4-3.3,2.8-7.2,0.1-11.4
	C95,402.3,91.9,409.9,89.3,417.6z"/>
<g>
</g>
<g>
</g>
<g>
</g>
<g>
</g>
<g>
</g>
<g>
</g>
<g>
</g>
<g>
</g>
<g>
</g>
<g>
</g>
<g>
</g>
<g>
</g>
<g>
</g>
<g>
</g>
<g>
</g>
</svg>
