<?xml version="1.0" encoding="utf-8"?>
<!-- Generator: Adobe Illustrator 18.0.0, SVG Export Plug-In . SVG Version: 6.00 Build 0)  -->
<!DOCTYPE svg PUBLIC "-//W3C//DTD SVG 1.1//EN" "http://www.w3.org/Graphics/SVG/1.1/DTD/svg11.dtd">
<svg version="1.1" id="Layer_1" xmlns="http://www.w3.org/2000/svg" xmlns:xlink="http://www.w3.org/1999/xlink" x="0px" y="0px"
	 viewBox="0 0 1276.7 720.5" enable-background="new 0 0 1276.7 720.5" xml:space="preserve">
<path d="M716.7,720.5c-0.5-14.8-1-29.6,0.9-44.3c0.5-3.5,1.7-7,2.2-10.6c0.2-1.7,0.2-2.9-1.8-2.1c-3.1,1.2-3.1-0.3-1.9-2.2
	c8.8-12.7,10.7-28.3,17-42c8.5-18.5,16.3-37.3,24.2-56c7.8-18.5,13-37.6,16.4-57.5c6.1-35.4,11.9-70.9,20.9-105.7
	c3.2-12.5,6.7-24.9,10.1-37.4c1.4-4.9,4.9-8.9,6.2-14.1c0.6-2.4,4-1.7,6.1-0.5c2,1.2,3.9,2.6,5.7,4c12.9,10.6,31.8,9.1,44.1-1.2
	c8.3-6.9,17.6-12.5,25-20.5c7.8-8.5,11.9-18.4,12.4-29.6c0.7-14-0.2-27.8-2.6-41.7c-1-5.8-0.5-12-0.1-18c0.3-5.1,2-5.9,7.4-5.1
	c4.1,0.6,8.1-0.7,12.3-0.2c5.1,0.6,10.2,1.3,15.1,2.7c4,1.2,7.9,0.1,12,1.1c11.6,2.8,23,6.4,33.6,11.7c10,4.9,18.3,12.5,25.7,21.1
	c3.8,4.4,4.6,9.5,6,15.5c2.6-3.6,2.1-7.2,1.4-9.9c-1.3-4.9-2.6-10.4-7.8-13.1c-3.1-1.6-3.6-4.6-4.8-7.2c-2.9-6-5.2-12.7-11.3-16.3
	c-7.1-4.1-14.2-8.3-21.9-11.5c-12-4.9-24.4-5.2-37.1-6.1c-8.4-0.6-16.8,0.1-25.2-1.1c-2.2-0.3-2.7-1.6-2.7-3.5
	c0.1-2.6,0.3-5.2-0.1-8.1c-2.2,4.6-10.5,4.7-8.7,12.4c0.2,1-0.8,1.8-1.7,2.3c-1.1,0.5-1.2-0.6-1.7-1.2c-1.9-2.1-3.7-3.3-4.6,0.8
	c-0.3,1.5-1.8,1.2-2.9,1.5c-9.7,2.9-19.4,5.2-29.7,3.9c-3.8-0.5-7.7-0.4-11.5,0c-2.9,0.3-7.1-0.9-7.1,4.5c0,1.4-1.4,0.9-2.4,0.6
	c-1.7-0.6-3.4-1.1-5.2-1.7c2.3-4.1,7.1-7.8,11.6-8c5.5-0.2,10.9-2,16.4-1.1c4.6,0.7,8.2-2.6,12.6-2.2c-2.2-6.8,0.1-8.9,8.2-10
	c6.7-0.9,14.5-0.9,19.5-5.9c6.2-6.3,13.4-7,21.2-7c15,0,30-0.5,44.9,1.1c9.3,1,18.7,2,27.8,4.4c2,0.5,4.3,0.7,6.4,0.4
	c5.6-0.8,9.8,2.5,14.5,4.3c1.1,0.4,2.7,1.4,1.9,3c-0.8,1.7-2.4,0.5-3.6,0.2c-7.4-1.7-14.8-3.5-22.2-5.4c-2-0.5-3.9-0.6-6.6,0
	c4.9,3.8,10.5,4.1,15.5,5.7c23,7.3,45.1,16.6,65.6,29.4c5.4,3.3,10.5,6.8,15.6,10.6c2.3,1.7,3.5,4.4,7.8,3.9c4-0.5-0.2,3.4,1.1,5.4
	c1.4-1.8,2.8-2.4,5.1-1.1c11.1,6.3,20.4,14.9,29.3,23.9c2.5,2.5,3,6.2,7.7,7.3c3.6,0.8,6.6,18.9,4.9,22.9c-1.5,3.4-9.5,4.1-11.8,1
	c-1.4-2-3-4-3.9-6.3c-6.4-16.5-19.8-27.1-32-38.8c-9.6-9.1-20.1-17.2-30.8-24.8c-10.2-7.3-21.5-13.1-32.9-18.4
	c-6.5-3-13.3-4.7-20.4-6.2c0,2.4,1.8,2.6,3,3.1c13.5,5.8,25.8,13.6,37.9,21.7c2.3,1.5,4.2,3.7,6.1,5.8c2.4,2.5,4.9,4.5,8.6,4
	c1.7-0.2,3.4,0.6,3.4,2.2c0.1,8.2,7.7,10.1,12.2,14.4c4.8,4.6,10.6,8.1,17.7,8.5c1.5,0.1,2.4,1.8,2,2.4c-3.3,6,3.5,7.4,5.3,10.8
	c1.2,2.3,2.6,4.1,2,6.7c-0.5,2-0.5,3.5,0.9,5c6.5,7,13.6,13.5,19.1,21.1c5.2,7.1,9.7,14.4,8.1,24.9c-2.4,15.4-8.5,29.1-14.8,43
	c-2.1,4.8-1.6,7.9,3.4,11.7c11.2,8.3,22.8,16,35.1,22.5c3.3,1.7,5.9,4.3,9,6.2c11.2,7,21.5,15.4,32.4,22.9
	c6.4,4.4,11.9,10.2,18,15.2c10.5,8.6,20.8,17.4,31.2,26.1c1.7,1.5,4.4,3,2,5.5c-2.3,2.5-4.4,5.9-9.2,3.4c-5.3-2.8-8.9-7.5-13.6-10.8
	c-5.9-4.2-11-9.9-17.4-13.2c-7.3-3.8-12-10.3-18.3-14.9c-6.7-4.9-13.5-9.5-20.3-14.2c-9.4-6.5-19-12.7-28.2-19.5
	c-8.1-6-16.1-12.2-23.6-18.9c-2.5-2.3-5-1.5-7.3,0c-3.1,2.1-6.5,3.9-9.1,6.8c-1.5,1.7-3.7,3.6-6,2.7c-2-0.8-2.2-3.6-2.5-5.7
	c-0.3-3-0.2-6-0.2-9c0.2-13.5-2.5-26.5-6.1-39.6c-3.1-11.2-9.3-20.7-14.1-31c-1.1-2.5-3.4-4.4-5.4-6.9c-1.2,1.8-1.1,3.6-0.4,4.9
	c6.1,13.7,6,28.5,7.9,43c1.6,11.9-0.8,23.5-0.3,35.3c0,1,0,2-0.3,3c-0.4,1.2-0.9,2.7-2.5,2.6c-1.9-0.1-1.7-1.8-1.7-3.1
	c-0.2-6.8,0-13.6-1-20.4c-1.5-10.1-3.5-20.1-5.3-30.1c-2.4-12.8-7.5-24.2-12.1-36.1c-1.2,0.2-1,1.4-1,2.2c0.2,17-1.1,33.9-3.4,50.6
	c-2.4,18.1-4.2,36.5-12.7,53.2c-1.1,2.1-0.8,4.6-2.7,6.4c-1.3,1.3-1.1,5.3-4.1,3.4c-2.5-1.6-4.5-4.5-2.8-8.1
	c0.9-1.9,2.5-3.3,3.2-5.5c1.7-5.2,4-10.1,6.6-15c3.2-6,5.4-13.1,5.8-19.8c0.6-11.6,1.9-23.4-0.8-34.8c-2.5-10.6-1.8-22.2-9.1-31.7
	c1.9,17.3,3.7,34.5,1.8,51.7c-1.8,17.1-9.4,33-11.5,51.1c-6.7-7.9-14.4-14.2-17.1-24.4c-2.9-10.9-7.7-21.1-14.9-31.2
	c-0.5,6.7,2.5,11.8,2.9,17.2c0.1,1.6,0.6,3.3,0.6,4.9c0,1.7,0.9,4.4-1,5c-2.3,0.7-3.5-2-4.6-3.7c-1.1-1.8-2-3.8-2.8-5.8
	c-4-10.2-9.5-19.7-14.4-29.5c-0.6-1.2-1.6-3.1-2.5-2.8c-5.3,2-5.3-2.6-6.6-5.1c-6.2-11.4-13.3-22.1-23.8-30.6
	c-0.6,1.8-0.2,3.2,0.8,4.6c8,10.4,13.6,22.3,17.4,34.5c5,16,9,32.5,10.5,49.4c0.3,3.1,1.1,6.2,1.1,9.4c0,4.5-1.9,4.3-4.8,2.5
	c-2-1.2-3.7-2.8-5.7-4.1c-1.3-0.9-2.8-2.4-4.5-1.1c-1.7,1.3-0.5,3.4,0,4.6c2.9,6.6,4,13.6,5.5,20.6c1.3,5.8,2.9,11.7,3,17.5
	c0.1,7.6,1.4,15.1,1.7,22.7c0.3,7,0.2,13.9,0.5,20.9c0.2,4.6-0.6,8.4-6.2,9.7c-2.6,0.6-4.9,2.8-7.3,4.2c-3.9,2.2-7.6,0.3-7-4
	c1.6-10.2,2.7-20.4,3.2-30.6c0.5-9.9,2.6-19.7,0.9-29.8c-1-6,0.8-12.1-0.1-18.3c-1.4-9.5-3.7-18.8-5.3-28.1
	c-2.4-14.4-10.1-26.4-16.1-39.1c-1.2-2.6-3.2-4.8-5.2-7.1c0.2,6.1,3.3,11.1,5.5,16.4c2.3,5.7,3.8,11.5,4.7,17.6
	c1.1,7.1,3.3,14.1,4.1,21.3c0.2,1.8,0.6,3.6,0.6,5.4c0.1,12.1,0.6,24.2-0.1,36.3c-0.7,12.7-2.2,25.4-4.2,38
	c-3.1,19.6-5.9,39.2-9,58.7c-2.4,14.9-3,29.8-2.5,44.7c0.5,16.1,4,31.9,11.3,46.4c2.5,4.9,4.7,11,8.7,14.2c6.3,5,9.3,12.8,16,17
	c4.6,2.9,7.5,8.1,12.8,10.3c1.4,0.6,2.6,1.3,4.2,1.6c0.6-1.7-0.8-2.4-1.6-3.2c-10.1-10.6-18.7-22.3-25.1-35.4
	c-2.1-4.4-4-9.2-3.9-14.3c0.1-4.2-3-7.1-3.4-11.3c-0.5-6.9-2.1-13.8-1.7-20.8c0.3-4.2-2.4-7.8-2.2-12.1c0.9-15.4,2.1-30.8,4.4-46
	c0.4-3,1.5-5.9,1.7-9c0.5-7.7,0.6-7.7,7.9-9.1c2.1-0.4,4.2-1,6.3-1.5c5.2-1.4,7.2,0.7,7,6.1c-0.4,18.8-0.6,37.6,3.7,55.9
	c3.1,13.1,7.8,25.9,16.6,36.3c5.1,6.1,10.8,12.1,18.3,15.8c3.9,1.9,7.6,4.1,11.4,6.1c4.5,2.5,7.3,1.4,9.2-3.2
	c1.9-4.8,3.9-9.5,6-14.2c2-4.5,3.6-8.8,1.3-13.8c-1.3-2.8,0.1-4.5,3.3-4.3c2.3,0.2,4-0.8,4.8-2.8c6.1-14.3,13.7-28,18.4-42.9
	c1.1-3.3,2.5-4.2,6.5-3.7c6,0.8,12.1,1.5,18.2,2.1c9.1,0.9,17.8,3.4,26.5,5.8c10.2,2.7,20.3,5.8,29.9,10.6c2.5,1.3,4,3.4,6.2,4.8
	c6.5,4.3,13.5,7.8,20.6,10.9c11.3,4.9,22.8,10,32.5,17.1c17.3,12.6,33.3,27.2,46,44.9c12.7,17.6,24.5,35.9,39.2,52
	c0.3,0.3,0.4,0.9,0.6,1.4c-29.7,0-59.3,0-89,0c-2.3-7.1-6-13.8-9.8-20.1c-3.7-6.2-7.6-12.4-11-18.8c-0.4-0.7-0.7-1.6-1.3-1.9
	c-5.9-2.8-9.2-9.1-8-15.9c-2,1.6-3.8,1.8-5.4,0.1c-1.6-1.7-0.7-3.1,0-4.9c0.5-1.2,1.9-5.1-2.7-3c-1.4,0.7-2.9,0.1-4-1.6
	c-2.6-4.4-6.7-7.5-9.4-12.1c-2.9-4.8-8.7-7.9-13.2-11.7c-0.8-0.7-2.6-0.9-1.9-2.4c0.5-1.2,1.9-1.8,3.4-1.5c1.3,0.3,3.2,1.7,3.6-0.4
	c0.4-1.9-1.5-3-3.3-3.7c-3.5-1.5-7.1-1.6-10.7-1.8c-8.2-0.5-7.6-1-10-8.1c-1.7-5,1.1-4.1,3.5-4.9c2.2-0.7,4.2-0.3,6.4,0.2
	c1.7,0.4,3.6,0.8,5.1-0.8c5.9-6.2,6.9-6.3,14.6-2c1.1,0.6,2.3,2.8,3.6,0.6c1.1-1.8-0.8-2.9-2-3.4c-8-3.6-15.5-8.2-23.7-11.5
	c-9.7-4-19.6-7.1-29.5-10.3c-6.7-2.2-13.4-3.9-20.5-4.7c-5.7-0.7-8.6,2-10.4,6.8c-4.9,13.2-10.1,26.3-16.1,39
	c-1.2,2.4-0.8,4.1,1.4,5.5c4,2.6,7.9,5.5,12.4,7.3c1.4,0.6,3.3,1,4.1,3.6c-3.3-1.1-6.1-1.1-8.9-1c-1.1,0-2.6-0.5-3.2,0.8
	c-0.6,1.4,0.5,2.5,1.4,3.5c1.7,1.8,3.5,3.5,5.2,5.4c0.6,0.7,1.6,1.5,0.7,2.6c-0.7,0.8-1.7,0.4-2.2-0.1c-3.8-3.7-9.1-5.4-12.3-9.7
	c-0.8-1.1-1.4-2.3-3-2.2c-1.5,0.1-1.7,1.5-2,2.5c-1.5,4.2-3,8.4-4.3,12.7c-1,3.7,1.9,9,5.2,8.7c8.5-0.9,16.3,2.6,24.6,3.3
	c3.8,0.3,7,1.7,7.9,6.2c1.3,7.1,1.5,14.3,0.8,21.4c-0.5,5.5-2.2,10.9-8.6,14.5c0.9-7.3-1.3-12.9-4.1-18.5
	c-5.4-10.8-16.7-14.8-24.9-22.3c-1.6-1.5-3.6-0.9-4.4,1.9c-1.5,5.5-2,11.1-2.8,16.6c-0.2,1.5,0.1,3,1.5,4c4.5,3.1,9.1,6.1,13.3,9.4
	c7.7,6.1,14.5,13,16.8,23.1c-2.3,0-4.7,0-7,0c-1.7-2.6-3.7-4.8-6.2-6.9c-5.2-4.3-11.3-6.6-17.3-9.4c-3.8-1.8-3.9-0.3-4.2,2.5
	c-0.4,4.6-0.9,9.2-1.3,13.8c-64.7,0-129.3,0-194,0c-0.1-3.5-0.5-7-0.2-10.4c0.5-6,1.5-11.9-1.2-17.8c1.4,9.8-3.5,18.6-3.6,28.2
	c-20.3,0-40.7,0-61,0c-0.7-4.8,2.4-8.5,3.5-12.7c2.4-8.7,7.5-16.7,6.1-26.3c-0.6-4.3-1.3-8.5-1-12.9c0.1-1.4,0.6-3.6-1.2-3.8
	c-1.8-0.3-1.9,1.9-2.3,3.3c-3.7,12.8-6.3,25.7-5.8,39.1c0.1,2.4,0,4.7,0,8.5c-13.6-20.4-9.6-42.6-12.7-63.5
	c-10.1,21.8-16.6,44.6-19.6,68.4C719.3,720.5,718,720.5,716.7,720.5z M919,445.1c0,2.1,0,4.2,0,6.4c0,14.1,0.2,28.2-1.9,42.3
	c-1.4,9.5-2.4,19.1-4.6,28.4c-2.5,10.4-6.5,20.5-8.3,31c-1.9,10.8-6,20.9-7.8,31.7c-2.6,15.7-7.5,31.1-6.7,47.2
	c0.3,6.6-0.1,13.2,1.1,19.9c1.1,6,4.2,11.2,5.8,16.8c1.9,6.8,6.1,12.1,9,18.2c1.2,2.6,3.9,4.4,7.2,6.4
	c-7.2-12.9-11.9-25.7-12.3-39.7c-0.4-17.7,0.6-35.2,3.9-52.6c2.9-15.3,5.9-30.5,8.9-45.8c2.1-10.5,4.1-21,5.7-31.7
	c1.7-11.2,3-22.3,3.4-33.5c0.3-8.4,0.8-16.8,0-25.3C921.7,458.1,921.5,451.5,919,445.1z M230.7,720.5c0-8.8-0.8-17.5-0.6-26.3
	c0.2-6.2-1.2-12.5-1.8-18.8c-0.2-1.5-1.3-2-2.5-2.8c-15.5-9.8-24.1-23.1-24.8-42.1c-0.3-8.1-1.5-16.4-1.7-24.6
	c-0.2-6.9,2.9-12.4,7.8-16.5c3.7-3.1,5.2-6.2,3.2-10.2c-1.5-3.1,0.3-8.5-5.6-8.9c-1-0.1-0.9-1.2-0.6-2c2.7-6-1.5-10.8-3.3-15.9
	c-0.7-2-3.4-1.8-5.4-1.7c-16.7,0.9-33.3,2.7-49.8,6c-2.8,0.6-3.3,2.8-4.3,5.1c-2.3-3-4.7-3.4-8.1-2.4c-21.3,6.3-42.2,13.5-62.7,22.3
	c-11.1,4.8-22.3,9.1-32.8,15.1c-10.5,6-20.4,12.8-29.6,20.7c-0.9,0.8-1.8,1.5-2.8,2.1c-1.3,0.9-3,2.6-4.3,1.1
	c-1.4-1.7-1.4-4.4,0.6-5.9c7.6-5.6,14.3-12.5,22.1-17.5c7.7-5,16.6-8.8,25.1-12.9c13.1-6.3,27.2-10.3,40.3-16.6
	c11.6-5.6,24.3-7.9,36.4-12.1c3.4-1.2,7.3,0,10.6-2.3c1.7-1.2,3.1-2.3,3.2-4.6c0.9-18.5,11.1-31.5,24.9-42.6
	c15-12,32.5-16.2,51.1-18.2c15.5-1.7,30.9-0.1,46.3,0.3c5.8,0.2,11.5,1.3,17.3,2.1c15.5,2,29.9-0.4,43.2-9c3.2-2,5.9-4.2,7.9-7.3
	c2.1-3.2,3-6,0.1-9.9c-2.6-3.5-3.4-8.2-5.2-12.3c-3.6-8.2-7.9-16.1-11-24.5c-2.2-6-3.9-12.5-4.4-18.8c-1.3-14.5,0.1-28.9,3.9-43
	c0.3-1,0.6-1.9,3-2.4c-6.7,36.7,5.4,68.6,24.4,98.8c-3.6-8.4-7-16.8-10.8-25.1c-5.4-11.8-7.9-24.1-8.8-37c-1-12.7-0.8-25.2,1.3-37.7
	c2-12.4,6.6-23.9,12.5-35c6.3-11.9,14.8-22.3,23.7-32.4c0.9-1,3-2,1.4-3.6c-1.5-1.4-2.6,0.6-3.7,1.4c-1.4,1-2.2,3-4.7,3
	c0.7-3.7,4.3-4.8,5.8-7.6c0.5-0.9,1.3-1.7,0.4-2.6c-0.7-0.7-1.6,0-2.2,0.5c-8.7,8.2-17.8,16-25,25.6c-1.7,2.4-3,5.1-6.9,7.3
	c2-5.6,4.4-9.7,7.5-12.9c8.2-8.5,14.5-18.6,23.5-26.4c1.2-1,2.5-2.7,0.7-4.3c-1.8-1.6-2.7,0.6-3.6,1.4c-3.7,3.1-6.3,7.6-12.1,9.8
	c4.1-11.7,13.6-20.2,12.9-32.9c-0.6-11.8-3.5-23.1-5-34.9c-5.9,7.1-14.2,11.4-18.5,19.5c-0.7,1.3-1.6,2.2-3.1,2.2
	c-7.6,0.2-13.6,4.9-20.5,7c-12.2,3.7-24.5,6.7-37.5,6c-0.1-2.3,1.4-2.2,2.6-2.5c17.7-5.9,33.8-14.1,46.8-28.2
	c15.2-16.4,27.5-34.3,33.5-56c0.9-3.2,1.5-6.6,1.4-9.8c-0.3-11.4,2.6-22.4,4.2-33.5c0.7-4.9,5.3-6.9,8.7-9.7
	c4.4-3.6,9.8-5.5,14.1-9.5c8-7.5,16.3-14.4,18.5-26.1c0.6-3.1,2.5-8.1,6.1-7c2.6,0.7,1.6,6,0.6,9.1c-2,6.1-1.9,12.4-2.4,18.6
	c-1.1,13.9-2.3,27.7-4.5,41.5c-4,25-9.4,49.7-14.2,74.5c-3.6,18.4-3.4,37.1-0.1,55.5c3.2,18,5.3,36.3,9.2,54.2
	c4.6,20.7,6.2,41.9,10.6,62.6c4.6,21.6,10,43.1,21,62.5c6.8,12,14.9,23.3,23.6,34.2c13.6,17,29.2,31.8,44.2,47.3
	c8.3,8.5,19.4,13.4,31,17.1c20.8,6.6,42.2,5.2,63.3,4.5c21.4-0.8,41.4-7.5,59.5-19.9c9.7-6.6,20.4-11.7,30.3-18
	c16.5-10.4,32.8-21.1,48-33.5c10.3-8.3,21-16.1,30.1-25.7c5.9-6.2,10.9-13.1,15.5-20.4c6.7-10.7,10.9-22.6,16.4-33.8
	c3.4-7.1,5-15.1,7-22.7c2.3-8.6,6.7-16.2,10.4-24.1c0.5-1.1,1.2-2.4,2.5-1.8c1.5,0.7,1.1,2.3,0.6,3.5c-1.4,3.4-3.2,6.6-4.4,10
	c-5.9,16.1-10.1,32.7-16.4,48.7c-3.7,9.5-8.2,18.4-13.9,26.7c-9.2,13.5-20.6,25.1-33.2,35.4c-10.1,8.3-20.7,16.1-31.4,23.6
	c-14,9.6-28.2,19.1-43.3,27c-11.4,6-21.6,14.4-33.5,19.6c-15.3,6.7-31.1,11.6-48,11.3c-14.8-0.2-29.6,0-44.4-1.2
	c-16.7-1.3-32-6.6-44.8-18.5c-10.2-9.4-21.4-17.6-31.7-27.3c2.1,6.2,3.8,12.5,6.2,18.6c6.9,17.6,13.7,35.2,21.2,52.5
	c7.1,16.3,15.3,32,22.4,48.2c6.1,13.9,14,26.8,21.7,39.7c8.2,13.8,15.6,28,25,41c1.8,2.5,3,5.4,3.6,8.5c-1.7,0-3.3,0-5,0
	c-3.9-6.8-8.6-13.1-14.2-18.7c1.9,6.3,5.4,11.9,5.2,18.7c-44,0-88,0-132,0c-0.4-2.2,0-4.2,0.2-6.4c0.4-4.5,2.7-8.5,3.6-12.9
	c1.9-9.8,2.7-19.8,6.5-29.4c9.3-24,9.1-48.7,3.8-73.4c-2.7-12.6-6.6-24.9-10.8-37.1c-4.2-12-9.5-23.6-13.4-35.7
	c-3.9-12.2-10.1-23.6-13.8-35.9c-3.2-10.8-7-21.4-9.5-32.4c-3.3-14.1-7.6-28.1-6.7-42.9c0.6-9.2-2.4-18.2-0.7-27.3
	c-0.8,9.1-0.7,18.1-1.5,27.1c-0.9,10.5,1.3,20.8,2.8,31.1c1.9,13,5,25.6,8.5,38.3c2.4,8.6,5.4,17,8.1,25.5
	c2.1,6.4,4.1,12.9,6.7,19.2c6.7,16.6,11.9,33.6,17.8,50.5c2.5,7.2,3.7,14.7,5.7,22c2.3,8.2,4.1,16.4,4.2,24.9
	c0.1,5.6,0.1,11.2,0.7,16.9c0.6,5.6-0.2,11.4-2.6,16.8c-0.5-9.3-2.4-18.3-2.6-27.5c-0.3-9.7-2.9-18.9-4.6-28.2
	c-1.9-10.2-5.5-20.1-8.1-30.1c-4-15.7-10.6-30.3-16.2-45.4c-4.4-11.6-10.7-22.5-13.6-34.7c-0.8-3.3-2.1-6.7-4.8-9.4
	c1.4,6.1,3.1,12.1,5.2,18c4.8,13.1,10.2,25.9,14.5,39.1c4.8,14.7,10.1,29.2,13.8,44.3c2.6,10.4,4.8,20.8,6.7,31.4
	c1.5,8.7,2,17.4,2.9,26.2c1.8,17.7,0.9,35.4-0.6,53.1c-0.7,8.2-2.6,16.3-3.9,24.5C352.7,720.5,291.7,720.5,230.7,720.5z
	 M218.5,562.6c-0.5-2.2,0-3.4,1.3-4.7c7-6.7,16.2-9.4,24.5-13.5c7-3.5,14.6-5.8,22.1-8.5c5.5-2,11.1-4.3,16.8-5.5
	c3-0.6,5.3-1.1,6.9-3.8c0.4-0.8,2-1.2,1.3-2.3c-0.4-0.7-1.8-1.4-2.5-1.3c-6.4,1.7-12.9,0.2-19.3,1.3c-5.5,0.9-11.8,2.3-16.3-1.7
	c-9.8-8.5-20.9-11.3-33.5-9.5c-15.3,2.1-29.8,6.2-44.1,12.4c-11.4,4.9-21.3,11.1-28.4,21.4c-0.8,1.1-2,2.1-1.2,3.5
	c0.7,1.4,2.3,1.1,3.6,0.9c8.9-1.1,17.8-1.8,26.7-2.5c7.4-0.6,15,0.6,22.3-1.4c1.5-0.4,3.5-0.1,3.8,1.5c0.6,4,3.6,6.7,5.5,9.9
	c3.3,5.8,4.9,12.3,7.9,18.2c0.9,1.7,1.5,3.2,4,1.8c14-8.2,28.9-14.6,43.6-21.3c9.1-4.2,19.2-6.1,27.8-11.5c2.3-1.4,7.1-1.3,6.1-4.4
	c-0.7-2.4-5.3-0.6-8.1-0.5c-0.3,0-0.6,0.2-0.9,0.3c-8,3.5-16.9,3-25.2,5.3c-6.7,1.9-13.7,2.8-20,5.5
	C235.1,555.8,226.2,557.5,218.5,562.6z M388.8,326.9c-1.3-10.3-3.3-19.2-5.6-27.9c-4.2-15.9-6.3-32.1-8.7-48.2
	c-0.8-5.2-1-10.7-0.5-15.8c0.8-9.1-2.5-17.5-2.3-26.4c0-2.3-1.6-4.7-2.8-6.8c-1.7-2.9-3.9-3.6-7-1.4c-7.8,5.7-10.7,14.1-8,23.7
	c3.1,11,3.8,22.5,5,33.8c1,9,3.4,17.5,5.7,26c3.1,11.7,10.7,21.6,15.4,32.8C381.3,320.5,384.1,323.6,388.8,326.9z M242.5,590.7
	c0.1,0.5,0.1,1,0.2,1.5c4.2-1.2,8.6,1.2,12.8-2c2.9-2.2,6.5-3.1,10-4.1c10.3-3,20.3-6.8,29.9-11.7c7.2-3.7,12.8-9.3,18.8-14.3
	c6-5.1,9.3-12.3,13.3-18.9c1.3-2.1,1.2-4.9,1.7-7.3c-1.3-0.6-1.9-0.2-2.3,0.3c-12.6,13.7-29.4,21.3-44.5,31.4
	c-4.4,2.9-9.3,5.4-13,8.9c-3.6,3.4-7.3,5.9-11.7,8C252.5,584.8,247.6,587.9,242.5,590.7z M380.1,527.1c-1.8,2.9-0.7,4.6,0,6.4
	c1.6,4.7,3.8,9.3,4.7,14.1c2.8,14.9,7.8,29.2,11.1,44c3.9,17.9,6.8,35.9,9.8,53.9c1.9,11,1.9,22.5,1.3,33.8
	c-0.1,1.5-0.6,2.9-0.8,4.4c-0.1,1.3-0.5,2.8,0.9,5.1C415.5,631.4,400,579.3,380.1,527.1z M352.2,197.9c-2.1-7.2,4.7-12.8,3.3-19.9
	c-0.3-1.5,0.4-3,2.1-3.5c1.8-0.5,3.2,0.1,4.3,1.7c2.2,3.2,5.4,5.4,7.9,8.2c4.4,4.8,12.7,7.5,9.7,14.3c-0.3-5.9,3.9-13.3,4.1-21.7
	c0.1-5.9-3.1-9-6.7-11.7c-3.5-2.6-8.1-2.4-12.2,0C353.1,171.8,348.3,183.8,352.2,197.9z M1055.4,200.2c0.6,2.6,3.4,2.6,5.8,2.6
	c2.3-0.1,3.1-1.8,4.1-3.2c1.3-1.7,2.9-2.4,3.9-0.4c2.3,4.5,7.4,5.9,10.9,8.4c6.1,4.3,14.2,6.7,22.1,7.2c15.3,0.9,30.5-0.7,45.6-2.9
	c3.3-0.5,5-1.2,3.1-4.9c-0.8-1.5-1.7-3.4-0.5-5.2c1.5-2.4-0.4-3.2-1.9-3.3c-3.6-0.4-6.4-2.4-9.5-4c-3.3-1.7-6.9-2.5-10.5-2.7
	c-2.4-0.2-3,2.8-4.5,4.3c-1.9,1.8-3.6,1-4.5-0.8c-4.7-9.5-13.4-14.1-22-19.2c-9.3-5.6-20.6-8.6-26.2-19.4c-1.1-2.2-3.8-3.7-5.7-5.4
	c-1.6-1.4-4.5-1.6-4.9-0.4c-2,4.7-5.9,3.4-9.1,3.4c-19.3,0-38.4-1.5-57.5-3.8c-3.6-0.4-7.3-0.6-10.9-1.1c-4.1-0.5-6.8,4.8-11.3,2.5
	c-0.5-0.3-0.7,0.9-0.6,1.5c0.2,2.4,1.5,3.4,3.9,3.7c3.5,0.4,7.2-1.1,10.2-0.2c6.7,2.1,13.3,4.4,20,6.5c14.7,4.6,28.9,10.5,43.1,16.7
	c9.1,4,18.1,8.1,25.6,15c-1.1-0.2-2.1-0.7-3.1-1.1c-5-2.1-10.1-4.3-15.1-6.4c-1.5-0.6-3.4-1.2-4.6,0.5c-1.2,1.8,1.1,2.4,1.8,3.5
	c1.5,2.6,4.6,2.5,7.3,4.6C1057,196.2,1054.8,197.6,1055.4,200.2z M150.3,332.1c-11.3,11.8-19,25.5-23.4,41.3
	c-3,10.8-1.8,20.8,3,30.3c9.2,18.4,26.1,25.1,45.2,26.9c10.5,1,20.8-1.3,30.7-4.9c3.5-1.2,7.8,0.2,10.4-2.7c2.3-2.6,5.1-4.1,8.1-5.6
	c13.9-7.1,25.6-17.3,37.6-27.1c7.9-6.5,15.6-13.3,23.1-20.2c3.5-3.2,6.2-6.5,8.1-10.7c3.8-8.3,6.7-16.9,11.3-24.8
	c2.1-3.6,5-7.1,6.1-12.8c-7.4,6.7-13.8,12.8-20,18.9C279,352,266.9,362.7,254.4,373c-10.9,9.1-22.6,17.2-34,25.7
	c-4.3,3.2-8.5,7-13.3,9.3c-8.3,3.9-16.8,7.4-26.1,9.3c-19.1,3.9-39.7-5.3-45-27.5c-3.6-15.3-0.1-29.6,7.4-43
	c3.2-5.7,6.8-11.2,12-16.5C152.4,329.9,151.4,331,150.3,332.1z M203.9,152.2c11.2-1.2,22.3-2.8,33.4-4.5c7.7-1.2,15.5-2.1,22.9-4.3
	c12.5-3.6,24.8-7.8,37.1-12.2c5-1.8,10.2-3.5,14.7-6.9c7.1-5.5,14.7-10.4,22-15.7c0.7-0.5,1.7-1.3,2-0.3c2.1,6.6,5.3,1.5,7.2,0.4
	c15-9,27.5-21.1,39.7-33.6c0.6-0.6,1.7-1.3,0.8-2.5c-2.9-0.8-4.3,3-7.3,2.3c0.5-1,0.8-2,1.5-2.7c10-10.5,17-23.1,25.2-34.8
	c7.4-10.5,12.2-22.6,17.4-34.4c0.3-0.8,0.2-1.6-0.4-2.3c-1.3-1.2-9.5-0.8-10.4,0.7c-2.9,5.1-5.5,10.4-8.5,15.6
	c-5.5,9.8-10.4,20-17.6,28.7c-8.4,10.2-17,20.3-26.1,29.9c-15.1,16-31.6,30.2-51,40.7c-24,13-50.4,19-76.5,25.8
	c-13.1,3.4-26.6,5.3-39.8,8.6c-3.8,0.9-8.2,0.5-12.4,4C187.3,155,195.6,153.1,203.9,152.2z M907.9,168c4.9-3,2.6-4.3-1.1-5.9
	c-4.9-2.1-9.7-4.5-14.3-7.1c-5.2-2.9-10.5-5.8-14.6-10.3c-4.4-4.9-9.3-9.3-13.8-14.1c-4.3-4.6-8-9.8-11.8-14.8
	c-5.6-7.4-9.1-16.4-13.5-24.7c-1.7-3.1-2.7-6.4-2.7-9.9c0-2.2-5.3-8.3-7.3-8.7c-1.4-0.2-2.1,0.5-2.5,1.8c-0.9,2.7-1.2,5.5-1.1,8.4
	c0,1.3,0.3,3.4-0.4,3.8c-3.9,2.3-2.1,5.3-1.7,8.3c1.3,8.9,5.7,16.6,9.2,24.6c6.2,14.5,14.1,28,25.3,39.4c2.3,2.3,5.4,3.2,7.6,5.5
	c6.6,6.7,14,11.9,24.2,10.7c1.6-0.2,3.6-0.5,4.9,0.2c6.7,3.4,13.7,1.1,20.6,1.7c2.3,0.2,3.8-0.6,3.8-3.3c0-2.8-1.7-3.2-3.9-3.2
	c-2.6,0-5.2,0-8.8,0C907.3,168.7,907.5,168.2,907.9,168z M1080.5,225.8c6.9,3.6,13.5,7.9,20.7,10.8c6.4,2.6,11,7.6,16.9,10.8
	c5.6,3,11.6,5.7,15.8,11.6c5.4,7.7,10.9,15.3,16.2,23c0.9,1.4,1.7,2,3.5,2c9-0.1,9.9,1.2,12,10.5c1.3,5.8,2.7,12,8.7,15.6
	c2.4,1.5,3.7,1.7,3.7-1.5c0-8.4,1.2-17-3.7-24.7c-2-3.2-0.9-5.7,2.3-7.4c1.5-0.8,3-1.5,4.4-2.4c1.6-1.1,3.9-2.1,3.5-4.4
	c-0.3-2.1-2.8-1.9-4.4-2.6c-9.7-3.9-19.6-7.2-25.2-17.3c-2.7-4.8-7.9-7.4-13.1-9.5c-2.9-1.2-5.6-2.9-8.5-4.1
	c-10-4.3-19.8-9.3-30.4-11.7c-3.3-0.8-7-2.2-10.4-1.3c-3.2,0.8-5.9-1.3-6.1-2.6c-0.6-3.5-2.7-2.3-4.2-2c-2.2,0.4-4.4,1.4-6.6,2.2
	C1076.1,223.5,1078.3,224.6,1080.5,225.8z M592.9,426.7c-9.9,1.2-19.6-2.8-29.5-1.5c-6.4,0.8-12.9-0.3-19.2,1.4
	c-2,0.5-4.4,0.4-6.4,0c-4.3-0.9-8.5-0.6-12.8-0.1c-5.5,0.6-11.3,1.2-16.6-1.7c-0.6-0.3-1.2-0.6-1.8-0.7c-7.3-1.5-8.2-2-13.1-8.9
	c-1.5-2.1-3.3-2.5-5.6-2.4c-2.8,0.1-5.5-1.2-5.5-3.8c0-2.9,3.2-2.7,5.5-2.8c1.6-0.1,3.5,0,4.9-0.7c8-4,16.9-5.6,24.9-9.7
	c4.8-2.4,10.4-3.5,15.5-2.4c10.7,2.5,21.7,1.9,32.5,3.5c3,0.4,5.1,2,7.6,3.3c7.5,3.8,14.8,8.7,22.9,10.8c7.9,2.1,15.6,5.1,24,5.2
	c1.8,0,4.1-0.3,4.4,2.1c0.3,2.2-2,2.3-3.4,2.9c-2.2,0.8-4.3,1.6-6.7,1.6c-3.4,0-6.6-0.1-9.7,2.6C601.4,428,596.9,426.6,592.9,426.7z
	 M593.3,419.8c-6.9-2.8-12.8-6.5-17.5-12c-0.3-0.4-0.8-0.6-1.3-0.8c-13.6-6.5-28.2-6.9-42.8-6c-4.6,0.3-9.5,0.7-13.9,4
	c4-0.1,8.2-0.8,10.3,4.1c-5.3,2.9-12.3,2.7-17.5,7.7c14.3,0.4,27.4,5.5,41.5,3.6C565.7,418.6,579.5,421.6,593.3,419.8z M89,176
	c18.3-10.5,37.8-18.3,57.7-25c16.5-5.6,33.5-8.9,50.5-12.5c18.9-4,37.9-7.9,56.3-13.9c5.5-1.8,11.6-2.5,16.4-6.7
	c-2.5-1.2-4.5-0.4-6.6,0.2c-6.2,1.7-12.4,3.4-18.6,5.2c-10.7,3.1-21.8,4.1-32.6,6.3c-6,1.2-12.1,1.4-18.1,2.7
	c-1.3,0.3-1.6-0.2-1-0.8c2.1-2.2,0-2.1-1.2-2.1c-3.6,0.2-7.3,0.6-10.9,0.9c-7.6,0.7-15.2,1.7-22.5,3.8c-10.5,2.9-21,5.8-31.2,9.9
	c-13.3,5.4-26.2,11.1-35.9,22.1c-2.7,3-5.1,6.3-5.5,11.4C87.2,176.7,88.2,176.5,89,176z M764.4,124.3c-0.7-0.6-1.4-1.4-2.3-1.8
	c-13.5-6-26.9-12-40.5-17.7c-2.6-1.1-5.8-1.2-8.8-1.2c-16.9,0-33.7,2.5-50.6,3.7c-10.3,0.7-20.6,1.9-27.7,11.1
	c-1.2,1.6-3.1,3.1-2.4,5.2c0.8,2.3,3.2,1.2,4.8,1.2c11.6,0.2,23.2-0.7,34.7-2.1c12.6-1.5,25.6-1.6,37.8-5.2
	c8.5-2.4,16.1-1.5,24.3,0.8c9.8,2.8,20.1,3.5,29.7,7.3C764,125.1,764.2,124.7,764.4,124.3z M176.7,87.4c11.8,0,23.3-3.5,35-3.5
	c15.4,0.1,29.6-4,43.5-9.9c6.9-2.9,13.4-6.8,20.5-8.9c12.9-3.8,25.5-8.3,37.6-14.1c3.5-1.7,6.6-4.3,10.8-4.7
	c1.1-0.1,2.7-1.5,2.2-2.9c-0.7-2.1-2.3-0.5-3.3-0.1c-6,2.3-12.1,4.1-18.4,5.5c-11.1,2.4-22.3,4.7-33.4,7.3
	c-13.3,3.1-26.7,6.1-40,9.6c-14.1,3.7-28,8-41.7,12.9c-5.3,1.9-10.9,2.7-15.9,5.5c-1,0.5-2.5,0.8-2.3,2.2c0.2,1.4,1.7,1.3,3.2,1.4
	C175.1,87.6,175.9,87.4,176.7,87.4z M851.1,26.6c5.2,4.5,10.2,8.7,13,15.2c1.7,4,7.1,6.1,11.1,4.9c0.9-0.3,1.3-0.4,2,0.3
	c3.4,3.2,4.8,0.8,4.7-2.3c-0.1-5.4-4.7-9.9-3.8-15.7c0-0.1-0.2-0.3-0.3-0.4c-3.3-3.8-5-8.5-6.1-13.2c-1.2-5.1-5.4-8.7-6.7-13.7
	c-0.5-1.8-2.3-1.7-3.8-1.7c-13.6,0-27.3,0-40.9,0c-1.1,0-2.5-0.3-3.1,0.9c-0.7,1.4,0.7,2.2,1.4,2.9c5.7,6.2,10.9,12.9,15.7,19.9
	c0.4,0.6,1.2,1.9,2.2,0.4c-0.8-4.6-4.7-8.5-2.6-15.2C840.1,15.5,845.2,21.5,851.1,26.6z M111.3,618.1c5.4-14.5,18.1-22,29.8-30
	c7.9-5.5,16.5-10.5,25.9-13.4c1-0.3,1.8-2.1,3-1c1.2,1,0.5,2.5-0.2,3.7c-2.7,4.8-4.3,10.1-5.1,15.5c-1.7,10.7,1.9,19.9,8.6,28.1
	c0.7,0.8,1.5,2.1,2.8,1.6c1.3-0.5,0.9-2,0.9-3.1c-0.1-2.6,0.5-5,1.3-7.3c1.2-3.4,1.3-7,0.3-10.3c-3.8-13.4,0-25.4,6.5-37
	c0.8-1.4,2.4-2.7,1-4.4c-1.1-1.5-2.9-0.5-4.2-0.2c-11,3.1-22,6.7-32.1,11.9c-9.1,4.7-18.2,9.3-25.9,16.8
	c-8.1,7.9-14.2,16.4-16.9,27.2c-1.4,5.5-1.6,11.4,1.3,16.9C108.5,627.9,109.5,623,111.3,618.1z M413.6,111.6
	c5.1-2.5,10.1-4.9,15.3-7.3c5.5-2.5,10.9-1.2,16.4,0.3c9.2,2.5,18.5,4.3,28,5.4c10.3,1.3,19.7,6.7,30.3,6.7c2.6,0,5.9,2.6,7.4,0.1
	c1.5-2.5-2.8-3.9-3.5-6.5c-2.9-9.6-11.5-11.8-19.5-14.1c-10.5-3.1-21.6-3.1-32.4-3.9c-6.7-0.5-13.7-1.3-20.3,0.6
	c-8.4,2.5-15.1,8-21.8,13.3c-1.8,1.4-2.6,3.6-3.3,5.7C411.7,113,412.5,112.1,413.6,111.6z M648,202.7c7.8,5,15.2,10.6,24.5,12.7
	c8.2,1.8,16.9,0.6,24.5,5.3c1,0.6,3.5,0.5,3.7-0.3c1-5.3,4.7-2.2,6.9-2.1c2.4,0.1,6.1,0.1,6.2-1.3c0.6-4.6,3.8-2.8,6-3.1
	c3.3-0.3,7.1,0.8,8-4.3c0.2-1.3,2-1.5,3.2-2c2-0.8,4.2-1,5.8-2.6c-1.1-2.8-3.3-3.3-5.7-2.5c-2.8,0.9-5.6,0.7-8.4,0.7
	c-12.6,0-25.3-0.1-37.9,0.1c-10,0.2-19.3-1.9-28.4-6c-5.8-2.6-12.1-4.6-20-5.1C640.6,196.6,643.9,200.1,648,202.7z M501.3,184.1
	c-9.3-0.5-18,2.1-26.6,5.1c-8.7,3-17.4,3.5-26.4,2.5c-6-0.7-12.1-2.2-18.2-0.4c-2.9,0.9-5.4,6.8-3.1,8.2c2.9,1.7,6.6,1.9,7.9,5.9
	c0.2,0.5,2.5,0.4,3.8,0.4c1.5-0.1,2.9-0.6,4.4-0.7c0.7-0.1,2.3-0.3,1.9,0.6c-1.9,4.6,1.9,3.4,3.4,3c8.4-1.9,17.1-2.1,25.4-4.5
	c4.5-1.2,8.7-2.6,13-4.4c6.9-3,12.7-8.2,20.4-10c4.2-1,9.3-1.5,13.1-6.4C513.5,184.6,507.4,184.4,501.3,184.1z M1232.2,218.3
	c-3.1-4.8-4.8-10.2-7.1-15.3c-1.4-3.1-3.6-5.8-6.5-8c-8.5-6.8-18.6-11.4-26.8-18.7c-2.5-2.2-4.7-4.9-8.1-6.4
	c-12.7-5.5-22.2-15.6-33.2-23.5c-1.2-0.9-2.7-1.8-3.2-3.1c-1.5-4.1-5.3-5.3-8.5-7.3c-1.3-0.9-3-1.2-4,0.3c-0.9,1.5,0.7,2.3,1.4,3.3
	c1.4,2.3,4.7,1.4,6.1,3.8c4.9,8.2,12.5,14,19.1,20.6c2,2,3.1,4.6,5.3,6.5c10.3,8.3,22.3,14.1,32.7,22.2c8.4,6.5,16.9,12.7,22.3,22.2
	c1.6,2.8,4,4.8,6.4,7c0.9,0.9,2.1,1,3.2,0.3c0.9-0.6,1.4-1.4,1.2-2.7C1232.6,219.2,1232.5,218.7,1232.2,218.3z M339.5,0.5
	c-0.8-0.1-1.6-0.3-2.4-0.3c-13.3,0-26.6-0.4-39.9,0.2c-6.1,0.3-12.2,3.4-16.3,7.5c-4.5,4.6-9.7,8.5-14,13.3
	c-0.7,0.8-2.4,1.1-1.8,2.6c0.5,1.3,2,0.9,3.1,1c8.7,0.6,17.2-1,25.6-2.6c1.9-0.4,3.9-1,5.4-2.4c6.3-6,14.3-8.7,22.4-10.8
	c6.4-1.6,11.6-6,18.2-7.1C339.7,1.4,339.6,0.9,339.5,0.5z M29.2,194.2c-6.6,3.4-13.4,6.5-20.2,9.5c-1.9,0.9-4.1,1.1-6,2.2
	c-4.3,2.4-2.9,6.5-2.4,9.8c0.6,3.5,3.9,1.3,5.4,0.9c7.6-1.9,15.3-2.8,22.9-4.5c5-1.1,11-0.2,14.8-4.8c5.5-6.7,11.9-12.4,18.9-17.4
	c0.9-0.7,2.2-1.2,1.7-2.7c-0.5-1.4-2-0.9-3.1-1.1c-0.8-0.1-1.7,0-2.5,0C48.4,187.1,38.5,189.4,29.2,194.2z M1099.7,255.5
	c6,6.7,12.1,13.4,18.2,20.2c5,5.5,9.8,11.1,14.8,16.7c0.7,0.8,1.5,2,2.9,1.5c1.3-0.4,1.4-1.7,1.4-2.9c0-2.2,0.6-3.6,3.1-4.3
	c6.5-1.9,6.5-2.2,2.1-7.5c-0.9-1.1-2.1-2.1-3.3-3c-5.6-4.4-10.4-9.6-16.1-14c-8.2-6.4-17.7-10.8-25.9-17.2c-0.7-0.6-1.8-0.7-2.2,0.2
	c-1.9,5.1-4.1,1.6-6.4,0.4c-1.1-0.6-2.8-2.2-3.6,0.2c-0.7,1.8,0.2,3.3,2.1,3.8c1.2,0.4,3.1-0.1,3.7,1.2c1.7,4.2,3.7,2.2,5.7,0.3
	C1097.5,252.7,1098.5,254.2,1099.7,255.5z M344.7,21.3c5.2-1.9,9.4-5.5,13.8-8.7c3.5-2.6,5.9-3.1,8.7-1.4c0.3,0.2,0.6,0.2,0.9,0.2
	c4.7,0.5,4.9,1.4,3.1,6.2c-3.7,9.7-8.8,18.4-16.3,25.7c-1,1-2.3,2.1-0.4,4c2.8-3.6,6.9-5.2,10-8.4c4.3-4.4,8.1-9.2,11.7-14.2
	c4.8-6.7,10.3-13,14.3-20.3c1.6-2.9,1.1-4.3-2.4-4.3c-8.3,0.1-16.7,0-25,0c-1.7,0-2.8,0.6-4,2.2c-3.7,4.9-7.1,10-12.6,13.3
	c-2.3,1.4-3.8,3.4-4.8,5.9C343,22.3,343.9,21.6,344.7,21.3z M118.8,118.9c12.8-3.2,21.5-13,22.6-26c0.2-2.8-0.5-3.7-3.3-3
	c-3.6,0.9-5.1,3.3-5.7,6.7c-0.6,2.9-0.3,6.5-3.1,8.1c-5.1,2.8-9.3,7.2-14.9,8.9c-8.8,2.8-17.9,4.9-26.5,8.3
	c-1.8,0.7-4.6,0.3-4.9,2.6c-0.3,2.5,2.8,2.9,4.4,4.2c0.5,0.4,1.2,0.6,1.8,0.7c8.3,1.5,15.9,4.3,22.1,10.5c1.3,1.3,3.5,3,5.2,0.9
	c1.6-1.9,1.5-4.1-0.6-6.1c-4.1-4.1-9.1-6.3-14.5-9.4C107.2,123,112.9,120.4,118.8,118.9z M849.9,191.2c1.9,1.9,4.3,1.9,4.9-0.2
	c1.7-6.3,6.3-6.6,11.4-6.6c1.1,0,2.2-0.6,3.3-1.1c3.6-1.7,3.9-3.8,1.2-6.9c-5.2-6.1-12.6-10-17.1-16.9c-0.8-1.2-2.2-1.5-3.6-1.1
	c-1.7,0.5-1.4,2-1.6,3.3c-0.6,4.2,1.6,7.2,3.8,10.3c1.7,2.4,4,5.2,2,7.9c-1.4,1.9-1.4,3.8-1.7,6c-2.2-0.3-4.1-1.5-6-0.1
	C847.3,187.8,848.3,189.6,849.9,191.2z M552.4,668.7c-0.6-13.3-5.2-25.3-10.4-37.1c-6.5-14.7-13.6-29.2-20.2-43.9
	c-3.3-7.3-6.8-14.6-9.5-23.3C511,570.9,547.6,664.7,552.4,668.7z M351.5,74.3c7.7-7.8,14.8-16.1,21-25c9.9-14.5,18.3-29.9,26.8-45.2
	c0.6-1,2.2-2.2,0.6-3.4c-1.4-1-2.9-0.4-4,0.8c-1.7,1.7-2.6,3.9-3.4,6c-1.1,3-2.8,5.6-4.1,8.5c-4,8.5-10.3,15.4-15.4,23
	c-4.9,7.2-7.8,15.7-14.2,22.1c-3.6,3.7-6.2,8.4-10.3,11.7c-0.9,0.7-1.9,1.5-1.5,2.9c0.1,0.3,0.7,0.5,1.1,0.8
	C349.3,75.7,350.6,75.2,351.5,74.3z M105.8,255c5.5-8.6,5.8-25.6-7.2-31.1c-2.5-1-9.5-0.6-10.3,1.4c-1.4,3.5,2.7,3.9,3.9,6
	c0.7,1.3,2.2,1.3,3.4,1.9c3.1,1.6,5.1,3.9,6.4,7.2c1.9,5.1,2.5,10.1,1.2,15.8C104.9,256.5,105.3,255.7,105.8,255z M82.3,75
	c-1.9,2.7-0.2,4.5,2.1,5.5c5.5,2.3,12.4-0.2,15.4-5.4c0.3-0.5,0.7-1.3,0.5-1.8c-0.4-1-1.3-0.8-2.1-0.4c-4.2,2.3-4.6-0.4-4.2-3.4
	c0.7-6.3-3.3-9.7-7.6-12.9c-1.3-0.9-2.8-1.2-4.1,0c-1.4,1.3-0.1,2.5,0.3,3.6c0.9,2.1,2.3,4,2.7,6.6C84.3,69.4,84.2,72.4,82.3,75z
	 M394.3,61.6c-2.3-0.2-10.2,7.2-9.5,9.2c1.4,3.9-1,6.5-2.9,8.9c-2.6,3.4-5.4,6.6-7.8,10.2c-0.8,1.2-2.4,2.3-1.2,3.9
	c1.2,1.6,2.3-0.2,3.4-0.7c11.6-4.7,13.4-17.2,20.5-25.5c0.2-0.3,0-1,0-2.5C396.8,64.1,397.2,61.8,394.3,61.6z M825.3,249.6
	c-3.1,19.5-6.2,39-9.2,58.4c0.5,0.1,0.9,0.1,1.4,0.2c7.7-18.8,11.2-38.2,9.1-58.5C826.1,249.7,825.7,249.6,825.3,249.6z
	 M493.2,297.4c1.2,8.9,6.4,15.6,12.4,21.9c0.8,0.9,1.9,1.8,3,1c1.3-0.9,0.2-2.1-0.4-3c-2.1-3.2-4.2-6.4-6.3-9.5
	c-6.4-9.6-6.6-19.4-0.9-29.5c0.9-1.6,2.5-3.1,2.4-6C494.1,279.4,491.9,287.7,493.2,297.4z M877.6,202.8c1.3-0.5,2.6-1.4,2.4-2.8
	c-0.1-0.7-1.8-1.2-2.7-1.9c-3.2-2.3-7.3-2.7-10.5-5.4c-1.7-1.4-5.1-1.3-7.6-1.1c-2.8,0.2-4.1,4.3-2.1,6c4.5,3.8,10.6,4.4,15.5,6.9
	C874.5,204,876.1,203.4,877.6,202.8z M405.8,46c-3.2,3.8-1.2,8.9-3.9,12.5c-1.2,1.7-1.6,2.8,0.1,4.1c1.9,1.3,2.7-0.4,3.6-1.4
	c5.6-7.1,7.4-16,11.2-24c0.3-0.7,0.1-1.6-1.1-2.4C412.3,38.4,409.1,42.2,405.8,46z M833.2,309.2c-1,2.9-0.3,5.3,1.7,7.3
	c2.1,2.1,4.4,1.3,6.8,0.1c8.3-4,16-9.2,24.7-12.5c2.1-0.8,4.9-2.5,5.2-5.8c-1.8-0.5-2.8,0.6-3.8,1.3c-8.4,5.6-18.4,8.2-26.8,13.8
	c-1.2,0.8-2.6,2-4.1,0.9c-1.6-1.2-1.1-3.1-0.7-4.6c0.4-1.6,1.1-3.1,1.8-4.6c1.2-2.5,2.2-5,2.4-8.9
	C836.4,300.4,834.8,304.7,833.2,309.2z M535.4,135.3c10.5,12.8,11.8,27.5,9,43.1C555.8,165.2,548.2,144,535.4,135.3z M1029.8,133
	c-5.1-1.7-1.3,3.5-3.5,4.6c-1.7,0.9,0,2.4,1.6,3c6.3,2.5,12.6,5.2,19,7.6c3.4,1.2,7,2.5,11.2,0.8c-4-4.1-10.3-1.9-13.4-6.4
	c0.6-1.4,3.4-0.3,3.5-2.9c-3.5-2-7-0.1-10.5,0.3c-2.2,0.3-4.6,0.4-6.1-1.2c-1.9-2,1.1-3.3,1.3-5.4
	C1031.7,133.3,1030.7,133.3,1029.8,133z M479.2,126.9c7.8,0.5,14.8,3.9,21.8,7.3c-7.3-11.1-34.9-15.2-46.5-6.3
	C463.6,126.8,471.4,126.4,479.2,126.9z M880.5,57.1c3.3,8.4,5.1,17.4,9.4,25.5c2.2,4.2,4.3,8.6,6.4,12.9c0.5,1.1,1.3,2.3,2.6,1.7
	c1.3-0.6,0.9-1.9,0.4-3c-0.3-0.8-0.7-1.5-1.1-2.2c-4.9-10.4-11-20.3-14.2-31.6c-0.5-1.8-0.6-3.9-3.1-5.6
	C880.7,55.8,880.3,56.6,880.5,57.1z M579.3,310.1c3.2-1.5,6.6-3.1,10.3-1.4c1,0.4,1.8,2.8,3,0.5c0.7-1.3,0.6-2.9-0.9-4
	c-1.4-1.1-3.1-1.2-4.7-1.1c-7.4,0.8-14,3.7-20.4,7.2c-1.4,0.7-2,2.1-1.9,4.4C569.1,312.4,574.5,312.4,579.3,310.1z M1089.9,637.5
	c-12.9-6.7-26-13-39.7-18c-1.3-0.5-3-1.6-4.1,0.1c-1.3,2,0.6,3,1.9,3.9c8.4,5.8,16.8,11.5,26.2,15.7c8.3,3.7,17.3,4.3,26.1,6.5
	C1097.7,641.7,1093.7,639.5,1089.9,637.5z"/>
<g>
</g>
<g>
</g>
<g>
</g>
<g>
</g>
<g>
</g>
<g>
</g>
<g>
</g>
<g>
</g>
<g>
</g>
<g>
</g>
<g>
</g>
<g>
</g>
<g>
</g>
<g>
</g>
<g>
</g>
</svg>
