<?xml version="1.0" encoding="utf-8"?>
<!-- Generator: Adobe Illustrator 18.0.0, SVG Export Plug-In . SVG Version: 6.00 Build 0)  -->
<!DOCTYPE svg PUBLIC "-//W3C//DTD SVG 1.1//EN" "http://www.w3.org/Graphics/SVG/1.1/DTD/svg11.dtd">
<svg version="1.1" id="Layer_1" xmlns="http://www.w3.org/2000/svg" xmlns:xlink="http://www.w3.org/1999/xlink" x="0px" y="0px"
	 viewBox="0 0 1025.7 720.7" enable-background="new 0 0 1025.7 720.7" xml:space="preserve">
<path d="M88.6,720.7c-1.1-7.5,1.9-14.5,3.9-21.3c2.5-8.7,4.1-17.7,6.7-26.3c3.1-10.2,6.2-20.5,8.4-31c1.5-6.9,3.9-13.6,4.8-20.7
	c0.8-6,2.9-11.8,4.3-17.8c4.5-19.1,11.3-37.5,19.2-55.4c3.5-7.9,9.4-14,14.8-20.4c9.6-11.2,18.3-23.1,26.6-35.2
	c5.6-8.2,9.7-17.4,14-26.4c4.8-10,9.6-20.1,12-30.9c4.8-21.8,13.4-42.3,19.5-63.6c6.6-23.3,12.9-46.6,18.6-70.1
	c1.9-7.6,3.1-15.5,7.4-22.6c-0.8,5.9-1.3,11.9-2.5,17.8c-2.3,11.7-4.4,23.4-7.6,34.8c-4.7,16.9,1.2,32.7,3.5,49
	c2.8,19.6,10.4,38,13.9,57.5c2.7,14.7,5.8,29.3,10.5,43.5c5.8,17.4,13.3,34.1,22.8,49.6c14.2,23,29.4,45.4,50.3,63.2
	c13.2,11.3,25.5,23.8,40,33.5c12.7,8.4,25.4,17.3,40.8,20.1c12.2,2.2,24.5,3.5,37.1,2c10.2-1.3,20.5-1.3,30.3-5.1
	c20.5-8,39-18.9,54.9-34.2c20.5-19.8,39-41.3,55.3-64.6c13.1-18.7,23.3-39,30.9-60.6c1.5-4.2,2.9-8.5,4.5-12.6
	c1.2-3-0.4-5.3-1.9-7.4c-10-13.6-19.5-27.6-30.1-40.8c-7.8-9.6-11.4-21.7-15.1-33.4c-5.1-16.3-9.7-32.9-14-49.4
	c-1.4-5.4-1.8-11.1-2.2-16.7c-0.2-3-1.2-4.3-4.3-3.9c-2.2,0.3-4.4-0.4-6.2-1.5c-3.3-2.1-6.9-2.9-10.7-3.8
	c-5.4-1.3-10.7-2.4-15.9-5.2c-5.1-2.8-10.9-4.9-17.2-4.5c-1.6,0.1-3.2-0.6-4.8-1.2c-1.1-0.4-2.2-1.2-2.3-2.4
	c-0.1-1.4,1.3-1.6,2.4-2.1c5.3-2.9,11.1-3.1,16.9-3.1c6.8,0.1,13.7,1,20.3-0.1c5.1-0.9,10.1-1.9,15.3-1.8c2.1,0,1.3-2,1.3-3
	c-0.4-5.4-0.5-10.8-0.1-16.3c0.7-9.6,1-19.2,1.7-28.8c0.8-10.9,1.5-22.1-1.1-33.4c-6.6,4.9-13.3,9.5-19.6,14.5
	c-5.4,4.3-11.8,6.8-18,9.2c-4.1,1.6-8.5-0.5-12.7-1.1c-2.5-0.4-1.7-2.5-0.1-4.1c4.7-4.5,9.8-8.4,14.6-12.7c10-8.8,17.2-20.6,29-27.4
	c1.8-1.1,1.3-2.4,0.7-3.8c-3.8-8.1-8.7-15.6-14.3-22.6c-5.4-6.9-9.3-15-16.1-20.7c-7-5.8-13.9-11.8-19.7-18.8
	c-10.6-12.8-20.5-25.9-28.1-40.9c-4.7-9.3-9.7-18.5-13.7-28.1c-4.1-10-6.1-20.6-6.3-31.4c-0.1-4.8,0.2-10.1,4.7-12.3
	c6.3-3,13.3-4.2,19.9,0.3c7.7,5.3,13.1,12.7,19,19.7c9.9,11.8,19.3,24,29.3,35.8c5.2,6.1,9.6,13,14.5,19.5
	c12,16.3,23.9,32.6,38.2,47c5.4,5.5,12.2,9.1,17.9,14.3c0.5,0.4,1.2,0.6,1.7,1c2.6,2,6.2,5.4,5.4,7.4c-1,2.4-4.7-0.9-7.3-1.2
	c-10.2-1.4-15.6-9.4-21.5-16.5c-8.2-9.9-15.8-20.5-24.6-29.8c-13.3-14.2-23.1-31.1-35.8-45.7c-7.4-8.5-14.9-17-21-26.4
	c-5.2-8-11.5-15-18.3-21.6c-4.7-4.5-8.5-4.9-14.3-2.1c-3.2,1.5-4,3.6-4.2,7c-0.7,15.4,5.7,28.5,12.9,41.3
	c7.1,12.7,14.7,25.1,22.9,37.2c3.1,4.6,5.7,9.7,9.1,14.2c0.4,0.5,0.9,1.1,0.9,1.7c0.3,8.7,6.4,12.5,13.2,15.9
	c2.1,1.1,2.6,3.8,4.1,5.7c8.5,11.2,18.9,20.9,27.4,32.1c4.3,5.7,8.8,11.2,12.3,17.4c0.3,0.6,0.8,1.4,0.6,1.8
	c-3.6,7.9,2.5,14.3,3.4,21.5c1.2,8.5,4.6,16.6,4.4,25.5c-0.5,16.8,0.9,33.6,1.1,50.4c0.2,14.4,2,28.8,3.2,43.1
	c0.6,7.4,2.7,14.9,3.5,22.4c1.1,9.9,3.4,19.6,8.1,28.4c8.4,15.6,15.4,31.9,25.3,46.7c1.9,2.8,1.6,6,3.1,8.8c4.2,7.9,9,15.4,13.7,23
	c5.2,8.5,7.3,18.4,10.8,27.7c3.6,9.6,6.5,19.4,8.7,29.3c1.3,5.9,1.3,12.2,1.3,18.3c0,3.7-3.7,6.5-6.1,6.3c-7.1-0.7-6.8,5.5-8.1,8.7
	c-3.4,8.4-6.4,16.9-8.2,25.9c-0.6,2.9-1.6,5.7-1.1,8.7c0.6,3.7-2.9,6.2-3,9.9c3.2-2.8,5.5-2.1,6.6,1.9c1.4,5.1,3.8,9.7,6.1,14.4
	c0.4,0.8,0.6,1.6,1.7,1.4c0.9-0.2,1.3-0.9,1.6-1.7c1.5-4.3,3.8-8.1,7.2-11.2c0.9-0.8,1.7-2.3,3.3-1.5c1.3,0.6,1.1,1.9,1.2,3.1
	c0.7,11.4,1,22.9,2.1,34.3c1,10.4,2.3,20.7,3.7,31.1c2.6,18.4,5.6,36.6,8.9,54.9c-45.3,0-90.7,0-136,0c-0.1-1.2-0.5-2.4-0.2-3.5
	c3.7-11.8,6.5-23.9,11.1-35.5c2.9-7.2,5.6-14.6,9.7-21.2c0.6-0.9,1.5-2.1,0.1-3.1c-1-0.6-1.7,0.2-2.6,0.8
	c-7.8,5.4-13.7,13.3-22.2,17.9c-1.3,0.7-3.2,1.7-4.2,3.2c-3.8,5.6-9.2,9.3-15.2,12.1c-3.9,1.8-6.1,0.6-6.7-3.7c-0.3-2,0-3.9,0.7-5.9
	c5.1-14.4,12.8-27.4,21.3-40.1c3.4-5,5.9-10.7,8.8-16c0.3-0.7,1-1.6,0.2-2.3c-1-0.7-1.8-0.1-2.5,0.7c-5.2,6-11.9,9.8-18.6,13.9
	c-17.4,10.5-35.9,16.9-56.5,15.9c-1.8-0.1-3.7-0.1-5.4,0.7c-9,4.2-18.3,1.7-27.5,1.1c-5.9-0.4-6.8-0.1-6.8,5.7c0,2-0.1,4,0.8,5.9
	c2.6,5.7,1.8,12,3.1,18c0.3,1.4,0.3,3.3-1.5,3.8c-1.6,0.5-2.9-0.7-3.4-2.3c-1.9-5.7-6.6-9.6-9.2-15c-3.4-7.1-8.4-13.3-13.1-19.7
	c-3.7-5.1-6-11.1-10.6-15.8c-4-4.2-8.1-7.8-14.6-8.4c2.4,8.3,8.5,13.9,11.5,21.3c2.9,7.4,9.8,12.6,13.1,20.1
	c5.7,12.8,13.9,24.3,20.7,36.6c2.6,4.7,6,9.2,6.8,14.7c-73.3,0-146.7,0-220,0c-0.6-2.2-0.2-4.3,0.6-6.3c3-7.3,5.7-14.8,8.5-22.1
	c3.1-8,5-16.3,5.3-24.5c1-27.1-2.8-53.9-9.2-80.2c-1.2-5-2.4-10.4-6.8-15.3c0,4.6-0.6,8.4,0.1,11.9c2.5,11.6,2.6,23.4,2.6,35.1
	c0.1,15.9-0.5,31.8-1.4,47.7c-1,18.4-4,36.1-8.8,53.7c-5,0-10,0-15,0c3.3-10.5,8.7-20.1,12.2-30.6c4.4-13.2,8.2-26.3,8.3-40.2
	c0.1-9.5,0.4-19-1.3-28.7c-1.4-8-2.6-16.2-3.4-24.4c-0.2-2.1,0.3-4.6-0.6-6.4c-3.5-7.4-4.3-15.6-6-23.4
	c-3.1-14.2-6.4-28.1-13.4-41.2c-0.9,3,0.8,5.4,0.6,8c-0.8,10.3,1.3,20.5,2.2,30.7c1.7,20.5,4,41,3.6,61.5
	c-0.5,21.1-0.7,42.2-0.8,63.4c0,0.8,0.1,1.7-0.1,2.5c-2.8,9.4-2.1,19.3-5.2,28.6c-18.3,0-36.7,0-55,0c-0.9-3.3,0.8-7.2-1.7-10.1
	c-1.9-2.1-1.9-4.6-1.9-7c0-8.1,0.2-16.3,0.3-24.4c0-4.9-1.8-9.4-3-14c-0.3-1-0.7-2-1.9-2.1c-1.4-0.1-1.3,1.2-1.5,2.1
	c-1.6,8.3-5,16.2-3.3,25.3c1.5,8.1,3.3,15.8,7,23.1c1.2,2.3,3,4.4,3.1,7.1C106.6,720.7,97.6,720.7,88.6,720.7z M643.9,505
	c-0.4,0.6,0.1,1.8-1.3,2.6c-4.2,2.2-6.3,6.3-9,10.2c-6.4,9-4.9,21.8-14.5,29.2c-0.2,0.2-0.1,0.6-0.2,1c-1.5,4.7-2.6,9.5-2.1,14.5
	c0.3,2.6-0.2,4.6-3.5,4.9c-1.1,0.1-1.2,0.7-1,2.2c0.7,5.6,2.2,11.8-0.9,16.6c-2.3,3.6-2.7,6.9-2.6,10.6c0.1,3.2-1.2,4.6-4.4,4.4
	c-2.5-0.2-3.7,1-3.6,3.5c0.1,9.6-4.3,18.4-4.7,28c-0.4,9.4,1.5,19.2-3.1,28.5c-2.7,5.4,1.9,10.8,3.1,16.1c1.6,7.1,1.3,14.6,5.5,21.4
	c3.3,5.4,8.7,9.9,8.7,17.2c0,1.8,2.3,2.7,4.1,3.2c0.7,0.2,1.4-0.2,1.5-0.9c0.3-1.6,0.9-3.2-0.8-4.5c-1.2-0.9-1.4-2.3-1.5-4
	c-0.1-4.4-0.3-8.7-0.8-13.1c-1-8.3-3.3-16.6-0.5-25.1c2.6-7.9-0.1-16,0.8-24.1c0.1-0.8-0.4-1.1-1.3-1.5c-3-1.1-4-3.4-2.6-5.9
	c4.5-8.4,4.2-18.1,7-26.9c1-3.1,0.7-6.7,1.9-9.7c2.8-7.6,3.7-15.6,6.2-23.3c1.9-5.8,2.8-11.8,4.6-17.6c3-9.6,6.1-19.2,9.5-28.6
	c1.7-4.8,0.5-10.2,3.1-14.5C644.4,514.8,645.8,510.4,643.9,505z M162.6,527c-3.6,5.3-9,9.7-8,14.9c1.2,6.3,0.6,12.5,1.9,18.7
	c1.5,7.2,3.1,14.5,3.5,21.9c0.7,13.4,1,26.9,2.2,40.2c0.5,6,0.1,12,1,17.9c2.4,15.3-0.9,30.4-1.5,45.6c0,1-0.6,1.9-0.6,2.9
	c0,0.8-0.6,1.9,0.6,2.7c3.5-5.1,4.1-11.3,6.8-16.4c5.7-11.2,6.6-23.6,8.4-35.4c2.7-18.2-0.3-36.6-3-54.8
	c-1.7-11.3-3.4-22.5-5.7-33.7C166.5,543.6,166.1,535.4,162.6,527z M117.1,663c0.6-4.2,0.4-8.8,2.1-12.6c3.7-8.7,2.3-18.8,7.9-26.8
	c0.3-0.5,0.2-1.3,0.3-2c0.2-1.5,0.4-3.2-1.7-3.4c-1.6-0.2-2.1,1-2.7,2.4c-3.9,9.3-5.3,19.4-9.5,28.5c-0.5,1.1-0.4,2.2,0,3.4
	C114.7,656,115.9,659.6,117.1,663z M884.6,720.7c1-4.4-0.3-8.5-1.8-12.5c-2.8-7.1-3.4-14.3-2.7-22c0.4-3.5-0.5-8-3.4-12.8
	c-0.3,2.8-0.5,4.2-0.6,5.6c-0.2-3-0.5-6-0.9-8.9c-0.5-4.3-1.9-11.1,0.1-12.5c4.8-3.3,3.4-6.4,2.8-10.2c-0.3-1.7,0.4-3.1,0.9-4.7
	c2-5.8,3.9-11.8,3.1-18.1c-0.2-1.3,0.3-1.9,1.1-2.6c0.4,1.6,0.7,3.7,1.6,0.2c1.3-5.2,0.9-10.5,3.6-15.8c3.5-6.9,2.7-15.2,2.4-23
	c-0.1-2.6-0.7-4.5-4.1-4.1c-2.2,0.2-4.2-0.7-2.8-3.6c1-2.1,0-3-1.6-3.9c-5.1-3-5.1-3.1-0.1-6.9c0.9-0.7,2.1-1.2,2.8-2
	c3.1-3.3,7.4-5.5,9.7-9.7c-3.4,1.3-6.3,3-9,5.2c-6.6,5.6-13.6,10.3-23.2,9.2c-8.4-1-16.8-1.9-25-4c-1.4-0.3-2.6-1.2-4.3-0.4
	c-5.2,2.4-7.8,1.5-10.3-3.6c-1.4-2.8-3.1-5.1-6.9-6.5c0.9,3.2,1.5,5.7,2.3,8.2c0.4,1.4,0.7,3-1.5,2.5c-4.6-1-2.3,1.7-1.6,3.1
	c6.1,12.7,12.6,25.3,18.4,38.1c7.4,16.5,13.5,33.5,19.7,50.5c4.2,11.5,8.6,22.9,12.3,34.5c3.2,10.3,7.5,20.2,9.9,30.7
	C878.6,720.7,881.6,720.7,884.6,720.7z M1025.6,720.7c-0.3-13.9,1.1-27.6-2.1-41.6c-3.3-14.4-6.9-28.6-12.6-42.1
	c-6.3-14.9-13.8-29-24.2-41.5c-8.9-10.7-19.5-19.4-30.9-27.1c-11.6-7.9-23.1-16.1-37.3-19c-1.4-0.3-3-1.9-4.4,0
	c0,1.5,1.2,1.5,2.1,1.8c12,3.8,22.6,10,32.6,17.7c7.9,6.1,16.2,11.7,23,19c10.3,11,18.7,23.4,25.6,37c9.9,19.7,16.5,40.5,21,61.9
	c2.4,11.1,3.6,22.5,3.4,33.9C1022.9,720.7,1024.3,720.7,1025.6,720.7z M36.6,309.5c3.7-0.7,7.7,0.5,11.1-2c1.7-1.2,3.6-3.4,5.7-1.7
	c1.8,1.4,1,4.1,0.6,6.2c-3,14.3-4.5,28.8-4.8,43.4c-0.1,7.1-0.4,14.4-2.3,21.1c-2,6.8-0.6,14-3.5,20.5c-0.3,0.8-0.3,2,1.1,3
	c3.2-9.5,5.1-19.3,6.1-29c1.2-10.9,3.2-21.6,5.1-32.3c2.6-14.6,5.8-29.1,7.4-43.8c1-9.2,3.3-18.2,3.7-27.6
	c0.6-14.7,4.1-29.4,5.2-44.2c0.2-2.5,0.4-5.3,1.9-7.6c3.8-5.8,5.6-12.1,6.2-19c0.2-2-0.5-5.2,1.9-5.9c2.5-0.7,3.1-2.6,3.4-4.2
	c1.6-8.5,6.6-15.8,8.6-24.3c1.9-8,5.6-15.5,6.9-23.8c2.1-13.7,3.8-27.6,9.2-40.6c0.4-0.9,1.1-2.6,1.2-2.5c4.5,1.5,2.7-3,4.1-4.3
	c0.6-0.5,0.7-1.5,1.2-2.1c5.8-6,11.1-12.4,16.7-18.5c7.8-8.5,16.2-16.7,25.3-23.6c10.3-7.8,19.4-16.8,29.6-24.6
	c7.5-5.6,13.9-12.7,22.1-17.4c1.1-0.6,2.6-1.6,2.3-3c-0.3-1.8-2.2-1.1-3.4-1.1c-16-0.1-32-0.2-48,0.1c-4.4,0.1-8.5,1.4-9.4,6.9
	c-0.2,1.4-1.4,2.6-2.2,3.9c-7.5,11.7-13.3,24.1-15.7,37.9c-1.7,9.9-5.8,18.9-10.6,27.6c-0.6,1.1-1.5,2.8-2.4,3
	c-5.9,0.8-8.1,6-11.5,9.6c-8.1,8.2-13.1,17.8-14.7,29.6c-1.6,11.8-2.6,23.7-6.3,35.2c-7.1,22-16.2,43.4-21.2,66.1
	c-0.6,2.8-2.1,5-4.2,7.1c-14.8,14.6-33.6,18.6-53.2,20c-10.4,0.7-10.4,0.1-9.9,10.6c0.1,2.5,0.6,4,3.5,4.3c1.5,0.2,3,1.2,4.5,2
	c3.8,2.2,7.6,2.2,11.4,0.2c13.3-7,27.3-12.6,39.7-21.2c1.1-0.8,2.6-2.9,4.3-1.4c1.3,1.2,0.6,3.2,0.4,4.8c-1.2,8.9-2.9,17.7-3.6,26.6
	c-0.3,4.6-1,8.3-4.6,11.5c-1,0.9-3.4,1.7-2.6,3.7c1,2.3,3.2-0.5,4.8,0.6c-0.7,3.3-2.3,5.6-5.5,6.7c-5.4,1.8-9.6,5.5-16.4,5.6
	c-6.9,0.1-14.3,4.4-20.7,8.7C22.6,311.8,29.6,310.8,36.6,309.5z M324.9,47.1C306.7,61,289,75.7,270,88.7
	c-13.9,9.5-26.5,20.9-37.3,34c-9.7,11.7-17.3,24.5-22.6,38.8c-4.8,12.9-7.4,26.5-13.1,39c-1.2,2.6-4.6,6.5-1.1,8.3
	c3.4,1.8,5.5-2.6,7-5.5c5.2-10.1,11.2-19.4,19.4-27.5c4-3.9,8.8-7.7,10.6-13.1c2.6-7.6,8.7-12,14.3-16.8
	c11.3-9.6,22.7-19.2,34.6-28.1c5.7-4.2,10.6-9.3,16.8-12.9c14.3-8.2,28.1-17.6,42.7-25.3c9-4.8,18-12.3,29.6-6.9
	c0.9,0.4,2.1,0.2,2.6-0.8c0.6-1.2,0.1-2.3-1-3c-1-0.6-2.1-1.3-3.2-1.4c-6.8-0.4-13.7-0.7-20,2.5c-12.4,6.2-25.1,11.8-36.7,19.6
	c-7.5,5-15.5,9.4-22.5,15.3c-5.5,4.6-11.4,8.8-18.3,14c2.6-10.6,4.2-19.8,6.9-28.8c0.7-2.4,1.7-4,3.7-5.5c10.3-8,22-14.1,31.8-22.8
	c4.7-4.2,9.9-8.2,12.9-14.9C325.5,47,325.1,46.9,324.9,47.1z M321,149.4c-4.7,4.7-9.1,9.7-14.2,13.9c-6.4,5.2-11.6,11.3-16.5,17.8
	c-7.2,9.5-12.9,20-21.3,28.7c-6.1,6.3-11,13.7-12.4,22.7c-1,6.4-3,12.6-4.1,19c-0.9,5.3-1.6,10.5-2.5,16.4c2.4-1.1,2.5-2.6,2.9-4.1
	c2.9-10.3,5.9-20.6,8.9-31c0.3-0.9,0.2-1.1,1.7-1c9.9,0.6,19.7-0.9,29.6-1.3c4.5-0.2,8.7-3.6,13.5-1.2c12.3,6,25.9,6.8,39.1,8.9
	c7.8,1.3,15.7,1.7,23.3,4.8c7.6,3,15.7,2.7,23.5,1.8c-3.1-3.4-6-6.8-9-10c-8.3-9-19.6-11.8-30.9-13c-8.6-0.9-17.3-1.2-25.6-3.2
	c-16.8-4.2-32.8,0.1-49.1,2.7c-5,0.8-9.3,3.6-14.1,5.6c19.9-27.6,40.7-54.3,62.3-80.5C323.5,146.3,322.4,148,321,149.4z
	 M769.3,167.9c0,10.6-0.5,21.2-2,31.8c-1.5,10.1-3.4,20.2-5.3,30.3c-1.7,8.9-1.1,17.9-1.9,26.8c-1.3,15-2.7,30.1-2.8,45.2
	c0,2.3,0.1,4.7-0.1,7c-2.3,23.5-0.7,46.7,3,69.9c0.5,3,2.6,4.5,4.6,6.1c1.6,1.3,3.2,1.7,3.3-1.6c0.4-15-0.4-30-1.5-44.9
	c-1.3-17.8-1.6-35.5-1.6-53.3c0-1.2-0.7-2.9,1.2-3.3c1.2-0.2,2.1,0.7,2.9,1.6c8.1,8.7,16.3,17.4,24.5,26.1c1.2,1.2,2.1,3.1,4.4,2.9
	c0.6-2.2-1-3.4-2.2-4.6c-10.9-11-20.3-23.1-28.3-36.3c-0.6-1-1.6-2-0.2-2.9c1.2-0.9,2.1-0.1,2.9,1c8.8,13.3,20.1,24.4,31.6,35.3
	c1.7,1.6,3.1,4.6,6.4,3.6c0.1-1.6-0.9-2.3-1.7-3.1c-13.6-13-25.2-27.6-35.2-43.5c-1.9-2.9-4.9-5.8-3.7-10
	c7.8,5.1,10.4,14.1,17.1,19.9c6.7,5.7,12.5,12.4,18.8,18.6c10.4,10.2,16.8,14.6,20.8,14.5c-1-2.1-2.7-3.3-4.4-4.6
	c-7-5.6-13.1-12.1-19.3-18.5c-8.6-8.8-14.7-19.6-22.6-28.9c-7.8-9.2-11.3-19.4-7.9-31.2c1.5-5,2.3-9.8,1.3-15.1
	c-0.9-4.7-0.9-9.8,0-14.4c2-10.2-1.4-20.1-0.8-30.1C768.8,163.9,769.3,166,769.3,167.9z M373.7,522.2c14.7,4.3,28.6-2,42.9-3.5
	c7.8-0.8,15.7-0.8,23.7,0.9c9.2,2,19,1.6,28.2-0.7c9.5-2.4,18.7-2,28.1-0.6c9.4,1.4,18.8,1.7,28.2-0.4c1.5-0.3,3.1-1.2,4,0.5
	c1,1.8-0.9,2.6-1.8,3.6c-3,3.3-7.2,3.5-11,3.7c-4.7,0.2-9.2,0.7-13.3,3.2c-8.8,5.4-19,5.2-28.7,6.8c-5.2,0.9-10.2,2.6-15.5,3.4
	c-6.1,0.9-11.9-0.4-17.8-0.2c-9.6,0.3-19.2-0.3-28.9,0.7c-6.3,0.7-13,0.2-19.3-1.2c-8.5-1.8-14.8-8.2-22.2-12.4
	c-0.9-0.5-2.1-1.7-1.3-2.9C370.1,521.7,372.1,522.7,373.7,522.2z M441.4,524.1c-5.7,0-11.3-0.2-17,0.1c-1.9,0.1-5.5,0.1-5.6,2.1
	c-0.1,2.5,3.3,2.3,5.4,3.1c8,3,16.9,3,24.5,7.3c1.7,0.9,3.5,0.8,5.3,0.1c7.6-2.9,15.2-5.1,23.4-5.8c3-0.2,7.9-0.4,7.4-5.5
	c-0.5-4.5-4.3-4.8-8-4.6c-1.3,0.1-2.7-0.2-4,0.2C462.7,524.4,452,524,441.4,524.1z M326.4,320.3c2.1-1.5,5-2.1,5.9-0.9
	c2.9,3.9,5.7,1.6,8.6,0.7c2.2-0.7,4.6-0.7,6.8-1.2c7.4-1.4,15.2-1.6,21.5-6.6c5.2-4.1,10.4-8.3,17.7-7.5c1.1,0.1,2.3-1.1,3.6-1.6
	c1.3-0.5,2.6-1.1,2.3-2.7c-0.3-1.6-1.9-0.9-2.9-1.1c-14.5-3.9-28,2.3-41.9,4.1c-9,1.2-17.9,1.8-26.4-1.7c-2.1-0.8-4-1.5-6.1-1.4
	c-4.6,0.2-7.2-2.2-9.2-6.1c-2.4-4.6-3.1-9.8-5.4-14.4c-0.8-1.6-1.9-3.5-4-3c-2.2,0.5-1.7,2.8-1.4,4.2c0.8,4.5,0.4,9.2,2.3,13.5
	c1.1,2.4,0.5,4.4-1.8,5.4c-2.6,1.1-5.3,1.7-8.1,2.4c-1.6,0.4-4.4-0.6-4.4,1.9c0,2.2,2.7,2.5,4.7,2.8c3.8,0.5,7.7,1.1,12.1,1.7
	c-3.4,3.4-8.4,2.8-11.5,6.6c5.9,1.6,11,0.5,16-1.6c1.4-0.5,3.1-1.5,3.9,0.2c0.6,1.4-1,2-2.2,2.7c-1.2,0.7-3.7,1.3-2.6,3.4
	c0.8,1.6,3.1,1.2,4.6,0.8c2.4-0.7,4.6-1.9,6.8-2.9c1.8-0.9,3.6-1.3,5.8-0.1c-1.7,2.6-4.7,3.6-6,7
	C319.7,324.5,323.2,322.6,326.4,320.3z M566.9,4.9c3.9-0.1,5.7,1.7,5.3,5.4c-0.5,5.3,1.2,10.2,3,15c6.7,17.6,13.3,35.3,20.8,52.7
	c6.6,15.2,10.9,31.2,16.3,46.8c2.2,6.4,2.7,13.2,4.7,20.5c2.2-4.8,2.9-8.9,3-13.3c0.3-11.3-3.8-21.6-6.6-32.2
	c-3.9-14.8-11.2-28.3-15.9-42.8c-3-9.3-7.2-18.3-10.5-27.6c-2.6-7.5-5.2-15-5.4-23.1c0-2,0-5.3-3-5.6c-8.1-0.8-16-0.3-25.1,3.2
	C558.9,5.6,563,5,566.9,4.9z M814.4,466.7c-0.5-3.9,0.3-8-1.5-11.8c-1.2-2.4-3-5.6-5.1-5.3c-2.2,0.3-2.5,3.9-2.4,6.4
	c0.2,5.5-0.5,11-1.7,16.3c-1.7,7.7-4.3,15.2-6.3,22.9c-1.6,5.9,1,9.4,7.3,9.7c2.5,0.1,4.4,0.7,6,2.7c1.7,2.1,4,4.1,6.8,2.8
	c2.5-1.2,0.9-3.8,1.3-5.9C817.4,492,816.1,479.3,814.4,466.7z M676.6,105.3c-2.8-12-3.6-24.3-4.4-36.4c-1.3-20.4-10.4-37.4-20-54.5
	c-3-5.2-8.7-8.1-11.9-13.2c-1.1-1.8-4-1.5-5.5-0.5c-2.5,1.6,0.5,2.8,1.1,3.9c2.7,4.7,5.2,9.5,8.6,13.9c1.7,2.2,4,3.7,5.6,6.1
	c6,9.2,9.2,19.2,11.3,29.9c3.5,17.7,8,35.1,12.2,52.7c0.4,1.7,0.8,3.6,2.9,4.4C677.4,109.6,677.1,107.4,676.6,105.3z M885,539.4
	c-10.6-5.5-22.1-6.4-33.7-6.9c-8.4-0.4-16.1-3.6-24.3-5c-2.7-0.5-5.4-4.3-7.5-2.2c-2,1.9,1,5.1,2,7.5c2.2,5.2,4.3,10.4,11.7,11.1
	c4.4,0.4,8.8,0.9,13.3,1.4c13.5,1.4,26.7,0.1,39.7-3.7C886.2,539.9,885.5,539.7,885,539.4z M744.5,48.7c-12.9-14.1-27.5-27-35.5-45
	c-0.8-1.8-1.8-4.3-4.3-2.9c-2.4,1.4-0.4,3.7,0.3,5.2c4.3,9.5,8.2,19.2,16.8,26c3,2.4,5,6.2,7.7,9.1c6.2,6.7,11.4,14.7,21.9,17.5
	C750.1,54.2,747.1,51.5,744.5,48.7z M14.5,476.9c8.1-14.6,15.7-29.5,21.4-45.2c1.1-3.2,2.7-6.3,1.4-10.3
	C26.7,442.3,17,463.1,4.7,482.6c-3.5,5.5-6.1,11.2-3.5,19.1C5.9,492.7,10.2,484.8,14.5,476.9z M317.8,248.8c-3,0.8-5.8,2.4-8.7,3.8
	c-1,0.5-2.1,1.5-1.3,2.8c1.1,1.8,1.8,0.2,2.6-0.5c1.3-1.1,2.9-1.6,4.5-2c18.1-4.8,34.9-1.6,50.7,7.9c3.8,2.3,7.7,4.4,12.2,5.2
	C360.6,251.1,341.2,242.9,317.8,248.8z M420.2,438.9c-1.2-1.6-3.4-2.6-5.2-3.8c-1.6-1-3.1-0.7-4.5,0.7c-1.2,1.2-1.7,2.7-0.7,4
	c2.3,2.9,3,7.2,8,7.8c2.6,0.3,5,2.3,7.4,3.7c2.4,1.3,4.7,2.3,8.2,0.7C428.4,447.8,424,443.7,420.2,438.9z M416.5,267
	c6.4,8.7,7.2,18.7,7.8,28.8c0.1,1.2-0.5,3.1,1.2,3.3c1.6,0.2,2-1.5,2.2-2.8c2-11.2-0.3-21.6-7.4-30.4c-2.6-3.2-6-6.6-11.5-7.6
	C410.1,263.1,414.3,264,416.5,267z M389.8,420.5c-0.4-7.4,6-12.3,6.1-19.3c-5,6.8-11.5,13.6-10.1,22.6c1,6.6,3.9,13.7,13.4,15.7
	C395.8,432.6,390.2,427.9,389.8,420.5z M313.6,4.1c-8.1,3.4-16.8,4.1-24.8,7.6c-2.5,1.1-3,3.1-2,5.3c1.1,2.4,3.3,1.2,4.7,0.5
	c7.6-3.8,15.1-7.8,22.6-11.8C313.9,5.2,313.7,4.7,313.6,4.1z M505.5,238.4c4.1-10.3,15.1-13.4,22.5-21.2
	C517.2,215.7,507,225.4,505.5,238.4z M17.9,288.2c-4,1.4-7,0.8-9.9,1.2c-8.2,1.1-8.8,2-7.3,10.7c0,0.1,0.2,0.2,0.4,0.5
	C6.7,297.4,12.8,294.7,17.9,288.2z"/>
<g>
</g>
<g>
</g>
<g>
</g>
<g>
</g>
<g>
</g>
<g>
</g>
<g>
</g>
<g>
</g>
<g>
</g>
<g>
</g>
<g>
</g>
<g>
</g>
<g>
</g>
<g>
</g>
<g>
</g>
</svg>
