<?xml version="1.0" encoding="utf-8"?>
<!-- Generator: Adobe Illustrator 18.0.0, SVG Export Plug-In . SVG Version: 6.00 Build 0)  -->
<!DOCTYPE svg PUBLIC "-//W3C//DTD SVG 1.1//EN" "http://www.w3.org/Graphics/SVG/1.1/DTD/svg11.dtd">
<svg version="1.1" id="Layer_1" xmlns="http://www.w3.org/2000/svg" xmlns:xlink="http://www.w3.org/1999/xlink" x="0px" y="0px"
	 viewBox="0 0 1280.3 720.9" enable-background="new 0 0 1280.3 720.9" xml:space="preserve">
<path d="M424.3,720.9c0.8-12.3,1.6-24.7,0.4-36.8c-1.3-14.6-2.7-29.2-8-43.3c-3.8-10-7.6-20-11.5-30c-3.6-9.3-9.4-17.5-13-26.8
	c-1.1-2.8-4.1-6.7-1.1-8.3c2.8-1.5,3.6,3.4,4.7,5.7c8.5,18.6,18.7,36.5,25.9,55.7c3.8,10.1,7.1,20.3,9,30.9c0.4,2.2,1.4,4.3,2.2,6.4
	c0.4-2.8-0.5-5.9,1.3-10.1c4.6,10,2.4,20.2,6.4,29.1c0.3-4,0.9-7.9,0.9-11.9c0-9.4-0.3-18.9-0.5-28.3c-0.2-9.6-0.3-19.2-3.5-28.5
	c-0.8-2.4-0.6-5.3-0.5-7.9c0.2-5.2,0-10.3-3-14.9c-1.1-1.6-1.1-3.5-1-5.3c0.5-7-2.9-12.4-6.4-18.2c-2.8-4.6-4.2-10-6.3-15
	c-6.4-15.7-13.4-31-23.1-45.1c-4.9-7.2-8.5-15.3-12.3-23.2c-2.4-4.8-5.8-9.2-6.7-14.7c-0.3-1.5-1.5-2-3.1-1.5
	c-6.6,2.4-13.3,4.5-19.7,7.2c-4.3,1.8-4.9,7.3-1.5,11.5c5.7,6.9,9.6,14.4,11.3,23.4c0.9,4.9,3.7,9.6,6.3,14
	c3.4,5.9,4.9,12.6,8.9,18.2c0.9,1.2,2.2,3.3,0.2,4.4c-2.2,1.1-2.8-1.1-3.7-2.7c-6.7-12-13.4-24.1-20.5-35.8
	c-2.8-4.6-4.1-9.7-6.1-14.6c-1.2-3-3.8-7.2-5.5-6.2c-2.7,1.6,0,5.5,1.4,7.9c5.4,9.5,8.2,20.1,13,29.7c2.4,4.9,4.9,10,8,14.6
	c0.9,1.3,1.5,2.5,2,4c0.3,1,0.7,2,0,2.8c-0.9,1.1-2.2,0.8-3.2,0.1c-5.2-3.5-11.4-5.1-16.4-9.2c-7.8-6.2-16.2-11.8-24.6-17.1
	c-6.8-4.3-10.9-11-16.4-16.5c-8.6-8.6-16.9-17.4-24.5-26.9c-2.4-3-4.5-6.1-6.6-9.3c-0.7-1.1-1.6-2.4-0.7-3.7
	c1.1-1.5,2.7-0.4,3.6,0.1c5.8,3.6,12,6.3,17.5,10.4c4.3,3.2,9.9,4.7,14.3,7.8c4.1,3,8.3,3.8,13.1,3.5c1.4-0.1,2.7-0.1,3.7-1.1
	c2.3-2.3,5.1-2.2,7.9-1.3c1.8,0.5,3.6,0.7,5.4-0.1c1.4-0.6,2.2-1.5,2.1-3.1c-0.1-2-1.7-1.7-3-1.8c-6.6-0.5-13.3-0.5-19.7-2.1
	c-7.8-1.8-9.8-9.5-4.4-15.6c5.4-6.2,11.9-11.5,16.4-18.5c2-3.2,4.6-5.1,8.5-1.8c2.1,1.7,3.3,0.5,3.4-1.9c0.1-7.7,0.3-15.4,0.3-23.1
	c0-1.3-0.5-2.6,0.3-3.8c4.1-6.2,3.6-13,2-19.7c-3.1-13-3.8-26.2-3.9-39.5c-1.7,0.1-1.9,1.7-1.9,2.5c-0.6,9.5-3.8,18.8-1.7,28.7
	c1.1,4.9,0.1,10.3,0.4,15.4c0.2,4.8,0.2,9.7,1.4,14.3c1.3,5-0.1,9.3-1.8,13.5c-1.3,3.1-3.4,1.8-4.7-0.4
	c-5.2-8.5-10.1-17.1-12.6-26.8c-1.4-5.4-3-10.9-5.9-15.8c-1.9-3.2-2-7.1-2.6-10.5c-2.1-11.5-3.7-23.2-4.3-34.9
	c-0.5-9.3-2.1-18.5-1.4-28c-2.5,3.1-3.7,7-3.9,10.6c-1.2,16.4-3.5,32.7-3.2,49.2c0,2.7-0.1,5.3,1.7,7.6c0.7,0.9,1.1,2.2,1,3.3
	c-0.2,2.9-1.5,6.2-4.1,6.5c-1.9,0.2-0.6-3.3-1.1-5.1c-1.3-4.4-2-8.8-2.5-13.4c-0.7-6.7-0.8-13.2,0.1-19.8c0.6-4.3,0.4-8.6,0.3-13
	c-0.2-15.4,1.6-30.3,8.6-44.5c7.7-15.7,14.5-32,25.8-45.6c7.3-8.8,8.9-19.3,10.6-29.9c0.2-1.4,0.6-2.7,1-4.3
	c-2.9,1.5-5.6,2.7-7.3,5.7c-1.2,2.3-3.3,3.9-5.7,5.3c-4.1,2.4-7.7,5.5-10.9,9.2c-4.5,5.2-9.3,10.2-14.3,15
	c-3.6,3.5-6.1,8.3-9.5,12.1c-6.7,7.6-10.7,17.1-16.7,25.2c-0.9,1.2-1.4,3.7-3.4,2.8c-2-0.9-0.7-2.9-0.2-4.4
	c5.2-15.3,11.9-29.6,21.2-43c6.1-8.8,13.9-16,20.7-24.1c4.6-5.5,11-9,16.7-13.1c1.3-1,2.7-1.8,3-3.7c-5.9,5-14.4,5.2-19.7,11.4
	c-1.9,2.2-4.9,3.3-7.4,4.7c-8.8,5-15.8,12.2-23.4,18.6c-0.9,0.8-1.5,1.9-2.9,1.3c-1.3-0.6-1.1-1.9-1.1-3.1c0-1,0.1-2,0.5-2.9
	c5.5-11.8,11.4-23.2,19.3-33.7c4.2-5.6,9.2-10.3,13.6-15.7c5.4-6.5,12.7-8,20-9.8c31.5-7.6,57-22.7,69.8-54.4
	c2.4-5.9,4.8-11.6,5.9-17.9c0.9-5,5.4-7.4,8.3-11c4.8-6.1,9.8-12,15-18.4c1.4,2.1,0.9,3.6,0.3,5.4c-5.2,14.7-10.1,29.5-12.7,44.9
	c-2.3,13.4-3.4,26.9-5.6,40.3c-2.6,15.9-5.1,31.7-8.3,47.5c-4.1,20.1-8.9,40.3-7.6,61.1c0.7,11.9,1.6,23.8,4,35.5
	c5.6,26.6,11.1,53.2,17,79.7c4.3,19.6,9,39.1,15.5,58c7.9,22.8,18.3,44.3,33.8,63.3c12.6,15.5,27.4,28.1,44.2,38.8
	c15.9,10.1,31,21.4,46.6,32c9.8,6.6,20.7,11,31.8,15c11.4,4.2,23.3,4.6,35.3,5.2c13.4,0.7,26.6,0.5,39.2-3.9
	c15.4-5.2,30.3-11.4,42.9-22.4c16.5-14.4,33.8-27.9,49.2-43.5c11-11.1,20.2-23.7,28.8-36.8c13.8-21,23-44.1,30.4-67.9
	c3.8-12.4,7.8-24.9,10.3-37.8c1.1-5.5,3.2-10.8,5.4-16c1.1-2.7,2.8-3.6,5.5-2c0.7,0.4,1.5,0.6,2.3,1c15.3,6.5,25.3,4.3,36.8-8.1
	c0.5-0.6,0.8-1.5,2.4-1.1c-0.2,3.6-0.9,6.9-3.8,9.4c-3.8,3.2-7.6,6.4-12.7,7.5c-1.4,0.3-1.6,1.5-2.4,2.3c-1.9,2-2.8,5.7-6.9,4.2
	c-0.8-0.3-1.4,0.4-1.5,1c-0.7,4.7-4.7,8-5.4,12.8c-0.3,2-1.1,4.1-3.3,4.7c-6.7,1.6-9.2,7.1-11.4,12.6c-1.7,4.5-2.9,9.2-4.1,13.8
	c-0.5,1.7,0,4.1-2.6,4.1c-2.2-0.1-2-2.2-2.2-3.9c0-0.4-0.4-0.8-0.6-1.4c-4.5,8.8-6.4,18.2-9.8,27.1c-0.3,0.7-0.6,1.8-0.3,2.3
	c6.2,10.5,4.3,23.4,10.3,33.9c5.5,9.6,12,18.6,19,27.2c8.8,10.8,20.7,16.9,32.9,22.5c8.7,4,18.1,6,27.7,7.6
	c11.4,1.9,22.8,3.9,34.3,4.9c11.8,1,23.2-1.4,34.7-4.2c5.9-1.5,11.7-3.5,17.6-5.2c4.5-1.3,8.1-3.2,7.6-8.8c-0.2-2.3,1.1-3,3.3-3.4
	c8.3-1.6,16.9-0.8,25-3.8c1.5-0.5,2.7,1.3,4.9,0.2c-4.3-3.9-4.1-9.9-7.1-14.3c-5.2-7.5-11.8-13.6-19.6-18.4
	c-1.3-0.8-2.6-1.6-3.5-2.7c-6.6-7.8-14.8-13.9-24-17.8c-16.8-7-33.1-15.5-51.1-19.1c-8.7-1.7-17.8-1.8-26.8-1.4
	c-4.3,0.2-3.3,2.4-1.7,4.5c2.8,3.5,5.9,6.8,8.9,10.1c0.9,1,2,1.8,2.8,2.9c1.4,1.8,3.1,4.3,1.7,6.1c-2,2.4-4-0.1-5.9-1.4
	c-6.8-4.7-13.3-9.7-17.9-16.8c-5.2-8-14.5-8.6-22.6-11.3c-2.4-0.8-4.8-1.4-7.1-2.2c-1.1-0.4-1.9-1.5-1.6-2.8
	c0.3-1.5,1.6-1.5,2.7-1.6c5.5-0.5,11,0.3,16.3,1.6c3.8,0.9,7.5,1.6,11.3,1.3c21.9-1.2,43.8,0.6,64.5,7.5c16.4,5.5,33.2,11.3,47.7,22
	c5.6,4.1,11.2,8,15.9,13.2c2.1,2.3,4.9,1.8,7.4,0.3c3-1.8-0.1-3.5-0.6-5c-1-2.8-1.9-5.6-2.4-8.6c-0.2-1.2-0.5-3,0.9-3.6
	c1.5-0.7,3.2,0.2,3.9,1.5c3.9,7.4,11.8,12.1,13.8,20.8c0.7,3.1,2.4,5.8,4.1,8.5c2.4,4,4.4,8,4.1,13c-0.2,3,0.9,5.9,3.4,8.4
	c4.5,4.6,8.4,9.8,12.4,14.9c2.2,2.9,4.1,6.1,2.3,10.1c-1.3,2.9,0.4,5.2,2.2,7.1c9.5,10.4,17.2,22.1,24.9,33.9
	c7.3,11.1,14.3,22.3,20.1,34.3c11,22.9,22.9,45.3,32.4,68.9c2.9,7.2,4.6,14.8,6.8,22.2c-3,0-6,0-9,0c-7.3-12.5-12.7-25.8-18.9-38.9
	c-7.8-16.7-15.5-33.4-23.7-49.9c-6.2-12.4-12.8-24.7-20-36.6c-7.5-12.3-15.6-24.2-22.7-36.7c-2-3.5-4.1-6.9-7.2-9.4
	c-6.7-5.5-13.4-10.6-23.1-9.4c-6.1,0.7-12.1,2.1-18.2,2.1c-4.3,0-5.9,2-5.7,5.6c0.5,13.8-0.9,27.5-3,41.1c-0.2,1.7-1,4.1,1,5
	c1.8,0.8,3.9-0.3,5.3-1.8c2.2-2.3,4.3-4.7,6.8-7.4c1.1,3.5,1.2,6.4-0.2,9.2c-6,12-11.4,24.4-18.4,35.7c-4.9,7.8-8.5,15.4-7.4,24.4
	c1.2,9.7,1,19.5,2.6,29.2c0.7,4.5,2.3,5.8,6.3,5.3c7.5-1,15.1-2,22.6-3.2c2.3-0.4,5.8-1.8,6.2,0.3c0.6,2.7-3.3,3.7-5.6,4.4
	c-7.1,2.2-14.3,4-21.6,5.7c-3.8,0.9-4.8,2.2-4.3,6.5c0.7,6.5,4.5,12.1,4.3,18.7c-81.3,0-162.7,0-244,0c-0.8-2.8-0.4-5.7,1.2-7.7
	c3.3-4.2-1.7-7-1.1-10.6c-1,1.1-2-4.2-3.1,0c-0.3,1.3-1.5,0.6-1.8-0.1c-2.5-5.4-5.6-10.6-7.3-16.3c-3.2-10.8-5.6-21.8-5.3-33.1
	c0-1.1,0.2-2.5-1.7-2.4c-3.4,0.2-3.3,0.3-2.4-3.2c3.2-12.7,7.8-25,11.1-37.6c5.4-20.4,12.3-40.5,15.1-61.7c-3.1-0.8-4,2.5-5.9,4
	c-9.9,7.5-19.6,15.2-28.5,24c-15,15-33.3,24.3-53.5,30.2c-16.7,4.9-33.8,5.5-50.9,4.6c-12.2-0.7-24.4-2.8-35.4-9
	c-5.2-2.9-10.2-6.5-15.7-8.5c-13.3-4.8-24.7-12.8-36-20.9c-12.9-9.2-26-18.3-37.9-28.8c-9.4-8.3-20-15.2-27.6-25.4
	c-3.1-4.2-6.4-8.3-9.7-12.6c-1.7,4.1,1.4,7.2,1.5,10.7c0.4,12.4,5.4,23.6,9.6,34.8c5.8,15.5,12.8,30.5,19.4,45.7
	c6,13.8,11.9,27.7,18.4,41.3c10.9,22.5,22.3,44.8,33.5,67.2c0.7,1.5,2.1,2.9,0.9,5.9c-18.1-28.2-33.8-56.9-50.3-86.4
	c-0.2,1.8-0.4,2.3-0.2,2.7c6.9,19.2,14.8,38,22.2,57c4.8,12.2,11.1,23.7,15.2,36.2c-1,0-2,0-3,0c-5.4-10.4-10.8-20.8-16.1-31.2
	c-0.4,0.2-0.8,0.4-1.2,0.6c3.1,10.2,6.2,20.4,9.4,30.7C485,720.9,454.6,720.9,424.3,720.9z M363.8,267.1c-5.3,5.9-8.1,5.8-12.7,0.3
	c-1-1.2-3.8-3.6-3.9-0.8c-0.3,5.8-4.5,11.5-1.4,17.5c0.8,1.7,1,3.2-0.4,4.6c-2.4,2.3-2.3,5.5-1.7,8c1.3,6-0.3,12,2.3,18.1
	c2.9,7,1.7,15.6,7.3,21.7c5.1,5.7,8.6,12.6,13.1,18.8c8.4,11.5,18.6,15.4,32.4,12.5c3.1-0.7,5.3-2.7,7.4-4.5c1.3-1.1-1.4-3-1.7-4.7
	c-0.1-0.7-0.4-1.4-0.2-2c2.4-8-1-15.4-2.1-23c-1.4-9.5-4.4-18.7-5.2-28.3c-0.2-2-1.2-3.6-3.2-4.7c-1-0.5-3.2-2.3,0.3-3.2
	c2.2-0.6,2.5-2.3,0.8-3.7c-2-1.6-1.3-3.3-1.2-5.3c0.3-6.2,0.1-12.5,0.1-20.1c-2.7,3.7-6.8,5.4-6.8,9.2c0,5.3,0.8,10.7,2,15.9
	c1.2,5.7,4.2,11,4.6,17c0.3,3.9-4.3,10.7-7.2,10c-8.7-2.3-16.7-6.7-21.5-14.2c-3.3-5.2-4.8-11.9-4.6-18.4c0.1-4.4,0.1-9.2,2.9-12.9
	C365,272.2,365.1,269.9,363.8,267.1z M814.7,480c-2.4,1-2,3.4-2.1,5.5c-0.5,8.9,2.4,17.3,3.4,25.9c1.2,11,3.8,21.4,7.8,31.5
	c4.6,11.7,11.1,22.5,16.1,34c0.3,0.7,1.1,1.4,1.8,1.5c6.2,1.3,9.8,6.6,12.2,11c5.6,10.4,16.3,14.3,24.5,21.1
	c7.6,6.2,17.7,9.5,27,13.5c4.9,2.1,10.3,4.4,15.4,4.4c11-0.1,21.1,4.7,32.3,3.8c6.4-0.5,13.2,0.3,19.8,0.4c-0.7-0.2-1.5-0.1-2.1-0.4
	c-7.9-3.6-16.8-2.8-25.1-5.1c-6.3-1.7-13.4-3.1-19.7-4.9c-19.2-5.4-35.8-15.9-50.3-29.8c-2.1-2-4.7-3.6-7-5.5
	c-6.3-5.1-10.9-11.9-16.8-17.3c-10.3-9.4-16.8-21.3-22.5-33.6c-3.5-7.6-4.5-16.3-7.3-24.1C818.3,501.4,820,490.1,814.7,480z
	 M933.4,649.3c-3.3-2.7-5.9-4-9.3-4.3c-2.7-0.2-5.4-1.4-8-2.5c-6.5-2.7-13-5.5-19.5-8.4c-7.2-3.3-15.9-3.9-21.3-10.8
	c-1.9-2.4-4.5-3.8-7.2-5.1c-9.5-4.8-15.8-13.1-22-21.1c-4.9-6.3-10.3-12.4-13.8-20.2c-3.1-6.8-7-13.4-10.2-20.3c-2-4.4-4.6-8.6-5-14
	c-0.2-3-3.9-5.9-4.2-9.7c-0.1-1.1,0.5-3.2-1.6-2.9c-1.4,0.2-1.9,1.9-1.7,3.3c0.9,7.2,1.3,14.5,3.2,21.4c1,3.7,0.8,7.7,2.5,11
	c4.1,8.3,6.9,17.1,10.4,25.6c3.5,8.4,10.4,13.7,14.7,21.1c1.1,2,3,4.3,5.3,5.8c7.3,4.7,14.5,9.7,22.1,14c7.7,4.4,15.5,9,25,8.5
	c1.5-0.1,2.8,0.6,4.2,1.3C908.1,647.7,919.9,650.5,933.4,649.3z M756.2,694c2.3-1.2,2.6-2.8,2.8-4.4c1-8.7,5.3-17.2,1.7-26.2
	c-0.4-1,2.1-2.4-0.3-3.2c-1.3-0.4-1.6,0.8-2.1,1.6c-4.3,7.9-5.5,16.5-6.7,25.4c1.7-0.7,1.1-3.2,2.8-2.9c1.7,0.3,1.1,2.1,1.2,3.4
	C755.8,689.6,756,691.5,756.2,694z M367.3,261.6c0.5-0.4,1.1-0.7,1.4-1.1c1.7-2.4,1.7-17.3,0.3-19.8c-1.6-3-4.5-2.4-6.4-1.8
	c-3.2,0.9-1.6,4.2-1.8,6.5c-0.2,2.3,1,3.5,3.3,3.3c4.4-0.5,4.9,2.1,4.7,5.5C368.5,256.5,368.3,258.9,367.3,261.6z M235.3,720.9
	c-0.7-7.4-1.5-14.8-2.1-22.3c-0.1-0.9,0.1-2.1,0.5-2.9c2.6-4.7,2.7-9.8,3.3-14.9c0.3-2.8-0.9-6.9,4.9-4.7c2.3,0.9,2.2-2,2-3.5
	c-0.4-3.3-1.4-6.5-1.8-9.8c-1.8-15.9-6.4-31.1-11.7-46.1c-3.4-9.5-8.1-18.4-10.8-28.2c-1-3.8-3.3-4.2-6.1-1.4
	c-7.8,7.7-11.7,17.1-11.9,28.1c0,2.8,0.5,5.6-0.7,9c-5.2-7.5-9.2-14.9-9.9-23.8c-1-12.5,0.7-24.5,7.3-35.4c1.3-2.1,2.5-4.3,0.9-6.4
	c-1.9-2.5-4.1-0.6-6.3,0.1c-3.2,1-6.2,3.1-9.9,3.1c-0.3-2.2,1-3.3,1.8-4.7c6.3-10.7,13.6-20.9,18.3-32.4c3.7-8.8,8-17.5,8.9-27.3
	c0.4-4.3,2.8-7.5,7.5-8c8.7-0.9,16.9-5.2,25.9-4.2c1.8,0.2,3.8-0.8,4.1-2.3c1.3-5.1,8-7.3,6.3-14.2c3.3,1.8,4.4,4.2,5.5,6.5
	c5.7,11.6,11.4,23.2,16.8,35c1,2.1,2.7,3.3,3.8,5.1c2.1,3,1.7,5.4-2,5.7c-8,0.8-12.4,7.5-18.7,10.9c-8.7,4.6-14.4,12.5-20.9,19.3
	c-4.8,4.9-9.1,11.1-12.1,17.8c-1.6,3.7-4.7,6.4-4,11.2c0.6,4,2.2,7.2,4.3,10.4c0.8,1.2,1.9,1.9,3.4,1.4c1.5-0.5,2-1.8,1.8-3.2
	c-0.7-4.6,1.6-8,4.1-11.4c4-5.4,5.2-12.2,8.8-17.8c0.4-0.7,0.6-1.6,1.2-2.1c7.8-7.1,14.2-15.7,21.1-23.6c4.5-5.1,9.7-8.1,15.5-10.9
	c2.4-1.1,3.6-0.6,5.4,1.1c7.6,6.8,14.3,14.6,23,20.2c8.6,5.5,17.1,11.3,26.8,14.8c4,1.4,8.1,2.2,12.2,3.3c0.6-2.3-1-2.4-1.9-2.9
	c-9.5-5-19.6-9-28.3-15.4c-6.4-4.7-13-9.1-18.3-15.3c-0.9-1-2.1-2.3-0.8-3.4c1.6-1.4,2.1,0.8,2.9,1.5c10.4,8.7,21.4,16.4,33.6,22.3
	c11.3,5.5,21.7,12.7,33.5,17.2c4.4,1.7,4.5,7.1,6.4,10.7c5.2,9.7,10,19.8,14.2,30c3.6,8.8,5.9,18.2,9.4,27.2c3,7.7,4.1,16,8.2,23.4
	c1.8,3.4,1.3,7.7,2.5,11.6c4.3,13.6,5.7,27.7,6.3,42c0.1,3.1,1.7,6.2,0.7,9.4C358.6,720.9,297,720.9,235.3,720.9z M316.7,559.3
	c-3.7-0.9-7.8-2.3-11.1-0.2c-5.7,3.6-13.2,4.3-17.1,10.8c-0.3,0.6-1.5,0.6-2.3,1c-7.7,3.8-15.4,7.5-21.8,13.4
	c-1.6,1.4-3.1,3-4.6,4.5c-0.6,0.6-1.2,1.3-2.1,0.6c-0.7-0.6-0.5-1.5-0.1-2.3c1.7-3.6,3.9-6.8,6.7-9.6c3.1-3,5.9-6.3,7.8-10.2
	c0.5-1.1,1-2.1,0-3.2c-0.9-1-2.4-1.2-3.2-0.4c-5,5.4-11.9,8.4-16.8,14.3c-4,4.7-7.9,9.4-11.4,14.5c-3.1,4.4-8.1,8.2-3.9,14.9
	c4.1,6.5,4.8,14.4,7.6,21.5c0.4,1-0.2,2.7,1.5,2.6c1.3,0,1.9-1.4,2.2-2.5c1.3-5.4,4.9-9.6,7-14.5c4.9-11.6,15.4-18.6,23.3-27.7
	c4-4.5,8.7-9.6,15.6-10.9c0.8-0.2,1.5-1.3,2.2-1.9c5.6-5.3,13.3-7.9,18.1-14.2C314.8,559.4,315.9,559.5,316.7,559.3z M1280.3,532.9
	c-12.5-15.6-25.7-30.4-40.2-44.2c-12.2-11.7-24.5-23.2-37.6-33.9c-16.3-13.3-35.5-22.7-49.9-38.5c-1-1.1-2.5-2.4-3.8-0.8
	c-1.8,2.1,0.2,3.7,1.6,5c15.5,14.3,30,29.6,46.7,42.5c9.3,7.2,18.3,15,26,23.9c4.8,5.6,11.2,9.1,16.2,14.4
	c4.6,4.9,8.9,10.8,14.8,13.9c10.2,5.3,17.9,13.3,26.2,20.7C1280.3,534.9,1280.3,533.9,1280.3,532.9z M421.9,5.3
	c0.8-1.1,1.9-2,1.3-3.5c-0.7-1.6-2.3-1.2-3.5-1.2c-13.2,0-26.3,0-39.5-0.1c-2.2,0-3.3,0.9-4.7,2.7c-6.6,8-12.2,16.9-20.9,23
	c-0.6,0.4-0.9,1.3-0.1,2.9c11.1-6.3,20-15.4,29.8-23.2c-0.1,1.1-0.3,1.9-0.8,2.5c-7.1,9-15.9,16.4-24.4,23.9
	c-11.5,10.3-25,17.9-37,27.6c-4.7,3.8-10.4,6.6-14,11.6c-0.8,1-2.6,2.2-1.3,3.8c1.1,1.3,2.5,0.1,3.7-0.2c9.4-3,18.2-7.6,27.4-11
	c10.8-4,21.9-8.8,29.5-18.5c0.9-1.2,2.4-1.9,4.3-3.2c-2.6,7.3-8.1,11.4-12.2,16.5c-4.2,5.2-9.7,8.7-14.8,12.1
	c-10.3,6.8-21.6,12-32.2,18.4c-5,3-10.7,5.6-14.1,10.5c-2.7,4.1-4.8,8.7-7.7,12.7c-0.6,0.9-1,1.7,0.3,2.7
	c11.3-7.7,23.8-13.5,36-19.7c10.9-5.5,21.9-11.1,31.8-18.5c4.7-3.5,9-7.5,13.7-12c-0.1,2.9-0.6,4.8-1.7,6.4
	c-6.4,9.1-13.1,17.9-22.1,24.6c-8.2,6.1-16.6,11.8-25,17.6c-7.4,5.2-14.9,10.3-22.1,15.8c-8.6,6.6-13.7,15.2-19.8,23.5
	c-0.7,1-1.2,2.2-0.2,3.2c1.1,1.1,2.4,0.9,3.7,0.2c9.3-5.5,19.5-9,29.3-13.4c6.5-3,13.2-5.7,19.8-8.5c0.2,0.4,0.5,0.9,0.7,1.3
	c-7,3.7-12.2,9.8-19.3,13.4c-2.4,1.2-5.7,3.1-5,5.5c0.8,2.8,4.2,1.2,6.5,0.6c8.6-2.4,17.1-4.7,26.2-7.3c-2.4,2-4.7,2.9-7,3.8
	c-6.4,2.4-12.6,5.1-18.9,7.7c-1.5,0.6-2.8,1.5-2.1,3.3c0.7,1.7,2.2,0.9,3.5,0.6c3.3-0.6,6.5-0.6,9.8-1.4c7.3-1.9,14.8-3.6,22.2-4.8
	c10.9-1.7,20.2-6.8,29.3-12.7c10.7-7,16.9-17.9,24.6-27.5c1-1.2,2.4-3,1-4.4c-1.6-1.5-2.8,0.3-4.1,1.3c-9.3,7.1-18.9,13.6-30,17.7
	c22.9-15.7,42.5-34.4,54.8-60.1c-2.5-0.7-3.2,0.8-3.9,1.7c-4.1,5-8.4,9.8-13.4,13.8c-3.5,2.7-7.1,6.6-11,7.2
	c-5.5,0.7-9.9,3.2-14.6,5.5c-1.6,0.8-3.2,1.4-4.8,2.1c4.5-3.6,8.7-7,12.8-10.6c5.6-4.9,11.8-9.3,16.7-14.8
	c6.9-7.7,10.2-17.7,14.6-26.9c0.5-1.1,1-2.4-0.2-3.1c-1.1-0.7-1.6,0.7-2.3,1.4c-6.4,5.6-12.7,11.3-19.1,16.9
	c-0.1-1.4,0.4-2.4,1.1-3.2c7.1-9.3,14.6-18.4,20-28.8c3.2-6.2,7.5-11.5,11.7-17c2.9-3.8,6.9-6.6,9.3-10.8c0.9-1.5,2-3.4-0.6-3.9
	c-3.2-0.6-6.9-1.5-9.6,0.7c-5.2,4.3-11.3,7.4-15.8,12.7c-2.2,2.7-5.2,4.8-8.1,7.4C412.2,14.9,417.9,10.8,421.9,5.3z M906.8,322.6
	c-1.2,8.3-1.7,16.7-3.7,25c-2.7,11.3-6,22.4-10.4,33.1c-1,2.4-4.2,5.7-1.8,7.5c2,1.5,4.7-2,6.8-3.8c11-9.4,20-20.8,29.3-31.7
	c6.1-7.1,11.1-15.4,15.5-23.7c5.7-10.7,9.3-22.2,7.2-34.8c-1-6.1-0.4-12.5,1.7-18.2c2.6-7.2,4.6-14.5,6.5-21.8
	c3.9-14.8,3.9-29.5,1.4-44.3c-3-18.3-2.8-37-5.8-55.3c-0.7-4.5-1.8-8.9-5-12.4c-0.5,1.3-0.7,2.5-0.5,3.6c3.2,17.9,2.2,35.7,0.1,53.6
	c-1,8.7-2.4,17.3-4,25.9c-2,10.6-4.9,21-8.1,31.1c-6.5,20.8-16.5,40.5-22.4,61.6c-0.1,0.4-0.6,0.6-1,1.1c-0.2-1.5-0.4-2.8-0.6-4.7
	C909,316.8,907.3,319.2,906.8,322.6z M578.7,218.4c-5.1-5.2-9.6-11-14-16.8c-5.1-6.7-11.7-12.8-20.1-13.6
	c-12.1-1.2-24.6-2.2-36.4,1.8c-5.6,1.9-10.5,2.3-15.6-0.9c-1.1-0.6-2.6-1.6-4.3-0.7c0.1,2.1,1.8,3.1,3.3,3.9c3.7,2,2.8,3.1-0.4,4.6
	c-5.2,2.6-9.2-0.2-13.6-2.3c-0.9-0.4-1.7-2.2-2.9-0.9c-1.1,1.3,0,2.5,0.8,3.5c0.4,0.5,1.1,0.9,1.4,1.4c0.7,2,4.8,0.9,3.9,3.5
	c-0.9,2.9-4.4,1.4-6.6,2.3c-0.8,0.3-1.9-0.6-2.9-0.5c-3.4,0.2-6.3-2.4-10-2c1.3,3.8,4.7,4.4,7.1,6.4c1.1,0.9,4,0.7,3,3.1
	c-0.8,2.1-2.8,3.1-5.3,2.7c-4-0.6-8.4,0.2-11.8-3c-0.6-0.5-1.4-1.1-2.2-0.3c-1.1,1-0.1,1.8,0.4,2.6c2.1,3.1,4.6,5.3,8.5,6.2
	c2.2,0.5,5.3-0.8,6.8,2.4c1.9,4.1,5.2,4.2,8.6,2.2c2.7-1.6,3.3-0.6,3.7,2c0.4,2.7,1.7,5.1,4.6,6c1,0.3,2.2,1.5,3.1,0.2
	c0.7-1-0.3-1.8-0.9-2.6c-1.7-2-2.7-4.1-2.1-6.9c2.3-10.1,10-14.2,20.1-17.9c-5.1,5.8-5.5,11.5-6.3,17.5
	c-1.6,11.9,12.4,21.4,22.9,19.8c1.4-0.2,2.5-0.8,2.8-2.4c0.2-1.6-1.2-2-2.1-2.4c-1.5-0.7-3.1-1.6-4.7-1.5c-3.4,0.1-6-1-7.8-3.7
	c4.2,0,8.9-1,12.7,0.3c3.3,1.1,4.8-0.3,6.7-1.6c3.1-2,4.3-5.4,5.4-8.6c0.9-2.6,2.7-5,5.3-4.2c2.6,0.8,3.2,3.7,2.6,6.7
	c-1,4.7-2.7,9-6.2,12.7c3.3,1.2,4.4-0.9,5.5-2.3c3.9-5.3,4.7-11.2,3.2-17.5c-0.3-1.1-0.9-2.4,0.3-3.2c1-0.6,1.9,0.3,2.7,0.8
	c3.8,1.8,6.8,4.8,10,7.3c5.2,4,10.5,7.8,9.1,15.7c-0.1,0.5,0.3,1.3,1.2,1.3c3.1-6.4,2.7-9.1-1.7-14c-0.9-1-1.8-1.9-2.8-2.8
	c-10.1-9.9-19.6-20.7-34-24.9c-1.5-0.4-3.5-0.9-4.3-3.4c11.7,0.1,22.8,0.4,31.3,9.3c6.5,6.9,15,11.2,22.4,17.8
	C579.9,219.5,579.2,219,578.7,218.4z M727.6,216.6c-8.6,16.2-3,23.8,4.6,30c5.9,4.8,10.9,5.6,14.6,2.7c-2-0.7-3.9-1.2-5.7-1.9
	c-6.8-3-11.6-7.8-13.3-15.1c-0.7-3.1-0.2-6.7,3.4-7.3c3.1-0.5,4.5,1.9,5.1,5.3c1,6.4,6.1,10.1,12.4,10c5.9-0.1,7.3-1.5,9.1-9.4
	c0.2-1,0.7-1.9,0.7-2.9c-0.1-1.5-0.7-3.2,1.5-3.5c2-0.3,3.5,0.7,4.2,2.7c1.3,3.6,1.4,7.1-0.1,10.7c-0.4,0.9-1.2,2-0.1,2.7
	c1.3,0.8,2.2-0.4,2.8-1.3c2.3-3.4,2.7-7.2,2.8-11.4c0.2-4.4-3.5-7.2-4-11.4c17.2,5.1,22.2,13.7,16.3,27.5c4.5-0.3,5.5-3.4,5.7-6.8
	c0.3-4.8,2.1-6.9,7-4.7c0.6,0.3,1.2,0.5,1.9,0.6c7.2,1,15.4-0.4,17.1-7.8c-4.9,0-9.7,0-14.8,0c0.4-0.4,0.6-0.7,0.8-0.8
	c3.3-0.4,8.6-5.2,7.6-7.2c-1.7-3.5-4.3,1.3-6.4-0.3c-0.1-0.1-0.3,0.1-0.5,0.1c-0.9,0.2-2.1,0.9-2.6-0.3c-0.4-1.1,0.5-1.9,1.4-2.4
	c1.3-0.8,3-1.8,2-3.4c-0.9-1.5-2.3,0-3.5,0.3c-6.1,1.4-7.6,0.1-6-5.5c-4.1,0-8.2,1.9-12.2-0.2c-8.4-4.1-17.2-6.9-26.4-8.6
	c-13.1-2.5-26-3.9-35,9.2c-3,4.4-7.4,7.8-10.2,14c4.7-2.9,8.2-5.5,10.8-8.7c10-12.2,26.9-11.6,39.5-7.6c-22.3-4.7-36,8-48.4,23.3
	C715.1,223,720.7,219.2,727.6,216.6z M1094.6,354.2c-7.6-9.4-14.4-19.4-21.8-28.9c-9.2-11.9-12.1-26.9-20.5-39.2
	c-5.2-7.5-8-16.7-12-25.1c-8.3-17.1-13.3-35.5-21.7-52.6c-4.9-9.9-9.4-20.1-13.2-30.5c-3.2-8.7-7.1-17.2-9.3-26.1
	c-2-8.2-4.6-15.8-9.3-22.8c-2.4-3.6-4.5-7.3-6.2-11.3c-4.7-11.3-9.8-22.5-14.7-33.8c-0.5-1.1-0.9-3-2.5-2.6c-1.8,0.5-1.3,2.5-1,3.8
	c1.3,4.9,3.2,9.7,4.8,14.5c3.9,12.1,8.4,24.1,12.8,36c1.6,4.2,1.5,8.4,0.7,12.7c-1.3,7.1,0.7,13.9,1.9,21c2.7-1,1.9-3.2,2.8-4.5
	c0.8-1.2,0.9-3.3,2.6-3.3c1.7,0.1,1.8,2.1,2.3,3.4c6.3,16.8,14.1,32.9,21.8,49.1c6.2,13,11.6,26.4,17.7,39.4c2.3,4.9,5,9.6,6.4,14.9
	c0.2,0.6,0.8,1.6,1,1.6c5.1-1.1,2.7,3,2.8,4.6c0.1,4.1,0.1,8.6,3.7,10.9c5.7,3.6,6.6,9.7,9.2,14.8c2.7,5.5,3.8,11.7,6.7,17.1
	c3.7,7,7.2,13.7,14.2,19.1c8.4,6.4,14.3,16,21.3,24.1c1.9,2.2,3.8,4.4,8.2,5C1099.8,361.3,1097.3,357.7,1094.6,354.2z M781.5,162.3
	c-7.9,0-15.2,3.2-22.9,4.2c-13.9,1.8-27.9,3.2-41.8,5.3c-6,0.9-11.3,3.8-14.2,9.8c-2.3,4.7-1.5,6.1,3.8,5.5
	c4.8-0.6,9.6-0.9,14.4-0.9c18.2,0.2,36-2.5,53.7-6.4c5.2-1.1,10.5-3.4,16-1.5c3.7,1.2,7.5,1.2,11.3,1.4c6.8,0.4,13.6,0.4,19.4,4.9
	c1,0.8,2.8,2.3,3.9,0.5c0.8-1.3-0.5-2.8-1.5-3.9c-3.9-4.3-8.8-7-14.3-8.7c-6.1-1.9-12.7-2.5-17.5-7.6c-2-2.1-5.4-2.4-8.6-3
	C782.7,162,782.1,162.3,781.5,162.3z M574.3,181.1c2.4-0.1,3.6-1.2,1.7-3.4c-8.5-9.7-18-17.4-31.6-18.6c-15.9-1.4-31.7-3.8-47.6-5.3
	c-5.9-0.6-12-2-17.9,1.4c-4.2,2.5-9.1,3.8-13.6,6c-4.6,2.2-9.3,4.6-12,9.3c-0.5,0.8-1.2,1.8-0.6,2.8c0.8,1.1,1.7,0.1,2.6-0.2
	c6.9-2.3,13.7-5.1,20.7-6.5c6.7-1.3,13.7-1.5,20.6,0.8c6.4,2.1,13,3.8,19.6,4.8c9.5,1.3,18.9,3.3,28.4,4.7c8.6,1.3,17,4.6,25.9,3.8
	C571.7,180.8,573,181.2,574.3,181.1z M853.1,243.8c0.3,5.2,3.8,9.7,8.3,11.7c6.4,2.9,13.3,3.2,20.3,0.9c2.9-0.9,3.5-2.8,2.7-4.8
	c-2-5.3-2-11.1-3.6-16.4c-3.5-11.4-6.8-22.8-11.1-33.9c-3.6-9.2-7.6-18.2-15.1-25.4C854.6,198.7,852,221.2,853.1,243.8z
	 M701.5,469.4c-2.7,0.9-5.4,1.8-8.1,2.6c-8.3,2.4-16.4,4.3-25.4,3c-8.5-1.2-17.4-1.9-25.9,1.6c-3.6,1.5-7.3,1.3-11.1-0.4
	c-2.8-1.3-6.2-2.3-9.1-2c-10.7,1.1-21.3,1-31.8-0.7c-7.4-1.2-15.5-1-21.9-5.7c-2.9-2.2-5.8-2.4-8.9-1.8c-3.4,0.6-6.7,1.8-10,2.9
	c-1.8,0.6-4.3,1.2-4,3.7c0.3,2.4,2.7,2.8,4.7,2.7c3.9-0.2,7,1.4,10.2,3.5c5,3.3,9.2,7.8,14.9,10.1c1.5,0.6,3.1,2.3,4.5,0.8
	c1.5-1.5-0.3-3.1-1-4.4c-3.3-6.4-2.4-8.3,4.7-7.7c12.2,1,24.4,2.4,36.8,2c1.2,0,2.6,0.6,3.7,1.3c5.7,3.6,12,3.6,17.8,1.7
	c8.1-2.7,16.2-3,24.5-3.3c9-0.3,18.3,0.2,27-3c5.5-2,11-3.6,16.8-4.1c1.6-0.1,3.7-0.4,4.8-2.7C707.6,467.4,707.6,467.4,701.5,469.4z
	 M828.8,33.4c-4.5-7.4-9.8-14.1-15.1-20.8c-5.6-7-11.2-14.5-22.4-12.2c-4.1,0.8-4.1,2.3-2.2,4.7c5.4,6.6,9.3,14.1,14.1,20.9
	c5.1,7.1,10.4,14.1,15.2,21.4c3.5,5.3,6.9,10.8,10.7,16c1,1.3,2.1,2.4,4.2,1.6c-4.5-8.6-8.8-16.8-13.1-25.1c6,2.8,10,7.5,15.3,10.8
	C833.1,44.9,832.1,38.8,828.8,33.4z M272,84.1c-18.3,15.3-32.4,33.6-39.7,56.6c-1.3,4-2.4,8.3-2.6,12.5c-0.5,9.5,2.6,18.6,4.6,27.7
	c0.8,3.7,2.7,7.3,5.5,10.4c1.5-2.3,0.3-4.1-0.2-6c-2.6-10.6-2.9-21.3-1-32.1c2-11.6,7.4-21.8,12.8-32.1c7.2-13.6,14.7-27,25.7-38
	c1.2-1.2,3.5-1.7,3-4.6C276.4,79.1,274.5,82,272,84.1z M312.5,440.7c0.5-7.5-3.7-13.9-7.5-19.3c-4-5.7-6.5-12.3-10.8-17.8
	c-1.2-1.5-1.2-4.4-3.7-3.9c-2.5,0.4-1.4,3-1.4,4.6c-0.1,8.8,2,17.4,4,25.9c0.7,3.1-0.2,6.8,1.6,9.2c4.1,5.3,4.8,12,8.1,17.5
	c1,1.6,0.7,4.3,2.4,5.3c3.2,1.8,2.7-2.5,4.4-3.2c0.3-0.1,0.6-0.5,0.9-0.5c4.5,0,4.3-3.1,4.1-6.5
	C315.5,448.1,312.2,444.9,312.5,440.7z M243.1,202.1c-2.6-0.9-4.4,1.7-6.5,3c-0.3,0.2-0.4,0.5-0.6,0.8
	c-10.8,13.8-21.4,27.7-31.4,42.1c-2,2.8-3,6.2-5.2,9c-6.4,8-11.7,16.8-17.4,25.3c-0.7,1-2,2.4-0.6,3.4c1.3,1,2.3-0.5,3.3-1.4
	c6.2-5.9,10.8-13.3,15.6-20.3c11.6-16.9,24.5-32.8,38-48.2c0.5-0.6,0.8-1.9,1.7-1.6c6.5,2,4.3-3,4.9-6.2
	C243.9,206.3,246,203.1,243.1,202.1z M34.7,626.6c-1.8,0-3.7,0.1-5.5-0.2c-1.8-0.3-2.6,0.6-2.8,2c-0.5,5.4-4.7,8.5-7.9,12
	c-3.4,3.6-8.4,6.1-5.7,12.4c0.2,0.4,0,1-0.2,1.4c-2.9,5.9-5.1,12.5-9.8,17.1c-4.3,4.1-2.3,7.7-2.5,11.9c1.7-0.1,2.1-0.9,2.5-1.6
	c6.8-10.2,13.5-20.4,20.3-30.4c5.1-7.5,9.8-15.1,12.5-23.9C35.4,627.1,35.1,626.8,34.7,626.6z M224.1,653.1
	c-2.1-11.2-1.6-22.7-4.3-33.9c-0.7-3.1-1.3-5.7-4-7.5c-7.7,14.2-2.4,50.2,9.2,56C222.5,662.4,225,657.7,224.1,653.1z M865.2,66.5
	c-9.5-16.7-16.1-34.8-23.8-52.4c-1.7-4-4-7.6-5.9-11.4c-1.3-2.6-4-2.7-6.1-1.6c-2.4,1.2,0.1,2.8,0.5,4.2
	c3.3,10.4,7.7,20.2,13.7,29.5c7.2,11.1,13.4,22.8,20.3,34.1c1.6,2.6,3,5.8,7,6.4C869,72.3,866.9,69.5,865.2,66.5z M963.2,153.4
	c5.6-16.6-23.9-73.3-35.3-81.2C939.8,99.8,956.5,124.4,963.2,153.4z M272.4,177c-4.6,2.7-9.3,5.1-13.4,8.4
	c-6.2,4.9-10.4,10.8-10.7,19.1c-0.1,1.7,0.3,3,1.4,4c0.8,0.7,1.4-0.1,2-0.7c6.4-6.5,12.8-12.9,19.1-19.6c2.3-2.4,3.8-5.5,4.5-8.8
	c0.3-1.4,0.1-2.7-1.7-3.1C273.3,176.5,272.8,176.7,272.4,177z M609.9,370.9c-1.6-1.8-4.3-2.9-7.2-1.3c-4.3,2.3-3.5,5.8-2.7,9.4
	c0.7,3.1,2.1,5.5,5.1,6.8c0.3,0.1,0.7,0,1-0.1c3.8-2.2,6.5,0.3,9.4,2.2c2.5,1.6,4.6,4.3,8.6,3.9C620.3,383.9,615.5,377,609.9,370.9z
	 M253.8,352.8c-0.9-2.6,1.5-7.2-2.6-7.5c-4.8-0.3-3.1,4.7-3.5,7.4c-1.1,6.9-3.4,13.9,1,20.6c1.1,1.6,1.9,4.2,4.2,3.4
	c2.1-0.7,3.7-2.7,3.8-6.1C252.9,365.5,255.9,358.8,253.8,352.8z M155.4,511c1.1,0.1,2.2-0.5,1.8-1.7c-0.7-2.3-3.3-2.5-4.9-3.9
	c-1.6-1.4-2,0.6-2.7,1.7c-2.2,3.6-6.4,7.2-9.2,7.7c-6.6,1.1-9.4,5.5-12.7,9.9c-1.4,1.9-3.5,3.6-2.2,6.5c2.1-1,3.9-2.2,5.9-2.8
	c2.2-0.7,3.7-2,3.6-4.2c-0.2-4.3,0.3-5.6,3.3-1.3c0.5,0.7,1.3,0.6,1.7,0.1c3.7-4.3,10.8-5.8,11-12.9
	C152.6,510.5,154,510.9,155.4,511z M79.5,563.9c-4.6,1.9-8.9,6.3-9.7,9.9c-0.9,4.3-2.3,7-5.4,9.6c-0.8,0.7-1.6,2-0.7,3.1
	c0.8,1,2.3,1,3.2,0.3c7.2-5.2,15.5-9.7,15.3-19.4C83.5,563.3,81.2,563.2,79.5,563.9z M865.6,313.9c3.1-6.4,2.2-14.5-1.7-18.2
	c0,2.3-0.3,4.2,0.1,5.9c1.4,6.1-1.8,10.9-4.3,15.9c-1.8,3.5-4.5,6.5-5.8,10.4c-0.7,1.9-1.7,3.8,0.2,5.5c1.9,1.8,4,0.4,5.4-0.7
	c5.8-4.7,10.9-10.1,14.8-16.5c0.3-0.5,0.1-1.3-1.2-1.8c-4.9,5.4-9.3,11.6-16.6,15.1C859.6,324.3,863,319.3,865.6,313.9z
	 M183.1,544.7c-16.6-2.4-33-1.4-49.3,2.3c-1.4,0.3-3.7,1-2.9,3.2c0.6,1.6,2.6,1,4,0.7c9.4-1.9,18.9-3,28.5-3.9
	c6.9-0.7,13.9-0.3,21.7-1.2C183.6,545,183.3,544.8,183.1,544.7z M35.7,627.3c0.8-0.6,1.8-1,2.4-1.7c3.4-4.2,5.8-9,9-13.4
	c1.9-2.6,3.5-5.4,6.2-7.4c1.2-0.9,1.5-2.2,1-3.6c-0.3-0.8-1.3-0.8-1.6-0.3c-1.9,3.2-4.8,2-7.6,2c-2.5-0.1-3.6,1.6-2.6,4
	c0.7,1.6,0.6,2.8-0.9,3.9c-5.3,4-8.7,8.8-7,15.9C35.1,626.8,35.4,627.1,35.7,627.3z M597.5,200.2c-1.6-2.3-3.1-5-7.4-5.1
	c12.2,13.8,11.7,31.4,17.6,46.9C608.2,227.1,606.1,212.8,597.5,200.2z M587.7,340c-3.4,2.3-4.9,4.5-6.1,6.8
	c-4.9,9.3-4.6,19.3-2.9,29.2c0.9,5.4,2.9,11.3,10.8,12.5C576.9,372.8,580.9,356.9,587.7,340z M112.2,542.4c0.4-1.2,0.3-2.7-0.6-3.8
	c-1.3-1.4-3-1.1-4.6-0.6c-1,0.3-1.8,1.2-1.5,2.3c0.9,2.9-0.9,3.1-3,4.2c-4,2.1-8.3,4.1-11.2,7.8c-1,1.3-2.2,2.9,1.5,3.7
	c3.7,0.8,5.5-0.9,8.1-2.7c-1.2-0.4-2-0.7-3.2-1C103.5,552,110.6,547.2,112.2,542.4z M907.1,310.7c0,0.8,0.2,1.8,1.2,1.8
	c0.5,0,1.2-0.6,1.4-1.1c3.4-7,3.3-14.4,2.5-21.8c-0.1-0.8-0.5-2.1-1.9-1.8c-0.9,0.2-1.1,1.1-1.4,1.9c-1.3,4.5-2.8,8.9-2,13.4
	C907.1,305.7,907,308.2,907.1,310.7z"/>
<g>
</g>
<g>
</g>
<g>
</g>
<g>
</g>
<g>
</g>
<g>
</g>
<g>
</g>
<g>
</g>
<g>
</g>
<g>
</g>
<g>
</g>
<g>
</g>
<g>
</g>
<g>
</g>
<g>
</g>
</svg>
