<?xml version="1.0" encoding="utf-8"?>
<!-- Generator: Adobe Illustrator 18.0.0, SVG Export Plug-In . SVG Version: 6.00 Build 0)  -->
<!DOCTYPE svg PUBLIC "-//W3C//DTD SVG 1.1//EN" "http://www.w3.org/Graphics/SVG/1.1/DTD/svg11.dtd">
<svg version="1.1" id="Layer_1" xmlns="http://www.w3.org/2000/svg" xmlns:xlink="http://www.w3.org/1999/xlink" x="0px" y="0px"
	 viewBox="0 0 1096.6 720.3" enable-background="new 0 0 1096.6 720.3" xml:space="preserve">
<path d="M240.4,720.3c-0.9-5.6-2.9-10.6-7.3-14.3c-1.6-1.3-2.3-3.2-3.2-5c-5.5-10-8.9-21.1-14.8-30.9c-1.3-2.1-3.2-3.3-4.6-5.1
	c-6.4-8.1-11.6-16.9-15.8-26.3c-1.1-2.5-1.8-5.7-5.8-4.8c-0.7,0.2-1.3-0.1-1.7-0.7c-4.7-8.6-12.9-14.9-15.7-24.7
	c-0.6-2.1-1.8-4-1.3-6.2c1-4.9-1.4-6.6-5.9-7.5c-9.3-1.8-18.3-5-26.3-10.2c-3.3-2.1-6.1-5-8.9-7.8c-1.2-1.2-2.7-3.1-1.2-4.8
	c1.4-1.7,3.1-0.1,4.5,0.6c8.1,4.1,16.8,5.8,25.8,6.6c3.2,0.3,4-0.9,4-3.9c0.1-6.7-0.8-13.4,0.8-20.3c0.8-3.2-3.5-4.1-6.2-4.2
	c-9.8-0.2-19.7-0.8-29.5,0.1c-12.7,1.2-25.4,2-38,4.6c-18.7,3.9-36.9,9.1-54.8,15.7c-10,3.6-20.3,6-30.9,7.3
	c-1.9,0.2-3.3-0.2-3.4-2.5c-0.1-2,0.2-3.6,2.7-3.8c20-2,38.4-9.4,57.4-15.2c11.2-3.4,22.9-5,34.5-6.9c16.7-2.7,33.4-3.1,50.2-2.9
	c5.2,0.1,10.2,1.4,15.4,1.1c6.6-0.4,8.8-2.3,8.6-8.8c-0.3-9.7,0.4-19.2,4.9-28.1c0.6-1.2,0.9-3,2.5-2.4c1.8,0.7,0.5,2.4,0.2,3.5
	c-1.2,4.2-2.6,8.3-3.3,12.9c2.6-8.1,8.5-13.5,14.6-19.3c1.4,3.7,0,6.6-1.5,9.5c-3.6,6.7-6.5,13.5-3.2,21.3c1.5,3.5-1.6,6.5-2,10
	c-0.4,4,0.8,5.3,4.3,5.4c2.8,0,5.6,0.5,8.4-0.8c1.4-0.6,3.3-2,4.3,0.2c0.9,2,0.9,4.7-1.4,5.7c-3.5,1.6-5.1,4-4.6,8.1
	c-1.5-1.6-1.4-3.4-1.2-5c0.8-5-2.7-6.1-6.2-6.3c-4.4-0.2-3.9,3.4-4.2,6.4c-1.1,10.6,0.1,21.4,3.7,30.8c2.7,7,4.1,15.7,11.1,20.9
	c1.8,1.3,2.5,4.3,1.3,6.9c-1.2,2.6-0.3,3.8,2,5.6c5.6,4.4,9.8,9.5,10.2,17.7c0.3,6.4,5.7,11.4,8.4,17.6c0.7-6,0.5-12.1,2.5-17.8
	c1.2-3.4,3.5-4.5,5.9-1.7c2.5,2.8,4.7,6,6.8,9.2c1.3,2.1,2.3,4.5,0,6.8c-0.5,0.5-0.8,1.5-0.9,2.3c-0.8,9.9,0.4,32.1,8.2,42.7
	c0-16.2,0.4-31.8-0.2-47.4c-0.2-5-2.8-10.2-5.2-14.8c-5.1-10.2-6-21.5-8.9-32.3c-2.1-7.6,0.5-16.2-4.9-23c-0.5-0.6-0.7-1.9,0.6-1.7
	c4.8,0.8,3.9-3.4,4.4-5.4c1.2-4.9,1.6-9.9,4.8-14.3c1.2-1.6,2-4.4,1.3-6.7c-2.9-9.8,3.6-15.1,9.6-20.5c2.2-2,3.6-3,0.4-5.4
	c-2.5-1.9-0.7-4,1-5.7c0.9-0.9,2.8-0.8,2.9-2.4c0.4-6.6,4.6-7.4,9.9-6.4c3.1,0.6,4.7-0.5,5.3-3.6c0.9-4.2,5.6-5,7.6-8.6
	c2.5-4.6,6.6-8.4,8.2-13.4c0.5-1.5-0.4-4.3-1-6.4c-1.5-4.9,1.1-8.1,4.2-10.8c2.4-2.1,4.4-5,8-5.8c1.7-0.4,3.1-2.1,2.7-3.8
	c-1.2-6.2,2-10.7,5.5-14.9c1.9-2.3,2.3-4.1,1.4-6.7c-4.2,3.4-6.1,8.3-9.3,12.3c-4.9,6.1-11.1,10.8-16.3,16.5
	c-2.4,2.8-4.2,6.2-7.2,8.5c-1.2,0.9-2.3,3.1-4.2,1.5c-1.6-1.3-3.3-3-1.8-5.6c0.8-1.4,1.6-2.8,1.2-5.3c-6,8.8-15.1,14-20.2,23
	c-1,1.9-2.7,3.6-5,4.7c-2.7,1.2-5.1,1.5-6.3-1.1c-1.1-2.3-1.3-4.9,1.4-7.1c5.2-4.1,5.7-6.8,2.6-10.7c-1.6,0.6-1.5,2.3-2.3,3.4
	c-0.8,1-1.3,2.6-3,1.9c-1.6-0.6-1.2-2.2-1.2-3.5c-0.1-2.4,1.5-4,2.8-5.7c1.6-2.1,3.4-4,5.4-5.8c1.6-1.4,3.5-3.2,4.4,0.9
	c0.5,2.5,1.7,4.8,2.7,7.7c4.3-3.9,9.1-6.8,10.6-12.5c0.2-0.6,0.5-1.6,0.8-1.7c8.4-1.4,11.4-9.5,17-14.3c2.4-2,2.9-6.7,4.8-10
	c0.6-1.1,0-3.4-2.7-2.5c-1.1,0.4-2.1-0.6-2.2-1.5c-0.2-1.7,1.8-2.2,2.5-3.4c0.5-0.8,1.3-0.4,2.1,0.2c4.8,3.6,4.9,3.6,7.4-1.8
	c1.3-2.9,4.5-4.6,4.5-8.1c0-1.4,1.8-2.4-0.3-4.3c-1.3-1.1,0.4-3.4,2.5-3.8c6.4-1.3,6.5-6.7,6.6-11.2c0.1-3.7-2.8-6.4-6.7-7.8
	c-3-1-4.3,1.1-5.3,2.8c-0.8,1.3-1.7,3.3,1.3,4.8c4.1,2,1.4,4.8-0.5,6.6c-1.1,1.1-1.7,4.8-4.2,2.4c-1.7-1.6-0.6-3.8,1.1-5.5
	c-4.7,5.1-11.8,6.8-16.2,12.6c-5,6.4-11.3,11.8-17.2,17.5c-1,1-2.6,3.4-3.8,0.7c-0.8-1.9-3.6-5-0.3-6.5c4.7-2.1,5.3-6.9,8.3-10.1
	c4.2-4.6,6.6-10.9,12.9-13.7c2.4-1,2.3-3.4,2.5-5.6c0.2-2.3,0.7-4.7,3.5-1.8c0.5,0.5,0.8,1.2,1.3,0.1c3.2-7.4,6.3-14.8,9.3-22.3
	c0.3-0.8,0-2-1.1-2.6c-0.3,0.1-0.8,0.1-0.8,0.3c-0.6,1.4,0.5,4.4-2.2,3.9c-1.9-0.4-0.8-2.7-0.2-4.3c0.9-2.7,0.5-6.5-0.7-7.7
	c-4.4-4.4-3.8-10.3-5.7-15.4c-3.2-8.5-2.2-17.9-3.5-26.8c-0.8-5.9-1.2-11.9-1-19.1c-1.4,1.5-2.1,2-2,2.2c3,9.2-2,17.5-3,26.2
	c-0.1,1-0.3,2,0,2.9c1.3,4.8,0.5,9.1-2.3,13.2c-1.6,2.3-2.5,5-1.2,8c1.2,3-0.4,5.8-1,8.6c-0.1,0.5-0.7,1.3-1.1,1.4
	c-6.2,1.7-10.9,4.8-13.2,11.3c-0.8,2.4-3.6,4.3-5.7,6c-2,1.6-4.2,1-4.2-1.7c-0.1-5.2,0.1-10.6,4.3-14.6c0.8-0.8,1.2-1.3,1.1-2.5
	c-0.9-11.2,3.5-21.3,6.3-31.8c3.2-12.1,8.9-23.4,12-35.6c1.4-5.5,4.4-10.4,6.4-15.6c0.6-1.6,2.3-3,1.2-5.1c-3,1.5-2.8,4.8-4.4,7
	c-10,14.8-15.6,31.8-23.3,47.7c-0.5,1-0.9,2.2-1.1,3.3c-0.3,1.6-0.2,3.8-2.5,3.5c-1.8-0.3-2.1-2.3-2.2-4c0-6.5-1.6-13.5,0.3-19.4
	c3-9.2,4.3-19,9.5-27.4c3-4.9,5.4-4.9,9.9,0c0-2.8,0.5-5.4-0.1-7.6c-1.5-5.5-0.1-10,2.8-14.6c2.5-3.9,4.4-8.2,6.7-12.2
	c0.7-1.3,0.6-3.7,3-3.3c2.4,0.4,2.3,2.5,2.4,4.3c0,0.5,0.1,1,0.4,1.5c1.4-7.2,5-13.6,5.4-21.5c0.5-10.9,0.7-22.2,6.4-32.3
	c4.3-7.5,9.8-13,19.2-12.4c4.6,0.3,6.2-3.7,7.5-6.2c3.9-7.3,10.6-12.1,15.3-18.7c7.8-10.9,15.2-22,18.3-35.4
	c1.3-5.4,4.7-10,5.6-15.8c1.9-13.1,8.6-24.1,16.2-34.6c0.8-1.1,1.6-2.1,2.4-3.1c0.5-0.6,1-1.1,1.8-1.9c1.5,2.2,0.5,3.9-0.2,5.4
	c-6,12.8-8.6,26.7-12.6,40.1c-3.8,12.8-5.7,26.2-11.4,38.5c-5.5,11.9-7.2,24.7-7.1,37.6c0,14-0.6,27.9-1.1,41.9
	c-0.1,3.7-1.6,7.1-2.4,10.6c-4.5,20.5-8,41.1-6.4,62.1c1.1,15.3,3.5,30.6,5.5,45.9c1.7,13.6,3.9,27.2,5.2,40.9
	c1.6,16.3,4.4,32.5,7.8,48.5c4.5,21.4,8.8,42.8,16.4,63.4c8.1,22.1,18.9,42.7,33.1,61.6c8.8,11.7,18.7,22.4,28.9,32.8
	c7.5,7.6,16.3,13.5,24.6,20.1c5.4,4.2,9.5,9.7,15.1,13.7c11.2,8.1,23.2,13.9,36.6,18c17.1,5.3,34.2,4.7,51.4,4.3
	c22.2-0.6,43.2-6.6,61.4-19.9c7.9-5.7,15-12.5,22.2-19.1c8.3-7.6,16.6-15.2,24.5-23.2c12.3-12.4,25.4-23.9,36.7-37.2
	c6.9-8.2,14.3-16,20.4-24.9c7.7-11.3,13.7-23.4,18.2-36.4c8.5-24.7,16.3-49.7,22.3-75.2c3-12.7,5.4-13.2,16.6-7
	c10.8,5.9,22.3,4.9,33.7,0.4c5.8-2.3,10.5-5.9,15.5-10.2c0,8.1-3.6,11.9-9,15.8c-4.8,3.4-9.3,4.8-14.9,4.8c-3.6,0-2.2,3.4-2.4,5.5
	c-0.2,2.6,1.5,1.9,3,1.5c2.1-0.5,4.4-0.2,5.2,1.7c0.9,2,1.4,4.5-1.1,6.2c-1.2,0.8-1.5,2-1.2,3.1c2.8,8.7-2.3,15.7-5,23.1
	c-3.5,9.8-9,19.1-11.2,29.1c-1.7,7.8-7.5,13.1-9,20.6c-0.4,1.8-1,3.5-0.9,4.8c4.1-3.6,6.8-8.6,9.2-13.8c0.4-0.8,1-1.3,1.9-1.3
	c1.3,0.1,1.6,1,1.7,2c0.6,3.2,1.3,6.3,0.5,9.8c-0.8,3.7-1,7.7-0.3,11.4c1.5,7.6-0.5,15.2,0.9,22.7c0.3,1.4,0.4,2.9,0.9,4.3
	c0.5-3.7,0.4-7.5,2.7-11.2c-4.9,44.9-0.7,88.3,20.4,128.9c-16.8-42.1-16.1-85.2-7.9-128.8c1.5,4.3,1.2,8.8,0.7,13.1
	c-0.5,4.7,4.3,7.6,3.1,12.3c-1.1,4.5-1.4,9.2-1,13.9c1.1,13.4,2.9,26.7,3.5,40.1c0.4,7.7,1.2,15.2,2.6,22.7
	c2.5,13.3,5.6,26.6,11.5,38.9c4.6,9.6,8.5,19.4,14.9,28.1c0.8,1,1.5,2.3,1.1,3.7c-44.7,0-89.3,0-134,0c-2.7-7.1-3.5-14.8-2.8-22
	c0.8-7.9-1.7-15.5-0.5-23.3c0.3-1.7-1.5-2.4-2.4-3.6c-0.6-0.8-1.1-1.8-2.3-1.4c-1.1,0.4-1.4,1.3-1.5,2.3c-1,6.6-2.1,13.2-2.1,20
	c0,9.3-0.2,18.6-0.3,27.9c-0.3,0-0.7,0-1,0c-0.5-10.5-4.3-20.5-4.5-30.8c-2.8-0.2-1.9,3.5-4,2.2c-1.4-0.8-0.4-2.5,0.1-3.6
	c2.9-6.2,3.3-12.7,3.1-19.5c-0.5-19.5,0.8-38.8,6.7-57.5c0.7-2.4-0.4-3.2-2.1-3.6c-5.1-1.3-4.3-4.3-2.3-7.6c0.8-1.3,1.4-2.6,1.9-4
	c2.7-7,5.5-13.9,11.4-19c1.5-1.3,2.5-3.3,2.3-5.4c-0.7-8.5,2.3-15.8,7.4-22.5c0.8-1.1,1.5-2.6-0.1-4.4c-7.5,10.7-16.2,20-24.8,29.3
	c-12.5,13.6-26.2,26-40,38.2c-10.4,9.2-21.4,17.8-31.9,26.9c-19,16.5-41.4,24.8-66.2,26.2c-19.4,1.1-38.8,1-57.8-5.1
	c-11-3.5-21.2-8.2-31-14.3c-3.6-2.2-6.3-5.5-11-8.1c1.3,3.7,2.2,6.3,3,8.9c5.1,15.1,10.7,29.9,17.2,44.4c4.3,9.7,9.2,19.1,12.5,29.2
	c-45.7,0-91.3,0-137,0c-2.1-6.4-3.7-13.1-6.5-19.3c-4.1-9.2-8.8-18.3-12.4-27.6c-7.4-19.2-18.4-36.3-29.3-53.4
	c-1.6-2.6-3.8-5.9-6.7-6c-4.6-0.2-5.1-3-5.4-6.1c-1.1-10.7-4.4-21-4.4-31.9c0-7-1.7-14.1-1.9-21.3c-0.1-2.8-0.4-5.9-2.1-8.6
	c-1.5,1-2.8,2.2-3,3.9c-0.9,10.6-3.4,21.1-3,31.8c0.4,10.8-1.6,21.6,2.4,32.5c2,5.4,1,12,4.4,17.4c0.8,1.3,1.3,3.3,1,4.8
	c-1,5.4,1.3,9.6,3.8,14c1.7,2.9,1.5,3,0.1,6c-2.9-4.5-7.2-7.9-8.7-13.6c-2.2-8.5-8.9-15.5-9.4-24.8c-0.2-3.3-0.7-6.6-0.9-9.9
	c-0.8-9.4-2.5-18.9-2.1-28.2c0.4-8.7,1.8-17.5,1.7-26.3c0-1.3,0.1-2.9,0.8-3.8c5.8-6.6,3.4-16,8.1-23.1c1.8-2.8,1.1-6.8,3.4-9.8
	c0.8-1.1,0.1-2.4-1.4-3.6c-4.6,7.8-10.1,14.9-12.7,23.5c-0.9,3.1-1.8,6.1-3.7,8.5c-2.1,2.6-3.1,5.8-3.3,8.7
	c-0.5,7.8-3.8,14.9-4.3,22.8c-0.6,9.7,1.5,19.2,1,28.8c0,0.2,0.1,0.3,0.1,0.5c3.8,8.5,5.4,17.8,9.7,26.3
	c4.9,9.6,10.3,19.1,17.7,26.6c6.1,6.1,11.7,12.1,15.7,19.7c1.5,2.8,4.4,4.4,5.6,7.5c3.5,9.4,7.7,18.6,13.6,26.9
	c1.5,2.1,3.2,4.3,3.1,7.1C290.4,720.3,265.4,720.3,240.4,720.3z M274.8,311.6c-0.5,9.2,0,18,1.9,26.6c1,4.3,2.3,8.6,3.9,12.8
	c5.2,14.5,14.1,27.3,20,41.5c3.3,8.1,12.7,11.3,20.9,8.3c2.5-0.9,3.5-2.2,3.7-5.1c0.5-6.4-1.6-12.5-2.1-18.7
	c-0.9-11.9-2.3-23.7-4.3-35.5c-1.7-10.1-3.7-20.2-3.8-30.5c-0.1-8.7,1-17.2,1.1-25.9c0.1-2.9-0.5-5.2-3.5-6.4
	c-2.1-0.9-3.6-2.5-3.5-5c0.2-6.3-0.2-12.5,0.8-18.9c1.8-11.1,3.2-22.3,1.1-33.6c-1.5-7.9-3-15.6-8.6-21.8
	c-3.5-3.9-10.4-4.9-14.4-1.7c-7,5.7-9.9,13.5-10.3,22.3c0,0.7-0.7,2.2,0.9,2.2c5.1-0.1,5.9,4.2,7.3,7.5c3.2,7.9,4.1,16.7,8.1,24.4
	c1.3,2.6-0.6,3.7-2.6,4.3c-8.2,2.5-12.2,9.1-13.4,16.5C276.1,287.1,273.8,299.4,274.8,311.6z M924.4,720.3
	c-4.1-10.3-9.4-20.1-13-30.6c-3.5-10.1-6.1-19.2,0.2-29.7c7.7-12.8,5.9-27.1,2.1-41c-2.2-8.3-6.2-15.7-9.6-23.5
	c-3.1-7.1-1.8-8.8,5.8-8.8c1.5,0,3,0,4.5,0c8.7-0.3,17.5,1,26.4-1.7c-2.6-3.8-7.2-4-9.8-7.1c-0.8-1-2.5-1.7-2.3-3.1
	c0.3-1.6,2.2-1.7,3.6-2.2c10.3-3.5,20.7-6.5,30.4-11.8c15.8-8.6,32.2-16.2,48.1-24.6c5-2.6,10.5-4.6,15-8.4c-1.6-1-2.6-0.5-3.8-0.3
	c-18.8,4.4-36.3,12.4-54.4,18.8c-14.8,5.3-29.3,11.1-44.1,16.5c-2.3,0.8-4.8,1.5-7.3,1c-1.6-0.3-2.7-1.2-3.2-2.8
	c-0.4-1.2,0.1-2.2,1-3.1c5.1-5,10.2-9.9,15.1-15c2.5-2.5,5.2-3.8,8.8-3.5c5.8,0.5,11.7,0.1,17.2-2c9.4-3.6,17.9-9.2,27.2-13.2
	c3.3-1.5,8-1.4,9.9-4.8c1.5-2.5,2.9-3.2,5.5-2.9c1.5,0.2,2.8-0.1,4.1-1.2c7.1-5.6,15.5-4.9,23.7-4.7c2.2,0.1,3.2,1.4,4.1,3.1
	c5.4,10.4,9.6,21.2,16.4,31.1c7.1,10.5,13.5,22,18.5,33.9c2.2,5.3,5.8,9.6,8.5,15.2c0.8-2.6,0.7-4.3-0.1-6.1
	c-3.6-8.2-7.6-16.2-10.6-24.6c-3.6-10.2-9.3-19.6-11.7-30.2c-0.4-1.7-0.7-3.9-3.4-3.1c-4,1.2-3.5-1.9-4.5-4.2c2.4,0,2,3.1,4.4,2.8
	c0.1-0.5,0.6-1.2,0.4-1.7c-2.7-6.9-3.9-14.4-8.2-20.6c-2.3-3.3-5-7.5-5.4-10.5c-0.8-4.7-3.4-8.3-4.8-12.5c-0.9-2.8-0.5-7.6-6-7
	c-0.1,0-0.5-1.1-0.5-1.7c-0.1-3.1-0.9-5.7-2.9-8.2c-1-1.2-1.7-3.5-0.9-5.2c2.8-6.6-1.3-11.5-3.7-18.1c-1.7,3.7-0.7,6.4-1.2,8.5
	c-7.5-8.4-4.4-20.3-10-29.7c-2-3.3,0-8-3.9-11.9c-2.6-2.7-3.1-8.6-4.2-12.8c-1.6-6.4-4.2-12.5-5.8-18.9c-2.6-10.1-6.1-20-9.8-29.7
	c-2.9-7.6-4.3-15.7-7.6-23c-4.9-10.8-6.8-22.8-13.8-32.7c-4.6-6.5-1.1-16.8-9.8-21.5c-0.2-0.1-0.1-0.7-0.2-0.9
	c-3.9-7.3-5.5-15.8-11.1-22.1c-6.1-6.8-10-15-16.3-21.8c-5.5-6-12.6-10.2-17.4-16.8c-1-1.4-2.3-1-2.5,0.4c-0.5,3.6-0.8,7.2,0.9,10.7
	c1.5,3,4,1.6,6.1,1.7c3.2,0.1,5,3.1,3.8,4.4c-2.8,2.9-2.4,6-2.4,9.2c-1.4,0.3-1.9-0.5-2.5-0.9c-1.1-0.8-1.9-3-3.6-1.8
	c-1.2,0.8-0.6,2.8-0.5,4.3c0.1,0.8,0.4,1.6,0.9,2.2c3,3.6-0.2,6.9-1,10c-0.3,1.3-4.4-0.5-6.5-1.7c-1.1-0.7-2.4-1.2-3.4-2
	c-2.4-1.8-5.4-3.3-7.8-1.6c-2.3,1.7-2.9,5.1-1.7,8.2c3,8.2,6,16.5,9.1,24.7c1.8,4.8,3.6,9.6,5.5,14.3c0.9,2.3,3.1,3.6,4.4,1.4
	c3.3-5.5,8.4-10.3,9.7-16.5c2.3-11.3,8.1-21.8,8.4-33.6c0-0.9,0.5-1.7,1.3-2c1.3-0.4,1.7,0.5,2.1,1.5c2.2,6,5.6,11.3,9,16.6
	c2.6,4,4.1,8.7,6.2,13c9.8,20.7,17.1,42.4,24.2,64.1c4.3,13.4,8.8,26.7,13.2,40.1c5.9,18,12.7,35.6,19.7,53.2c1.6,4,1,8.3,3.4,12.2
	c5.8,9.5,8.9,20.3,12.9,30.7c0.6,1.6,1.2,3.9-1.5,5.1c-4.4,1.8-8.4,4.6-12.9,6.4c-5.5,2.2-11,5-15.8,8.5c-4.2,2.9-8.7,5.5-13.1,7.5
	c-10.5,4.8-20.4,10.6-31.4,14.2c-2.5,0.8-0.1,1.8,0.6,3.3c-7.3-4.8-14.7-2.6-22.1-2.2c-5.6,0.3-7.2,3.7-7.4,8.5
	c-0.1,1.2,0.1,2.3,0,3.5c-0.3,3.3,1.3,5,4.4,4.2c5-1.4,5.3,6.1,10,4.9c0.3-0.1-0.5,1.3-0.7,2c-1.6,3.9-5.9,5-8.2,8
	c-4.3,5.6-9.2,10.8-11.3,17.8c-1.8-0.7-1.3-2.2-1.7-3.2c-1.3-3.2-7.8-5.7-12.2-4.4c-3.4,1-2.2,4.1-2.2,6.4
	c0.2,14.7,2.2,29.3,5.5,43.6c0.3,1.4,0.9,2.8-0.2,4.2c-3.8-7.7-6.9-15.7-8.3-23.8c-1.7-9.7-5-19.2-5.7-29.1
	c-0.2-2.8-1.9-4.7-4.8-5.8c-6.3-2.4-11.5-6.7-16.6-11c-1.5-1.3-2.9-3.8-5.4-2.6c-2.4,1-1.4,3.5-1.4,5.4c-0.2,7.3,0,14.7-0.5,22
	c-0.5,8.1-2.2,16.1-1.3,24.3c0.5,4.2-1.5,8.6,0.7,12.7c2,3.9,2.7,7.8,1.4,12c-0.5,1.4-0.6,3.1,0.2,4.4c1.7,3.1,1.6,6.4,1.5,9.7
	c-0.7,15.5,3,30.6,6.6,45.4c2.8,11.9,5.9,24,11.2,35.4c-2.7-5.5-8.2-8.3-11.4-13.2c-3.1-4.7-5.9-9.5-9.6-13.7
	c-3.5-4-2.1-11.6-9.5-12.7c-0.3,0-0.6-1.2-0.6-1.8c0.1-3.6-1.3-4.9-4.9-3.9c-0.8,0.2-2.3-0.3-2.6-0.9c-2.8-5.3-9-9-7.6-16.4
	c0.3-1.6,0.9-4-1.8-5c-3.8,15.5,7.8,56.7,21.5,78.2C870.4,720.3,897.4,720.3,924.4,720.3z M944.4,720.3c0.1-1.7,0.3-3.3,0.3-5
	c0.1-10.5,0.1-10.7,10.5-10.6c4.5,0.1,5.7-1.6,5.6-5.9c-0.3-8.3-0.1-16.6-0.1-25.1c4.8,2.8,5.9,2.2,6-3c0-2.5,0.1-5-0.2-7.5
	c-1.3-10.9-1.1-21.8-0.1-32.8c0.4-4.3,0.2-8.6,0.1-13c0-1.3-0.7-2.7-2.1-3.1c-1.7-0.6-2.4,0.9-2.9,2c-1,2.1-3.1,3-0.1,6.5
	c3.7,4.3,2.1,11.1,1.3,16.9c-0.8,5.5-1,11,0,16.4c0.6,3.1,0.3,5.8-1.1,8.6c-4-1.4-3-4.6-2.6-7.1c1.2-7.9,1.2-15.9,0.1-23.8
	c-0.1-1.1-0.3-1.8,0.7-2.6c1-0.7,1.8-2,0.6-2.8c-1.2-0.9-3-0.9-3.9,0.7c-0.6,1.1-0.5,2.9-2.5,2.1c-3.7-1.6-3.7,1.6-4.9,3.5
	c-1.2,2.1,0.4,5.3-2.8,6.5c-2.7,1-2.8,4-1.9,5.2c1.9,2.6,3.2-0.2,4.5-1.5c0.6-0.6,1.2-1.2,2.2-0.9c0.8,0.2,1,0.9,1,1.6
	c0,1.1-0.4,2-1.6,2.2c-0.8,0.1-1.7,0.2-2.5,0.2c-3.9-0.3-6.2,1-5.8,5.3c0.1,1-0.2,2-1,2.7c-1.7,1.5-2,2.4,0.4,4
	c3.2,2.2,2.7,5.6-0.6,8.3c-2.3,1.8-2,4.8-0.3,5.4c6.1,2.4,2.8,7.3,3.5,11.1c0.4,2.3-1.1,3.3-3.4,3.1c-2.3-0.2-2.5-1.4-2.1-3.5
	c0.6-3.1-0.7-4.1-4-3.6c-2.8,0.4-4.8,1.1-4.9,4.3c-0.1,4.8-2.4,9.7,0.9,14.3c0.6,0.8,0.6,2.5,0.2,3.3c-3.1,5.7-1.3,11.7-1.3,17.6
	C934.4,720.3,939.4,720.3,944.4,720.3z M332.4,720.3c-1.1-10-6.4-18.6-10.7-27.2c-4.1-8.1-6.5-16.8-10.6-24.9
	c-5.3-10.5-8.2-22.3-13.6-32.8c-2-3.9-2-9.7-7.5-11.5c-1.4,2.1-0.4,3.9,0.2,5.8c5.9,18.6,16.7,35.1,21.6,54.1
	c0.1,0.3,0.3,0.6,0.4,0.9c3.8,11.9,10.4,22.9,11.3,35.7C326.4,720.3,329.4,720.3,332.4,720.3z M199.4,720.3
	c-0.8-1.8-3.8-1.2-4.1-3.9c-0.5-5.2-3.9-9.4-5.8-14.2c-3-7.7-5.5-15.7-9.6-22.7c-4.3-7.4-7.2-15.5-11.7-22.9
	c-0.6-0.9-1.2-2.1-2.9-1.5c0.1,2.4,0.5,4.9,1.6,7c5.3,9.8,7.2,20.8,11.6,30.9c3.7,8.7,5.9,18.1,8.8,27.2
	C191.4,720.3,195.4,720.3,199.4,720.3z M152.7,236.5c0.5-2.5,1.3-4.7,3-6.7c7.3-8.6,16.2-15.4,25.4-21.9c1.5-1.1,3.4-1.2,5.2-1.3
	c5.6-0.5,10.8,1.6,16,2.8c13.5,3.2,27.1,4.8,40.9,4.2c4.4-0.2,8.6-1.6,11.3-5.3c4.3-5.9,6.7-12.9,11.4-18.6c1-1.2,2.5-2.9,0.9-4.4
	c-1.8-1.7-3.4,0.1-4.6,1.3c-3.3,3.6-7,6.6-11.2,8.9c-10.9,6-22.9,7.6-35.1,6c-4.5-0.6-9-0.6-13.4-0.3c-1.8,0.1-3.5,1.1-5.3,0.1
	c-1-0.5-2.6,0-3-1.4c-0.4-1.4,1.2-1.7,1.9-2.6c3.2-4,8.9-4.5,12-8.7c2.7-3.8,6.2-6.8,9.7-9.8c8.1-7.1,15.6-14.6,12.7-26.8
	c-3.3,1.2-6.1,3.4-8.7,6c-11.5,11.1-22.7,22.7-36.7,30.8c-14.7,8.4-26.8,19.9-39.2,31.1c-4.6,4.2-7.5,9.6-11.4,14.2
	c-8.8,10.4-16.9,21.2-23.6,33c-9.2,16.1-18,32.4-27,48.6c-1.9,3.3-3.2,7-5.2,10.2c-7.7,12.2-14.1,25.1-20.9,37.8
	c-7,13-14.9,25.5-19.6,39.6c-2.8,8.3-8.3,15-12.5,22.5c-5.4,9.8-10.9,19.9-18.2,28.1c-8.9,10.1-7.3,21-7,33.8
	c5.7-7,8.9-13.7,12.7-20c9.6-16.2,18.9-32.7,28.3-49c8.5-14.6,17.1-29.1,25.5-43.8c8.8-15.3,17.4-30.7,25.8-46.3
	c11.8-21.7,23.8-43.2,36.9-64.2c3.1-5,6.2-10,10.9-14.6c2.2,9.8,5.2,18.8,10.6,26.8C147.5,262.9,150.1,249.7,152.7,236.5z
	 M760.1,103.2c1.4-0.5,2.1-2.9,4.1-1c1.7,1.6,0.1,2.5-0.4,3.8c-1.1,3-2.4,6.1,2.3,7.5c1.3,0.4,2.7,1.8,3.1,3.1
	c1.8,5.6,6.7,8.4,10.4,12.3c4.3,4.5,11.3,7.9,8.4,16.3c-0.3,0.9-0.2,2.5,1.2,2.9c2.3,0.7,2-1.8,2.8-3.5c0.9,2,0.9,3.7,3,3.9
	c1.5,0.1,3.4-0.1,4.1,2.4c-6,2.3-10.8,6.4-16.7,10.5c8.9,2.9,16.2-0.6,23.8-1.5c-10,5.7-21.1,8.4-31.7,12.6c5.2,1.1,10.1-0.4,15.1-1
	c-5.6,1.7-10.5,4.6-15.1,8.1c-0.9,0.6-2.6,0.6-2.1,2.2c0.3,1.2,1.6,1.8,2.8,1.6c4.7-0.7,9.8,1.3,14.6-2.2c-1.2,4.7-4.9,3.6-7.3,4.7
	c-1.8,0.8-3.4,1.8-3.4,3.9c0,2.3,2,3.1,3.7,3.5c4.2,0.9,8.2-0.2,11.8-2.2c7.2-3.9,14-8.5,21.2-12.4c2.6-1.4,3.8-5.4,8-4.1
	c-0.1,1.8,0.3,3.8-0.4,5.3c-2.2,4.8-2,9.9-2.5,14.8c-0.8,9.4-0.8,18.9-1.2,28.4c-0.1,1.6-0.8,3.2-1,4.9c-0.2,1.4-2.6,3.1-0.2,4.2
	c1.8,0.8,3.3-0.8,4.3-2.5c2.5-4.3,4.9-8.7,7.5-12.9c6.2-10.2,15.7-15.9,26.8-20.1c0.1,3.3-1.9,4.5-3.3,6.1c-3.5,3.8-3.1,6.6,1.6,8.9
	c5.3,2.6,10.8,5.1,16.2,7.4c4.4,1.9,5.9,0.6,5.1-4c-1-6.2-3.1-12.3-2.3-18.7c0.5-4.3-1.5-6.9-5.2-8.7c-2-1-4.1-1.9-4.4-5
	c1.9,0,3.8-0.5,5.2,0.1c5.1,2.4,4.1-1.4,4.3-3.9c0.2-2.2-1.4-3.2-3-4.2c-7.1-4.6-14.9-7.3-22.9-9.4c-11.2-2.9-21.7-7.6-30.4-15.1
	c-8.7-7.4-16.3-16-22.6-25.7c-5.8-8.8-11.4-18.5-18.8-25.5c-8.2-7.8-18.2-14.7-30-18.5c2.1,9.6,6.6,17.4,11,25.5
	C759,105.7,758.9,103.7,760.1,103.2z M877.1,304.5c-0.5-4.7-2.2-7.6-6.6-9.4c-5-2-6.3-1.4-6.4,3.9c-0.2,10.9,0.3,21.9-1.9,32.8
	c-2.1,10.5-3.9,21-6.7,31.4c-1.2,4.6-3.7,9.3-3,14c1.4,9.9,0.2,19.9,1.4,29.8c1.1,9.4,0.2,19.1,0.3,28.7c0,2.3-0.8,4.8,1,6.7
	c2.5,2.6,3.7,5.9,4.8,9.1c2.9,8.2,6.5,15.8,13.1,21.8c1.9,1.7,3.1,2.6,3.8-1c1.6-8.3,1.5-16.6,0.4-24.8c-1.4-9.5,0.6-18.8,0-28.2
	c-0.4-6.5,1.5-13.1,1.5-19.8c0-5.5-0.8-11.2,0.3-16.4c2.6-12,1.4-24.1,2.5-31.5C882.3,332.6,878.7,318.6,877.1,304.5z M211.8,246.3
	c-1.5,3.6-3.4,7.2-5.1,10.7c-5.8,12.3-9.7,25.2-12.7,38.5c-2,9-1.9,18-2,27.1c-0.1,10.1,0.6,20-3.8,29.8c-4.9,11-6.6,23.1-9.2,34.9
	c-2.1,9.7-2.2,19.8-3.4,29.6c-1.7,13.3,1.6,27-3.5,40c-0.5,1.3,0.3,2.7,1.7,3.2c1.3,0.5,2.2-0.2,2.9-1.2c1.8-2.4,3.5-4.9,3.7-8
	c0.6-9,3.6-17.5,5.7-26.2c3.7-15.4,8.4-30.6,12.8-45.8c0.4-1.5-0.1-4,1.7-4.4c2.1-0.4,2.5,2.2,3.6,3.5c0.7,0.8,1.3,2,3,1.4
	c-0.2-0.9-0.2-1.8-0.6-2.4c-5.6-9.1-3.1-17.4,1.8-26c2.3-4,6-8,5.8-12.8c-0.1-3,0.3-5.7,1.6-8.1c2.9-4.9,1.4-9.3,0.1-13.7
	c-1.7,0.1-0.4,2.1-2.1,2c-0.9-2,0.4-4.3-1.6-7.2c-3.6,6.8-4.4,14.1-8.2,20.5c1.1-7.2,3.9-13.9,1.6-21c-2.7,0.8-0.7,4.2-4.9,4.9
	c6.4-24.5,12-48.5,14.8-73.3C213.6,243.3,212.6,244.5,211.8,246.3z M785.6,377.6c4.4-1.2,8.6-3.3,12.8-5.1c0.7-0.3,1.6-0.9,1.9-1.5
	c1.6-3.5,5.1-5.2,7.8-7.4c10.3-8.7,17.6-18.8,16.7-33.1c-0.6-9.6-4.4-17.1-13.6-21.3c-4.2-1.9-6.8-4.3-5.6-9.8
	c1.3-6,5.9-9.5,8.9-14.1c1.9-2.9,3.7-6.2,8.2-4.9c0.8,0.2,1.6-0.2,1.7-1.3c0.4-3.9,2-2.5,4.1-1.2c1.9,1.1,2.4,5.6,5.5,3.3
	c2.9-2.2-0.8-4.7-0.9-7.2c0-0.6-0.3-1.3-0.6-1.9c-1.6-3.2-6.6-5.9-8.3-4.3c-2.7,2.6-6.4,4.2-8.4,7.7c-5.1,9.3-11.5,17.7-19.6,24.7
	c-2.9,2.5-5.6,5.1-8.1,8c-4.8,5.7-6.6,12.3-4.3,19.6c3.9,12.5,3.3,24.4-3.2,35.9c-1.4,2.5-2.5,5-2.5,8
	C777.9,377.7,779.7,379.3,785.6,377.6z M709.3,224.9c-5-1-10.4-0.3-15.2-2.3c-4-1.6-8.1-2.1-12.2-1.7c-13.7,1.4-27,4.7-40.4,7.5
	c-6.1,1.3-12.3,2.6-18.5,3.5c-7.2,1-14.6,1.1-20.3,6.8c-2,2-3.2,3.8-2.3,6.5c0.8,2.6,3.2,3.2,5.6,3.3c7.3,0.5,14.4,1.3,21.8,0.2
	c15.2-2.3,30.3-4.9,45-10.1c4.6-1.6,9.1-3.6,14.2-4.3c7.2-1,14.2,1,21.3,0.2c4.2-0.4,8.2,0.7,12.3,1.4c4,0.7,7.2,3.8,12.6,4
	C726.1,232.1,718.9,226.8,709.3,224.9z M386.8,212.4c-7.5,3.7-15.4,3.8-23.4,3.5c-3.9-0.2-7,1.8-10,3.9c-1.2,0.9-2,1.9-1.5,3.3
	c0.4,1.3,1.8,1.3,3,1.4c3.6,0.1,7.3,0.5,10.9,0.7c6.9,0.4,13.9,1.7,20.5-2c2.8-1.5,5.7-0.6,8.6,0.6c6,2.3,12,4.9,18.2,6.3
	c12.9,2.8,26.3,3.2,38.6,8.6c9.3,4.1,19.3,4.4,29,6.2c0.8,0.2,1.7,0.5,2.2-0.3c0.5-0.8-0.1-1.7-0.7-2.2c-3-2.6-6.7-4.6-9.1-7.7
	c-7.9-10.5-19.8-13-31.2-16.9c-6.7-2.2-13.5-1.4-20.1-2.6c-9.1-1.7-18.4-2.4-26.4-3.4C391.7,212,388.9,211.4,386.8,212.4z
	 M595.8,537.5c-9.1-1.8-17.8,1.4-26.7,3.3c-8.7,1.9-17.5,3.1-26.5,3.9c-7.8,0.7-15.6,0.2-23.3,1.3c-0.6,0.1-1.6,0.4-1.9,0.1
	c-3.9-4.5-8.2-2-12.4-0.8c-0.2,0-0.3,0.1-0.5,0.1c-11-0.9-22.1-1.7-33.1-2.8c-2.7-0.3-5.2-1.5-7.1-4c-2.7-3.4-7.4-2.1-11.1-3.7
	c-2.9-1.2-4-3.8-6.2-5.4c-0.4-0.3-0.5-1.4-0.3-1.8c0.6-1,1.7-0.9,2.7-0.7c3.6,0.7,7.1,1.4,10.8,1.9c7.6,1,14.6-1.9,21.4-3.8
	c12.9-3.6,25.3-3.7,38-0.1c5.6,1.6,11.3,1.2,16.9,0.6c12-1.4,23.6-1,35.2,3.5c6.5,2.5,14,2.2,21.2,1.7c1.3-0.1,2.6-0.4,3.9,0.1
	c1.7,0.7,4.3,0.7,4,3.5C600.5,537.1,598.4,537.7,595.8,537.5z M566.8,534.3c-6.9-2-13-3.9-19.1-5.6c-0.6-0.2-1.3-0.1-2,0.1
	c-9.3,2.5-18.7,0.4-28.1,0.7c-0.9,0-1.9-0.4-2.9-0.7c-4.7-1.8-9.5-1.5-14.2-0.6c-1.9,0.4-5.4,0.1-5.2,2.6c0.1,2.5,3,4.1,5.6,5
	c0.8,0.3,1.6,0.2,2.5,0.2c4.5-0.1,8.7,1.6,13.1,2.3c4.9,0.7,9.5,4.1,14.3,3.2c7.4-1.4,14.7-1.8,22.1-2.7
	C557.2,538.2,562.2,538.9,566.8,534.3z M339,70.7c5.1-8.5,10.7-16.7,16.1-25.1c0.6-0.9,1.8-1.8,0.7-3c-0.8-0.8-1.8-0.3-2.8-0.1
	c-5.6,0.9-9.7,4.4-12.7,8.8c-3.7,5.4-6.2,11.7-9.9,17.1c-7.1,10.1-10.4,22-16.5,32.6c-1.2,2.2-3,6-1.3,7.4c4,3.1,1.2,5.5,0.2,8.1
	c-5.4,14.1-12.2,27.5-19.1,40.8c-2.7,5.2-7,9.7-8.7,15.8c1.8-0.1,3-0.6,3.6-1.9c2.7-5.9,7.2-10.6,10.3-16.3
	c7.6-13.9,16.7-27,24.1-41.1c5.3-10.1,11.5-19.7,18-29.1c7.4-10.8,14.5-21.8,23.2-31.6c1.2-1.3,1.8-3.1,2.6-4.8
	c0.6-1.2,1.2-2.6-0.3-3.6c-1.7-1.2-2.2,0.6-3.1,1.4c-8.8,8.3-15.7,18.2-23.2,27.6c-2.8,3.5-4.2,8.1-8.4,12.1
	C333,79.4,336.3,75.2,339,70.7z M391.6,315.7c-1.6,1.5-2,1.9-2.5,2.3c-1.2,1-3.8,1.1-3.1,3.2c0.7,2.1,3.2,1.6,4.9,1.3
	c3.7-0.7,7.4-1.7,10.7-3.6c1.1-0.6,2.1-1.4,3.1-0.2c0.8,0.9,0.1,1.8-0.4,2.7c-0.5,0.8-1.6,1.4-1.1,2.8c5.9,1.8,10-4.6,15.9-4.4
	c-0.9,2.2-1.6,3.7-2.2,5.2c6-2.9,11.4-6.3,17.8-7.5c3.9-0.7,7.6-2,10.8-4.6c4.7-3.8,10.4-4.5,16.4-4.4c4.1,0.1,8.3-0.7,11.9-2.8
	c-0.5-1.4-1.4-1.4-2.2-1.7c-13-5.3-26.1-2-39.1-0.5c-9.1,1-18.2,2.8-27.2,0.5c-10.8-2.7-21.4-3.5-32.1,0c-0.9,0.3-2.1-0.1-2.4,1.2
	c-0.2,1,0.8,1.3,1.3,1.9c2,2.3,4.5,3.7,8.2,4.3c-2.4,1.3-4.2,2.2-6.6,3.4C379.4,317.8,384.9,317,391.6,315.7z M662.3,334.2
	c-0.7-0.9-2.2-1.5-1.5-2.8c0.7-1.4,2.3-1,3.6-0.9c2.7,0.1,5.3,0.8,7.5,2.2c2.6,1.6,6.1,0.8,6.7-0.8c1.3-3.3,3.4-2.2,5.4-2.3
	c1.5-0.1,3.1,0.2,4.5-0.1c2.2-0.5,6.9,1.3,4.3-4.2c-0.4-0.9,0.8-1.4,1.6-1.5c2-0.3,3.7-1.6,4.4-3c1.1-2.5,1.1-5.4,3.2-7.7
	c0.8-0.8-0.4-1.5-2-1.5c-9.2,0.1-18.1,2-26.9,4.1c-9.9,2.3-19.9,2.1-29.7,1c-8.5-0.9-16.7-4.3-24.8-7.4c-7.2-2.8-14.6-1-21.8,1.2
	c2.1,1.3,4.3,2.5,6.5,2.7c8.2,0.7,15,4.8,21.9,8.5c3.3,1.8,6.7,3.9,10.3,4.8c6.1,1.5,11.4,4.1,16.3,8.1c3.4,2.7,7.2,4.8,12.6,2.4
	C663.4,335.7,662.8,335,662.3,334.2z M357.5,0c-1.6,0-2.1,1.3-3,2.3c-7.2,8.4-13.4,17.6-19.8,26.7c-9.1,13-20.4,24.3-27.8,38.6
	c-4.3,8.5-8.3,17.3-14.9,24.5c-2,2.2-0.8,5.4-0.8,8.2c0,0.7,0.7,1.5,1.2,1.1c2.1-1.5,5.6-2.2,5.9-4.7c0.7-5.5,3.6-9.9,5.5-14.9
	c5.2-13.8,14.4-24.8,25.1-34.7c5.4-5.1,11.7-9,17.2-14c2-1.9,5.3-3.8,5.2-6.4c-0.2-5.8,3.9-6.8,7.6-8.1c5.3-1.9,9.9-5.2,15.1-7.4
	c1.2-0.5,2.4-1.5,2.1-3c-0.3-1.5-1.8-1.1-2.9-1.3c-2.7-0.5-5.5-1-9.3-1.7c7.6-1.7,14.5-0.7,20.4-5.2C375.3,0,366.4,0,357.5,0z
	 M840,229.1c-3.1,0.6-4.2,3.1-5,5.6c-1,3.2,2.1,2.8,3.6,3.6c4.6,2.3,9.3,4.4,12.5,8.7c2.6,3.4,5.1,1.9,7.4-0.6
	c4.5-5,9.2-9.8,11.9-16.1c0.7-1.5,1.8-1.3,2.7-0.2c1.1,1.2,2,2.7,3.1,3.9c2.3,2.5,4.6,1.6,6.4-0.4c1.5-1.7-1.5-8.8-3.8-9.5
	c-1.1-0.4-2.3-0.6-3.2-1.2c-6-3.4-10.7-2.5-15,3.1c-1.9,2.5-3.9,4.5-7.4,5c-4,0.5-7.3-2.1-11.2-1.9C841.3,229,840.6,228.9,840,229.1
	z M994.4,99.9c-10.2-9-20.6-17.7-31.4-26c-7.5-5.8-15-11.4-22.5-17.2c-7.2-5.6-15.9-9-22.3-15.5c-0.9-0.9-2-2.6-3.2-1.5
	c-1.6,1.5,0.5,2.6,1.4,3.5c7.3,7.6,15.6,14.4,24,20.6c11.9,8.7,23.4,17.9,34.9,27.1c3.9,3.2,7.7,6.2,10.2,10.5
	c3.7,6.2,9.1,7,16.4,5.5C999.1,104.3,996.8,102.1,994.4,99.9z M260.9,221.5c4-4.8,9.6-7.8,12.5-13.9c3-6.5,4.4-13.7,8.9-19.6
	c2.5-3.3,4.7-6.9,8.1-9.4c1.5-1.1,1.5-2.6,0.8-4c-0.5-1.1-1.5-1.1-2.5-0.4c-2.7,2.1-6.1,3.8-8.1,6.5c-4.9,6.6-9.5,13.4-13.7,20.4
	c-3.2,5.4-5.8,11.1-8.6,16.8c-0.9,1.8-0.9,3.5,1.4,4.4C260.1,222,260.7,221.8,260.9,221.5z M207.6,513.8c-3.7-0.9-3.6,0.6-3.1,3.2
	c0.6,3,3.7,5.6,0.9,9.1c-0.7,0.8,0.5,2.1,1.9,2.3c3,0.5,5.5-0.5,6.6-3.2c2-4.9,5.8-8.5,9.1-12.4c2.4-2.8,1.8-6.2,3.7-8.9
	c0.5-0.7-0.1-2.9-2.3-3c-2.4-0.2-5.4,0-7.2-1.3c-3.2-2.4-4.2-0.7-5.7,1.5c-1.6,2.5-2.2,4.5,1.4,5.8c1.5,0.6,1.2,2.2,1.3,3.8
	C214,515.6,209.8,514.4,207.6,513.8z M330.5,120.5c-8.3,10.5-16.3,21.3-22.6,33.1c-1.5,2.9-4.1,5.4-3.9,9c0.1,1.3-0.5,3,0.7,3.7
	c1.5,0.8,2.2-1,3.2-1.7c4.2-3.4,5.8-8.7,9.7-12.4c1.8-1.7,3.6-3.7,4.4-5.9c2.7-7.8,6.4-15.2,9.6-22.8c0.5-1.1,1.6-2.3,0.1-3.6
	C331.4,120,330.8,120.2,330.5,120.5z M488.9,441.2c0.7,3.5,2.6,6.1,5.8,7.6c4.6,2.3,9.2,4.4,13.8,6.6c0.9,0.4,1.8,1.3,2.6,0.1
	c0.5-0.8-0.2-1.5-0.7-2.2c-3.7-5.1-7.4-10.2-11.2-15.1c-1.3-1.7-2.8-3.4-5.2-3.2C490.1,435,488.2,437.4,488.9,441.2z M843.6,281.5
	c-2.6,17.2-4.9,34.5-2.2,52C847.6,316.4,845.4,299,843.6,281.5z M457.9,260c-8.5-14.5-46.1-21.5-60.8-9.8
	C418.9,244.3,439,248.1,457.9,260z M1096.6,219c-15.5-18-32.2-35.1-47.6-53.2C1051.2,174.6,1088.9,216.8,1096.6,219z M943.9,462.7
	c-2.6,0.7-3.6,3.5-6.1,4.2c-6.2,1.7-9.6,7.2-14,11.2c-2.2,2-3.2,4.2-6.8,3.1c-2.5-0.7-5.3,0.9-4.4,3.7c0.8,2.7-0.3,4.4-2,7.2
	C920.2,488.5,942.1,468.8,943.9,462.7z M480.8,441.1c-6.2-3.9-10.2-9-10.2-16.8c0-5.4,1.2-10.5,3.3-15.4c0.5-1.1,1-2.3-0.2-3.1
	c-0.8-0.6-1.4,0.4-1.9,1.1c-6.3,9.1-7.2,24.5,0.3,33.1c2.9,3.4,6.5,5.6,11.6,4.3C483.4,441.9,481.9,441.7,480.8,441.1z M218.8,443.7
	c3.3,0,5.4-2.1,5.7-5.4c0.2-1.6-6-6.9-7.4-6.7c-4.4,0.5-10.2,9.8-8.9,14c0.3,1.1,0.9,1.7,2.1,1.8c0.9,0,1.7-0.1,2-1
	c0.5-1.3-0.5-1.9-1.3-2.9C213.6,445.4,216.2,443.6,218.8,443.7z M506.3,268.5c-2.4-4.8-5.5-9.1-10.4-11.7c-1.1-0.6-2.2-1.1-3.1,0
	c-0.6,0.7,0,1.7,0.7,2.1c8.5,5.6,9.9,14.7,12,23.6c0.8,3.3-0.5,7,2.4,10.8C511.1,284.2,510,276.2,506.3,268.5z M377.4,19
	c-5.5,0.1-10.2,1.7-14,6.1c-2.9,3.3-6.6,6-9.9,9.1c-1.2,1.1-2,2.4-0.9,4c0.9,1.4,1.9,0.6,2.9-0.1c8.2-5.7,16.1-11.9,24.2-18.5
	C378.7,19.2,378.1,19,377.4,19z M205.6,608.9c-1.2-4-4-7.1-5.1-11.3c-2.3-8.7-4.3-17.3-3.9-26.4c0-1,0.2-2.7-1.4-2.7
	c-1.6,0-1.2,1.4-1.3,2.6c-2,12.6,1.8,24.2,7.1,35.3c1.6,3.4,2.8,7.3,7.5,10.4C207.2,613.5,206.3,611.2,205.6,608.9z M824.7,561.8
	c-4.3,17.2-5,34.6-2.8,52.1C823.8,596.5,823.3,579.1,824.7,561.8z M296.6,331.4c4.3,4.4,8.6,3.6,11.4-1.8c3.3-6.2,4.1-12.5,0.5-18.9
	c-0.8-1.4-0.8-2.8-0.9-4.3c-0.3-5.4,0-10.6,3-15.3c1.3-2.1,1.9-4.7-1.5-5.5c-6-1.5-17.4,4.3-19.7,10c-1.3,3.2-1.8,6.7-1.4,9.9
	C287.8,315.5,289.7,324.4,296.6,331.4z"/>
<g>
</g>
<g>
</g>
<g>
</g>
<g>
</g>
<g>
</g>
<g>
</g>
<g>
</g>
<g>
</g>
<g>
</g>
<g>
</g>
<g>
</g>
<g>
</g>
<g>
</g>
<g>
</g>
<g>
</g>
</svg>
