<?xml version="1.0" encoding="utf-8"?>
<!-- Generator: Adobe Illustrator 18.0.0, SVG Export Plug-In . SVG Version: 6.00 Build 0)  -->
<!DOCTYPE svg PUBLIC "-//W3C//DTD SVG 1.1//EN" "http://www.w3.org/Graphics/SVG/1.1/DTD/svg11.dtd">
<svg version="1.1" id="Layer_1" xmlns="http://www.w3.org/2000/svg" xmlns:xlink="http://www.w3.org/1999/xlink" x="0px" y="0px"
	 viewBox="0 0 1222.4 720.9" enable-background="new 0 0 1222.4 720.9" xml:space="preserve">
<path d="M133.4,720.9c-5-11.2-5.5-22.8-3-34.6c0-0.2,0.1-0.3,0.1-0.5c1.5-6.9-0.6-11-7.4-12.2c-4-0.7-6.9-2.5-9.9-4.9
	c-1.7-1.4-4-4-5.9-2.3c-1.6,1.5-0.6,4.5,0.4,7c2.4,5.7,5.4,11.2,8.9,17.5c-3.3-0.7-5.1-2-6.7-3.6c-4.6-4.5-8.8-9.4-12.3-14.9
	c-2.1-3.3-3.7-7.7-9-7.5c-1,0-1.9-0.8-2-1.9c-0.2-1.2,0.6-2,1.6-2.2c3.4-0.7,2.8-2.7,2.3-5.3c-2.1-10.9,0.3-21.8-0.3-32.7
	c-0.2-3.5,1-7.9-4.9-3.9c-0.2-0.8-0.4-1.2-0.3-1.3c4.6-6.5,6.9-14,9.1-21.6c0.6-2,1.8-3.1,3.8-3c2.5,0.1,2.7,2.3,2.7,4
	c0.1,6.8,0.1,13.7,0.1,20.5c0,8.6,2.2,16.7,4.3,24.9c0.9,3.5-0.1,7.5,3.9,10.2c3.6,2.4,5.2,2.5,5.8-1.6c0.5-3.5,1.3-6.5,4.3-8.5
	c0.9-0.6,1.1-1.7,1-2.7c-1.2-10.1,3.2-19.9,2.1-30.1c-0.6-5.1,1.5-9.4,4.4-13.4c0.8-1.1,2-2.1,1.9-3.4c-0.3-7.3,3-13.6,5.6-20.1
	c0.7-1.6,1.4-3,2.7-4.1c2-1.7,1.6-4,1-6c-0.6-2.1-2.7-1.5-4.3-1.5c-5.3-0.1-10.6,0.9-15.9,1.2c-6,0.4-8.1,5.7-9.8,10.6
	c-1.6,4.8-4.3,7.3-9.7,7.4c-6.1,0.1-11.8,3.3-18.1,2.7c-1.1-0.1-2.3-0.2-4-0.4c4.6-6.4,11.4-10.3,15.1-17.5
	c-4.8-0.1-9.3,1.3-13.3,2.7c-20.4,7.1-39.2,17.8-57.9,28.5c-2,1.2-2.9,2.6-3.7,4.8c-4.9,12.8-8.5,26.1-14.9,38.7
	c-1.9-5.1-1.5-11.4,0.6-15.4c3.2-6.3,5.6-13,8.1-19.6c3.5-9.1,5.6-18.6,9.2-27.7c3.6-9.3,5.6-19.3,9.4-28.6
	c4.7-11.5,8.2-23.5,13.2-34.9c3.2-7.3,4.9-15.1,7.8-22.4c6.7-17.2,13.7-34.3,21.7-51.1c4.3-9,8-18.4,12.1-27.6
	c3.9-8.7,9.5-16.1,15.6-23.4c10-11.9,23.5-20.5,32.4-33.3c7.2-10.4,17.3-17.9,24.8-28.1c4-5.5,8.4-11,13.2-16
	c0.7-0.8,4.6-2.5,0.7-5.1c-0.9-0.6,1.6-4,3.1-5.7c1-1.2,2.7-2.2,4.1,0c-0.2-0.9,1.3-3.1,2.3-3.7c0.1-0.1,0.1-0.3,0.2-0.4
	c7.3-10.9,17.9-19.4,23.2-32c5.1-12.2,12.2-23.5,17.3-35.6c3.2-7.7,8.2-14.4,10.7-22.6c1-3.3,3.4-7,5.4-10.3
	c1.2-1.9,1.1-4.5,1.7-6.4c1.3-3.7,3.7-6.9,3.5-11.1c3.8,0.3,2.6-2.6,2.7-4.5c0.4-5.8,4.6-9.8,6.8-14.8c1.2-2.8,3.3-5.3,5.5-7.7
	c-4.5,16.9-10.1,33.4-17.3,49.2c1.5,0.7,2.1,0,2.4-0.7c6.3-13.8,13.5-27.3,17.8-42c1.9-6.7,6.3-12.7,6.2-19.8
	c-0.1-11.6,5.9-22.3,5.3-33.7c-0.5-10.5,2.7-20.1,4.3-30.2c1.9-12.4,11.3-18.2,18.9-25.7c4.4-4.4,9.5-8.2,13.5-13.1
	c1.3-1.6,2.9-2.7,4.4-4c7.9-7,15.6-14.5,24.7-19.7c6.2-3.5,10.9-9.3,19-12.4c-2.3,4.9-5.8,7-8.6,9.4c-4.3,3.8-9.2,7.1-13.2,11.2
	c-10.4,10.8-19.2,23-28,35.3c-7,9.8-12.2,20.7-16.5,31.7c-6,15.2-12.1,30.3-14.8,46.7c-1.2,7.4-2.7,14.9-5.2,22.2
	c-1.8,5.3-0.6,11.2-1.2,16.8c-1.6,15.5-2.3,31.1-3.3,46.6c-0.2,2.7,0.5,5.3,3.7,3.2c5.6-3.8,12.1-5,18-7.5c6.2-2.6,11.9-2.9,18-3.2
	c1.2-0.1,2.4-0.1,3.5,0.3c12,4.7,25.2,3.3,37.3,7.6c9.2,3.3,18.5,6.3,24.7,14.7c1.4,1.8,3.2,3.3,5.2,4.7c2.4,1.7,4.8,3.4,5.9,6.5
	c-1.8,1.3-3.5,0.5-5.3,0.1c-9.9-2-19.4-5.6-29.1-8.3c-11.3-3.1-22.8-5.4-34.3-8c-1.3-0.3-2.6-0.5-3.7-1.3c-7.3-5-15-6-23.7-3.3
	c-5.2,1.6-10.8,3.3-16.5,2.2c-0.2,0-0.6,0.2-0.7,0.4c-1.4,4.1-5.1,7.5-4.6,11.9c0.5,4.5-1,8.9-0.4,13.3c0.1,0.8,0.1,2.2-0.3,2.4
	c-5,2.5-4.5,7.9-5,11.8c-2.5,18.7-6.8,37.3-6.3,56.1c0.7,22.6,1.9,45.2,8,67.4c2.7,9.9,2.1,20.9,4.9,30.8
	c3.1,10.7,4.4,21.7,6.1,32.5c2.1,13.9,7.4,26.8,10.3,40.3c3.5,16.4,10.6,31.3,16.9,46.7c6.8,16.5,17.2,30.3,27.7,44.3
	c4.9,6.6,10.9,12.5,16.5,18.5c7.7,8.1,16.1,15.7,22.8,24.7c7,9.2,16.8,14.7,27,19.6c13.1,6.2,27.2,6.3,41.3,7.1
	c14.6,0.9,29.1,0.6,43.6-1.9c7.5-1.3,14.1-4.8,20.9-7.7c16-7,29.9-17.6,44.5-27.1c19.2-12.6,36.2-28,53.7-42.6
	c9.9-8.3,18.4-18.5,26.5-28.8c0.8-1.1,1.6-3.4,3.2-1.4c1,1.3,2.3,3.6-0.1,5c-1.1,0.6-1.7,1.3-2.1,2.5c-3.2,7.5-8.7,13-14.3,18.7
	c-14.2,14.5-30.5,26.5-46.8,38.4c-8.1,6-16.4,11.8-25.7,15.9c-3.4,1.5-6.2,3.7-9.1,6c-16,12.6-33.5,22.6-53.3,27.8
	c-5.4,1.4-11.1,1.8-16.8,1.9c-3.6,0.1-7.6-0.2-9.3,5.5c-1.8-6.1-6.7-5.5-10.4-6.3c-8.9-1.9-18-1.9-27.1-1.5
	c-3.1,0.1-1.9,1.9-1.2,3.3c3.2,6.6,7.2,12.7,11,18.9c6.5,10.5,12.9,21.2,19.2,31.9c1.2,2.1,2.9,4.1,2.6,6.8c-58.7,0-117.3,0-176,0
	c-0.3-7.8-4.4-14.5-6.1-21.9c-3.1-13.5-9.1-26-11-40.1c-1.6-12-3.4-23.9-3.3-36c0-1.9,0.8-4-1.1-5.8c-5.5,8.7-7.3,18.3-7.1,28.2
	c0.2,10.4-0.5,20.7,1.5,31.2c1.6,8.5,3.4,16.5,6.8,24.4c2.9,6.6,6.8,12.8,8.3,20.1c-3.3,0-6.7,0-10,0c0-5.2-0.7-10.2-4.1-14.5
	c-0.8-1-1.1-2.5-1.2-3.7c-0.2-8.1-3-15.9-4-23.9c-1.2-9.4-5.3-18.3-6.6-27.7c-0.5-3.9-0.1-8.1-1.1-11.8c-2.8-10-3.3-20.2-3.4-30.5
	c-0.1-7.6-3.5-14.8-3.2-22.6c0-0.9-0.6-2.1-1.8-2.1c-0.9,0-1.2,1-1.4,1.8c-1.1,3.8-1.9,7.8-1.9,11.7c-0.1,20.1-0.1,40.3,0,60.4
	c0,4.9,0.7,9.9,2,14.7c2,7.1,4,14.2,6,21.4c0.8,2.9,2.1,5.5,3.5,8.1c3.2,5.9,7.6,11.4,7,18.7c-15.7,0-31.3,0-47,0
	c-1-12.3-6.4-24-5.2-36.7c-3.5,3.8-1.9,7.5-1.2,11.3c0.3,1.8,4.6,7.9-3.3,5c-0.4-0.2-1.3,0.4-1.7,0.8c-2.3,2.6-4.3,5.4-4.3,9.1
	c0,3.5-0.2,7-0.3,10.5C158.1,720.9,145.7,720.9,133.4,720.9z M149.1,406.6c-3.4-8.1-6.4-16.1-7.2-24.8c-0.1-1.4-0.6-2.8-2-3.2
	c-1.4-0.4-1.9,1-2.6,1.9c-3,3.5-6,7-9.2,10.4c-9.3,9.7-18.9,19.1-28.8,28.1c-3.4,3.1-3.5,7-1.5,11c1.8,3.5,4.9,5.7,8.1,7.8
	c0.9,0.6,2.5,0.9,1.9,2.5c-0.4,1.1-1.7,1-2.6,0.8c-5.8-1.3-11.9-1.4-17.4-4c-6.6-3.1-7.8-2.3-11.2,4.5c-9.2,18.4-17,37.3-24.5,56.4
	c-4,10-6.9,20.4-10.9,30.4c-7.3,18.2-12.5,37.1-19.2,55.4c-0.4,1-1.2,2.3-0.3,3.3c1.2,1.2,2.5,0.1,3.6-0.5c8.2-4,16.4-8.1,24.5-12.2
	c10.8-5.5,22.1-10.1,34-12.4c9.8-2,19.1-4,25.3-12.7c1.7-2.4,6.1-3.6,5.4-6.4c-0.7-2.6-5.1-1-7.7-2.2c-1.4-0.7-3.9,0-3.9-2.2
	c0-1.7,1.6-2.8,3.3-3.9c6.8-4,14.5-7,18.2-14.8c0.6-1.2,1.8-1.2,2.5-0.5c1.8,1.9,2.6,0.4,4-0.7c4.4-3.5,7-9.6,14-9.1
	c1,0.1,1.7-0.9,1.9-2c0.2-1.3-0.2-2.6-1.6-2.7c-2.6-0.2-2.1-2-2.2-3.6c-0.3-3.5,0.5-7.2,2.5-9.5c4.4-5.1,6.7-10.7,7.7-17.2
	c0.8-5.3,3.5-10.3,2.8-16c-1-7.7-2.1-15.4-3.4-23.1c-0.8-4.7,0.1-10.8,0.7-16c1.4-10.9,1.4-21.8,1.8-32.7c0.2-6.5-3.8-11.9-4-18.2
	c0-0.6-0.5-1.2-0.9-1.7c-1.3-1.9-2.5-1.4-3.3,0.3c-0.6,1.3-1.4,3-1.1,4.3c1.3,5.7,0.8,11.6,1.2,17.4
	C147.5,394.7,149.9,400.5,149.1,406.6z M200.2,498c-1,10.2-3.6,20.2-3.6,30.5c0,1.2-0.3,2.4-1.2,3.2c-5.8,5.1-5,12.1-5.7,18.8
	c-1,9.3,2.6,18.3,1.2,27.7c-0.6,3.9-2.6,7.8-1.9,11.7c1.5,9.1,0.2,18.3,0.8,27.4c1,16.2,2,32.5,8.2,47.9c3.5,8.6,6.9,17.2,10.9,25.5
	c2.4,5.1,5.2,9.9,6.3,15.6c0.4,2,0.6,4.6,3.2,5.7c1.2-2.1,1-4.2,0.6-6c-1.8-8.8-1.4-17.8-4.6-26.7c-4.6-13-6.3-26.8-9-40.3
	c-2.7-13.1-3.3-26.5-3.7-40c-0.4-13,0.5-25.8,0.5-38.8c0-5.5-1.6-10.8-1-16.4C203,528.5,202.3,513.3,200.2,498z M190.9,484.6
	c-2.2,0.6-3.6,2.2-4.5,4.1c-0.8,1.7-1.8,3.6-3.7,3.7c-5.8,0.2-9.3,3.4-12,8.1c-0.5,0.8-1.5,1.2-2.4,1.8
	c-9.6,6.7-19.1,13.4-24.2,24.5c-0.4,0.9-1.6,1.8-2.6,2.2c-4.2,1.6-7.5,4.4-9.7,8.2c-3.8,6.7-7.6,13.3-13.7,18.7
	c0.8,0.3,1.4,0.6,2,0.7c8.3,0.8,16.6-1,24.9-1.1c1.6,0,3.8-0.6,4-3c0.5-6.3,4.1-11.2,7-16.5c0.7-1.3,1.3-3.6,2.2-3.7
	c6.3-0.8,5.5-5.7,5.9-9.8c0.2-2.2,1.3-3.8,2.5-5.3c5.8-6.9,11.8-13.8,17.7-20.6C187.3,493,188.7,488.6,190.9,484.6z M276.9,79.7
	c10.3-4,17.4-10.6,21.5-21.4C289.2,63.9,278.5,66.9,276.9,79.7z M782.4,720.9c0.4-1.5-0.2-2.8-1.1-3.7c-5.6-6-8.3-13.5-11.7-20.7
	c-1.4-2.8-3.2-5.3-5.5-7.6c-3.7-3.8-8.5-5.9-12.3-9.5c-6.3-5.9-10.8-13.8-19.1-17.6c-0.9-0.4-1.7-1.9-1.7-2.9
	c-0.3-6.3-4.9-9.3-9.4-12.4c-3.3-2.3-4.5-6.1-6.2-9.4c-1.2-2.3-0.2-4.1,1.2-5.9c1.1-1.3-0.1-2.5-0.8-3c-4.2-2.6-5.6-7.4-8.4-11
	c-0.6-0.8-1.3-1.8-2.3-1.6c-1.2,0.3-2,1.7-1.7,2.7c0.9,3.5-0.4,6.9,0.1,10.3c1.6,9.6,1.6,19.6,6.3,28.6c-3.9-4.7-8.1-9.1-10.6-14.8
	c-0.9-2.1-1-4.3-1.9-6.5c-4.3-10.6-13.3-19.9-10.2-32.9c0.1-0.4-0.1-1.1-0.4-1.4c-3.7-3.4-2.4-8.1-3.4-12.1
	c-2.1-8.5-0.9-17.2-1.9-25.8c-0.1-0.9,0.4-2.3,1-2.7c3-1.7,2.7-4.5,2.4-7c-0.9-7-1.6-13.9-1.1-20.9c0.1-1.1-0.6-2.2-0.9-3.3
	c-0.4-1.3-1.2-1.9-2.6-1.9c-1.2,0.1-1.8,0.7-2.1,1.8c-1.7,6.6-5.7,12.5-7.4,18.7c-2.5,9.2-7.7,16.9-10.6,25.8
	c-2.7,8.4-8.3,15.8-9.5,24.8c-0.7,5.3-3.6,10-4.3,15.1c-1,6.9,1.4,14.3-2.9,20.8c-0.4,0.6-0.3,1.7-0.2,2.4
	c1.7,7.2,0.6,14.6,0.9,21.9c0.8,20.7-2.7,41.7,5.3,61.8C693.7,720.9,738.1,720.9,782.4,720.9z M869.4,720.9
	c-2.1-7.1-4.2-14.2-6.3-21.4c-3.1-10.4-4.9-21-5.4-31.8c-0.1-2.2,0.1-4.2,2.5-5.5c5.8-3,11.8-5.9,17.4-9.3
	c6.6-4.1,13.2-8.4,18.6-14.6c-2.7-1-4.7-0.3-6.6,0.6c-8.3,4.1-17.2,5.6-26.2,6.6c-1.8,0.2-4,0.3-4.4-2.1c-0.4-2,0.5-3.5,2.7-4.1
	c3.8-1.1,2.7-2.9,0.4-4.2c-2.1-1.2-2.2-2.3-1.7-4.4c2.2-9.4,4.6-18.8,9.7-27.1c3.4-5.5,6.8-11,9.8-16.6c4.9-9.3,13-15.8,18.9-24.2
	c0.8-1.2,2.3-1.8,3.6-2.6c1.9-1.3,3.1-0.7,3.7,1.4c4.3,13.4,8.8,26.7,13.6,39.9c5.5,15.3,12,30.2,18.7,45c0.5,1.1,0.9,2.8,3.4,2.9
	c-3.9-10-6.9-19.8-10.7-29.2c-6.9-17.1-10.2-35.2-14.8-52.9c-3.1-11.8-2.8-24.4-7.4-36.2c-2.9-7.3-3.9-15.4-5.7-23.1
	c-1.9-8.4-4.4-16.7-6.4-25.1c-1.3-5.6-1.3-12.2-3.8-16.7c-3.7-6.8-5.3-14.2-7.7-21.3c-4.7-14.2-9.7-28.2-15.6-41.8
	c-5.5-12.6-12.1-24.6-16.9-37.5c-0.5-1.3-1-2.6-2.6-2.6c-2-0.1-2.5,1.6-2.8,3c-0.4,1.6-0.4,3.3,0.2,4.9c3.4,8.5,6.6,17.1,10.3,25.6
	c2.6,6.1,4.4,12.5,7.6,18.6c4.1,7.7,5.4,16.9,7.9,25.4c1.6,5.4,3.1,10.8,5,16.1c2.7,7.6,6.5,14.8,8.3,22.6
	c1.6,7.2,4.6,14.1,5.7,21.4c1.3,8.5,3.1,16.8,5.9,24.9c2.6,7.5,1,15.5,3.8,23c2.5,6.7-0.7,11-8,11.2c-3.8,0.1-7.5-0.7-11.3-0.6
	c-6,0.1-11.9-2.4-17.8-0.9c-8.7,2.2-17.2,3.9-26.3,2.8c-4.3-0.5-8.5-1.6-12.7-2.2c-10.1-1.3-11.4,0.4-9.8,10.6
	c1.5,8.8,2.7,17.7,2.9,26.6c0.2,6.8,1.2,13.5,1.4,20.3c0.4,11.2,7.1,21.1,6.7,32.4c0,0.5,0.2,1,0.4,1.4c4.7,6.5,4.8,14.6,7.9,21.7
	c5.9,13.6,12.2,26.8,21,38.9c2.2,3,5.3,6,4.9,10.4C864.1,720.9,866.7,720.9,869.4,720.9z M845.4,720.9c-0.2-0.8-0.1-1.8-0.6-2.3
	c-7.6-9.1-18.7-14.6-24.7-25.3c-0.5-0.9-1.8-0.7-2.8-0.3c-0.8,0.3-0.9,1.1-0.6,1.6c1.2,1.6,0.9,3.1-0.8,3.6c-2,0.7-4.8,1.1-6-1
	c-3.1-5.1-8.2-8.8-9.7-15.3c-1.5-6.6-4.9-13.1-9.5-17.7c-5-5-5.8-11.3-7.1-16.9c-1.8-7.6-5-14.7-7-22.2c-1.2-4.7-4.8-8.5-4.2-14.2
	c0.4-4-0.8-8.2-1.7-12.2c-1.9-8.6-1.5-17.5-1.7-26.2c-0.1-7.1,0.7-14.1-0.2-21.3c-0.7-5.9-0.8-12,0.2-17.9
	c1.4-8.5,0.1-16.9-0.6-25.3c0-0.6-0.4-1.4-0.9-1.6c-1-0.6-1.4,0.4-2,1c-1,1.1-1.9,2.4-1.6,4c0.7,3-0.5,5.9-0.7,8.8
	c-1,11.2-3.7,22.3-3.4,33.6c0.6,21.8-1.1,43.5,1.8,65.3c2.2,16.9,5.2,33.7,8.8,50.3c4,18.2,11.6,35.2,20.7,51.4
	C809.4,720.9,827.4,720.9,845.4,720.9z M647.4,720.9c1.2-3.1-1.6-4.8-2.4-7.2c-1.3-4.1-7.1-7.5-1.8-12.6c0.3-0.3-0.3-1.5-0.5-2.3
	c-1.2-4.5-1.6-9.6-7.3-11.4c-0.4-0.1-0.6-1.1-0.7-1.7c-0.3-11.2,0.5-22.5-1.2-33.7c-0.9-6.3,3-13,0.4-18.7
	c-3.7-8.2-0.5-15.6,2.1-22.3c3-7.9,5.5-15.9,7.8-24c0.5-1.7,1.7-3.8-0.6-4.8c-2.6-1.3-3.7,1.1-5,2.8c-2.7,3.5-3.2,8-5.2,11.8
	c-4.4,8.3-7.9,16.9-9.3,26.4c-0.6,4-0.4,7.9-0.9,11.9c-1.6,12.2-3.7,24.5-0.5,36.6c1.7,6.6,1.3,13.1,1.8,19.7c0.2,2.5,0.6,4.9,1,7.4
	c1.3,7.6,2.4,15.4,6.3,22.3C636.7,720.9,642.1,720.9,647.4,720.9z M1222.4,720.9c-5.3-13.4-14-24.7-21.5-36.8
	c-0.7-1.1-1.1-3.5-2.9-2.6c-1.7,0.8-0.3,2.7,0.3,4c5.8,12.1,12.6,23.7,19.1,35.5C1219.1,720.9,1220.7,720.9,1222.4,720.9z
	 M758.7,462.8c2.6-8.9,5.3-17.8,7.9-26.7c2.4-8.5,5-17,6.3-25.9c0.5-3.6-0.1-7.5,1.3-10.8c3.1-6.9,4.5-14.1,6.4-21.3
	c4.1-15.4,7.3-31,7.9-46.9c0.6-14.5,2.4-28.7,4.9-42.9c1.8-9.9,2.9-19.9-3.7-28.3c-9.4-12.1-19.3-23.8-28.1-36.4
	c-4.3-6.2-7.5-14.2-16.6-16.6c-1.6-0.4-4.4-4.5-6.4-7.1c-5.1-6.9-10.5-13.5-16.7-19.4c-3.4-3.2-5.6-7.3-7.8-11.4
	c-4.5-8.7-8.2-17.8-12.9-26.3c-3.3-6-4.9-12.6-8.6-18.4c-3.4-5.4-4.5-11.9-7.3-17.8c-2.7-5.8-5.8-11.7-10.3-15
	c-4.9-3.7-9.6-7.5-13.7-11.9c-5.2-5.5-12-9.9-13.9-18c-0.3-1.4-1.1-1-2.2-1c-3.7-0.2-7-1.3-7.3-5.8c-0.1-1.7-1.3-2.4-2.5-2.7
	c-3.7-0.9-6.1-3.6-9.1-5.5c-10.7-6.8-22.5-11.4-34.5-15.3c-8.8-2.8-17.9-5-25.5-10.7c-3.3-2.5-6.3-3.1-10.2-1.1
	c7.6,5.6,15.8,9.8,24.3,13.6c10.6,4.6,21.3,9.2,31.8,14c14.5,6.6,26.6,17.2,38.2,28.1c3.6,3.4,8.2,7.1,9.2,11.5
	c1.3,5.4,4.9,8,7.9,11.5c1.4,1.6,2.7,3.4,4,5.1c4.6,6.2,6.5,13.5,9.2,20.5c2,5.4,2.5,5.2,1.5,12c-0.1,0.4,0.2,1.1,0.6,1.3
	c4.8,2.9,6.5,8.7,11,11.8c5.2,3.6,7.9,8.3,6.7,14.9c-0.3,1.7-1.1,4.3,2.2,5.2c5.2,1.5,8,5.6,10.3,10.2c1.4,2.7,2.5,5.1,1.8,8.6
	c-0.4,2,5.6,1.9,7.4,4.8c0.5,0.8,1.6,1.5,1.1,2.6c-0.5,1.4-2,1.2-3.1,1c-3.9-0.6-7.9-1.2-11.7-2c-4.3-1-8.4-2.3-12.6-3.4
	c-0.2,0.4-0.3,0.8-0.5,1.2c5.1,2.8,10.3,5.7,16.1,6.8c14,2.7,14,2.6,15.8,5.3c-2,0.7-3-2-5.1-1.3c-9.1,2.8-18,0.6-26.9-0.9
	c-1.1-0.2-3.2-0.3-2.7,0.7c1.3,2.5,0.6,5.9,3.8,7.6c8.4,4.5,16.8,9.1,26.8,8.8c0.8,0,1.7,0.1,1.9,1.2c-0.6,1.5-1.9,1-3,1.1
	c-4.6,0.5-9.4,0.3-13.8,1.6c-3.9,1.2-6.7,0.3-9.7-1.7c-1.5-1-2.6-3.9-4.8-1.7c-1.9,1.9-1,4.1,0.7,6.2c8.5,10.6,19.6,13.9,32.6,12.2
	c0.9-0.1,2.1-0.5,2.6-1.2c2.6-3.4,7-2.5,10.2-4.6c-1.8,3.7-3.6,7.2-4,11.3c-0.1,1.1-0.2,2.5,1,3.1c1.1,0.6,2.4,0.6,3.2-0.4
	c2.2-2.9,6.2-3.2,8.5-6.4c2.5-3.5,7-2.9,9.1,0.8c1.6,2.8,4,4,6.6,5c2.1,0.8,3.7,2.1,5.3,3.5c2.7,2.4,2.3,4.1-0.5,6.3
	c-8.4,6.8-16,14.5-23.6,22c-6.9,6.8-14.3,13.4-20.4,21c-7.1,8.9-15,18.7-8.3,32.8c2.5,5.2,4.4,10.8,1.8,16.8
	c-2.1,4.9-4,9.8-6.9,14.4c-1.1,1.8-1.9,3.9-2.5,5.9c-0.8,2.4,0.1,4.5,2,6.2c2,1.7,3.9,1.5,6,0.4c2.4-1.2,4.6-2.6,6.5-4.5
	c3.9-3.8,7.5-8.4,12.2-11c9.2-5.1,16.5-12.1,22.8-20.2c1.2-1.6,3.1-2.4,3.8-4.9c2.8-10.1-1.8-21.9-11.5-25.8
	c-5.3-2.1-9.9-3.4-11.5-10.1c-1-4.6-1-9.5,2-13.3c7.5-9.7,19.8-13.1,27.8-22.1c1.2-1.3,2.6-2.5,3.9-3.8c2.2-2.3,4.6-1.9,6.5,0.3
	c1.6,1.9,2.2,4,1.6,6.9c-1.9,9.2-4.2,18.5-3.3,28.1c0.2,1.6-0.6,3.7,2,4.9c1.8-10.6,3.6-20.9,7.5-31.1c1.7,2.6,2.2,8.1,1.3,12.3
	c-3.9,17.4-6.1,34.9-5.9,52.8c0.1,6.4-1.4,12.9-3.5,19c-5.6,15.6-15.2,29.1-22.3,43.9c-0.7,1.5-1.9,2.7-3,4
	c-6.2,7.1-14.2,11.2-22.8,14.6c-4.6,1.8-9,1.9-13.6,0.5c-6.2-1.8-12.3-4.1-18.1-7c-4-2-5.8-4.8-4.5-9.2c0.6-2.2,1-4.4-0.1-7
	c-2.5,2.1-2,5.2-3.6,7.3c-4.7,6.3-7.2,13.8-10.4,20.8c-9.8,21.6-16,44.7-26.8,65.9c-5.1,10-7.8,21.1-13.3,30.9
	c-4.2,7.5-8.9,14.7-13.2,22.1c-0.6,1-2.8,3.2-0.1,3.7c2.9,0.5,3.1,1.6,2.6,3.9c-0.2,1.1,0.6,1.8,1.7,2c1.6,0.3,1.4-0.9,1.7-1.8
	c0.8-2.5-0.3-5.2,4.5-6.4c4.6-1.1-3.7-4-1.3-7.1c0.4-0.5,0.6-1.2,0.8-1.8c0.4-1.1,0.7-2.2,1-3.3c0.3-1.2-0.3-2.9,1.6-3.2
	c1.9-0.3,1.7,1.7,2.4,2.6c0.6,0.7,0.2,2.1,1.3,2.2c6.6-5.7,7-12.8,3.9-20.6c4.4,5,8,9.9,5.4,16.4c1.7,0,2-0.6,2.3-1.2
	c5.9-11.1,11.8-22.2,17.7-33.2c1.2-2.2,0.3-3.7-1.3-4.6c-1.7-1-4.2-1.4-5.4,0.5c-1.3,2-3.4,4.2-3.5,6.2c-0.5,7.9-4.7,11.8-12.5,13.3
	c1.9-3.2,0.7-8.2,6.6-8.3c0.4,0,1.1-0.8,1.3-1.3c1.4-5.2,1.9-10.9,8.4-12.8c0.8-0.3,0.2-1.6,0.5-2.2c2.1-4.7,4.2-9.4,6.3-14.1
	c1.7-3.9,4.8-7.4,6.7-11.1c6.6-12.6,12.5-25.7,17.2-39.2c0.6-1.8,0.9-2.7,2.9-1.5c5,2.9,10.3,4.7,16.1,5.5c3.4,0.4,4.6,3.1,2.7,5.8
	c-1.5,2.1-2,4,0.6,5.3c2.4,1.2,4.8,1.6,6-1.8c0.6-1.8,0.7-4,3.6-5.1c0,2.8,1,4.8,4.1,5.1c1.4,0.2,1.4,1.7,1.4,2.9
	c-0.1,5,0,10-1.8,14.7c-2.4,6.1,0.1,13-3.1,18.9c-0.3,0.5-0.2,1.5,0.2,1.9c2.9,3.7,1.1,7.2-0.2,10.8c-0.8,2.2-1.1,4.5-1.1,6.8
	c0.1,17.8-0.2,35.7,0.1,53.5c0.1,6.7,2.8,13.1,4.5,20.8c1.3-3.3,1.6-5.4,2.1-7.5c1.1-5.4,0.2-11,1.5-16.3c2.7-10.9,1.8-21.9,1-32.8
	c-0.9-11.9,0.3-23.9-1.4-35.8c-0.5-3.2,2.9-5.7,2.8-8.9c-0.4-10,2.4-19.8,2.1-29.8c0-1.2-0.8-2.9,0.9-3.5c1.7-0.5,0.8,2.5,2.6,2.3
	c1-2.2,0.3-4.3-0.6-6.3c-2.1-4.6,2.5-5.9,4.2-8.6c0.6-1,2.3-1.9,3.5-1.1c2.4,1.7,2.6,4.4,2.6,7.1c0,6.3-0.1,12.7,0,19
	c0.2,8.4-1,16.9,1.6,25.5C758.4,464.7,758.4,463.7,758.7,462.8z M853.4,107.7c-3.6-6.2-4-13.3-6.7-19.6c-4.2-9.9-8.9-19.6-13.5-29.4
	c-6.4-13.3-15.1-25.4-20.6-39.1c-2.2-5.5-5.2-10.8-8-16.1c-0.6-1.2-1.1-3.3-3.1-2.5c-2.3,0.8-0.6,2.7-0.3,3.8
	c1.1,3.5,2.4,6.9,3.9,10.2c8.5,19.3,16.3,38.9,23.2,58.8c1.7,5,2.7,10.3,4.7,15.1c7.8,18.7,16.1,37.1,26,54.8
	c5.2,9.2,9.4,19.2,18.4,25.7c0.6,0.5,0.9,1.4,1.5,2c5.2,5.1,10.5,10.2,15.8,15.2c0.3-0.2,0.7-0.5,1-0.7c-2.7-5-5.2-10.1-8.2-15
	c-4.9-7.9-9.3-16.1-12.5-24.8c-4.1-10.9-7.3-22.1-13.8-31.9c-0.5-0.8-0.9-2.1-2-1.7c-0.6,0.2-0.8,1.5-1.4,2.6
	C856.2,112.5,854.8,110.1,853.4,107.7z M639.7,245c-4.5-6.7-10.7-10.8-18.8-11.4c-10.2-0.8-20.4,2.1-30.6,1c-1.9-0.2-4,0.1-5.9,0.5
	c-12.9,2.2-25.8,4.3-38.8,5.5c-9.7,0.9-19.5,1.5-29.3,2.1c-5.5,0.3-10.9,2.1-14.8,6.3c-2.1,2.2-6.6,3.8-4.6,7.8
	c1.9,3.9,6.3,2.7,9.5,2.2c9.4-1.6,18.9-0.6,28.3-1.3c17.1-1.2,34-3.4,50.3-8.7c10.7-3.5,21.7-4.5,32.7-5.8c8-0.9,15.4,1.2,22.1,5.4
	C641,247,640.3,245.9,639.7,245z M1151.2,607.5c-7.8-10.8-14.5-22.2-21.7-33.3c-9.5-14.7-18.4-29.9-28.5-44.2
	c-8.2-11.6-16.2-23.4-23.9-35.3c-12.5-19.1-25.8-37.7-36.6-57.9c-5.4-10.1-12.2-19.6-17.6-29.9c-6.9-13-13.8-26-19.2-39.8
	c-4.8-12.1-10.5-23.9-14.9-36.1c-0.9-2.6-3.1-4.5-5.8-5.6c-1.1,1.4-0.3,2.4,0.3,3.4c8,13.9,13.3,29.1,19.5,43.9
	c10.8,25.9,23.8,50.8,36.5,75.8c12.5,24.5,27.6,47.5,42.8,70.5c5.5,8.3,12.1,15.8,17.6,24c6.2,9.2,13.7,17.2,19.7,26.4
	c5.1,7.8,12.1,14.1,16.8,22.1c4.1,7,10.7,12.1,14.4,19.5c0.4,0.8,1.2,1.6,2.9,1.4C1153.1,610.1,1152.1,608.8,1151.2,607.5z
	 M382.9,544c-4.9,1.2-10.2-1.9-15.8-1.9c-1.3,0-2.8-0.8-2.8-1.7c-0.1-6.9-7.7-8.2-9.9-13.5c-0.6-1.5-3.2-2.8-1.3-4.6
	c1.7-1.4,4.4-1.4,5.9,0.4c6.9,8.3,15.7,6.1,24.4,4.7c2.8-0.4,5.6-0.7,8.4-1c16.1-1.6,32,1.6,48,1.7c11,0.1,21.6,0.9,31.8,4.6
	c8.6,3.1,17.3,4.4,26.4,3.8c2.7-0.2,6.8-0.3,7,2.7c0.2,3.7-4,3.8-7,3.8c-4.1,0-8.3,0.7-12.4-0.7c-1.4-0.4-2.6,0-3.9,0.6
	c-8.6,3.7-17.5,2.1-26.4,1.5c-3.9-0.3-7.9,0.4-11.9,0.8c-11.9,1.2-23.7,2-35.5-1.7c-4.2-1.3-9.3-0.7-13.9-0.1
	C390.6,543.9,387.2,544.2,382.9,544z M396.3,532.7c1.1,1.6,2.5,2.3,3.9,2.5c7,1.4,13.7,3.6,21,3.4c6.9-0.2,13.9-0.4,20.8,0.7
	c5.8,0.9,11.8,0.3,17.7-3c-4.6-2.9-9.2-4.1-14-4.1c-9.3,0-18.4-0.4-27.6-2.7C410.9,527.8,403.6,529.8,396.3,532.7z M310.5,319.8
	c-0.7,0.4-1.4,0.7-2,1.2c-1.2,1.1-3.4,2.1-2.7,3.8c0.9,2.4,2.8,0,4.3,0.1c4.4,0.3,8-4.3,12.2-2.7c4.8,1.8,9.6,1.3,14.1,0.8
	c9.9-1,20.4-1.3,27.8-9.8c1.5-1.7,3.8-1.7,5.9-2.1c6.3-1.2,12.8-2,18.7-5.7c-3.1-1.9-6.2-1.1-9.1-1.7c-8.3-1.6-16.6-1.9-25,0.7
	c-6.2,2-12.7,3.3-19.4,3.3c-7.1,0-13.6-2-20.3-3.5c-6.6-1.5-11.7-5.8-13.8-12.7c-0.8-2.7-1.3-5.4-1.8-8.2c-0.3-1.5-1-2.5-2.6-2.4
	c-1.6,0.1-1.7,1.4-1.7,2.5c-0.1,1-0.2,2,0,3c3,11.9,0.8,11.5-11,15.9c-0.5,0.2-1,0.2-1.5,0.2c-1.2,0.2-2.3,0.5-2.4,2
	c-0.1,1.5,0.4,3.1,1.8,3.2c3.8,0.2,6.9,3.5,11.8,1.7c-2.4,1.7-4,2.4-6.1,2.5c-0.8,0-2.2-0.2-2.4,1.2c-0.2,1.6,1,1.8,2.1,2.2
	c4.5,1.7,9,0.9,13.5-1.1c-0.4,2.1-2,2.2-3,2.9c-1.1,0.8-3.3,0.9-2.6,2.8c0.6,1.7,2.6,1.2,4,1c3.6-0.5,7.1-1.3,10.7-2
	C310.2,319.3,310.3,319.5,310.5,319.8z M598.7,318.9c-12.3,4.6-25.3,3.1-37.8,2.9c-10.9-0.2-22-2.2-32.8-5.1
	c-7.3-2-14.7-3.9-22.4-2.2c-1.6,0.4-3.8,0.4-3.9,2.3c-0.2,2.3,2,2.2,3.6,2.3c4,0.4,7.9,1.6,11.3,3.5c9,5,18.1,9.6,28.4,11.6
	c3,0.6,5.5,2.1,7.2,4.9c1.5,2.5,4,3.4,7.1,2.6c-0.3-1.6-2.8-2.9-0.9-4.7c1.8-1.7,3.5,0,5.1,0.5c1.2,0.3,2.2,1.6,3.4,1.9
	c3.1,0.9,5.4,4.3,9.1,3.6c0.3-2.4-3.4-3.3-1.6-5.5c1.8-2.3,4.3-1,6.5-0.4c1.1,0.3,2.1,1,3.2,1.2c3.8,0.9,7.5,1.7,11.7,1.4
	c-2.7-5-2-6.4,3.5-6.1c3.6,0.2,6.9-0.5,10.2-1.2c-0.1-1.3-0.6-1.6-1.3-1.8c-1.5-0.3-3.2-0.4-3.3-2.4c0-1.7,1.5-2.4,2.7-3.3
	c2-1.4,4.4-2.4,6.4-5.3C608.6,319.1,603.7,317,598.7,318.9z M882.8,76.9c-1.5-1.6-2.7-3.4-4-5c-8.4-10.4-16.1-21.3-23.4-32.5
	c-7.9-12.2-17.5-23.3-27.9-33.7C821.4-0.5,815,0.3,807.3,1c9.2,9.3,16.6,19.2,24.2,28.8c6.8,8.5,14.4,16.4,20.4,25.6
	c3.9,6,10.5,9.8,14.4,15.7c5.5,8.4,14,13.5,20.3,20.9c1,1.2,2.6,2,4.4,2.3C892.6,86.2,887.4,81.7,882.8,76.9z M129.4,68.8
	c4.7-8.1,9.3-16.2,16.8-22.4c3.5-2.9,7.4-5.6,10.2-9.2c4-5,6.3-10.8,13-13.8c7.6-3.4,10.4-11.5,13.4-18.9c1.2-3,0-4-2.8-4
	c-3.7,0-7.3,0.1-11,0c-2.8-0.1-4.2,1.1-5.1,3.7c-2.3,6.9-5.4,13.5-6.6,20.8c-0.4,2.6-1.8,4.7-3.4,6.5c-3.7,4.1-7.6,7.9-11.2,12
	c-8.9,10-18.5,19.5-24.6,31.7c-2.7,5.4-7.4,10.2-6.1,17.4C116.9,83.8,124.5,77.4,129.4,68.8z M752.3,532.1c1-9,3.6-17.4,5.1-26.2
	c1.5-9.4,4.5-18.6,5.3-28.2c0.1-1.5,0.8-3.9-1.1-4.4c-2.3-0.6-2.5,2.1-3.5,3.4c-5.8,7.3-4.2,16.4-5.9,24.7c-1.1,5.2-2.3,10.3-3,15.5
	c-1.3,9.5-1.9,19.1-3.4,28.5c-0.4,3-0.4,5.5,1.2,9C750.2,546.9,751.5,539.4,752.3,532.1z M929.8,234c6.7,12.3,14.5,24.1,19.9,37.1
	c0.9,2.2,2.6,3.4,5.2,2.3c1.4-0.6,2.7-1.1,3.3,1.3c0.5,1.9,1.8,4.2,4.2,2.5c2.3-1.6,0.2-3.6-0.9-5.1c-7.6-10.4-14.3-21.4-22.7-31.2
	c-2.7-3.1-5.4-6.2-9.3-9.4C929.7,233.1,929.6,233.6,929.8,234z M73.7,186.9c3.1-4.6,7.1-8.6,9.2-14c3.7-9.7,7.9-19.3,11.7-29
	c0.8-2,2.9-5.2,0.7-6.1c-2.5-1-2.9,2.8-3.9,4.7c-5.7,11-9.9,22.7-18.1,32.3C70.5,178,69,182.2,67,186c-0.8,1.6-0.9,3,1.6,2.6
	C70.3,187.8,72.4,188.7,73.7,186.9z M836.5,483c-6.7-6.7-12.3-14.2-16.6-22.7c-0.9-1.9-1.3-5.6-3.9-4.8c-2.1,0.6-2,4.2-1.9,6.7
	c0,1.4,0.6,2.5,1.3,3.7c3.7,6.7,9.4,11.5,15.2,16.2c1,0.8,2.6,1.6,2.2,3c-0.4,1.4-2.1,1.3-3.5,1.3c-2.5,0.1-4.9-0.2-7.4-0.9
	c-1.1-0.3-2.7-1.7-3.5,0.2c-0.8,1.8,0.6,2.3,2.2,3c8,3.5,14.8-1,22.1-3C840.6,484.5,838.3,484.9,836.5,483z M366.1,265.6
	c-7.8-10.1-18.9-14.5-30.7-17.5c-6.3-1.6-12.8-1.9-19.3-1.4c-2,0.2-4.3,0.4-3.9,3.3c0.5,3.3,2.9,1.3,4.3,0.9c2-0.5,3.9-0.8,5.9-0.8
	c14.4,0.2,26.6,5.8,37.8,14.4c3.3,2.5,6.3,5.8,11.2,6.9C370.7,267.9,367.6,267.5,366.1,265.6z M399.5,269.7
	c6.8,6.4,12.4,13.2,12.8,23.3c0.1,3.1,0.8,6.2,1,9.4c0.1,1.1,0.7,2,1.7,2.2c1.4,0.2,1.6-1,1.6-2c-0.1-6,0.8-11.9-0.7-17.9
	c-2.8-10.5-11.1-15.9-19.3-21.5c-1.9-1.3-3.8-3.3-8.1-2.2C392.8,264.1,396.3,266.7,399.5,269.7z M408.5,458.5
	c-5.5-3.1-9.3-7.8-12.8-12.9c-1.3-2-2.9-3.7-5.2-4.5c-1.6-0.6-3.3-1.7-5.1-0.1c-1.9,1.8-0.8,3.6-0.3,5.5c0.5,1.9,2,2.6,3.4,3.3
	c2.8,1.4,5.3,3,7.6,5.3c3.9,3.7,8.3,7.7,14.6,6.4C410.7,459.9,409.6,459.2,408.5,458.5z M370.3,428.1c0.2,6.5,1.7,13.3,7.3,17.9
	c0.9,0.8,1.8,2.5,3.2,1.3c1.2-1-0.3-2.1-0.8-3c-6.7-12.5-6.9-25-0.3-37.5c0.7-1.4,2.1-2.7,0.9-5C373.1,409.3,370,418.3,370.3,428.1z
	 M807.9,447.1c0.5-17.3,3.5-34.6-0.3-52c0.8,17.4-3.2,34.6-2.5,52C806,447.1,807,447.1,807.9,447.1z M622.1,607.4
	c1.4-2.4,1.8-6.1,2.5-9.3c0.2-1.1,0.2-2.4-1-3.1c-0.8-0.4-1.7-0.3-2.3,0.3c-4.7,4.4-8.7,9.3-10.7,15.5c-0.3,1-0.5,2.1,0.6,2.6
	c1.2,0.5,1.5-0.9,2.2-1.5c1.9-1.7,0.9-4.9,3.1-6.5C618.2,606.9,619.5,612,622.1,607.4z M490.1,8.5c8.1-0.8,15.4-6.2,23.9-4.5
	c0.7,0.1,1.8-0.1,1.9-1.1c0-1.5-1.4-1.9-2.4-2.1c-10.2-1.6-19.5,0.5-27.7,7.2C487.4,9.7,488.7,8.6,490.1,8.5z M70.6,527.3
	c4.4,2.2,9.4,3.8,13.1,6.9c5.3,4.4,8.8,4.2,12.4-1.7c0.9-1.5,2.9-2.3,2.2-4.5c-0.8-2.3-2.9-2.7-4.9-2.4c-8.9,1.1-17.6-0.3-27.2-2.9
	C67.7,525.3,68.9,526.5,70.6,527.3z"/>
<g>
</g>
<g>
</g>
<g>
</g>
<g>
</g>
<g>
</g>
<g>
</g>
<g>
</g>
<g>
</g>
<g>
</g>
<g>
</g>
<g>
</g>
<g>
</g>
<g>
</g>
<g>
</g>
<g>
</g>
</svg>
