<?xml version="1.0" encoding="utf-8"?>
<!-- Generator: Adobe Illustrator 18.0.0, SVG Export Plug-In . SVG Version: 6.00 Build 0)  -->
<!DOCTYPE svg PUBLIC "-//W3C//DTD SVG 1.1//EN" "http://www.w3.org/Graphics/SVG/1.1/DTD/svg11.dtd">
<svg version="1.1" id="Layer_1" xmlns="http://www.w3.org/2000/svg" xmlns:xlink="http://www.w3.org/1999/xlink" x="0px" y="0px"
	 viewBox="0 0 1280.4 720.7" enable-background="new 0 0 1280.4 720.7" xml:space="preserve">
<path d="M195.4,720.7c-0.1-10.2-4.1-19.8-4.3-30c-0.1-4.8,0.2-9.4,2.5-14c1.6-3.3,1.1-7.3,0.7-11.2c-1.1-11.4-2.8-22.8-6.9-33.2
	c-2.5-6.3-3.1-13-6-19.1c-1.2-2.6-1.8-2.6-3.7-0.9c-7,6.5-15.1,12-19.3,21c-0.5,1-1.4,1.7-2.3,2.8c-2.3-3.4-1.9-6.6-0.8-10
	c2.6-8-0.8-15.9-8.2-19.7c-1.5-0.8-1.9-0.2-2.5,1.1c-1.2,3-2.5,6-4.1,9.6c-3-4.6-4-9.2-5.2-13.8c-0.4-1.4-0.8-2.9-1.3-4.3
	c-0.5-1.4-1.7-2-3.2-2c-1.4,0-1.7,1.1-2.3,2.2c-6,9.7-9.4,20-7.9,31.6c0.1,1.2,0.5,2.6-1,4c-2.5-4.1-4.3-8.1-4.6-12.8
	c-0.3-6.3,0.6-12.6-0.6-18.9c-0.3-1.5,0.7-2.9,1.6-4.1c1.1-1.5,0.5-3.1-0.4-4.1c-1.3-1.5-2.3,0.1-3.3,0.8
	c-9.3,5.9-9.9,7.9-13.5,20.8c-3.6-3.4-3.8-7.8-3.6-11.5c0.5-8.6,2.6-16.9,10.2-22.5c0.9-0.6,2.3-1.4,1.4-2.8c-0.7-1.1-2.3-1-3.2-0.5
	c-7,3.8-14,7.3-20.3,12.8c-7.2,6.3-13.5,13.4-20.2,19.9c-7.4,7.2-13.8,15.6-19.6,24.3c-5.6,8.5-12.5,16.3-17.4,25.1
	c-5,8.9-10.4,17.6-15.5,26.5c-2.9,5.1-5.7,10.3-10.5,15.7c0-8.2,0.1-15.3-0.1-22.4c-0.1-2.5,2.3-2.6,3.3-3.9
	c6.6-9,14-17.4,19.6-27.2c0.2-0.4,0.4-1,0.8-1.3c4.2-2.6,6.1-6.7,8.1-11c4-8.8,12-14.6,18.5-21.1c5.5-5.5,9.8-11.6,14.8-17.3
	c3.4-4,7.1-7.8,10.7-11.7c2.8-2.9,7.7-2.2,11.2-4.9c2-1.6,3.9-2.3,4.3-5.3c0.3-2.6,1.4-4.7,5.1-4.8c3.5-0.1,6.4-2.4,7.5-6.1
	c0.6-2,1.5-3.1,3.9-3.7c3.8-0.8,5.7-4.7,8.9-6.8c9.4-6.1,18.7-12.1,30-13.9c5.7-0.9,11.5-1.5,17.3-1.7c7.8-0.3,15.7,0.2,23.5-0.1
	c15.2-0.6,30,2.8,45,4.5c11.1,1.2,22,0.7,32.8-3.1c6.9-2.4,13.3-5.8,20.4-7.7c2.6-0.7,4.9-2.1,6.6-4.3c1.2-1.5,4.5-1.6,3.5-4
	c-0.6-1.6-3.3-0.6-5.1-0.7c-3.7-0.1-6.9,1.3-10.4,2.6c-7.5,3-15.2,5.9-23.4,6.2c-4.5,0.1-8.9,1.1-13.4,1.1
	c-8.8,0.1-10.9-1.7-10.5-10.3c0.3-7.4-1.8-14.5-2.3-21.8c-0.1-1.8-1-3.5-1.7-5.2c-2.7-7-5.1-7.8-11.2-3.5c-2.2,1.5-4.2,4.3-7.3,1.3
	c-0.3-0.3-1-0.3-1.4-0.2c-9.2,3.5-9.2,3.5-17.4,0.6c6.1-1.1,8.8-6.5,14.5-5.6c1,0.2,1.6,0.1,1.4-1.2c-0.7-5.7,2.5-10.3,4.8-14.9
	c2.1-4.2,1.3-7.6-0.2-11.4c-2.9-7.3-7.9-13.3-11.8-19.9c-0.4-0.7-1.2-1.4-1.3-2.1c-0.4-6.1-6-8.9-8.5-13.6
	c-4.3-8.1-10-15.6-9.8-25.5c0.1-5.4,4.1-9.2,5.5-14.2c1.8-6.4,5.1-12.2,6.1-19.1c0.7-4.9,2.6-10.6,7.7-14.4c2.7-2,3.4-5.2,7.7-2.3
	c2.2,1.5,2-1.8,2-3.2c0.1-7.7,0.1-15.3,0-23c0-6.4,4-11.7,4.4-18c0.2-2.6,3.1-0.9,4.7-1.6c1.9-0.9,1.4,1.2,1.6,2.1
	c1.4,5.6,3,10.7,7,15.5c2.8,3.3,1.9,9.7,0.5,14c-2.1,6-1.2,12.1-2.4,18.1c-1.6,7.7-1.7,15.5-0.2,23.3c0.3,1.5,0.6,3.2-0.7,4.7
	c-1.6-1.4-0.4-3.3-1.4-5.2c-2.9,6.4-2.4,12.9-2.6,19.1c-0.4,8.2-1.5,16.6,2.5,24.5c1.8,3.7-2.3,6.5-3.3,9.9
	c-2.2,8-1.3,15.7-0.7,23.6c0.6,8.4,7.5,13.8,9.6,21.4c0.4,1.5,2.3,3.5,4.6,3.1c2.3-0.4,2.1-2.6,2.6-4.3c1.2-4.1,5.6-5.4,8-8.6
	c4.1-5.4,8.2-10.9,8.6-17.9c0.3-5,2-9.4,3.7-13.8c0.8-2.1,1.5-3.9,1.5-6.1c0-7,0-14,0-21c0-1.8-0.2-3.7,1.1-5.2
	c1.2-1.5,2-3.1,4.1-0.7c1.8,2.1,4.3,3.6,6.6,5.3c2.5,1.9,5,1.5,4.8-1.7c-0.4-7,3.6-13,3.8-19.9c0.2-5.3,2.8-10.8,5.1-15.8
	c1.4-3.1,5.5-3.4,8.5-3c3.1,0.4,3,3.7,2.7,6.2c-0.7,5.3,2.6,9.2,4.5,13.5c1.3,2.9,2,5.5,1.6,8.5c-0.5,3.5,0.2,7,1.3,10.3
	c0.5,1.5,1.6,2.7,3.4,2.4c1.8-0.3,1.5-1.9,1.6-3.2c0.9-12.6,1.3-25.2,4.8-37.4c1.1-4-1.5-7.4-2-11.1c-1.6-11.4-1.4-22.9-1.9-34.3
	c-0.4-8.8-2.3-17.6-3.3-26.4c-1-8.8-1.1-17.7-0.1-26.4c1.8-14.9,2.1-29.7-0.8-44.5c-1.3-6.5-0.9-13.4-1.3-20.7
	c-6.1,4.2-12,8.6-16.9,14.3c-11.4,12.9-19.4,27.8-24.2,44.1c-3.6,12-4.9,24.8-5.2,37.3c-0.2,7.7,0.5,15.6,0.8,23.4
	c0.2,6.7-1.9,12.4-5.5,18.1c-4,6.4-7.5,13.3-9.6,20.7c-0.6,2.2-2,3.8-2.8,5.8c-0.7,1.7-0.5,4.9-2.9,4.3c-1.9-0.4-1.9-3.5-2.1-5.7
	c-1-13.7,1.3-27,4.9-40.2c2.6-9.6,3.7-19.5,6.2-29.1c1.9-7.1,2.4-13.9,2.3-21.4c-0.1-9.1,0.5-18.8,5.8-27.3
	c2.2-3.6,1.5-8.3,2.3-12.5c1.9-9.6,7.2-17,12.5-24.6c4.1-5.9,8.6-11.5,13.9-16.5c6.2-5.9,13.2-10.3,20.6-14.3
	c7.3-3.9,14.5-8.2,20.5-13.7c8.4-7.8,17.9-14.4,25.6-23.5c-8.4,3.3-14.4,9.7-21.8,13.9c-7.6,4.2-15.3,6.2-23.9,6.2
	c-5.4,0-10.8,1.6-16.2,2.4c-1.9,0.3-3.8,0.2-4.4-2.2c-0.7-2.8,2-1.9,3.1-2.8c6.8-5.5,16.6-5.2,22.7-11.8c0.9-1,2.1-1.8,3.5-1.4
	c5.4,1.7,10.9-0.1,16.3,0.7c2.7,0.4,4.5-1.9,8-2.5c-23.6-3.5-44.7,1.6-65.3,10.7c19.8-16.4,41.5-29.6,63.3-44.7
	c-3.7,0.7-5.7,2.3-8,3.5c-2.3,1.3-4.8,2.3-6.9,3.9c-3.5,2.5-7.9,3.5-10.9,6.7c-0.5,0.6-1.4,1.2-2.2,0.4c-0.9-1-0.1-2,0.6-2.5
	c5-3.8,9.7-7.9,15.1-11.3c11.9-7.5,23-16,31.6-27.4c-10.5,4.3-21.1,8.6-31.6,12.9c-19,7.8-37.7,16.1-54.6,28
	c-1.1,0.8-2.7,2.4-3.9,0.8c-1.3-1.8,0.7-2.7,1.8-3.9c8.8-9,19.3-15.7,29.5-22.7c3.3-2.2,6.3-4.8,9.5-7.3c0.4-0.3,1-0.8,1-1.1
	c-1.6-6.8,4.7-9,8-12.1c9.6-9.1,15.1-20.5,20-32.3c1.7-4.2,1-8.9,3-13.1c0.3-0.7,0.4-1.8-0.5-2.2c-0.9-0.4-1.9-0.1-2.8,0.5
	c-2,1.4-2.3,4-3.9,5.7c-8.1,8.3-16.4,16.4-26.3,22.7c-5.2,3.3-10.2,6.8-15.3,10.1c-1.1,0.7-2.3,1.3-3.5,1.8
	c-0.9,0.3-1.9,1.1-2.7,0.1c-0.8-1,0.2-1.9,0.7-2.6c10.6-14.5,20.4-29.5,35.8-40c10.3-7,19.3-16.1,26-27c1.5-2.4,3.4-3.2,6.2-3.2
	c12.8,0.1,25.7,0,38.5,0.1c4.9,0,4.9,0.3,2.7,4.7c-2.5,4.8-4.5,9.8-7.1,15.6c4.5-6.4,8.6-11.9,12.4-17.5c1.4-2,2.8-3.6,5.2-2.4
	c2.6,1.3,0.4,3.1-0.2,4.6c-4.8,12.7-8.6,25.7-10,39.1c-0.8,7.3-1.6,14.4-3.3,21.5c-1.5,6.4-3.7,12.3-7.5,17.6
	c-4.7,6.7-9,13.7-14.6,19.8c10.4-9.1,20.7-18.2,29-29.4c-8.4,27.5-25.9,48.4-47.4,66.4c9.1-3.6,16.1-10.2,23.9-15.7
	c11-7.8,20.6-17.2,29.1-27.7c0.6-0.8,1.5-1.6,2.6-0.9c1,0.6,0.6,1.7,0.4,2.7c-5.3,24.8-7.8,50-11.6,75c-2.6,16.7-5.7,33.3-8.3,49.9
	c-2.9,18.4-5.2,37-3.3,55.6c1.9,19.3,6.5,38.1,11.9,56.8c8.2,28.4,19.5,55.6,30.3,83c5.1,12.9,9.7,26.1,17.3,38
	c5,7.8,10.4,15.4,16.6,22.3c14.1,15.6,30.2,28.7,49.2,38.1c20.7,10.3,41.5,20.2,63.3,27.7c16,5.6,32,11.8,49.1,14
	c20.3,2.5,40.4,2.3,60.1-4.4c13.2-4.5,26.5-8.8,37.6-17.5c20-15.6,39.6-31.7,53.8-53.3c9.4-14.2,16.3-29.4,22.5-45.2
	c7.9-20.1,11-41.3,15-62.2c1.6-8.4,3.6-16.9,4.4-25.4c0.3-3.3,2.2-3.3,4.5-2.5c11.7,4.2,23.1,0.7,29.3-10
	c4.8-8.3,8.7-17.1,12.9-25.7c0.8-1.6,1.2-3.5,1.3-5.3c1-17.4,0.9-34.8-2.9-51.9c-1.2-5.2-2.5-10.3-4.3-15.3
	c-2.1-5.8-3.7-11.7-4.5-17.8c-1-7.3-7.5-6.1-11.8-7.3c-6.7-1.9-7.6-1.8-7.2-8.7c0.6-9.1-3.3-17.6-3.4-26.6c0-7.1-1.5-14.2-1.6-21.3
	c-0.3-18,0.3-35.9-1.1-53.9c-0.5-6.1-2.4-12.1-1.9-18.3c0.2-2.2-1.3-5.5,2.5-6c3.4-0.4,7-0.9,9.2,3.1c2.3,4.3,5,8.3,8,13.3
	c0.4-4-2.7-6.5-1-9.8c8.2,8.2,14.2,17.1,14,29.3c-0.2,12.1,4.1,23.4,7,35c0.5,1.9,1.7,3.6-0.6,6.5c-6.4-15.1-10-30.3-13.9-45.5
	c0.4,19.2,4,37.7,11.3,55.6c-0.4,0.2-0.8,0.5-1.2,0.7c-4.5-5.7-9.1-11.4-13.6-17.1c0.8,7,4.6,12.5,8.5,17.6
	c5.8,7.7,10,16.3,15.4,24.3c2.8,4.2,4.8,8.3,4.6,14.6c-0.4,13.8-1.6,28.2,3.1,41.5c5.3,15,6.5,30.3,6.6,45.9c0,3.7-0.3,7.3-1.4,10.8
	c-4.1,12.6-9.3,24.5-16.8,35.8c-7.5,11.3-17.8,20-25.6,30.9c-0.7,0.9-1.5,1.8-2.8,2c-1.6-4-1.6-5,2.1-9c3-3.3,4.5-7.3,6.6-11.1
	c0.5-0.9,1.4-2.1,0.1-3.2c-1.2-1-2.1-0.2-3,0.6c-6.1,4.7-12.8,6.2-20,3.4c-2.4-0.9-3.2-0.7-3.3,2.1c-0.3,12.7-4.1,24.9-6.1,37.3
	c-2.2,13.3-6.9,25.8-9.2,39c-1.3,7.1-4.8,13.8-7.8,20.5c-4.5,10.1-9.5,20-15.2,29.4c-3.3,5.5-7.1,11.2-11.2,15.5
	c-7.9,8.2-15.3,17-23.8,24.6c-2.9,2.6-3.3,6.2-3.4,9.6c-0.2,5.4-0.7,10.7-1,16.1c-0.7,11.5-3.8,21.8-11.4,31.6
	c-0.5-5.3,1.1-9.4,2.6-13.5c4.1-11.7,4.7-24,7-36.1c0.2-1.1,0.4-2.5-0.8-3.2c-1.6-0.9-2.4,0.7-3.3,1.5c-7.3,6.5-14.9,12.7-23.3,17.8
	c-12.4,7.6-26.1,11.2-40.1,13.9c-13.4,2.6-27,3.4-40.6,3.2c-14.8-0.3-29-3.3-42.4-9.6c-6.8-3.2-14.3-3.9-21.4-6.3
	c-18.7-6.2-37-13.1-54.2-22.9c-15.8-8.9-30.5-19.4-44.7-30.4c-13.9-10.7-24.4-24.7-33.4-39.8c-2.1-3.5-4.4-7-6.2-12.1
	c-1,6.7,1.1,12,1.7,17.3c1.6,12.8,3.5,25.6,5.5,38.3c1.6,10.1,4.4,19.9,7.7,29.7c7.3,22,18.4,42.6,25.8,64.6c2,5.9,5,11.5,7.6,17.2
	c8.7,19.5,17.6,39.1,27.5,58c6.1,11.7,11.4,24,19,34.9c0.3,0.4,0.1,1.2,0.2,2.3c-5.4-2-7.1-6.8-9.6-10.6
	c-9.9-15.3-19.3-30.9-28.9-46.3c-2.4-3.8-4.8-7.5-7.6-11.1c2.5,6.8,4.7,13.7,7.6,20.2c7.5,17,14.2,34.4,22.8,50.9
	c1.8,3.4,2.6,7.4,3.8,11.2c-37,0-74,0-111,0c-0.1-3-0.4-6-0.3-9c0.7-16.4,2.5-32.8-0.8-49.3c-1.5-7.6-2.7-15.1-4.6-22.6
	c-3.1-11.8-6.9-23.2-12.7-33.9c-0.9-1.7-2.2-3.4-2.7-5.3c-2-7.3-5.6-14.1-8.6-20.9c-4-8.8-10.1-16.7-15-25
	c-6.3-10.7-13.3-21-17.3-33c-1.8-5.3-4.1-5.4-7.9-0.9c-1,1.1-2.1,2.1-3.3,3c-2.9,2-2.8,4.2-1.3,7.2c9.8,20.4,19.4,40.9,30,60.9
	c4.4,8.2,8.8,16.5,12.8,25c3.4,7.1,7.9,14.2,9.3,21.6c2.2,11.6,8.7,21.8,9.6,33.5c0.3,3.3,3.8,5.2,3.9,8.4c0.7,13.4,3,26.7,1.8,40.2
	C325.4,720.7,260.4,720.7,195.4,720.7z M344.3,227.3c-0.5,1-1,1.6-0.9,2.2c0.5,5.7-3,5.7-7.2,5.6c-5.4-0.1-10.4,1.1-12.4,7.2
	c-0.2,0.7-1.1,1.1-1.7,1.6c-5.8,4.3-10.7,9-9.4,17.3c0.2,1.4,0.1,3-0.2,4.5c-1.4,9.4-2.7,18.7-0.8,28.2c2.4,12,4.8,23.6,14.8,32.3
	c4,3.5,7.6,7.7,10.9,12.1c7.7,10.2,17,18,31.4,16.3c7.1-0.8,12.8-3.9,17.3-8.7c3.2-3.4-0.3-7.8-1.7-11.6c-0.1-0.3-0.2-0.6-0.2-1
	c-1.6-11.3-6-22-8.6-33.1c-0.7-3.1-2.3-5.9-5-7.8c-2.4-1.7-2.8-2.9,0.3-3.9c1.6-0.5,2.3-1.5,1.7-3c-3.1-8.3-1-16.8-1.7-25.2
	c-0.2-2.6,1.4-6.3-1.1-7.4c-3-1.3-5,2.4-7.4,4.1c-2.3,1.6-4.8,13.1-3.6,15.1c2.9,5,2.7,11.1,5.6,16.1c0.4,0.6-0.2,1.9-0.6,2.8
	c-1.3,2.7-2.7,5.3-4.1,8c-2.5,4.8-8.6,7-13.4,4.8c-2.9-1.3-5.6-3.3-8.5-4c-4-0.9-5.7-3.7-7.3-6.8c-1.5-2.8-3.3-5.6-4.1-8.4
	c-1.4-4.7-4.1-9.4-2.4-14.8c2.9-9.4,10.1-15.4,16.7-21.9c0.9-0.9,1.7-0.6,2.7-0.7c1.5-0.2,8-9.4,7.7-10.8c-0.1-0.4-0.4-1.1-0.8-1.2
	C346.8,234.1,346.9,230.2,344.3,227.3z M202.8,654c5.8-9.8,11.7-19.1,20.1-26.4c3-2.7,3.6-6.6,6.3-9.4c8.8-9.2,17.2-18.9,25.9-28.1
	c2.5-2.7,2.5-6.7,5.1-9c8.5-7.6,10.3-18.9,16.2-28c1.2-1.9,0.6-5.7-2.2-7.4c-3.3-1.9-4.8,1.4-5.6,3.2c-1.9,4.3-5.2,7.6-7.7,11.5
	c-3.7,5.7-8.9,10.2-13.4,15.3c-7.2,8.2-17.9,12.4-25.9,20c-8.2,7.8-17.8,14.2-25.8,22.4c-2.1,2.2-2.2,4.1-1.4,6.7
	c2,6.3,3.9,12.6,5.9,18.9C201.3,646.9,199.7,650.8,202.8,654z M319.3,588.1c-3.6-5.2-5.4-11.3-8.1-16.9c-4.1-8.4-8.7-16.7-10.3-26.1
	c-1-5.8-6.6-8-11.2-4.7c-1.2,0.8-3.2,2-1.8,3.9c2.9,3.7,3.7,8.5,6.5,12.2c6.1,7.9,8.2,17.3,10.1,26.6c1.4,6.9,4.3,13.6,3.6,20.9
	c1.5-1.7,1.9-3.5,2-5.5c0.2-6.3-1-12.5-1.6-18.8c-0.1-1.4-0.6-2.9,1-3.4c1.8-0.6,2.4,1.2,2.6,2.3C313,582.9,316.4,585.3,319.3,588.1
	z M233.4,577.8c-1.9-1.6-3.6-0.5-5.1,0.3c-12.2,6.6-24.7,12.7-35.8,21.3c-7.2,5.5-5.9,5.1-3.3,12.6c0.7,2.1,2.2,3.1,4.4,0.7
	c3.4-3.8,6.4-8,10.8-10.9c7-4.7,11.8-11.9,19.3-16.3C227,583.5,231.5,582.2,233.4,577.8z M172.5,591.9c-1.9-3.3-2.2-8-6.3-9.2
	c-3-0.8-6.7-0.7-9,2.4c-2.3,3-4.3,6.3-6.4,9.5c-1.5,2.3-1.1,4.4,1.2,6c1.4,0.9,2.7,1.9,4.1,2.8c6,3.9,6.4,3.7,10.2-2.5
	C168.2,597.9,170.4,595,172.5,591.9z M339.6,590.8c-3.4-6.6-6.9-13.1-10.1-19.8c-3.5-7.2-7.5-14.1-10.1-21.8
	c-1.4-4.4-3.7-8.5-5.9-12.6c-1.2-2.2-3.4-1.7-5.3-1.1c-1.1,0.3-1.1,1.3-0.6,2.4c5,10.4,10.5,20.5,16.2,30.5
	C328.4,576.2,335.1,582.6,339.6,590.8z M363.8,193.5c0-1.7-1.3-2-2.5-2.6c-4.8-2.7-10-1.8-15.1-1.7c-2.7,0-2.6,1.8-1.8,3.9
	c1.5,4,3.8,7.7,6,11.3c0.4,0.7,0.6,1.5,1.7,1.4C354.8,205.6,363.8,196.2,363.8,193.5z M1019.4,720.7c0.5-4.5,0.8-8.9,1.4-13.3
	c0.5-4,0.6-8.2,6-9.6c3.3-0.9,6.1-3.2,9.2-4.9c2.2-1.2,5.5-2.5,5-4.9c-0.7-2.9-4.2-1.5-6.5-1.5c-11.4-0.2-12.5-1.5-10.4-13
	c1.4-7.5,2.4-15,2.8-22.6c0.4-7.4,3.8-14.2,4.4-21.9c0.8-10.4,3.6-20.7,4.5-32.4c4.6,6.1,8.9,11.2,12.4,16.7
	c2.2,3.5,5.4,5.9,7.7,9.1c7,9.9,14.7,19.2,25.9,24.8c4.3,2.2,8.6,4.4,12.5,7.1c21.2,15.2,38.4,34.8,56.8,53c2.1,2.1,3.5,4.9,6,6.6
	c3.1,2.1,6.6,1.1,9.2-0.7c1.4-0.9,2.5-3.9,0.4-6.2c-5.8-6.4-11.1-13.2-17.2-19.3c-11.2-11.2-21.2-23.6-34-33.2
	c-5.6-4.2-10.6-8.8-16.6-12.6c-7.6-4.8-15.3-9.7-22.5-15.4c-9-7.1-15-16.7-22.6-25c-13.3-14.5-26.3-29.4-39.4-44.1
	c-1.4-1.6-2.7-3.4-4.3-4.8c-1.3-1.2-1.8-2.4-1.1-4c1.4-3.4-0.5-4.5-3.2-4.2c-3.8,0.3-6-1.8-8.6-4.1c-5.7-5-10.2-11.6-18-14.6
	c-0.1,3.5,2.1,5.2,4.4,6.7c1,0.7,2.7,1.2,2.2,2.9c-0.4,1.4-1.9,1.8-3.2,1.9c-7.3,0.7-14.5,1.3-21.8,2.1c-1.5,0.2-4-0.9-4.3,1.1
	c-0.4,2.1,2.2,2.9,3.8,3.2c8.4,1.6,16.6,4.2,25.2,5.3c7.7,1,16.8-0.2,19.9,10.1c0.1,0.4,0.6,0.8,0.9,1.1c3.1,2.7,2.5,4.2-1.3,5.3
	c-11.6,3.4-23.3,6.2-35.6,5.8c-8.8-0.3-17.7-0.1-26.5,0c-2.3,0-5,1.2-6.8,0.4c-10.1-4.7-21.2-5.6-31.5-10.3
	c-11.7-5.3-22.5-12-33.7-18c-3.6-1.9-7.3-4.9-10.3-8.4c-4.4-5.3-11-8.4-14.3-14.9c-1.1-2-3.6-1.7-4,1.4c-0.2,1.3-0.2,2.7,0.1,4
	c2.2,10.3,4.6,20.6,7.7,30.7c1.4,4.5,3.9,8.6,4.8,13c4.3,19.9,15.3,36,27.2,51.7c1.9,2.6,4.6,4.8,6.5,7.5
	c7.8,11.4,18,20.1,29.5,27.5c8.9,5.7,17.5,11.8,27,16.4c-44-13.5-75.3-42.1-96.7-82.6c-0.2,3.8-0.2,7,1.2,10.1
	c2.8,6.4,5.9,12.5,9.4,18.5c3.3,5.6,6.3,11.5,10.1,16.9c4.9,7.2,10.9,13.3,16.6,19.8c10.2,11.7,21.8,21.7,35.4,29.2
	c1.7,1,3.5,1.9,5.2,3c0.8,0.5,0.9,0.9,0.3,1.1c-3.4,1-1.7,2.8-0.3,3.8c7.3,5.3,14.1,11.7,23.3,13.9c6.2,1.5,11.4,5.3,17.6,6.6
	c-11,1.6-21.8,0.8-32.4-0.7c-6.1-0.8-12.4-0.3-18.2-2.1c-10.7-3.3-21.9-4.9-32.2-9.7c-7.2-3.4-14.3-6.9-20.6-11.8
	c-7.9-6.2-16.5-11.5-22.8-19.6c-2.1-2.7-3.7-5.7-6.2-8.2c-8.4-8.2-13.9-18.5-18.9-29c-2-4.1-3.5-8.5-7-11.8
	c6.7,33.9,29.3,56.8,54.6,78.1c-6.6-4.3-14.3-6.4-20.6-11c-4.3-3.1-8.2-6.7-12.4-10c-1-0.8-2.3-1.8-3.7-1c-1.5,0.8-0.2,2,0,3
	c0.3,1.1,0.4,2.5,1,3.3c6.8,8.5,13.6,16.9,21.5,24.5c5,4.8,11.9,7.6,15.3,14C916,720.7,967.7,720.7,1019.4,720.7z M786.4,720.7
	c0.7-2.3-0.2-5,1.9-7c1.2-1.1,0.4-1.9-0.6-2.8c-1.2-1.1-3-1.5-3.3-3.4c1.5-1,3.1-1.8,4.5-2.9c1.4-1,0.8-4.9,3.5-3.5
	c2.5,1.3,4.6,3.8,4.7,7.1c0.1,4.1,0.2,8.3,0.3,12.4c10,0,20,0,30,0c-3.7-3.9-7.3-7.9-12.4-10.3c-7.2-3.3-12.7-7.7-11.4-17.3
	c1.1-8.5-1-17.2-1-25.9c0-5.4-1.7-10.9-2.7-17.2c-2.2,2.4-1.7,4.5-1.7,6.3c-0.1,11.7,0,23.3,0,35c0,0.9,0.4,2.1-0.7,2.7
	c-0.9,0.5-1.7-0.1-2.1-0.8c-2.4-5.1-7.5-8-10.1-12.9c-7.2-13.6-14.6-26.9-18.1-42.2c-2.1-9.4-4.7-18.5-4.4-28.2
	c0.1-2.3-0.4-4.5-2.8-6.7c-4.6,15.6,0.8,29.7,3.4,44c-0.8-1.3-1.3-2.7-3-2.5c-1.3,0.2-1.7,1.6-2,2.6c-1,3.9-1,7.7,0.4,11.7
	c1.5,4.2,3.4,8.2,5,12.3c3.1,7.7,6.6,15.1,11.9,21.6c2.7,3.3,4.1,7.6,6.2,11.5c-3.6-3.1-7.1-5.9-10.4-9
	c-8.3-7.7-14.6-16.8-18.7-27.4c-0.6-1.6-1.8-2.5-3.2-2.8c-1.8-0.4-1.2,1.6-1.6,2.5c-3.1,6.3-3.7,13.3-5.9,19.9
	c-3.6,10.8-6,21.9-8.6,32.9C751,720.7,768.7,720.7,786.4,720.7z M1280.4,639.7c-2-0.6-2.7-2.3-3.5-3.9c-2.6-5.7-2.5-12.3-7.9-17.1
	c-4.9-4.4-7.1-11.1-9.8-17.2c-3.1-7.1-7.9-13.8-10-21.1c-3.1-10.9-5.9-22-8.6-33.1c-4-16.4-9.1-32.5-13.6-48.7
	c-2.1-7.5-4.6-14.7-7.3-21.9c-0.4-1.1,0.2-3.1-1.9-2.7c-1.6,0.3-1.5,1.9-1.7,3.3c-0.5,2.7,2,4.2,2.2,6.9c0.5,11.1,4.2,21.8,6.7,32.5
	c2.9,12.3,6.4,24.6,10.1,36.7c5,16.5,10.5,32.8,17.9,48.4c5.4,11.4,12.1,22.1,18.4,32.9c3.1,5.2,4.7,11.3,8.9,15.9
	C1280.4,647,1280.4,643.3,1280.4,639.7z M187.4,720.7c-2.9-5.5-5.6-11.2-8.8-16.5c-3.3-5.5-1.7-12.6-5.9-19.2
	c-2.1,8.3-3.1,15.5-0.1,22.2c1.6,3.7,0.9,6.4-0.4,9.8c-2.2-1.6-2.8-4.3-5.5-4.6c-0.2,0.3-0.5,0.6-0.7,0.9c0,3,2.7,4.8,3.4,7.5
	C175.4,720.7,181.4,720.7,187.4,720.7z M968.9,512.3c-1.1,0.8-2.4,1-3.2,0c-4.2-4.7-10.4-5.5-15.8-7.9c-5.8-2.6-11.5-5.7-18.2-6.2
	c-11.9-0.8-23.8-2-35.7-3.1c-2.7-0.3-5-1.4-6.3-4.2c-0.7-1.7-1.7-3.3-3-4.6c-8.4-7.9-13.9-17.6-18.2-28.1c-0.8-1.9-0.9-3.8-0.8-5.9
	c1-14.1,2-28.1,2.9-42.2c0.7-10.5,1.8-20.7,11.5-27.6c2.4-1.7,4.7-3.9,6.3-6.4c2.8-4.2,7.9-6.8,8.3-12.7c0.8-12.4-1.8-24.5-2.4-36.7
	c-0.4-7.9-5.3-14.2-8.8-20.9c-0.8-1.5-0.7-4.5-3-4c-2.4,0.5-1.5,3.4-1.4,5.2c0.7,10.5-2.2,20.4-4.7,30.3c-2.4,9.3-5.4,18.4-8.1,27.5
	c-5.4,18.5-9.6,37.2-8.4,56.8c0.3,4.1,1.8,8.2,1,12.4c-2-7.8-4.2-15.8-4-23.8c0.4-12.9,1.8-25.8,2.7-38.7c0.4-5.3,0.7-10.6,0.9-15.9
	c0-1.1,0.3-2.7-1.2-2.9c-1.7-0.2-2.1,1.3-2.3,2.6c-1.6,12.1-6.5,23.6-7.1,36c-0.1,0.9-0.1,2.6-1.4,2c-3.6-1.5-3.6,1.8-4,3.3
	c-2,6.5-2.8,13.3-3.4,20c-1.6,16.7,1.7,32.7,7.8,47.9c5.9,14.7,16,26.8,28.1,36.9c14.4,11.9,31.5,18.6,49.2,24
	c13.5,4.1,27.2,6.9,41.2,8.8c1.7,0.2,3.2,0.4,4.4-2.1c-18.4-3.8-36.5-8.2-52.9-18.8c1.2-0.3,1.7-0.5,2.1-0.5c0.5,0,1,0,1.5,0.2
	c11.1,5,22.7,7.3,34.9,7.9c5.8,0.3,11.6,0.7,17.4,0.7c1.2,0,2.8,1.9,3.4,0.3c0.8-2.1-1.4-2.6-3-3.1c-2.9-1-4.7-3-5.5-6
	C969.4,512.9,969.2,512.6,968.9,512.3z M511.1,205.4c7.7,1.3,12.8-4.2,10.7-11.6c-0.4-1.5-1.1-2.9,0.8-3.8c2.6-1.2,5.8-2.4,8-1.2
	c2.4,1.3,2.5,4.7,2,7.6c-0.8,4.5-2.9,8.3-6.5,11.5c2.7,1.1,3.8-0.3,4.9-1.8c2.9-4,4.4-8.4,4.8-13.4c0.3-3.3-3.5-7.8,0.2-9.3
	c2.3-0.9,6.7,2.3,9.6,4.4c5.1,3.5,10.7,6.5,13.4,12.8c1,2.5-1,5.2,0.9,7.6c0.7-0.5,1.2-0.8,1.4-1.2c0.7-1.2,0.7-3.2,2.9-2.5
	c2.1,0.7,3.9,2.1,4.5,4.3c0.6,2.4-1.8,2.4-3.1,3.1c-3.1,1.6-6.8,0.9-10.1,2.2c4.5,1.3,8.9,1.6,13.3-0.4c4.1-1.9,4.6-4.9,1.4-8.2
	c-5.4-5.6-11.1-10.9-16.5-16.6c-6.5-6.8-13.3-12.6-22.8-15.3c-6.6-1.9-12.9-4.6-19.6-6.4c0.9-0.4,1.7-0.3,2.4-0.5
	c17.1-3.4,32.1-0.3,44.4,13c3.4,3.7,7.7,6.4,12.6,8.3c-5.2-6.4-10.6-12.5-16.4-18.2c-4-4-7.1-9.1-13.7-10.1
	c-8.2-1.3-16.3-0.1-24.3,1c-13.2,1.8-26,5.4-38.5,9.9c-3.6,1.3-7,0.3-8.8,5.4c-1.5,4.1-6.5,3.7-10.6,2.7c-0.9-0.2-2.1-0.7-2.4,0.6
	c-0.1,0.6,0.4,1.6,0.9,2.2c0.8,0.8,1.8,1.5,2.9,2c1.9,0.9,4.7,1.1,4,4.1c-0.8,3.3-3.8,2.6-6.2,2.6c-1.1,0-2.3-0.4-3.4-0.6
	c-1.2-0.3-2.6-1.4-3.5,0.3c-0.9,1.8,1.1,2.1,2,2.9c2.6,2.5,6.8,1.9,9.2,4c3.9,3.5,9.5,3,13.2,6.4c1,0.9,2.2,0.2,3.2-0.5
	c1-0.7,0.3-1.4-0.1-2.1c-2.3-5.3-0.2-10.7,4.8-13.6c2.6-1.5,5.1-0.8,7.1,0.2c1.9,0.9,0.6,3.2,0.1,5c-3,10.8,9.9,21,18.4,20.7
	c1.5,0,3.2-0.2,3.4-2.1c0.2-1.6-1.2-2.3-2.4-2.7c-1.7-0.6-3.4-0.9-6.3-1.5C506.6,204.5,508.8,205,511.1,205.4z M198.6,228.1
	c0-1.1,0.3-2.6-1.2-3c-1.2-0.3-1.7,0.9-2.2,1.7c-8,11.9-14.6,24.6-19,38.2c-4.3,13.4-6.3,27.4-8.9,41.2c-2.7,14.4-1.4,28.7,1.6,42.9
	c0.4,1.9,1.3,3.6,3.2,2.2c2.4-1.8,4.8-3.4,5.7-7c2-8,5.3-15.6,10.3-22.3c2.9-3.8,5.1-7.5,4.6-12.6c-0.6-7.3,0.9-14.5,1.6-21.8
	c0.7-7,3.3-13.4,4.4-20.3c1.4-8.5-1.3-16.9-0.1-23.6C198.7,237.4,198.7,232.7,198.6,228.1z M778.6,198.2c0.2-3.1,0.9-4.2,4.3-3
	c5.9,2.1,11.4,0.8,16.4-2.8c0.9-0.7,2.1-1.4,1.8-2.8c-0.3-1.5-1.8-1.1-2.9-1.3c-1.7-0.4-3.2-0.4-4.8,0.4c-1.5,0.7-3.1,1.2-4.4-0.7
	c1.5-0.5,3.2-0.5,4-1.9c1.1-1.9,2.9-4.3,2.4-5.9c-0.5-1.9-2.6,0.1-4.1,0.6c-2,0.6-4.5-1.5-4.1-2.4c2.9-5.8-0.6-3.9-3.6-3.6
	c-1.2,0.1-2.9-1-3.8-2c-4.5-5-10.9-7-16.8-8c-6.1-1.1-12.3-2.4-18.5-3.2c-10.6-1.5-21.3-3.4-30.2,4.9c-3.7,3.5-7,7.5-10.3,11.4
	c-1.1,1.3-3.1,2.4-3,5.6c5.5-4.4,10.2-8.6,15.3-12.2c6.1-4.3,12.3-5.4,17-3.6c-15.9,3.4-29.2,13.4-31.4,20.6
	c5.3-1.9,9.5-5.7,14.8-8.2c-1,3.6-1.9,6.7-2.8,9.8c-1.8,5.8-0.9,11.1,2.3,16.2c3.3,5.2,10.5,8,15.5,5.3c-2.4-1.1-4.5-2-6.6-2.9
	c-5.9-2.6-9.5-10.8-7.5-16.6c0.6-1.6,1.2-3,2.8-3.8c0.5,1.9,3.2,1.9,3.3,4.8c0.4,8.7,9.3,13.5,17.4,10c-0.3-0.4-0.5-0.9-0.9-1.1
	c-2.1-0.9-4.1-2-3.4-4.7c0.7-3,3-3.1,5.5-2.5c2,0.5,2.3-0.9,2.3-2.3c0-2.2,0.1-4.1,3-4.1c2.8,0,3.8,1.4,4.8,4
	c1.7,4.2-1.1,8-0.7,12.1c3.4-0.3,3.6-2.9,4.3-5c2-7.2,0.2-13.6-5.2-20c4.2,1.4,7.3,2.4,10.4,3.5c2.6,0.9,4.5,2.8,6.7,4.2
	c8.3,5.4,9.9,10.1,6.2,18.4C778.2,204.1,778.3,204.1,778.6,198.2z M508.2,125.4c-8.1,0.5-16.2-0.9-24.3,1.4
	c-11.8,3.4-22.9,8.8-34.5,12.6c-3.4,1.1-6.2,3-8.3,6c-0.7,1-1.7,1.9-0.8,3c0.8,1,2.1,0.5,3.2,0c3.4-1.6,6.7-3.1,10.6-3.6
	c7.7-1,15.4-2.1,22.7-5.3c4.9-2.2,9.9-2.7,15.5-1.9c10,1.6,19.9,3.1,30.1,3.6c9.9,0.5,19.8,1.3,29.6,3.4c8.5,1.8,17.1,4.3,26.1,3.4
	c1.4-0.1,3.3,0.6,3.9-1.3c0.5-1.6-1.3-2.1-2.3-2.9c-3.3-2.7-6.3-5.9-9.9-8.1c-6.9-4.2-13.7-8.4-22.1-9.5
	c-10.5-1.4-20.9-0.3-31.4-0.9C513.6,125.3,510.9,125.2,508.2,125.4z M138.6,255.9c2.7-4.9,5.3-10,8.5-14.5c4.5-6.5,9.6-12.6,14.3-19
	c4.5-6.1,8-12.9,12-19.3c5.6-9.2,13.6-16.6,21-24.4c2.9-3.1,5.3-6.3,6.2-10.5c1.6-7.3,4.8-13.7,10.2-19c2.2-2.2,3.8-4.8,4-8.3
	c0.2-3.5,1.6-6.7,3.9-9.5c5.8-6.9,1.8-14.5,2.9-22.4c-2.7,1.2-3,2.5-3.5,3.7c-2.8,6.7-5.6,13.1-9.9,19.2
	c-5.6,7.9-11.3,15.6-17.8,22.6c-14.2,15.3-23.8,33.3-31.6,52.4c-5.8,14.2-10.3,28.9-19.5,41.6c-2.4,3.3-6.2,6.2-5.6,11.5
	C134.7,257.8,137.4,258,138.6,255.9z M166.7,712.3c-3.3-4-2.8-10-7.3-13.4c-0.9-0.7-0.2-1.8,0-2.8c2.9-11.6-1.3-23.9,4.1-35.2
	c0.5-1,0.7-2.9-0.8-3.5c-1.2-0.5-2.6,0-3.7,0.9c-2.6,2.1-4.1,4.8-4.8,8c-1.1,5.5-2.3,11-3,16.6c-0.4,2.9-1.6,3.6-4.2,3.6
	c-9.3-0.2-18.5-1.1-27.7-2.7c-8.4-1.5-16.5-4-24.6-7c-8.7-3.2-17.6-5.8-24.7-12.2c-1.1-1-2.3-1.9-4-1.5c0,0.4-0.2,0.8,0,0.9
	c0.8,1,1.7,2.1,2.6,3c8.3,8.2,17.2,15.6,27.4,21.3c18.4,10.3,37.8,17.8,59.3,17.7c3.1,0,5.1,0.9,6.1,3.8c0.7,2,2.2,3.3,4.5,3.4
	C166.2,712.8,166.5,712.6,166.7,712.3z M802.3,136.3c-6.1-5.6-14-7.7-21.4-10.8c-9.2-3.9-18-3.7-26.8-1.7c-13.6,3-27.5,3.7-41,7.4
	c-6.5,1.7-12.2,6.5-13.4,12.8c-0.7,3.7,1.1,5,4.4,4.6c4.3-0.5,8.5-1.4,12.7-1.8c17.5-1.5,34.8-5,51.6-9.9c9.8-2.9,18.2,0,27.1,2.3
	c6.1,1.6,10.1,6.5,14.8,11.5C810.5,143.5,806.2,139.9,802.3,136.3z M1212.7,429.6c0.2-15.8,1.8-31.4,3.7-47.1
	c2.4-19.1,6.3-37.9,8.7-56.9c2-16,3.8-31.9,0.6-47.9c-1.5-7.6-1.5-15.7-4.2-22.8c-6.2-16.7-8.7-34.2-12.8-51.4
	c-1.6-6.7-5.2-12.3-9-19c-1.2,4.3,0.3,7,1.5,9.7c0.9,2,1.5,4,1.9,6.1c2,9.5,4.8,18.8,7.1,28.3c1.9,7.7,2.9,15.5,4.5,23.2
	c1.7,7.8,2.5,16,4.1,23.9c2.6,12.8,2,25.3,0.8,38c-0.9,9.5-3,18.9-3.9,28.5c-1,11.3-1.8,22.8-4.6,33.8c-2.9,11.5-4.5,23-4.2,35
	c0.2,8,3.2,15.5,3.1,23.7C1212.4,433.5,1212.6,431.6,1212.7,429.6z M969.7,513.1c1.4-0.5,2.7,2.7,4.2-0.1c1.2-2.1-0.4-3-1.4-4.3
	c-3.9-4.7-8.4-9-11.5-14.2c-6.9-11.6-16.6-19.1-29.1-23.3c-11.5-3.8-23.8-3.9-35.3-7.9c-7.5-2.6-13.7-6.7-17.9-13.5
	c-3.2-5.1-1.9-9.4,3.5-12.3c4.4-2.4,8.9-4.6,13.8-5.4c-0.2-1.4-0.8-1.6-1.4-1.8c-8.1-1.4-14.6,2.1-20.1,7.3
	c-4.8,4.5-4.7,15-0.8,20.3c1.5,2,7.5,3.4,1.9,7.5c-0.1,0.1,0.1,1,0.4,1.3c3.2,5,7.6,8.1,13.6,8.9c1.3,0.2,3.4,0.5,2.3-2.2
	c-1.4-3.4,0.5-2.2,2.2-1.7c7.5,2.1,14.9,4.7,22.5,5.9c13,2.1,24.1,7.7,32.4,17.6c5.8,6.8,14.7,9.6,20,16.9
	C969.2,512.6,969.4,512.9,969.7,513.1z M907.8,536.1c-12-5.1-22.6-12.6-32-21.3c-9.3-8.7-16.9-19.2-23-30.3
	c-4.1-7.5-6.4-15.7-8.9-24c-3.2-10.3-4.2-20.3-4.2-30.7c0-4,0-8,0-12c0-2.3-0.4-4.5-2.7-6.1c-0.6,1.2-1.1,2-1.4,3
	c-0.3,0.8-0.4,1.6-0.5,2.4c-0.9,17-2.2,33.9,0.6,51c2.2,13.3,8.3,24.2,15.8,34.6c7.9,10.9,18.5,18.8,29.9,25.9
	c11,6.9,22.7,12.1,35.1,15.9c1.7,0.5,2.9,0.2,4.2-1.4C916.6,540.1,912.2,537.9,907.8,536.1z M116.1,286.4c-3.5,7.5-6.5,8.8-14.5,6.9
	c-6.9-1.7-14-2.7-20.6-5.3c-8.5-3.4-17.2-6.5-23.2-14.5c-3.4-4.6-6.8-9.2-9.7-14.3c-1.4,1.3-0.9,2.4-0.6,3.5
	c3.2,12.5,11.3,21.7,21.6,28.2c9.1,5.8,18.9,10.9,30.1,12.6c5.1,0.7,6.4,4.2,3.4,8.5c-7.1,10.3-11.6,22-18.5,32.3
	c-0.7,1-1.6,2.3-0.3,3.6c6.7-5.8,44-73.5,43.3-80C123.3,274.8,119.1,280.2,116.1,286.4z M554.3,429.4c-1.3,0.5-3.2,1.1-2.9,2.9
	c0.3,2,2.1,2.6,3.8,2.6c9.2,0,18.6,1.4,27.4-0.5c12.2-2.6,24-0.1,35.9,0.2c11.7,0.3,23.5,1.7,34.9-0.2c13.6-2.3,27.4-1.7,40.8-5.3
	c6.2-1.7,12.8-1.8,19.3-0.4c1.8,0.4,4-0.4,4.4-2.4c0.3-2-2-1.8-3.2-2.4c-2.2-0.9-4.6-0.7-6.9-0.2c-12.7,2.6-25.3,5.1-38.4,4.7
	c-3.5-0.1-7.1-0.5-10.5,0.2c-15.8,3.2-31.8-0.1-47.6,1.7c-0.5,0.1-1,0-1.5-0.1c-14.5-3.2-29.4-2.3-44.7-3.9
	C561.5,425.7,558,427.9,554.3,429.4z M869,157.7c4.5,13.5,16.7,21.8,22,35c1.9-1.7,1.3-2.8,0.8-3.8c-1.7-3.8-3.3-7.6-5.2-11.3
	c-6.1-12.2-10.8-25.2-13.4-38.3c-2-10.4-8.7-16.6-14.1-24.3C860,129.9,864.4,143.8,869,157.7z M1151,381.5c2.6-5.2,5.2-10.9,8-16.1
	c4.9-9,6.7-18.9,9.6-28.5c3.2-10.4,2.6-21.3,4.6-31.9c0.9-4.9,0.2-10.2,0.2-15.2c-4.1,5.6-3.6,12.1-4.9,18.1
	c-3.1,13.3-5.3,26.8-9.5,39.9c-2.5,7.7-4.4,15.7-8.1,22.9c-4.5,8.9-7.8,18.1-10.7,27.6c-0.1,0.4,0.2,0.9,0.6,2.5
	C1145.6,394.4,1147.9,387.5,1151,381.5z M909.3,107.1c4,9.4,8.1,18.8,11,28.7c1.6,5.6,2.3,11.8,6.2,16.6c4,4.9,7.9,9.8,12.1,14.4
	c1.3,1.5,2,5.1,4.3,3.8c2-1.2,0.1-4.4-0.7-6.4c-4-10-8.3-19.8-12.6-29.7c-4.4-10.4-9.3-20.5-17.8-28.4c-0.7-0.7-1.3-1.4-1.9-2
	C908.8,104.1,908.6,105.5,909.3,107.1z M167.6,258.9c2.5-4.7,4.4-9.6,6.4-14.5c4.1-10.2,10.3-19.3,16.8-28c3.6-4.9,4-10.3,4.5-15.9
	c0.1-1-0.6-2.6-1.4-3c-1.1-0.6-2,0.8-2.7,1.7c-3.4,4.9-6,10.2-9.1,15.2c-7.4,11.9-12.6,24.6-16.4,38c-0.9,3-2.4,6.2-1,9.8
	C166.7,261.4,167,260,167.6,258.9z M105.5,652.4c9.5,7.6,20.7,12.2,31.7,17.2c1.9,0.9,5.2,2,6.9,0.1c1.5-1.7,2.1-4.6,1.3-7.1
	c-0.8-2.3-2.7-2.9-5-3.3c-9.6-1.9-18.9-4.4-27.4-9.6c-8.1-5-16.3-9.9-24.3-15.2C93.3,641.4,99.1,647.3,105.5,652.4z M55.8,382.7
	c-5.2,11.9-17.5,16.8-25.3,26c-4.7,5.6-12.7,7.4-16.4,14.2c-0.7,1.2-3.1,2.1-1.7,3.5c1.3,1.4,3.3,0.5,4.9-0.7
	c4.8-3.7,10.5-6.3,15.2-10c4.1-3.3,8.9-5.5,12.7-9.4c6.9-6.9,10.7-15.9,17.2-23.1c1.4-1.6,1.7-3.9,1-6.8
	C61.1,379.2,57.2,379.6,55.8,382.7z M855.7,45.5c-6.1-12.7-11.4-25.7-18.9-37.7c-2.9-4.7-5.7-9-12.3-7.5c-1.4,0.3-3.4-0.5-3.9,1.4
	c-0.4,1.5,1,2.6,2.1,3.7c9.3,9.4,17,20,24,31.2c3.5,5.6,6,11.8,10.3,17.1C856.9,50.9,856.9,48.1,855.7,45.5z M444.3,8.2
	c4.2-7.9,3.6-8.1-5.7-8c-4.3,0-6.6,1.6-6.5,6.1c0.1,3.2-1.1,6.1-2,9.2c-2.3,8-4.7,16-4.6,24.5C433.4,30.3,438.5,19.1,444.3,8.2z
	 M742.6,604.4c0.2-1.3,0.4-3.4-1.7-3.6c-2.1-0.2-2.7,1.5-2.8,3.3c-0.3,3.5,0,6.9-0.5,10.4c-1.9,13.9-4,27.9-1.5,42
	c0.2,1.1-0.2,2.5,1.4,2.8c1.1,0.2,2-0.6,2.4-1.5c2.1-3.7,4.4-7.3,3.9-12c-0.8-8.9-2.5-17.7-2.1-27.3
	C741.5,614.2,741.8,609.3,742.6,604.4z M1100.4,249.1c13.9,9.9,25.8,21.8,37,34.5c3,3.4,6.1,7.1,10.8,8.5c1.3,0.4,2.5,2.5,3.9,0.8
	c1.3-1.8,0-3.4-1.4-4.8c-0.5-0.5-0.9-1-1.4-1.4c-9.5-9.4-18.6-19.3-29.2-27.6c-6.6-5.1-13-10.5-21.2-13.1
	C1098.3,248,1099.5,248.4,1100.4,249.1z M606,337.2c1.4,4.4,4.8,7.3,9.2,7.6c3.4,0.2,6,1.3,8.4,3.4c1.1,1,2.3,1.9,3.6,2.7
	c0.8,0.5,1.8,1.3,2.7,0.4c1-0.9,0.1-1.8-0.4-2.6c-3.3-5.2-6.8-10.1-11.3-14.3c-2.2-2-4.6-3.1-7.3-3.4
	C605.9,331,604.6,332.7,606,337.2z M274.9,2.4c-1.5,4.3-3.2,8.7-2.9,13.5c0.2,2.1,0.9,2.9,2.7,1.3c3.8-3.4,7.6-6.7,11.3-10.2
	c1.7-1.6,4.2-3.6,3.3-5.6c-1-2.3-4.2-0.6-6.7-1.2C280.3,1.2,276.2-1.4,274.9,2.4z M550.5,666.4c-4.9-19.3-14.6-36.7-21.2-55.3
	C533.2,630.8,540,649.3,550.5,666.4z M832.9,263.7c0.6,10.3-6,17.9-9.7,26.6c-0.6,1.4-1.1,2.7-1.1,4.3c0.1,3.5,1.5,5.1,5.1,3.5
	c6.6-3,9.5-9.4,13.4-14.9c0.3-0.5,0.2-1.7-1.3-2c-4.5,4-7.2,10-13.1,13.3C829.3,284.4,837.8,275.6,832.9,263.7z M722.6,589.9
	c-8.4,16.1-11.5,33.4-17.1,49.8C712.9,631,723.8,598.3,722.6,589.9z M591.9,299.3c-8.4,7.9-12.4,17.9-11.6,29
	c0.5,7.7,3.9,14.9,12.6,18.1C577.1,330.8,584.7,315.1,591.9,299.3z M603.6,204.5c3.6-13.7-8.8-40.4-19.7-41.6
	C596.8,174.1,598.5,189.6,603.6,204.5z"/>
<g>
</g>
<g>
</g>
<g>
</g>
<g>
</g>
<g>
</g>
<g>
</g>
<g>
</g>
<g>
</g>
<g>
</g>
<g>
</g>
<g>
</g>
<g>
</g>
<g>
</g>
<g>
</g>
<g>
</g>
</svg>
